<?xml version="1.0" standalone="no"?>
 <!DOCTYPE svg PUBLIC "-//W3C//DTD SVG 1.1//EN" 
 "http://www.w3.org/Graphics/SVG/1.1/DTD/svg11.dtd"> 
<svg
  xmlns:svg="http://www.w3.org/2000/svg"
  xmlns="http://www.w3.org/2000/svg"
  xmlns:xlink="http://www.w3.org/1999/xlink"
  version="1.1"
  width="2.103120cm" height="1.704340cm" viewBox="0 0 8280 6710">
<title>SVG Picture created as Encoder-Edge_Cuts.svg date 2021/03/08 00:44:43 </title>
  <desc>Picture generated by PCBNEW </desc>
<g style="fill:#000000; fill-opacity:1;stroke:#000000; stroke-opacity:1;
stroke-linecap:round; stroke-linejoin:round;"
 transform="translate(0 0) scale(1 1)">
</g>
<g style="fill:#000000; fill-opacity:0.0; 
stroke:#000000; stroke-width:-0.000393701; stroke-opacity:1; 
stroke-linecap:round; stroke-linejoin:round;">
</g>
<g style="fill:#C2C200; fill-opacity:0.0; 
stroke:#C2C200; stroke-width:-0.000393701; stroke-opacity:1; 
stroke-linecap:round; stroke-linejoin:round;">
</g>
<g style="fill:#C2C200; fill-opacity:0.0; 
stroke:#C2C200; stroke-width:19.685; stroke-opacity:1; 
stroke-linecap:round; stroke-linejoin:round;">
<path d="M7883.86 4931.1 A393.701 393.701 0.0 0 0 8277.56 4537.4" />
<path d="M8277.56 2175.2 A393.701 393.701 0.0 0 0 7883.86 1781.5" />
<path d="M9.84291 4537.4 A393.701 393.701 0.0 0 0 403.544 4931.1" />
<path d="M403.544 1781.5 A393.701 393.701 0.0 0 0 9.84291 2175.2" />
<path d="M403 4931
L1190 4931
" />
<path d="M9 2175
L9 4537
" />
<path d="M1190 1781
L403 1781
" />
<path d="M7883 4931
L7096 4931
" />
<path d="M8277 2175
L8277 4537
" />
<path d="M7096 1781
L7883 1781
" />
<path d="M1190.95 4931.1 A3346.46 3346.46 0.0 0 0 7096.46 4931.1" />
<path d="M7096.46 1781.5 A3346.46 3346.46 0.0 0 0 1190.95 1781.5" />
<g >
</g>
<g >
</g>
<g >
</g>
<g >
</g>
<g >
</g>
<g >
</g>
<g >
</g>
<g >
</g>
<g >
</g>
<g >
</g>
<g >
</g>
<g >
</g>
</g> 
</svg>
