G04 #@! TF.GenerationSoftware,KiCad,Pcbnew,(5.1.6-0-10_14)*
G04 #@! TF.CreationDate,2021-01-19T17:30:13+01:00*
G04 #@! TF.ProjectId,Encoder,456e636f-6465-4722-9e6b-696361645f70,1.1*
G04 #@! TF.SameCoordinates,Original*
G04 #@! TF.FileFunction,Legend,Top*
G04 #@! TF.FilePolarity,Positive*
%FSLAX46Y46*%
G04 Gerber Fmt 4.6, Leading zero omitted, Abs format (unit mm)*
G04 Created by KiCad (PCBNEW (5.1.6-0-10_14)) date 2021-01-19 17:30:13*
%MOMM*%
%LPD*%
G01*
G04 APERTURE LIST*
%ADD10C,0.150000*%
%ADD11C,0.100000*%
%ADD12C,0.010000*%
G04 APERTURE END LIST*
D10*
X108365380Y-90472714D02*
X108365380Y-91472714D01*
X108365380Y-90520333D02*
X108460619Y-90472714D01*
X108651095Y-90472714D01*
X108746333Y-90520333D01*
X108793952Y-90567952D01*
X108841571Y-90663190D01*
X108841571Y-90948904D01*
X108793952Y-91044142D01*
X108746333Y-91091761D01*
X108651095Y-91139380D01*
X108460619Y-91139380D01*
X108365380Y-91091761D01*
X109174904Y-90472714D02*
X109365380Y-91139380D01*
X109555857Y-90663190D01*
X109746333Y-91139380D01*
X109936809Y-90472714D01*
X110317761Y-91139380D02*
X110317761Y-90472714D01*
X110317761Y-90663190D02*
X110365380Y-90567952D01*
X110413000Y-90520333D01*
X110508238Y-90472714D01*
X110603476Y-90472714D01*
D11*
X112748714Y-89902476D02*
X112748714Y-89521523D01*
X112939190Y-89712000D02*
X112558238Y-89712000D01*
D10*
X120493160Y-88837279D02*
X120843346Y-88487093D01*
X120870284Y-88891154D01*
X120951096Y-88810341D01*
X121031908Y-88783404D01*
X121085783Y-88783404D01*
X121166595Y-88810341D01*
X121301282Y-88945028D01*
X121328219Y-89025841D01*
X121328219Y-89079715D01*
X121301282Y-89160528D01*
X121139658Y-89322152D01*
X121058845Y-89349089D01*
X121004971Y-89349089D01*
X121597593Y-88756467D02*
X121651468Y-88756467D01*
X121651468Y-88810341D01*
X121597593Y-88810341D01*
X121597593Y-88756467D01*
X121651468Y-88810341D01*
X121301282Y-88029157D02*
X121651468Y-87678971D01*
X121678406Y-88083032D01*
X121759218Y-88002219D01*
X121840030Y-87975282D01*
X121893905Y-87975282D01*
X121974717Y-88002219D01*
X122109404Y-88136906D01*
X122136341Y-88217719D01*
X122136341Y-88271593D01*
X122109404Y-88352406D01*
X121947780Y-88514030D01*
X121866967Y-88540967D01*
X121813093Y-88540967D01*
X121813093Y-87517346D02*
X122567340Y-87894470D01*
X122190216Y-87140223D01*
D12*
G36*
X117185813Y-89078727D02*
G01*
X117274492Y-89105754D01*
X117356214Y-89151470D01*
X117432220Y-89216424D01*
X117441277Y-89225813D01*
X117496120Y-89294035D01*
X117534130Y-89366369D01*
X117556500Y-89446251D01*
X117564428Y-89537117D01*
X117563802Y-89577832D01*
X117561144Y-89626676D01*
X117556585Y-89662803D01*
X117548295Y-89693815D01*
X117534443Y-89727313D01*
X117521155Y-89754900D01*
X117469950Y-89838937D01*
X117406455Y-89907385D01*
X117328771Y-89962118D01*
X117291514Y-89981440D01*
X117210471Y-90019800D01*
X117210195Y-90179820D01*
X117209920Y-90339840D01*
X117705220Y-90340016D01*
X117827095Y-90340140D01*
X117930638Y-90340523D01*
X118017835Y-90341319D01*
X118090672Y-90342683D01*
X118151137Y-90344769D01*
X118201215Y-90347733D01*
X118242894Y-90351728D01*
X118278160Y-90356911D01*
X118309001Y-90363434D01*
X118337402Y-90371454D01*
X118365351Y-90381124D01*
X118394834Y-90392601D01*
X118398281Y-90393990D01*
X118485129Y-90434841D01*
X118562410Y-90484609D01*
X118637244Y-90548025D01*
X118653153Y-90563360D01*
X118735560Y-90657663D01*
X118799593Y-90760636D01*
X118839969Y-90856145D01*
X118857983Y-90919449D01*
X118872764Y-90990991D01*
X118882734Y-91061740D01*
X118886320Y-91121764D01*
X118887879Y-91147382D01*
X118896524Y-91159841D01*
X118918203Y-91166270D01*
X118924420Y-91167422D01*
X118971138Y-91181054D01*
X119026766Y-91205237D01*
X119085289Y-91236730D01*
X119140698Y-91272289D01*
X119186981Y-91308672D01*
X119188044Y-91309632D01*
X119254196Y-91379786D01*
X119312251Y-91461103D01*
X119357513Y-91546610D01*
X119371777Y-91582650D01*
X119390854Y-91656344D01*
X119401502Y-91740670D01*
X119403313Y-91827594D01*
X119395882Y-91909078D01*
X119389839Y-91940040D01*
X119355383Y-92043737D01*
X119303380Y-92140275D01*
X119236023Y-92227306D01*
X119155506Y-92302481D01*
X119064023Y-92363453D01*
X118963768Y-92407873D01*
X118947849Y-92413043D01*
X118916188Y-92424774D01*
X118893002Y-92436939D01*
X118885128Y-92444267D01*
X118880292Y-92460767D01*
X118874004Y-92491060D01*
X118867571Y-92528808D01*
X118867154Y-92531531D01*
X118840587Y-92640373D01*
X118795662Y-92744248D01*
X118734122Y-92841159D01*
X118657712Y-92929109D01*
X118568174Y-93006100D01*
X118467254Y-93070136D01*
X118356694Y-93119217D01*
X118352920Y-93120553D01*
X118271640Y-93149080D01*
X117113400Y-93150938D01*
X116927705Y-93151194D01*
X116761306Y-93151328D01*
X116613178Y-93151330D01*
X116482296Y-93151191D01*
X116367636Y-93150900D01*
X116268173Y-93150449D01*
X116182883Y-93149826D01*
X116110741Y-93149023D01*
X116050724Y-93148031D01*
X116001806Y-93146838D01*
X115962963Y-93145435D01*
X115933170Y-93143814D01*
X115911404Y-93141963D01*
X115896639Y-93139873D01*
X115894200Y-93139374D01*
X115783514Y-93105291D01*
X115679482Y-93054326D01*
X115584082Y-92988537D01*
X115499295Y-92909979D01*
X115427101Y-92820708D01*
X115369479Y-92722779D01*
X115328410Y-92618250D01*
X115308845Y-92531531D01*
X115302450Y-92493502D01*
X115296110Y-92462490D01*
X115291131Y-92444833D01*
X115290871Y-92444267D01*
X115277988Y-92433823D01*
X115251901Y-92421459D01*
X115228150Y-92413043D01*
X115138958Y-92378080D01*
X115057795Y-92329852D01*
X114979815Y-92265335D01*
X114959254Y-92245310D01*
X114885903Y-92160655D01*
X114831590Y-92071996D01*
X114795442Y-91977054D01*
X114776585Y-91873550D01*
X114774263Y-91773106D01*
X115018299Y-91773106D01*
X115023007Y-91853119D01*
X115023197Y-91854151D01*
X115048697Y-91943107D01*
X115089541Y-92020416D01*
X115135971Y-92075925D01*
X115167798Y-92103581D01*
X115203950Y-92129948D01*
X115239177Y-92151695D01*
X115268229Y-92165490D01*
X115282060Y-92168631D01*
X115283785Y-92158846D01*
X115285374Y-92130977D01*
X115286781Y-92087261D01*
X115287960Y-92029932D01*
X115288866Y-91961229D01*
X115289454Y-91883386D01*
X115289679Y-91798640D01*
X115289680Y-91792720D01*
X115289538Y-91707587D01*
X115289137Y-91629207D01*
X115288507Y-91559814D01*
X115287680Y-91501645D01*
X115287662Y-91500824D01*
X115545260Y-91500824D01*
X115545471Y-91647018D01*
X115545896Y-91778108D01*
X115548760Y-92509000D01*
X115572692Y-92568336D01*
X115620893Y-92662437D01*
X115683619Y-92743517D01*
X115759243Y-92810202D01*
X115846139Y-92861117D01*
X115942680Y-92894889D01*
X115965320Y-92899936D01*
X115982270Y-92901301D01*
X116017894Y-92902558D01*
X116070544Y-92903708D01*
X116138573Y-92904749D01*
X116220335Y-92905681D01*
X116314182Y-92906502D01*
X116418469Y-92907214D01*
X116531547Y-92907814D01*
X116651772Y-92908302D01*
X116777495Y-92908677D01*
X116907069Y-92908940D01*
X117038849Y-92909088D01*
X117171187Y-92909122D01*
X117302437Y-92909041D01*
X117430951Y-92908844D01*
X117555084Y-92908530D01*
X117673187Y-92908099D01*
X117783615Y-92907550D01*
X117884721Y-92906883D01*
X117974857Y-92906096D01*
X118052377Y-92905189D01*
X118115635Y-92904162D01*
X118162983Y-92903014D01*
X118192775Y-92901744D01*
X118202014Y-92900839D01*
X118302770Y-92871864D01*
X118393507Y-92825636D01*
X118472854Y-92763291D01*
X118539441Y-92685965D01*
X118591899Y-92594793D01*
X118603307Y-92568336D01*
X118627240Y-92509000D01*
X118630068Y-91786918D01*
X118886320Y-91786918D01*
X118886320Y-92170009D01*
X118909180Y-92163365D01*
X118929503Y-92154282D01*
X118959333Y-92137356D01*
X118986977Y-92119702D01*
X119052323Y-92064274D01*
X119102104Y-91998280D01*
X119136092Y-91924482D01*
X119154060Y-91845646D01*
X119155780Y-91764533D01*
X119141025Y-91683909D01*
X119109565Y-91606536D01*
X119061174Y-91535177D01*
X119037301Y-91509211D01*
X119011071Y-91486374D01*
X118978114Y-91462270D01*
X118943868Y-91440353D01*
X118913770Y-91424075D01*
X118893260Y-91416887D01*
X118891737Y-91416800D01*
X118890511Y-91426587D01*
X118889383Y-91454460D01*
X118888383Y-91498185D01*
X118887545Y-91555528D01*
X118886900Y-91624253D01*
X118886481Y-91702128D01*
X118886320Y-91786918D01*
X118630068Y-91786918D01*
X118630103Y-91778108D01*
X118630599Y-91609897D01*
X118630690Y-91461966D01*
X118630376Y-91334280D01*
X118629655Y-91226804D01*
X118628528Y-91139501D01*
X118626994Y-91072338D01*
X118625053Y-91025277D01*
X118622705Y-90998284D01*
X118622153Y-90995128D01*
X118593381Y-90905147D01*
X118546852Y-90821381D01*
X118484771Y-90746269D01*
X118409347Y-90682251D01*
X118322787Y-90631765D01*
X118275567Y-90612195D01*
X118210680Y-90588760D01*
X117148960Y-90585810D01*
X116966065Y-90585406D01*
X116796705Y-90585243D01*
X116641591Y-90585317D01*
X116501436Y-90585623D01*
X116376950Y-90586158D01*
X116268845Y-90586916D01*
X116177834Y-90587892D01*
X116104628Y-90589083D01*
X116049939Y-90590484D01*
X116014479Y-90592091D01*
X116003699Y-90593027D01*
X115908158Y-90612103D01*
X115823591Y-90645754D01*
X115745942Y-90696001D01*
X115682906Y-90752702D01*
X115639044Y-90806665D01*
X115599586Y-90872577D01*
X115569011Y-90942069D01*
X115554263Y-90993120D01*
X115551817Y-91013902D01*
X115549767Y-91051099D01*
X115548107Y-91105212D01*
X115546832Y-91176740D01*
X115545936Y-91266185D01*
X115545414Y-91374046D01*
X115545260Y-91500824D01*
X115287662Y-91500824D01*
X115286690Y-91456937D01*
X115285568Y-91427925D01*
X115284347Y-91416846D01*
X115284262Y-91416800D01*
X115272903Y-91421030D01*
X115249467Y-91431909D01*
X115229661Y-91441722D01*
X115162136Y-91486720D01*
X115105417Y-91545994D01*
X115061325Y-91615907D01*
X115031678Y-91692823D01*
X115018299Y-91773106D01*
X114774263Y-91773106D01*
X114774011Y-91762240D01*
X114787675Y-91648454D01*
X114818953Y-91544407D01*
X114868374Y-91448961D01*
X114936471Y-91360981D01*
X114983749Y-91313827D01*
X115032241Y-91274847D01*
X115089319Y-91237465D01*
X115149106Y-91204906D01*
X115205722Y-91180396D01*
X115250147Y-91167691D01*
X115286814Y-91161076D01*
X115293526Y-91073764D01*
X115306584Y-90967277D01*
X115329005Y-90873731D01*
X115360413Y-90791184D01*
X115419669Y-90684678D01*
X115495208Y-90588976D01*
X115585058Y-90505954D01*
X115687247Y-90437489D01*
X115777718Y-90393990D01*
X115807494Y-90382304D01*
X115835515Y-90372441D01*
X115863768Y-90364246D01*
X115894240Y-90357564D01*
X115928918Y-90352241D01*
X115969789Y-90348122D01*
X116018839Y-90345052D01*
X116078055Y-90342876D01*
X116149424Y-90341440D01*
X116234932Y-90340588D01*
X116336566Y-90340167D01*
X116456313Y-90340022D01*
X116470780Y-90340016D01*
X116966080Y-90339840D01*
X116965528Y-90019800D01*
X116884485Y-89981440D01*
X116800285Y-89931900D01*
X116731071Y-89869431D01*
X116674943Y-89792160D01*
X116654844Y-89754900D01*
X116636246Y-89715490D01*
X116624437Y-89683656D01*
X116617583Y-89651793D01*
X116613856Y-89612302D01*
X116612197Y-89577832D01*
X116612530Y-89568150D01*
X116855793Y-89568150D01*
X116861296Y-89600799D01*
X116875985Y-89638563D01*
X116877225Y-89641284D01*
X116914373Y-89700143D01*
X116963500Y-89743746D01*
X117021880Y-89770863D01*
X117086786Y-89780263D01*
X117155493Y-89770713D01*
X117160558Y-89769248D01*
X117212102Y-89744151D01*
X117258263Y-89703541D01*
X117293930Y-89652223D01*
X117301119Y-89637106D01*
X117318063Y-89573666D01*
X117316163Y-89509976D01*
X117296560Y-89449463D01*
X117260395Y-89395553D01*
X117208809Y-89351673D01*
X117205368Y-89349508D01*
X117173246Y-89331783D01*
X117144158Y-89322451D01*
X117108627Y-89319031D01*
X117088000Y-89318760D01*
X117046473Y-89320329D01*
X117015657Y-89326691D01*
X116986074Y-89340330D01*
X116970631Y-89349508D01*
X116917545Y-89393749D01*
X116879817Y-89450085D01*
X116859376Y-89515444D01*
X116857514Y-89529500D01*
X116855793Y-89568150D01*
X116612530Y-89568150D01*
X116615664Y-89477192D01*
X116635175Y-89387952D01*
X116671495Y-89308115D01*
X116725391Y-89235681D01*
X116755047Y-89205474D01*
X116830351Y-89144479D01*
X116908339Y-89102443D01*
X116992337Y-89078017D01*
X117085668Y-89069848D01*
X117088938Y-89069839D01*
X117185813Y-89078727D01*
G37*
X117185813Y-89078727D02*
X117274492Y-89105754D01*
X117356214Y-89151470D01*
X117432220Y-89216424D01*
X117441277Y-89225813D01*
X117496120Y-89294035D01*
X117534130Y-89366369D01*
X117556500Y-89446251D01*
X117564428Y-89537117D01*
X117563802Y-89577832D01*
X117561144Y-89626676D01*
X117556585Y-89662803D01*
X117548295Y-89693815D01*
X117534443Y-89727313D01*
X117521155Y-89754900D01*
X117469950Y-89838937D01*
X117406455Y-89907385D01*
X117328771Y-89962118D01*
X117291514Y-89981440D01*
X117210471Y-90019800D01*
X117210195Y-90179820D01*
X117209920Y-90339840D01*
X117705220Y-90340016D01*
X117827095Y-90340140D01*
X117930638Y-90340523D01*
X118017835Y-90341319D01*
X118090672Y-90342683D01*
X118151137Y-90344769D01*
X118201215Y-90347733D01*
X118242894Y-90351728D01*
X118278160Y-90356911D01*
X118309001Y-90363434D01*
X118337402Y-90371454D01*
X118365351Y-90381124D01*
X118394834Y-90392601D01*
X118398281Y-90393990D01*
X118485129Y-90434841D01*
X118562410Y-90484609D01*
X118637244Y-90548025D01*
X118653153Y-90563360D01*
X118735560Y-90657663D01*
X118799593Y-90760636D01*
X118839969Y-90856145D01*
X118857983Y-90919449D01*
X118872764Y-90990991D01*
X118882734Y-91061740D01*
X118886320Y-91121764D01*
X118887879Y-91147382D01*
X118896524Y-91159841D01*
X118918203Y-91166270D01*
X118924420Y-91167422D01*
X118971138Y-91181054D01*
X119026766Y-91205237D01*
X119085289Y-91236730D01*
X119140698Y-91272289D01*
X119186981Y-91308672D01*
X119188044Y-91309632D01*
X119254196Y-91379786D01*
X119312251Y-91461103D01*
X119357513Y-91546610D01*
X119371777Y-91582650D01*
X119390854Y-91656344D01*
X119401502Y-91740670D01*
X119403313Y-91827594D01*
X119395882Y-91909078D01*
X119389839Y-91940040D01*
X119355383Y-92043737D01*
X119303380Y-92140275D01*
X119236023Y-92227306D01*
X119155506Y-92302481D01*
X119064023Y-92363453D01*
X118963768Y-92407873D01*
X118947849Y-92413043D01*
X118916188Y-92424774D01*
X118893002Y-92436939D01*
X118885128Y-92444267D01*
X118880292Y-92460767D01*
X118874004Y-92491060D01*
X118867571Y-92528808D01*
X118867154Y-92531531D01*
X118840587Y-92640373D01*
X118795662Y-92744248D01*
X118734122Y-92841159D01*
X118657712Y-92929109D01*
X118568174Y-93006100D01*
X118467254Y-93070136D01*
X118356694Y-93119217D01*
X118352920Y-93120553D01*
X118271640Y-93149080D01*
X117113400Y-93150938D01*
X116927705Y-93151194D01*
X116761306Y-93151328D01*
X116613178Y-93151330D01*
X116482296Y-93151191D01*
X116367636Y-93150900D01*
X116268173Y-93150449D01*
X116182883Y-93149826D01*
X116110741Y-93149023D01*
X116050724Y-93148031D01*
X116001806Y-93146838D01*
X115962963Y-93145435D01*
X115933170Y-93143814D01*
X115911404Y-93141963D01*
X115896639Y-93139873D01*
X115894200Y-93139374D01*
X115783514Y-93105291D01*
X115679482Y-93054326D01*
X115584082Y-92988537D01*
X115499295Y-92909979D01*
X115427101Y-92820708D01*
X115369479Y-92722779D01*
X115328410Y-92618250D01*
X115308845Y-92531531D01*
X115302450Y-92493502D01*
X115296110Y-92462490D01*
X115291131Y-92444833D01*
X115290871Y-92444267D01*
X115277988Y-92433823D01*
X115251901Y-92421459D01*
X115228150Y-92413043D01*
X115138958Y-92378080D01*
X115057795Y-92329852D01*
X114979815Y-92265335D01*
X114959254Y-92245310D01*
X114885903Y-92160655D01*
X114831590Y-92071996D01*
X114795442Y-91977054D01*
X114776585Y-91873550D01*
X114774263Y-91773106D01*
X115018299Y-91773106D01*
X115023007Y-91853119D01*
X115023197Y-91854151D01*
X115048697Y-91943107D01*
X115089541Y-92020416D01*
X115135971Y-92075925D01*
X115167798Y-92103581D01*
X115203950Y-92129948D01*
X115239177Y-92151695D01*
X115268229Y-92165490D01*
X115282060Y-92168631D01*
X115283785Y-92158846D01*
X115285374Y-92130977D01*
X115286781Y-92087261D01*
X115287960Y-92029932D01*
X115288866Y-91961229D01*
X115289454Y-91883386D01*
X115289679Y-91798640D01*
X115289680Y-91792720D01*
X115289538Y-91707587D01*
X115289137Y-91629207D01*
X115288507Y-91559814D01*
X115287680Y-91501645D01*
X115287662Y-91500824D01*
X115545260Y-91500824D01*
X115545471Y-91647018D01*
X115545896Y-91778108D01*
X115548760Y-92509000D01*
X115572692Y-92568336D01*
X115620893Y-92662437D01*
X115683619Y-92743517D01*
X115759243Y-92810202D01*
X115846139Y-92861117D01*
X115942680Y-92894889D01*
X115965320Y-92899936D01*
X115982270Y-92901301D01*
X116017894Y-92902558D01*
X116070544Y-92903708D01*
X116138573Y-92904749D01*
X116220335Y-92905681D01*
X116314182Y-92906502D01*
X116418469Y-92907214D01*
X116531547Y-92907814D01*
X116651772Y-92908302D01*
X116777495Y-92908677D01*
X116907069Y-92908940D01*
X117038849Y-92909088D01*
X117171187Y-92909122D01*
X117302437Y-92909041D01*
X117430951Y-92908844D01*
X117555084Y-92908530D01*
X117673187Y-92908099D01*
X117783615Y-92907550D01*
X117884721Y-92906883D01*
X117974857Y-92906096D01*
X118052377Y-92905189D01*
X118115635Y-92904162D01*
X118162983Y-92903014D01*
X118192775Y-92901744D01*
X118202014Y-92900839D01*
X118302770Y-92871864D01*
X118393507Y-92825636D01*
X118472854Y-92763291D01*
X118539441Y-92685965D01*
X118591899Y-92594793D01*
X118603307Y-92568336D01*
X118627240Y-92509000D01*
X118630068Y-91786918D01*
X118886320Y-91786918D01*
X118886320Y-92170009D01*
X118909180Y-92163365D01*
X118929503Y-92154282D01*
X118959333Y-92137356D01*
X118986977Y-92119702D01*
X119052323Y-92064274D01*
X119102104Y-91998280D01*
X119136092Y-91924482D01*
X119154060Y-91845646D01*
X119155780Y-91764533D01*
X119141025Y-91683909D01*
X119109565Y-91606536D01*
X119061174Y-91535177D01*
X119037301Y-91509211D01*
X119011071Y-91486374D01*
X118978114Y-91462270D01*
X118943868Y-91440353D01*
X118913770Y-91424075D01*
X118893260Y-91416887D01*
X118891737Y-91416800D01*
X118890511Y-91426587D01*
X118889383Y-91454460D01*
X118888383Y-91498185D01*
X118887545Y-91555528D01*
X118886900Y-91624253D01*
X118886481Y-91702128D01*
X118886320Y-91786918D01*
X118630068Y-91786918D01*
X118630103Y-91778108D01*
X118630599Y-91609897D01*
X118630690Y-91461966D01*
X118630376Y-91334280D01*
X118629655Y-91226804D01*
X118628528Y-91139501D01*
X118626994Y-91072338D01*
X118625053Y-91025277D01*
X118622705Y-90998284D01*
X118622153Y-90995128D01*
X118593381Y-90905147D01*
X118546852Y-90821381D01*
X118484771Y-90746269D01*
X118409347Y-90682251D01*
X118322787Y-90631765D01*
X118275567Y-90612195D01*
X118210680Y-90588760D01*
X117148960Y-90585810D01*
X116966065Y-90585406D01*
X116796705Y-90585243D01*
X116641591Y-90585317D01*
X116501436Y-90585623D01*
X116376950Y-90586158D01*
X116268845Y-90586916D01*
X116177834Y-90587892D01*
X116104628Y-90589083D01*
X116049939Y-90590484D01*
X116014479Y-90592091D01*
X116003699Y-90593027D01*
X115908158Y-90612103D01*
X115823591Y-90645754D01*
X115745942Y-90696001D01*
X115682906Y-90752702D01*
X115639044Y-90806665D01*
X115599586Y-90872577D01*
X115569011Y-90942069D01*
X115554263Y-90993120D01*
X115551817Y-91013902D01*
X115549767Y-91051099D01*
X115548107Y-91105212D01*
X115546832Y-91176740D01*
X115545936Y-91266185D01*
X115545414Y-91374046D01*
X115545260Y-91500824D01*
X115287662Y-91500824D01*
X115286690Y-91456937D01*
X115285568Y-91427925D01*
X115284347Y-91416846D01*
X115284262Y-91416800D01*
X115272903Y-91421030D01*
X115249467Y-91431909D01*
X115229661Y-91441722D01*
X115162136Y-91486720D01*
X115105417Y-91545994D01*
X115061325Y-91615907D01*
X115031678Y-91692823D01*
X115018299Y-91773106D01*
X114774263Y-91773106D01*
X114774011Y-91762240D01*
X114787675Y-91648454D01*
X114818953Y-91544407D01*
X114868374Y-91448961D01*
X114936471Y-91360981D01*
X114983749Y-91313827D01*
X115032241Y-91274847D01*
X115089319Y-91237465D01*
X115149106Y-91204906D01*
X115205722Y-91180396D01*
X115250147Y-91167691D01*
X115286814Y-91161076D01*
X115293526Y-91073764D01*
X115306584Y-90967277D01*
X115329005Y-90873731D01*
X115360413Y-90791184D01*
X115419669Y-90684678D01*
X115495208Y-90588976D01*
X115585058Y-90505954D01*
X115687247Y-90437489D01*
X115777718Y-90393990D01*
X115807494Y-90382304D01*
X115835515Y-90372441D01*
X115863768Y-90364246D01*
X115894240Y-90357564D01*
X115928918Y-90352241D01*
X115969789Y-90348122D01*
X116018839Y-90345052D01*
X116078055Y-90342876D01*
X116149424Y-90341440D01*
X116234932Y-90340588D01*
X116336566Y-90340167D01*
X116456313Y-90340022D01*
X116470780Y-90340016D01*
X116966080Y-90339840D01*
X116965528Y-90019800D01*
X116884485Y-89981440D01*
X116800285Y-89931900D01*
X116731071Y-89869431D01*
X116674943Y-89792160D01*
X116654844Y-89754900D01*
X116636246Y-89715490D01*
X116624437Y-89683656D01*
X116617583Y-89651793D01*
X116613856Y-89612302D01*
X116612197Y-89577832D01*
X116612530Y-89568150D01*
X116855793Y-89568150D01*
X116861296Y-89600799D01*
X116875985Y-89638563D01*
X116877225Y-89641284D01*
X116914373Y-89700143D01*
X116963500Y-89743746D01*
X117021880Y-89770863D01*
X117086786Y-89780263D01*
X117155493Y-89770713D01*
X117160558Y-89769248D01*
X117212102Y-89744151D01*
X117258263Y-89703541D01*
X117293930Y-89652223D01*
X117301119Y-89637106D01*
X117318063Y-89573666D01*
X117316163Y-89509976D01*
X117296560Y-89449463D01*
X117260395Y-89395553D01*
X117208809Y-89351673D01*
X117205368Y-89349508D01*
X117173246Y-89331783D01*
X117144158Y-89322451D01*
X117108627Y-89319031D01*
X117088000Y-89318760D01*
X117046473Y-89320329D01*
X117015657Y-89326691D01*
X116986074Y-89340330D01*
X116970631Y-89349508D01*
X116917545Y-89393749D01*
X116879817Y-89450085D01*
X116859376Y-89515444D01*
X116857514Y-89529500D01*
X116855793Y-89568150D01*
X116612530Y-89568150D01*
X116615664Y-89477192D01*
X116635175Y-89387952D01*
X116671495Y-89308115D01*
X116725391Y-89235681D01*
X116755047Y-89205474D01*
X116830351Y-89144479D01*
X116908339Y-89102443D01*
X116992337Y-89078017D01*
X117085668Y-89069848D01*
X117088938Y-89069839D01*
X117185813Y-89078727D01*
G36*
X117197648Y-92220074D02*
G01*
X117269977Y-92220995D01*
X117334828Y-92222394D01*
X117389111Y-92224273D01*
X117429740Y-92226630D01*
X117453625Y-92229466D01*
X117455646Y-92229953D01*
X117499414Y-92251753D01*
X117529917Y-92287255D01*
X117544393Y-92332837D01*
X117545200Y-92347368D01*
X117542299Y-92379576D01*
X117530839Y-92405313D01*
X117510430Y-92430409D01*
X117475660Y-92468360D01*
X117101490Y-92470862D01*
X117001891Y-92471423D01*
X116920589Y-92471599D01*
X116855562Y-92471326D01*
X116804788Y-92470540D01*
X116766247Y-92469174D01*
X116737917Y-92467164D01*
X116717776Y-92464446D01*
X116703805Y-92460955D01*
X116696318Y-92457870D01*
X116660744Y-92429810D01*
X116638436Y-92391059D01*
X116630542Y-92347050D01*
X116638214Y-92303222D01*
X116656853Y-92271316D01*
X116684369Y-92247638D01*
X116716900Y-92231007D01*
X116720353Y-92229953D01*
X116741340Y-92227042D01*
X116779553Y-92224610D01*
X116831904Y-92222656D01*
X116895306Y-92221182D01*
X116966669Y-92220186D01*
X117042906Y-92219670D01*
X117120928Y-92219633D01*
X117197648Y-92220074D01*
G37*
X117197648Y-92220074D02*
X117269977Y-92220995D01*
X117334828Y-92222394D01*
X117389111Y-92224273D01*
X117429740Y-92226630D01*
X117453625Y-92229466D01*
X117455646Y-92229953D01*
X117499414Y-92251753D01*
X117529917Y-92287255D01*
X117544393Y-92332837D01*
X117545200Y-92347368D01*
X117542299Y-92379576D01*
X117530839Y-92405313D01*
X117510430Y-92430409D01*
X117475660Y-92468360D01*
X117101490Y-92470862D01*
X117001891Y-92471423D01*
X116920589Y-92471599D01*
X116855562Y-92471326D01*
X116804788Y-92470540D01*
X116766247Y-92469174D01*
X116737917Y-92467164D01*
X116717776Y-92464446D01*
X116703805Y-92460955D01*
X116696318Y-92457870D01*
X116660744Y-92429810D01*
X116638436Y-92391059D01*
X116630542Y-92347050D01*
X116638214Y-92303222D01*
X116656853Y-92271316D01*
X116684369Y-92247638D01*
X116716900Y-92231007D01*
X116720353Y-92229953D01*
X116741340Y-92227042D01*
X116779553Y-92224610D01*
X116831904Y-92222656D01*
X116895306Y-92221182D01*
X116966669Y-92220186D01*
X117042906Y-92219670D01*
X117120928Y-92219633D01*
X117197648Y-92220074D01*
G36*
X116235036Y-91118741D02*
G01*
X116270275Y-91123646D01*
X116303837Y-91134321D01*
X116337696Y-91149274D01*
X116414241Y-91195754D01*
X116475873Y-91255990D01*
X116516153Y-91317393D01*
X116529103Y-91343799D01*
X116537380Y-91367572D01*
X116542010Y-91394534D01*
X116544020Y-91430509D01*
X116544440Y-91477760D01*
X116544080Y-91526476D01*
X116542181Y-91560904D01*
X116537514Y-91587073D01*
X116528851Y-91611011D01*
X116514962Y-91638749D01*
X116509592Y-91648712D01*
X116460167Y-91720228D01*
X116398652Y-91776085D01*
X116326711Y-91815224D01*
X116246002Y-91836585D01*
X116209715Y-91840009D01*
X116165023Y-91839777D01*
X116120740Y-91835815D01*
X116091098Y-91830102D01*
X116016127Y-91798700D01*
X115949534Y-91750469D01*
X115894235Y-91688147D01*
X115853139Y-91614475D01*
X115847854Y-91601229D01*
X115833079Y-91540174D01*
X115830471Y-91491922D01*
X116076225Y-91491922D01*
X116087539Y-91531396D01*
X116111656Y-91562614D01*
X116145024Y-91583496D01*
X116184095Y-91591966D01*
X116225319Y-91585947D01*
X116265145Y-91563360D01*
X116271591Y-91557657D01*
X116295673Y-91522916D01*
X116303525Y-91483330D01*
X116296950Y-91443419D01*
X116277752Y-91407701D01*
X116247735Y-91380694D01*
X116208702Y-91366916D01*
X116195089Y-91366037D01*
X116147617Y-91374888D01*
X116109435Y-91399515D01*
X116084412Y-91437192D01*
X116081262Y-91446267D01*
X116076225Y-91491922D01*
X115830471Y-91491922D01*
X115829314Y-91470539D01*
X115836296Y-91400652D01*
X115853764Y-91338841D01*
X115856279Y-91332972D01*
X115890246Y-91276248D01*
X115938320Y-91221757D01*
X115994614Y-91175333D01*
X116044340Y-91146658D01*
X116083504Y-91130692D01*
X116118915Y-91121806D01*
X116159925Y-91118124D01*
X116188840Y-91117634D01*
X116235036Y-91118741D01*
G37*
X116235036Y-91118741D02*
X116270275Y-91123646D01*
X116303837Y-91134321D01*
X116337696Y-91149274D01*
X116414241Y-91195754D01*
X116475873Y-91255990D01*
X116516153Y-91317393D01*
X116529103Y-91343799D01*
X116537380Y-91367572D01*
X116542010Y-91394534D01*
X116544020Y-91430509D01*
X116544440Y-91477760D01*
X116544080Y-91526476D01*
X116542181Y-91560904D01*
X116537514Y-91587073D01*
X116528851Y-91611011D01*
X116514962Y-91638749D01*
X116509592Y-91648712D01*
X116460167Y-91720228D01*
X116398652Y-91776085D01*
X116326711Y-91815224D01*
X116246002Y-91836585D01*
X116209715Y-91840009D01*
X116165023Y-91839777D01*
X116120740Y-91835815D01*
X116091098Y-91830102D01*
X116016127Y-91798700D01*
X115949534Y-91750469D01*
X115894235Y-91688147D01*
X115853139Y-91614475D01*
X115847854Y-91601229D01*
X115833079Y-91540174D01*
X115830471Y-91491922D01*
X116076225Y-91491922D01*
X116087539Y-91531396D01*
X116111656Y-91562614D01*
X116145024Y-91583496D01*
X116184095Y-91591966D01*
X116225319Y-91585947D01*
X116265145Y-91563360D01*
X116271591Y-91557657D01*
X116295673Y-91522916D01*
X116303525Y-91483330D01*
X116296950Y-91443419D01*
X116277752Y-91407701D01*
X116247735Y-91380694D01*
X116208702Y-91366916D01*
X116195089Y-91366037D01*
X116147617Y-91374888D01*
X116109435Y-91399515D01*
X116084412Y-91437192D01*
X116081262Y-91446267D01*
X116076225Y-91491922D01*
X115830471Y-91491922D01*
X115829314Y-91470539D01*
X115836296Y-91400652D01*
X115853764Y-91338841D01*
X115856279Y-91332972D01*
X115890246Y-91276248D01*
X115938320Y-91221757D01*
X115994614Y-91175333D01*
X116044340Y-91146658D01*
X116083504Y-91130692D01*
X116118915Y-91121806D01*
X116159925Y-91118124D01*
X116188840Y-91117634D01*
X116235036Y-91118741D01*
G36*
X118074438Y-91126923D02*
G01*
X118148362Y-91156017D01*
X118215592Y-91200719D01*
X118249498Y-91232766D01*
X118291048Y-91282304D01*
X118318682Y-91329184D01*
X118334804Y-91379721D01*
X118341812Y-91440229D01*
X118342653Y-91477760D01*
X118341911Y-91526946D01*
X118338751Y-91562757D01*
X118331964Y-91592101D01*
X118320341Y-91621888D01*
X118315630Y-91632156D01*
X118273181Y-91700250D01*
X118215574Y-91759261D01*
X118147504Y-91804457D01*
X118142096Y-91807163D01*
X118082477Y-91828172D01*
X118014104Y-91839373D01*
X117945164Y-91840111D01*
X117883845Y-91829726D01*
X117879160Y-91828282D01*
X117805714Y-91794449D01*
X117739949Y-91744363D01*
X117685684Y-91681722D01*
X117646734Y-91610223D01*
X117642470Y-91599022D01*
X117629188Y-91539663D01*
X117626719Y-91476108D01*
X117875400Y-91476108D01*
X117878132Y-91512703D01*
X117888213Y-91538279D01*
X117900240Y-91553364D01*
X117937739Y-91580228D01*
X117981251Y-91591195D01*
X118025070Y-91585905D01*
X118063492Y-91563998D01*
X118063831Y-91563693D01*
X118089822Y-91528117D01*
X118100073Y-91486572D01*
X118095006Y-91444520D01*
X118075043Y-91407425D01*
X118050106Y-91385872D01*
X118003745Y-91367793D01*
X117958018Y-91369052D01*
X117916082Y-91389431D01*
X117908580Y-91395646D01*
X117888035Y-91416795D01*
X117878260Y-91437783D01*
X117875457Y-91467817D01*
X117875400Y-91476108D01*
X117626719Y-91476108D01*
X117626530Y-91471264D01*
X117633973Y-91401777D01*
X117650998Y-91339152D01*
X117660955Y-91316665D01*
X117708513Y-91245516D01*
X117770451Y-91188017D01*
X117844986Y-91145504D01*
X117922304Y-91120956D01*
X117997770Y-91114786D01*
X118074438Y-91126923D01*
G37*
X118074438Y-91126923D02*
X118148362Y-91156017D01*
X118215592Y-91200719D01*
X118249498Y-91232766D01*
X118291048Y-91282304D01*
X118318682Y-91329184D01*
X118334804Y-91379721D01*
X118341812Y-91440229D01*
X118342653Y-91477760D01*
X118341911Y-91526946D01*
X118338751Y-91562757D01*
X118331964Y-91592101D01*
X118320341Y-91621888D01*
X118315630Y-91632156D01*
X118273181Y-91700250D01*
X118215574Y-91759261D01*
X118147504Y-91804457D01*
X118142096Y-91807163D01*
X118082477Y-91828172D01*
X118014104Y-91839373D01*
X117945164Y-91840111D01*
X117883845Y-91829726D01*
X117879160Y-91828282D01*
X117805714Y-91794449D01*
X117739949Y-91744363D01*
X117685684Y-91681722D01*
X117646734Y-91610223D01*
X117642470Y-91599022D01*
X117629188Y-91539663D01*
X117626719Y-91476108D01*
X117875400Y-91476108D01*
X117878132Y-91512703D01*
X117888213Y-91538279D01*
X117900240Y-91553364D01*
X117937739Y-91580228D01*
X117981251Y-91591195D01*
X118025070Y-91585905D01*
X118063492Y-91563998D01*
X118063831Y-91563693D01*
X118089822Y-91528117D01*
X118100073Y-91486572D01*
X118095006Y-91444520D01*
X118075043Y-91407425D01*
X118050106Y-91385872D01*
X118003745Y-91367793D01*
X117958018Y-91369052D01*
X117916082Y-91389431D01*
X117908580Y-91395646D01*
X117888035Y-91416795D01*
X117878260Y-91437783D01*
X117875457Y-91467817D01*
X117875400Y-91476108D01*
X117626719Y-91476108D01*
X117626530Y-91471264D01*
X117633973Y-91401777D01*
X117650998Y-91339152D01*
X117660955Y-91316665D01*
X117708513Y-91245516D01*
X117770451Y-91188017D01*
X117844986Y-91145504D01*
X117922304Y-91120956D01*
X117997770Y-91114786D01*
X118074438Y-91126923D01*
D11*
X112363000Y-91877000D02*
G75*
G03*
X112363000Y-91877000I-50000J0D01*
G01*
M02*
