G04 #@! TF.GenerationSoftware,KiCad,Pcbnew,(5.1.6-0-10_14)*
G04 #@! TF.CreationDate,2021-01-19T17:30:13+01:00*
G04 #@! TF.ProjectId,Encoder,456e636f-6465-4722-9e6b-696361645f70,1.1*
G04 #@! TF.SameCoordinates,Original*
G04 #@! TF.FileFunction,Copper,L2,Bot*
G04 #@! TF.FilePolarity,Positive*
%FSLAX46Y46*%
G04 Gerber Fmt 4.6, Leading zero omitted, Abs format (unit mm)*
G04 Created by KiCad (PCBNEW (5.1.6-0-10_14)) date 2021-01-19 17:30:13*
%MOMM*%
%LPD*%
G01*
G04 APERTURE LIST*
G04 #@! TA.AperFunction,SMDPad,CuDef*
%ADD10R,1.450000X0.430000*%
G04 #@! TD*
G04 #@! TA.AperFunction,ComponentPad*
%ADD11O,1.700000X1.700000*%
G04 #@! TD*
G04 #@! TA.AperFunction,ComponentPad*
%ADD12R,1.700000X1.700000*%
G04 #@! TD*
G04 #@! TA.AperFunction,ViaPad*
%ADD13C,0.600000*%
G04 #@! TD*
G04 #@! TA.AperFunction,Conductor*
%ADD14C,0.400000*%
G04 #@! TD*
G04 #@! TA.AperFunction,Conductor*
%ADD15C,0.254000*%
G04 #@! TD*
G04 APERTURE END LIST*
D10*
X120138000Y-95262000D03*
X120138000Y-94612000D03*
X120138000Y-93962000D03*
X120138000Y-93312000D03*
X120138000Y-92662000D03*
X120138000Y-92012000D03*
X120138000Y-91362000D03*
X114238000Y-91362000D03*
X114238000Y-92012000D03*
X114238000Y-92662000D03*
X114238000Y-93312000D03*
X114238000Y-93962000D03*
X114238000Y-94612000D03*
X114238000Y-95262000D03*
D11*
X119828000Y-86712000D03*
X117288000Y-86712000D03*
D12*
X114748000Y-86712000D03*
D13*
X121688000Y-95012000D03*
X120313000Y-90262000D03*
X117963000Y-89312000D03*
X112113000Y-89062000D03*
X116338000Y-91812000D03*
X113338000Y-96237000D03*
X121688000Y-94012000D03*
X121688000Y-93012000D03*
X122588000Y-92612000D03*
X122388000Y-89312000D03*
X122450501Y-97649499D03*
X115913000Y-96787000D03*
X113131016Y-95159645D03*
X117688000Y-93947000D03*
X112363000Y-97237000D03*
X114638011Y-97436995D03*
D14*
X120388000Y-94612000D02*
X120412999Y-94636999D01*
X120138000Y-94612000D02*
X120388000Y-94612000D01*
X121503998Y-95012000D02*
X121688000Y-95012000D01*
X121103998Y-94612000D02*
X121503998Y-95012000D01*
X120138000Y-94612000D02*
X121103998Y-94612000D01*
X114238000Y-92662000D02*
X115488000Y-92662000D01*
X115488000Y-92662000D02*
X116338000Y-91812000D01*
X121438000Y-93962000D02*
X121488000Y-94012000D01*
X120138000Y-93962000D02*
X121438000Y-93962000D01*
X121488000Y-93112000D02*
X121388001Y-93211999D01*
X121488000Y-93012000D02*
X121488000Y-93112000D01*
X121188000Y-93312000D02*
X120138000Y-93312000D01*
X121488000Y-93012000D02*
X121188000Y-93312000D01*
X119888000Y-89312000D02*
X117288000Y-86712000D01*
X122388000Y-89312000D02*
X119888000Y-89312000D01*
X122388000Y-97586998D02*
X122450501Y-97649499D01*
X122388000Y-89312000D02*
X122388000Y-97586998D01*
X122450501Y-97649499D02*
X116775499Y-97649499D01*
X116775499Y-97649499D02*
X115913000Y-96787000D01*
X118488001Y-91702001D02*
X114748000Y-87962000D01*
X118488001Y-94737001D02*
X118488001Y-91702001D01*
X114748000Y-87962000D02*
X114748000Y-86712000D01*
X119013000Y-95262000D02*
X118488001Y-94737001D01*
X120138000Y-95262000D02*
X119013000Y-95262000D01*
X113637990Y-95262000D02*
X113233371Y-95262000D01*
X113233371Y-95262000D02*
X113131016Y-95159645D01*
X115126000Y-94612000D02*
X115791000Y-93947000D01*
X115791000Y-93947000D02*
X117688000Y-93947000D01*
X114238000Y-94612000D02*
X115126000Y-94612000D01*
X114238000Y-93962000D02*
X113113000Y-93962000D01*
X112363000Y-94712000D02*
X112363000Y-97237000D01*
X113113000Y-93962000D02*
X112363000Y-94712000D01*
X111662998Y-93872813D02*
X111662998Y-97573002D01*
X111662998Y-97573002D02*
X112026998Y-97937002D01*
X114138004Y-97937002D02*
X114638011Y-97436995D01*
X112026998Y-97937002D02*
X114138004Y-97937002D01*
X114238000Y-93312000D02*
X112223811Y-93312000D01*
X112223811Y-93312000D02*
X111662998Y-93872813D01*
D15*
G36*
X118315809Y-85555093D02*
G01*
X119358110Y-85779923D01*
X120360246Y-86144126D01*
X121303690Y-86640969D01*
X122170970Y-87261250D01*
X122946051Y-87993503D01*
X123616292Y-88826297D01*
X124115103Y-89640280D01*
X124136574Y-89680450D01*
X124219051Y-89780948D01*
X124319549Y-89863425D01*
X124434206Y-89924710D01*
X124558616Y-89962450D01*
X124655580Y-89972000D01*
X126655721Y-89972000D01*
X126753424Y-89981580D01*
X126816356Y-90000580D01*
X126874405Y-90031445D01*
X126925343Y-90072989D01*
X126967248Y-90123644D01*
X126998515Y-90181471D01*
X127017956Y-90244272D01*
X127028000Y-90339835D01*
X127028000Y-92198339D01*
X126793998Y-91964337D01*
X126509831Y-91774463D01*
X126194081Y-91643675D01*
X125858883Y-91577000D01*
X125517117Y-91577000D01*
X125181919Y-91643675D01*
X124866169Y-91774463D01*
X124582002Y-91964337D01*
X124340337Y-92206002D01*
X124150463Y-92490169D01*
X124019675Y-92805919D01*
X123953000Y-93141117D01*
X123953000Y-93482883D01*
X124019675Y-93818081D01*
X124150463Y-94133831D01*
X124340337Y-94417998D01*
X124582002Y-94659663D01*
X124866169Y-94849537D01*
X125181919Y-94980325D01*
X125517117Y-95047000D01*
X125858883Y-95047000D01*
X126194081Y-94980325D01*
X126509831Y-94849537D01*
X126793998Y-94659663D01*
X127028001Y-94425660D01*
X127028001Y-96279711D01*
X127018420Y-96377424D01*
X126999420Y-96440357D01*
X126968554Y-96498406D01*
X126927011Y-96549343D01*
X126876356Y-96591248D01*
X126818529Y-96622515D01*
X126755728Y-96641956D01*
X126660164Y-96652000D01*
X124655580Y-96652002D01*
X124558616Y-96661552D01*
X124434206Y-96699292D01*
X124319549Y-96760577D01*
X124219051Y-96843054D01*
X124136574Y-96943552D01*
X124116392Y-96981311D01*
X123539693Y-97905209D01*
X122857552Y-98724741D01*
X122070508Y-99444104D01*
X121193110Y-100050002D01*
X120241600Y-100531217D01*
X119233591Y-100878844D01*
X118187719Y-101086454D01*
X117123362Y-101150202D01*
X116060190Y-101068908D01*
X115017898Y-100844080D01*
X114015752Y-100479874D01*
X113072308Y-99983031D01*
X112205024Y-99362747D01*
X111429946Y-98630495D01*
X110759707Y-97797705D01*
X110260890Y-96983708D01*
X110239425Y-96943550D01*
X110198742Y-96893978D01*
X110198735Y-96893968D01*
X110198726Y-96893959D01*
X110156948Y-96843052D01*
X110056450Y-96760575D01*
X109941793Y-96699290D01*
X109817383Y-96661550D01*
X109720419Y-96652000D01*
X107720279Y-96652000D01*
X107622576Y-96642420D01*
X107559643Y-96623420D01*
X107501594Y-96592554D01*
X107450657Y-96551011D01*
X107408752Y-96500356D01*
X107377485Y-96442529D01*
X107358044Y-96379728D01*
X107348000Y-96284165D01*
X107348000Y-94425661D01*
X107582002Y-94659663D01*
X107866169Y-94849537D01*
X108181919Y-94980325D01*
X108517117Y-95047000D01*
X108858883Y-95047000D01*
X109194081Y-94980325D01*
X109509831Y-94849537D01*
X109793998Y-94659663D01*
X110035663Y-94417998D01*
X110225537Y-94133831D01*
X110356325Y-93818081D01*
X110423000Y-93482883D01*
X110423000Y-93141117D01*
X110356325Y-92805919D01*
X110225537Y-92490169D01*
X110035663Y-92206002D01*
X109793998Y-91964337D01*
X109509831Y-91774463D01*
X109194081Y-91643675D01*
X108858883Y-91577000D01*
X108517117Y-91577000D01*
X108181919Y-91643675D01*
X107866169Y-91774463D01*
X107582002Y-91964337D01*
X107348000Y-92198339D01*
X107348000Y-90344279D01*
X107357580Y-90246576D01*
X107376580Y-90183644D01*
X107407445Y-90125595D01*
X107448989Y-90074657D01*
X107499644Y-90032752D01*
X107557471Y-90001485D01*
X107620272Y-89982044D01*
X107715844Y-89971999D01*
X109720419Y-89972001D01*
X109817383Y-89962451D01*
X109941793Y-89924711D01*
X110056450Y-89863426D01*
X110156948Y-89780949D01*
X110239425Y-89680451D01*
X110259605Y-89642696D01*
X110836307Y-88718791D01*
X111518445Y-87899265D01*
X112305496Y-87179895D01*
X113182889Y-86574000D01*
X113259928Y-86535038D01*
X113259928Y-87562000D01*
X113272188Y-87686482D01*
X113308498Y-87806180D01*
X113367463Y-87916494D01*
X113446815Y-88013185D01*
X113543506Y-88092537D01*
X113653820Y-88151502D01*
X113773518Y-88187812D01*
X113898000Y-88200072D01*
X113947646Y-88200072D01*
X113972828Y-88283086D01*
X114050364Y-88428145D01*
X114154709Y-88555291D01*
X114186579Y-88581446D01*
X117653002Y-92047870D01*
X117653002Y-93012000D01*
X117595911Y-93012000D01*
X117415271Y-93047932D01*
X117260596Y-93112000D01*
X115832018Y-93112000D01*
X115790999Y-93107960D01*
X115749981Y-93112000D01*
X115627311Y-93124082D01*
X115601072Y-93132041D01*
X115601072Y-93097000D01*
X115588812Y-92972518D01*
X115552502Y-92852820D01*
X115493537Y-92742506D01*
X115427468Y-92662000D01*
X115493537Y-92581494D01*
X115552502Y-92471180D01*
X115588812Y-92351482D01*
X115601072Y-92227000D01*
X115601072Y-91797000D01*
X115590238Y-91687000D01*
X115601072Y-91577000D01*
X115601072Y-91147000D01*
X115588812Y-91022518D01*
X115552502Y-90902820D01*
X115493537Y-90792506D01*
X115414185Y-90695815D01*
X115317494Y-90616463D01*
X115207180Y-90557498D01*
X115087482Y-90521188D01*
X114963000Y-90508928D01*
X113513000Y-90508928D01*
X113388518Y-90521188D01*
X113268820Y-90557498D01*
X113158506Y-90616463D01*
X113061815Y-90695815D01*
X112982463Y-90792506D01*
X112923498Y-90902820D01*
X112887188Y-91022518D01*
X112874928Y-91147000D01*
X112874928Y-91577000D01*
X112885762Y-91687000D01*
X112874928Y-91797000D01*
X112874928Y-92227000D01*
X112887188Y-92351482D01*
X112923498Y-92471180D01*
X112926609Y-92477000D01*
X112264818Y-92477000D01*
X112223810Y-92472961D01*
X112182802Y-92477000D01*
X112182792Y-92477000D01*
X112060122Y-92489082D01*
X111902724Y-92536828D01*
X111757665Y-92614364D01*
X111630520Y-92718709D01*
X111604365Y-92750579D01*
X111101577Y-93253367D01*
X111069707Y-93279522D01*
X110965363Y-93406667D01*
X110965362Y-93406668D01*
X110887826Y-93551727D01*
X110840080Y-93709125D01*
X110823958Y-93872813D01*
X110827998Y-93913832D01*
X110827999Y-97531974D01*
X110823958Y-97573002D01*
X110840080Y-97736690D01*
X110887826Y-97894088D01*
X110962089Y-98033023D01*
X110965363Y-98039148D01*
X111069708Y-98166293D01*
X111101572Y-98192443D01*
X111407556Y-98498428D01*
X111433707Y-98530293D01*
X111560852Y-98634638D01*
X111705911Y-98712174D01*
X111863309Y-98759920D01*
X111985979Y-98772002D01*
X111985980Y-98772002D01*
X112026998Y-98776042D01*
X112068016Y-98772002D01*
X114096986Y-98772002D01*
X114138004Y-98776042D01*
X114179022Y-98772002D01*
X114179023Y-98772002D01*
X114301693Y-98759920D01*
X114459091Y-98712174D01*
X114604150Y-98634638D01*
X114731295Y-98530293D01*
X114757449Y-98498424D01*
X114926224Y-98329649D01*
X115080900Y-98265581D01*
X115234039Y-98163257D01*
X115364273Y-98033023D01*
X115466597Y-97879884D01*
X115537079Y-97709724D01*
X115549281Y-97648379D01*
X115624786Y-97679654D01*
X116156062Y-98210931D01*
X116182208Y-98242790D01*
X116214067Y-98268936D01*
X116214069Y-98268938D01*
X116295862Y-98336063D01*
X116309353Y-98347135D01*
X116454412Y-98424671D01*
X116611810Y-98472417D01*
X116734480Y-98484499D01*
X116734481Y-98484499D01*
X116775499Y-98488539D01*
X116816517Y-98484499D01*
X122023097Y-98484499D01*
X122177772Y-98548567D01*
X122358412Y-98584499D01*
X122542590Y-98584499D01*
X122723230Y-98548567D01*
X122893390Y-98478085D01*
X123046529Y-98375761D01*
X123176763Y-98245527D01*
X123279087Y-98092388D01*
X123349569Y-97922228D01*
X123385501Y-97741588D01*
X123385501Y-97557410D01*
X123349569Y-97376770D01*
X123279087Y-97206610D01*
X123223000Y-97122670D01*
X123223000Y-93299290D01*
X123314262Y-93208028D01*
X123416586Y-93054889D01*
X123487068Y-92884729D01*
X123523000Y-92704089D01*
X123523000Y-92519911D01*
X123487068Y-92339271D01*
X123416586Y-92169111D01*
X123314262Y-92015972D01*
X123223000Y-91924710D01*
X123223000Y-89739404D01*
X123287068Y-89584729D01*
X123323000Y-89404089D01*
X123323000Y-89219911D01*
X123287068Y-89039271D01*
X123216586Y-88869111D01*
X123114262Y-88715972D01*
X122984028Y-88585738D01*
X122830889Y-88483414D01*
X122660729Y-88412932D01*
X122480089Y-88377000D01*
X122295911Y-88377000D01*
X122115271Y-88412932D01*
X121960596Y-88477000D01*
X120233868Y-88477000D01*
X118746807Y-86989940D01*
X118773000Y-86858260D01*
X118773000Y-86565740D01*
X118715932Y-86278842D01*
X118603990Y-86008589D01*
X118441475Y-85765368D01*
X118234632Y-85558525D01*
X118218342Y-85547640D01*
X118315809Y-85555093D01*
G37*
X118315809Y-85555093D02*
X119358110Y-85779923D01*
X120360246Y-86144126D01*
X121303690Y-86640969D01*
X122170970Y-87261250D01*
X122946051Y-87993503D01*
X123616292Y-88826297D01*
X124115103Y-89640280D01*
X124136574Y-89680450D01*
X124219051Y-89780948D01*
X124319549Y-89863425D01*
X124434206Y-89924710D01*
X124558616Y-89962450D01*
X124655580Y-89972000D01*
X126655721Y-89972000D01*
X126753424Y-89981580D01*
X126816356Y-90000580D01*
X126874405Y-90031445D01*
X126925343Y-90072989D01*
X126967248Y-90123644D01*
X126998515Y-90181471D01*
X127017956Y-90244272D01*
X127028000Y-90339835D01*
X127028000Y-92198339D01*
X126793998Y-91964337D01*
X126509831Y-91774463D01*
X126194081Y-91643675D01*
X125858883Y-91577000D01*
X125517117Y-91577000D01*
X125181919Y-91643675D01*
X124866169Y-91774463D01*
X124582002Y-91964337D01*
X124340337Y-92206002D01*
X124150463Y-92490169D01*
X124019675Y-92805919D01*
X123953000Y-93141117D01*
X123953000Y-93482883D01*
X124019675Y-93818081D01*
X124150463Y-94133831D01*
X124340337Y-94417998D01*
X124582002Y-94659663D01*
X124866169Y-94849537D01*
X125181919Y-94980325D01*
X125517117Y-95047000D01*
X125858883Y-95047000D01*
X126194081Y-94980325D01*
X126509831Y-94849537D01*
X126793998Y-94659663D01*
X127028001Y-94425660D01*
X127028001Y-96279711D01*
X127018420Y-96377424D01*
X126999420Y-96440357D01*
X126968554Y-96498406D01*
X126927011Y-96549343D01*
X126876356Y-96591248D01*
X126818529Y-96622515D01*
X126755728Y-96641956D01*
X126660164Y-96652000D01*
X124655580Y-96652002D01*
X124558616Y-96661552D01*
X124434206Y-96699292D01*
X124319549Y-96760577D01*
X124219051Y-96843054D01*
X124136574Y-96943552D01*
X124116392Y-96981311D01*
X123539693Y-97905209D01*
X122857552Y-98724741D01*
X122070508Y-99444104D01*
X121193110Y-100050002D01*
X120241600Y-100531217D01*
X119233591Y-100878844D01*
X118187719Y-101086454D01*
X117123362Y-101150202D01*
X116060190Y-101068908D01*
X115017898Y-100844080D01*
X114015752Y-100479874D01*
X113072308Y-99983031D01*
X112205024Y-99362747D01*
X111429946Y-98630495D01*
X110759707Y-97797705D01*
X110260890Y-96983708D01*
X110239425Y-96943550D01*
X110198742Y-96893978D01*
X110198735Y-96893968D01*
X110198726Y-96893959D01*
X110156948Y-96843052D01*
X110056450Y-96760575D01*
X109941793Y-96699290D01*
X109817383Y-96661550D01*
X109720419Y-96652000D01*
X107720279Y-96652000D01*
X107622576Y-96642420D01*
X107559643Y-96623420D01*
X107501594Y-96592554D01*
X107450657Y-96551011D01*
X107408752Y-96500356D01*
X107377485Y-96442529D01*
X107358044Y-96379728D01*
X107348000Y-96284165D01*
X107348000Y-94425661D01*
X107582002Y-94659663D01*
X107866169Y-94849537D01*
X108181919Y-94980325D01*
X108517117Y-95047000D01*
X108858883Y-95047000D01*
X109194081Y-94980325D01*
X109509831Y-94849537D01*
X109793998Y-94659663D01*
X110035663Y-94417998D01*
X110225537Y-94133831D01*
X110356325Y-93818081D01*
X110423000Y-93482883D01*
X110423000Y-93141117D01*
X110356325Y-92805919D01*
X110225537Y-92490169D01*
X110035663Y-92206002D01*
X109793998Y-91964337D01*
X109509831Y-91774463D01*
X109194081Y-91643675D01*
X108858883Y-91577000D01*
X108517117Y-91577000D01*
X108181919Y-91643675D01*
X107866169Y-91774463D01*
X107582002Y-91964337D01*
X107348000Y-92198339D01*
X107348000Y-90344279D01*
X107357580Y-90246576D01*
X107376580Y-90183644D01*
X107407445Y-90125595D01*
X107448989Y-90074657D01*
X107499644Y-90032752D01*
X107557471Y-90001485D01*
X107620272Y-89982044D01*
X107715844Y-89971999D01*
X109720419Y-89972001D01*
X109817383Y-89962451D01*
X109941793Y-89924711D01*
X110056450Y-89863426D01*
X110156948Y-89780949D01*
X110239425Y-89680451D01*
X110259605Y-89642696D01*
X110836307Y-88718791D01*
X111518445Y-87899265D01*
X112305496Y-87179895D01*
X113182889Y-86574000D01*
X113259928Y-86535038D01*
X113259928Y-87562000D01*
X113272188Y-87686482D01*
X113308498Y-87806180D01*
X113367463Y-87916494D01*
X113446815Y-88013185D01*
X113543506Y-88092537D01*
X113653820Y-88151502D01*
X113773518Y-88187812D01*
X113898000Y-88200072D01*
X113947646Y-88200072D01*
X113972828Y-88283086D01*
X114050364Y-88428145D01*
X114154709Y-88555291D01*
X114186579Y-88581446D01*
X117653002Y-92047870D01*
X117653002Y-93012000D01*
X117595911Y-93012000D01*
X117415271Y-93047932D01*
X117260596Y-93112000D01*
X115832018Y-93112000D01*
X115790999Y-93107960D01*
X115749981Y-93112000D01*
X115627311Y-93124082D01*
X115601072Y-93132041D01*
X115601072Y-93097000D01*
X115588812Y-92972518D01*
X115552502Y-92852820D01*
X115493537Y-92742506D01*
X115427468Y-92662000D01*
X115493537Y-92581494D01*
X115552502Y-92471180D01*
X115588812Y-92351482D01*
X115601072Y-92227000D01*
X115601072Y-91797000D01*
X115590238Y-91687000D01*
X115601072Y-91577000D01*
X115601072Y-91147000D01*
X115588812Y-91022518D01*
X115552502Y-90902820D01*
X115493537Y-90792506D01*
X115414185Y-90695815D01*
X115317494Y-90616463D01*
X115207180Y-90557498D01*
X115087482Y-90521188D01*
X114963000Y-90508928D01*
X113513000Y-90508928D01*
X113388518Y-90521188D01*
X113268820Y-90557498D01*
X113158506Y-90616463D01*
X113061815Y-90695815D01*
X112982463Y-90792506D01*
X112923498Y-90902820D01*
X112887188Y-91022518D01*
X112874928Y-91147000D01*
X112874928Y-91577000D01*
X112885762Y-91687000D01*
X112874928Y-91797000D01*
X112874928Y-92227000D01*
X112887188Y-92351482D01*
X112923498Y-92471180D01*
X112926609Y-92477000D01*
X112264818Y-92477000D01*
X112223810Y-92472961D01*
X112182802Y-92477000D01*
X112182792Y-92477000D01*
X112060122Y-92489082D01*
X111902724Y-92536828D01*
X111757665Y-92614364D01*
X111630520Y-92718709D01*
X111604365Y-92750579D01*
X111101577Y-93253367D01*
X111069707Y-93279522D01*
X110965363Y-93406667D01*
X110965362Y-93406668D01*
X110887826Y-93551727D01*
X110840080Y-93709125D01*
X110823958Y-93872813D01*
X110827998Y-93913832D01*
X110827999Y-97531974D01*
X110823958Y-97573002D01*
X110840080Y-97736690D01*
X110887826Y-97894088D01*
X110962089Y-98033023D01*
X110965363Y-98039148D01*
X111069708Y-98166293D01*
X111101572Y-98192443D01*
X111407556Y-98498428D01*
X111433707Y-98530293D01*
X111560852Y-98634638D01*
X111705911Y-98712174D01*
X111863309Y-98759920D01*
X111985979Y-98772002D01*
X111985980Y-98772002D01*
X112026998Y-98776042D01*
X112068016Y-98772002D01*
X114096986Y-98772002D01*
X114138004Y-98776042D01*
X114179022Y-98772002D01*
X114179023Y-98772002D01*
X114301693Y-98759920D01*
X114459091Y-98712174D01*
X114604150Y-98634638D01*
X114731295Y-98530293D01*
X114757449Y-98498424D01*
X114926224Y-98329649D01*
X115080900Y-98265581D01*
X115234039Y-98163257D01*
X115364273Y-98033023D01*
X115466597Y-97879884D01*
X115537079Y-97709724D01*
X115549281Y-97648379D01*
X115624786Y-97679654D01*
X116156062Y-98210931D01*
X116182208Y-98242790D01*
X116214067Y-98268936D01*
X116214069Y-98268938D01*
X116295862Y-98336063D01*
X116309353Y-98347135D01*
X116454412Y-98424671D01*
X116611810Y-98472417D01*
X116734480Y-98484499D01*
X116734481Y-98484499D01*
X116775499Y-98488539D01*
X116816517Y-98484499D01*
X122023097Y-98484499D01*
X122177772Y-98548567D01*
X122358412Y-98584499D01*
X122542590Y-98584499D01*
X122723230Y-98548567D01*
X122893390Y-98478085D01*
X123046529Y-98375761D01*
X123176763Y-98245527D01*
X123279087Y-98092388D01*
X123349569Y-97922228D01*
X123385501Y-97741588D01*
X123385501Y-97557410D01*
X123349569Y-97376770D01*
X123279087Y-97206610D01*
X123223000Y-97122670D01*
X123223000Y-93299290D01*
X123314262Y-93208028D01*
X123416586Y-93054889D01*
X123487068Y-92884729D01*
X123523000Y-92704089D01*
X123523000Y-92519911D01*
X123487068Y-92339271D01*
X123416586Y-92169111D01*
X123314262Y-92015972D01*
X123223000Y-91924710D01*
X123223000Y-89739404D01*
X123287068Y-89584729D01*
X123323000Y-89404089D01*
X123323000Y-89219911D01*
X123287068Y-89039271D01*
X123216586Y-88869111D01*
X123114262Y-88715972D01*
X122984028Y-88585738D01*
X122830889Y-88483414D01*
X122660729Y-88412932D01*
X122480089Y-88377000D01*
X122295911Y-88377000D01*
X122115271Y-88412932D01*
X121960596Y-88477000D01*
X120233868Y-88477000D01*
X118746807Y-86989940D01*
X118773000Y-86858260D01*
X118773000Y-86565740D01*
X118715932Y-86278842D01*
X118603990Y-86008589D01*
X118441475Y-85765368D01*
X118234632Y-85558525D01*
X118218342Y-85547640D01*
X118315809Y-85555093D01*
G36*
X117415271Y-94846068D02*
G01*
X117595911Y-94882000D01*
X117663242Y-94882000D01*
X117665083Y-94900689D01*
X117712829Y-95058087D01*
X117790365Y-95203146D01*
X117894710Y-95330292D01*
X117926579Y-95356446D01*
X118393558Y-95823426D01*
X118419709Y-95855291D01*
X118546854Y-95959636D01*
X118691913Y-96037172D01*
X118849311Y-96084918D01*
X118971981Y-96097000D01*
X118971982Y-96097000D01*
X119013000Y-96101040D01*
X119054018Y-96097000D01*
X119269358Y-96097000D01*
X119288518Y-96102812D01*
X119413000Y-96115072D01*
X120863000Y-96115072D01*
X120987482Y-96102812D01*
X121107180Y-96066502D01*
X121217494Y-96007537D01*
X121314185Y-95928185D01*
X121393537Y-95831494D01*
X121452502Y-95721180D01*
X121488812Y-95601482D01*
X121501072Y-95477000D01*
X121501072Y-95047000D01*
X121489131Y-94925760D01*
X121553001Y-94938464D01*
X121553001Y-96814499D01*
X117121367Y-96814499D01*
X116805654Y-96498786D01*
X116741586Y-96344111D01*
X116639262Y-96190972D01*
X116509028Y-96060738D01*
X116355889Y-95958414D01*
X116185729Y-95887932D01*
X116005089Y-95852000D01*
X115820911Y-95852000D01*
X115640271Y-95887932D01*
X115470111Y-95958414D01*
X115316972Y-96060738D01*
X115186738Y-96190972D01*
X115084414Y-96344111D01*
X115013932Y-96514271D01*
X115001730Y-96575616D01*
X114910740Y-96537927D01*
X114730100Y-96501995D01*
X114545922Y-96501995D01*
X114365282Y-96537927D01*
X114195122Y-96608409D01*
X114041983Y-96710733D01*
X113911749Y-96840967D01*
X113809425Y-96994106D01*
X113764733Y-97102002D01*
X113289465Y-97102002D01*
X113262068Y-96964271D01*
X113198000Y-96809596D01*
X113198000Y-96097556D01*
X113233371Y-96101040D01*
X113274389Y-96097000D01*
X113369358Y-96097000D01*
X113388518Y-96102812D01*
X113513000Y-96115072D01*
X114963000Y-96115072D01*
X115087482Y-96102812D01*
X115207180Y-96066502D01*
X115317494Y-96007537D01*
X115414185Y-95928185D01*
X115493537Y-95831494D01*
X115552502Y-95721180D01*
X115588812Y-95601482D01*
X115601072Y-95477000D01*
X115601072Y-95302311D01*
X115719291Y-95205291D01*
X115745446Y-95173422D01*
X116136868Y-94782000D01*
X117260596Y-94782000D01*
X117415271Y-94846068D01*
G37*
X117415271Y-94846068D02*
X117595911Y-94882000D01*
X117663242Y-94882000D01*
X117665083Y-94900689D01*
X117712829Y-95058087D01*
X117790365Y-95203146D01*
X117894710Y-95330292D01*
X117926579Y-95356446D01*
X118393558Y-95823426D01*
X118419709Y-95855291D01*
X118546854Y-95959636D01*
X118691913Y-96037172D01*
X118849311Y-96084918D01*
X118971981Y-96097000D01*
X118971982Y-96097000D01*
X119013000Y-96101040D01*
X119054018Y-96097000D01*
X119269358Y-96097000D01*
X119288518Y-96102812D01*
X119413000Y-96115072D01*
X120863000Y-96115072D01*
X120987482Y-96102812D01*
X121107180Y-96066502D01*
X121217494Y-96007537D01*
X121314185Y-95928185D01*
X121393537Y-95831494D01*
X121452502Y-95721180D01*
X121488812Y-95601482D01*
X121501072Y-95477000D01*
X121501072Y-95047000D01*
X121489131Y-94925760D01*
X121553001Y-94938464D01*
X121553001Y-96814499D01*
X117121367Y-96814499D01*
X116805654Y-96498786D01*
X116741586Y-96344111D01*
X116639262Y-96190972D01*
X116509028Y-96060738D01*
X116355889Y-95958414D01*
X116185729Y-95887932D01*
X116005089Y-95852000D01*
X115820911Y-95852000D01*
X115640271Y-95887932D01*
X115470111Y-95958414D01*
X115316972Y-96060738D01*
X115186738Y-96190972D01*
X115084414Y-96344111D01*
X115013932Y-96514271D01*
X115001730Y-96575616D01*
X114910740Y-96537927D01*
X114730100Y-96501995D01*
X114545922Y-96501995D01*
X114365282Y-96537927D01*
X114195122Y-96608409D01*
X114041983Y-96710733D01*
X113911749Y-96840967D01*
X113809425Y-96994106D01*
X113764733Y-97102002D01*
X113289465Y-97102002D01*
X113262068Y-96964271D01*
X113198000Y-96809596D01*
X113198000Y-96097556D01*
X113233371Y-96101040D01*
X113274389Y-96097000D01*
X113369358Y-96097000D01*
X113388518Y-96102812D01*
X113513000Y-96115072D01*
X114963000Y-96115072D01*
X115087482Y-96102812D01*
X115207180Y-96066502D01*
X115317494Y-96007537D01*
X115414185Y-95928185D01*
X115493537Y-95831494D01*
X115552502Y-95721180D01*
X115588812Y-95601482D01*
X115601072Y-95477000D01*
X115601072Y-95302311D01*
X115719291Y-95205291D01*
X115745446Y-95173422D01*
X116136868Y-94782000D01*
X117260596Y-94782000D01*
X117415271Y-94846068D01*
G36*
X116341368Y-87865475D02*
G01*
X116584589Y-88027990D01*
X116854842Y-88139932D01*
X117141740Y-88197000D01*
X117434260Y-88197000D01*
X117565940Y-88170807D01*
X119268559Y-89873427D01*
X119294709Y-89905291D01*
X119421854Y-90009636D01*
X119566913Y-90087172D01*
X119724311Y-90134918D01*
X119846981Y-90147000D01*
X119846991Y-90147000D01*
X119887999Y-90151039D01*
X119929007Y-90147000D01*
X121553000Y-90147000D01*
X121553000Y-92085536D01*
X121501072Y-92095865D01*
X121501072Y-91797000D01*
X121490238Y-91687000D01*
X121501072Y-91577000D01*
X121501072Y-91147000D01*
X121488812Y-91022518D01*
X121452502Y-90902820D01*
X121393537Y-90792506D01*
X121314185Y-90695815D01*
X121217494Y-90616463D01*
X121107180Y-90557498D01*
X120987482Y-90521188D01*
X120863000Y-90508928D01*
X119413000Y-90508928D01*
X119288518Y-90521188D01*
X119168820Y-90557498D01*
X119058506Y-90616463D01*
X118961815Y-90695815D01*
X118882463Y-90792506D01*
X118839587Y-90872719D01*
X116011214Y-88044347D01*
X116049185Y-88013185D01*
X116128537Y-87916494D01*
X116187502Y-87806180D01*
X116209513Y-87733620D01*
X116341368Y-87865475D01*
G37*
X116341368Y-87865475D02*
X116584589Y-88027990D01*
X116854842Y-88139932D01*
X117141740Y-88197000D01*
X117434260Y-88197000D01*
X117565940Y-88170807D01*
X119268559Y-89873427D01*
X119294709Y-89905291D01*
X119421854Y-90009636D01*
X119566913Y-90087172D01*
X119724311Y-90134918D01*
X119846981Y-90147000D01*
X119846991Y-90147000D01*
X119887999Y-90151039D01*
X119929007Y-90147000D01*
X121553000Y-90147000D01*
X121553000Y-92085536D01*
X121501072Y-92095865D01*
X121501072Y-91797000D01*
X121490238Y-91687000D01*
X121501072Y-91577000D01*
X121501072Y-91147000D01*
X121488812Y-91022518D01*
X121452502Y-90902820D01*
X121393537Y-90792506D01*
X121314185Y-90695815D01*
X121217494Y-90616463D01*
X121107180Y-90557498D01*
X120987482Y-90521188D01*
X120863000Y-90508928D01*
X119413000Y-90508928D01*
X119288518Y-90521188D01*
X119168820Y-90557498D01*
X119058506Y-90616463D01*
X118961815Y-90695815D01*
X118882463Y-90792506D01*
X118839587Y-90872719D01*
X116011214Y-88044347D01*
X116049185Y-88013185D01*
X116128537Y-87916494D01*
X116187502Y-87806180D01*
X116209513Y-87733620D01*
X116341368Y-87865475D01*
M02*
