G04 #@! TF.GenerationSoftware,KiCad,Pcbnew,(5.1.6-0-10_14)*
G04 #@! TF.CreationDate,2021-01-19T17:30:13+01:00*
G04 #@! TF.ProjectId,Encoder,456e636f-6465-4722-9e6b-696361645f70,1.1*
G04 #@! TF.SameCoordinates,Original*
G04 #@! TF.FileFunction,Copper,L1,Top*
G04 #@! TF.FilePolarity,Positive*
%FSLAX46Y46*%
G04 Gerber Fmt 4.6, Leading zero omitted, Abs format (unit mm)*
G04 Created by KiCad (PCBNEW (5.1.6-0-10_14)) date 2021-01-19 17:30:13*
%MOMM*%
%LPD*%
G01*
G04 APERTURE LIST*
G04 #@! TA.AperFunction,ComponentPad*
%ADD10O,1.700000X1.700000*%
G04 #@! TD*
G04 #@! TA.AperFunction,ComponentPad*
%ADD11R,1.700000X1.700000*%
G04 #@! TD*
G04 #@! TA.AperFunction,SMDPad,CuDef*
%ADD12C,0.100000*%
G04 #@! TD*
G04 #@! TA.AperFunction,ViaPad*
%ADD13C,0.600000*%
G04 #@! TD*
G04 #@! TA.AperFunction,Conductor*
%ADD14C,0.400000*%
G04 #@! TD*
G04 #@! TA.AperFunction,Conductor*
%ADD15C,0.254000*%
G04 #@! TD*
G04 APERTURE END LIST*
G04 #@! TA.AperFunction,SMDPad,CuDef*
G36*
G01*
X120388000Y-100037400D02*
X120388000Y-98736600D01*
G75*
G02*
X120637600Y-98487000I249600J0D01*
G01*
X121338400Y-98487000D01*
G75*
G02*
X121588000Y-98736600I0J-249600D01*
G01*
X121588000Y-100037400D01*
G75*
G02*
X121338400Y-100287000I-249600J0D01*
G01*
X120637600Y-100287000D01*
G75*
G02*
X120388000Y-100037400I0J249600D01*
G01*
G37*
G04 #@! TD.AperFunction*
G04 #@! TA.AperFunction,SMDPad,CuDef*
G36*
G01*
X112788000Y-100037400D02*
X112788000Y-98736600D01*
G75*
G02*
X113037600Y-98487000I249600J0D01*
G01*
X113738400Y-98487000D01*
G75*
G02*
X113988000Y-98736600I0J-249600D01*
G01*
X113988000Y-100037400D01*
G75*
G02*
X113738400Y-100287000I-249600J0D01*
G01*
X113037600Y-100287000D01*
G75*
G02*
X112788000Y-100037400I0J249600D01*
G01*
G37*
G04 #@! TD.AperFunction*
G04 #@! TA.AperFunction,SMDPad,CuDef*
G36*
G01*
X119388000Y-96137000D02*
X119388000Y-94887000D01*
G75*
G02*
X119538000Y-94737000I150000J0D01*
G01*
X119838000Y-94737000D01*
G75*
G02*
X119988000Y-94887000I0J-150000D01*
G01*
X119988000Y-96137000D01*
G75*
G02*
X119838000Y-96287000I-150000J0D01*
G01*
X119538000Y-96287000D01*
G75*
G02*
X119388000Y-96137000I0J150000D01*
G01*
G37*
G04 #@! TD.AperFunction*
G04 #@! TA.AperFunction,SMDPad,CuDef*
G36*
G01*
X118388000Y-96137000D02*
X118388000Y-94887000D01*
G75*
G02*
X118538000Y-94737000I150000J0D01*
G01*
X118838000Y-94737000D01*
G75*
G02*
X118988000Y-94887000I0J-150000D01*
G01*
X118988000Y-96137000D01*
G75*
G02*
X118838000Y-96287000I-150000J0D01*
G01*
X118538000Y-96287000D01*
G75*
G02*
X118388000Y-96137000I0J150000D01*
G01*
G37*
G04 #@! TD.AperFunction*
G04 #@! TA.AperFunction,SMDPad,CuDef*
G36*
G01*
X117388000Y-96137000D02*
X117388000Y-94887000D01*
G75*
G02*
X117538000Y-94737000I150000J0D01*
G01*
X117838000Y-94737000D01*
G75*
G02*
X117988000Y-94887000I0J-150000D01*
G01*
X117988000Y-96137000D01*
G75*
G02*
X117838000Y-96287000I-150000J0D01*
G01*
X117538000Y-96287000D01*
G75*
G02*
X117388000Y-96137000I0J150000D01*
G01*
G37*
G04 #@! TD.AperFunction*
G04 #@! TA.AperFunction,SMDPad,CuDef*
G36*
G01*
X116388000Y-96137000D02*
X116388000Y-94887000D01*
G75*
G02*
X116538000Y-94737000I150000J0D01*
G01*
X116838000Y-94737000D01*
G75*
G02*
X116988000Y-94887000I0J-150000D01*
G01*
X116988000Y-96137000D01*
G75*
G02*
X116838000Y-96287000I-150000J0D01*
G01*
X116538000Y-96287000D01*
G75*
G02*
X116388000Y-96137000I0J150000D01*
G01*
G37*
G04 #@! TD.AperFunction*
G04 #@! TA.AperFunction,SMDPad,CuDef*
G36*
G01*
X115388000Y-96137000D02*
X115388000Y-94887000D01*
G75*
G02*
X115538000Y-94737000I150000J0D01*
G01*
X115838000Y-94737000D01*
G75*
G02*
X115988000Y-94887000I0J-150000D01*
G01*
X115988000Y-96137000D01*
G75*
G02*
X115838000Y-96287000I-150000J0D01*
G01*
X115538000Y-96287000D01*
G75*
G02*
X115388000Y-96137000I0J150000D01*
G01*
G37*
G04 #@! TD.AperFunction*
G04 #@! TA.AperFunction,SMDPad,CuDef*
G36*
G01*
X114388000Y-96137000D02*
X114388000Y-94887000D01*
G75*
G02*
X114538000Y-94737000I150000J0D01*
G01*
X114838000Y-94737000D01*
G75*
G02*
X114988000Y-94887000I0J-150000D01*
G01*
X114988000Y-96137000D01*
G75*
G02*
X114838000Y-96287000I-150000J0D01*
G01*
X114538000Y-96287000D01*
G75*
G02*
X114388000Y-96137000I0J150000D01*
G01*
G37*
G04 #@! TD.AperFunction*
D10*
X119828000Y-86712000D03*
X117288000Y-86712000D03*
D11*
X114748000Y-86712000D03*
G04 #@! TA.AperFunction,SMDPad,CuDef*
D12*
G36*
X122993545Y-89517545D02*
G01*
X123877429Y-89340769D01*
X124584535Y-90047875D01*
X123523875Y-91108535D01*
X122816769Y-90401429D01*
X122993545Y-89517545D01*
G37*
G04 #@! TD.AperFunction*
G04 #@! TA.AperFunction,SMDPad,CuDef*
G36*
X122852125Y-88315465D02*
G01*
X123665297Y-89128637D01*
X122781414Y-89305414D01*
X122604637Y-90189297D01*
X121791465Y-89376125D01*
X122852125Y-88315465D01*
G37*
G04 #@! TD.AperFunction*
G04 #@! TA.AperFunction,SMDPad,CuDef*
G36*
G01*
X111140500Y-90977000D02*
X111485500Y-90977000D01*
G75*
G02*
X111633000Y-91124500I0J-147500D01*
G01*
X111633000Y-91419500D01*
G75*
G02*
X111485500Y-91567000I-147500J0D01*
G01*
X111140500Y-91567000D01*
G75*
G02*
X110993000Y-91419500I0J147500D01*
G01*
X110993000Y-91124500D01*
G75*
G02*
X111140500Y-90977000I147500J0D01*
G01*
G37*
G04 #@! TD.AperFunction*
G04 #@! TA.AperFunction,SMDPad,CuDef*
G36*
G01*
X111140500Y-90007000D02*
X111485500Y-90007000D01*
G75*
G02*
X111633000Y-90154500I0J-147500D01*
G01*
X111633000Y-90449500D01*
G75*
G02*
X111485500Y-90597000I-147500J0D01*
G01*
X111140500Y-90597000D01*
G75*
G02*
X110993000Y-90449500I0J147500D01*
G01*
X110993000Y-90154500D01*
G75*
G02*
X111140500Y-90007000I147500J0D01*
G01*
G37*
G04 #@! TD.AperFunction*
G04 #@! TA.AperFunction,SMDPad,CuDef*
G36*
G01*
X112485500Y-90597000D02*
X112140500Y-90597000D01*
G75*
G02*
X111993000Y-90449500I0J147500D01*
G01*
X111993000Y-90154500D01*
G75*
G02*
X112140500Y-90007000I147500J0D01*
G01*
X112485500Y-90007000D01*
G75*
G02*
X112633000Y-90154500I0J-147500D01*
G01*
X112633000Y-90449500D01*
G75*
G02*
X112485500Y-90597000I-147500J0D01*
G01*
G37*
G04 #@! TD.AperFunction*
G04 #@! TA.AperFunction,SMDPad,CuDef*
G36*
G01*
X112485500Y-91567000D02*
X112140500Y-91567000D01*
G75*
G02*
X111993000Y-91419500I0J147500D01*
G01*
X111993000Y-91124500D01*
G75*
G02*
X112140500Y-90977000I147500J0D01*
G01*
X112485500Y-90977000D01*
G75*
G02*
X112633000Y-91124500I0J-147500D01*
G01*
X112633000Y-91419500D01*
G75*
G02*
X112485500Y-91567000I-147500J0D01*
G01*
G37*
G04 #@! TD.AperFunction*
G04 #@! TA.AperFunction,SMDPad,CuDef*
G36*
G01*
X121378000Y-92184500D02*
X121378000Y-91839500D01*
G75*
G02*
X121525500Y-91692000I147500J0D01*
G01*
X121820500Y-91692000D01*
G75*
G02*
X121968000Y-91839500I0J-147500D01*
G01*
X121968000Y-92184500D01*
G75*
G02*
X121820500Y-92332000I-147500J0D01*
G01*
X121525500Y-92332000D01*
G75*
G02*
X121378000Y-92184500I0J147500D01*
G01*
G37*
G04 #@! TD.AperFunction*
G04 #@! TA.AperFunction,SMDPad,CuDef*
G36*
G01*
X120408000Y-92184500D02*
X120408000Y-91839500D01*
G75*
G02*
X120555500Y-91692000I147500J0D01*
G01*
X120850500Y-91692000D01*
G75*
G02*
X120998000Y-91839500I0J-147500D01*
G01*
X120998000Y-92184500D01*
G75*
G02*
X120850500Y-92332000I-147500J0D01*
G01*
X120555500Y-92332000D01*
G75*
G02*
X120408000Y-92184500I0J147500D01*
G01*
G37*
G04 #@! TD.AperFunction*
G04 #@! TA.AperFunction,SMDPad,CuDef*
G36*
G01*
X122515500Y-94702000D02*
X122860500Y-94702000D01*
G75*
G02*
X123008000Y-94849500I0J-147500D01*
G01*
X123008000Y-95144500D01*
G75*
G02*
X122860500Y-95292000I-147500J0D01*
G01*
X122515500Y-95292000D01*
G75*
G02*
X122368000Y-95144500I0J147500D01*
G01*
X122368000Y-94849500D01*
G75*
G02*
X122515500Y-94702000I147500J0D01*
G01*
G37*
G04 #@! TD.AperFunction*
G04 #@! TA.AperFunction,SMDPad,CuDef*
G36*
G01*
X122515500Y-93732000D02*
X122860500Y-93732000D01*
G75*
G02*
X123008000Y-93879500I0J-147500D01*
G01*
X123008000Y-94174500D01*
G75*
G02*
X122860500Y-94322000I-147500J0D01*
G01*
X122515500Y-94322000D01*
G75*
G02*
X122368000Y-94174500I0J147500D01*
G01*
X122368000Y-93879500D01*
G75*
G02*
X122515500Y-93732000I147500J0D01*
G01*
G37*
G04 #@! TD.AperFunction*
D13*
X121688000Y-95012000D03*
X120313000Y-90262000D03*
X117963000Y-89312000D03*
X112113000Y-89062000D03*
X116338000Y-91812000D03*
X113338000Y-96237000D03*
X121688000Y-94012000D03*
X121688000Y-93012000D03*
X122588000Y-92612000D03*
X122388000Y-89312000D03*
X122450501Y-97649499D03*
X115913000Y-96787000D03*
X113131016Y-95159645D03*
X117688000Y-93947000D03*
X112363000Y-97237000D03*
X114638011Y-97436995D03*
D14*
X121703000Y-94027000D02*
X121688000Y-94012000D01*
X122688000Y-94027000D02*
X121703000Y-94027000D01*
X123700652Y-90931758D02*
X123700652Y-90224652D01*
X122688000Y-93732000D02*
X123700652Y-92719348D01*
X123700652Y-92719348D02*
X123700652Y-90931758D01*
X122688000Y-94027000D02*
X122688000Y-93732000D01*
X121673000Y-92997000D02*
X121688000Y-93012000D01*
X121673000Y-92012000D02*
X121673000Y-92997000D01*
X122288000Y-92612000D02*
X122588000Y-92612000D01*
X121688000Y-92012000D02*
X122288000Y-92612000D01*
X121673000Y-92012000D02*
X121688000Y-92012000D01*
X122673000Y-97427000D02*
X122450501Y-97649499D01*
X122673000Y-97012000D02*
X122673000Y-97427000D01*
X115688000Y-96562000D02*
X115913000Y-96787000D01*
X115688000Y-95512000D02*
X115688000Y-96562000D01*
X117288000Y-87187000D02*
X117288000Y-86712000D01*
X112403000Y-90212000D02*
X114263000Y-90212000D01*
X114263000Y-90212000D02*
X117288000Y-87187000D01*
X112313000Y-90302000D02*
X112403000Y-90212000D01*
X111313000Y-91272000D02*
X112313000Y-91272000D01*
X118813000Y-93112000D02*
X115178661Y-93112000D01*
X115178661Y-93112000D02*
X113131016Y-95159645D01*
X119688000Y-93987000D02*
X118813000Y-93112000D01*
X119688000Y-95512000D02*
X119688000Y-93987000D01*
X117688000Y-93947000D02*
X118373000Y-93947000D01*
X118688000Y-94262000D02*
X118688000Y-95512000D01*
X118373000Y-93947000D02*
X118688000Y-94262000D01*
X113402014Y-97237000D02*
X112363000Y-97237000D01*
X117688000Y-96871547D02*
X116422537Y-98137010D01*
X116422537Y-98137010D02*
X114302024Y-98137010D01*
X117688000Y-95512000D02*
X117688000Y-96871547D01*
X114302024Y-98137010D02*
X113402014Y-97237000D01*
X116688000Y-95512000D02*
X116688000Y-95962000D01*
X116224002Y-97487002D02*
X114688018Y-97487002D01*
X114688018Y-97487002D02*
X114638011Y-97436995D01*
X116688000Y-97023004D02*
X116224002Y-97487002D01*
X116688000Y-95512000D02*
X116688000Y-97023004D01*
D15*
G36*
X118315809Y-85555093D02*
G01*
X119358110Y-85779923D01*
X120360246Y-86144126D01*
X121303690Y-86640969D01*
X122170970Y-87261250D01*
X122649515Y-87713353D01*
X122607945Y-87725963D01*
X122497631Y-87784928D01*
X122400940Y-87864280D01*
X121340280Y-88924940D01*
X121260928Y-89021631D01*
X121201963Y-89131945D01*
X121165653Y-89251643D01*
X121153393Y-89376125D01*
X121165653Y-89500607D01*
X121201963Y-89620305D01*
X121260928Y-89730619D01*
X121340280Y-89827310D01*
X122153452Y-90640482D01*
X122249588Y-90719463D01*
X122273630Y-90732346D01*
X122286232Y-90755923D01*
X122365584Y-90852614D01*
X122865653Y-91352683D01*
X122865653Y-91714971D01*
X122860729Y-91712932D01*
X122680089Y-91677000D01*
X122588173Y-91677000D01*
X122546274Y-91538875D01*
X122473679Y-91403060D01*
X122375983Y-91284017D01*
X122256940Y-91186321D01*
X122121125Y-91113726D01*
X121973757Y-91069023D01*
X121820500Y-91053928D01*
X121525500Y-91053928D01*
X121372243Y-91069023D01*
X121224875Y-91113726D01*
X121089060Y-91186321D01*
X120970017Y-91284017D01*
X120872321Y-91403060D01*
X120799726Y-91538875D01*
X120755023Y-91686243D01*
X120739928Y-91839500D01*
X120739928Y-92184500D01*
X120755023Y-92337757D01*
X120799726Y-92485125D01*
X120838001Y-92556731D01*
X120838001Y-92620808D01*
X120788932Y-92739271D01*
X120753000Y-92919911D01*
X120753000Y-93104089D01*
X120788932Y-93284729D01*
X120859414Y-93454889D01*
X120897574Y-93512000D01*
X120859414Y-93569111D01*
X120788932Y-93739271D01*
X120753000Y-93919911D01*
X120753000Y-94104089D01*
X120788932Y-94284729D01*
X120859414Y-94454889D01*
X120961738Y-94608028D01*
X121091972Y-94738262D01*
X121245111Y-94840586D01*
X121415271Y-94911068D01*
X121595911Y-94947000D01*
X121780089Y-94947000D01*
X121960729Y-94911068D01*
X122079191Y-94862000D01*
X122143270Y-94862000D01*
X122214875Y-94900274D01*
X122362243Y-94944977D01*
X122515500Y-94960072D01*
X122860500Y-94960072D01*
X123013757Y-94944977D01*
X123161125Y-94900274D01*
X123296940Y-94827679D01*
X123415983Y-94729983D01*
X123513679Y-94610940D01*
X123586274Y-94475125D01*
X123630977Y-94327757D01*
X123646072Y-94174500D01*
X123646072Y-93954795D01*
X123980373Y-93620495D01*
X124019675Y-93818081D01*
X124150463Y-94133831D01*
X124340337Y-94417998D01*
X124582002Y-94659663D01*
X124866169Y-94849537D01*
X125181919Y-94980325D01*
X125517117Y-95047000D01*
X125858883Y-95047000D01*
X126194081Y-94980325D01*
X126509831Y-94849537D01*
X126793998Y-94659663D01*
X127028001Y-94425660D01*
X127028001Y-96279711D01*
X127018420Y-96377424D01*
X126999420Y-96440357D01*
X126968554Y-96498406D01*
X126927011Y-96549343D01*
X126876356Y-96591248D01*
X126818529Y-96622515D01*
X126755728Y-96641956D01*
X126660164Y-96652000D01*
X124655580Y-96652002D01*
X124558616Y-96661552D01*
X124434206Y-96699292D01*
X124319549Y-96760577D01*
X124219051Y-96843054D01*
X124136574Y-96943552D01*
X124116392Y-96981311D01*
X123539693Y-97905209D01*
X122857552Y-98724741D01*
X122070508Y-99444104D01*
X121193110Y-100050002D01*
X120241600Y-100531217D01*
X119233591Y-100878844D01*
X118187719Y-101086454D01*
X117123362Y-101150202D01*
X116060190Y-101068908D01*
X115017898Y-100844080D01*
X114015752Y-100479874D01*
X113072308Y-99983031D01*
X112205024Y-99362747D01*
X111429946Y-98630495D01*
X110759707Y-97797705D01*
X110359676Y-97144911D01*
X111428000Y-97144911D01*
X111428000Y-97329089D01*
X111463932Y-97509729D01*
X111534414Y-97679889D01*
X111636738Y-97833028D01*
X111766972Y-97963262D01*
X111920111Y-98065586D01*
X112090271Y-98136068D01*
X112270911Y-98172000D01*
X112455089Y-98172000D01*
X112635729Y-98136068D01*
X112790404Y-98072000D01*
X113056147Y-98072000D01*
X113682582Y-98698436D01*
X113708733Y-98730301D01*
X113835878Y-98834646D01*
X113980937Y-98912182D01*
X114138335Y-98959928D01*
X114261005Y-98972010D01*
X114261015Y-98972010D01*
X114302023Y-98976049D01*
X114343031Y-98972010D01*
X116381519Y-98972010D01*
X116422537Y-98976050D01*
X116463555Y-98972010D01*
X116463556Y-98972010D01*
X116586226Y-98959928D01*
X116743624Y-98912182D01*
X116888683Y-98834646D01*
X117015828Y-98730301D01*
X117041982Y-98698432D01*
X118183005Y-97557410D01*
X121515501Y-97557410D01*
X121515501Y-97741588D01*
X121551433Y-97922228D01*
X121621915Y-98092388D01*
X121724239Y-98245527D01*
X121854473Y-98375761D01*
X122007612Y-98478085D01*
X122177772Y-98548567D01*
X122358412Y-98584499D01*
X122542590Y-98584499D01*
X122723230Y-98548567D01*
X122893390Y-98478085D01*
X123046529Y-98375761D01*
X123176763Y-98245527D01*
X123279087Y-98092388D01*
X123349569Y-97922228D01*
X123350465Y-97917725D01*
X123370636Y-97893146D01*
X123448172Y-97748087D01*
X123495918Y-97590689D01*
X123508000Y-97468018D01*
X123512040Y-97427001D01*
X123508000Y-97385982D01*
X123508000Y-96970981D01*
X123495918Y-96848311D01*
X123448172Y-96690913D01*
X123370636Y-96545854D01*
X123266291Y-96418709D01*
X123139145Y-96314364D01*
X122994086Y-96236828D01*
X122836688Y-96189082D01*
X122673000Y-96172960D01*
X122509311Y-96189082D01*
X122351913Y-96236828D01*
X122206854Y-96314364D01*
X122079709Y-96418709D01*
X121975364Y-96545855D01*
X121897828Y-96690914D01*
X121850082Y-96848312D01*
X121841417Y-96936293D01*
X121724239Y-97053471D01*
X121621915Y-97206610D01*
X121551433Y-97376770D01*
X121515501Y-97557410D01*
X118183005Y-97557410D01*
X118249432Y-97490984D01*
X118281291Y-97464838D01*
X118333938Y-97400688D01*
X118385636Y-97337693D01*
X118463172Y-97192634D01*
X118510918Y-97035236D01*
X118519059Y-96952583D01*
X118521924Y-96923489D01*
X118538000Y-96925072D01*
X118838000Y-96925072D01*
X118991745Y-96909929D01*
X119139582Y-96865084D01*
X119188000Y-96839204D01*
X119236418Y-96865084D01*
X119384255Y-96909929D01*
X119538000Y-96925072D01*
X119838000Y-96925072D01*
X119991745Y-96909929D01*
X120139582Y-96865084D01*
X120275829Y-96792258D01*
X120395251Y-96694251D01*
X120493258Y-96574829D01*
X120566084Y-96438582D01*
X120610929Y-96290745D01*
X120626072Y-96137000D01*
X120626072Y-94887000D01*
X120610929Y-94733255D01*
X120566084Y-94585418D01*
X120523000Y-94504814D01*
X120523000Y-94028018D01*
X120527040Y-93987000D01*
X120510918Y-93823311D01*
X120463172Y-93665913D01*
X120385636Y-93520854D01*
X120307439Y-93425570D01*
X120307437Y-93425568D01*
X120281291Y-93393709D01*
X120249432Y-93367563D01*
X119432445Y-92550578D01*
X119406291Y-92518709D01*
X119279146Y-92414364D01*
X119134087Y-92336828D01*
X118976689Y-92289082D01*
X118854019Y-92277000D01*
X118854018Y-92277000D01*
X118813000Y-92272960D01*
X118771982Y-92277000D01*
X115219668Y-92277000D01*
X115178660Y-92272961D01*
X115137652Y-92277000D01*
X115137642Y-92277000D01*
X115014972Y-92289082D01*
X114857574Y-92336828D01*
X114712515Y-92414364D01*
X114585370Y-92518709D01*
X114559220Y-92550573D01*
X112842803Y-94266990D01*
X112688127Y-94331059D01*
X112534988Y-94433383D01*
X112404754Y-94563617D01*
X112302430Y-94716756D01*
X112231948Y-94886916D01*
X112196016Y-95067556D01*
X112196016Y-95251734D01*
X112231948Y-95432374D01*
X112302430Y-95602534D01*
X112404754Y-95755673D01*
X112534988Y-95885907D01*
X112688127Y-95988231D01*
X112858287Y-96058713D01*
X113038927Y-96094645D01*
X113223105Y-96094645D01*
X113403745Y-96058713D01*
X113573905Y-95988231D01*
X113727044Y-95885907D01*
X113857278Y-95755673D01*
X113959602Y-95602534D01*
X114023671Y-95447858D01*
X114776739Y-94694789D01*
X114765071Y-94733255D01*
X114749928Y-94887000D01*
X114749928Y-96137000D01*
X114765071Y-96290745D01*
X114809916Y-96438582D01*
X114853001Y-96519188D01*
X114853001Y-96520972D01*
X114852473Y-96526337D01*
X114730100Y-96501995D01*
X114545922Y-96501995D01*
X114365282Y-96537927D01*
X114195122Y-96608409D01*
X114050754Y-96704873D01*
X114021460Y-96675579D01*
X113995305Y-96643709D01*
X113868160Y-96539364D01*
X113723101Y-96461828D01*
X113565703Y-96414082D01*
X113443033Y-96402000D01*
X113443032Y-96402000D01*
X113402014Y-96397960D01*
X113360996Y-96402000D01*
X112790404Y-96402000D01*
X112635729Y-96337932D01*
X112455089Y-96302000D01*
X112270911Y-96302000D01*
X112090271Y-96337932D01*
X111920111Y-96408414D01*
X111766972Y-96510738D01*
X111636738Y-96640972D01*
X111534414Y-96794111D01*
X111463932Y-96964271D01*
X111428000Y-97144911D01*
X110359676Y-97144911D01*
X110260890Y-96983708D01*
X110239425Y-96943550D01*
X110198742Y-96893978D01*
X110198735Y-96893968D01*
X110198726Y-96893959D01*
X110156948Y-96843052D01*
X110056450Y-96760575D01*
X109941793Y-96699290D01*
X109817383Y-96661550D01*
X109720419Y-96652000D01*
X107720279Y-96652000D01*
X107622576Y-96642420D01*
X107559643Y-96623420D01*
X107501594Y-96592554D01*
X107450657Y-96551011D01*
X107408752Y-96500356D01*
X107377485Y-96442529D01*
X107358044Y-96379728D01*
X107348000Y-96284165D01*
X107348000Y-94425661D01*
X107582002Y-94659663D01*
X107866169Y-94849537D01*
X108181919Y-94980325D01*
X108517117Y-95047000D01*
X108858883Y-95047000D01*
X109194081Y-94980325D01*
X109509831Y-94849537D01*
X109793998Y-94659663D01*
X110035663Y-94417998D01*
X110225537Y-94133831D01*
X110356325Y-93818081D01*
X110423000Y-93482883D01*
X110423000Y-93141117D01*
X110356325Y-92805919D01*
X110225537Y-92490169D01*
X110035663Y-92206002D01*
X109793998Y-91964337D01*
X109509831Y-91774463D01*
X109194081Y-91643675D01*
X108858883Y-91577000D01*
X108517117Y-91577000D01*
X108181919Y-91643675D01*
X107866169Y-91774463D01*
X107582002Y-91964337D01*
X107348000Y-92198339D01*
X107348000Y-90344279D01*
X107357580Y-90246576D01*
X107376580Y-90183644D01*
X107407445Y-90125595D01*
X107448989Y-90074657D01*
X107499644Y-90032752D01*
X107557471Y-90001485D01*
X107620272Y-89982044D01*
X107715844Y-89971999D01*
X109720419Y-89972001D01*
X109817383Y-89962451D01*
X109941793Y-89924711D01*
X110056450Y-89863426D01*
X110156948Y-89780949D01*
X110239425Y-89680451D01*
X110259605Y-89642696D01*
X110836307Y-88718791D01*
X111518445Y-87899265D01*
X112305496Y-87179895D01*
X113182889Y-86574000D01*
X113259928Y-86535038D01*
X113259928Y-87562000D01*
X113272188Y-87686482D01*
X113308498Y-87806180D01*
X113367463Y-87916494D01*
X113446815Y-88013185D01*
X113543506Y-88092537D01*
X113653820Y-88151502D01*
X113773518Y-88187812D01*
X113898000Y-88200072D01*
X115094061Y-88200072D01*
X113917133Y-89377000D01*
X112567454Y-89377000D01*
X112485500Y-89368928D01*
X112140500Y-89368928D01*
X111987243Y-89384023D01*
X111839875Y-89428726D01*
X111704060Y-89501321D01*
X111585017Y-89599017D01*
X111487321Y-89718060D01*
X111414726Y-89853875D01*
X111370023Y-90001243D01*
X111354928Y-90154500D01*
X111354928Y-90338928D01*
X111140500Y-90338928D01*
X110987243Y-90354023D01*
X110839875Y-90398726D01*
X110704060Y-90471321D01*
X110585017Y-90569017D01*
X110487321Y-90688060D01*
X110414726Y-90823875D01*
X110370023Y-90971243D01*
X110354928Y-91124500D01*
X110354928Y-91419500D01*
X110370023Y-91572757D01*
X110414726Y-91720125D01*
X110487321Y-91855940D01*
X110585017Y-91974983D01*
X110704060Y-92072679D01*
X110839875Y-92145274D01*
X110987243Y-92189977D01*
X111140500Y-92205072D01*
X111485500Y-92205072D01*
X111638757Y-92189977D01*
X111786125Y-92145274D01*
X111813000Y-92130909D01*
X111839875Y-92145274D01*
X111987243Y-92189977D01*
X112140500Y-92205072D01*
X112485500Y-92205072D01*
X112638757Y-92189977D01*
X112786125Y-92145274D01*
X112921940Y-92072679D01*
X113040983Y-91974983D01*
X113138679Y-91855940D01*
X113211274Y-91720125D01*
X113255977Y-91572757D01*
X113271072Y-91419500D01*
X113271072Y-91124500D01*
X113263439Y-91047000D01*
X114221982Y-91047000D01*
X114263000Y-91051040D01*
X114304018Y-91047000D01*
X114304019Y-91047000D01*
X114426689Y-91034918D01*
X114584087Y-90987172D01*
X114729146Y-90909636D01*
X114856291Y-90805291D01*
X114882446Y-90773421D01*
X117464978Y-88190890D01*
X117721158Y-88139932D01*
X117991411Y-88027990D01*
X118234632Y-87865475D01*
X118441475Y-87658632D01*
X118603990Y-87415411D01*
X118715932Y-87145158D01*
X118773000Y-86858260D01*
X118773000Y-86565740D01*
X118715932Y-86278842D01*
X118603990Y-86008589D01*
X118441475Y-85765368D01*
X118234632Y-85558525D01*
X118218342Y-85547640D01*
X118315809Y-85555093D01*
G37*
X118315809Y-85555093D02*
X119358110Y-85779923D01*
X120360246Y-86144126D01*
X121303690Y-86640969D01*
X122170970Y-87261250D01*
X122649515Y-87713353D01*
X122607945Y-87725963D01*
X122497631Y-87784928D01*
X122400940Y-87864280D01*
X121340280Y-88924940D01*
X121260928Y-89021631D01*
X121201963Y-89131945D01*
X121165653Y-89251643D01*
X121153393Y-89376125D01*
X121165653Y-89500607D01*
X121201963Y-89620305D01*
X121260928Y-89730619D01*
X121340280Y-89827310D01*
X122153452Y-90640482D01*
X122249588Y-90719463D01*
X122273630Y-90732346D01*
X122286232Y-90755923D01*
X122365584Y-90852614D01*
X122865653Y-91352683D01*
X122865653Y-91714971D01*
X122860729Y-91712932D01*
X122680089Y-91677000D01*
X122588173Y-91677000D01*
X122546274Y-91538875D01*
X122473679Y-91403060D01*
X122375983Y-91284017D01*
X122256940Y-91186321D01*
X122121125Y-91113726D01*
X121973757Y-91069023D01*
X121820500Y-91053928D01*
X121525500Y-91053928D01*
X121372243Y-91069023D01*
X121224875Y-91113726D01*
X121089060Y-91186321D01*
X120970017Y-91284017D01*
X120872321Y-91403060D01*
X120799726Y-91538875D01*
X120755023Y-91686243D01*
X120739928Y-91839500D01*
X120739928Y-92184500D01*
X120755023Y-92337757D01*
X120799726Y-92485125D01*
X120838001Y-92556731D01*
X120838001Y-92620808D01*
X120788932Y-92739271D01*
X120753000Y-92919911D01*
X120753000Y-93104089D01*
X120788932Y-93284729D01*
X120859414Y-93454889D01*
X120897574Y-93512000D01*
X120859414Y-93569111D01*
X120788932Y-93739271D01*
X120753000Y-93919911D01*
X120753000Y-94104089D01*
X120788932Y-94284729D01*
X120859414Y-94454889D01*
X120961738Y-94608028D01*
X121091972Y-94738262D01*
X121245111Y-94840586D01*
X121415271Y-94911068D01*
X121595911Y-94947000D01*
X121780089Y-94947000D01*
X121960729Y-94911068D01*
X122079191Y-94862000D01*
X122143270Y-94862000D01*
X122214875Y-94900274D01*
X122362243Y-94944977D01*
X122515500Y-94960072D01*
X122860500Y-94960072D01*
X123013757Y-94944977D01*
X123161125Y-94900274D01*
X123296940Y-94827679D01*
X123415983Y-94729983D01*
X123513679Y-94610940D01*
X123586274Y-94475125D01*
X123630977Y-94327757D01*
X123646072Y-94174500D01*
X123646072Y-93954795D01*
X123980373Y-93620495D01*
X124019675Y-93818081D01*
X124150463Y-94133831D01*
X124340337Y-94417998D01*
X124582002Y-94659663D01*
X124866169Y-94849537D01*
X125181919Y-94980325D01*
X125517117Y-95047000D01*
X125858883Y-95047000D01*
X126194081Y-94980325D01*
X126509831Y-94849537D01*
X126793998Y-94659663D01*
X127028001Y-94425660D01*
X127028001Y-96279711D01*
X127018420Y-96377424D01*
X126999420Y-96440357D01*
X126968554Y-96498406D01*
X126927011Y-96549343D01*
X126876356Y-96591248D01*
X126818529Y-96622515D01*
X126755728Y-96641956D01*
X126660164Y-96652000D01*
X124655580Y-96652002D01*
X124558616Y-96661552D01*
X124434206Y-96699292D01*
X124319549Y-96760577D01*
X124219051Y-96843054D01*
X124136574Y-96943552D01*
X124116392Y-96981311D01*
X123539693Y-97905209D01*
X122857552Y-98724741D01*
X122070508Y-99444104D01*
X121193110Y-100050002D01*
X120241600Y-100531217D01*
X119233591Y-100878844D01*
X118187719Y-101086454D01*
X117123362Y-101150202D01*
X116060190Y-101068908D01*
X115017898Y-100844080D01*
X114015752Y-100479874D01*
X113072308Y-99983031D01*
X112205024Y-99362747D01*
X111429946Y-98630495D01*
X110759707Y-97797705D01*
X110359676Y-97144911D01*
X111428000Y-97144911D01*
X111428000Y-97329089D01*
X111463932Y-97509729D01*
X111534414Y-97679889D01*
X111636738Y-97833028D01*
X111766972Y-97963262D01*
X111920111Y-98065586D01*
X112090271Y-98136068D01*
X112270911Y-98172000D01*
X112455089Y-98172000D01*
X112635729Y-98136068D01*
X112790404Y-98072000D01*
X113056147Y-98072000D01*
X113682582Y-98698436D01*
X113708733Y-98730301D01*
X113835878Y-98834646D01*
X113980937Y-98912182D01*
X114138335Y-98959928D01*
X114261005Y-98972010D01*
X114261015Y-98972010D01*
X114302023Y-98976049D01*
X114343031Y-98972010D01*
X116381519Y-98972010D01*
X116422537Y-98976050D01*
X116463555Y-98972010D01*
X116463556Y-98972010D01*
X116586226Y-98959928D01*
X116743624Y-98912182D01*
X116888683Y-98834646D01*
X117015828Y-98730301D01*
X117041982Y-98698432D01*
X118183005Y-97557410D01*
X121515501Y-97557410D01*
X121515501Y-97741588D01*
X121551433Y-97922228D01*
X121621915Y-98092388D01*
X121724239Y-98245527D01*
X121854473Y-98375761D01*
X122007612Y-98478085D01*
X122177772Y-98548567D01*
X122358412Y-98584499D01*
X122542590Y-98584499D01*
X122723230Y-98548567D01*
X122893390Y-98478085D01*
X123046529Y-98375761D01*
X123176763Y-98245527D01*
X123279087Y-98092388D01*
X123349569Y-97922228D01*
X123350465Y-97917725D01*
X123370636Y-97893146D01*
X123448172Y-97748087D01*
X123495918Y-97590689D01*
X123508000Y-97468018D01*
X123512040Y-97427001D01*
X123508000Y-97385982D01*
X123508000Y-96970981D01*
X123495918Y-96848311D01*
X123448172Y-96690913D01*
X123370636Y-96545854D01*
X123266291Y-96418709D01*
X123139145Y-96314364D01*
X122994086Y-96236828D01*
X122836688Y-96189082D01*
X122673000Y-96172960D01*
X122509311Y-96189082D01*
X122351913Y-96236828D01*
X122206854Y-96314364D01*
X122079709Y-96418709D01*
X121975364Y-96545855D01*
X121897828Y-96690914D01*
X121850082Y-96848312D01*
X121841417Y-96936293D01*
X121724239Y-97053471D01*
X121621915Y-97206610D01*
X121551433Y-97376770D01*
X121515501Y-97557410D01*
X118183005Y-97557410D01*
X118249432Y-97490984D01*
X118281291Y-97464838D01*
X118333938Y-97400688D01*
X118385636Y-97337693D01*
X118463172Y-97192634D01*
X118510918Y-97035236D01*
X118519059Y-96952583D01*
X118521924Y-96923489D01*
X118538000Y-96925072D01*
X118838000Y-96925072D01*
X118991745Y-96909929D01*
X119139582Y-96865084D01*
X119188000Y-96839204D01*
X119236418Y-96865084D01*
X119384255Y-96909929D01*
X119538000Y-96925072D01*
X119838000Y-96925072D01*
X119991745Y-96909929D01*
X120139582Y-96865084D01*
X120275829Y-96792258D01*
X120395251Y-96694251D01*
X120493258Y-96574829D01*
X120566084Y-96438582D01*
X120610929Y-96290745D01*
X120626072Y-96137000D01*
X120626072Y-94887000D01*
X120610929Y-94733255D01*
X120566084Y-94585418D01*
X120523000Y-94504814D01*
X120523000Y-94028018D01*
X120527040Y-93987000D01*
X120510918Y-93823311D01*
X120463172Y-93665913D01*
X120385636Y-93520854D01*
X120307439Y-93425570D01*
X120307437Y-93425568D01*
X120281291Y-93393709D01*
X120249432Y-93367563D01*
X119432445Y-92550578D01*
X119406291Y-92518709D01*
X119279146Y-92414364D01*
X119134087Y-92336828D01*
X118976689Y-92289082D01*
X118854019Y-92277000D01*
X118854018Y-92277000D01*
X118813000Y-92272960D01*
X118771982Y-92277000D01*
X115219668Y-92277000D01*
X115178660Y-92272961D01*
X115137652Y-92277000D01*
X115137642Y-92277000D01*
X115014972Y-92289082D01*
X114857574Y-92336828D01*
X114712515Y-92414364D01*
X114585370Y-92518709D01*
X114559220Y-92550573D01*
X112842803Y-94266990D01*
X112688127Y-94331059D01*
X112534988Y-94433383D01*
X112404754Y-94563617D01*
X112302430Y-94716756D01*
X112231948Y-94886916D01*
X112196016Y-95067556D01*
X112196016Y-95251734D01*
X112231948Y-95432374D01*
X112302430Y-95602534D01*
X112404754Y-95755673D01*
X112534988Y-95885907D01*
X112688127Y-95988231D01*
X112858287Y-96058713D01*
X113038927Y-96094645D01*
X113223105Y-96094645D01*
X113403745Y-96058713D01*
X113573905Y-95988231D01*
X113727044Y-95885907D01*
X113857278Y-95755673D01*
X113959602Y-95602534D01*
X114023671Y-95447858D01*
X114776739Y-94694789D01*
X114765071Y-94733255D01*
X114749928Y-94887000D01*
X114749928Y-96137000D01*
X114765071Y-96290745D01*
X114809916Y-96438582D01*
X114853001Y-96519188D01*
X114853001Y-96520972D01*
X114852473Y-96526337D01*
X114730100Y-96501995D01*
X114545922Y-96501995D01*
X114365282Y-96537927D01*
X114195122Y-96608409D01*
X114050754Y-96704873D01*
X114021460Y-96675579D01*
X113995305Y-96643709D01*
X113868160Y-96539364D01*
X113723101Y-96461828D01*
X113565703Y-96414082D01*
X113443033Y-96402000D01*
X113443032Y-96402000D01*
X113402014Y-96397960D01*
X113360996Y-96402000D01*
X112790404Y-96402000D01*
X112635729Y-96337932D01*
X112455089Y-96302000D01*
X112270911Y-96302000D01*
X112090271Y-96337932D01*
X111920111Y-96408414D01*
X111766972Y-96510738D01*
X111636738Y-96640972D01*
X111534414Y-96794111D01*
X111463932Y-96964271D01*
X111428000Y-97144911D01*
X110359676Y-97144911D01*
X110260890Y-96983708D01*
X110239425Y-96943550D01*
X110198742Y-96893978D01*
X110198735Y-96893968D01*
X110198726Y-96893959D01*
X110156948Y-96843052D01*
X110056450Y-96760575D01*
X109941793Y-96699290D01*
X109817383Y-96661550D01*
X109720419Y-96652000D01*
X107720279Y-96652000D01*
X107622576Y-96642420D01*
X107559643Y-96623420D01*
X107501594Y-96592554D01*
X107450657Y-96551011D01*
X107408752Y-96500356D01*
X107377485Y-96442529D01*
X107358044Y-96379728D01*
X107348000Y-96284165D01*
X107348000Y-94425661D01*
X107582002Y-94659663D01*
X107866169Y-94849537D01*
X108181919Y-94980325D01*
X108517117Y-95047000D01*
X108858883Y-95047000D01*
X109194081Y-94980325D01*
X109509831Y-94849537D01*
X109793998Y-94659663D01*
X110035663Y-94417998D01*
X110225537Y-94133831D01*
X110356325Y-93818081D01*
X110423000Y-93482883D01*
X110423000Y-93141117D01*
X110356325Y-92805919D01*
X110225537Y-92490169D01*
X110035663Y-92206002D01*
X109793998Y-91964337D01*
X109509831Y-91774463D01*
X109194081Y-91643675D01*
X108858883Y-91577000D01*
X108517117Y-91577000D01*
X108181919Y-91643675D01*
X107866169Y-91774463D01*
X107582002Y-91964337D01*
X107348000Y-92198339D01*
X107348000Y-90344279D01*
X107357580Y-90246576D01*
X107376580Y-90183644D01*
X107407445Y-90125595D01*
X107448989Y-90074657D01*
X107499644Y-90032752D01*
X107557471Y-90001485D01*
X107620272Y-89982044D01*
X107715844Y-89971999D01*
X109720419Y-89972001D01*
X109817383Y-89962451D01*
X109941793Y-89924711D01*
X110056450Y-89863426D01*
X110156948Y-89780949D01*
X110239425Y-89680451D01*
X110259605Y-89642696D01*
X110836307Y-88718791D01*
X111518445Y-87899265D01*
X112305496Y-87179895D01*
X113182889Y-86574000D01*
X113259928Y-86535038D01*
X113259928Y-87562000D01*
X113272188Y-87686482D01*
X113308498Y-87806180D01*
X113367463Y-87916494D01*
X113446815Y-88013185D01*
X113543506Y-88092537D01*
X113653820Y-88151502D01*
X113773518Y-88187812D01*
X113898000Y-88200072D01*
X115094061Y-88200072D01*
X113917133Y-89377000D01*
X112567454Y-89377000D01*
X112485500Y-89368928D01*
X112140500Y-89368928D01*
X111987243Y-89384023D01*
X111839875Y-89428726D01*
X111704060Y-89501321D01*
X111585017Y-89599017D01*
X111487321Y-89718060D01*
X111414726Y-89853875D01*
X111370023Y-90001243D01*
X111354928Y-90154500D01*
X111354928Y-90338928D01*
X111140500Y-90338928D01*
X110987243Y-90354023D01*
X110839875Y-90398726D01*
X110704060Y-90471321D01*
X110585017Y-90569017D01*
X110487321Y-90688060D01*
X110414726Y-90823875D01*
X110370023Y-90971243D01*
X110354928Y-91124500D01*
X110354928Y-91419500D01*
X110370023Y-91572757D01*
X110414726Y-91720125D01*
X110487321Y-91855940D01*
X110585017Y-91974983D01*
X110704060Y-92072679D01*
X110839875Y-92145274D01*
X110987243Y-92189977D01*
X111140500Y-92205072D01*
X111485500Y-92205072D01*
X111638757Y-92189977D01*
X111786125Y-92145274D01*
X111813000Y-92130909D01*
X111839875Y-92145274D01*
X111987243Y-92189977D01*
X112140500Y-92205072D01*
X112485500Y-92205072D01*
X112638757Y-92189977D01*
X112786125Y-92145274D01*
X112921940Y-92072679D01*
X113040983Y-91974983D01*
X113138679Y-91855940D01*
X113211274Y-91720125D01*
X113255977Y-91572757D01*
X113271072Y-91419500D01*
X113271072Y-91124500D01*
X113263439Y-91047000D01*
X114221982Y-91047000D01*
X114263000Y-91051040D01*
X114304018Y-91047000D01*
X114304019Y-91047000D01*
X114426689Y-91034918D01*
X114584087Y-90987172D01*
X114729146Y-90909636D01*
X114856291Y-90805291D01*
X114882446Y-90773421D01*
X117464978Y-88190890D01*
X117721158Y-88139932D01*
X117991411Y-88027990D01*
X118234632Y-87865475D01*
X118441475Y-87658632D01*
X118603990Y-87415411D01*
X118715932Y-87145158D01*
X118773000Y-86858260D01*
X118773000Y-86565740D01*
X118715932Y-86278842D01*
X118603990Y-86008589D01*
X118441475Y-85765368D01*
X118234632Y-85558525D01*
X118218342Y-85547640D01*
X118315809Y-85555093D01*
M02*
