G04 #@! TF.GenerationSoftware,KiCad,Pcbnew,(5.1.6-0-10_14)*
G04 #@! TF.CreationDate,2021-04-09T22:44:30+02:00*
G04 #@! TF.ProjectId,Encoder,456e636f-6465-4722-9e6b-696361645f70,1.1*
G04 #@! TF.SameCoordinates,Original*
G04 #@! TF.FileFunction,Copper,L1,Top*
G04 #@! TF.FilePolarity,Positive*
%FSLAX46Y46*%
G04 Gerber Fmt 4.6, Leading zero omitted, Abs format (unit mm)*
G04 Created by KiCad (PCBNEW (5.1.6-0-10_14)) date 2021-04-09 22:44:30*
%MOMM*%
%LPD*%
G01*
G04 APERTURE LIST*
G04 #@! TA.AperFunction,SMDPad,CuDef*
%ADD10C,0.100000*%
G04 #@! TD*
G04 #@! TA.AperFunction,ComponentPad*
%ADD11O,1.700000X1.700000*%
G04 #@! TD*
G04 #@! TA.AperFunction,ComponentPad*
%ADD12R,1.700000X1.700000*%
G04 #@! TD*
G04 #@! TA.AperFunction,ViaPad*
%ADD13C,0.800000*%
G04 #@! TD*
G04 #@! TA.AperFunction,ViaPad*
%ADD14C,0.600000*%
G04 #@! TD*
G04 #@! TA.AperFunction,Conductor*
%ADD15C,0.400000*%
G04 #@! TD*
G04 #@! TA.AperFunction,Conductor*
%ADD16C,0.254000*%
G04 #@! TD*
G04 APERTURE END LIST*
G04 #@! TA.AperFunction,SMDPad,CuDef*
G36*
G01*
X119388000Y-100037001D02*
X119388000Y-98736999D01*
G75*
G02*
X119637999Y-98487000I249999J0D01*
G01*
X120338001Y-98487000D01*
G75*
G02*
X120588000Y-98736999I0J-249999D01*
G01*
X120588000Y-100037001D01*
G75*
G02*
X120338001Y-100287000I-249999J0D01*
G01*
X119637999Y-100287000D01*
G75*
G02*
X119388000Y-100037001I0J249999D01*
G01*
G37*
G04 #@! TD.AperFunction*
G04 #@! TA.AperFunction,SMDPad,CuDef*
G36*
G01*
X113788000Y-100037001D02*
X113788000Y-98736999D01*
G75*
G02*
X114037999Y-98487000I249999J0D01*
G01*
X114738001Y-98487000D01*
G75*
G02*
X114988000Y-98736999I0J-249999D01*
G01*
X114988000Y-100037001D01*
G75*
G02*
X114738001Y-100287000I-249999J0D01*
G01*
X114037999Y-100287000D01*
G75*
G02*
X113788000Y-100037001I0J249999D01*
G01*
G37*
G04 #@! TD.AperFunction*
G04 #@! TA.AperFunction,SMDPad,CuDef*
G36*
G01*
X118388000Y-96137000D02*
X118388000Y-94887000D01*
G75*
G02*
X118538000Y-94737000I150000J0D01*
G01*
X118838000Y-94737000D01*
G75*
G02*
X118988000Y-94887000I0J-150000D01*
G01*
X118988000Y-96137000D01*
G75*
G02*
X118838000Y-96287000I-150000J0D01*
G01*
X118538000Y-96287000D01*
G75*
G02*
X118388000Y-96137000I0J150000D01*
G01*
G37*
G04 #@! TD.AperFunction*
G04 #@! TA.AperFunction,SMDPad,CuDef*
G36*
G01*
X117388000Y-96137000D02*
X117388000Y-94887000D01*
G75*
G02*
X117538000Y-94737000I150000J0D01*
G01*
X117838000Y-94737000D01*
G75*
G02*
X117988000Y-94887000I0J-150000D01*
G01*
X117988000Y-96137000D01*
G75*
G02*
X117838000Y-96287000I-150000J0D01*
G01*
X117538000Y-96287000D01*
G75*
G02*
X117388000Y-96137000I0J150000D01*
G01*
G37*
G04 #@! TD.AperFunction*
G04 #@! TA.AperFunction,SMDPad,CuDef*
G36*
G01*
X116388000Y-96137000D02*
X116388000Y-94887000D01*
G75*
G02*
X116538000Y-94737000I150000J0D01*
G01*
X116838000Y-94737000D01*
G75*
G02*
X116988000Y-94887000I0J-150000D01*
G01*
X116988000Y-96137000D01*
G75*
G02*
X116838000Y-96287000I-150000J0D01*
G01*
X116538000Y-96287000D01*
G75*
G02*
X116388000Y-96137000I0J150000D01*
G01*
G37*
G04 #@! TD.AperFunction*
G04 #@! TA.AperFunction,SMDPad,CuDef*
G36*
G01*
X115388000Y-96137000D02*
X115388000Y-94887000D01*
G75*
G02*
X115538000Y-94737000I150000J0D01*
G01*
X115838000Y-94737000D01*
G75*
G02*
X115988000Y-94887000I0J-150000D01*
G01*
X115988000Y-96137000D01*
G75*
G02*
X115838000Y-96287000I-150000J0D01*
G01*
X115538000Y-96287000D01*
G75*
G02*
X115388000Y-96137000I0J150000D01*
G01*
G37*
G04 #@! TD.AperFunction*
G04 #@! TA.AperFunction,SMDPad,CuDef*
D10*
G36*
X111295107Y-97106455D02*
G01*
X110411223Y-97283231D01*
X109704117Y-96576125D01*
X110764777Y-95515465D01*
X111471883Y-96222571D01*
X111295107Y-97106455D01*
G37*
G04 #@! TD.AperFunction*
G04 #@! TA.AperFunction,SMDPad,CuDef*
G36*
X111436527Y-98308535D02*
G01*
X110623355Y-97495363D01*
X111507238Y-97318586D01*
X111684015Y-96434703D01*
X112497187Y-97247875D01*
X111436527Y-98308535D01*
G37*
G04 #@! TD.AperFunction*
G04 #@! TA.AperFunction,SMDPad,CuDef*
G36*
X122993545Y-89517545D02*
G01*
X123877429Y-89340769D01*
X124584535Y-90047875D01*
X123523875Y-91108535D01*
X122816769Y-90401429D01*
X122993545Y-89517545D01*
G37*
G04 #@! TD.AperFunction*
G04 #@! TA.AperFunction,SMDPad,CuDef*
G36*
X122852125Y-88315465D02*
G01*
X123665297Y-89128637D01*
X122781414Y-89305414D01*
X122604637Y-90189297D01*
X121791465Y-89376125D01*
X122852125Y-88315465D01*
G37*
G04 #@! TD.AperFunction*
G04 #@! TA.AperFunction,SMDPad,CuDef*
G36*
X111295107Y-89504893D02*
G01*
X111471883Y-90388777D01*
X110764777Y-91095883D01*
X109704117Y-90035223D01*
X110411223Y-89328117D01*
X111295107Y-89504893D01*
G37*
G04 #@! TD.AperFunction*
G04 #@! TA.AperFunction,SMDPad,CuDef*
G36*
X112497187Y-89363473D02*
G01*
X111684015Y-90176645D01*
X111507238Y-89292762D01*
X110623355Y-89115985D01*
X111436527Y-88302813D01*
X112497187Y-89363473D01*
G37*
G04 #@! TD.AperFunction*
D11*
X119828000Y-86712000D03*
X117288000Y-86712000D03*
D12*
X114748000Y-86712000D03*
G04 #@! TA.AperFunction,SMDPad,CuDef*
G36*
G01*
X121998000Y-95839500D02*
X121998000Y-96184500D01*
G75*
G02*
X121850500Y-96332000I-147500J0D01*
G01*
X121555500Y-96332000D01*
G75*
G02*
X121408000Y-96184500I0J147500D01*
G01*
X121408000Y-95839500D01*
G75*
G02*
X121555500Y-95692000I147500J0D01*
G01*
X121850500Y-95692000D01*
G75*
G02*
X121998000Y-95839500I0J-147500D01*
G01*
G37*
G04 #@! TD.AperFunction*
G04 #@! TA.AperFunction,SMDPad,CuDef*
G36*
G01*
X122968000Y-95839500D02*
X122968000Y-96184500D01*
G75*
G02*
X122820500Y-96332000I-147500J0D01*
G01*
X122525500Y-96332000D01*
G75*
G02*
X122378000Y-96184500I0J147500D01*
G01*
X122378000Y-95839500D01*
G75*
G02*
X122525500Y-95692000I147500J0D01*
G01*
X122820500Y-95692000D01*
G75*
G02*
X122968000Y-95839500I0J-147500D01*
G01*
G37*
G04 #@! TD.AperFunction*
G04 #@! TA.AperFunction,SMDPad,CuDef*
G36*
G01*
X122378000Y-97184500D02*
X122378000Y-96839500D01*
G75*
G02*
X122525500Y-96692000I147500J0D01*
G01*
X122820500Y-96692000D01*
G75*
G02*
X122968000Y-96839500I0J-147500D01*
G01*
X122968000Y-97184500D01*
G75*
G02*
X122820500Y-97332000I-147500J0D01*
G01*
X122525500Y-97332000D01*
G75*
G02*
X122378000Y-97184500I0J147500D01*
G01*
G37*
G04 #@! TD.AperFunction*
G04 #@! TA.AperFunction,SMDPad,CuDef*
G36*
G01*
X121408000Y-97184500D02*
X121408000Y-96839500D01*
G75*
G02*
X121555500Y-96692000I147500J0D01*
G01*
X121850500Y-96692000D01*
G75*
G02*
X121998000Y-96839500I0J-147500D01*
G01*
X121998000Y-97184500D01*
G75*
G02*
X121850500Y-97332000I-147500J0D01*
G01*
X121555500Y-97332000D01*
G75*
G02*
X121408000Y-97184500I0J147500D01*
G01*
G37*
G04 #@! TD.AperFunction*
G04 #@! TA.AperFunction,SMDPad,CuDef*
G36*
G01*
X111415500Y-94202000D02*
X111760500Y-94202000D01*
G75*
G02*
X111908000Y-94349500I0J-147500D01*
G01*
X111908000Y-94644500D01*
G75*
G02*
X111760500Y-94792000I-147500J0D01*
G01*
X111415500Y-94792000D01*
G75*
G02*
X111268000Y-94644500I0J147500D01*
G01*
X111268000Y-94349500D01*
G75*
G02*
X111415500Y-94202000I147500J0D01*
G01*
G37*
G04 #@! TD.AperFunction*
G04 #@! TA.AperFunction,SMDPad,CuDef*
G36*
G01*
X111415500Y-93232000D02*
X111760500Y-93232000D01*
G75*
G02*
X111908000Y-93379500I0J-147500D01*
G01*
X111908000Y-93674500D01*
G75*
G02*
X111760500Y-93822000I-147500J0D01*
G01*
X111415500Y-93822000D01*
G75*
G02*
X111268000Y-93674500I0J147500D01*
G01*
X111268000Y-93379500D01*
G75*
G02*
X111415500Y-93232000I147500J0D01*
G01*
G37*
G04 #@! TD.AperFunction*
G04 #@! TA.AperFunction,SMDPad,CuDef*
G36*
G01*
X112460500Y-91622000D02*
X112115500Y-91622000D01*
G75*
G02*
X111968000Y-91474500I0J147500D01*
G01*
X111968000Y-91179500D01*
G75*
G02*
X112115500Y-91032000I147500J0D01*
G01*
X112460500Y-91032000D01*
G75*
G02*
X112608000Y-91179500I0J-147500D01*
G01*
X112608000Y-91474500D01*
G75*
G02*
X112460500Y-91622000I-147500J0D01*
G01*
G37*
G04 #@! TD.AperFunction*
G04 #@! TA.AperFunction,SMDPad,CuDef*
G36*
G01*
X112460500Y-92592000D02*
X112115500Y-92592000D01*
G75*
G02*
X111968000Y-92444500I0J147500D01*
G01*
X111968000Y-92149500D01*
G75*
G02*
X112115500Y-92002000I147500J0D01*
G01*
X112460500Y-92002000D01*
G75*
G02*
X112608000Y-92149500I0J-147500D01*
G01*
X112608000Y-92444500D01*
G75*
G02*
X112460500Y-92592000I-147500J0D01*
G01*
G37*
G04 #@! TD.AperFunction*
G04 #@! TA.AperFunction,SMDPad,CuDef*
G36*
G01*
X112515500Y-94902000D02*
X112860500Y-94902000D01*
G75*
G02*
X113008000Y-95049500I0J-147500D01*
G01*
X113008000Y-95344500D01*
G75*
G02*
X112860500Y-95492000I-147500J0D01*
G01*
X112515500Y-95492000D01*
G75*
G02*
X112368000Y-95344500I0J147500D01*
G01*
X112368000Y-95049500D01*
G75*
G02*
X112515500Y-94902000I147500J0D01*
G01*
G37*
G04 #@! TD.AperFunction*
G04 #@! TA.AperFunction,SMDPad,CuDef*
G36*
G01*
X112515500Y-93932000D02*
X112860500Y-93932000D01*
G75*
G02*
X113008000Y-94079500I0J-147500D01*
G01*
X113008000Y-94374500D01*
G75*
G02*
X112860500Y-94522000I-147500J0D01*
G01*
X112515500Y-94522000D01*
G75*
G02*
X112368000Y-94374500I0J147500D01*
G01*
X112368000Y-94079500D01*
G75*
G02*
X112515500Y-93932000I147500J0D01*
G01*
G37*
G04 #@! TD.AperFunction*
G04 #@! TA.AperFunction,SMDPad,CuDef*
G36*
G01*
X113615500Y-91002000D02*
X113960500Y-91002000D01*
G75*
G02*
X114108000Y-91149500I0J-147500D01*
G01*
X114108000Y-91444500D01*
G75*
G02*
X113960500Y-91592000I-147500J0D01*
G01*
X113615500Y-91592000D01*
G75*
G02*
X113468000Y-91444500I0J147500D01*
G01*
X113468000Y-91149500D01*
G75*
G02*
X113615500Y-91002000I147500J0D01*
G01*
G37*
G04 #@! TD.AperFunction*
G04 #@! TA.AperFunction,SMDPad,CuDef*
G36*
G01*
X113615500Y-90032000D02*
X113960500Y-90032000D01*
G75*
G02*
X114108000Y-90179500I0J-147500D01*
G01*
X114108000Y-90474500D01*
G75*
G02*
X113960500Y-90622000I-147500J0D01*
G01*
X113615500Y-90622000D01*
G75*
G02*
X113468000Y-90474500I0J147500D01*
G01*
X113468000Y-90179500D01*
G75*
G02*
X113615500Y-90032000I147500J0D01*
G01*
G37*
G04 #@! TD.AperFunction*
G04 #@! TA.AperFunction,SMDPad,CuDef*
G36*
G01*
X121378000Y-92184500D02*
X121378000Y-91839500D01*
G75*
G02*
X121525500Y-91692000I147500J0D01*
G01*
X121820500Y-91692000D01*
G75*
G02*
X121968000Y-91839500I0J-147500D01*
G01*
X121968000Y-92184500D01*
G75*
G02*
X121820500Y-92332000I-147500J0D01*
G01*
X121525500Y-92332000D01*
G75*
G02*
X121378000Y-92184500I0J147500D01*
G01*
G37*
G04 #@! TD.AperFunction*
G04 #@! TA.AperFunction,SMDPad,CuDef*
G36*
G01*
X120408000Y-92184500D02*
X120408000Y-91839500D01*
G75*
G02*
X120555500Y-91692000I147500J0D01*
G01*
X120850500Y-91692000D01*
G75*
G02*
X120998000Y-91839500I0J-147500D01*
G01*
X120998000Y-92184500D01*
G75*
G02*
X120850500Y-92332000I-147500J0D01*
G01*
X120555500Y-92332000D01*
G75*
G02*
X120408000Y-92184500I0J147500D01*
G01*
G37*
G04 #@! TD.AperFunction*
G04 #@! TA.AperFunction,SMDPad,CuDef*
G36*
G01*
X122515500Y-94702000D02*
X122860500Y-94702000D01*
G75*
G02*
X123008000Y-94849500I0J-147500D01*
G01*
X123008000Y-95144500D01*
G75*
G02*
X122860500Y-95292000I-147500J0D01*
G01*
X122515500Y-95292000D01*
G75*
G02*
X122368000Y-95144500I0J147500D01*
G01*
X122368000Y-94849500D01*
G75*
G02*
X122515500Y-94702000I147500J0D01*
G01*
G37*
G04 #@! TD.AperFunction*
G04 #@! TA.AperFunction,SMDPad,CuDef*
G36*
G01*
X122515500Y-93732000D02*
X122860500Y-93732000D01*
G75*
G02*
X123008000Y-93879500I0J-147500D01*
G01*
X123008000Y-94174500D01*
G75*
G02*
X122860500Y-94322000I-147500J0D01*
G01*
X122515500Y-94322000D01*
G75*
G02*
X122368000Y-94174500I0J147500D01*
G01*
X122368000Y-93879500D01*
G75*
G02*
X122515500Y-93732000I147500J0D01*
G01*
G37*
G04 #@! TD.AperFunction*
D13*
X115588000Y-92012000D03*
X121688000Y-95012000D03*
D14*
X125338000Y-90812000D03*
X125338000Y-95862000D03*
X108638000Y-95812000D03*
X108688000Y-90912000D03*
X115238000Y-100312000D03*
X120888000Y-100262000D03*
X117688000Y-88862000D03*
X121238000Y-90462000D03*
D13*
X121688000Y-94012000D03*
X111388000Y-92312000D03*
X121688000Y-93012000D03*
X116688000Y-99362000D03*
X122588000Y-92612000D03*
X122188000Y-97912000D03*
X122388000Y-89312000D03*
X117688000Y-96962000D03*
X117688000Y-93947000D03*
X112888000Y-90312000D03*
X112688000Y-96112000D03*
D15*
X115688000Y-98087000D02*
X114388000Y-99387000D01*
X115688000Y-95512000D02*
X115688000Y-98087000D01*
X121703000Y-94027000D02*
X121688000Y-94012000D01*
X122688000Y-94027000D02*
X121703000Y-94027000D01*
X123700652Y-90931758D02*
X123700652Y-90224652D01*
X122688000Y-93732000D02*
X123700652Y-92719348D01*
X123700652Y-92719348D02*
X123700652Y-90931758D01*
X122688000Y-94027000D02*
X122688000Y-93732000D01*
X111908000Y-93527000D02*
X112288000Y-93147000D01*
X111588000Y-93527000D02*
X111908000Y-93527000D01*
X112288000Y-93147000D02*
X112288000Y-92297000D01*
X111403000Y-92297000D02*
X111388000Y-92312000D01*
X112288000Y-92297000D02*
X111403000Y-92297000D01*
X121673000Y-92997000D02*
X121688000Y-93012000D01*
X121673000Y-92012000D02*
X121673000Y-92997000D01*
X122288000Y-92612000D02*
X122588000Y-92612000D01*
X121688000Y-92012000D02*
X122288000Y-92612000D01*
X121673000Y-92012000D02*
X121688000Y-92012000D01*
X122673000Y-97427000D02*
X122673000Y-97012000D01*
X122188000Y-97912000D02*
X122673000Y-97427000D01*
X116688000Y-95512000D02*
X116688000Y-99362000D01*
X117688000Y-95512000D02*
X117688000Y-96962000D01*
X117973000Y-93947000D02*
X117688000Y-93947000D01*
X118688000Y-94662000D02*
X117973000Y-93947000D01*
X118688000Y-95512000D02*
X118688000Y-94662000D01*
X111703000Y-91327000D02*
X110588000Y-90212000D01*
X112288000Y-91327000D02*
X111703000Y-91327000D01*
X111762696Y-89186696D02*
X112888000Y-90312000D01*
X111613304Y-89186696D02*
X111762696Y-89186696D01*
X113773000Y-90312000D02*
X113788000Y-90327000D01*
X112888000Y-90312000D02*
X113773000Y-90312000D01*
X111118330Y-95869018D02*
X111130982Y-95869018D01*
X110588000Y-96399348D02*
X111118330Y-95869018D01*
X111588000Y-95412000D02*
X111588000Y-94497000D01*
X111130982Y-95869018D02*
X111588000Y-95412000D01*
X112688000Y-95197000D02*
X112688000Y-96112000D01*
X112688000Y-96349956D02*
X111613304Y-97424652D01*
X112688000Y-96112000D02*
X112688000Y-96349956D01*
X121703000Y-96012000D02*
X121703000Y-97012000D01*
D16*
G36*
X118315809Y-85555093D02*
G01*
X119358110Y-85779923D01*
X120360246Y-86144126D01*
X121303690Y-86640969D01*
X122170970Y-87261250D01*
X122649515Y-87713353D01*
X122607945Y-87725963D01*
X122497631Y-87784928D01*
X122400940Y-87864280D01*
X121815414Y-88449806D01*
X121728226Y-88508063D01*
X121584063Y-88652226D01*
X121525806Y-88739414D01*
X121340280Y-88924940D01*
X121260928Y-89021631D01*
X121201963Y-89131945D01*
X121165653Y-89251643D01*
X121153393Y-89376125D01*
X121165653Y-89500607D01*
X121201963Y-89620305D01*
X121260928Y-89730619D01*
X121340280Y-89827310D01*
X122153452Y-90640482D01*
X122249588Y-90719463D01*
X122273630Y-90732346D01*
X122286232Y-90755923D01*
X122365584Y-90852614D01*
X122865653Y-91352683D01*
X122865653Y-91611951D01*
X122689939Y-91577000D01*
X122557839Y-91577000D01*
X122546274Y-91538875D01*
X122473679Y-91403060D01*
X122375983Y-91284017D01*
X122256940Y-91186321D01*
X122121125Y-91113726D01*
X121973757Y-91069023D01*
X121820500Y-91053928D01*
X121525500Y-91053928D01*
X121372243Y-91069023D01*
X121224875Y-91113726D01*
X121089060Y-91186321D01*
X120970017Y-91284017D01*
X120872321Y-91403060D01*
X120799726Y-91538875D01*
X120755023Y-91686243D01*
X120739928Y-91839500D01*
X120739928Y-92184500D01*
X120755023Y-92337757D01*
X120798332Y-92480531D01*
X120770795Y-92521744D01*
X120692774Y-92710102D01*
X120653000Y-92910061D01*
X120653000Y-93113939D01*
X120692774Y-93313898D01*
X120770795Y-93502256D01*
X120777306Y-93512000D01*
X120770795Y-93521744D01*
X120692774Y-93710102D01*
X120653000Y-93910061D01*
X120653000Y-94113939D01*
X120692774Y-94313898D01*
X120770795Y-94502256D01*
X120884063Y-94671774D01*
X121028226Y-94815937D01*
X121197744Y-94929205D01*
X121386102Y-95007226D01*
X121586061Y-95047000D01*
X121789939Y-95047000D01*
X121989898Y-95007226D01*
X122178256Y-94929205D01*
X122219469Y-94901668D01*
X122362243Y-94944977D01*
X122515500Y-94960072D01*
X122860500Y-94960072D01*
X123013757Y-94944977D01*
X123161125Y-94900274D01*
X123296940Y-94827679D01*
X123415983Y-94729983D01*
X123513679Y-94610940D01*
X123586274Y-94475125D01*
X123630977Y-94327757D01*
X123646072Y-94174500D01*
X123646072Y-93954795D01*
X123980373Y-93620495D01*
X124019675Y-93818081D01*
X124150463Y-94133831D01*
X124340337Y-94417998D01*
X124582002Y-94659663D01*
X124866169Y-94849537D01*
X125181919Y-94980325D01*
X125517117Y-95047000D01*
X125858883Y-95047000D01*
X126194081Y-94980325D01*
X126509831Y-94849537D01*
X126793998Y-94659663D01*
X127028001Y-94425660D01*
X127028001Y-96279711D01*
X127018420Y-96377424D01*
X126999420Y-96440357D01*
X126968554Y-96498406D01*
X126927011Y-96549343D01*
X126876356Y-96591248D01*
X126818529Y-96622515D01*
X126755728Y-96641956D01*
X126660164Y-96652000D01*
X124655580Y-96652002D01*
X124558616Y-96661552D01*
X124434206Y-96699292D01*
X124319549Y-96760577D01*
X124219051Y-96843054D01*
X124136574Y-96943552D01*
X124116392Y-96981311D01*
X123539693Y-97905209D01*
X123020680Y-98528757D01*
X123105205Y-98402256D01*
X123183226Y-98213898D01*
X123212092Y-98068775D01*
X123234427Y-98046441D01*
X123266291Y-98020291D01*
X123370636Y-97893146D01*
X123448172Y-97748087D01*
X123495918Y-97590689D01*
X123497289Y-97576769D01*
X123546274Y-97485125D01*
X123590977Y-97337757D01*
X123606072Y-97184500D01*
X123606072Y-96839500D01*
X123590977Y-96686243D01*
X123546274Y-96538875D01*
X123473679Y-96403060D01*
X123375983Y-96284017D01*
X123256940Y-96186321D01*
X123121125Y-96113726D01*
X122973757Y-96069023D01*
X122820500Y-96053928D01*
X122636072Y-96053928D01*
X122636072Y-95839500D01*
X122620977Y-95686243D01*
X122576274Y-95538875D01*
X122503679Y-95403060D01*
X122405983Y-95284017D01*
X122286940Y-95186321D01*
X122151125Y-95113726D01*
X122003757Y-95069023D01*
X121850500Y-95053928D01*
X121555500Y-95053928D01*
X121402243Y-95069023D01*
X121254875Y-95113726D01*
X121119060Y-95186321D01*
X121000017Y-95284017D01*
X120902321Y-95403060D01*
X120829726Y-95538875D01*
X120785023Y-95686243D01*
X120769928Y-95839500D01*
X120769928Y-96184500D01*
X120785023Y-96337757D01*
X120829726Y-96485125D01*
X120844091Y-96512000D01*
X120829726Y-96538875D01*
X120785023Y-96686243D01*
X120769928Y-96839500D01*
X120769928Y-97184500D01*
X120785023Y-97337757D01*
X120829726Y-97485125D01*
X120902321Y-97620940D01*
X121000017Y-97739983D01*
X121119060Y-97837679D01*
X121153000Y-97855820D01*
X121153000Y-98013939D01*
X121192774Y-98213898D01*
X121270795Y-98402256D01*
X121384063Y-98571774D01*
X121528226Y-98715937D01*
X121697744Y-98829205D01*
X121886102Y-98907226D01*
X122086061Y-98947000D01*
X122289939Y-98947000D01*
X122489898Y-98907226D01*
X122678256Y-98829205D01*
X122847774Y-98715937D01*
X122949810Y-98613901D01*
X122857552Y-98724741D01*
X122070508Y-99444104D01*
X121193110Y-100050002D01*
X120241600Y-100531217D01*
X119233591Y-100878844D01*
X118187719Y-101086454D01*
X117123362Y-101150202D01*
X116060190Y-101068908D01*
X115017898Y-100844080D01*
X114015752Y-100479874D01*
X113072308Y-99983031D01*
X112205024Y-99362747D01*
X112096333Y-99260061D01*
X115653000Y-99260061D01*
X115653000Y-99463939D01*
X115692774Y-99663898D01*
X115770795Y-99852256D01*
X115884063Y-100021774D01*
X116028226Y-100165937D01*
X116197744Y-100279205D01*
X116386102Y-100357226D01*
X116586061Y-100397000D01*
X116789939Y-100397000D01*
X116989898Y-100357226D01*
X117178256Y-100279205D01*
X117347774Y-100165937D01*
X117491937Y-100021774D01*
X117605205Y-99852256D01*
X117683226Y-99663898D01*
X117723000Y-99463939D01*
X117723000Y-99260061D01*
X117683226Y-99060102D01*
X117605205Y-98871744D01*
X117523000Y-98748715D01*
X117523000Y-97984456D01*
X117586061Y-97997000D01*
X117789939Y-97997000D01*
X117989898Y-97957226D01*
X118178256Y-97879205D01*
X118347774Y-97765937D01*
X118491937Y-97621774D01*
X118605205Y-97452256D01*
X118683226Y-97263898D01*
X118723000Y-97063939D01*
X118723000Y-96925072D01*
X118838000Y-96925072D01*
X118991745Y-96909929D01*
X119139582Y-96865084D01*
X119275829Y-96792258D01*
X119395251Y-96694251D01*
X119493258Y-96574829D01*
X119566084Y-96438582D01*
X119610929Y-96290745D01*
X119626072Y-96137000D01*
X119626072Y-94887000D01*
X119610929Y-94733255D01*
X119566084Y-94585418D01*
X119499625Y-94461083D01*
X119463172Y-94340913D01*
X119385636Y-94195854D01*
X119355322Y-94158916D01*
X119307439Y-94100570D01*
X119307437Y-94100568D01*
X119281291Y-94068709D01*
X119249431Y-94042563D01*
X118592445Y-93385578D01*
X118566291Y-93353709D01*
X118500018Y-93299320D01*
X118491937Y-93287226D01*
X118347774Y-93143063D01*
X118178256Y-93029795D01*
X117989898Y-92951774D01*
X117789939Y-92912000D01*
X117586061Y-92912000D01*
X117386102Y-92951774D01*
X117197744Y-93029795D01*
X117028226Y-93143063D01*
X116884063Y-93287226D01*
X116770795Y-93456744D01*
X116692774Y-93645102D01*
X116653000Y-93845061D01*
X116653000Y-94048939D01*
X116662943Y-94098928D01*
X116538000Y-94098928D01*
X116384255Y-94114071D01*
X116236418Y-94158916D01*
X116100171Y-94231742D01*
X115980749Y-94329749D01*
X115882742Y-94449171D01*
X115809916Y-94585418D01*
X115765071Y-94733255D01*
X115749928Y-94887000D01*
X115749928Y-96137000D01*
X115765071Y-96290745D01*
X115809916Y-96438582D01*
X115853000Y-96519186D01*
X115853001Y-98748714D01*
X115770795Y-98871744D01*
X115692774Y-99060102D01*
X115653000Y-99260061D01*
X112096333Y-99260061D01*
X111701418Y-98886967D01*
X111791021Y-98839072D01*
X111887712Y-98759720D01*
X112948372Y-97699060D01*
X113027724Y-97602369D01*
X113086689Y-97492055D01*
X113122999Y-97372357D01*
X113135259Y-97247875D01*
X113122999Y-97123393D01*
X113116583Y-97102242D01*
X113212503Y-97006322D01*
X113347774Y-96915937D01*
X113491937Y-96771774D01*
X113605205Y-96602256D01*
X113683226Y-96413898D01*
X113723000Y-96213939D01*
X113723000Y-96010061D01*
X113683226Y-95810102D01*
X113605205Y-95621744D01*
X113597063Y-95609558D01*
X113630977Y-95497757D01*
X113646072Y-95344500D01*
X113646072Y-95049500D01*
X113630977Y-94896243D01*
X113586274Y-94748875D01*
X113513679Y-94613060D01*
X113415983Y-94494017D01*
X113296940Y-94396321D01*
X113161125Y-94323726D01*
X113013757Y-94279023D01*
X112860500Y-94263928D01*
X112537644Y-94263928D01*
X112530977Y-94196243D01*
X112506144Y-94114378D01*
X112527446Y-94088421D01*
X112849422Y-93766445D01*
X112881291Y-93740291D01*
X112985636Y-93613146D01*
X113063172Y-93468087D01*
X113110918Y-93310689D01*
X113121026Y-93208063D01*
X113127040Y-93147001D01*
X113123000Y-93105982D01*
X113123000Y-92863502D01*
X113186274Y-92745125D01*
X113230977Y-92597757D01*
X113246072Y-92444500D01*
X113246072Y-92149500D01*
X113230977Y-91996243D01*
X113186274Y-91848875D01*
X113166564Y-91812000D01*
X113186274Y-91775125D01*
X113230977Y-91627757D01*
X113246072Y-91474500D01*
X113246072Y-91283958D01*
X113378256Y-91229205D01*
X113388245Y-91222530D01*
X113462243Y-91244977D01*
X113615500Y-91260072D01*
X113960500Y-91260072D01*
X114113757Y-91244977D01*
X114261125Y-91200274D01*
X114396940Y-91127679D01*
X114515983Y-91029983D01*
X114613679Y-90910940D01*
X114686274Y-90775125D01*
X114730977Y-90627757D01*
X114746072Y-90474500D01*
X114746072Y-90179500D01*
X114730977Y-90026243D01*
X114686274Y-89878875D01*
X114613679Y-89743060D01*
X114515983Y-89624017D01*
X114396940Y-89526321D01*
X114261125Y-89453726D01*
X114113757Y-89409023D01*
X113960500Y-89393928D01*
X113615500Y-89393928D01*
X113462243Y-89409023D01*
X113419125Y-89422103D01*
X113378256Y-89394795D01*
X113189898Y-89316774D01*
X113129476Y-89304755D01*
X113122999Y-89238991D01*
X113086689Y-89119293D01*
X113027724Y-89008979D01*
X112948372Y-88912288D01*
X111887712Y-87851628D01*
X111791021Y-87772276D01*
X111706696Y-87727202D01*
X112305496Y-87179895D01*
X113182889Y-86574000D01*
X113259928Y-86535038D01*
X113259928Y-87562000D01*
X113272188Y-87686482D01*
X113308498Y-87806180D01*
X113367463Y-87916494D01*
X113446815Y-88013185D01*
X113543506Y-88092537D01*
X113653820Y-88151502D01*
X113773518Y-88187812D01*
X113898000Y-88200072D01*
X115598000Y-88200072D01*
X115722482Y-88187812D01*
X115842180Y-88151502D01*
X115952494Y-88092537D01*
X116049185Y-88013185D01*
X116128537Y-87916494D01*
X116187502Y-87806180D01*
X116209513Y-87733620D01*
X116341368Y-87865475D01*
X116584589Y-88027990D01*
X116854842Y-88139932D01*
X117141740Y-88197000D01*
X117434260Y-88197000D01*
X117721158Y-88139932D01*
X117991411Y-88027990D01*
X118234632Y-87865475D01*
X118441475Y-87658632D01*
X118603990Y-87415411D01*
X118715932Y-87145158D01*
X118773000Y-86858260D01*
X118773000Y-86565740D01*
X118715932Y-86278842D01*
X118603990Y-86008589D01*
X118441475Y-85765368D01*
X118234632Y-85558525D01*
X118218342Y-85547640D01*
X118315809Y-85555093D01*
G37*
X118315809Y-85555093D02*
X119358110Y-85779923D01*
X120360246Y-86144126D01*
X121303690Y-86640969D01*
X122170970Y-87261250D01*
X122649515Y-87713353D01*
X122607945Y-87725963D01*
X122497631Y-87784928D01*
X122400940Y-87864280D01*
X121815414Y-88449806D01*
X121728226Y-88508063D01*
X121584063Y-88652226D01*
X121525806Y-88739414D01*
X121340280Y-88924940D01*
X121260928Y-89021631D01*
X121201963Y-89131945D01*
X121165653Y-89251643D01*
X121153393Y-89376125D01*
X121165653Y-89500607D01*
X121201963Y-89620305D01*
X121260928Y-89730619D01*
X121340280Y-89827310D01*
X122153452Y-90640482D01*
X122249588Y-90719463D01*
X122273630Y-90732346D01*
X122286232Y-90755923D01*
X122365584Y-90852614D01*
X122865653Y-91352683D01*
X122865653Y-91611951D01*
X122689939Y-91577000D01*
X122557839Y-91577000D01*
X122546274Y-91538875D01*
X122473679Y-91403060D01*
X122375983Y-91284017D01*
X122256940Y-91186321D01*
X122121125Y-91113726D01*
X121973757Y-91069023D01*
X121820500Y-91053928D01*
X121525500Y-91053928D01*
X121372243Y-91069023D01*
X121224875Y-91113726D01*
X121089060Y-91186321D01*
X120970017Y-91284017D01*
X120872321Y-91403060D01*
X120799726Y-91538875D01*
X120755023Y-91686243D01*
X120739928Y-91839500D01*
X120739928Y-92184500D01*
X120755023Y-92337757D01*
X120798332Y-92480531D01*
X120770795Y-92521744D01*
X120692774Y-92710102D01*
X120653000Y-92910061D01*
X120653000Y-93113939D01*
X120692774Y-93313898D01*
X120770795Y-93502256D01*
X120777306Y-93512000D01*
X120770795Y-93521744D01*
X120692774Y-93710102D01*
X120653000Y-93910061D01*
X120653000Y-94113939D01*
X120692774Y-94313898D01*
X120770795Y-94502256D01*
X120884063Y-94671774D01*
X121028226Y-94815937D01*
X121197744Y-94929205D01*
X121386102Y-95007226D01*
X121586061Y-95047000D01*
X121789939Y-95047000D01*
X121989898Y-95007226D01*
X122178256Y-94929205D01*
X122219469Y-94901668D01*
X122362243Y-94944977D01*
X122515500Y-94960072D01*
X122860500Y-94960072D01*
X123013757Y-94944977D01*
X123161125Y-94900274D01*
X123296940Y-94827679D01*
X123415983Y-94729983D01*
X123513679Y-94610940D01*
X123586274Y-94475125D01*
X123630977Y-94327757D01*
X123646072Y-94174500D01*
X123646072Y-93954795D01*
X123980373Y-93620495D01*
X124019675Y-93818081D01*
X124150463Y-94133831D01*
X124340337Y-94417998D01*
X124582002Y-94659663D01*
X124866169Y-94849537D01*
X125181919Y-94980325D01*
X125517117Y-95047000D01*
X125858883Y-95047000D01*
X126194081Y-94980325D01*
X126509831Y-94849537D01*
X126793998Y-94659663D01*
X127028001Y-94425660D01*
X127028001Y-96279711D01*
X127018420Y-96377424D01*
X126999420Y-96440357D01*
X126968554Y-96498406D01*
X126927011Y-96549343D01*
X126876356Y-96591248D01*
X126818529Y-96622515D01*
X126755728Y-96641956D01*
X126660164Y-96652000D01*
X124655580Y-96652002D01*
X124558616Y-96661552D01*
X124434206Y-96699292D01*
X124319549Y-96760577D01*
X124219051Y-96843054D01*
X124136574Y-96943552D01*
X124116392Y-96981311D01*
X123539693Y-97905209D01*
X123020680Y-98528757D01*
X123105205Y-98402256D01*
X123183226Y-98213898D01*
X123212092Y-98068775D01*
X123234427Y-98046441D01*
X123266291Y-98020291D01*
X123370636Y-97893146D01*
X123448172Y-97748087D01*
X123495918Y-97590689D01*
X123497289Y-97576769D01*
X123546274Y-97485125D01*
X123590977Y-97337757D01*
X123606072Y-97184500D01*
X123606072Y-96839500D01*
X123590977Y-96686243D01*
X123546274Y-96538875D01*
X123473679Y-96403060D01*
X123375983Y-96284017D01*
X123256940Y-96186321D01*
X123121125Y-96113726D01*
X122973757Y-96069023D01*
X122820500Y-96053928D01*
X122636072Y-96053928D01*
X122636072Y-95839500D01*
X122620977Y-95686243D01*
X122576274Y-95538875D01*
X122503679Y-95403060D01*
X122405983Y-95284017D01*
X122286940Y-95186321D01*
X122151125Y-95113726D01*
X122003757Y-95069023D01*
X121850500Y-95053928D01*
X121555500Y-95053928D01*
X121402243Y-95069023D01*
X121254875Y-95113726D01*
X121119060Y-95186321D01*
X121000017Y-95284017D01*
X120902321Y-95403060D01*
X120829726Y-95538875D01*
X120785023Y-95686243D01*
X120769928Y-95839500D01*
X120769928Y-96184500D01*
X120785023Y-96337757D01*
X120829726Y-96485125D01*
X120844091Y-96512000D01*
X120829726Y-96538875D01*
X120785023Y-96686243D01*
X120769928Y-96839500D01*
X120769928Y-97184500D01*
X120785023Y-97337757D01*
X120829726Y-97485125D01*
X120902321Y-97620940D01*
X121000017Y-97739983D01*
X121119060Y-97837679D01*
X121153000Y-97855820D01*
X121153000Y-98013939D01*
X121192774Y-98213898D01*
X121270795Y-98402256D01*
X121384063Y-98571774D01*
X121528226Y-98715937D01*
X121697744Y-98829205D01*
X121886102Y-98907226D01*
X122086061Y-98947000D01*
X122289939Y-98947000D01*
X122489898Y-98907226D01*
X122678256Y-98829205D01*
X122847774Y-98715937D01*
X122949810Y-98613901D01*
X122857552Y-98724741D01*
X122070508Y-99444104D01*
X121193110Y-100050002D01*
X120241600Y-100531217D01*
X119233591Y-100878844D01*
X118187719Y-101086454D01*
X117123362Y-101150202D01*
X116060190Y-101068908D01*
X115017898Y-100844080D01*
X114015752Y-100479874D01*
X113072308Y-99983031D01*
X112205024Y-99362747D01*
X112096333Y-99260061D01*
X115653000Y-99260061D01*
X115653000Y-99463939D01*
X115692774Y-99663898D01*
X115770795Y-99852256D01*
X115884063Y-100021774D01*
X116028226Y-100165937D01*
X116197744Y-100279205D01*
X116386102Y-100357226D01*
X116586061Y-100397000D01*
X116789939Y-100397000D01*
X116989898Y-100357226D01*
X117178256Y-100279205D01*
X117347774Y-100165937D01*
X117491937Y-100021774D01*
X117605205Y-99852256D01*
X117683226Y-99663898D01*
X117723000Y-99463939D01*
X117723000Y-99260061D01*
X117683226Y-99060102D01*
X117605205Y-98871744D01*
X117523000Y-98748715D01*
X117523000Y-97984456D01*
X117586061Y-97997000D01*
X117789939Y-97997000D01*
X117989898Y-97957226D01*
X118178256Y-97879205D01*
X118347774Y-97765937D01*
X118491937Y-97621774D01*
X118605205Y-97452256D01*
X118683226Y-97263898D01*
X118723000Y-97063939D01*
X118723000Y-96925072D01*
X118838000Y-96925072D01*
X118991745Y-96909929D01*
X119139582Y-96865084D01*
X119275829Y-96792258D01*
X119395251Y-96694251D01*
X119493258Y-96574829D01*
X119566084Y-96438582D01*
X119610929Y-96290745D01*
X119626072Y-96137000D01*
X119626072Y-94887000D01*
X119610929Y-94733255D01*
X119566084Y-94585418D01*
X119499625Y-94461083D01*
X119463172Y-94340913D01*
X119385636Y-94195854D01*
X119355322Y-94158916D01*
X119307439Y-94100570D01*
X119307437Y-94100568D01*
X119281291Y-94068709D01*
X119249431Y-94042563D01*
X118592445Y-93385578D01*
X118566291Y-93353709D01*
X118500018Y-93299320D01*
X118491937Y-93287226D01*
X118347774Y-93143063D01*
X118178256Y-93029795D01*
X117989898Y-92951774D01*
X117789939Y-92912000D01*
X117586061Y-92912000D01*
X117386102Y-92951774D01*
X117197744Y-93029795D01*
X117028226Y-93143063D01*
X116884063Y-93287226D01*
X116770795Y-93456744D01*
X116692774Y-93645102D01*
X116653000Y-93845061D01*
X116653000Y-94048939D01*
X116662943Y-94098928D01*
X116538000Y-94098928D01*
X116384255Y-94114071D01*
X116236418Y-94158916D01*
X116100171Y-94231742D01*
X115980749Y-94329749D01*
X115882742Y-94449171D01*
X115809916Y-94585418D01*
X115765071Y-94733255D01*
X115749928Y-94887000D01*
X115749928Y-96137000D01*
X115765071Y-96290745D01*
X115809916Y-96438582D01*
X115853000Y-96519186D01*
X115853001Y-98748714D01*
X115770795Y-98871744D01*
X115692774Y-99060102D01*
X115653000Y-99260061D01*
X112096333Y-99260061D01*
X111701418Y-98886967D01*
X111791021Y-98839072D01*
X111887712Y-98759720D01*
X112948372Y-97699060D01*
X113027724Y-97602369D01*
X113086689Y-97492055D01*
X113122999Y-97372357D01*
X113135259Y-97247875D01*
X113122999Y-97123393D01*
X113116583Y-97102242D01*
X113212503Y-97006322D01*
X113347774Y-96915937D01*
X113491937Y-96771774D01*
X113605205Y-96602256D01*
X113683226Y-96413898D01*
X113723000Y-96213939D01*
X113723000Y-96010061D01*
X113683226Y-95810102D01*
X113605205Y-95621744D01*
X113597063Y-95609558D01*
X113630977Y-95497757D01*
X113646072Y-95344500D01*
X113646072Y-95049500D01*
X113630977Y-94896243D01*
X113586274Y-94748875D01*
X113513679Y-94613060D01*
X113415983Y-94494017D01*
X113296940Y-94396321D01*
X113161125Y-94323726D01*
X113013757Y-94279023D01*
X112860500Y-94263928D01*
X112537644Y-94263928D01*
X112530977Y-94196243D01*
X112506144Y-94114378D01*
X112527446Y-94088421D01*
X112849422Y-93766445D01*
X112881291Y-93740291D01*
X112985636Y-93613146D01*
X113063172Y-93468087D01*
X113110918Y-93310689D01*
X113121026Y-93208063D01*
X113127040Y-93147001D01*
X113123000Y-93105982D01*
X113123000Y-92863502D01*
X113186274Y-92745125D01*
X113230977Y-92597757D01*
X113246072Y-92444500D01*
X113246072Y-92149500D01*
X113230977Y-91996243D01*
X113186274Y-91848875D01*
X113166564Y-91812000D01*
X113186274Y-91775125D01*
X113230977Y-91627757D01*
X113246072Y-91474500D01*
X113246072Y-91283958D01*
X113378256Y-91229205D01*
X113388245Y-91222530D01*
X113462243Y-91244977D01*
X113615500Y-91260072D01*
X113960500Y-91260072D01*
X114113757Y-91244977D01*
X114261125Y-91200274D01*
X114396940Y-91127679D01*
X114515983Y-91029983D01*
X114613679Y-90910940D01*
X114686274Y-90775125D01*
X114730977Y-90627757D01*
X114746072Y-90474500D01*
X114746072Y-90179500D01*
X114730977Y-90026243D01*
X114686274Y-89878875D01*
X114613679Y-89743060D01*
X114515983Y-89624017D01*
X114396940Y-89526321D01*
X114261125Y-89453726D01*
X114113757Y-89409023D01*
X113960500Y-89393928D01*
X113615500Y-89393928D01*
X113462243Y-89409023D01*
X113419125Y-89422103D01*
X113378256Y-89394795D01*
X113189898Y-89316774D01*
X113129476Y-89304755D01*
X113122999Y-89238991D01*
X113086689Y-89119293D01*
X113027724Y-89008979D01*
X112948372Y-88912288D01*
X111887712Y-87851628D01*
X111791021Y-87772276D01*
X111706696Y-87727202D01*
X112305496Y-87179895D01*
X113182889Y-86574000D01*
X113259928Y-86535038D01*
X113259928Y-87562000D01*
X113272188Y-87686482D01*
X113308498Y-87806180D01*
X113367463Y-87916494D01*
X113446815Y-88013185D01*
X113543506Y-88092537D01*
X113653820Y-88151502D01*
X113773518Y-88187812D01*
X113898000Y-88200072D01*
X115598000Y-88200072D01*
X115722482Y-88187812D01*
X115842180Y-88151502D01*
X115952494Y-88092537D01*
X116049185Y-88013185D01*
X116128537Y-87916494D01*
X116187502Y-87806180D01*
X116209513Y-87733620D01*
X116341368Y-87865475D01*
X116584589Y-88027990D01*
X116854842Y-88139932D01*
X117141740Y-88197000D01*
X117434260Y-88197000D01*
X117721158Y-88139932D01*
X117991411Y-88027990D01*
X118234632Y-87865475D01*
X118441475Y-87658632D01*
X118603990Y-87415411D01*
X118715932Y-87145158D01*
X118773000Y-86858260D01*
X118773000Y-86565740D01*
X118715932Y-86278842D01*
X118603990Y-86008589D01*
X118441475Y-85765368D01*
X118234632Y-85558525D01*
X118218342Y-85547640D01*
X118315809Y-85555093D01*
G36*
X109072272Y-89972000D02*
G01*
X109066045Y-90035223D01*
X109078305Y-90159705D01*
X109114615Y-90279403D01*
X109173580Y-90389717D01*
X109252932Y-90486408D01*
X110313592Y-91547068D01*
X110410283Y-91626420D01*
X110520597Y-91685385D01*
X110554945Y-91695804D01*
X110470795Y-91821744D01*
X110392774Y-92010102D01*
X110353000Y-92210061D01*
X110353000Y-92413939D01*
X110392774Y-92613898D01*
X110470795Y-92802256D01*
X110584063Y-92971774D01*
X110690227Y-93077938D01*
X110689726Y-93078875D01*
X110645023Y-93226243D01*
X110629928Y-93379500D01*
X110629928Y-93674500D01*
X110645023Y-93827757D01*
X110689726Y-93975125D01*
X110709436Y-94012000D01*
X110689726Y-94048875D01*
X110645023Y-94196243D01*
X110629928Y-94349500D01*
X110629928Y-94644500D01*
X110645023Y-94797757D01*
X110671953Y-94886535D01*
X110640295Y-94889653D01*
X110520597Y-94925963D01*
X110410283Y-94984928D01*
X110313592Y-95064280D01*
X109252932Y-96124940D01*
X109173580Y-96221631D01*
X109114615Y-96331945D01*
X109078305Y-96451643D01*
X109066045Y-96576125D01*
X109073518Y-96652000D01*
X107720279Y-96652000D01*
X107622576Y-96642420D01*
X107559643Y-96623420D01*
X107501594Y-96592554D01*
X107450657Y-96551011D01*
X107408752Y-96500356D01*
X107377485Y-96442529D01*
X107358044Y-96379728D01*
X107348000Y-96284165D01*
X107348000Y-94425661D01*
X107582002Y-94659663D01*
X107866169Y-94849537D01*
X108181919Y-94980325D01*
X108517117Y-95047000D01*
X108858883Y-95047000D01*
X109194081Y-94980325D01*
X109509831Y-94849537D01*
X109793998Y-94659663D01*
X110035663Y-94417998D01*
X110225537Y-94133831D01*
X110356325Y-93818081D01*
X110423000Y-93482883D01*
X110423000Y-93141117D01*
X110356325Y-92805919D01*
X110225537Y-92490169D01*
X110035663Y-92206002D01*
X109793998Y-91964337D01*
X109509831Y-91774463D01*
X109194081Y-91643675D01*
X108858883Y-91577000D01*
X108517117Y-91577000D01*
X108181919Y-91643675D01*
X107866169Y-91774463D01*
X107582002Y-91964337D01*
X107348000Y-92198339D01*
X107348000Y-90344279D01*
X107357580Y-90246576D01*
X107376580Y-90183644D01*
X107407445Y-90125595D01*
X107448989Y-90074657D01*
X107499644Y-90032752D01*
X107557471Y-90001485D01*
X107620272Y-89982044D01*
X107715844Y-89971999D01*
X109072272Y-89972000D01*
G37*
X109072272Y-89972000D02*
X109066045Y-90035223D01*
X109078305Y-90159705D01*
X109114615Y-90279403D01*
X109173580Y-90389717D01*
X109252932Y-90486408D01*
X110313592Y-91547068D01*
X110410283Y-91626420D01*
X110520597Y-91685385D01*
X110554945Y-91695804D01*
X110470795Y-91821744D01*
X110392774Y-92010102D01*
X110353000Y-92210061D01*
X110353000Y-92413939D01*
X110392774Y-92613898D01*
X110470795Y-92802256D01*
X110584063Y-92971774D01*
X110690227Y-93077938D01*
X110689726Y-93078875D01*
X110645023Y-93226243D01*
X110629928Y-93379500D01*
X110629928Y-93674500D01*
X110645023Y-93827757D01*
X110689726Y-93975125D01*
X110709436Y-94012000D01*
X110689726Y-94048875D01*
X110645023Y-94196243D01*
X110629928Y-94349500D01*
X110629928Y-94644500D01*
X110645023Y-94797757D01*
X110671953Y-94886535D01*
X110640295Y-94889653D01*
X110520597Y-94925963D01*
X110410283Y-94984928D01*
X110313592Y-95064280D01*
X109252932Y-96124940D01*
X109173580Y-96221631D01*
X109114615Y-96331945D01*
X109078305Y-96451643D01*
X109066045Y-96576125D01*
X109073518Y-96652000D01*
X107720279Y-96652000D01*
X107622576Y-96642420D01*
X107559643Y-96623420D01*
X107501594Y-96592554D01*
X107450657Y-96551011D01*
X107408752Y-96500356D01*
X107377485Y-96442529D01*
X107358044Y-96379728D01*
X107348000Y-96284165D01*
X107348000Y-94425661D01*
X107582002Y-94659663D01*
X107866169Y-94849537D01*
X108181919Y-94980325D01*
X108517117Y-95047000D01*
X108858883Y-95047000D01*
X109194081Y-94980325D01*
X109509831Y-94849537D01*
X109793998Y-94659663D01*
X110035663Y-94417998D01*
X110225537Y-94133831D01*
X110356325Y-93818081D01*
X110423000Y-93482883D01*
X110423000Y-93141117D01*
X110356325Y-92805919D01*
X110225537Y-92490169D01*
X110035663Y-92206002D01*
X109793998Y-91964337D01*
X109509831Y-91774463D01*
X109194081Y-91643675D01*
X108858883Y-91577000D01*
X108517117Y-91577000D01*
X108181919Y-91643675D01*
X107866169Y-91774463D01*
X107582002Y-91964337D01*
X107348000Y-92198339D01*
X107348000Y-90344279D01*
X107357580Y-90246576D01*
X107376580Y-90183644D01*
X107407445Y-90125595D01*
X107448989Y-90074657D01*
X107499644Y-90032752D01*
X107557471Y-90001485D01*
X107620272Y-89982044D01*
X107715844Y-89971999D01*
X109072272Y-89972000D01*
G36*
X126753424Y-89981580D02*
G01*
X126816356Y-90000580D01*
X126874405Y-90031445D01*
X126925343Y-90072989D01*
X126967248Y-90123644D01*
X126998515Y-90181471D01*
X127017956Y-90244272D01*
X127028000Y-90339835D01*
X127028000Y-92198339D01*
X126793998Y-91964337D01*
X126509831Y-91774463D01*
X126194081Y-91643675D01*
X125858883Y-91577000D01*
X125517117Y-91577000D01*
X125181919Y-91643675D01*
X124866169Y-91774463D01*
X124582002Y-91964337D01*
X124535652Y-92010687D01*
X124535652Y-90999128D01*
X125035720Y-90499060D01*
X125115072Y-90402369D01*
X125174037Y-90292055D01*
X125210347Y-90172357D01*
X125222607Y-90047875D01*
X125215134Y-89972000D01*
X126655721Y-89972000D01*
X126753424Y-89981580D01*
G37*
X126753424Y-89981580D02*
X126816356Y-90000580D01*
X126874405Y-90031445D01*
X126925343Y-90072989D01*
X126967248Y-90123644D01*
X126998515Y-90181471D01*
X127017956Y-90244272D01*
X127028000Y-90339835D01*
X127028000Y-92198339D01*
X126793998Y-91964337D01*
X126509831Y-91774463D01*
X126194081Y-91643675D01*
X125858883Y-91577000D01*
X125517117Y-91577000D01*
X125181919Y-91643675D01*
X124866169Y-91774463D01*
X124582002Y-91964337D01*
X124535652Y-92010687D01*
X124535652Y-90999128D01*
X125035720Y-90499060D01*
X125115072Y-90402369D01*
X125174037Y-90292055D01*
X125210347Y-90172357D01*
X125222607Y-90047875D01*
X125215134Y-89972000D01*
X126655721Y-89972000D01*
X126753424Y-89981580D01*
M02*
