M48
INCH,TZ
T1C0.0118
T2C0.0157
T3C0.0394
%
G90
G05
T1
X42771Y-37721
X42791Y-35792
X45369Y-39493
X46334Y-34985
X47594Y-39473
X47731Y-35615
X49346Y-35753
X49346Y-37741
T2
X43854Y-36343
X44365Y-37839
X44444Y-35556
X45507Y-36225
X45940Y-39119
X46334Y-36987
X46334Y-38174
X47909Y-36619
X47909Y-37013
X47909Y-37406
X48106Y-38548
X48184Y-35162
X48263Y-36461
T3
X45176Y-34139
X46176Y-34139
X47176Y-34139
T0
M30
