G04 #@! TF.GenerationSoftware,KiCad,Pcbnew,(5.1.6-0-10_14)*
G04 #@! TF.CreationDate,2021-04-09T22:44:30+02:00*
G04 #@! TF.ProjectId,Encoder,456e636f-6465-4722-9e6b-696361645f70,1.1*
G04 #@! TF.SameCoordinates,Original*
G04 #@! TF.FileFunction,Legend,Bot*
G04 #@! TF.FilePolarity,Positive*
%FSLAX46Y46*%
G04 Gerber Fmt 4.6, Leading zero omitted, Abs format (unit mm)*
G04 Created by KiCad (PCBNEW (5.1.6-0-10_14)) date 2021-04-09 22:44:30*
%MOMM*%
%LPD*%
G01*
G04 APERTURE LIST*
%ADD10C,0.120000*%
%ADD11C,0.150000*%
G04 APERTURE END LIST*
D10*
X115063000Y-88567000D02*
X115763000Y-88567000D01*
X115063000Y-87942000D02*
X115063000Y-88567000D01*
X114363000Y-87942000D02*
X115063000Y-87942000D01*
X114363000Y-88567000D02*
X114363000Y-87942000D01*
X113688000Y-88567000D02*
X114363000Y-88567000D01*
D11*
X120307047Y-97161666D02*
X119830857Y-97161666D01*
X120402285Y-97447380D02*
X120068952Y-96447380D01*
X119735619Y-97447380D01*
X119449904Y-97399761D02*
X119307047Y-97447380D01*
X119068952Y-97447380D01*
X118973714Y-97399761D01*
X118926095Y-97352142D01*
X118878476Y-97256904D01*
X118878476Y-97161666D01*
X118926095Y-97066428D01*
X118973714Y-97018809D01*
X119068952Y-96971190D01*
X119259428Y-96923571D01*
X119354666Y-96875952D01*
X119402285Y-96828333D01*
X119449904Y-96733095D01*
X119449904Y-96637857D01*
X119402285Y-96542619D01*
X119354666Y-96495000D01*
X119259428Y-96447380D01*
X119021333Y-96447380D01*
X118878476Y-96495000D01*
X117973714Y-96447380D02*
X118449904Y-96447380D01*
X118497523Y-96923571D01*
X118449904Y-96875952D01*
X118354666Y-96828333D01*
X118116571Y-96828333D01*
X118021333Y-96875952D01*
X117973714Y-96923571D01*
X117926095Y-97018809D01*
X117926095Y-97256904D01*
X117973714Y-97352142D01*
X118021333Y-97399761D01*
X118116571Y-97447380D01*
X118354666Y-97447380D01*
X118449904Y-97399761D01*
X118497523Y-97352142D01*
X117307047Y-96447380D02*
X117211809Y-96447380D01*
X117116571Y-96495000D01*
X117068952Y-96542619D01*
X117021333Y-96637857D01*
X116973714Y-96828333D01*
X116973714Y-97066428D01*
X117021333Y-97256904D01*
X117068952Y-97352142D01*
X117116571Y-97399761D01*
X117211809Y-97447380D01*
X117307047Y-97447380D01*
X117402285Y-97399761D01*
X117449904Y-97352142D01*
X117497523Y-97256904D01*
X117545142Y-97066428D01*
X117545142Y-96828333D01*
X117497523Y-96637857D01*
X117449904Y-96542619D01*
X117402285Y-96495000D01*
X117307047Y-96447380D01*
X116116571Y-96780714D02*
X116116571Y-97447380D01*
X116354666Y-96399761D02*
X116592761Y-97114047D01*
X115973714Y-97114047D01*
X115449904Y-96875952D02*
X115545142Y-96828333D01*
X115592761Y-96780714D01*
X115640380Y-96685476D01*
X115640380Y-96637857D01*
X115592761Y-96542619D01*
X115545142Y-96495000D01*
X115449904Y-96447380D01*
X115259428Y-96447380D01*
X115164190Y-96495000D01*
X115116571Y-96542619D01*
X115068952Y-96637857D01*
X115068952Y-96685476D01*
X115116571Y-96780714D01*
X115164190Y-96828333D01*
X115259428Y-96875952D01*
X115449904Y-96875952D01*
X115545142Y-96923571D01*
X115592761Y-96971190D01*
X115640380Y-97066428D01*
X115640380Y-97256904D01*
X115592761Y-97352142D01*
X115545142Y-97399761D01*
X115449904Y-97447380D01*
X115259428Y-97447380D01*
X115164190Y-97399761D01*
X115116571Y-97352142D01*
X115068952Y-97256904D01*
X115068952Y-97066428D01*
X115116571Y-96971190D01*
X115164190Y-96923571D01*
X115259428Y-96875952D01*
X114307047Y-96923571D02*
X114164190Y-96971190D01*
X114116571Y-97018809D01*
X114068952Y-97114047D01*
X114068952Y-97256904D01*
X114116571Y-97352142D01*
X114164190Y-97399761D01*
X114259428Y-97447380D01*
X114640380Y-97447380D01*
X114640380Y-96447380D01*
X114307047Y-96447380D01*
X114211809Y-96495000D01*
X114164190Y-96542619D01*
X114116571Y-96637857D01*
X114116571Y-96733095D01*
X114164190Y-96828333D01*
X114211809Y-96875952D01*
X114307047Y-96923571D01*
X114640380Y-96923571D01*
X112988000Y-95269142D02*
X113035619Y-95316761D01*
X112988000Y-95364380D01*
X112940380Y-95316761D01*
X112988000Y-95269142D01*
X112988000Y-95364380D01*
X118192761Y-98942952D02*
X118240380Y-99038190D01*
X118240380Y-99228666D01*
X118192761Y-99323904D01*
X118097523Y-99371523D01*
X118049904Y-99371523D01*
X117954666Y-99323904D01*
X117907047Y-99228666D01*
X117907047Y-99085809D01*
X117859428Y-98990571D01*
X117764190Y-98942952D01*
X117716571Y-98942952D01*
X117621333Y-98990571D01*
X117573714Y-99085809D01*
X117573714Y-99228666D01*
X117621333Y-99323904D01*
X118240380Y-100228666D02*
X117240380Y-100228666D01*
X118192761Y-100228666D02*
X118240380Y-100133428D01*
X118240380Y-99942952D01*
X118192761Y-99847714D01*
X118145142Y-99800095D01*
X118049904Y-99752476D01*
X117764190Y-99752476D01*
X117668952Y-99800095D01*
X117621333Y-99847714D01*
X117573714Y-99942952D01*
X117573714Y-100133428D01*
X117621333Y-100228666D01*
X118240380Y-101133428D02*
X117716571Y-101133428D01*
X117621333Y-101085809D01*
X117573714Y-100990571D01*
X117573714Y-100800095D01*
X117621333Y-100704857D01*
X118192761Y-101133428D02*
X118240380Y-101038190D01*
X118240380Y-100800095D01*
X118192761Y-100704857D01*
X118097523Y-100657238D01*
X118002285Y-100657238D01*
X117907047Y-100704857D01*
X117859428Y-100800095D01*
X117859428Y-101038190D01*
X117811809Y-101133428D01*
X119592761Y-99107238D02*
X119640380Y-99202476D01*
X119640380Y-99392952D01*
X119592761Y-99488190D01*
X119497523Y-99535809D01*
X119449904Y-99535809D01*
X119354666Y-99488190D01*
X119307047Y-99392952D01*
X119307047Y-99250095D01*
X119259428Y-99154857D01*
X119164190Y-99107238D01*
X119116571Y-99107238D01*
X119021333Y-99154857D01*
X118973714Y-99250095D01*
X118973714Y-99392952D01*
X119021333Y-99488190D01*
X119592761Y-100392952D02*
X119640380Y-100297714D01*
X119640380Y-100107238D01*
X119592761Y-100012000D01*
X119545142Y-99964380D01*
X119449904Y-99916761D01*
X119164190Y-99916761D01*
X119068952Y-99964380D01*
X119021333Y-100012000D01*
X118973714Y-100107238D01*
X118973714Y-100297714D01*
X119021333Y-100392952D01*
X119640380Y-100964380D02*
X119592761Y-100869142D01*
X119497523Y-100821523D01*
X118640380Y-100821523D01*
X115668952Y-100183428D02*
X114907047Y-100183428D01*
X116868952Y-100183428D02*
X116107047Y-100183428D01*
X116488000Y-100564380D02*
X116488000Y-99802476D01*
X120068952Y-88183428D02*
X119307047Y-88183428D01*
X117668952Y-88183428D02*
X116907047Y-88183428D01*
X117288000Y-88564380D02*
X117288000Y-87802476D01*
X111502285Y-90302476D02*
X111597523Y-90254857D01*
X111788000Y-90254857D01*
X111883238Y-90302476D01*
X111978476Y-90397714D01*
X112026095Y-90492952D01*
X112026095Y-90683428D01*
X111978476Y-90778666D01*
X111883238Y-90873904D01*
X111788000Y-90921523D01*
X111597523Y-90921523D01*
X111502285Y-90873904D01*
X111692761Y-89921523D02*
X111930857Y-89969142D01*
X112168952Y-90112000D01*
X112311809Y-90350095D01*
X112359428Y-90588190D01*
X112311809Y-90826285D01*
X112168952Y-91064380D01*
X111930857Y-91207238D01*
X111692761Y-91254857D01*
X111454666Y-91207238D01*
X111216571Y-91064380D01*
X111073714Y-90826285D01*
X111026095Y-90588190D01*
X111073714Y-90350095D01*
X111216571Y-90112000D01*
X111454666Y-89969142D01*
X111692761Y-89921523D01*
X110645142Y-90159619D02*
X110597523Y-90112000D01*
X110502285Y-90064380D01*
X110264190Y-90064380D01*
X110168952Y-90112000D01*
X110121333Y-90159619D01*
X110073714Y-90254857D01*
X110073714Y-90350095D01*
X110121333Y-90492952D01*
X110692761Y-91064380D01*
X110073714Y-91064380D01*
X109454666Y-90064380D02*
X109359428Y-90064380D01*
X109264190Y-90112000D01*
X109216571Y-90159619D01*
X109168952Y-90254857D01*
X109121333Y-90445333D01*
X109121333Y-90683428D01*
X109168952Y-90873904D01*
X109216571Y-90969142D01*
X109264190Y-91016761D01*
X109359428Y-91064380D01*
X109454666Y-91064380D01*
X109549904Y-91016761D01*
X109597523Y-90969142D01*
X109645142Y-90873904D01*
X109692761Y-90683428D01*
X109692761Y-90445333D01*
X109645142Y-90254857D01*
X109597523Y-90159619D01*
X109549904Y-90112000D01*
X109454666Y-90064380D01*
X108740380Y-90159619D02*
X108692761Y-90112000D01*
X108597523Y-90064380D01*
X108359428Y-90064380D01*
X108264190Y-90112000D01*
X108216571Y-90159619D01*
X108168952Y-90254857D01*
X108168952Y-90350095D01*
X108216571Y-90492952D01*
X108788000Y-91064380D01*
X108168952Y-91064380D01*
X107216571Y-91064380D02*
X107788000Y-91064380D01*
X107502285Y-91064380D02*
X107502285Y-90064380D01*
X107597523Y-90207238D01*
X107692761Y-90302476D01*
X107788000Y-90350095D01*
X111854666Y-96164380D02*
X111854666Y-95497714D01*
X111854666Y-95688190D02*
X111807047Y-95592952D01*
X111759428Y-95545333D01*
X111664190Y-95497714D01*
X111568952Y-95497714D01*
X110807047Y-95497714D02*
X110807047Y-96164380D01*
X111235619Y-95497714D02*
X111235619Y-96021523D01*
X111188000Y-96116761D01*
X111092761Y-96164380D01*
X110949904Y-96164380D01*
X110854666Y-96116761D01*
X110807047Y-96069142D01*
X110330857Y-95497714D02*
X110330857Y-96164380D01*
X110330857Y-95592952D02*
X110283238Y-95545333D01*
X110188000Y-95497714D01*
X110045142Y-95497714D01*
X109949904Y-95545333D01*
X109902285Y-95640571D01*
X109902285Y-96164380D01*
X108997523Y-95497714D02*
X108997523Y-96307238D01*
X109045142Y-96402476D01*
X109092761Y-96450095D01*
X109188000Y-96497714D01*
X109330857Y-96497714D01*
X109426095Y-96450095D01*
X108997523Y-96116761D02*
X109092761Y-96164380D01*
X109283238Y-96164380D01*
X109378476Y-96116761D01*
X109426095Y-96069142D01*
X109473714Y-95973904D01*
X109473714Y-95688190D01*
X109426095Y-95592952D01*
X109378476Y-95545333D01*
X109283238Y-95497714D01*
X109092761Y-95497714D01*
X108997523Y-95545333D01*
X108140380Y-96116761D02*
X108235619Y-96164380D01*
X108426095Y-96164380D01*
X108521333Y-96116761D01*
X108568952Y-96021523D01*
X108568952Y-95640571D01*
X108521333Y-95545333D01*
X108426095Y-95497714D01*
X108235619Y-95497714D01*
X108140380Y-95545333D01*
X108092761Y-95640571D01*
X108092761Y-95735809D01*
X108568952Y-95831047D01*
X107664190Y-96164380D02*
X107664190Y-95497714D01*
X107664190Y-95688190D02*
X107616571Y-95592952D01*
X107568952Y-95545333D01*
X107473714Y-95497714D01*
X107378476Y-95497714D01*
X117092761Y-89864380D02*
X117092761Y-88864380D01*
X116711809Y-88864380D01*
X116616571Y-88912000D01*
X116568952Y-88959619D01*
X116521333Y-89054857D01*
X116521333Y-89197714D01*
X116568952Y-89292952D01*
X116616571Y-89340571D01*
X116711809Y-89388190D01*
X117092761Y-89388190D01*
X116188000Y-88864380D02*
X115949904Y-89864380D01*
X115759428Y-89150095D01*
X115568952Y-89864380D01*
X115330857Y-88864380D01*
X114949904Y-89864380D02*
X114949904Y-88864380D01*
X114616571Y-89578666D01*
X114283238Y-88864380D01*
X114283238Y-89864380D01*
X122264190Y-99864380D02*
X122264190Y-98864380D01*
X121835619Y-98959619D02*
X121788000Y-98912000D01*
X121692761Y-98864380D01*
X121454666Y-98864380D01*
X121359428Y-98912000D01*
X121311809Y-98959619D01*
X121264190Y-99054857D01*
X121264190Y-99150095D01*
X121311809Y-99292952D01*
X121883238Y-99864380D01*
X121264190Y-99864380D01*
X120264190Y-99769142D02*
X120311809Y-99816761D01*
X120454666Y-99864380D01*
X120549904Y-99864380D01*
X120692761Y-99816761D01*
X120788000Y-99721523D01*
X120835619Y-99626285D01*
X120883238Y-99435809D01*
X120883238Y-99292952D01*
X120835619Y-99102476D01*
X120788000Y-99007238D01*
X120692761Y-98912000D01*
X120549904Y-98864380D01*
X120454666Y-98864380D01*
X120311809Y-98912000D01*
X120264190Y-98959619D01*
X126454666Y-91064380D02*
X127026095Y-91064380D01*
X126740380Y-91064380D02*
X126740380Y-90064380D01*
X126835619Y-90207238D01*
X126930857Y-90302476D01*
X127026095Y-90350095D01*
X125597523Y-90397714D02*
X125597523Y-91064380D01*
X125835619Y-90016761D02*
X126073714Y-90731047D01*
X125454666Y-90731047D01*
X125073714Y-91064380D02*
X125073714Y-90064380D01*
X125073714Y-90445333D02*
X124978476Y-90397714D01*
X124788000Y-90397714D01*
X124692761Y-90445333D01*
X124645142Y-90492952D01*
X124597523Y-90588190D01*
X124597523Y-90873904D01*
X124645142Y-90969142D01*
X124692761Y-91016761D01*
X124788000Y-91064380D01*
X124978476Y-91064380D01*
X125073714Y-91016761D01*
X124168952Y-91064380D02*
X124168952Y-90397714D01*
X124168952Y-90064380D02*
X124216571Y-90112000D01*
X124168952Y-90159619D01*
X124121333Y-90112000D01*
X124168952Y-90064380D01*
X124168952Y-90159619D01*
X123835619Y-90397714D02*
X123454666Y-90397714D01*
X123692761Y-90064380D02*
X123692761Y-90921523D01*
X123645142Y-91016761D01*
X123549904Y-91064380D01*
X123454666Y-91064380D01*
X126816571Y-95697714D02*
X126578476Y-96364380D01*
X126340380Y-95697714D01*
X125435619Y-96364380D02*
X126007047Y-96364380D01*
X125721333Y-96364380D02*
X125721333Y-95364380D01*
X125816571Y-95507238D01*
X125911809Y-95602476D01*
X126007047Y-95650095D01*
X125007047Y-96269142D02*
X124959428Y-96316761D01*
X125007047Y-96364380D01*
X125054666Y-96316761D01*
X125007047Y-96269142D01*
X125007047Y-96364380D01*
X124578476Y-95459619D02*
X124530857Y-95412000D01*
X124435619Y-95364380D01*
X124197523Y-95364380D01*
X124102285Y-95412000D01*
X124054666Y-95459619D01*
X124007047Y-95554857D01*
X124007047Y-95650095D01*
X124054666Y-95792952D01*
X124626095Y-96364380D01*
X124007047Y-96364380D01*
X114863000Y-95937000D02*
X114863000Y-95812000D01*
X119513000Y-95937000D02*
X119513000Y-95712000D01*
X119513000Y-90687000D02*
X119513000Y-90912000D01*
X114863000Y-90687000D02*
X114863000Y-90912000D01*
X114863000Y-95937000D02*
X119513000Y-95937000D01*
X114863000Y-90687000D02*
X119513000Y-90687000D01*
X114863000Y-95812000D02*
X113513000Y-95812000D01*
M02*
