G04 #@! TF.GenerationSoftware,KiCad,Pcbnew,(5.1.6-0-10_14)*
G04 #@! TF.CreationDate,2021-04-09T22:44:30+02:00*
G04 #@! TF.ProjectId,Encoder,456e636f-6465-4722-9e6b-696361645f70,1.1*
G04 #@! TF.SameCoordinates,Original*
G04 #@! TF.FileFunction,Copper,L2,Bot*
G04 #@! TF.FilePolarity,Positive*
%FSLAX46Y46*%
G04 Gerber Fmt 4.6, Leading zero omitted, Abs format (unit mm)*
G04 Created by KiCad (PCBNEW (5.1.6-0-10_14)) date 2021-04-09 22:44:30*
%MOMM*%
%LPD*%
G01*
G04 APERTURE LIST*
G04 #@! TA.AperFunction,ComponentPad*
%ADD10O,1.700000X1.700000*%
G04 #@! TD*
G04 #@! TA.AperFunction,ComponentPad*
%ADD11R,1.700000X1.700000*%
G04 #@! TD*
G04 #@! TA.AperFunction,SMDPad,CuDef*
%ADD12R,1.450000X0.450000*%
G04 #@! TD*
G04 #@! TA.AperFunction,ViaPad*
%ADD13C,0.800000*%
G04 #@! TD*
G04 #@! TA.AperFunction,ViaPad*
%ADD14C,0.600000*%
G04 #@! TD*
G04 #@! TA.AperFunction,Conductor*
%ADD15C,0.400000*%
G04 #@! TD*
G04 #@! TA.AperFunction,Conductor*
%ADD16C,0.254000*%
G04 #@! TD*
G04 APERTURE END LIST*
D10*
X119828000Y-86712000D03*
X117288000Y-86712000D03*
D11*
X114748000Y-86712000D03*
D12*
X120138000Y-95262000D03*
X120138000Y-94612000D03*
X120138000Y-93962000D03*
X120138000Y-93312000D03*
X120138000Y-92662000D03*
X120138000Y-92012000D03*
X120138000Y-91362000D03*
X114238000Y-91362000D03*
X114238000Y-92012000D03*
X114238000Y-92662000D03*
X114238000Y-93312000D03*
X114238000Y-93962000D03*
X114238000Y-94612000D03*
X114238000Y-95262000D03*
D13*
X115588000Y-92012000D03*
X121688000Y-95012000D03*
D14*
X125338000Y-90812000D03*
X125338000Y-95862000D03*
X108638000Y-95812000D03*
X108688000Y-90912000D03*
X115238000Y-100312000D03*
X120888000Y-100262000D03*
X117688000Y-88862000D03*
X121238000Y-90462000D03*
D13*
X121688000Y-94012000D03*
X111388000Y-92312000D03*
X121688000Y-93012000D03*
X116688000Y-99362000D03*
X122588000Y-92612000D03*
X122188000Y-97912000D03*
X122388000Y-89312000D03*
X117688000Y-96962000D03*
X117688000Y-93947000D03*
X112888000Y-90312000D03*
X112688000Y-96112000D03*
D15*
X120388000Y-94612000D02*
X120412999Y-94636999D01*
X120138000Y-94612000D02*
X120388000Y-94612000D01*
X121503998Y-95012000D02*
X121688000Y-95012000D01*
X121103998Y-94612000D02*
X121503998Y-95012000D01*
X120138000Y-94612000D02*
X121103998Y-94612000D01*
X115503685Y-92662000D02*
X115588000Y-92577685D01*
X115588000Y-92577685D02*
X115588000Y-92012000D01*
X114238000Y-92662000D02*
X115503685Y-92662000D01*
X121438000Y-93962000D02*
X121488000Y-94012000D01*
X120138000Y-93962000D02*
X121438000Y-93962000D01*
X121488000Y-93112000D02*
X121388001Y-93211999D01*
X121488000Y-93012000D02*
X121488000Y-93112000D01*
X121188000Y-93312000D02*
X120138000Y-93312000D01*
X121488000Y-93012000D02*
X121188000Y-93312000D01*
X111388000Y-95996002D02*
X113803998Y-98412000D01*
X111388000Y-92312000D02*
X111388000Y-95996002D01*
X119888000Y-89312000D02*
X117288000Y-86712000D01*
X122388000Y-89312000D02*
X119888000Y-89312000D01*
X113803998Y-98412000D02*
X113803998Y-98427998D01*
X114688000Y-99312000D02*
X115688000Y-99312000D01*
X113803998Y-98427998D02*
X114688000Y-99312000D01*
X115688000Y-99312000D02*
X120788000Y-99312000D01*
X120788000Y-99312000D02*
X122188000Y-97912000D01*
X122588000Y-89512000D02*
X122388000Y-89312000D01*
X122588000Y-97612000D02*
X122588000Y-89512000D01*
X122288000Y-97912000D02*
X122588000Y-97612000D01*
X122188000Y-97912000D02*
X122288000Y-97912000D01*
X115988000Y-95262000D02*
X117688000Y-96962000D01*
X114238000Y-95262000D02*
X115988000Y-95262000D01*
X115126000Y-94612000D02*
X115791000Y-93947000D01*
X115791000Y-93947000D02*
X117688000Y-93947000D01*
X114238000Y-94612000D02*
X115126000Y-94612000D01*
X118488001Y-91702001D02*
X114748000Y-87962000D01*
X118488001Y-94737001D02*
X118488001Y-91702001D01*
X114748000Y-87962000D02*
X114748000Y-86712000D01*
X119013000Y-95262000D02*
X118488001Y-94737001D01*
X120138000Y-95262000D02*
X119013000Y-95262000D01*
X112888000Y-90877685D02*
X112888000Y-90312000D01*
X112888000Y-93087000D02*
X112888000Y-90877685D01*
X113113000Y-93312000D02*
X112888000Y-93087000D01*
X114238000Y-93312000D02*
X113113000Y-93312000D01*
X112688000Y-94491998D02*
X112688000Y-95546315D01*
X113217998Y-93962000D02*
X112688000Y-94491998D01*
X112688000Y-95546315D02*
X112688000Y-96112000D01*
X114238000Y-93962000D02*
X113217998Y-93962000D01*
D16*
G36*
X113259928Y-87562000D02*
G01*
X113272188Y-87686482D01*
X113308498Y-87806180D01*
X113367463Y-87916494D01*
X113446815Y-88013185D01*
X113543506Y-88092537D01*
X113653820Y-88151502D01*
X113773518Y-88187812D01*
X113898000Y-88200072D01*
X113947646Y-88200072D01*
X113972828Y-88283086D01*
X114050364Y-88428145D01*
X114154709Y-88555291D01*
X114186579Y-88581446D01*
X117653002Y-92047870D01*
X117653002Y-92912000D01*
X117586061Y-92912000D01*
X117386102Y-92951774D01*
X117197744Y-93029795D01*
X117074715Y-93112000D01*
X115832018Y-93112000D01*
X115790999Y-93107960D01*
X115749981Y-93112000D01*
X115627311Y-93124082D01*
X115601072Y-93132041D01*
X115601072Y-93087000D01*
X115588812Y-92962518D01*
X115552502Y-92842820D01*
X115493537Y-92732506D01*
X115435674Y-92662000D01*
X115493537Y-92591494D01*
X115552502Y-92481180D01*
X115588812Y-92361482D01*
X115601072Y-92237000D01*
X115601072Y-91787000D01*
X115591223Y-91687000D01*
X115601072Y-91587000D01*
X115601072Y-91137000D01*
X115588812Y-91012518D01*
X115552502Y-90892820D01*
X115493537Y-90782506D01*
X115414185Y-90685815D01*
X115317494Y-90606463D01*
X115207180Y-90547498D01*
X115087482Y-90511188D01*
X114963000Y-90498928D01*
X113906095Y-90498928D01*
X113923000Y-90413939D01*
X113923000Y-90210061D01*
X113883226Y-90010102D01*
X113805205Y-89821744D01*
X113691937Y-89652226D01*
X113547774Y-89508063D01*
X113378256Y-89394795D01*
X113189898Y-89316774D01*
X112989939Y-89277000D01*
X112786061Y-89277000D01*
X112586102Y-89316774D01*
X112397744Y-89394795D01*
X112228226Y-89508063D01*
X112084063Y-89652226D01*
X111970795Y-89821744D01*
X111892774Y-90010102D01*
X111853000Y-90210061D01*
X111853000Y-90413939D01*
X111892774Y-90613898D01*
X111970795Y-90802256D01*
X112053001Y-90925286D01*
X112053001Y-91513290D01*
X112047774Y-91508063D01*
X111878256Y-91394795D01*
X111689898Y-91316774D01*
X111489939Y-91277000D01*
X111286061Y-91277000D01*
X111086102Y-91316774D01*
X110897744Y-91394795D01*
X110728226Y-91508063D01*
X110584063Y-91652226D01*
X110470795Y-91821744D01*
X110392774Y-92010102D01*
X110353000Y-92210061D01*
X110353000Y-92413939D01*
X110392774Y-92613898D01*
X110470795Y-92802256D01*
X110553000Y-92925285D01*
X110553001Y-95954974D01*
X110548960Y-95996002D01*
X110565082Y-96159690D01*
X110612828Y-96317088D01*
X110690364Y-96462147D01*
X110690365Y-96462148D01*
X110794710Y-96589293D01*
X110826574Y-96615443D01*
X113111341Y-98900211D01*
X113210707Y-99021289D01*
X113242575Y-99047442D01*
X114068563Y-99873432D01*
X114094709Y-99905291D01*
X114126568Y-99931437D01*
X114126570Y-99931439D01*
X114179639Y-99974991D01*
X114221854Y-100009636D01*
X114366913Y-100087172D01*
X114524311Y-100134918D01*
X114646981Y-100147000D01*
X114646982Y-100147000D01*
X114688000Y-100151040D01*
X114729018Y-100147000D01*
X116009289Y-100147000D01*
X116028226Y-100165937D01*
X116197744Y-100279205D01*
X116386102Y-100357226D01*
X116586061Y-100397000D01*
X116789939Y-100397000D01*
X116989898Y-100357226D01*
X117178256Y-100279205D01*
X117347774Y-100165937D01*
X117366711Y-100147000D01*
X120746982Y-100147000D01*
X120788000Y-100151040D01*
X120829018Y-100147000D01*
X120829019Y-100147000D01*
X120951689Y-100134918D01*
X121109087Y-100087172D01*
X121242718Y-100015744D01*
X121193110Y-100050002D01*
X120241600Y-100531217D01*
X119233591Y-100878844D01*
X118187719Y-101086454D01*
X117123362Y-101150202D01*
X116060190Y-101068908D01*
X115017898Y-100844080D01*
X114015752Y-100479874D01*
X113072308Y-99983031D01*
X112205024Y-99362747D01*
X111429946Y-98630495D01*
X110759707Y-97797705D01*
X110260890Y-96983708D01*
X110239425Y-96943550D01*
X110198742Y-96893978D01*
X110198735Y-96893968D01*
X110198726Y-96893959D01*
X110156948Y-96843052D01*
X110056450Y-96760575D01*
X109941793Y-96699290D01*
X109817383Y-96661550D01*
X109720419Y-96652000D01*
X107720279Y-96652000D01*
X107622576Y-96642420D01*
X107559643Y-96623420D01*
X107501594Y-96592554D01*
X107450657Y-96551011D01*
X107408752Y-96500356D01*
X107377485Y-96442529D01*
X107358044Y-96379728D01*
X107348000Y-96284165D01*
X107348000Y-94425661D01*
X107582002Y-94659663D01*
X107866169Y-94849537D01*
X108181919Y-94980325D01*
X108517117Y-95047000D01*
X108858883Y-95047000D01*
X109194081Y-94980325D01*
X109509831Y-94849537D01*
X109793998Y-94659663D01*
X110035663Y-94417998D01*
X110225537Y-94133831D01*
X110356325Y-93818081D01*
X110423000Y-93482883D01*
X110423000Y-93141117D01*
X110356325Y-92805919D01*
X110225537Y-92490169D01*
X110035663Y-92206002D01*
X109793998Y-91964337D01*
X109509831Y-91774463D01*
X109194081Y-91643675D01*
X108858883Y-91577000D01*
X108517117Y-91577000D01*
X108181919Y-91643675D01*
X107866169Y-91774463D01*
X107582002Y-91964337D01*
X107348000Y-92198339D01*
X107348000Y-90344279D01*
X107357580Y-90246576D01*
X107376580Y-90183644D01*
X107407445Y-90125595D01*
X107448989Y-90074657D01*
X107499644Y-90032752D01*
X107557471Y-90001485D01*
X107620272Y-89982044D01*
X107715844Y-89971999D01*
X109720419Y-89972001D01*
X109817383Y-89962451D01*
X109941793Y-89924711D01*
X110056450Y-89863426D01*
X110156948Y-89780949D01*
X110239425Y-89680451D01*
X110259605Y-89642696D01*
X110836307Y-88718791D01*
X111518445Y-87899265D01*
X112305496Y-87179895D01*
X113182889Y-86574000D01*
X113259928Y-86535038D01*
X113259928Y-87562000D01*
G37*
X113259928Y-87562000D02*
X113272188Y-87686482D01*
X113308498Y-87806180D01*
X113367463Y-87916494D01*
X113446815Y-88013185D01*
X113543506Y-88092537D01*
X113653820Y-88151502D01*
X113773518Y-88187812D01*
X113898000Y-88200072D01*
X113947646Y-88200072D01*
X113972828Y-88283086D01*
X114050364Y-88428145D01*
X114154709Y-88555291D01*
X114186579Y-88581446D01*
X117653002Y-92047870D01*
X117653002Y-92912000D01*
X117586061Y-92912000D01*
X117386102Y-92951774D01*
X117197744Y-93029795D01*
X117074715Y-93112000D01*
X115832018Y-93112000D01*
X115790999Y-93107960D01*
X115749981Y-93112000D01*
X115627311Y-93124082D01*
X115601072Y-93132041D01*
X115601072Y-93087000D01*
X115588812Y-92962518D01*
X115552502Y-92842820D01*
X115493537Y-92732506D01*
X115435674Y-92662000D01*
X115493537Y-92591494D01*
X115552502Y-92481180D01*
X115588812Y-92361482D01*
X115601072Y-92237000D01*
X115601072Y-91787000D01*
X115591223Y-91687000D01*
X115601072Y-91587000D01*
X115601072Y-91137000D01*
X115588812Y-91012518D01*
X115552502Y-90892820D01*
X115493537Y-90782506D01*
X115414185Y-90685815D01*
X115317494Y-90606463D01*
X115207180Y-90547498D01*
X115087482Y-90511188D01*
X114963000Y-90498928D01*
X113906095Y-90498928D01*
X113923000Y-90413939D01*
X113923000Y-90210061D01*
X113883226Y-90010102D01*
X113805205Y-89821744D01*
X113691937Y-89652226D01*
X113547774Y-89508063D01*
X113378256Y-89394795D01*
X113189898Y-89316774D01*
X112989939Y-89277000D01*
X112786061Y-89277000D01*
X112586102Y-89316774D01*
X112397744Y-89394795D01*
X112228226Y-89508063D01*
X112084063Y-89652226D01*
X111970795Y-89821744D01*
X111892774Y-90010102D01*
X111853000Y-90210061D01*
X111853000Y-90413939D01*
X111892774Y-90613898D01*
X111970795Y-90802256D01*
X112053001Y-90925286D01*
X112053001Y-91513290D01*
X112047774Y-91508063D01*
X111878256Y-91394795D01*
X111689898Y-91316774D01*
X111489939Y-91277000D01*
X111286061Y-91277000D01*
X111086102Y-91316774D01*
X110897744Y-91394795D01*
X110728226Y-91508063D01*
X110584063Y-91652226D01*
X110470795Y-91821744D01*
X110392774Y-92010102D01*
X110353000Y-92210061D01*
X110353000Y-92413939D01*
X110392774Y-92613898D01*
X110470795Y-92802256D01*
X110553000Y-92925285D01*
X110553001Y-95954974D01*
X110548960Y-95996002D01*
X110565082Y-96159690D01*
X110612828Y-96317088D01*
X110690364Y-96462147D01*
X110690365Y-96462148D01*
X110794710Y-96589293D01*
X110826574Y-96615443D01*
X113111341Y-98900211D01*
X113210707Y-99021289D01*
X113242575Y-99047442D01*
X114068563Y-99873432D01*
X114094709Y-99905291D01*
X114126568Y-99931437D01*
X114126570Y-99931439D01*
X114179639Y-99974991D01*
X114221854Y-100009636D01*
X114366913Y-100087172D01*
X114524311Y-100134918D01*
X114646981Y-100147000D01*
X114646982Y-100147000D01*
X114688000Y-100151040D01*
X114729018Y-100147000D01*
X116009289Y-100147000D01*
X116028226Y-100165937D01*
X116197744Y-100279205D01*
X116386102Y-100357226D01*
X116586061Y-100397000D01*
X116789939Y-100397000D01*
X116989898Y-100357226D01*
X117178256Y-100279205D01*
X117347774Y-100165937D01*
X117366711Y-100147000D01*
X120746982Y-100147000D01*
X120788000Y-100151040D01*
X120829018Y-100147000D01*
X120829019Y-100147000D01*
X120951689Y-100134918D01*
X121109087Y-100087172D01*
X121242718Y-100015744D01*
X121193110Y-100050002D01*
X120241600Y-100531217D01*
X119233591Y-100878844D01*
X118187719Y-101086454D01*
X117123362Y-101150202D01*
X116060190Y-101068908D01*
X115017898Y-100844080D01*
X114015752Y-100479874D01*
X113072308Y-99983031D01*
X112205024Y-99362747D01*
X111429946Y-98630495D01*
X110759707Y-97797705D01*
X110260890Y-96983708D01*
X110239425Y-96943550D01*
X110198742Y-96893978D01*
X110198735Y-96893968D01*
X110198726Y-96893959D01*
X110156948Y-96843052D01*
X110056450Y-96760575D01*
X109941793Y-96699290D01*
X109817383Y-96661550D01*
X109720419Y-96652000D01*
X107720279Y-96652000D01*
X107622576Y-96642420D01*
X107559643Y-96623420D01*
X107501594Y-96592554D01*
X107450657Y-96551011D01*
X107408752Y-96500356D01*
X107377485Y-96442529D01*
X107358044Y-96379728D01*
X107348000Y-96284165D01*
X107348000Y-94425661D01*
X107582002Y-94659663D01*
X107866169Y-94849537D01*
X108181919Y-94980325D01*
X108517117Y-95047000D01*
X108858883Y-95047000D01*
X109194081Y-94980325D01*
X109509831Y-94849537D01*
X109793998Y-94659663D01*
X110035663Y-94417998D01*
X110225537Y-94133831D01*
X110356325Y-93818081D01*
X110423000Y-93482883D01*
X110423000Y-93141117D01*
X110356325Y-92805919D01*
X110225537Y-92490169D01*
X110035663Y-92206002D01*
X109793998Y-91964337D01*
X109509831Y-91774463D01*
X109194081Y-91643675D01*
X108858883Y-91577000D01*
X108517117Y-91577000D01*
X108181919Y-91643675D01*
X107866169Y-91774463D01*
X107582002Y-91964337D01*
X107348000Y-92198339D01*
X107348000Y-90344279D01*
X107357580Y-90246576D01*
X107376580Y-90183644D01*
X107407445Y-90125595D01*
X107448989Y-90074657D01*
X107499644Y-90032752D01*
X107557471Y-90001485D01*
X107620272Y-89982044D01*
X107715844Y-89971999D01*
X109720419Y-89972001D01*
X109817383Y-89962451D01*
X109941793Y-89924711D01*
X110056450Y-89863426D01*
X110156948Y-89780949D01*
X110239425Y-89680451D01*
X110259605Y-89642696D01*
X110836307Y-88718791D01*
X111518445Y-87899265D01*
X112305496Y-87179895D01*
X113182889Y-86574000D01*
X113259928Y-86535038D01*
X113259928Y-87562000D01*
G36*
X118315809Y-85555093D02*
G01*
X119358110Y-85779923D01*
X120360246Y-86144126D01*
X121303690Y-86640969D01*
X122170970Y-87261250D01*
X122946051Y-87993503D01*
X123616292Y-88826297D01*
X124115103Y-89640280D01*
X124136574Y-89680450D01*
X124219051Y-89780948D01*
X124319549Y-89863425D01*
X124434206Y-89924710D01*
X124558616Y-89962450D01*
X124655580Y-89972000D01*
X126655721Y-89972000D01*
X126753424Y-89981580D01*
X126816356Y-90000580D01*
X126874405Y-90031445D01*
X126925343Y-90072989D01*
X126967248Y-90123644D01*
X126998515Y-90181471D01*
X127017956Y-90244272D01*
X127028000Y-90339835D01*
X127028000Y-92198339D01*
X126793998Y-91964337D01*
X126509831Y-91774463D01*
X126194081Y-91643675D01*
X125858883Y-91577000D01*
X125517117Y-91577000D01*
X125181919Y-91643675D01*
X124866169Y-91774463D01*
X124582002Y-91964337D01*
X124340337Y-92206002D01*
X124150463Y-92490169D01*
X124019675Y-92805919D01*
X123953000Y-93141117D01*
X123953000Y-93482883D01*
X124019675Y-93818081D01*
X124150463Y-94133831D01*
X124340337Y-94417998D01*
X124582002Y-94659663D01*
X124866169Y-94849537D01*
X125181919Y-94980325D01*
X125517117Y-95047000D01*
X125858883Y-95047000D01*
X126194081Y-94980325D01*
X126509831Y-94849537D01*
X126793998Y-94659663D01*
X127028001Y-94425660D01*
X127028001Y-96279711D01*
X127018420Y-96377424D01*
X126999420Y-96440357D01*
X126968554Y-96498406D01*
X126927011Y-96549343D01*
X126876356Y-96591248D01*
X126818529Y-96622515D01*
X126755728Y-96641956D01*
X126660164Y-96652000D01*
X124655580Y-96652002D01*
X124558616Y-96661552D01*
X124434206Y-96699292D01*
X124319549Y-96760577D01*
X124219051Y-96843054D01*
X124136574Y-96943552D01*
X124116392Y-96981311D01*
X123539693Y-97905209D01*
X123020680Y-98528757D01*
X123105205Y-98402256D01*
X123183226Y-98213898D01*
X123186105Y-98199425D01*
X123285636Y-98078146D01*
X123363172Y-97933087D01*
X123410918Y-97775689D01*
X123413855Y-97745871D01*
X123427040Y-97612001D01*
X123423000Y-97570982D01*
X123423000Y-93225285D01*
X123505205Y-93102256D01*
X123583226Y-92913898D01*
X123623000Y-92713939D01*
X123623000Y-92510061D01*
X123583226Y-92310102D01*
X123505205Y-92121744D01*
X123423000Y-91998715D01*
X123423000Y-89553018D01*
X123427040Y-89512000D01*
X123421335Y-89454072D01*
X123419242Y-89432830D01*
X123423000Y-89413939D01*
X123423000Y-89210061D01*
X123383226Y-89010102D01*
X123305205Y-88821744D01*
X123191937Y-88652226D01*
X123047774Y-88508063D01*
X122878256Y-88394795D01*
X122689898Y-88316774D01*
X122489939Y-88277000D01*
X122286061Y-88277000D01*
X122086102Y-88316774D01*
X121897744Y-88394795D01*
X121774715Y-88477000D01*
X120233868Y-88477000D01*
X118746807Y-86989940D01*
X118773000Y-86858260D01*
X118773000Y-86565740D01*
X118715932Y-86278842D01*
X118603990Y-86008589D01*
X118441475Y-85765368D01*
X118234632Y-85558525D01*
X118218342Y-85547640D01*
X118315809Y-85555093D01*
G37*
X118315809Y-85555093D02*
X119358110Y-85779923D01*
X120360246Y-86144126D01*
X121303690Y-86640969D01*
X122170970Y-87261250D01*
X122946051Y-87993503D01*
X123616292Y-88826297D01*
X124115103Y-89640280D01*
X124136574Y-89680450D01*
X124219051Y-89780948D01*
X124319549Y-89863425D01*
X124434206Y-89924710D01*
X124558616Y-89962450D01*
X124655580Y-89972000D01*
X126655721Y-89972000D01*
X126753424Y-89981580D01*
X126816356Y-90000580D01*
X126874405Y-90031445D01*
X126925343Y-90072989D01*
X126967248Y-90123644D01*
X126998515Y-90181471D01*
X127017956Y-90244272D01*
X127028000Y-90339835D01*
X127028000Y-92198339D01*
X126793998Y-91964337D01*
X126509831Y-91774463D01*
X126194081Y-91643675D01*
X125858883Y-91577000D01*
X125517117Y-91577000D01*
X125181919Y-91643675D01*
X124866169Y-91774463D01*
X124582002Y-91964337D01*
X124340337Y-92206002D01*
X124150463Y-92490169D01*
X124019675Y-92805919D01*
X123953000Y-93141117D01*
X123953000Y-93482883D01*
X124019675Y-93818081D01*
X124150463Y-94133831D01*
X124340337Y-94417998D01*
X124582002Y-94659663D01*
X124866169Y-94849537D01*
X125181919Y-94980325D01*
X125517117Y-95047000D01*
X125858883Y-95047000D01*
X126194081Y-94980325D01*
X126509831Y-94849537D01*
X126793998Y-94659663D01*
X127028001Y-94425660D01*
X127028001Y-96279711D01*
X127018420Y-96377424D01*
X126999420Y-96440357D01*
X126968554Y-96498406D01*
X126927011Y-96549343D01*
X126876356Y-96591248D01*
X126818529Y-96622515D01*
X126755728Y-96641956D01*
X126660164Y-96652000D01*
X124655580Y-96652002D01*
X124558616Y-96661552D01*
X124434206Y-96699292D01*
X124319549Y-96760577D01*
X124219051Y-96843054D01*
X124136574Y-96943552D01*
X124116392Y-96981311D01*
X123539693Y-97905209D01*
X123020680Y-98528757D01*
X123105205Y-98402256D01*
X123183226Y-98213898D01*
X123186105Y-98199425D01*
X123285636Y-98078146D01*
X123363172Y-97933087D01*
X123410918Y-97775689D01*
X123413855Y-97745871D01*
X123427040Y-97612001D01*
X123423000Y-97570982D01*
X123423000Y-93225285D01*
X123505205Y-93102256D01*
X123583226Y-92913898D01*
X123623000Y-92713939D01*
X123623000Y-92510061D01*
X123583226Y-92310102D01*
X123505205Y-92121744D01*
X123423000Y-91998715D01*
X123423000Y-89553018D01*
X123427040Y-89512000D01*
X123421335Y-89454072D01*
X123419242Y-89432830D01*
X123423000Y-89413939D01*
X123423000Y-89210061D01*
X123383226Y-89010102D01*
X123305205Y-88821744D01*
X123191937Y-88652226D01*
X123047774Y-88508063D01*
X122878256Y-88394795D01*
X122689898Y-88316774D01*
X122489939Y-88277000D01*
X122286061Y-88277000D01*
X122086102Y-88316774D01*
X121897744Y-88394795D01*
X121774715Y-88477000D01*
X120233868Y-88477000D01*
X118746807Y-86989940D01*
X118773000Y-86858260D01*
X118773000Y-86565740D01*
X118715932Y-86278842D01*
X118603990Y-86008589D01*
X118441475Y-85765368D01*
X118234632Y-85558525D01*
X118218342Y-85547640D01*
X118315809Y-85555093D01*
G36*
X117197744Y-94864205D02*
G01*
X117386102Y-94942226D01*
X117586061Y-94982000D01*
X117689748Y-94982000D01*
X117712829Y-95058087D01*
X117790365Y-95203146D01*
X117894710Y-95330292D01*
X117926579Y-95356446D01*
X118393558Y-95823426D01*
X118419709Y-95855291D01*
X118546854Y-95959636D01*
X118691913Y-96037172D01*
X118849311Y-96084918D01*
X118971981Y-96097000D01*
X118971982Y-96097000D01*
X119013000Y-96101040D01*
X119054018Y-96097000D01*
X119236393Y-96097000D01*
X119288518Y-96112812D01*
X119413000Y-96125072D01*
X120863000Y-96125072D01*
X120987482Y-96112812D01*
X121107180Y-96076502D01*
X121217494Y-96017537D01*
X121314185Y-95938185D01*
X121393537Y-95841494D01*
X121452502Y-95731180D01*
X121488812Y-95611482D01*
X121501072Y-95487000D01*
X121501072Y-95037000D01*
X121500378Y-95029957D01*
X121586061Y-95047000D01*
X121753000Y-95047000D01*
X121753000Y-96971907D01*
X121697744Y-96994795D01*
X121528226Y-97108063D01*
X121384063Y-97252226D01*
X121270795Y-97421744D01*
X121192774Y-97610102D01*
X121163908Y-97755225D01*
X120442133Y-98477000D01*
X117226454Y-98477000D01*
X117178256Y-98444795D01*
X116989898Y-98366774D01*
X116789939Y-98327000D01*
X116586061Y-98327000D01*
X116386102Y-98366774D01*
X116197744Y-98444795D01*
X116149546Y-98477000D01*
X115033868Y-98477000D01*
X114496658Y-97939791D01*
X114484282Y-97924711D01*
X114397289Y-97818709D01*
X114365426Y-97792560D01*
X113418288Y-96845423D01*
X113491937Y-96771774D01*
X113605205Y-96602256D01*
X113683226Y-96413898D01*
X113723000Y-96213939D01*
X113723000Y-96125072D01*
X114963000Y-96125072D01*
X115087482Y-96112812D01*
X115139607Y-96097000D01*
X115642133Y-96097000D01*
X116663908Y-97118775D01*
X116692774Y-97263898D01*
X116770795Y-97452256D01*
X116884063Y-97621774D01*
X117028226Y-97765937D01*
X117197744Y-97879205D01*
X117386102Y-97957226D01*
X117586061Y-97997000D01*
X117789939Y-97997000D01*
X117989898Y-97957226D01*
X118178256Y-97879205D01*
X118347774Y-97765937D01*
X118491937Y-97621774D01*
X118605205Y-97452256D01*
X118683226Y-97263898D01*
X118723000Y-97063939D01*
X118723000Y-96860061D01*
X118683226Y-96660102D01*
X118605205Y-96471744D01*
X118491937Y-96302226D01*
X118347774Y-96158063D01*
X118178256Y-96044795D01*
X117989898Y-95966774D01*
X117844775Y-95937908D01*
X116688867Y-94782000D01*
X117074715Y-94782000D01*
X117197744Y-94864205D01*
G37*
X117197744Y-94864205D02*
X117386102Y-94942226D01*
X117586061Y-94982000D01*
X117689748Y-94982000D01*
X117712829Y-95058087D01*
X117790365Y-95203146D01*
X117894710Y-95330292D01*
X117926579Y-95356446D01*
X118393558Y-95823426D01*
X118419709Y-95855291D01*
X118546854Y-95959636D01*
X118691913Y-96037172D01*
X118849311Y-96084918D01*
X118971981Y-96097000D01*
X118971982Y-96097000D01*
X119013000Y-96101040D01*
X119054018Y-96097000D01*
X119236393Y-96097000D01*
X119288518Y-96112812D01*
X119413000Y-96125072D01*
X120863000Y-96125072D01*
X120987482Y-96112812D01*
X121107180Y-96076502D01*
X121217494Y-96017537D01*
X121314185Y-95938185D01*
X121393537Y-95841494D01*
X121452502Y-95731180D01*
X121488812Y-95611482D01*
X121501072Y-95487000D01*
X121501072Y-95037000D01*
X121500378Y-95029957D01*
X121586061Y-95047000D01*
X121753000Y-95047000D01*
X121753000Y-96971907D01*
X121697744Y-96994795D01*
X121528226Y-97108063D01*
X121384063Y-97252226D01*
X121270795Y-97421744D01*
X121192774Y-97610102D01*
X121163908Y-97755225D01*
X120442133Y-98477000D01*
X117226454Y-98477000D01*
X117178256Y-98444795D01*
X116989898Y-98366774D01*
X116789939Y-98327000D01*
X116586061Y-98327000D01*
X116386102Y-98366774D01*
X116197744Y-98444795D01*
X116149546Y-98477000D01*
X115033868Y-98477000D01*
X114496658Y-97939791D01*
X114484282Y-97924711D01*
X114397289Y-97818709D01*
X114365426Y-97792560D01*
X113418288Y-96845423D01*
X113491937Y-96771774D01*
X113605205Y-96602256D01*
X113683226Y-96413898D01*
X113723000Y-96213939D01*
X113723000Y-96125072D01*
X114963000Y-96125072D01*
X115087482Y-96112812D01*
X115139607Y-96097000D01*
X115642133Y-96097000D01*
X116663908Y-97118775D01*
X116692774Y-97263898D01*
X116770795Y-97452256D01*
X116884063Y-97621774D01*
X117028226Y-97765937D01*
X117197744Y-97879205D01*
X117386102Y-97957226D01*
X117586061Y-97997000D01*
X117789939Y-97997000D01*
X117989898Y-97957226D01*
X118178256Y-97879205D01*
X118347774Y-97765937D01*
X118491937Y-97621774D01*
X118605205Y-97452256D01*
X118683226Y-97263898D01*
X118723000Y-97063939D01*
X118723000Y-96860061D01*
X118683226Y-96660102D01*
X118605205Y-96471744D01*
X118491937Y-96302226D01*
X118347774Y-96158063D01*
X118178256Y-96044795D01*
X117989898Y-95966774D01*
X117844775Y-95937908D01*
X116688867Y-94782000D01*
X117074715Y-94782000D01*
X117197744Y-94864205D01*
G36*
X116341368Y-87865475D02*
G01*
X116584589Y-88027990D01*
X116854842Y-88139932D01*
X117141740Y-88197000D01*
X117434260Y-88197000D01*
X117565940Y-88170807D01*
X119268559Y-89873427D01*
X119294709Y-89905291D01*
X119421854Y-90009636D01*
X119566913Y-90087172D01*
X119724311Y-90134918D01*
X119846981Y-90147000D01*
X119846991Y-90147000D01*
X119887999Y-90151039D01*
X119929007Y-90147000D01*
X121753001Y-90147000D01*
X121753001Y-91977000D01*
X121586061Y-91977000D01*
X121501072Y-91993905D01*
X121501072Y-91787000D01*
X121491223Y-91687000D01*
X121501072Y-91587000D01*
X121501072Y-91137000D01*
X121488812Y-91012518D01*
X121452502Y-90892820D01*
X121393537Y-90782506D01*
X121314185Y-90685815D01*
X121217494Y-90606463D01*
X121107180Y-90547498D01*
X120987482Y-90511188D01*
X120863000Y-90498928D01*
X119413000Y-90498928D01*
X119288518Y-90511188D01*
X119168820Y-90547498D01*
X119058506Y-90606463D01*
X118961815Y-90685815D01*
X118882463Y-90782506D01*
X118836104Y-90869236D01*
X116011214Y-88044347D01*
X116049185Y-88013185D01*
X116128537Y-87916494D01*
X116187502Y-87806180D01*
X116209513Y-87733620D01*
X116341368Y-87865475D01*
G37*
X116341368Y-87865475D02*
X116584589Y-88027990D01*
X116854842Y-88139932D01*
X117141740Y-88197000D01*
X117434260Y-88197000D01*
X117565940Y-88170807D01*
X119268559Y-89873427D01*
X119294709Y-89905291D01*
X119421854Y-90009636D01*
X119566913Y-90087172D01*
X119724311Y-90134918D01*
X119846981Y-90147000D01*
X119846991Y-90147000D01*
X119887999Y-90151039D01*
X119929007Y-90147000D01*
X121753001Y-90147000D01*
X121753001Y-91977000D01*
X121586061Y-91977000D01*
X121501072Y-91993905D01*
X121501072Y-91787000D01*
X121491223Y-91687000D01*
X121501072Y-91587000D01*
X121501072Y-91137000D01*
X121488812Y-91012518D01*
X121452502Y-90892820D01*
X121393537Y-90782506D01*
X121314185Y-90685815D01*
X121217494Y-90606463D01*
X121107180Y-90547498D01*
X120987482Y-90511188D01*
X120863000Y-90498928D01*
X119413000Y-90498928D01*
X119288518Y-90511188D01*
X119168820Y-90547498D01*
X119058506Y-90606463D01*
X118961815Y-90685815D01*
X118882463Y-90782506D01*
X118836104Y-90869236D01*
X116011214Y-88044347D01*
X116049185Y-88013185D01*
X116128537Y-87916494D01*
X116187502Y-87806180D01*
X116209513Y-87733620D01*
X116341368Y-87865475D01*
M02*
