G04 #@! TF.GenerationSoftware,KiCad,Pcbnew,(5.1.5-0-10_14)*
G04 #@! TF.CreationDate,2020-09-28T19:56:29+02:00*
G04 #@! TF.ProjectId,Encoder,456e636f-6465-4722-9e6b-696361645f70,1.1*
G04 #@! TF.SameCoordinates,Original*
G04 #@! TF.FileFunction,Soldermask,Bot*
G04 #@! TF.FilePolarity,Negative*
%FSLAX46Y46*%
G04 Gerber Fmt 4.6, Leading zero omitted, Abs format (unit mm)*
G04 Created by KiCad (PCBNEW (5.1.5-0-10_14)) date 2020-09-28 19:56:29*
%MOMM*%
%LPD*%
G04 APERTURE LIST*
%ADD10C,0.100000*%
G04 APERTURE END LIST*
D10*
G36*
X120914000Y-95538000D02*
G01*
X119362000Y-95538000D01*
X119362000Y-91086000D01*
X120914000Y-91086000D01*
X120914000Y-95538000D01*
G37*
G36*
X115014000Y-95538000D02*
G01*
X113462000Y-95538000D01*
X113462000Y-91086000D01*
X115014000Y-91086000D01*
X115014000Y-95538000D01*
G37*
G36*
X125912549Y-92183116D02*
G01*
X126023734Y-92205232D01*
X126171850Y-92266584D01*
X126223554Y-92288000D01*
X126233203Y-92291997D01*
X126421720Y-92417960D01*
X126582040Y-92578280D01*
X126708003Y-92766797D01*
X126794768Y-92976266D01*
X126839000Y-93198636D01*
X126839000Y-93425364D01*
X126794768Y-93647734D01*
X126708003Y-93857203D01*
X126582040Y-94045720D01*
X126421720Y-94206040D01*
X126233203Y-94332003D01*
X126233202Y-94332004D01*
X126233201Y-94332004D01*
X126171850Y-94357416D01*
X126023734Y-94418768D01*
X125912549Y-94440884D01*
X125801365Y-94463000D01*
X125574635Y-94463000D01*
X125463451Y-94440884D01*
X125352266Y-94418768D01*
X125204150Y-94357416D01*
X125142799Y-94332004D01*
X125142798Y-94332004D01*
X125142797Y-94332003D01*
X124954280Y-94206040D01*
X124793960Y-94045720D01*
X124667997Y-93857203D01*
X124581232Y-93647734D01*
X124537000Y-93425364D01*
X124537000Y-93198636D01*
X124581232Y-92976266D01*
X124667997Y-92766797D01*
X124793960Y-92578280D01*
X124954280Y-92417960D01*
X125142797Y-92291997D01*
X125152447Y-92288000D01*
X125204150Y-92266584D01*
X125352266Y-92205232D01*
X125463451Y-92183116D01*
X125574635Y-92161000D01*
X125801365Y-92161000D01*
X125912549Y-92183116D01*
G37*
G36*
X108912549Y-92183116D02*
G01*
X109023734Y-92205232D01*
X109171850Y-92266584D01*
X109223554Y-92288000D01*
X109233203Y-92291997D01*
X109421720Y-92417960D01*
X109582040Y-92578280D01*
X109708003Y-92766797D01*
X109794768Y-92976266D01*
X109839000Y-93198636D01*
X109839000Y-93425364D01*
X109794768Y-93647734D01*
X109708003Y-93857203D01*
X109582040Y-94045720D01*
X109421720Y-94206040D01*
X109233203Y-94332003D01*
X109233202Y-94332004D01*
X109233201Y-94332004D01*
X109171850Y-94357416D01*
X109023734Y-94418768D01*
X108912549Y-94440884D01*
X108801365Y-94463000D01*
X108574635Y-94463000D01*
X108463451Y-94440884D01*
X108352266Y-94418768D01*
X108204150Y-94357416D01*
X108142799Y-94332004D01*
X108142798Y-94332004D01*
X108142797Y-94332003D01*
X107954280Y-94206040D01*
X107793960Y-94045720D01*
X107667997Y-93857203D01*
X107581232Y-93647734D01*
X107537000Y-93425364D01*
X107537000Y-93198636D01*
X107581232Y-92976266D01*
X107667997Y-92766797D01*
X107793960Y-92578280D01*
X107954280Y-92417960D01*
X108142797Y-92291997D01*
X108152447Y-92288000D01*
X108204150Y-92266584D01*
X108352266Y-92205232D01*
X108463451Y-92183116D01*
X108574635Y-92161000D01*
X108801365Y-92161000D01*
X108912549Y-92183116D01*
G37*
G36*
X119941512Y-85815927D02*
G01*
X120090812Y-85845624D01*
X120254784Y-85913544D01*
X120402354Y-86012147D01*
X120527853Y-86137646D01*
X120626456Y-86285216D01*
X120694376Y-86449188D01*
X120729000Y-86623259D01*
X120729000Y-86800741D01*
X120694376Y-86974812D01*
X120626456Y-87138784D01*
X120527853Y-87286354D01*
X120402354Y-87411853D01*
X120254784Y-87510456D01*
X120090812Y-87578376D01*
X119941512Y-87608073D01*
X119916742Y-87613000D01*
X119739258Y-87613000D01*
X119714488Y-87608073D01*
X119565188Y-87578376D01*
X119401216Y-87510456D01*
X119253646Y-87411853D01*
X119128147Y-87286354D01*
X119029544Y-87138784D01*
X118961624Y-86974812D01*
X118927000Y-86800741D01*
X118927000Y-86623259D01*
X118961624Y-86449188D01*
X119029544Y-86285216D01*
X119128147Y-86137646D01*
X119253646Y-86012147D01*
X119401216Y-85913544D01*
X119565188Y-85845624D01*
X119714488Y-85815927D01*
X119739258Y-85811000D01*
X119916742Y-85811000D01*
X119941512Y-85815927D01*
G37*
G36*
X117401512Y-85815927D02*
G01*
X117550812Y-85845624D01*
X117714784Y-85913544D01*
X117862354Y-86012147D01*
X117987853Y-86137646D01*
X118086456Y-86285216D01*
X118154376Y-86449188D01*
X118189000Y-86623259D01*
X118189000Y-86800741D01*
X118154376Y-86974812D01*
X118086456Y-87138784D01*
X117987853Y-87286354D01*
X117862354Y-87411853D01*
X117714784Y-87510456D01*
X117550812Y-87578376D01*
X117401512Y-87608073D01*
X117376742Y-87613000D01*
X117199258Y-87613000D01*
X117174488Y-87608073D01*
X117025188Y-87578376D01*
X116861216Y-87510456D01*
X116713646Y-87411853D01*
X116588147Y-87286354D01*
X116489544Y-87138784D01*
X116421624Y-86974812D01*
X116387000Y-86800741D01*
X116387000Y-86623259D01*
X116421624Y-86449188D01*
X116489544Y-86285216D01*
X116588147Y-86137646D01*
X116713646Y-86012147D01*
X116861216Y-85913544D01*
X117025188Y-85845624D01*
X117174488Y-85815927D01*
X117199258Y-85811000D01*
X117376742Y-85811000D01*
X117401512Y-85815927D01*
G37*
G36*
X115649000Y-87613000D02*
G01*
X113847000Y-87613000D01*
X113847000Y-85811000D01*
X115649000Y-85811000D01*
X115649000Y-87613000D01*
G37*
M02*
