G04 #@! TF.GenerationSoftware,KiCad,Pcbnew,(5.1.5-0-10_14)*
G04 #@! TF.CreationDate,2020-09-28T19:56:29+02:00*
G04 #@! TF.ProjectId,Encoder,456e636f-6465-4722-9e6b-696361645f70,1.1*
G04 #@! TF.SameCoordinates,Original*
G04 #@! TF.FileFunction,Copper,L1,Top*
G04 #@! TF.FilePolarity,Positive*
%FSLAX46Y46*%
G04 Gerber Fmt 4.6, Leading zero omitted, Abs format (unit mm)*
G04 Created by KiCad (PCBNEW (5.1.5-0-10_14)) date 2020-09-28 19:56:29*
%MOMM*%
%LPD*%
G04 APERTURE LIST*
%ADD10C,0.100000*%
%ADD11O,1.700000X1.700000*%
%ADD12R,1.700000X1.700000*%
%ADD13C,0.800000*%
%ADD14C,0.400000*%
%ADD15C,0.254000*%
G04 APERTURE END LIST*
G04 #@! TA.AperFunction,SMDPad,CuDef*
D10*
G36*
X121864958Y-95692710D02*
G01*
X121879276Y-95694834D01*
X121893317Y-95698351D01*
X121906946Y-95703228D01*
X121920031Y-95709417D01*
X121932447Y-95716858D01*
X121944073Y-95725481D01*
X121954798Y-95735202D01*
X121964519Y-95745927D01*
X121973142Y-95757553D01*
X121980583Y-95769969D01*
X121986772Y-95783054D01*
X121991649Y-95796683D01*
X121995166Y-95810724D01*
X121997290Y-95825042D01*
X121998000Y-95839500D01*
X121998000Y-96184500D01*
X121997290Y-96198958D01*
X121995166Y-96213276D01*
X121991649Y-96227317D01*
X121986772Y-96240946D01*
X121980583Y-96254031D01*
X121973142Y-96266447D01*
X121964519Y-96278073D01*
X121954798Y-96288798D01*
X121944073Y-96298519D01*
X121932447Y-96307142D01*
X121920031Y-96314583D01*
X121906946Y-96320772D01*
X121893317Y-96325649D01*
X121879276Y-96329166D01*
X121864958Y-96331290D01*
X121850500Y-96332000D01*
X121555500Y-96332000D01*
X121541042Y-96331290D01*
X121526724Y-96329166D01*
X121512683Y-96325649D01*
X121499054Y-96320772D01*
X121485969Y-96314583D01*
X121473553Y-96307142D01*
X121461927Y-96298519D01*
X121451202Y-96288798D01*
X121441481Y-96278073D01*
X121432858Y-96266447D01*
X121425417Y-96254031D01*
X121419228Y-96240946D01*
X121414351Y-96227317D01*
X121410834Y-96213276D01*
X121408710Y-96198958D01*
X121408000Y-96184500D01*
X121408000Y-95839500D01*
X121408710Y-95825042D01*
X121410834Y-95810724D01*
X121414351Y-95796683D01*
X121419228Y-95783054D01*
X121425417Y-95769969D01*
X121432858Y-95757553D01*
X121441481Y-95745927D01*
X121451202Y-95735202D01*
X121461927Y-95725481D01*
X121473553Y-95716858D01*
X121485969Y-95709417D01*
X121499054Y-95703228D01*
X121512683Y-95698351D01*
X121526724Y-95694834D01*
X121541042Y-95692710D01*
X121555500Y-95692000D01*
X121850500Y-95692000D01*
X121864958Y-95692710D01*
G37*
G04 #@! TD.AperFunction*
G04 #@! TA.AperFunction,SMDPad,CuDef*
G36*
X122834958Y-95692710D02*
G01*
X122849276Y-95694834D01*
X122863317Y-95698351D01*
X122876946Y-95703228D01*
X122890031Y-95709417D01*
X122902447Y-95716858D01*
X122914073Y-95725481D01*
X122924798Y-95735202D01*
X122934519Y-95745927D01*
X122943142Y-95757553D01*
X122950583Y-95769969D01*
X122956772Y-95783054D01*
X122961649Y-95796683D01*
X122965166Y-95810724D01*
X122967290Y-95825042D01*
X122968000Y-95839500D01*
X122968000Y-96184500D01*
X122967290Y-96198958D01*
X122965166Y-96213276D01*
X122961649Y-96227317D01*
X122956772Y-96240946D01*
X122950583Y-96254031D01*
X122943142Y-96266447D01*
X122934519Y-96278073D01*
X122924798Y-96288798D01*
X122914073Y-96298519D01*
X122902447Y-96307142D01*
X122890031Y-96314583D01*
X122876946Y-96320772D01*
X122863317Y-96325649D01*
X122849276Y-96329166D01*
X122834958Y-96331290D01*
X122820500Y-96332000D01*
X122525500Y-96332000D01*
X122511042Y-96331290D01*
X122496724Y-96329166D01*
X122482683Y-96325649D01*
X122469054Y-96320772D01*
X122455969Y-96314583D01*
X122443553Y-96307142D01*
X122431927Y-96298519D01*
X122421202Y-96288798D01*
X122411481Y-96278073D01*
X122402858Y-96266447D01*
X122395417Y-96254031D01*
X122389228Y-96240946D01*
X122384351Y-96227317D01*
X122380834Y-96213276D01*
X122378710Y-96198958D01*
X122378000Y-96184500D01*
X122378000Y-95839500D01*
X122378710Y-95825042D01*
X122380834Y-95810724D01*
X122384351Y-95796683D01*
X122389228Y-95783054D01*
X122395417Y-95769969D01*
X122402858Y-95757553D01*
X122411481Y-95745927D01*
X122421202Y-95735202D01*
X122431927Y-95725481D01*
X122443553Y-95716858D01*
X122455969Y-95709417D01*
X122469054Y-95703228D01*
X122482683Y-95698351D01*
X122496724Y-95694834D01*
X122511042Y-95692710D01*
X122525500Y-95692000D01*
X122820500Y-95692000D01*
X122834958Y-95692710D01*
G37*
G04 #@! TD.AperFunction*
D11*
X119828000Y-86712000D03*
X117288000Y-86712000D03*
D12*
X114748000Y-86712000D03*
G04 #@! TA.AperFunction,SMDPad,CuDef*
D10*
G36*
X122834958Y-96692710D02*
G01*
X122849276Y-96694834D01*
X122863317Y-96698351D01*
X122876946Y-96703228D01*
X122890031Y-96709417D01*
X122902447Y-96716858D01*
X122914073Y-96725481D01*
X122924798Y-96735202D01*
X122934519Y-96745927D01*
X122943142Y-96757553D01*
X122950583Y-96769969D01*
X122956772Y-96783054D01*
X122961649Y-96796683D01*
X122965166Y-96810724D01*
X122967290Y-96825042D01*
X122968000Y-96839500D01*
X122968000Y-97184500D01*
X122967290Y-97198958D01*
X122965166Y-97213276D01*
X122961649Y-97227317D01*
X122956772Y-97240946D01*
X122950583Y-97254031D01*
X122943142Y-97266447D01*
X122934519Y-97278073D01*
X122924798Y-97288798D01*
X122914073Y-97298519D01*
X122902447Y-97307142D01*
X122890031Y-97314583D01*
X122876946Y-97320772D01*
X122863317Y-97325649D01*
X122849276Y-97329166D01*
X122834958Y-97331290D01*
X122820500Y-97332000D01*
X122525500Y-97332000D01*
X122511042Y-97331290D01*
X122496724Y-97329166D01*
X122482683Y-97325649D01*
X122469054Y-97320772D01*
X122455969Y-97314583D01*
X122443553Y-97307142D01*
X122431927Y-97298519D01*
X122421202Y-97288798D01*
X122411481Y-97278073D01*
X122402858Y-97266447D01*
X122395417Y-97254031D01*
X122389228Y-97240946D01*
X122384351Y-97227317D01*
X122380834Y-97213276D01*
X122378710Y-97198958D01*
X122378000Y-97184500D01*
X122378000Y-96839500D01*
X122378710Y-96825042D01*
X122380834Y-96810724D01*
X122384351Y-96796683D01*
X122389228Y-96783054D01*
X122395417Y-96769969D01*
X122402858Y-96757553D01*
X122411481Y-96745927D01*
X122421202Y-96735202D01*
X122431927Y-96725481D01*
X122443553Y-96716858D01*
X122455969Y-96709417D01*
X122469054Y-96703228D01*
X122482683Y-96698351D01*
X122496724Y-96694834D01*
X122511042Y-96692710D01*
X122525500Y-96692000D01*
X122820500Y-96692000D01*
X122834958Y-96692710D01*
G37*
G04 #@! TD.AperFunction*
G04 #@! TA.AperFunction,SMDPad,CuDef*
G36*
X121864958Y-96692710D02*
G01*
X121879276Y-96694834D01*
X121893317Y-96698351D01*
X121906946Y-96703228D01*
X121920031Y-96709417D01*
X121932447Y-96716858D01*
X121944073Y-96725481D01*
X121954798Y-96735202D01*
X121964519Y-96745927D01*
X121973142Y-96757553D01*
X121980583Y-96769969D01*
X121986772Y-96783054D01*
X121991649Y-96796683D01*
X121995166Y-96810724D01*
X121997290Y-96825042D01*
X121998000Y-96839500D01*
X121998000Y-97184500D01*
X121997290Y-97198958D01*
X121995166Y-97213276D01*
X121991649Y-97227317D01*
X121986772Y-97240946D01*
X121980583Y-97254031D01*
X121973142Y-97266447D01*
X121964519Y-97278073D01*
X121954798Y-97288798D01*
X121944073Y-97298519D01*
X121932447Y-97307142D01*
X121920031Y-97314583D01*
X121906946Y-97320772D01*
X121893317Y-97325649D01*
X121879276Y-97329166D01*
X121864958Y-97331290D01*
X121850500Y-97332000D01*
X121555500Y-97332000D01*
X121541042Y-97331290D01*
X121526724Y-97329166D01*
X121512683Y-97325649D01*
X121499054Y-97320772D01*
X121485969Y-97314583D01*
X121473553Y-97307142D01*
X121461927Y-97298519D01*
X121451202Y-97288798D01*
X121441481Y-97278073D01*
X121432858Y-97266447D01*
X121425417Y-97254031D01*
X121419228Y-97240946D01*
X121414351Y-97227317D01*
X121410834Y-97213276D01*
X121408710Y-97198958D01*
X121408000Y-97184500D01*
X121408000Y-96839500D01*
X121408710Y-96825042D01*
X121410834Y-96810724D01*
X121414351Y-96796683D01*
X121419228Y-96783054D01*
X121425417Y-96769969D01*
X121432858Y-96757553D01*
X121441481Y-96745927D01*
X121451202Y-96735202D01*
X121461927Y-96725481D01*
X121473553Y-96716858D01*
X121485969Y-96709417D01*
X121499054Y-96703228D01*
X121512683Y-96698351D01*
X121526724Y-96694834D01*
X121541042Y-96692710D01*
X121555500Y-96692000D01*
X121850500Y-96692000D01*
X121864958Y-96692710D01*
G37*
G04 #@! TD.AperFunction*
G04 #@! TA.AperFunction,SMDPad,CuDef*
G36*
X120362505Y-98488204D02*
G01*
X120386773Y-98491804D01*
X120410572Y-98497765D01*
X120433671Y-98506030D01*
X120455850Y-98516520D01*
X120476893Y-98529132D01*
X120496599Y-98543747D01*
X120514777Y-98560223D01*
X120531253Y-98578401D01*
X120545868Y-98598107D01*
X120558480Y-98619150D01*
X120568970Y-98641329D01*
X120577235Y-98664428D01*
X120583196Y-98688227D01*
X120586796Y-98712495D01*
X120588000Y-98736999D01*
X120588000Y-100037001D01*
X120586796Y-100061505D01*
X120583196Y-100085773D01*
X120577235Y-100109572D01*
X120568970Y-100132671D01*
X120558480Y-100154850D01*
X120545868Y-100175893D01*
X120531253Y-100195599D01*
X120514777Y-100213777D01*
X120496599Y-100230253D01*
X120476893Y-100244868D01*
X120455850Y-100257480D01*
X120433671Y-100267970D01*
X120410572Y-100276235D01*
X120386773Y-100282196D01*
X120362505Y-100285796D01*
X120338001Y-100287000D01*
X119637999Y-100287000D01*
X119613495Y-100285796D01*
X119589227Y-100282196D01*
X119565428Y-100276235D01*
X119542329Y-100267970D01*
X119520150Y-100257480D01*
X119499107Y-100244868D01*
X119479401Y-100230253D01*
X119461223Y-100213777D01*
X119444747Y-100195599D01*
X119430132Y-100175893D01*
X119417520Y-100154850D01*
X119407030Y-100132671D01*
X119398765Y-100109572D01*
X119392804Y-100085773D01*
X119389204Y-100061505D01*
X119388000Y-100037001D01*
X119388000Y-98736999D01*
X119389204Y-98712495D01*
X119392804Y-98688227D01*
X119398765Y-98664428D01*
X119407030Y-98641329D01*
X119417520Y-98619150D01*
X119430132Y-98598107D01*
X119444747Y-98578401D01*
X119461223Y-98560223D01*
X119479401Y-98543747D01*
X119499107Y-98529132D01*
X119520150Y-98516520D01*
X119542329Y-98506030D01*
X119565428Y-98497765D01*
X119589227Y-98491804D01*
X119613495Y-98488204D01*
X119637999Y-98487000D01*
X120338001Y-98487000D01*
X120362505Y-98488204D01*
G37*
G04 #@! TD.AperFunction*
G04 #@! TA.AperFunction,SMDPad,CuDef*
G36*
X114762505Y-98488204D02*
G01*
X114786773Y-98491804D01*
X114810572Y-98497765D01*
X114833671Y-98506030D01*
X114855850Y-98516520D01*
X114876893Y-98529132D01*
X114896599Y-98543747D01*
X114914777Y-98560223D01*
X114931253Y-98578401D01*
X114945868Y-98598107D01*
X114958480Y-98619150D01*
X114968970Y-98641329D01*
X114977235Y-98664428D01*
X114983196Y-98688227D01*
X114986796Y-98712495D01*
X114988000Y-98736999D01*
X114988000Y-100037001D01*
X114986796Y-100061505D01*
X114983196Y-100085773D01*
X114977235Y-100109572D01*
X114968970Y-100132671D01*
X114958480Y-100154850D01*
X114945868Y-100175893D01*
X114931253Y-100195599D01*
X114914777Y-100213777D01*
X114896599Y-100230253D01*
X114876893Y-100244868D01*
X114855850Y-100257480D01*
X114833671Y-100267970D01*
X114810572Y-100276235D01*
X114786773Y-100282196D01*
X114762505Y-100285796D01*
X114738001Y-100287000D01*
X114037999Y-100287000D01*
X114013495Y-100285796D01*
X113989227Y-100282196D01*
X113965428Y-100276235D01*
X113942329Y-100267970D01*
X113920150Y-100257480D01*
X113899107Y-100244868D01*
X113879401Y-100230253D01*
X113861223Y-100213777D01*
X113844747Y-100195599D01*
X113830132Y-100175893D01*
X113817520Y-100154850D01*
X113807030Y-100132671D01*
X113798765Y-100109572D01*
X113792804Y-100085773D01*
X113789204Y-100061505D01*
X113788000Y-100037001D01*
X113788000Y-98736999D01*
X113789204Y-98712495D01*
X113792804Y-98688227D01*
X113798765Y-98664428D01*
X113807030Y-98641329D01*
X113817520Y-98619150D01*
X113830132Y-98598107D01*
X113844747Y-98578401D01*
X113861223Y-98560223D01*
X113879401Y-98543747D01*
X113899107Y-98529132D01*
X113920150Y-98516520D01*
X113942329Y-98506030D01*
X113965428Y-98497765D01*
X113989227Y-98491804D01*
X114013495Y-98488204D01*
X114037999Y-98487000D01*
X114738001Y-98487000D01*
X114762505Y-98488204D01*
G37*
G04 #@! TD.AperFunction*
G04 #@! TA.AperFunction,SMDPad,CuDef*
G36*
X118852703Y-94737722D02*
G01*
X118867264Y-94739882D01*
X118881543Y-94743459D01*
X118895403Y-94748418D01*
X118908710Y-94754712D01*
X118921336Y-94762280D01*
X118933159Y-94771048D01*
X118944066Y-94780934D01*
X118953952Y-94791841D01*
X118962720Y-94803664D01*
X118970288Y-94816290D01*
X118976582Y-94829597D01*
X118981541Y-94843457D01*
X118985118Y-94857736D01*
X118987278Y-94872297D01*
X118988000Y-94887000D01*
X118988000Y-96137000D01*
X118987278Y-96151703D01*
X118985118Y-96166264D01*
X118981541Y-96180543D01*
X118976582Y-96194403D01*
X118970288Y-96207710D01*
X118962720Y-96220336D01*
X118953952Y-96232159D01*
X118944066Y-96243066D01*
X118933159Y-96252952D01*
X118921336Y-96261720D01*
X118908710Y-96269288D01*
X118895403Y-96275582D01*
X118881543Y-96280541D01*
X118867264Y-96284118D01*
X118852703Y-96286278D01*
X118838000Y-96287000D01*
X118538000Y-96287000D01*
X118523297Y-96286278D01*
X118508736Y-96284118D01*
X118494457Y-96280541D01*
X118480597Y-96275582D01*
X118467290Y-96269288D01*
X118454664Y-96261720D01*
X118442841Y-96252952D01*
X118431934Y-96243066D01*
X118422048Y-96232159D01*
X118413280Y-96220336D01*
X118405712Y-96207710D01*
X118399418Y-96194403D01*
X118394459Y-96180543D01*
X118390882Y-96166264D01*
X118388722Y-96151703D01*
X118388000Y-96137000D01*
X118388000Y-94887000D01*
X118388722Y-94872297D01*
X118390882Y-94857736D01*
X118394459Y-94843457D01*
X118399418Y-94829597D01*
X118405712Y-94816290D01*
X118413280Y-94803664D01*
X118422048Y-94791841D01*
X118431934Y-94780934D01*
X118442841Y-94771048D01*
X118454664Y-94762280D01*
X118467290Y-94754712D01*
X118480597Y-94748418D01*
X118494457Y-94743459D01*
X118508736Y-94739882D01*
X118523297Y-94737722D01*
X118538000Y-94737000D01*
X118838000Y-94737000D01*
X118852703Y-94737722D01*
G37*
G04 #@! TD.AperFunction*
G04 #@! TA.AperFunction,SMDPad,CuDef*
G36*
X117852703Y-94737722D02*
G01*
X117867264Y-94739882D01*
X117881543Y-94743459D01*
X117895403Y-94748418D01*
X117908710Y-94754712D01*
X117921336Y-94762280D01*
X117933159Y-94771048D01*
X117944066Y-94780934D01*
X117953952Y-94791841D01*
X117962720Y-94803664D01*
X117970288Y-94816290D01*
X117976582Y-94829597D01*
X117981541Y-94843457D01*
X117985118Y-94857736D01*
X117987278Y-94872297D01*
X117988000Y-94887000D01*
X117988000Y-96137000D01*
X117987278Y-96151703D01*
X117985118Y-96166264D01*
X117981541Y-96180543D01*
X117976582Y-96194403D01*
X117970288Y-96207710D01*
X117962720Y-96220336D01*
X117953952Y-96232159D01*
X117944066Y-96243066D01*
X117933159Y-96252952D01*
X117921336Y-96261720D01*
X117908710Y-96269288D01*
X117895403Y-96275582D01*
X117881543Y-96280541D01*
X117867264Y-96284118D01*
X117852703Y-96286278D01*
X117838000Y-96287000D01*
X117538000Y-96287000D01*
X117523297Y-96286278D01*
X117508736Y-96284118D01*
X117494457Y-96280541D01*
X117480597Y-96275582D01*
X117467290Y-96269288D01*
X117454664Y-96261720D01*
X117442841Y-96252952D01*
X117431934Y-96243066D01*
X117422048Y-96232159D01*
X117413280Y-96220336D01*
X117405712Y-96207710D01*
X117399418Y-96194403D01*
X117394459Y-96180543D01*
X117390882Y-96166264D01*
X117388722Y-96151703D01*
X117388000Y-96137000D01*
X117388000Y-94887000D01*
X117388722Y-94872297D01*
X117390882Y-94857736D01*
X117394459Y-94843457D01*
X117399418Y-94829597D01*
X117405712Y-94816290D01*
X117413280Y-94803664D01*
X117422048Y-94791841D01*
X117431934Y-94780934D01*
X117442841Y-94771048D01*
X117454664Y-94762280D01*
X117467290Y-94754712D01*
X117480597Y-94748418D01*
X117494457Y-94743459D01*
X117508736Y-94739882D01*
X117523297Y-94737722D01*
X117538000Y-94737000D01*
X117838000Y-94737000D01*
X117852703Y-94737722D01*
G37*
G04 #@! TD.AperFunction*
G04 #@! TA.AperFunction,SMDPad,CuDef*
G36*
X116852703Y-94737722D02*
G01*
X116867264Y-94739882D01*
X116881543Y-94743459D01*
X116895403Y-94748418D01*
X116908710Y-94754712D01*
X116921336Y-94762280D01*
X116933159Y-94771048D01*
X116944066Y-94780934D01*
X116953952Y-94791841D01*
X116962720Y-94803664D01*
X116970288Y-94816290D01*
X116976582Y-94829597D01*
X116981541Y-94843457D01*
X116985118Y-94857736D01*
X116987278Y-94872297D01*
X116988000Y-94887000D01*
X116988000Y-96137000D01*
X116987278Y-96151703D01*
X116985118Y-96166264D01*
X116981541Y-96180543D01*
X116976582Y-96194403D01*
X116970288Y-96207710D01*
X116962720Y-96220336D01*
X116953952Y-96232159D01*
X116944066Y-96243066D01*
X116933159Y-96252952D01*
X116921336Y-96261720D01*
X116908710Y-96269288D01*
X116895403Y-96275582D01*
X116881543Y-96280541D01*
X116867264Y-96284118D01*
X116852703Y-96286278D01*
X116838000Y-96287000D01*
X116538000Y-96287000D01*
X116523297Y-96286278D01*
X116508736Y-96284118D01*
X116494457Y-96280541D01*
X116480597Y-96275582D01*
X116467290Y-96269288D01*
X116454664Y-96261720D01*
X116442841Y-96252952D01*
X116431934Y-96243066D01*
X116422048Y-96232159D01*
X116413280Y-96220336D01*
X116405712Y-96207710D01*
X116399418Y-96194403D01*
X116394459Y-96180543D01*
X116390882Y-96166264D01*
X116388722Y-96151703D01*
X116388000Y-96137000D01*
X116388000Y-94887000D01*
X116388722Y-94872297D01*
X116390882Y-94857736D01*
X116394459Y-94843457D01*
X116399418Y-94829597D01*
X116405712Y-94816290D01*
X116413280Y-94803664D01*
X116422048Y-94791841D01*
X116431934Y-94780934D01*
X116442841Y-94771048D01*
X116454664Y-94762280D01*
X116467290Y-94754712D01*
X116480597Y-94748418D01*
X116494457Y-94743459D01*
X116508736Y-94739882D01*
X116523297Y-94737722D01*
X116538000Y-94737000D01*
X116838000Y-94737000D01*
X116852703Y-94737722D01*
G37*
G04 #@! TD.AperFunction*
G04 #@! TA.AperFunction,SMDPad,CuDef*
G36*
X115852703Y-94737722D02*
G01*
X115867264Y-94739882D01*
X115881543Y-94743459D01*
X115895403Y-94748418D01*
X115908710Y-94754712D01*
X115921336Y-94762280D01*
X115933159Y-94771048D01*
X115944066Y-94780934D01*
X115953952Y-94791841D01*
X115962720Y-94803664D01*
X115970288Y-94816290D01*
X115976582Y-94829597D01*
X115981541Y-94843457D01*
X115985118Y-94857736D01*
X115987278Y-94872297D01*
X115988000Y-94887000D01*
X115988000Y-96137000D01*
X115987278Y-96151703D01*
X115985118Y-96166264D01*
X115981541Y-96180543D01*
X115976582Y-96194403D01*
X115970288Y-96207710D01*
X115962720Y-96220336D01*
X115953952Y-96232159D01*
X115944066Y-96243066D01*
X115933159Y-96252952D01*
X115921336Y-96261720D01*
X115908710Y-96269288D01*
X115895403Y-96275582D01*
X115881543Y-96280541D01*
X115867264Y-96284118D01*
X115852703Y-96286278D01*
X115838000Y-96287000D01*
X115538000Y-96287000D01*
X115523297Y-96286278D01*
X115508736Y-96284118D01*
X115494457Y-96280541D01*
X115480597Y-96275582D01*
X115467290Y-96269288D01*
X115454664Y-96261720D01*
X115442841Y-96252952D01*
X115431934Y-96243066D01*
X115422048Y-96232159D01*
X115413280Y-96220336D01*
X115405712Y-96207710D01*
X115399418Y-96194403D01*
X115394459Y-96180543D01*
X115390882Y-96166264D01*
X115388722Y-96151703D01*
X115388000Y-96137000D01*
X115388000Y-94887000D01*
X115388722Y-94872297D01*
X115390882Y-94857736D01*
X115394459Y-94843457D01*
X115399418Y-94829597D01*
X115405712Y-94816290D01*
X115413280Y-94803664D01*
X115422048Y-94791841D01*
X115431934Y-94780934D01*
X115442841Y-94771048D01*
X115454664Y-94762280D01*
X115467290Y-94754712D01*
X115480597Y-94748418D01*
X115494457Y-94743459D01*
X115508736Y-94739882D01*
X115523297Y-94737722D01*
X115538000Y-94737000D01*
X115838000Y-94737000D01*
X115852703Y-94737722D01*
G37*
G04 #@! TD.AperFunction*
G04 #@! TA.AperFunction,SMDPad,CuDef*
G36*
X111774958Y-94202710D02*
G01*
X111789276Y-94204834D01*
X111803317Y-94208351D01*
X111816946Y-94213228D01*
X111830031Y-94219417D01*
X111842447Y-94226858D01*
X111854073Y-94235481D01*
X111864798Y-94245202D01*
X111874519Y-94255927D01*
X111883142Y-94267553D01*
X111890583Y-94279969D01*
X111896772Y-94293054D01*
X111901649Y-94306683D01*
X111905166Y-94320724D01*
X111907290Y-94335042D01*
X111908000Y-94349500D01*
X111908000Y-94644500D01*
X111907290Y-94658958D01*
X111905166Y-94673276D01*
X111901649Y-94687317D01*
X111896772Y-94700946D01*
X111890583Y-94714031D01*
X111883142Y-94726447D01*
X111874519Y-94738073D01*
X111864798Y-94748798D01*
X111854073Y-94758519D01*
X111842447Y-94767142D01*
X111830031Y-94774583D01*
X111816946Y-94780772D01*
X111803317Y-94785649D01*
X111789276Y-94789166D01*
X111774958Y-94791290D01*
X111760500Y-94792000D01*
X111415500Y-94792000D01*
X111401042Y-94791290D01*
X111386724Y-94789166D01*
X111372683Y-94785649D01*
X111359054Y-94780772D01*
X111345969Y-94774583D01*
X111333553Y-94767142D01*
X111321927Y-94758519D01*
X111311202Y-94748798D01*
X111301481Y-94738073D01*
X111292858Y-94726447D01*
X111285417Y-94714031D01*
X111279228Y-94700946D01*
X111274351Y-94687317D01*
X111270834Y-94673276D01*
X111268710Y-94658958D01*
X111268000Y-94644500D01*
X111268000Y-94349500D01*
X111268710Y-94335042D01*
X111270834Y-94320724D01*
X111274351Y-94306683D01*
X111279228Y-94293054D01*
X111285417Y-94279969D01*
X111292858Y-94267553D01*
X111301481Y-94255927D01*
X111311202Y-94245202D01*
X111321927Y-94235481D01*
X111333553Y-94226858D01*
X111345969Y-94219417D01*
X111359054Y-94213228D01*
X111372683Y-94208351D01*
X111386724Y-94204834D01*
X111401042Y-94202710D01*
X111415500Y-94202000D01*
X111760500Y-94202000D01*
X111774958Y-94202710D01*
G37*
G04 #@! TD.AperFunction*
G04 #@! TA.AperFunction,SMDPad,CuDef*
G36*
X111774958Y-93232710D02*
G01*
X111789276Y-93234834D01*
X111803317Y-93238351D01*
X111816946Y-93243228D01*
X111830031Y-93249417D01*
X111842447Y-93256858D01*
X111854073Y-93265481D01*
X111864798Y-93275202D01*
X111874519Y-93285927D01*
X111883142Y-93297553D01*
X111890583Y-93309969D01*
X111896772Y-93323054D01*
X111901649Y-93336683D01*
X111905166Y-93350724D01*
X111907290Y-93365042D01*
X111908000Y-93379500D01*
X111908000Y-93674500D01*
X111907290Y-93688958D01*
X111905166Y-93703276D01*
X111901649Y-93717317D01*
X111896772Y-93730946D01*
X111890583Y-93744031D01*
X111883142Y-93756447D01*
X111874519Y-93768073D01*
X111864798Y-93778798D01*
X111854073Y-93788519D01*
X111842447Y-93797142D01*
X111830031Y-93804583D01*
X111816946Y-93810772D01*
X111803317Y-93815649D01*
X111789276Y-93819166D01*
X111774958Y-93821290D01*
X111760500Y-93822000D01*
X111415500Y-93822000D01*
X111401042Y-93821290D01*
X111386724Y-93819166D01*
X111372683Y-93815649D01*
X111359054Y-93810772D01*
X111345969Y-93804583D01*
X111333553Y-93797142D01*
X111321927Y-93788519D01*
X111311202Y-93778798D01*
X111301481Y-93768073D01*
X111292858Y-93756447D01*
X111285417Y-93744031D01*
X111279228Y-93730946D01*
X111274351Y-93717317D01*
X111270834Y-93703276D01*
X111268710Y-93688958D01*
X111268000Y-93674500D01*
X111268000Y-93379500D01*
X111268710Y-93365042D01*
X111270834Y-93350724D01*
X111274351Y-93336683D01*
X111279228Y-93323054D01*
X111285417Y-93309969D01*
X111292858Y-93297553D01*
X111301481Y-93285927D01*
X111311202Y-93275202D01*
X111321927Y-93265481D01*
X111333553Y-93256858D01*
X111345969Y-93249417D01*
X111359054Y-93243228D01*
X111372683Y-93238351D01*
X111386724Y-93234834D01*
X111401042Y-93232710D01*
X111415500Y-93232000D01*
X111760500Y-93232000D01*
X111774958Y-93232710D01*
G37*
G04 #@! TD.AperFunction*
G04 #@! TA.AperFunction,SMDPad,CuDef*
G36*
X112474958Y-91032710D02*
G01*
X112489276Y-91034834D01*
X112503317Y-91038351D01*
X112516946Y-91043228D01*
X112530031Y-91049417D01*
X112542447Y-91056858D01*
X112554073Y-91065481D01*
X112564798Y-91075202D01*
X112574519Y-91085927D01*
X112583142Y-91097553D01*
X112590583Y-91109969D01*
X112596772Y-91123054D01*
X112601649Y-91136683D01*
X112605166Y-91150724D01*
X112607290Y-91165042D01*
X112608000Y-91179500D01*
X112608000Y-91474500D01*
X112607290Y-91488958D01*
X112605166Y-91503276D01*
X112601649Y-91517317D01*
X112596772Y-91530946D01*
X112590583Y-91544031D01*
X112583142Y-91556447D01*
X112574519Y-91568073D01*
X112564798Y-91578798D01*
X112554073Y-91588519D01*
X112542447Y-91597142D01*
X112530031Y-91604583D01*
X112516946Y-91610772D01*
X112503317Y-91615649D01*
X112489276Y-91619166D01*
X112474958Y-91621290D01*
X112460500Y-91622000D01*
X112115500Y-91622000D01*
X112101042Y-91621290D01*
X112086724Y-91619166D01*
X112072683Y-91615649D01*
X112059054Y-91610772D01*
X112045969Y-91604583D01*
X112033553Y-91597142D01*
X112021927Y-91588519D01*
X112011202Y-91578798D01*
X112001481Y-91568073D01*
X111992858Y-91556447D01*
X111985417Y-91544031D01*
X111979228Y-91530946D01*
X111974351Y-91517317D01*
X111970834Y-91503276D01*
X111968710Y-91488958D01*
X111968000Y-91474500D01*
X111968000Y-91179500D01*
X111968710Y-91165042D01*
X111970834Y-91150724D01*
X111974351Y-91136683D01*
X111979228Y-91123054D01*
X111985417Y-91109969D01*
X111992858Y-91097553D01*
X112001481Y-91085927D01*
X112011202Y-91075202D01*
X112021927Y-91065481D01*
X112033553Y-91056858D01*
X112045969Y-91049417D01*
X112059054Y-91043228D01*
X112072683Y-91038351D01*
X112086724Y-91034834D01*
X112101042Y-91032710D01*
X112115500Y-91032000D01*
X112460500Y-91032000D01*
X112474958Y-91032710D01*
G37*
G04 #@! TD.AperFunction*
G04 #@! TA.AperFunction,SMDPad,CuDef*
G36*
X112474958Y-92002710D02*
G01*
X112489276Y-92004834D01*
X112503317Y-92008351D01*
X112516946Y-92013228D01*
X112530031Y-92019417D01*
X112542447Y-92026858D01*
X112554073Y-92035481D01*
X112564798Y-92045202D01*
X112574519Y-92055927D01*
X112583142Y-92067553D01*
X112590583Y-92079969D01*
X112596772Y-92093054D01*
X112601649Y-92106683D01*
X112605166Y-92120724D01*
X112607290Y-92135042D01*
X112608000Y-92149500D01*
X112608000Y-92444500D01*
X112607290Y-92458958D01*
X112605166Y-92473276D01*
X112601649Y-92487317D01*
X112596772Y-92500946D01*
X112590583Y-92514031D01*
X112583142Y-92526447D01*
X112574519Y-92538073D01*
X112564798Y-92548798D01*
X112554073Y-92558519D01*
X112542447Y-92567142D01*
X112530031Y-92574583D01*
X112516946Y-92580772D01*
X112503317Y-92585649D01*
X112489276Y-92589166D01*
X112474958Y-92591290D01*
X112460500Y-92592000D01*
X112115500Y-92592000D01*
X112101042Y-92591290D01*
X112086724Y-92589166D01*
X112072683Y-92585649D01*
X112059054Y-92580772D01*
X112045969Y-92574583D01*
X112033553Y-92567142D01*
X112021927Y-92558519D01*
X112011202Y-92548798D01*
X112001481Y-92538073D01*
X111992858Y-92526447D01*
X111985417Y-92514031D01*
X111979228Y-92500946D01*
X111974351Y-92487317D01*
X111970834Y-92473276D01*
X111968710Y-92458958D01*
X111968000Y-92444500D01*
X111968000Y-92149500D01*
X111968710Y-92135042D01*
X111970834Y-92120724D01*
X111974351Y-92106683D01*
X111979228Y-92093054D01*
X111985417Y-92079969D01*
X111992858Y-92067553D01*
X112001481Y-92055927D01*
X112011202Y-92045202D01*
X112021927Y-92035481D01*
X112033553Y-92026858D01*
X112045969Y-92019417D01*
X112059054Y-92013228D01*
X112072683Y-92008351D01*
X112086724Y-92004834D01*
X112101042Y-92002710D01*
X112115500Y-92002000D01*
X112460500Y-92002000D01*
X112474958Y-92002710D01*
G37*
G04 #@! TD.AperFunction*
G04 #@! TA.AperFunction,SMDPad,CuDef*
G36*
X112874958Y-94902710D02*
G01*
X112889276Y-94904834D01*
X112903317Y-94908351D01*
X112916946Y-94913228D01*
X112930031Y-94919417D01*
X112942447Y-94926858D01*
X112954073Y-94935481D01*
X112964798Y-94945202D01*
X112974519Y-94955927D01*
X112983142Y-94967553D01*
X112990583Y-94979969D01*
X112996772Y-94993054D01*
X113001649Y-95006683D01*
X113005166Y-95020724D01*
X113007290Y-95035042D01*
X113008000Y-95049500D01*
X113008000Y-95344500D01*
X113007290Y-95358958D01*
X113005166Y-95373276D01*
X113001649Y-95387317D01*
X112996772Y-95400946D01*
X112990583Y-95414031D01*
X112983142Y-95426447D01*
X112974519Y-95438073D01*
X112964798Y-95448798D01*
X112954073Y-95458519D01*
X112942447Y-95467142D01*
X112930031Y-95474583D01*
X112916946Y-95480772D01*
X112903317Y-95485649D01*
X112889276Y-95489166D01*
X112874958Y-95491290D01*
X112860500Y-95492000D01*
X112515500Y-95492000D01*
X112501042Y-95491290D01*
X112486724Y-95489166D01*
X112472683Y-95485649D01*
X112459054Y-95480772D01*
X112445969Y-95474583D01*
X112433553Y-95467142D01*
X112421927Y-95458519D01*
X112411202Y-95448798D01*
X112401481Y-95438073D01*
X112392858Y-95426447D01*
X112385417Y-95414031D01*
X112379228Y-95400946D01*
X112374351Y-95387317D01*
X112370834Y-95373276D01*
X112368710Y-95358958D01*
X112368000Y-95344500D01*
X112368000Y-95049500D01*
X112368710Y-95035042D01*
X112370834Y-95020724D01*
X112374351Y-95006683D01*
X112379228Y-94993054D01*
X112385417Y-94979969D01*
X112392858Y-94967553D01*
X112401481Y-94955927D01*
X112411202Y-94945202D01*
X112421927Y-94935481D01*
X112433553Y-94926858D01*
X112445969Y-94919417D01*
X112459054Y-94913228D01*
X112472683Y-94908351D01*
X112486724Y-94904834D01*
X112501042Y-94902710D01*
X112515500Y-94902000D01*
X112860500Y-94902000D01*
X112874958Y-94902710D01*
G37*
G04 #@! TD.AperFunction*
G04 #@! TA.AperFunction,SMDPad,CuDef*
G36*
X112874958Y-93932710D02*
G01*
X112889276Y-93934834D01*
X112903317Y-93938351D01*
X112916946Y-93943228D01*
X112930031Y-93949417D01*
X112942447Y-93956858D01*
X112954073Y-93965481D01*
X112964798Y-93975202D01*
X112974519Y-93985927D01*
X112983142Y-93997553D01*
X112990583Y-94009969D01*
X112996772Y-94023054D01*
X113001649Y-94036683D01*
X113005166Y-94050724D01*
X113007290Y-94065042D01*
X113008000Y-94079500D01*
X113008000Y-94374500D01*
X113007290Y-94388958D01*
X113005166Y-94403276D01*
X113001649Y-94417317D01*
X112996772Y-94430946D01*
X112990583Y-94444031D01*
X112983142Y-94456447D01*
X112974519Y-94468073D01*
X112964798Y-94478798D01*
X112954073Y-94488519D01*
X112942447Y-94497142D01*
X112930031Y-94504583D01*
X112916946Y-94510772D01*
X112903317Y-94515649D01*
X112889276Y-94519166D01*
X112874958Y-94521290D01*
X112860500Y-94522000D01*
X112515500Y-94522000D01*
X112501042Y-94521290D01*
X112486724Y-94519166D01*
X112472683Y-94515649D01*
X112459054Y-94510772D01*
X112445969Y-94504583D01*
X112433553Y-94497142D01*
X112421927Y-94488519D01*
X112411202Y-94478798D01*
X112401481Y-94468073D01*
X112392858Y-94456447D01*
X112385417Y-94444031D01*
X112379228Y-94430946D01*
X112374351Y-94417317D01*
X112370834Y-94403276D01*
X112368710Y-94388958D01*
X112368000Y-94374500D01*
X112368000Y-94079500D01*
X112368710Y-94065042D01*
X112370834Y-94050724D01*
X112374351Y-94036683D01*
X112379228Y-94023054D01*
X112385417Y-94009969D01*
X112392858Y-93997553D01*
X112401481Y-93985927D01*
X112411202Y-93975202D01*
X112421927Y-93965481D01*
X112433553Y-93956858D01*
X112445969Y-93949417D01*
X112459054Y-93943228D01*
X112472683Y-93938351D01*
X112486724Y-93934834D01*
X112501042Y-93932710D01*
X112515500Y-93932000D01*
X112860500Y-93932000D01*
X112874958Y-93932710D01*
G37*
G04 #@! TD.AperFunction*
G04 #@! TA.AperFunction,SMDPad,CuDef*
G36*
X113974958Y-91002710D02*
G01*
X113989276Y-91004834D01*
X114003317Y-91008351D01*
X114016946Y-91013228D01*
X114030031Y-91019417D01*
X114042447Y-91026858D01*
X114054073Y-91035481D01*
X114064798Y-91045202D01*
X114074519Y-91055927D01*
X114083142Y-91067553D01*
X114090583Y-91079969D01*
X114096772Y-91093054D01*
X114101649Y-91106683D01*
X114105166Y-91120724D01*
X114107290Y-91135042D01*
X114108000Y-91149500D01*
X114108000Y-91444500D01*
X114107290Y-91458958D01*
X114105166Y-91473276D01*
X114101649Y-91487317D01*
X114096772Y-91500946D01*
X114090583Y-91514031D01*
X114083142Y-91526447D01*
X114074519Y-91538073D01*
X114064798Y-91548798D01*
X114054073Y-91558519D01*
X114042447Y-91567142D01*
X114030031Y-91574583D01*
X114016946Y-91580772D01*
X114003317Y-91585649D01*
X113989276Y-91589166D01*
X113974958Y-91591290D01*
X113960500Y-91592000D01*
X113615500Y-91592000D01*
X113601042Y-91591290D01*
X113586724Y-91589166D01*
X113572683Y-91585649D01*
X113559054Y-91580772D01*
X113545969Y-91574583D01*
X113533553Y-91567142D01*
X113521927Y-91558519D01*
X113511202Y-91548798D01*
X113501481Y-91538073D01*
X113492858Y-91526447D01*
X113485417Y-91514031D01*
X113479228Y-91500946D01*
X113474351Y-91487317D01*
X113470834Y-91473276D01*
X113468710Y-91458958D01*
X113468000Y-91444500D01*
X113468000Y-91149500D01*
X113468710Y-91135042D01*
X113470834Y-91120724D01*
X113474351Y-91106683D01*
X113479228Y-91093054D01*
X113485417Y-91079969D01*
X113492858Y-91067553D01*
X113501481Y-91055927D01*
X113511202Y-91045202D01*
X113521927Y-91035481D01*
X113533553Y-91026858D01*
X113545969Y-91019417D01*
X113559054Y-91013228D01*
X113572683Y-91008351D01*
X113586724Y-91004834D01*
X113601042Y-91002710D01*
X113615500Y-91002000D01*
X113960500Y-91002000D01*
X113974958Y-91002710D01*
G37*
G04 #@! TD.AperFunction*
G04 #@! TA.AperFunction,SMDPad,CuDef*
G36*
X113974958Y-90032710D02*
G01*
X113989276Y-90034834D01*
X114003317Y-90038351D01*
X114016946Y-90043228D01*
X114030031Y-90049417D01*
X114042447Y-90056858D01*
X114054073Y-90065481D01*
X114064798Y-90075202D01*
X114074519Y-90085927D01*
X114083142Y-90097553D01*
X114090583Y-90109969D01*
X114096772Y-90123054D01*
X114101649Y-90136683D01*
X114105166Y-90150724D01*
X114107290Y-90165042D01*
X114108000Y-90179500D01*
X114108000Y-90474500D01*
X114107290Y-90488958D01*
X114105166Y-90503276D01*
X114101649Y-90517317D01*
X114096772Y-90530946D01*
X114090583Y-90544031D01*
X114083142Y-90556447D01*
X114074519Y-90568073D01*
X114064798Y-90578798D01*
X114054073Y-90588519D01*
X114042447Y-90597142D01*
X114030031Y-90604583D01*
X114016946Y-90610772D01*
X114003317Y-90615649D01*
X113989276Y-90619166D01*
X113974958Y-90621290D01*
X113960500Y-90622000D01*
X113615500Y-90622000D01*
X113601042Y-90621290D01*
X113586724Y-90619166D01*
X113572683Y-90615649D01*
X113559054Y-90610772D01*
X113545969Y-90604583D01*
X113533553Y-90597142D01*
X113521927Y-90588519D01*
X113511202Y-90578798D01*
X113501481Y-90568073D01*
X113492858Y-90556447D01*
X113485417Y-90544031D01*
X113479228Y-90530946D01*
X113474351Y-90517317D01*
X113470834Y-90503276D01*
X113468710Y-90488958D01*
X113468000Y-90474500D01*
X113468000Y-90179500D01*
X113468710Y-90165042D01*
X113470834Y-90150724D01*
X113474351Y-90136683D01*
X113479228Y-90123054D01*
X113485417Y-90109969D01*
X113492858Y-90097553D01*
X113501481Y-90085927D01*
X113511202Y-90075202D01*
X113521927Y-90065481D01*
X113533553Y-90056858D01*
X113545969Y-90049417D01*
X113559054Y-90043228D01*
X113572683Y-90038351D01*
X113586724Y-90034834D01*
X113601042Y-90032710D01*
X113615500Y-90032000D01*
X113960500Y-90032000D01*
X113974958Y-90032710D01*
G37*
G04 #@! TD.AperFunction*
G04 #@! TA.AperFunction,SMDPad,CuDef*
G36*
X111295107Y-97106455D02*
G01*
X110411223Y-97283231D01*
X109704117Y-96576125D01*
X110764777Y-95515465D01*
X111471883Y-96222571D01*
X111295107Y-97106455D01*
G37*
G04 #@! TD.AperFunction*
G04 #@! TA.AperFunction,SMDPad,CuDef*
G36*
X111436527Y-98308535D02*
G01*
X110623355Y-97495363D01*
X111507238Y-97318586D01*
X111684015Y-96434703D01*
X112497187Y-97247875D01*
X111436527Y-98308535D01*
G37*
G04 #@! TD.AperFunction*
G04 #@! TA.AperFunction,SMDPad,CuDef*
G36*
X111295107Y-89504893D02*
G01*
X111471883Y-90388777D01*
X110764777Y-91095883D01*
X109704117Y-90035223D01*
X110411223Y-89328117D01*
X111295107Y-89504893D01*
G37*
G04 #@! TD.AperFunction*
G04 #@! TA.AperFunction,SMDPad,CuDef*
G36*
X112497187Y-89363473D02*
G01*
X111684015Y-90176645D01*
X111507238Y-89292762D01*
X110623355Y-89115985D01*
X111436527Y-88302813D01*
X112497187Y-89363473D01*
G37*
G04 #@! TD.AperFunction*
G04 #@! TA.AperFunction,SMDPad,CuDef*
G36*
X122993545Y-89517545D02*
G01*
X123877429Y-89340769D01*
X124584535Y-90047875D01*
X123523875Y-91108535D01*
X122816769Y-90401429D01*
X122993545Y-89517545D01*
G37*
G04 #@! TD.AperFunction*
G04 #@! TA.AperFunction,SMDPad,CuDef*
G36*
X122852125Y-88315465D02*
G01*
X123665297Y-89128637D01*
X122781414Y-89305414D01*
X122604637Y-90189297D01*
X121791465Y-89376125D01*
X122852125Y-88315465D01*
G37*
G04 #@! TD.AperFunction*
G04 #@! TA.AperFunction,SMDPad,CuDef*
G36*
X121834958Y-91692710D02*
G01*
X121849276Y-91694834D01*
X121863317Y-91698351D01*
X121876946Y-91703228D01*
X121890031Y-91709417D01*
X121902447Y-91716858D01*
X121914073Y-91725481D01*
X121924798Y-91735202D01*
X121934519Y-91745927D01*
X121943142Y-91757553D01*
X121950583Y-91769969D01*
X121956772Y-91783054D01*
X121961649Y-91796683D01*
X121965166Y-91810724D01*
X121967290Y-91825042D01*
X121968000Y-91839500D01*
X121968000Y-92184500D01*
X121967290Y-92198958D01*
X121965166Y-92213276D01*
X121961649Y-92227317D01*
X121956772Y-92240946D01*
X121950583Y-92254031D01*
X121943142Y-92266447D01*
X121934519Y-92278073D01*
X121924798Y-92288798D01*
X121914073Y-92298519D01*
X121902447Y-92307142D01*
X121890031Y-92314583D01*
X121876946Y-92320772D01*
X121863317Y-92325649D01*
X121849276Y-92329166D01*
X121834958Y-92331290D01*
X121820500Y-92332000D01*
X121525500Y-92332000D01*
X121511042Y-92331290D01*
X121496724Y-92329166D01*
X121482683Y-92325649D01*
X121469054Y-92320772D01*
X121455969Y-92314583D01*
X121443553Y-92307142D01*
X121431927Y-92298519D01*
X121421202Y-92288798D01*
X121411481Y-92278073D01*
X121402858Y-92266447D01*
X121395417Y-92254031D01*
X121389228Y-92240946D01*
X121384351Y-92227317D01*
X121380834Y-92213276D01*
X121378710Y-92198958D01*
X121378000Y-92184500D01*
X121378000Y-91839500D01*
X121378710Y-91825042D01*
X121380834Y-91810724D01*
X121384351Y-91796683D01*
X121389228Y-91783054D01*
X121395417Y-91769969D01*
X121402858Y-91757553D01*
X121411481Y-91745927D01*
X121421202Y-91735202D01*
X121431927Y-91725481D01*
X121443553Y-91716858D01*
X121455969Y-91709417D01*
X121469054Y-91703228D01*
X121482683Y-91698351D01*
X121496724Y-91694834D01*
X121511042Y-91692710D01*
X121525500Y-91692000D01*
X121820500Y-91692000D01*
X121834958Y-91692710D01*
G37*
G04 #@! TD.AperFunction*
G04 #@! TA.AperFunction,SMDPad,CuDef*
G36*
X120864958Y-91692710D02*
G01*
X120879276Y-91694834D01*
X120893317Y-91698351D01*
X120906946Y-91703228D01*
X120920031Y-91709417D01*
X120932447Y-91716858D01*
X120944073Y-91725481D01*
X120954798Y-91735202D01*
X120964519Y-91745927D01*
X120973142Y-91757553D01*
X120980583Y-91769969D01*
X120986772Y-91783054D01*
X120991649Y-91796683D01*
X120995166Y-91810724D01*
X120997290Y-91825042D01*
X120998000Y-91839500D01*
X120998000Y-92184500D01*
X120997290Y-92198958D01*
X120995166Y-92213276D01*
X120991649Y-92227317D01*
X120986772Y-92240946D01*
X120980583Y-92254031D01*
X120973142Y-92266447D01*
X120964519Y-92278073D01*
X120954798Y-92288798D01*
X120944073Y-92298519D01*
X120932447Y-92307142D01*
X120920031Y-92314583D01*
X120906946Y-92320772D01*
X120893317Y-92325649D01*
X120879276Y-92329166D01*
X120864958Y-92331290D01*
X120850500Y-92332000D01*
X120555500Y-92332000D01*
X120541042Y-92331290D01*
X120526724Y-92329166D01*
X120512683Y-92325649D01*
X120499054Y-92320772D01*
X120485969Y-92314583D01*
X120473553Y-92307142D01*
X120461927Y-92298519D01*
X120451202Y-92288798D01*
X120441481Y-92278073D01*
X120432858Y-92266447D01*
X120425417Y-92254031D01*
X120419228Y-92240946D01*
X120414351Y-92227317D01*
X120410834Y-92213276D01*
X120408710Y-92198958D01*
X120408000Y-92184500D01*
X120408000Y-91839500D01*
X120408710Y-91825042D01*
X120410834Y-91810724D01*
X120414351Y-91796683D01*
X120419228Y-91783054D01*
X120425417Y-91769969D01*
X120432858Y-91757553D01*
X120441481Y-91745927D01*
X120451202Y-91735202D01*
X120461927Y-91725481D01*
X120473553Y-91716858D01*
X120485969Y-91709417D01*
X120499054Y-91703228D01*
X120512683Y-91698351D01*
X120526724Y-91694834D01*
X120541042Y-91692710D01*
X120555500Y-91692000D01*
X120850500Y-91692000D01*
X120864958Y-91692710D01*
G37*
G04 #@! TD.AperFunction*
G04 #@! TA.AperFunction,SMDPad,CuDef*
G36*
X122874958Y-94702710D02*
G01*
X122889276Y-94704834D01*
X122903317Y-94708351D01*
X122916946Y-94713228D01*
X122930031Y-94719417D01*
X122942447Y-94726858D01*
X122954073Y-94735481D01*
X122964798Y-94745202D01*
X122974519Y-94755927D01*
X122983142Y-94767553D01*
X122990583Y-94779969D01*
X122996772Y-94793054D01*
X123001649Y-94806683D01*
X123005166Y-94820724D01*
X123007290Y-94835042D01*
X123008000Y-94849500D01*
X123008000Y-95144500D01*
X123007290Y-95158958D01*
X123005166Y-95173276D01*
X123001649Y-95187317D01*
X122996772Y-95200946D01*
X122990583Y-95214031D01*
X122983142Y-95226447D01*
X122974519Y-95238073D01*
X122964798Y-95248798D01*
X122954073Y-95258519D01*
X122942447Y-95267142D01*
X122930031Y-95274583D01*
X122916946Y-95280772D01*
X122903317Y-95285649D01*
X122889276Y-95289166D01*
X122874958Y-95291290D01*
X122860500Y-95292000D01*
X122515500Y-95292000D01*
X122501042Y-95291290D01*
X122486724Y-95289166D01*
X122472683Y-95285649D01*
X122459054Y-95280772D01*
X122445969Y-95274583D01*
X122433553Y-95267142D01*
X122421927Y-95258519D01*
X122411202Y-95248798D01*
X122401481Y-95238073D01*
X122392858Y-95226447D01*
X122385417Y-95214031D01*
X122379228Y-95200946D01*
X122374351Y-95187317D01*
X122370834Y-95173276D01*
X122368710Y-95158958D01*
X122368000Y-95144500D01*
X122368000Y-94849500D01*
X122368710Y-94835042D01*
X122370834Y-94820724D01*
X122374351Y-94806683D01*
X122379228Y-94793054D01*
X122385417Y-94779969D01*
X122392858Y-94767553D01*
X122401481Y-94755927D01*
X122411202Y-94745202D01*
X122421927Y-94735481D01*
X122433553Y-94726858D01*
X122445969Y-94719417D01*
X122459054Y-94713228D01*
X122472683Y-94708351D01*
X122486724Y-94704834D01*
X122501042Y-94702710D01*
X122515500Y-94702000D01*
X122860500Y-94702000D01*
X122874958Y-94702710D01*
G37*
G04 #@! TD.AperFunction*
G04 #@! TA.AperFunction,SMDPad,CuDef*
G36*
X122874958Y-93732710D02*
G01*
X122889276Y-93734834D01*
X122903317Y-93738351D01*
X122916946Y-93743228D01*
X122930031Y-93749417D01*
X122942447Y-93756858D01*
X122954073Y-93765481D01*
X122964798Y-93775202D01*
X122974519Y-93785927D01*
X122983142Y-93797553D01*
X122990583Y-93809969D01*
X122996772Y-93823054D01*
X123001649Y-93836683D01*
X123005166Y-93850724D01*
X123007290Y-93865042D01*
X123008000Y-93879500D01*
X123008000Y-94174500D01*
X123007290Y-94188958D01*
X123005166Y-94203276D01*
X123001649Y-94217317D01*
X122996772Y-94230946D01*
X122990583Y-94244031D01*
X122983142Y-94256447D01*
X122974519Y-94268073D01*
X122964798Y-94278798D01*
X122954073Y-94288519D01*
X122942447Y-94297142D01*
X122930031Y-94304583D01*
X122916946Y-94310772D01*
X122903317Y-94315649D01*
X122889276Y-94319166D01*
X122874958Y-94321290D01*
X122860500Y-94322000D01*
X122515500Y-94322000D01*
X122501042Y-94321290D01*
X122486724Y-94319166D01*
X122472683Y-94315649D01*
X122459054Y-94310772D01*
X122445969Y-94304583D01*
X122433553Y-94297142D01*
X122421927Y-94288519D01*
X122411202Y-94278798D01*
X122401481Y-94268073D01*
X122392858Y-94256447D01*
X122385417Y-94244031D01*
X122379228Y-94230946D01*
X122374351Y-94217317D01*
X122370834Y-94203276D01*
X122368710Y-94188958D01*
X122368000Y-94174500D01*
X122368000Y-93879500D01*
X122368710Y-93865042D01*
X122370834Y-93850724D01*
X122374351Y-93836683D01*
X122379228Y-93823054D01*
X122385417Y-93809969D01*
X122392858Y-93797553D01*
X122401481Y-93785927D01*
X122411202Y-93775202D01*
X122421927Y-93765481D01*
X122433553Y-93756858D01*
X122445969Y-93749417D01*
X122459054Y-93743228D01*
X122472683Y-93738351D01*
X122486724Y-93734834D01*
X122501042Y-93732710D01*
X122515500Y-93732000D01*
X122860500Y-93732000D01*
X122874958Y-93732710D01*
G37*
G04 #@! TD.AperFunction*
D13*
X115588000Y-92012000D03*
X121688000Y-95012000D03*
X121688000Y-94012000D03*
X111388000Y-92312000D03*
X121688000Y-93012000D03*
X115688000Y-99312000D03*
X122588000Y-92612000D03*
X122188000Y-97912000D03*
X122388000Y-89312000D03*
X118688000Y-97012000D03*
X117688000Y-97012000D03*
X112888000Y-90312000D03*
X112688000Y-96112000D03*
D14*
X121703000Y-94027000D02*
X121688000Y-94012000D01*
X122688000Y-94027000D02*
X121703000Y-94027000D01*
X123700652Y-90931758D02*
X123700652Y-90224652D01*
X122688000Y-93732000D02*
X123700652Y-92719348D01*
X123700652Y-92719348D02*
X123700652Y-90931758D01*
X122688000Y-94027000D02*
X122688000Y-93732000D01*
X111908000Y-93527000D02*
X112288000Y-93147000D01*
X111588000Y-93527000D02*
X111908000Y-93527000D01*
X112288000Y-93147000D02*
X112288000Y-92297000D01*
X111403000Y-92297000D02*
X111388000Y-92312000D01*
X112288000Y-92297000D02*
X111403000Y-92297000D01*
X115688000Y-95512000D02*
X115688000Y-98412000D01*
X121673000Y-92997000D02*
X121688000Y-93012000D01*
X121673000Y-92012000D02*
X121673000Y-92997000D01*
X122288000Y-92612000D02*
X122588000Y-92612000D01*
X121688000Y-92012000D02*
X122288000Y-92612000D01*
X121673000Y-92012000D02*
X121688000Y-92012000D01*
X122673000Y-97427000D02*
X122673000Y-97012000D01*
X122188000Y-97912000D02*
X122673000Y-97427000D01*
X115688000Y-98412000D02*
X115688000Y-99312000D01*
X118688000Y-95512000D02*
X118688000Y-97012000D01*
X117688000Y-95512000D02*
X117688000Y-97012000D01*
X111703000Y-91327000D02*
X110588000Y-90212000D01*
X112288000Y-91327000D02*
X111703000Y-91327000D01*
X111762696Y-89186696D02*
X112888000Y-90312000D01*
X111613304Y-89186696D02*
X111762696Y-89186696D01*
X113773000Y-90312000D02*
X113788000Y-90327000D01*
X112888000Y-90312000D02*
X113773000Y-90312000D01*
X111118330Y-95869018D02*
X111130982Y-95869018D01*
X110588000Y-96399348D02*
X111118330Y-95869018D01*
X111588000Y-95412000D02*
X111588000Y-94497000D01*
X111130982Y-95869018D02*
X111588000Y-95412000D01*
X112688000Y-95197000D02*
X112688000Y-96112000D01*
X112688000Y-96349956D02*
X111613304Y-97424652D01*
X112688000Y-96112000D02*
X112688000Y-96349956D01*
X121703000Y-96012000D02*
X121703000Y-97012000D01*
D15*
G36*
X118315809Y-85555093D02*
G01*
X119358110Y-85779923D01*
X120360246Y-86144126D01*
X121303690Y-86640969D01*
X122170970Y-87261250D01*
X122649515Y-87713353D01*
X122607945Y-87725963D01*
X122497631Y-87784928D01*
X122400940Y-87864280D01*
X121815414Y-88449806D01*
X121728226Y-88508063D01*
X121584063Y-88652226D01*
X121525806Y-88739414D01*
X121340280Y-88924940D01*
X121260928Y-89021631D01*
X121201963Y-89131945D01*
X121165653Y-89251643D01*
X121153393Y-89376125D01*
X121165653Y-89500607D01*
X121201963Y-89620305D01*
X121260928Y-89730619D01*
X121340280Y-89827310D01*
X122153452Y-90640482D01*
X122249588Y-90719463D01*
X122273630Y-90732346D01*
X122286232Y-90755923D01*
X122365584Y-90852614D01*
X122865653Y-91352683D01*
X122865653Y-91611951D01*
X122689939Y-91577000D01*
X122557839Y-91577000D01*
X122546274Y-91538875D01*
X122473679Y-91403060D01*
X122375983Y-91284017D01*
X122256940Y-91186321D01*
X122121125Y-91113726D01*
X121973757Y-91069023D01*
X121820500Y-91053928D01*
X121525500Y-91053928D01*
X121372243Y-91069023D01*
X121224875Y-91113726D01*
X121089060Y-91186321D01*
X120970017Y-91284017D01*
X120872321Y-91403060D01*
X120799726Y-91538875D01*
X120755023Y-91686243D01*
X120739928Y-91839500D01*
X120739928Y-92184500D01*
X120755023Y-92337757D01*
X120798332Y-92480531D01*
X120770795Y-92521744D01*
X120692774Y-92710102D01*
X120653000Y-92910061D01*
X120653000Y-93113939D01*
X120692774Y-93313898D01*
X120770795Y-93502256D01*
X120777306Y-93512000D01*
X120770795Y-93521744D01*
X120692774Y-93710102D01*
X120653000Y-93910061D01*
X120653000Y-94113939D01*
X120692774Y-94313898D01*
X120770795Y-94502256D01*
X120884063Y-94671774D01*
X121028226Y-94815937D01*
X121197744Y-94929205D01*
X121386102Y-95007226D01*
X121586061Y-95047000D01*
X121789939Y-95047000D01*
X121989898Y-95007226D01*
X122178256Y-94929205D01*
X122219469Y-94901668D01*
X122362243Y-94944977D01*
X122515500Y-94960072D01*
X122860500Y-94960072D01*
X123013757Y-94944977D01*
X123161125Y-94900274D01*
X123296940Y-94827679D01*
X123415983Y-94729983D01*
X123513679Y-94610940D01*
X123586274Y-94475125D01*
X123630977Y-94327757D01*
X123646072Y-94174500D01*
X123646072Y-93954795D01*
X123980373Y-93620495D01*
X124019675Y-93818081D01*
X124150463Y-94133831D01*
X124340337Y-94417998D01*
X124582002Y-94659663D01*
X124618064Y-94683759D01*
X124629013Y-96654619D01*
X124558616Y-96661552D01*
X124434206Y-96699292D01*
X124319549Y-96760577D01*
X124219051Y-96843054D01*
X124136574Y-96943552D01*
X124116392Y-96981311D01*
X123539693Y-97905209D01*
X123020680Y-98528757D01*
X123105205Y-98402256D01*
X123183226Y-98213898D01*
X123212092Y-98068775D01*
X123234427Y-98046441D01*
X123266291Y-98020291D01*
X123370636Y-97893146D01*
X123448172Y-97748087D01*
X123495918Y-97590689D01*
X123497289Y-97576769D01*
X123546274Y-97485125D01*
X123590977Y-97337757D01*
X123606072Y-97184500D01*
X123606072Y-96839500D01*
X123590977Y-96686243D01*
X123546274Y-96538875D01*
X123473679Y-96403060D01*
X123375983Y-96284017D01*
X123256940Y-96186321D01*
X123121125Y-96113726D01*
X122973757Y-96069023D01*
X122820500Y-96053928D01*
X122636072Y-96053928D01*
X122636072Y-95839500D01*
X122620977Y-95686243D01*
X122576274Y-95538875D01*
X122503679Y-95403060D01*
X122405983Y-95284017D01*
X122286940Y-95186321D01*
X122151125Y-95113726D01*
X122003757Y-95069023D01*
X121850500Y-95053928D01*
X121555500Y-95053928D01*
X121402243Y-95069023D01*
X121254875Y-95113726D01*
X121119060Y-95186321D01*
X121000017Y-95284017D01*
X120902321Y-95403060D01*
X120829726Y-95538875D01*
X120785023Y-95686243D01*
X120769928Y-95839500D01*
X120769928Y-96184500D01*
X120785023Y-96337757D01*
X120829726Y-96485125D01*
X120844091Y-96512000D01*
X120829726Y-96538875D01*
X120785023Y-96686243D01*
X120769928Y-96839500D01*
X120769928Y-97184500D01*
X120785023Y-97337757D01*
X120829726Y-97485125D01*
X120902321Y-97620940D01*
X121000017Y-97739983D01*
X121119060Y-97837679D01*
X121153000Y-97855820D01*
X121153000Y-98013939D01*
X121192774Y-98213898D01*
X121270795Y-98402256D01*
X121384063Y-98571774D01*
X121528226Y-98715937D01*
X121697744Y-98829205D01*
X121886102Y-98907226D01*
X122086061Y-98947000D01*
X122289939Y-98947000D01*
X122489898Y-98907226D01*
X122678256Y-98829205D01*
X122847774Y-98715937D01*
X122949810Y-98613901D01*
X122857552Y-98724741D01*
X122070508Y-99444104D01*
X121226072Y-100027240D01*
X121226072Y-98736999D01*
X121209008Y-98563745D01*
X121158472Y-98397149D01*
X121076405Y-98243613D01*
X120965962Y-98109038D01*
X120831387Y-97998595D01*
X120677851Y-97916528D01*
X120511255Y-97865992D01*
X120338001Y-97848928D01*
X119637999Y-97848928D01*
X119464745Y-97865992D01*
X119298149Y-97916528D01*
X119144613Y-97998595D01*
X119010038Y-98109038D01*
X118899595Y-98243613D01*
X118817528Y-98397149D01*
X118766992Y-98563745D01*
X118749928Y-98736999D01*
X118749928Y-100037001D01*
X118766992Y-100210255D01*
X118817528Y-100376851D01*
X118899595Y-100530387D01*
X119010038Y-100664962D01*
X119144613Y-100775405D01*
X119297135Y-100856930D01*
X119233591Y-100878844D01*
X118187719Y-101086454D01*
X117123362Y-101150202D01*
X116060190Y-101068908D01*
X115078464Y-100857145D01*
X115231387Y-100775405D01*
X115365962Y-100664962D01*
X115476405Y-100530387D01*
X115558472Y-100376851D01*
X115568582Y-100343523D01*
X115586061Y-100347000D01*
X115789939Y-100347000D01*
X115989898Y-100307226D01*
X116178256Y-100229205D01*
X116347774Y-100115937D01*
X116491937Y-99971774D01*
X116605205Y-99802256D01*
X116683226Y-99613898D01*
X116723000Y-99413939D01*
X116723000Y-99210061D01*
X116683226Y-99010102D01*
X116605205Y-98821744D01*
X116523000Y-98698715D01*
X116523000Y-96910061D01*
X116653000Y-96910061D01*
X116653000Y-97113939D01*
X116692774Y-97313898D01*
X116770795Y-97502256D01*
X116884063Y-97671774D01*
X117028226Y-97815937D01*
X117197744Y-97929205D01*
X117386102Y-98007226D01*
X117586061Y-98047000D01*
X117789939Y-98047000D01*
X117989898Y-98007226D01*
X118178256Y-97929205D01*
X118188000Y-97922694D01*
X118197744Y-97929205D01*
X118386102Y-98007226D01*
X118586061Y-98047000D01*
X118789939Y-98047000D01*
X118989898Y-98007226D01*
X119178256Y-97929205D01*
X119347774Y-97815937D01*
X119491937Y-97671774D01*
X119605205Y-97502256D01*
X119683226Y-97313898D01*
X119723000Y-97113939D01*
X119723000Y-96910061D01*
X119683226Y-96710102D01*
X119605205Y-96521744D01*
X119558775Y-96452256D01*
X119566084Y-96438582D01*
X119610929Y-96290745D01*
X119626072Y-96137000D01*
X119626072Y-94887000D01*
X119610929Y-94733255D01*
X119566084Y-94585418D01*
X119493258Y-94449171D01*
X119395251Y-94329749D01*
X119275829Y-94231742D01*
X119139582Y-94158916D01*
X118991745Y-94114071D01*
X118838000Y-94098928D01*
X118538000Y-94098928D01*
X118384255Y-94114071D01*
X118236418Y-94158916D01*
X118188000Y-94184796D01*
X118139582Y-94158916D01*
X117991745Y-94114071D01*
X117838000Y-94098928D01*
X117538000Y-94098928D01*
X117384255Y-94114071D01*
X117236418Y-94158916D01*
X117100171Y-94231742D01*
X116980749Y-94329749D01*
X116882742Y-94449171D01*
X116809916Y-94585418D01*
X116765071Y-94733255D01*
X116749928Y-94887000D01*
X116749928Y-96137000D01*
X116765071Y-96290745D01*
X116809916Y-96438582D01*
X116817225Y-96452256D01*
X116770795Y-96521744D01*
X116692774Y-96710102D01*
X116653000Y-96910061D01*
X116523000Y-96910061D01*
X116523000Y-96519186D01*
X116566084Y-96438582D01*
X116610929Y-96290745D01*
X116626072Y-96137000D01*
X116626072Y-94887000D01*
X116610929Y-94733255D01*
X116566084Y-94585418D01*
X116493258Y-94449171D01*
X116395251Y-94329749D01*
X116275829Y-94231742D01*
X116139582Y-94158916D01*
X115991745Y-94114071D01*
X115838000Y-94098928D01*
X115538000Y-94098928D01*
X115384255Y-94114071D01*
X115236418Y-94158916D01*
X115100171Y-94231742D01*
X114980749Y-94329749D01*
X114882742Y-94449171D01*
X114809916Y-94585418D01*
X114765071Y-94733255D01*
X114749928Y-94887000D01*
X114749928Y-96137000D01*
X114765071Y-96290745D01*
X114809916Y-96438582D01*
X114853000Y-96519187D01*
X114853001Y-97860254D01*
X114738001Y-97848928D01*
X114037999Y-97848928D01*
X113864745Y-97865992D01*
X113698149Y-97916528D01*
X113544613Y-97998595D01*
X113410038Y-98109038D01*
X113299595Y-98243613D01*
X113217528Y-98397149D01*
X113166992Y-98563745D01*
X113149928Y-98736999D01*
X113149928Y-100023908D01*
X113072308Y-99983031D01*
X112205024Y-99362747D01*
X111701418Y-98886967D01*
X111791021Y-98839072D01*
X111887712Y-98759720D01*
X112948372Y-97699060D01*
X113027724Y-97602369D01*
X113086689Y-97492055D01*
X113122999Y-97372357D01*
X113135259Y-97247875D01*
X113122999Y-97123393D01*
X113116583Y-97102242D01*
X113212503Y-97006322D01*
X113347774Y-96915937D01*
X113491937Y-96771774D01*
X113605205Y-96602256D01*
X113683226Y-96413898D01*
X113723000Y-96213939D01*
X113723000Y-96010061D01*
X113683226Y-95810102D01*
X113605205Y-95621744D01*
X113597063Y-95609558D01*
X113630977Y-95497757D01*
X113646072Y-95344500D01*
X113646072Y-95049500D01*
X113630977Y-94896243D01*
X113586274Y-94748875D01*
X113513679Y-94613060D01*
X113415983Y-94494017D01*
X113296940Y-94396321D01*
X113161125Y-94323726D01*
X113013757Y-94279023D01*
X112860500Y-94263928D01*
X112537644Y-94263928D01*
X112530977Y-94196243D01*
X112506144Y-94114378D01*
X112527446Y-94088421D01*
X112849422Y-93766445D01*
X112881291Y-93740291D01*
X112985636Y-93613146D01*
X113063172Y-93468087D01*
X113110918Y-93310689D01*
X113121026Y-93208063D01*
X113127040Y-93147001D01*
X113123000Y-93105982D01*
X113123000Y-92863502D01*
X113186274Y-92745125D01*
X113230977Y-92597757D01*
X113246072Y-92444500D01*
X113246072Y-92149500D01*
X113230977Y-91996243D01*
X113186274Y-91848875D01*
X113166564Y-91812000D01*
X113186274Y-91775125D01*
X113230977Y-91627757D01*
X113246072Y-91474500D01*
X113246072Y-91283958D01*
X113378256Y-91229205D01*
X113388245Y-91222530D01*
X113462243Y-91244977D01*
X113615500Y-91260072D01*
X113960500Y-91260072D01*
X114113757Y-91244977D01*
X114261125Y-91200274D01*
X114396940Y-91127679D01*
X114515983Y-91029983D01*
X114613679Y-90910940D01*
X114686274Y-90775125D01*
X114730977Y-90627757D01*
X114746072Y-90474500D01*
X114746072Y-90179500D01*
X114730977Y-90026243D01*
X114686274Y-89878875D01*
X114613679Y-89743060D01*
X114515983Y-89624017D01*
X114396940Y-89526321D01*
X114261125Y-89453726D01*
X114113757Y-89409023D01*
X113960500Y-89393928D01*
X113615500Y-89393928D01*
X113462243Y-89409023D01*
X113419125Y-89422103D01*
X113378256Y-89394795D01*
X113189898Y-89316774D01*
X113129476Y-89304755D01*
X113122999Y-89238991D01*
X113086689Y-89119293D01*
X113027724Y-89008979D01*
X112948372Y-88912288D01*
X111887712Y-87851628D01*
X111791021Y-87772276D01*
X111706696Y-87727202D01*
X112305496Y-87179895D01*
X113182889Y-86574000D01*
X113259928Y-86535038D01*
X113259928Y-87562000D01*
X113272188Y-87686482D01*
X113308498Y-87806180D01*
X113367463Y-87916494D01*
X113446815Y-88013185D01*
X113543506Y-88092537D01*
X113653820Y-88151502D01*
X113773518Y-88187812D01*
X113898000Y-88200072D01*
X115598000Y-88200072D01*
X115722482Y-88187812D01*
X115842180Y-88151502D01*
X115952494Y-88092537D01*
X116049185Y-88013185D01*
X116128537Y-87916494D01*
X116187502Y-87806180D01*
X116209513Y-87733620D01*
X116341368Y-87865475D01*
X116584589Y-88027990D01*
X116854842Y-88139932D01*
X117141740Y-88197000D01*
X117434260Y-88197000D01*
X117721158Y-88139932D01*
X117991411Y-88027990D01*
X118234632Y-87865475D01*
X118441475Y-87658632D01*
X118603990Y-87415411D01*
X118715932Y-87145158D01*
X118773000Y-86858260D01*
X118773000Y-86565740D01*
X118715932Y-86278842D01*
X118603990Y-86008589D01*
X118441475Y-85765368D01*
X118234632Y-85558525D01*
X118218342Y-85547640D01*
X118315809Y-85555093D01*
G37*
X118315809Y-85555093D02*
X119358110Y-85779923D01*
X120360246Y-86144126D01*
X121303690Y-86640969D01*
X122170970Y-87261250D01*
X122649515Y-87713353D01*
X122607945Y-87725963D01*
X122497631Y-87784928D01*
X122400940Y-87864280D01*
X121815414Y-88449806D01*
X121728226Y-88508063D01*
X121584063Y-88652226D01*
X121525806Y-88739414D01*
X121340280Y-88924940D01*
X121260928Y-89021631D01*
X121201963Y-89131945D01*
X121165653Y-89251643D01*
X121153393Y-89376125D01*
X121165653Y-89500607D01*
X121201963Y-89620305D01*
X121260928Y-89730619D01*
X121340280Y-89827310D01*
X122153452Y-90640482D01*
X122249588Y-90719463D01*
X122273630Y-90732346D01*
X122286232Y-90755923D01*
X122365584Y-90852614D01*
X122865653Y-91352683D01*
X122865653Y-91611951D01*
X122689939Y-91577000D01*
X122557839Y-91577000D01*
X122546274Y-91538875D01*
X122473679Y-91403060D01*
X122375983Y-91284017D01*
X122256940Y-91186321D01*
X122121125Y-91113726D01*
X121973757Y-91069023D01*
X121820500Y-91053928D01*
X121525500Y-91053928D01*
X121372243Y-91069023D01*
X121224875Y-91113726D01*
X121089060Y-91186321D01*
X120970017Y-91284017D01*
X120872321Y-91403060D01*
X120799726Y-91538875D01*
X120755023Y-91686243D01*
X120739928Y-91839500D01*
X120739928Y-92184500D01*
X120755023Y-92337757D01*
X120798332Y-92480531D01*
X120770795Y-92521744D01*
X120692774Y-92710102D01*
X120653000Y-92910061D01*
X120653000Y-93113939D01*
X120692774Y-93313898D01*
X120770795Y-93502256D01*
X120777306Y-93512000D01*
X120770795Y-93521744D01*
X120692774Y-93710102D01*
X120653000Y-93910061D01*
X120653000Y-94113939D01*
X120692774Y-94313898D01*
X120770795Y-94502256D01*
X120884063Y-94671774D01*
X121028226Y-94815937D01*
X121197744Y-94929205D01*
X121386102Y-95007226D01*
X121586061Y-95047000D01*
X121789939Y-95047000D01*
X121989898Y-95007226D01*
X122178256Y-94929205D01*
X122219469Y-94901668D01*
X122362243Y-94944977D01*
X122515500Y-94960072D01*
X122860500Y-94960072D01*
X123013757Y-94944977D01*
X123161125Y-94900274D01*
X123296940Y-94827679D01*
X123415983Y-94729983D01*
X123513679Y-94610940D01*
X123586274Y-94475125D01*
X123630977Y-94327757D01*
X123646072Y-94174500D01*
X123646072Y-93954795D01*
X123980373Y-93620495D01*
X124019675Y-93818081D01*
X124150463Y-94133831D01*
X124340337Y-94417998D01*
X124582002Y-94659663D01*
X124618064Y-94683759D01*
X124629013Y-96654619D01*
X124558616Y-96661552D01*
X124434206Y-96699292D01*
X124319549Y-96760577D01*
X124219051Y-96843054D01*
X124136574Y-96943552D01*
X124116392Y-96981311D01*
X123539693Y-97905209D01*
X123020680Y-98528757D01*
X123105205Y-98402256D01*
X123183226Y-98213898D01*
X123212092Y-98068775D01*
X123234427Y-98046441D01*
X123266291Y-98020291D01*
X123370636Y-97893146D01*
X123448172Y-97748087D01*
X123495918Y-97590689D01*
X123497289Y-97576769D01*
X123546274Y-97485125D01*
X123590977Y-97337757D01*
X123606072Y-97184500D01*
X123606072Y-96839500D01*
X123590977Y-96686243D01*
X123546274Y-96538875D01*
X123473679Y-96403060D01*
X123375983Y-96284017D01*
X123256940Y-96186321D01*
X123121125Y-96113726D01*
X122973757Y-96069023D01*
X122820500Y-96053928D01*
X122636072Y-96053928D01*
X122636072Y-95839500D01*
X122620977Y-95686243D01*
X122576274Y-95538875D01*
X122503679Y-95403060D01*
X122405983Y-95284017D01*
X122286940Y-95186321D01*
X122151125Y-95113726D01*
X122003757Y-95069023D01*
X121850500Y-95053928D01*
X121555500Y-95053928D01*
X121402243Y-95069023D01*
X121254875Y-95113726D01*
X121119060Y-95186321D01*
X121000017Y-95284017D01*
X120902321Y-95403060D01*
X120829726Y-95538875D01*
X120785023Y-95686243D01*
X120769928Y-95839500D01*
X120769928Y-96184500D01*
X120785023Y-96337757D01*
X120829726Y-96485125D01*
X120844091Y-96512000D01*
X120829726Y-96538875D01*
X120785023Y-96686243D01*
X120769928Y-96839500D01*
X120769928Y-97184500D01*
X120785023Y-97337757D01*
X120829726Y-97485125D01*
X120902321Y-97620940D01*
X121000017Y-97739983D01*
X121119060Y-97837679D01*
X121153000Y-97855820D01*
X121153000Y-98013939D01*
X121192774Y-98213898D01*
X121270795Y-98402256D01*
X121384063Y-98571774D01*
X121528226Y-98715937D01*
X121697744Y-98829205D01*
X121886102Y-98907226D01*
X122086061Y-98947000D01*
X122289939Y-98947000D01*
X122489898Y-98907226D01*
X122678256Y-98829205D01*
X122847774Y-98715937D01*
X122949810Y-98613901D01*
X122857552Y-98724741D01*
X122070508Y-99444104D01*
X121226072Y-100027240D01*
X121226072Y-98736999D01*
X121209008Y-98563745D01*
X121158472Y-98397149D01*
X121076405Y-98243613D01*
X120965962Y-98109038D01*
X120831387Y-97998595D01*
X120677851Y-97916528D01*
X120511255Y-97865992D01*
X120338001Y-97848928D01*
X119637999Y-97848928D01*
X119464745Y-97865992D01*
X119298149Y-97916528D01*
X119144613Y-97998595D01*
X119010038Y-98109038D01*
X118899595Y-98243613D01*
X118817528Y-98397149D01*
X118766992Y-98563745D01*
X118749928Y-98736999D01*
X118749928Y-100037001D01*
X118766992Y-100210255D01*
X118817528Y-100376851D01*
X118899595Y-100530387D01*
X119010038Y-100664962D01*
X119144613Y-100775405D01*
X119297135Y-100856930D01*
X119233591Y-100878844D01*
X118187719Y-101086454D01*
X117123362Y-101150202D01*
X116060190Y-101068908D01*
X115078464Y-100857145D01*
X115231387Y-100775405D01*
X115365962Y-100664962D01*
X115476405Y-100530387D01*
X115558472Y-100376851D01*
X115568582Y-100343523D01*
X115586061Y-100347000D01*
X115789939Y-100347000D01*
X115989898Y-100307226D01*
X116178256Y-100229205D01*
X116347774Y-100115937D01*
X116491937Y-99971774D01*
X116605205Y-99802256D01*
X116683226Y-99613898D01*
X116723000Y-99413939D01*
X116723000Y-99210061D01*
X116683226Y-99010102D01*
X116605205Y-98821744D01*
X116523000Y-98698715D01*
X116523000Y-96910061D01*
X116653000Y-96910061D01*
X116653000Y-97113939D01*
X116692774Y-97313898D01*
X116770795Y-97502256D01*
X116884063Y-97671774D01*
X117028226Y-97815937D01*
X117197744Y-97929205D01*
X117386102Y-98007226D01*
X117586061Y-98047000D01*
X117789939Y-98047000D01*
X117989898Y-98007226D01*
X118178256Y-97929205D01*
X118188000Y-97922694D01*
X118197744Y-97929205D01*
X118386102Y-98007226D01*
X118586061Y-98047000D01*
X118789939Y-98047000D01*
X118989898Y-98007226D01*
X119178256Y-97929205D01*
X119347774Y-97815937D01*
X119491937Y-97671774D01*
X119605205Y-97502256D01*
X119683226Y-97313898D01*
X119723000Y-97113939D01*
X119723000Y-96910061D01*
X119683226Y-96710102D01*
X119605205Y-96521744D01*
X119558775Y-96452256D01*
X119566084Y-96438582D01*
X119610929Y-96290745D01*
X119626072Y-96137000D01*
X119626072Y-94887000D01*
X119610929Y-94733255D01*
X119566084Y-94585418D01*
X119493258Y-94449171D01*
X119395251Y-94329749D01*
X119275829Y-94231742D01*
X119139582Y-94158916D01*
X118991745Y-94114071D01*
X118838000Y-94098928D01*
X118538000Y-94098928D01*
X118384255Y-94114071D01*
X118236418Y-94158916D01*
X118188000Y-94184796D01*
X118139582Y-94158916D01*
X117991745Y-94114071D01*
X117838000Y-94098928D01*
X117538000Y-94098928D01*
X117384255Y-94114071D01*
X117236418Y-94158916D01*
X117100171Y-94231742D01*
X116980749Y-94329749D01*
X116882742Y-94449171D01*
X116809916Y-94585418D01*
X116765071Y-94733255D01*
X116749928Y-94887000D01*
X116749928Y-96137000D01*
X116765071Y-96290745D01*
X116809916Y-96438582D01*
X116817225Y-96452256D01*
X116770795Y-96521744D01*
X116692774Y-96710102D01*
X116653000Y-96910061D01*
X116523000Y-96910061D01*
X116523000Y-96519186D01*
X116566084Y-96438582D01*
X116610929Y-96290745D01*
X116626072Y-96137000D01*
X116626072Y-94887000D01*
X116610929Y-94733255D01*
X116566084Y-94585418D01*
X116493258Y-94449171D01*
X116395251Y-94329749D01*
X116275829Y-94231742D01*
X116139582Y-94158916D01*
X115991745Y-94114071D01*
X115838000Y-94098928D01*
X115538000Y-94098928D01*
X115384255Y-94114071D01*
X115236418Y-94158916D01*
X115100171Y-94231742D01*
X114980749Y-94329749D01*
X114882742Y-94449171D01*
X114809916Y-94585418D01*
X114765071Y-94733255D01*
X114749928Y-94887000D01*
X114749928Y-96137000D01*
X114765071Y-96290745D01*
X114809916Y-96438582D01*
X114853000Y-96519187D01*
X114853001Y-97860254D01*
X114738001Y-97848928D01*
X114037999Y-97848928D01*
X113864745Y-97865992D01*
X113698149Y-97916528D01*
X113544613Y-97998595D01*
X113410038Y-98109038D01*
X113299595Y-98243613D01*
X113217528Y-98397149D01*
X113166992Y-98563745D01*
X113149928Y-98736999D01*
X113149928Y-100023908D01*
X113072308Y-99983031D01*
X112205024Y-99362747D01*
X111701418Y-98886967D01*
X111791021Y-98839072D01*
X111887712Y-98759720D01*
X112948372Y-97699060D01*
X113027724Y-97602369D01*
X113086689Y-97492055D01*
X113122999Y-97372357D01*
X113135259Y-97247875D01*
X113122999Y-97123393D01*
X113116583Y-97102242D01*
X113212503Y-97006322D01*
X113347774Y-96915937D01*
X113491937Y-96771774D01*
X113605205Y-96602256D01*
X113683226Y-96413898D01*
X113723000Y-96213939D01*
X113723000Y-96010061D01*
X113683226Y-95810102D01*
X113605205Y-95621744D01*
X113597063Y-95609558D01*
X113630977Y-95497757D01*
X113646072Y-95344500D01*
X113646072Y-95049500D01*
X113630977Y-94896243D01*
X113586274Y-94748875D01*
X113513679Y-94613060D01*
X113415983Y-94494017D01*
X113296940Y-94396321D01*
X113161125Y-94323726D01*
X113013757Y-94279023D01*
X112860500Y-94263928D01*
X112537644Y-94263928D01*
X112530977Y-94196243D01*
X112506144Y-94114378D01*
X112527446Y-94088421D01*
X112849422Y-93766445D01*
X112881291Y-93740291D01*
X112985636Y-93613146D01*
X113063172Y-93468087D01*
X113110918Y-93310689D01*
X113121026Y-93208063D01*
X113127040Y-93147001D01*
X113123000Y-93105982D01*
X113123000Y-92863502D01*
X113186274Y-92745125D01*
X113230977Y-92597757D01*
X113246072Y-92444500D01*
X113246072Y-92149500D01*
X113230977Y-91996243D01*
X113186274Y-91848875D01*
X113166564Y-91812000D01*
X113186274Y-91775125D01*
X113230977Y-91627757D01*
X113246072Y-91474500D01*
X113246072Y-91283958D01*
X113378256Y-91229205D01*
X113388245Y-91222530D01*
X113462243Y-91244977D01*
X113615500Y-91260072D01*
X113960500Y-91260072D01*
X114113757Y-91244977D01*
X114261125Y-91200274D01*
X114396940Y-91127679D01*
X114515983Y-91029983D01*
X114613679Y-90910940D01*
X114686274Y-90775125D01*
X114730977Y-90627757D01*
X114746072Y-90474500D01*
X114746072Y-90179500D01*
X114730977Y-90026243D01*
X114686274Y-89878875D01*
X114613679Y-89743060D01*
X114515983Y-89624017D01*
X114396940Y-89526321D01*
X114261125Y-89453726D01*
X114113757Y-89409023D01*
X113960500Y-89393928D01*
X113615500Y-89393928D01*
X113462243Y-89409023D01*
X113419125Y-89422103D01*
X113378256Y-89394795D01*
X113189898Y-89316774D01*
X113129476Y-89304755D01*
X113122999Y-89238991D01*
X113086689Y-89119293D01*
X113027724Y-89008979D01*
X112948372Y-88912288D01*
X111887712Y-87851628D01*
X111791021Y-87772276D01*
X111706696Y-87727202D01*
X112305496Y-87179895D01*
X113182889Y-86574000D01*
X113259928Y-86535038D01*
X113259928Y-87562000D01*
X113272188Y-87686482D01*
X113308498Y-87806180D01*
X113367463Y-87916494D01*
X113446815Y-88013185D01*
X113543506Y-88092537D01*
X113653820Y-88151502D01*
X113773518Y-88187812D01*
X113898000Y-88200072D01*
X115598000Y-88200072D01*
X115722482Y-88187812D01*
X115842180Y-88151502D01*
X115952494Y-88092537D01*
X116049185Y-88013185D01*
X116128537Y-87916494D01*
X116187502Y-87806180D01*
X116209513Y-87733620D01*
X116341368Y-87865475D01*
X116584589Y-88027990D01*
X116854842Y-88139932D01*
X117141740Y-88197000D01*
X117434260Y-88197000D01*
X117721158Y-88139932D01*
X117991411Y-88027990D01*
X118234632Y-87865475D01*
X118441475Y-87658632D01*
X118603990Y-87415411D01*
X118715932Y-87145158D01*
X118773000Y-86858260D01*
X118773000Y-86565740D01*
X118715932Y-86278842D01*
X118603990Y-86008589D01*
X118441475Y-85765368D01*
X118234632Y-85558525D01*
X118218342Y-85547640D01*
X118315809Y-85555093D01*
M02*
