G04 #@! TF.GenerationSoftware,KiCad,Pcbnew,(5.1.5-0-10_14)*
G04 #@! TF.CreationDate,2020-09-21T02:14:23+02:00*
G04 #@! TF.ProjectId,Encoder,456e636f-6465-4722-9e6b-696361645f70,rev?*
G04 #@! TF.SameCoordinates,Original*
G04 #@! TF.FileFunction,Legend,Bot*
G04 #@! TF.FilePolarity,Positive*
%FSLAX46Y46*%
G04 Gerber Fmt 4.6, Leading zero omitted, Abs format (unit mm)*
G04 Created by KiCad (PCBNEW (5.1.5-0-10_14)) date 2020-09-21 02:14:23*
%MOMM*%
%LPD*%
G04 APERTURE LIST*
%ADD10C,0.150000*%
%ADD11C,0.125000*%
G04 APERTURE END LIST*
D10*
X119492761Y-98992952D02*
X119540380Y-99088190D01*
X119540380Y-99278666D01*
X119492761Y-99373904D01*
X119397523Y-99421523D01*
X119349904Y-99421523D01*
X119254666Y-99373904D01*
X119207047Y-99278666D01*
X119207047Y-99135809D01*
X119159428Y-99040571D01*
X119064190Y-98992952D01*
X119016571Y-98992952D01*
X118921333Y-99040571D01*
X118873714Y-99135809D01*
X118873714Y-99278666D01*
X118921333Y-99373904D01*
X119540380Y-100278666D02*
X118540380Y-100278666D01*
X119492761Y-100278666D02*
X119540380Y-100183428D01*
X119540380Y-99992952D01*
X119492761Y-99897714D01*
X119445142Y-99850095D01*
X119349904Y-99802476D01*
X119064190Y-99802476D01*
X118968952Y-99850095D01*
X118921333Y-99897714D01*
X118873714Y-99992952D01*
X118873714Y-100183428D01*
X118921333Y-100278666D01*
X119540380Y-101183428D02*
X119016571Y-101183428D01*
X118921333Y-101135809D01*
X118873714Y-101040571D01*
X118873714Y-100850095D01*
X118921333Y-100754857D01*
X119492761Y-101183428D02*
X119540380Y-101088190D01*
X119540380Y-100850095D01*
X119492761Y-100754857D01*
X119397523Y-100707238D01*
X119302285Y-100707238D01*
X119207047Y-100754857D01*
X119159428Y-100850095D01*
X119159428Y-101088190D01*
X119111809Y-101183428D01*
X118192761Y-99007238D02*
X118240380Y-99102476D01*
X118240380Y-99292952D01*
X118192761Y-99388190D01*
X118097523Y-99435809D01*
X118049904Y-99435809D01*
X117954666Y-99388190D01*
X117907047Y-99292952D01*
X117907047Y-99150095D01*
X117859428Y-99054857D01*
X117764190Y-99007238D01*
X117716571Y-99007238D01*
X117621333Y-99054857D01*
X117573714Y-99150095D01*
X117573714Y-99292952D01*
X117621333Y-99388190D01*
X118192761Y-100292952D02*
X118240380Y-100197714D01*
X118240380Y-100007238D01*
X118192761Y-99912000D01*
X118145142Y-99864380D01*
X118049904Y-99816761D01*
X117764190Y-99816761D01*
X117668952Y-99864380D01*
X117621333Y-99912000D01*
X117573714Y-100007238D01*
X117573714Y-100197714D01*
X117621333Y-100292952D01*
X118240380Y-100864380D02*
X118192761Y-100769142D01*
X118097523Y-100721523D01*
X117240380Y-100721523D01*
X116868952Y-100183428D02*
X116107047Y-100183428D01*
X115568952Y-100183428D02*
X114807047Y-100183428D01*
X115188000Y-100564380D02*
X115188000Y-99802476D01*
X118868952Y-87283428D02*
X118107047Y-87283428D01*
X116149904Y-87283428D02*
X116102285Y-87235809D01*
X116007047Y-87188190D01*
X115816571Y-87283428D01*
X115721333Y-87235809D01*
X115673714Y-87188190D01*
X117568952Y-87283428D02*
X116807047Y-87283428D01*
X117188000Y-87664380D02*
X117188000Y-86902476D01*
X111502285Y-90302476D02*
X111597523Y-90254857D01*
X111788000Y-90254857D01*
X111883238Y-90302476D01*
X111978476Y-90397714D01*
X112026095Y-90492952D01*
X112026095Y-90683428D01*
X111978476Y-90778666D01*
X111883238Y-90873904D01*
X111788000Y-90921523D01*
X111597523Y-90921523D01*
X111502285Y-90873904D01*
X111692761Y-89921523D02*
X111930857Y-89969142D01*
X112168952Y-90112000D01*
X112311809Y-90350095D01*
X112359428Y-90588190D01*
X112311809Y-90826285D01*
X112168952Y-91064380D01*
X111930857Y-91207238D01*
X111692761Y-91254857D01*
X111454666Y-91207238D01*
X111216571Y-91064380D01*
X111073714Y-90826285D01*
X111026095Y-90588190D01*
X111073714Y-90350095D01*
X111216571Y-90112000D01*
X111454666Y-89969142D01*
X111692761Y-89921523D01*
X110645142Y-90159619D02*
X110597523Y-90112000D01*
X110502285Y-90064380D01*
X110264190Y-90064380D01*
X110168952Y-90112000D01*
X110121333Y-90159619D01*
X110073714Y-90254857D01*
X110073714Y-90350095D01*
X110121333Y-90492952D01*
X110692761Y-91064380D01*
X110073714Y-91064380D01*
X109454666Y-90064380D02*
X109359428Y-90064380D01*
X109264190Y-90112000D01*
X109216571Y-90159619D01*
X109168952Y-90254857D01*
X109121333Y-90445333D01*
X109121333Y-90683428D01*
X109168952Y-90873904D01*
X109216571Y-90969142D01*
X109264190Y-91016761D01*
X109359428Y-91064380D01*
X109454666Y-91064380D01*
X109549904Y-91016761D01*
X109597523Y-90969142D01*
X109645142Y-90873904D01*
X109692761Y-90683428D01*
X109692761Y-90445333D01*
X109645142Y-90254857D01*
X109597523Y-90159619D01*
X109549904Y-90112000D01*
X109454666Y-90064380D01*
X108740380Y-90159619D02*
X108692761Y-90112000D01*
X108597523Y-90064380D01*
X108359428Y-90064380D01*
X108264190Y-90112000D01*
X108216571Y-90159619D01*
X108168952Y-90254857D01*
X108168952Y-90350095D01*
X108216571Y-90492952D01*
X108788000Y-91064380D01*
X108168952Y-91064380D01*
X107549904Y-90064380D02*
X107454666Y-90064380D01*
X107359428Y-90112000D01*
X107311809Y-90159619D01*
X107264190Y-90254857D01*
X107216571Y-90445333D01*
X107216571Y-90683428D01*
X107264190Y-90873904D01*
X107311809Y-90969142D01*
X107359428Y-91016761D01*
X107454666Y-91064380D01*
X107549904Y-91064380D01*
X107645142Y-91016761D01*
X107692761Y-90969142D01*
X107740380Y-90873904D01*
X107788000Y-90683428D01*
X107788000Y-90445333D01*
X107740380Y-90254857D01*
X107692761Y-90159619D01*
X107645142Y-90112000D01*
X107549904Y-90064380D01*
X111854666Y-96164380D02*
X111854666Y-95497714D01*
X111854666Y-95688190D02*
X111807047Y-95592952D01*
X111759428Y-95545333D01*
X111664190Y-95497714D01*
X111568952Y-95497714D01*
X110807047Y-95497714D02*
X110807047Y-96164380D01*
X111235619Y-95497714D02*
X111235619Y-96021523D01*
X111188000Y-96116761D01*
X111092761Y-96164380D01*
X110949904Y-96164380D01*
X110854666Y-96116761D01*
X110807047Y-96069142D01*
X110330857Y-95497714D02*
X110330857Y-96164380D01*
X110330857Y-95592952D02*
X110283238Y-95545333D01*
X110188000Y-95497714D01*
X110045142Y-95497714D01*
X109949904Y-95545333D01*
X109902285Y-95640571D01*
X109902285Y-96164380D01*
X108997523Y-95497714D02*
X108997523Y-96307238D01*
X109045142Y-96402476D01*
X109092761Y-96450095D01*
X109188000Y-96497714D01*
X109330857Y-96497714D01*
X109426095Y-96450095D01*
X108997523Y-96116761D02*
X109092761Y-96164380D01*
X109283238Y-96164380D01*
X109378476Y-96116761D01*
X109426095Y-96069142D01*
X109473714Y-95973904D01*
X109473714Y-95688190D01*
X109426095Y-95592952D01*
X109378476Y-95545333D01*
X109283238Y-95497714D01*
X109092761Y-95497714D01*
X108997523Y-95545333D01*
X108140380Y-96116761D02*
X108235619Y-96164380D01*
X108426095Y-96164380D01*
X108521333Y-96116761D01*
X108568952Y-96021523D01*
X108568952Y-95640571D01*
X108521333Y-95545333D01*
X108426095Y-95497714D01*
X108235619Y-95497714D01*
X108140380Y-95545333D01*
X108092761Y-95640571D01*
X108092761Y-95735809D01*
X108568952Y-95831047D01*
X107664190Y-96164380D02*
X107664190Y-95497714D01*
X107664190Y-95688190D02*
X107616571Y-95592952D01*
X107568952Y-95545333D01*
X107473714Y-95497714D01*
X107378476Y-95497714D01*
X121992761Y-87664380D02*
X121992761Y-86664380D01*
X121611809Y-86664380D01*
X121516571Y-86712000D01*
X121468952Y-86759619D01*
X121421333Y-86854857D01*
X121421333Y-86997714D01*
X121468952Y-87092952D01*
X121516571Y-87140571D01*
X121611809Y-87188190D01*
X121992761Y-87188190D01*
X121088000Y-86664380D02*
X120849904Y-87664380D01*
X120659428Y-86950095D01*
X120468952Y-87664380D01*
X120230857Y-86664380D01*
X119849904Y-87664380D02*
X119849904Y-86664380D01*
X119516571Y-87378666D01*
X119183238Y-86664380D01*
X119183238Y-87664380D01*
X122264190Y-99864380D02*
X122264190Y-98864380D01*
X121835619Y-98959619D02*
X121788000Y-98912000D01*
X121692761Y-98864380D01*
X121454666Y-98864380D01*
X121359428Y-98912000D01*
X121311809Y-98959619D01*
X121264190Y-99054857D01*
X121264190Y-99150095D01*
X121311809Y-99292952D01*
X121883238Y-99864380D01*
X121264190Y-99864380D01*
X120264190Y-99769142D02*
X120311809Y-99816761D01*
X120454666Y-99864380D01*
X120549904Y-99864380D01*
X120692761Y-99816761D01*
X120788000Y-99721523D01*
X120835619Y-99626285D01*
X120883238Y-99435809D01*
X120883238Y-99292952D01*
X120835619Y-99102476D01*
X120788000Y-99007238D01*
X120692761Y-98912000D01*
X120549904Y-98864380D01*
X120454666Y-98864380D01*
X120311809Y-98912000D01*
X120264190Y-98959619D01*
X126454666Y-91064380D02*
X127026095Y-91064380D01*
X126740380Y-91064380D02*
X126740380Y-90064380D01*
X126835619Y-90207238D01*
X126930857Y-90302476D01*
X127026095Y-90350095D01*
X125597523Y-90397714D02*
X125597523Y-91064380D01*
X125835619Y-90016761D02*
X126073714Y-90731047D01*
X125454666Y-90731047D01*
X125073714Y-91064380D02*
X125073714Y-90064380D01*
X125073714Y-90445333D02*
X124978476Y-90397714D01*
X124788000Y-90397714D01*
X124692761Y-90445333D01*
X124645142Y-90492952D01*
X124597523Y-90588190D01*
X124597523Y-90873904D01*
X124645142Y-90969142D01*
X124692761Y-91016761D01*
X124788000Y-91064380D01*
X124978476Y-91064380D01*
X125073714Y-91016761D01*
X124168952Y-91064380D02*
X124168952Y-90397714D01*
X124168952Y-90064380D02*
X124216571Y-90112000D01*
X124168952Y-90159619D01*
X124121333Y-90112000D01*
X124168952Y-90064380D01*
X124168952Y-90159619D01*
X123835619Y-90397714D02*
X123454666Y-90397714D01*
X123692761Y-90064380D02*
X123692761Y-90921523D01*
X123645142Y-91016761D01*
X123549904Y-91064380D01*
X123454666Y-91064380D01*
X126816571Y-95697714D02*
X126578476Y-96364380D01*
X126340380Y-95697714D01*
X125435619Y-96364380D02*
X126007047Y-96364380D01*
X125721333Y-96364380D02*
X125721333Y-95364380D01*
X125816571Y-95507238D01*
X125911809Y-95602476D01*
X126007047Y-95650095D01*
X125007047Y-96269142D02*
X124959428Y-96316761D01*
X125007047Y-96364380D01*
X125054666Y-96316761D01*
X125007047Y-96269142D01*
X125007047Y-96364380D01*
X124340380Y-95364380D02*
X124245142Y-95364380D01*
X124149904Y-95412000D01*
X124102285Y-95459619D01*
X124054666Y-95554857D01*
X124007047Y-95745333D01*
X124007047Y-95983428D01*
X124054666Y-96173904D01*
X124102285Y-96269142D01*
X124149904Y-96316761D01*
X124245142Y-96364380D01*
X124340380Y-96364380D01*
X124435619Y-96316761D01*
X124483238Y-96269142D01*
X124530857Y-96173904D01*
X124578476Y-95983428D01*
X124578476Y-95745333D01*
X124530857Y-95554857D01*
X124483238Y-95459619D01*
X124435619Y-95412000D01*
X124340380Y-95364380D01*
X114863000Y-95812000D02*
X113513000Y-95812000D01*
X114863000Y-90687000D02*
X119513000Y-90687000D01*
X114863000Y-95937000D02*
X119513000Y-95937000D01*
X114863000Y-90687000D02*
X114863000Y-90912000D01*
X119513000Y-90687000D02*
X119513000Y-90912000D01*
X119513000Y-95937000D02*
X119513000Y-95712000D01*
X114863000Y-95937000D02*
X114863000Y-95812000D01*
D11*
X117797523Y-96423904D02*
X117797523Y-97071523D01*
X117759428Y-97147714D01*
X117721333Y-97185809D01*
X117645142Y-97223904D01*
X117492761Y-97223904D01*
X117416571Y-97185809D01*
X117378476Y-97147714D01*
X117340380Y-97071523D01*
X117340380Y-96423904D01*
X116540380Y-97223904D02*
X116997523Y-97223904D01*
X116768952Y-97223904D02*
X116768952Y-96423904D01*
X116845142Y-96538190D01*
X116921333Y-96614380D01*
X116997523Y-96652476D01*
M02*
