G04 #@! TF.GenerationSoftware,KiCad,Pcbnew,(5.1.5-0-10_14)*
G04 #@! TF.CreationDate,2020-09-21T02:14:23+02:00*
G04 #@! TF.ProjectId,Encoder,456e636f-6465-4722-9e6b-696361645f70,rev?*
G04 #@! TF.SameCoordinates,Original*
G04 #@! TF.FileFunction,Copper,L2,Bot*
G04 #@! TF.FilePolarity,Positive*
%FSLAX46Y46*%
G04 Gerber Fmt 4.6, Leading zero omitted, Abs format (unit mm)*
G04 Created by KiCad (PCBNEW (5.1.5-0-10_14)) date 2020-09-21 02:14:23*
%MOMM*%
%LPD*%
G04 APERTURE LIST*
%ADD10O,1.000000X1.000000*%
%ADD11R,1.000000X1.000000*%
%ADD12R,1.450000X0.450000*%
%ADD13C,0.800000*%
%ADD14C,0.250000*%
G04 APERTURE END LIST*
D10*
X118428000Y-86212000D03*
X117158000Y-86212000D03*
D11*
X115888000Y-86212000D03*
D12*
X120138000Y-95262000D03*
X120138000Y-94612000D03*
X120138000Y-93962000D03*
X120138000Y-93312000D03*
X120138000Y-92662000D03*
X120138000Y-92012000D03*
X120138000Y-91362000D03*
X114238000Y-91362000D03*
X114238000Y-92012000D03*
X114238000Y-92662000D03*
X114238000Y-93312000D03*
X114238000Y-93962000D03*
X114238000Y-94612000D03*
X114238000Y-95262000D03*
D13*
X116488000Y-90112000D03*
X121588000Y-94912000D03*
X115588000Y-92512000D03*
X118988000Y-88012000D03*
X121570500Y-93829500D03*
X118188000Y-96912000D03*
X117288000Y-97712000D03*
X115188000Y-87812000D03*
X113088000Y-87912000D03*
X122388000Y-89312000D03*
D14*
X121388000Y-94612000D02*
X121588000Y-94812000D01*
X120138000Y-94612000D02*
X121388000Y-94612000D01*
X115438000Y-92662000D02*
X115588000Y-92512000D01*
X114238000Y-92662000D02*
X115438000Y-92662000D01*
X122295501Y-94670184D02*
X122295501Y-91319501D01*
X122153685Y-94812000D02*
X122295501Y-94670184D01*
X121588000Y-94812000D02*
X122153685Y-94812000D01*
X122295501Y-91319501D02*
X118988000Y-88012000D01*
X119163000Y-93962000D02*
X118988000Y-93787000D01*
X120138000Y-93962000D02*
X119163000Y-93962000D01*
X118988000Y-93787000D02*
X118988000Y-91912000D01*
X118988000Y-91912000D02*
X117188000Y-90112000D01*
X117188000Y-90112000D02*
X116488000Y-90112000D01*
X121053000Y-93312000D02*
X121570500Y-93829500D01*
X120138000Y-93312000D02*
X121053000Y-93312000D01*
X114688000Y-96912000D02*
X118188000Y-96912000D01*
X114238000Y-96462000D02*
X114688000Y-96912000D01*
X114238000Y-95262000D02*
X114238000Y-96462000D01*
X113263000Y-94612000D02*
X114238000Y-94612000D01*
X113187999Y-94687001D02*
X113263000Y-94612000D01*
X113187999Y-96211999D02*
X113187999Y-94687001D01*
X114688000Y-97712000D02*
X113187999Y-96211999D01*
X117288000Y-97712000D02*
X114688000Y-97712000D01*
X119163000Y-95262000D02*
X116313001Y-92412001D01*
X116313001Y-92412001D02*
X116313001Y-91637001D01*
X120138000Y-95262000D02*
X119163000Y-95262000D01*
X116313001Y-91637001D02*
X115188000Y-90512000D01*
X115188000Y-90512000D02*
X115188000Y-90338998D01*
X115188000Y-90338998D02*
X115188000Y-87812000D01*
X115188000Y-87812000D02*
X115188000Y-87812000D01*
X113263000Y-93312000D02*
X113088000Y-93137000D01*
X114238000Y-93312000D02*
X113263000Y-93312000D01*
X113088000Y-93137000D02*
X113088000Y-90976998D01*
X113088000Y-90976998D02*
X113088000Y-88212000D01*
X113088000Y-88212000D02*
X113088000Y-87912000D01*
X113088000Y-87912000D02*
X113088000Y-87912000D01*
X122745511Y-94856584D02*
X122745511Y-89669511D01*
X114776591Y-98437001D02*
X119165094Y-98437001D01*
X113263000Y-93962000D02*
X112737990Y-94487010D01*
X119165094Y-98437001D02*
X122745511Y-94856584D01*
X114238000Y-93962000D02*
X113263000Y-93962000D01*
X112737990Y-96398400D02*
X114776591Y-98437001D01*
X112737990Y-94487010D02*
X112737990Y-96398400D01*
X122745511Y-89669511D02*
X122388000Y-89312000D01*
M02*
