G04 #@! TF.GenerationSoftware,KiCad,Pcbnew,(5.1.5-0-10_14)*
G04 #@! TF.CreationDate,2020-09-21T02:14:23+02:00*
G04 #@! TF.ProjectId,Encoder,456e636f-6465-4722-9e6b-696361645f70,rev?*
G04 #@! TF.SameCoordinates,Original*
G04 #@! TF.FileFunction,Soldermask,Top*
G04 #@! TF.FilePolarity,Negative*
%FSLAX46Y46*%
G04 Gerber Fmt 4.6, Leading zero omitted, Abs format (unit mm)*
G04 Created by KiCad (PCBNEW (5.1.5-0-10_14)) date 2020-09-21 02:14:23*
%MOMM*%
%LPD*%
G04 APERTURE LIST*
%ADD10C,0.100000*%
G04 APERTURE END LIST*
D10*
G36*
X120479242Y-98440404D02*
G01*
X120516337Y-98451657D01*
X120550515Y-98469925D01*
X120580481Y-98494519D01*
X120605075Y-98524485D01*
X120623343Y-98558663D01*
X120634596Y-98595758D01*
X120639000Y-98640474D01*
X120639000Y-100133526D01*
X120634596Y-100178242D01*
X120623343Y-100215337D01*
X120605075Y-100249515D01*
X120580481Y-100279481D01*
X120550515Y-100304075D01*
X120516337Y-100322343D01*
X120479242Y-100333596D01*
X120434526Y-100338000D01*
X119541474Y-100338000D01*
X119496758Y-100333596D01*
X119459663Y-100322343D01*
X119425485Y-100304075D01*
X119395519Y-100279481D01*
X119370925Y-100249515D01*
X119352657Y-100215337D01*
X119341404Y-100178242D01*
X119337000Y-100133526D01*
X119337000Y-98640474D01*
X119341404Y-98595758D01*
X119352657Y-98558663D01*
X119370925Y-98524485D01*
X119395519Y-98494519D01*
X119425485Y-98469925D01*
X119459663Y-98451657D01*
X119496758Y-98440404D01*
X119541474Y-98436000D01*
X120434526Y-98436000D01*
X120479242Y-98440404D01*
G37*
G36*
X114879242Y-98440404D02*
G01*
X114916337Y-98451657D01*
X114950515Y-98469925D01*
X114980481Y-98494519D01*
X115005075Y-98524485D01*
X115023343Y-98558663D01*
X115034596Y-98595758D01*
X115039000Y-98640474D01*
X115039000Y-100133526D01*
X115034596Y-100178242D01*
X115023343Y-100215337D01*
X115005075Y-100249515D01*
X114980481Y-100279481D01*
X114950515Y-100304075D01*
X114916337Y-100322343D01*
X114879242Y-100333596D01*
X114834526Y-100338000D01*
X113941474Y-100338000D01*
X113896758Y-100333596D01*
X113859663Y-100322343D01*
X113825485Y-100304075D01*
X113795519Y-100279481D01*
X113770925Y-100249515D01*
X113752657Y-100215337D01*
X113741404Y-100178242D01*
X113737000Y-100133526D01*
X113737000Y-98640474D01*
X113741404Y-98595758D01*
X113752657Y-98558663D01*
X113770925Y-98524485D01*
X113795519Y-98494519D01*
X113825485Y-98469925D01*
X113859663Y-98451657D01*
X113896758Y-98440404D01*
X113941474Y-98436000D01*
X114834526Y-98436000D01*
X114879242Y-98440404D01*
G37*
G36*
X118947928Y-94688764D02*
G01*
X118969009Y-94695160D01*
X118988445Y-94705548D01*
X119005476Y-94719524D01*
X119019452Y-94736555D01*
X119029840Y-94755991D01*
X119036236Y-94777072D01*
X119039000Y-94805140D01*
X119039000Y-96218860D01*
X119036236Y-96246928D01*
X119029840Y-96268009D01*
X119019452Y-96287445D01*
X119005476Y-96304476D01*
X118988445Y-96318452D01*
X118969009Y-96328840D01*
X118947928Y-96335236D01*
X118919860Y-96338000D01*
X118456140Y-96338000D01*
X118428072Y-96335236D01*
X118406991Y-96328840D01*
X118387555Y-96318452D01*
X118370524Y-96304476D01*
X118356548Y-96287445D01*
X118346160Y-96268009D01*
X118339764Y-96246928D01*
X118337000Y-96218860D01*
X118337000Y-94805140D01*
X118339764Y-94777072D01*
X118346160Y-94755991D01*
X118356548Y-94736555D01*
X118370524Y-94719524D01*
X118387555Y-94705548D01*
X118406991Y-94695160D01*
X118428072Y-94688764D01*
X118456140Y-94686000D01*
X118919860Y-94686000D01*
X118947928Y-94688764D01*
G37*
G36*
X117947928Y-94688764D02*
G01*
X117969009Y-94695160D01*
X117988445Y-94705548D01*
X118005476Y-94719524D01*
X118019452Y-94736555D01*
X118029840Y-94755991D01*
X118036236Y-94777072D01*
X118039000Y-94805140D01*
X118039000Y-96218860D01*
X118036236Y-96246928D01*
X118029840Y-96268009D01*
X118019452Y-96287445D01*
X118005476Y-96304476D01*
X117988445Y-96318452D01*
X117969009Y-96328840D01*
X117947928Y-96335236D01*
X117919860Y-96338000D01*
X117456140Y-96338000D01*
X117428072Y-96335236D01*
X117406991Y-96328840D01*
X117387555Y-96318452D01*
X117370524Y-96304476D01*
X117356548Y-96287445D01*
X117346160Y-96268009D01*
X117339764Y-96246928D01*
X117337000Y-96218860D01*
X117337000Y-94805140D01*
X117339764Y-94777072D01*
X117346160Y-94755991D01*
X117356548Y-94736555D01*
X117370524Y-94719524D01*
X117387555Y-94705548D01*
X117406991Y-94695160D01*
X117428072Y-94688764D01*
X117456140Y-94686000D01*
X117919860Y-94686000D01*
X117947928Y-94688764D01*
G37*
G36*
X116947928Y-94688764D02*
G01*
X116969009Y-94695160D01*
X116988445Y-94705548D01*
X117005476Y-94719524D01*
X117019452Y-94736555D01*
X117029840Y-94755991D01*
X117036236Y-94777072D01*
X117039000Y-94805140D01*
X117039000Y-96218860D01*
X117036236Y-96246928D01*
X117029840Y-96268009D01*
X117019452Y-96287445D01*
X117005476Y-96304476D01*
X116988445Y-96318452D01*
X116969009Y-96328840D01*
X116947928Y-96335236D01*
X116919860Y-96338000D01*
X116456140Y-96338000D01*
X116428072Y-96335236D01*
X116406991Y-96328840D01*
X116387555Y-96318452D01*
X116370524Y-96304476D01*
X116356548Y-96287445D01*
X116346160Y-96268009D01*
X116339764Y-96246928D01*
X116337000Y-96218860D01*
X116337000Y-94805140D01*
X116339764Y-94777072D01*
X116346160Y-94755991D01*
X116356548Y-94736555D01*
X116370524Y-94719524D01*
X116387555Y-94705548D01*
X116406991Y-94695160D01*
X116428072Y-94688764D01*
X116456140Y-94686000D01*
X116919860Y-94686000D01*
X116947928Y-94688764D01*
G37*
G36*
X115947928Y-94688764D02*
G01*
X115969009Y-94695160D01*
X115988445Y-94705548D01*
X116005476Y-94719524D01*
X116019452Y-94736555D01*
X116029840Y-94755991D01*
X116036236Y-94777072D01*
X116039000Y-94805140D01*
X116039000Y-96218860D01*
X116036236Y-96246928D01*
X116029840Y-96268009D01*
X116019452Y-96287445D01*
X116005476Y-96304476D01*
X115988445Y-96318452D01*
X115969009Y-96328840D01*
X115947928Y-96335236D01*
X115919860Y-96338000D01*
X115456140Y-96338000D01*
X115428072Y-96335236D01*
X115406991Y-96328840D01*
X115387555Y-96318452D01*
X115370524Y-96304476D01*
X115356548Y-96287445D01*
X115346160Y-96268009D01*
X115339764Y-96246928D01*
X115337000Y-96218860D01*
X115337000Y-94805140D01*
X115339764Y-94777072D01*
X115346160Y-94755991D01*
X115356548Y-94736555D01*
X115370524Y-94719524D01*
X115387555Y-94705548D01*
X115406991Y-94695160D01*
X115428072Y-94688764D01*
X115456140Y-94686000D01*
X115919860Y-94686000D01*
X115947928Y-94688764D01*
G37*
G36*
X122769938Y-95053716D02*
G01*
X122790557Y-95059971D01*
X122809553Y-95070124D01*
X122826208Y-95083792D01*
X122839876Y-95100447D01*
X122850029Y-95119443D01*
X122856284Y-95140062D01*
X122859000Y-95167640D01*
X122859000Y-95626360D01*
X122856284Y-95653938D01*
X122850029Y-95674557D01*
X122839876Y-95693553D01*
X122826208Y-95710208D01*
X122809553Y-95723876D01*
X122790557Y-95734029D01*
X122769938Y-95740284D01*
X122742360Y-95743000D01*
X122233640Y-95743000D01*
X122206062Y-95740284D01*
X122185443Y-95734029D01*
X122166447Y-95723876D01*
X122149792Y-95710208D01*
X122136124Y-95693553D01*
X122125971Y-95674557D01*
X122119716Y-95653938D01*
X122117000Y-95626360D01*
X122117000Y-95167640D01*
X122119716Y-95140062D01*
X122125971Y-95119443D01*
X122136124Y-95100447D01*
X122149792Y-95083792D01*
X122166447Y-95070124D01*
X122185443Y-95059971D01*
X122206062Y-95053716D01*
X122233640Y-95051000D01*
X122742360Y-95051000D01*
X122769938Y-95053716D01*
G37*
G36*
X122769938Y-94083716D02*
G01*
X122790557Y-94089971D01*
X122809553Y-94100124D01*
X122826208Y-94113792D01*
X122839876Y-94130447D01*
X122850029Y-94149443D01*
X122856284Y-94170062D01*
X122859000Y-94197640D01*
X122859000Y-94656360D01*
X122856284Y-94683938D01*
X122850029Y-94704557D01*
X122839876Y-94723553D01*
X122826208Y-94740208D01*
X122809553Y-94753876D01*
X122790557Y-94764029D01*
X122769938Y-94770284D01*
X122742360Y-94773000D01*
X122233640Y-94773000D01*
X122206062Y-94770284D01*
X122185443Y-94764029D01*
X122166447Y-94753876D01*
X122149792Y-94740208D01*
X122136124Y-94723553D01*
X122125971Y-94704557D01*
X122119716Y-94683938D01*
X122117000Y-94656360D01*
X122117000Y-94197640D01*
X122119716Y-94170062D01*
X122125971Y-94149443D01*
X122136124Y-94130447D01*
X122149792Y-94113792D01*
X122166447Y-94100124D01*
X122185443Y-94089971D01*
X122206062Y-94083716D01*
X122233640Y-94081000D01*
X122742360Y-94081000D01*
X122769938Y-94083716D01*
G37*
G36*
X125892706Y-92179169D02*
G01*
X126023734Y-92205232D01*
X126233203Y-92291997D01*
X126421720Y-92417960D01*
X126582040Y-92578280D01*
X126708003Y-92766797D01*
X126794768Y-92976266D01*
X126839000Y-93198636D01*
X126839000Y-93425364D01*
X126794768Y-93647734D01*
X126708003Y-93857203D01*
X126582040Y-94045720D01*
X126421720Y-94206040D01*
X126233203Y-94332003D01*
X126023734Y-94418768D01*
X125912549Y-94440884D01*
X125801365Y-94463000D01*
X125574635Y-94463000D01*
X125463451Y-94440884D01*
X125352266Y-94418768D01*
X125142797Y-94332003D01*
X124954280Y-94206040D01*
X124793960Y-94045720D01*
X124667997Y-93857203D01*
X124581232Y-93647734D01*
X124537000Y-93425364D01*
X124537000Y-93198636D01*
X124581232Y-92976266D01*
X124667997Y-92766797D01*
X124793960Y-92578280D01*
X124954280Y-92417960D01*
X125142797Y-92291997D01*
X125352266Y-92205232D01*
X125483294Y-92179169D01*
X125574635Y-92161000D01*
X125801365Y-92161000D01*
X125892706Y-92179169D01*
G37*
G36*
X108892706Y-92179169D02*
G01*
X109023734Y-92205232D01*
X109233203Y-92291997D01*
X109421720Y-92417960D01*
X109582040Y-92578280D01*
X109708003Y-92766797D01*
X109794768Y-92976266D01*
X109839000Y-93198636D01*
X109839000Y-93425364D01*
X109794768Y-93647734D01*
X109708003Y-93857203D01*
X109582040Y-94045720D01*
X109421720Y-94206040D01*
X109233203Y-94332003D01*
X109023734Y-94418768D01*
X108912549Y-94440884D01*
X108801365Y-94463000D01*
X108574635Y-94463000D01*
X108463451Y-94440884D01*
X108352266Y-94418768D01*
X108142797Y-94332003D01*
X107954280Y-94206040D01*
X107793960Y-94045720D01*
X107667997Y-93857203D01*
X107581232Y-93647734D01*
X107537000Y-93425364D01*
X107537000Y-93198636D01*
X107581232Y-92976266D01*
X107667997Y-92766797D01*
X107793960Y-92578280D01*
X107954280Y-92417960D01*
X108142797Y-92291997D01*
X108352266Y-92205232D01*
X108483294Y-92179169D01*
X108574635Y-92161000D01*
X108801365Y-92161000D01*
X108892706Y-92179169D01*
G37*
G36*
X117444938Y-93243716D02*
G01*
X117465557Y-93249971D01*
X117484553Y-93260124D01*
X117501208Y-93273792D01*
X117514876Y-93290447D01*
X117525029Y-93309443D01*
X117531284Y-93330062D01*
X117534000Y-93357640D01*
X117534000Y-93866360D01*
X117531284Y-93893938D01*
X117525029Y-93914557D01*
X117514876Y-93933553D01*
X117501208Y-93950208D01*
X117484553Y-93963876D01*
X117465557Y-93974029D01*
X117444938Y-93980284D01*
X117417360Y-93983000D01*
X116958640Y-93983000D01*
X116931062Y-93980284D01*
X116910443Y-93974029D01*
X116891447Y-93963876D01*
X116874792Y-93950208D01*
X116861124Y-93933553D01*
X116850971Y-93914557D01*
X116844716Y-93893938D01*
X116842000Y-93866360D01*
X116842000Y-93357640D01*
X116844716Y-93330062D01*
X116850971Y-93309443D01*
X116861124Y-93290447D01*
X116874792Y-93273792D01*
X116891447Y-93260124D01*
X116910443Y-93249971D01*
X116931062Y-93243716D01*
X116958640Y-93241000D01*
X117417360Y-93241000D01*
X117444938Y-93243716D01*
G37*
G36*
X118414938Y-93243716D02*
G01*
X118435557Y-93249971D01*
X118454553Y-93260124D01*
X118471208Y-93273792D01*
X118484876Y-93290447D01*
X118495029Y-93309443D01*
X118501284Y-93330062D01*
X118504000Y-93357640D01*
X118504000Y-93866360D01*
X118501284Y-93893938D01*
X118495029Y-93914557D01*
X118484876Y-93933553D01*
X118471208Y-93950208D01*
X118454553Y-93963876D01*
X118435557Y-93974029D01*
X118414938Y-93980284D01*
X118387360Y-93983000D01*
X117928640Y-93983000D01*
X117901062Y-93980284D01*
X117880443Y-93974029D01*
X117861447Y-93963876D01*
X117844792Y-93950208D01*
X117831124Y-93933553D01*
X117820971Y-93914557D01*
X117814716Y-93893938D01*
X117812000Y-93866360D01*
X117812000Y-93357640D01*
X117814716Y-93330062D01*
X117820971Y-93309443D01*
X117831124Y-93290447D01*
X117844792Y-93273792D01*
X117861447Y-93260124D01*
X117880443Y-93249971D01*
X117901062Y-93243716D01*
X117928640Y-93241000D01*
X118387360Y-93241000D01*
X118414938Y-93243716D01*
G37*
G36*
X113269938Y-92168716D02*
G01*
X113290557Y-92174971D01*
X113309553Y-92185124D01*
X113326208Y-92198792D01*
X113339876Y-92215447D01*
X113350029Y-92234443D01*
X113356284Y-92255062D01*
X113359000Y-92282640D01*
X113359000Y-92741360D01*
X113356284Y-92768938D01*
X113350029Y-92789557D01*
X113339876Y-92808553D01*
X113326208Y-92825208D01*
X113309553Y-92838876D01*
X113290557Y-92849029D01*
X113269938Y-92855284D01*
X113242360Y-92858000D01*
X112733640Y-92858000D01*
X112706062Y-92855284D01*
X112685443Y-92849029D01*
X112666447Y-92838876D01*
X112649792Y-92825208D01*
X112636124Y-92808553D01*
X112625971Y-92789557D01*
X112619716Y-92768938D01*
X112617000Y-92741360D01*
X112617000Y-92282640D01*
X112619716Y-92255062D01*
X112625971Y-92234443D01*
X112636124Y-92215447D01*
X112649792Y-92198792D01*
X112666447Y-92185124D01*
X112685443Y-92174971D01*
X112706062Y-92168716D01*
X112733640Y-92166000D01*
X113242360Y-92166000D01*
X113269938Y-92168716D01*
G37*
G36*
X111969938Y-92168716D02*
G01*
X111990557Y-92174971D01*
X112009553Y-92185124D01*
X112026208Y-92198792D01*
X112039876Y-92215447D01*
X112050029Y-92234443D01*
X112056284Y-92255062D01*
X112059000Y-92282640D01*
X112059000Y-92741360D01*
X112056284Y-92768938D01*
X112050029Y-92789557D01*
X112039876Y-92808553D01*
X112026208Y-92825208D01*
X112009553Y-92838876D01*
X111990557Y-92849029D01*
X111969938Y-92855284D01*
X111942360Y-92858000D01*
X111433640Y-92858000D01*
X111406062Y-92855284D01*
X111385443Y-92849029D01*
X111366447Y-92838876D01*
X111349792Y-92825208D01*
X111336124Y-92808553D01*
X111325971Y-92789557D01*
X111319716Y-92768938D01*
X111317000Y-92741360D01*
X111317000Y-92282640D01*
X111319716Y-92255062D01*
X111325971Y-92234443D01*
X111336124Y-92215447D01*
X111349792Y-92198792D01*
X111366447Y-92185124D01*
X111385443Y-92174971D01*
X111406062Y-92168716D01*
X111433640Y-92166000D01*
X111942360Y-92166000D01*
X111969938Y-92168716D01*
G37*
G36*
X122869938Y-92153716D02*
G01*
X122890557Y-92159971D01*
X122909553Y-92170124D01*
X122926208Y-92183792D01*
X122939876Y-92200447D01*
X122950029Y-92219443D01*
X122956284Y-92240062D01*
X122959000Y-92267640D01*
X122959000Y-92726360D01*
X122956284Y-92753938D01*
X122950029Y-92774557D01*
X122939876Y-92793553D01*
X122926208Y-92810208D01*
X122909553Y-92823876D01*
X122890557Y-92834029D01*
X122869938Y-92840284D01*
X122842360Y-92843000D01*
X122333640Y-92843000D01*
X122306062Y-92840284D01*
X122285443Y-92834029D01*
X122266447Y-92823876D01*
X122249792Y-92810208D01*
X122236124Y-92793553D01*
X122225971Y-92774557D01*
X122219716Y-92753938D01*
X122217000Y-92726360D01*
X122217000Y-92267640D01*
X122219716Y-92240062D01*
X122225971Y-92219443D01*
X122236124Y-92200447D01*
X122249792Y-92183792D01*
X122266447Y-92170124D01*
X122285443Y-92159971D01*
X122306062Y-92153716D01*
X122333640Y-92151000D01*
X122842360Y-92151000D01*
X122869938Y-92153716D01*
G37*
G36*
X121669938Y-92138716D02*
G01*
X121690557Y-92144971D01*
X121709553Y-92155124D01*
X121726208Y-92168792D01*
X121739876Y-92185447D01*
X121750029Y-92204443D01*
X121756284Y-92225062D01*
X121759000Y-92252640D01*
X121759000Y-92711360D01*
X121756284Y-92738938D01*
X121750029Y-92759557D01*
X121739876Y-92778553D01*
X121726208Y-92795208D01*
X121709553Y-92808876D01*
X121690557Y-92819029D01*
X121669938Y-92825284D01*
X121642360Y-92828000D01*
X121133640Y-92828000D01*
X121106062Y-92825284D01*
X121085443Y-92819029D01*
X121066447Y-92808876D01*
X121049792Y-92795208D01*
X121036124Y-92778553D01*
X121025971Y-92759557D01*
X121019716Y-92738938D01*
X121017000Y-92711360D01*
X121017000Y-92252640D01*
X121019716Y-92225062D01*
X121025971Y-92204443D01*
X121036124Y-92185447D01*
X121049792Y-92168792D01*
X121066447Y-92155124D01*
X121085443Y-92144971D01*
X121106062Y-92138716D01*
X121133640Y-92136000D01*
X121642360Y-92136000D01*
X121669938Y-92138716D01*
G37*
G36*
X113269938Y-91198716D02*
G01*
X113290557Y-91204971D01*
X113309553Y-91215124D01*
X113326208Y-91228792D01*
X113339876Y-91245447D01*
X113350029Y-91264443D01*
X113356284Y-91285062D01*
X113359000Y-91312640D01*
X113359000Y-91771360D01*
X113356284Y-91798938D01*
X113350029Y-91819557D01*
X113339876Y-91838553D01*
X113326208Y-91855208D01*
X113309553Y-91868876D01*
X113290557Y-91879029D01*
X113269938Y-91885284D01*
X113242360Y-91888000D01*
X112733640Y-91888000D01*
X112706062Y-91885284D01*
X112685443Y-91879029D01*
X112666447Y-91868876D01*
X112649792Y-91855208D01*
X112636124Y-91838553D01*
X112625971Y-91819557D01*
X112619716Y-91798938D01*
X112617000Y-91771360D01*
X112617000Y-91312640D01*
X112619716Y-91285062D01*
X112625971Y-91264443D01*
X112636124Y-91245447D01*
X112649792Y-91228792D01*
X112666447Y-91215124D01*
X112685443Y-91204971D01*
X112706062Y-91198716D01*
X112733640Y-91196000D01*
X113242360Y-91196000D01*
X113269938Y-91198716D01*
G37*
G36*
X111969938Y-91198716D02*
G01*
X111990557Y-91204971D01*
X112009553Y-91215124D01*
X112026208Y-91228792D01*
X112039876Y-91245447D01*
X112050029Y-91264443D01*
X112056284Y-91285062D01*
X112059000Y-91312640D01*
X112059000Y-91771360D01*
X112056284Y-91798938D01*
X112050029Y-91819557D01*
X112039876Y-91838553D01*
X112026208Y-91855208D01*
X112009553Y-91868876D01*
X111990557Y-91879029D01*
X111969938Y-91885284D01*
X111942360Y-91888000D01*
X111433640Y-91888000D01*
X111406062Y-91885284D01*
X111385443Y-91879029D01*
X111366447Y-91868876D01*
X111349792Y-91855208D01*
X111336124Y-91838553D01*
X111325971Y-91819557D01*
X111319716Y-91798938D01*
X111317000Y-91771360D01*
X111317000Y-91312640D01*
X111319716Y-91285062D01*
X111325971Y-91264443D01*
X111336124Y-91245447D01*
X111349792Y-91228792D01*
X111366447Y-91215124D01*
X111385443Y-91204971D01*
X111406062Y-91198716D01*
X111433640Y-91196000D01*
X111942360Y-91196000D01*
X111969938Y-91198716D01*
G37*
G36*
X122869938Y-91183716D02*
G01*
X122890557Y-91189971D01*
X122909553Y-91200124D01*
X122926208Y-91213792D01*
X122939876Y-91230447D01*
X122950029Y-91249443D01*
X122956284Y-91270062D01*
X122959000Y-91297640D01*
X122959000Y-91756360D01*
X122956284Y-91783938D01*
X122950029Y-91804557D01*
X122939876Y-91823553D01*
X122926208Y-91840208D01*
X122909553Y-91853876D01*
X122890557Y-91864029D01*
X122869938Y-91870284D01*
X122842360Y-91873000D01*
X122333640Y-91873000D01*
X122306062Y-91870284D01*
X122285443Y-91864029D01*
X122266447Y-91853876D01*
X122249792Y-91840208D01*
X122236124Y-91823553D01*
X122225971Y-91804557D01*
X122219716Y-91783938D01*
X122217000Y-91756360D01*
X122217000Y-91297640D01*
X122219716Y-91270062D01*
X122225971Y-91249443D01*
X122236124Y-91230447D01*
X122249792Y-91213792D01*
X122266447Y-91200124D01*
X122285443Y-91189971D01*
X122306062Y-91183716D01*
X122333640Y-91181000D01*
X122842360Y-91181000D01*
X122869938Y-91183716D01*
G37*
G36*
X121669938Y-91168716D02*
G01*
X121690557Y-91174971D01*
X121709553Y-91185124D01*
X121726208Y-91198792D01*
X121739876Y-91215447D01*
X121750029Y-91234443D01*
X121756284Y-91255062D01*
X121759000Y-91282640D01*
X121759000Y-91741360D01*
X121756284Y-91768938D01*
X121750029Y-91789557D01*
X121739876Y-91808553D01*
X121726208Y-91825208D01*
X121709553Y-91838876D01*
X121690557Y-91849029D01*
X121669938Y-91855284D01*
X121642360Y-91858000D01*
X121133640Y-91858000D01*
X121106062Y-91855284D01*
X121085443Y-91849029D01*
X121066447Y-91838876D01*
X121049792Y-91825208D01*
X121036124Y-91808553D01*
X121025971Y-91789557D01*
X121019716Y-91768938D01*
X121017000Y-91741360D01*
X121017000Y-91282640D01*
X121019716Y-91255062D01*
X121025971Y-91234443D01*
X121036124Y-91215447D01*
X121049792Y-91198792D01*
X121066447Y-91185124D01*
X121085443Y-91174971D01*
X121106062Y-91168716D01*
X121133640Y-91166000D01*
X121642360Y-91166000D01*
X121669938Y-91168716D01*
G37*
G36*
X116972999Y-89311737D02*
G01*
X116982608Y-89314652D01*
X116991472Y-89319390D01*
X116999212Y-89325742D01*
X116999213Y-89325743D01*
X116999237Y-89325763D01*
X117005640Y-89333573D01*
X117005677Y-89333628D01*
X117013480Y-89343147D01*
X117013511Y-89343122D01*
X117024853Y-89356972D01*
X117043779Y-89372537D01*
X117065377Y-89384111D01*
X117088819Y-89391249D01*
X117113202Y-89393676D01*
X117137591Y-89391300D01*
X117161047Y-89384211D01*
X117182670Y-89372682D01*
X117201628Y-89357157D01*
X117217193Y-89338231D01*
X117219029Y-89335175D01*
X117220418Y-89333486D01*
X117220419Y-89333484D01*
X117226801Y-89325725D01*
X117234573Y-89319360D01*
X117234575Y-89319358D01*
X117240483Y-89316209D01*
X117243438Y-89314633D01*
X117253055Y-89311727D01*
X117253085Y-89311718D01*
X117269113Y-89310148D01*
X118406860Y-89310148D01*
X118422999Y-89311737D01*
X118432608Y-89314652D01*
X118441472Y-89319390D01*
X118449237Y-89325763D01*
X118455610Y-89333528D01*
X118460348Y-89342392D01*
X118463263Y-89352001D01*
X118464852Y-89368140D01*
X118464852Y-90855860D01*
X118463263Y-90871999D01*
X118460348Y-90881608D01*
X118455610Y-90890472D01*
X118449237Y-90898237D01*
X118441472Y-90904610D01*
X118432608Y-90909348D01*
X118422999Y-90912263D01*
X118406860Y-90913852D01*
X117269140Y-90913852D01*
X117253001Y-90912263D01*
X117243392Y-90909348D01*
X117234528Y-90904610D01*
X117226763Y-90898237D01*
X117216116Y-90885263D01*
X117209947Y-90876032D01*
X117192619Y-90858706D01*
X117172244Y-90845093D01*
X117149605Y-90835717D01*
X117125572Y-90830937D01*
X117101068Y-90830938D01*
X117077035Y-90835720D01*
X117054396Y-90845098D01*
X117034022Y-90858713D01*
X117016696Y-90876041D01*
X117009825Y-90885317D01*
X117005640Y-90890427D01*
X116999275Y-90898199D01*
X116991516Y-90904581D01*
X116982661Y-90909326D01*
X116979623Y-90910251D01*
X116973085Y-90912242D01*
X116973082Y-90912242D01*
X116973050Y-90912252D01*
X116963000Y-90913247D01*
X116962935Y-90913247D01*
X116956825Y-90913852D01*
X115969140Y-90913852D01*
X115953001Y-90912263D01*
X115943392Y-90909348D01*
X115934528Y-90904610D01*
X115926763Y-90898237D01*
X115920390Y-90890472D01*
X115915652Y-90881608D01*
X115912737Y-90871999D01*
X115911148Y-90855860D01*
X115911148Y-89368140D01*
X115912737Y-89352001D01*
X115915652Y-89342392D01*
X115920390Y-89333528D01*
X115926763Y-89325763D01*
X115934528Y-89319390D01*
X115943392Y-89314652D01*
X115953001Y-89311737D01*
X115969140Y-89310148D01*
X116956860Y-89310148D01*
X116972999Y-89311737D01*
G37*
G36*
X121362124Y-87265202D02*
G01*
X121371733Y-87268117D01*
X121380597Y-87272855D01*
X121393132Y-87283142D01*
X122091554Y-87981564D01*
X122101841Y-87994099D01*
X122106579Y-88002963D01*
X122109494Y-88012572D01*
X122110475Y-88022537D01*
X122110478Y-88022571D01*
X122109483Y-88032621D01*
X122109470Y-88032685D01*
X122108257Y-88044938D01*
X122108296Y-88044942D01*
X122106523Y-88062743D01*
X122108898Y-88087131D01*
X122115985Y-88110588D01*
X122127512Y-88132212D01*
X122143036Y-88151171D01*
X122161961Y-88166737D01*
X122183558Y-88178313D01*
X122206999Y-88185452D01*
X122231383Y-88187881D01*
X122249130Y-88185269D01*
X122249165Y-88185624D01*
X122261417Y-88184430D01*
X122261418Y-88184430D01*
X122271417Y-88183456D01*
X122271419Y-88183456D01*
X122281413Y-88184450D01*
X122288780Y-88186694D01*
X122291024Y-88187377D01*
X122299879Y-88192122D01*
X122299882Y-88192125D01*
X122299907Y-88192138D01*
X122312346Y-88202356D01*
X123116858Y-89006868D01*
X123127145Y-89019403D01*
X123131883Y-89028267D01*
X123134798Y-89037876D01*
X123135782Y-89047875D01*
X123134798Y-89057874D01*
X123131883Y-89067483D01*
X123127145Y-89076347D01*
X123116858Y-89088882D01*
X122064882Y-90140858D01*
X122052347Y-90151145D01*
X122043483Y-90155883D01*
X122033874Y-90158798D01*
X122023875Y-90159782D01*
X122013876Y-90158798D01*
X122004267Y-90155883D01*
X121995403Y-90151145D01*
X121982868Y-90140858D01*
X121178380Y-89336370D01*
X121168093Y-89323835D01*
X121163355Y-89314971D01*
X121160440Y-89305362D01*
X121159456Y-89295363D01*
X121161100Y-89278662D01*
X121163265Y-89267784D01*
X121163267Y-89243280D01*
X121158488Y-89219247D01*
X121149112Y-89196607D01*
X121135499Y-89176232D01*
X121118173Y-89158904D01*
X121097800Y-89145289D01*
X121075161Y-89135911D01*
X121051128Y-89131129D01*
X121026624Y-89131127D01*
X121015170Y-89132832D01*
X120998627Y-89134478D01*
X120998625Y-89134478D01*
X120995292Y-89134153D01*
X120988622Y-89133504D01*
X120979011Y-89130599D01*
X120970175Y-89125888D01*
X120970173Y-89125887D01*
X120970144Y-89125871D01*
X120962334Y-89119468D01*
X120962291Y-89119425D01*
X120957541Y-89115531D01*
X120259142Y-88417132D01*
X120248855Y-88404597D01*
X120244117Y-88395733D01*
X120241202Y-88386124D01*
X120240218Y-88376125D01*
X120241202Y-88366126D01*
X120244117Y-88356517D01*
X120248855Y-88347653D01*
X120259142Y-88335118D01*
X121311118Y-87283142D01*
X121323653Y-87272855D01*
X121332517Y-87268117D01*
X121342126Y-87265202D01*
X121352125Y-87264218D01*
X121362124Y-87265202D01*
G37*
G36*
X112933874Y-87265202D02*
G01*
X112943483Y-87268117D01*
X112952347Y-87272855D01*
X112964882Y-87283142D01*
X114016858Y-88335118D01*
X114027145Y-88347653D01*
X114031883Y-88356517D01*
X114034798Y-88366126D01*
X114035782Y-88376125D01*
X114034798Y-88386124D01*
X114031883Y-88395733D01*
X114027145Y-88404597D01*
X114016858Y-88417132D01*
X113212370Y-89221620D01*
X113199835Y-89231907D01*
X113190971Y-89236645D01*
X113181362Y-89239560D01*
X113171363Y-89240544D01*
X113154662Y-89238900D01*
X113143784Y-89236735D01*
X113119280Y-89236733D01*
X113095247Y-89241512D01*
X113072607Y-89250888D01*
X113052232Y-89264501D01*
X113034904Y-89281827D01*
X113021289Y-89302200D01*
X113011911Y-89324839D01*
X113007129Y-89348872D01*
X113007127Y-89373376D01*
X113008832Y-89384830D01*
X113010478Y-89401373D01*
X113009504Y-89411378D01*
X113006599Y-89420989D01*
X113006598Y-89420991D01*
X113001871Y-89429856D01*
X112995468Y-89437666D01*
X112995425Y-89437709D01*
X112991531Y-89442459D01*
X112293132Y-90140858D01*
X112280597Y-90151145D01*
X112271733Y-90155883D01*
X112262124Y-90158798D01*
X112252125Y-90159782D01*
X112242126Y-90158798D01*
X112232517Y-90155883D01*
X112223653Y-90151145D01*
X112211118Y-90140858D01*
X111159142Y-89088882D01*
X111148855Y-89076347D01*
X111144117Y-89067483D01*
X111141202Y-89057874D01*
X111140218Y-89047875D01*
X111141202Y-89037876D01*
X111144117Y-89028267D01*
X111148855Y-89019403D01*
X111159142Y-89006868D01*
X111857564Y-88308446D01*
X111870099Y-88298159D01*
X111878963Y-88293421D01*
X111888572Y-88290506D01*
X111898537Y-88289525D01*
X111898539Y-88289525D01*
X111898571Y-88289522D01*
X111908621Y-88290517D01*
X111908685Y-88290530D01*
X111920938Y-88291743D01*
X111920942Y-88291704D01*
X111938743Y-88293477D01*
X111963131Y-88291102D01*
X111986588Y-88284015D01*
X112008212Y-88272488D01*
X112027171Y-88256964D01*
X112042737Y-88238039D01*
X112054313Y-88216442D01*
X112061452Y-88193001D01*
X112063881Y-88168617D01*
X112061269Y-88150870D01*
X112061624Y-88150835D01*
X112059810Y-88132212D01*
X112059456Y-88128583D01*
X112059456Y-88128581D01*
X112060450Y-88118587D01*
X112063377Y-88108977D01*
X112063377Y-88108976D01*
X112068122Y-88100121D01*
X112068125Y-88100118D01*
X112068138Y-88100093D01*
X112078356Y-88087654D01*
X112882868Y-87283142D01*
X112895403Y-87272855D01*
X112904267Y-87268117D01*
X112913876Y-87265202D01*
X112923875Y-87264218D01*
X112933874Y-87265202D01*
G37*
G36*
X116439000Y-85884218D02*
G01*
X116441402Y-85908604D01*
X116448515Y-85932053D01*
X116460066Y-85953664D01*
X116475611Y-85972606D01*
X116494553Y-85988151D01*
X116516164Y-85999702D01*
X116539613Y-86006815D01*
X116563999Y-86009217D01*
X116588385Y-86006815D01*
X116611834Y-85999702D01*
X116633445Y-85988151D01*
X116652387Y-85972606D01*
X116667932Y-85953664D01*
X116730009Y-85860760D01*
X116730010Y-85860758D01*
X116806758Y-85784010D01*
X116897004Y-85723710D01*
X116897005Y-85723709D01*
X116997279Y-85682174D01*
X117103730Y-85661000D01*
X117212270Y-85661000D01*
X117318721Y-85682174D01*
X117418995Y-85723709D01*
X117418996Y-85723710D01*
X117509242Y-85784010D01*
X117585990Y-85860758D01*
X117585991Y-85860760D01*
X117646291Y-85951005D01*
X117677516Y-86026389D01*
X117689067Y-86048000D01*
X117704612Y-86066941D01*
X117723554Y-86082487D01*
X117745165Y-86094038D01*
X117768614Y-86101151D01*
X117793000Y-86103553D01*
X117817386Y-86101151D01*
X117840835Y-86094038D01*
X117862446Y-86082487D01*
X117881387Y-86066942D01*
X117896933Y-86048000D01*
X117908484Y-86026389D01*
X117939709Y-85951005D01*
X118000009Y-85860760D01*
X118000010Y-85860758D01*
X118076758Y-85784010D01*
X118167004Y-85723710D01*
X118167005Y-85723709D01*
X118267279Y-85682174D01*
X118373730Y-85661000D01*
X118482270Y-85661000D01*
X118588721Y-85682174D01*
X118688995Y-85723709D01*
X118688996Y-85723710D01*
X118779242Y-85784010D01*
X118855990Y-85860758D01*
X118855991Y-85860760D01*
X118916291Y-85951005D01*
X118957826Y-86051279D01*
X118979000Y-86157730D01*
X118979000Y-86266270D01*
X118957826Y-86372721D01*
X118916291Y-86472995D01*
X118916290Y-86472996D01*
X118855990Y-86563242D01*
X118779242Y-86639990D01*
X118733812Y-86670345D01*
X118688995Y-86700291D01*
X118588721Y-86741826D01*
X118482270Y-86763000D01*
X118373730Y-86763000D01*
X118267279Y-86741826D01*
X118167005Y-86700291D01*
X118122188Y-86670345D01*
X118076758Y-86639990D01*
X118000010Y-86563242D01*
X117939710Y-86472996D01*
X117939709Y-86472995D01*
X117908484Y-86397611D01*
X117896933Y-86376000D01*
X117881388Y-86357059D01*
X117862446Y-86341513D01*
X117840835Y-86329962D01*
X117817386Y-86322849D01*
X117793000Y-86320447D01*
X117768614Y-86322849D01*
X117745165Y-86329962D01*
X117723554Y-86341513D01*
X117704613Y-86357058D01*
X117689067Y-86376000D01*
X117677516Y-86397611D01*
X117646291Y-86472995D01*
X117646290Y-86472996D01*
X117585990Y-86563242D01*
X117509242Y-86639990D01*
X117463812Y-86670345D01*
X117418995Y-86700291D01*
X117318721Y-86741826D01*
X117212270Y-86763000D01*
X117103730Y-86763000D01*
X116997279Y-86741826D01*
X116897005Y-86700291D01*
X116852188Y-86670345D01*
X116806758Y-86639990D01*
X116730010Y-86563242D01*
X116709012Y-86531816D01*
X116667932Y-86470336D01*
X116652386Y-86451394D01*
X116633444Y-86435849D01*
X116611833Y-86424298D01*
X116588385Y-86417185D01*
X116563998Y-86414783D01*
X116539612Y-86417185D01*
X116516163Y-86424298D01*
X116494553Y-86435849D01*
X116475611Y-86451395D01*
X116460066Y-86470337D01*
X116448515Y-86491948D01*
X116441402Y-86515396D01*
X116439000Y-86539782D01*
X116439000Y-86763000D01*
X115337000Y-86763000D01*
X115337000Y-85661000D01*
X116439000Y-85661000D01*
X116439000Y-85884218D01*
G37*
M02*
