G04 #@! TF.GenerationSoftware,KiCad,Pcbnew,(5.1.6-0-10_14)*
G04 #@! TF.CreationDate,2021-04-13T12:38:31+02:00*
G04 #@! TF.ProjectId,Encoder_SPI_Panel,456e636f-6465-4725-9f53-50495f50616e,rev?*
G04 #@! TF.SameCoordinates,Original*
G04 #@! TF.FileFunction,Profile,NP*
%FSLAX46Y46*%
G04 Gerber Fmt 4.6, Leading zero omitted, Abs format (unit mm)*
G04 Created by KiCad (PCBNEW (5.1.6-0-10_14)) date 2021-04-13 12:38:31*
%MOMM*%
%LPD*%
G01*
G04 APERTURE LIST*
G04 #@! TA.AperFunction,Profile*
%ADD10C,0.100000*%
G04 #@! TD*
G04 APERTURE END LIST*
D10*
X57588400Y-25190300D02*
X57482100Y-25122000D01*
X57669800Y-25256200D02*
X57588400Y-25190300D01*
X57744200Y-25330600D02*
X57669800Y-25256200D01*
X57801900Y-25401300D02*
X57744200Y-25330600D01*
X57817400Y-25422600D02*
X57801900Y-25401300D01*
X57860300Y-25488600D02*
X57817400Y-25422600D01*
X57873300Y-25511200D02*
X57860300Y-25488600D01*
X57914400Y-25592700D02*
X57873300Y-25511200D01*
X57947700Y-25678300D02*
X57914400Y-25592700D01*
X57955800Y-25703300D02*
X57947700Y-25678300D01*
X57979100Y-25791700D02*
X57955800Y-25703300D01*
X57995500Y-25895100D02*
X57979100Y-25791700D01*
X58001400Y-26006600D02*
X57995500Y-25895100D01*
X58001200Y-30012000D02*
X58001400Y-26006600D01*
X58006200Y-30111700D02*
X58001200Y-30012000D01*
X58021100Y-30210100D02*
X58006200Y-30111700D01*
X58045900Y-30306500D02*
X58021100Y-30210100D01*
X58080200Y-30399900D02*
X58045900Y-30306500D01*
X58123700Y-30489400D02*
X58080200Y-30399900D01*
X58176000Y-30574100D02*
X58123700Y-30489400D01*
X58236500Y-30653100D02*
X58176000Y-30574100D01*
X58304700Y-30725600D02*
X58236500Y-30653100D01*
X58379800Y-30791000D02*
X58304700Y-30725600D01*
X58461100Y-30848400D02*
X58379800Y-30791000D01*
X58547900Y-30897500D02*
X58461100Y-30848400D01*
X58700700Y-30974100D02*
X58547900Y-30897500D01*
X58723600Y-30987100D02*
X58700700Y-30974100D01*
X59382400Y-31410500D02*
X58723600Y-30987100D01*
X59993700Y-31901200D02*
X59382400Y-31410500D01*
X60000900Y-31908300D02*
X59993700Y-31901200D01*
X60003100Y-31913700D02*
X60000900Y-31908300D01*
X60002300Y-43068200D02*
X60003100Y-31913700D01*
X60000300Y-43081000D02*
X60002300Y-43068200D01*
X59992000Y-43089800D02*
X60000300Y-43081000D01*
X59381500Y-43581500D02*
X59992000Y-43089800D01*
X58723300Y-44005900D02*
X59381500Y-43581500D01*
X58700400Y-44018900D02*
X58723300Y-44005900D01*
X58546700Y-44096300D02*
X58700400Y-44018900D01*
X58460100Y-44145500D02*
X58546700Y-44096300D01*
X58379000Y-44202900D02*
X58460100Y-44145500D01*
X58304100Y-44268300D02*
X58379000Y-44202900D01*
X58236100Y-44340800D02*
X58304100Y-44268300D01*
X58175800Y-44419700D02*
X58236100Y-44340800D01*
X58123600Y-44504300D02*
X58175800Y-44419700D01*
X58080200Y-44593700D02*
X58123600Y-44504300D01*
X58046000Y-44687000D02*
X58080200Y-44593700D01*
X58021300Y-44783300D02*
X58046000Y-44687000D01*
X58006400Y-44881500D02*
X58021300Y-44783300D01*
X58001400Y-44981000D02*
X58006400Y-44881500D01*
X58001400Y-48993400D02*
X58001400Y-44981000D01*
X57995600Y-49104800D02*
X58001400Y-48993400D01*
X57981600Y-49195100D02*
X57995600Y-49104800D01*
X57976200Y-49220800D02*
X57981600Y-49195100D01*
X57952200Y-49309000D02*
X57976200Y-49220800D01*
X57919600Y-49394800D02*
X57952200Y-49309000D01*
X57908900Y-49418800D02*
X57919600Y-49394800D01*
X57867100Y-49500100D02*
X57908900Y-49418800D01*
X57810100Y-49588000D02*
X57867100Y-49500100D01*
X57744200Y-49669400D02*
X57810100Y-49588000D01*
X57669800Y-49743800D02*
X57744200Y-49669400D01*
X57588400Y-49809700D02*
X57669800Y-49743800D01*
X57514300Y-49858200D02*
X57588400Y-49809700D01*
X57478100Y-49880100D02*
X57514300Y-49858200D01*
X57393800Y-49937200D02*
X57478100Y-49880100D01*
X57316000Y-50002500D02*
X57393800Y-49937200D01*
X57245300Y-50075400D02*
X57316000Y-50002500D01*
X57182400Y-50155200D02*
X57245300Y-50075400D01*
X57128000Y-50241100D02*
X57182400Y-50155200D01*
X57082800Y-50332000D02*
X57128000Y-50241100D01*
X57047000Y-50427100D02*
X57082800Y-50332000D01*
X57021300Y-50525400D02*
X57047000Y-50427100D01*
X57005700Y-50625800D02*
X57021300Y-50525400D01*
X57000400Y-50727500D02*
X57005700Y-50625800D01*
X57000400Y-52010700D02*
X57000400Y-50727500D01*
X57005200Y-52108000D02*
X57000400Y-52010700D01*
X57019400Y-52204100D02*
X57005200Y-52108000D01*
X57043100Y-52298400D02*
X57019400Y-52204100D01*
X57075800Y-52389800D02*
X57043100Y-52298400D01*
X57117300Y-52477700D02*
X57075800Y-52389800D01*
X57167300Y-52561000D02*
X57117300Y-52477700D01*
X57225100Y-52639000D02*
X57167300Y-52561000D01*
X57290400Y-52711000D02*
X57225100Y-52639000D01*
X57362400Y-52776300D02*
X57290400Y-52711000D01*
X57440400Y-52834100D02*
X57362400Y-52776300D01*
X57523700Y-52884100D02*
X57440400Y-52834100D01*
X57611600Y-52925600D02*
X57523700Y-52884100D01*
X57703000Y-52958400D02*
X57611600Y-52925600D01*
X57797300Y-52982000D02*
X57703000Y-52958400D01*
X57893400Y-52996200D02*
X57797300Y-52982000D01*
X57990700Y-53001000D02*
X57893400Y-52996200D01*
X68472800Y-53001000D02*
X57990700Y-53001000D01*
X68570100Y-52996200D02*
X68472800Y-53001000D01*
X68666200Y-52982000D02*
X68570100Y-52996200D01*
X68760400Y-52958400D02*
X68666200Y-52982000D01*
X68851900Y-52925600D02*
X68760400Y-52958400D01*
X68939700Y-52884100D02*
X68851900Y-52925600D01*
X69023000Y-52834100D02*
X68939700Y-52884100D01*
X69101100Y-52776300D02*
X69023000Y-52834100D01*
X69173100Y-52711000D02*
X69101100Y-52776300D01*
X69238300Y-52639000D02*
X69173100Y-52711000D01*
X69296200Y-52561000D02*
X69238300Y-52639000D01*
X69346100Y-52477700D02*
X69296200Y-52561000D01*
X69387700Y-52389900D02*
X69346100Y-52477700D01*
X69420400Y-52298400D02*
X69387700Y-52389900D01*
X69444000Y-52204100D02*
X69420400Y-52298400D01*
X69458300Y-52108000D02*
X69444000Y-52204100D01*
X69463000Y-52010800D02*
X69458300Y-52108000D01*
X69463000Y-50990700D02*
X69463000Y-52010800D01*
X69458500Y-50895900D02*
X69463000Y-50990700D01*
X69444900Y-50802100D02*
X69458500Y-50895900D01*
X69422500Y-50710100D02*
X69444900Y-50802100D01*
X69391300Y-50620600D02*
X69422500Y-50710100D01*
X69351800Y-50534600D02*
X69391300Y-50620600D01*
X69304200Y-50452700D02*
X69351800Y-50534600D01*
X69249000Y-50375700D02*
X69304200Y-50452700D01*
X69186700Y-50304400D02*
X69249000Y-50375700D01*
X69117800Y-50239300D02*
X69186700Y-50304400D01*
X69043100Y-50181100D02*
X69117800Y-50239300D01*
X68963100Y-50130300D02*
X69043100Y-50181100D01*
X68878700Y-50087400D02*
X68963100Y-50130300D01*
X68790500Y-50052800D02*
X68878700Y-50087400D01*
X68699400Y-50026700D02*
X68790500Y-50052800D01*
X68606300Y-50009500D02*
X68699400Y-50026700D01*
X68511700Y-50001300D02*
X68606300Y-50009500D01*
X68398700Y-49995200D02*
X68511700Y-50001300D01*
X68295200Y-49978800D02*
X68398700Y-49995200D01*
X68194000Y-49951700D02*
X68295200Y-49978800D01*
X68096300Y-49914200D02*
X68194000Y-49951700D01*
X68002500Y-49866400D02*
X68096300Y-49914200D01*
X67925700Y-49817000D02*
X68002500Y-49866400D01*
X67904500Y-49801600D02*
X67925700Y-49817000D01*
X67833600Y-49743800D02*
X67904500Y-49801600D01*
X67768500Y-49679100D02*
X67833600Y-49743800D01*
X67750900Y-49659600D02*
X67768500Y-49679100D01*
X67693600Y-49588400D02*
X67750900Y-49659600D01*
X67636300Y-49500100D02*
X67693600Y-49588400D01*
X67594600Y-49418900D02*
X67636300Y-49500100D01*
X67583900Y-49394900D02*
X67594600Y-49418900D01*
X67551400Y-49309400D02*
X67583900Y-49394900D01*
X67527300Y-49220800D02*
X67551400Y-49309400D01*
X67521900Y-49195100D02*
X67527300Y-49220800D01*
X67509500Y-49117300D02*
X67521900Y-49195100D01*
X67506800Y-49091600D02*
X67509500Y-49117300D01*
X67502000Y-48993500D02*
X67506800Y-49091600D01*
X67502000Y-47562200D02*
X67502000Y-48993500D01*
X67497700Y-47469300D02*
X67502000Y-47562200D01*
X67484700Y-47377400D02*
X67497700Y-47469300D01*
X67463100Y-47287100D02*
X67484700Y-47377400D01*
X67433200Y-47199200D02*
X67463100Y-47287100D01*
X67395100Y-47114500D02*
X67433200Y-47199200D01*
X67349400Y-47033800D02*
X67395100Y-47114500D01*
X67296200Y-46957700D02*
X67349400Y-47033800D01*
X67236200Y-46886900D02*
X67296200Y-46957700D01*
X67169800Y-46822100D02*
X67236200Y-46886900D01*
X67097600Y-46763700D02*
X67169800Y-46822100D01*
X67020000Y-46712200D02*
X67097600Y-46763700D01*
X66796600Y-46578600D02*
X67020000Y-46712200D01*
X66776300Y-46565100D02*
X66796600Y-46578600D01*
X66115400Y-46075300D02*
X66776300Y-46565100D01*
X65505100Y-45523400D02*
X66115400Y-46075300D01*
X65487800Y-45506200D02*
X65505100Y-45523400D01*
X64943100Y-44906000D02*
X65487800Y-45506200D01*
X64927500Y-44886900D02*
X64943100Y-44906000D01*
X64437500Y-44226400D02*
X64927500Y-44886900D01*
X64013700Y-43520800D02*
X64437500Y-44226400D01*
X64002200Y-43499300D02*
X64013700Y-43520800D01*
X63650600Y-42755900D02*
X64002200Y-43499300D01*
X63372900Y-41981400D02*
X63650600Y-42755900D01*
X63365700Y-41957800D02*
X63372900Y-41981400D01*
X63166000Y-41160000D02*
X63365700Y-41957800D01*
X63044900Y-40346200D02*
X63166000Y-41160000D01*
X63042400Y-40321600D02*
X63044900Y-40346200D01*
X63002300Y-39499700D02*
X63042400Y-40321600D01*
X63043400Y-38665800D02*
X63002300Y-39499700D01*
X63163800Y-37852400D02*
X63043400Y-38665800D01*
X63168700Y-37828200D02*
X63163800Y-37852400D01*
X63368900Y-37030600D02*
X63168700Y-37828200D01*
X63646100Y-36255800D02*
X63368900Y-37030600D01*
X63655500Y-36233000D02*
X63646100Y-36255800D01*
X64002300Y-35500500D02*
X63655500Y-36233000D01*
X64013800Y-35479000D02*
X64002300Y-35500500D01*
X64430700Y-34784200D02*
X64013800Y-35479000D01*
X64444400Y-34763700D02*
X64430700Y-34784200D01*
X64934900Y-34103600D02*
X64444400Y-34763700D01*
X65487800Y-33493800D02*
X64934900Y-34103600D01*
X65505100Y-33476600D02*
X65487800Y-33493800D01*
X66115400Y-32924700D02*
X65505100Y-33476600D01*
X66776300Y-32435000D02*
X66115400Y-32924700D01*
X66796600Y-32421400D02*
X66776300Y-32435000D01*
X67020000Y-32287700D02*
X66796600Y-32421400D01*
X67097600Y-32236300D02*
X67020000Y-32287700D01*
X67169800Y-32177900D02*
X67097600Y-32236300D01*
X67236200Y-32113100D02*
X67169800Y-32177900D01*
X67296200Y-32042300D02*
X67236200Y-32113100D01*
X67349300Y-31966200D02*
X67296200Y-32042300D01*
X67395100Y-31885500D02*
X67349300Y-31966200D01*
X67433100Y-31800800D02*
X67395100Y-31885500D01*
X67463100Y-31712900D02*
X67433100Y-31800800D01*
X67484600Y-31622700D02*
X67463100Y-31712900D01*
X67497600Y-31530800D02*
X67484600Y-31622700D01*
X67502000Y-31437800D02*
X67497600Y-31530800D01*
X67502000Y-30006600D02*
X67502000Y-31437800D01*
X67506800Y-29908300D02*
X67502000Y-30006600D01*
X67509600Y-29882400D02*
X67506800Y-29908300D01*
X67524200Y-29792200D02*
X67509600Y-29882400D01*
X67551300Y-29691000D02*
X67524200Y-29792200D01*
X67588800Y-29593200D02*
X67551300Y-29691000D01*
X67636600Y-29499400D02*
X67588800Y-29593200D01*
X67693400Y-29412000D02*
X67636600Y-29499400D01*
X67750900Y-29340400D02*
X67693400Y-29412000D01*
X67768400Y-29320900D02*
X67750900Y-29340400D01*
X67833300Y-29256500D02*
X67768400Y-29320900D01*
X67904400Y-29198500D02*
X67833300Y-29256500D01*
X67925700Y-29183000D02*
X67904400Y-29198500D01*
X68003000Y-29133300D02*
X67925700Y-29183000D01*
X68095800Y-29086000D02*
X68003000Y-29133300D01*
X68194100Y-29048200D02*
X68095800Y-29086000D01*
X68282200Y-29024300D02*
X68194100Y-29048200D01*
X68307600Y-29018900D02*
X68282200Y-29024300D01*
X68385400Y-29006500D02*
X68307600Y-29018900D01*
X68411300Y-29003800D02*
X68385400Y-29006500D01*
X68630100Y-28994200D02*
X68411300Y-29003800D01*
X68726200Y-28980000D02*
X68630100Y-28994200D01*
X68820400Y-28956400D02*
X68726200Y-28980000D01*
X68911900Y-28923600D02*
X68820400Y-28956400D01*
X68999700Y-28882100D02*
X68911900Y-28923600D01*
X69083000Y-28832100D02*
X68999700Y-28882100D01*
X69161100Y-28774300D02*
X69083000Y-28832100D01*
X69233100Y-28709000D02*
X69161100Y-28774300D01*
X69298300Y-28637000D02*
X69233100Y-28709000D01*
X69356200Y-28559000D02*
X69298300Y-28637000D01*
X69406100Y-28475700D02*
X69356200Y-28559000D01*
X69447700Y-28387900D02*
X69406100Y-28475700D01*
X69480400Y-28296400D02*
X69447700Y-28387900D01*
X69504000Y-28202100D02*
X69480400Y-28296400D01*
X69518300Y-28106000D02*
X69504000Y-28202100D01*
X69523000Y-28008800D02*
X69518300Y-28106000D01*
X69523000Y-26990200D02*
X69523000Y-28008800D01*
X69518300Y-26893000D02*
X69523000Y-26990200D01*
X69504000Y-26796900D02*
X69518300Y-26893000D01*
X69480400Y-26702600D02*
X69504000Y-26796900D01*
X69447700Y-26611100D02*
X69480400Y-26702600D01*
X69406100Y-26523300D02*
X69447700Y-26611100D01*
X69356200Y-26440000D02*
X69406100Y-26523300D01*
X69298300Y-26362000D02*
X69356200Y-26440000D01*
X69233100Y-26290000D02*
X69298300Y-26362000D01*
X69161100Y-26224700D02*
X69233100Y-26290000D01*
X69083000Y-26166900D02*
X69161100Y-26224700D01*
X68999700Y-26116900D02*
X69083000Y-26166900D01*
X68911900Y-26075400D02*
X68999700Y-26116900D01*
X68820400Y-26042600D02*
X68911900Y-26075400D01*
X68726200Y-26019000D02*
X68820400Y-26042600D01*
X68630100Y-26004800D02*
X68726200Y-26019000D01*
X68532800Y-26000000D02*
X68630100Y-26004800D01*
X63027600Y-26000000D02*
X68532800Y-26000000D01*
X63008600Y-25997900D02*
X63027600Y-26000000D01*
X63004000Y-25991700D02*
X63008600Y-25997900D01*
X63003000Y-25975400D02*
X63004000Y-25991700D01*
X63003000Y-22989200D02*
X63003000Y-25975400D01*
X62998300Y-22891900D02*
X63003000Y-22989200D01*
X62984000Y-22795800D02*
X62998300Y-22891900D01*
X62960400Y-22701600D02*
X62984000Y-22795800D01*
X62927700Y-22610100D02*
X62960400Y-22701600D01*
X62886100Y-22522300D02*
X62927700Y-22610100D01*
X62836200Y-22438900D02*
X62886100Y-22522300D01*
X62778300Y-22360900D02*
X62836200Y-22438900D01*
X62713100Y-22288900D02*
X62778300Y-22360900D01*
X62641100Y-22223700D02*
X62713100Y-22288900D01*
X62563000Y-22165800D02*
X62641100Y-22223700D01*
X62479700Y-22115900D02*
X62563000Y-22165800D01*
X62391900Y-22074300D02*
X62479700Y-22115900D01*
X62300400Y-22041600D02*
X62391900Y-22074300D01*
X62206200Y-22018000D02*
X62300400Y-22041600D01*
X62110100Y-22003700D02*
X62206200Y-22018000D01*
X62012800Y-21999000D02*
X62110100Y-22003700D01*
X57990600Y-21999000D02*
X62012800Y-21999000D01*
X57893400Y-22003700D02*
X57990600Y-21999000D01*
X57797300Y-22018000D02*
X57893400Y-22003700D01*
X57703000Y-22041600D02*
X57797300Y-22018000D01*
X57611500Y-22074300D02*
X57703000Y-22041600D01*
X57523700Y-22115900D02*
X57611500Y-22074300D01*
X57440400Y-22165800D02*
X57523700Y-22115900D01*
X57362400Y-22223700D02*
X57440400Y-22165800D01*
X57290400Y-22288900D02*
X57362400Y-22223700D01*
X57225100Y-22360900D02*
X57290400Y-22288900D01*
X57167300Y-22438900D02*
X57225100Y-22360900D01*
X57117300Y-22522300D02*
X57167300Y-22438900D01*
X57075800Y-22610100D02*
X57117300Y-22522300D01*
X57043000Y-22701600D02*
X57075800Y-22610100D01*
X57019400Y-22795800D02*
X57043000Y-22701600D01*
X57005200Y-22891900D02*
X57019400Y-22795800D01*
X57000400Y-22989200D02*
X57005200Y-22891900D01*
X57000400Y-24272500D02*
X57000400Y-22989200D01*
X57005100Y-24369100D02*
X57000400Y-24272500D01*
X57019200Y-24464600D02*
X57005100Y-24369100D01*
X57042500Y-24558300D02*
X57019200Y-24464600D01*
X57074800Y-24649200D02*
X57042500Y-24558300D01*
X57115800Y-24736600D02*
X57074800Y-24649200D01*
X57165200Y-24819600D02*
X57115800Y-24736600D01*
X57222300Y-24897300D02*
X57165200Y-24819600D01*
X57286800Y-24969200D02*
X57222300Y-24897300D01*
X57358000Y-25034400D02*
X57286800Y-24969200D01*
X57435200Y-25092300D02*
X57358000Y-25034400D01*
X57482100Y-25122000D02*
X57435200Y-25092300D01*
X88502800Y-53001000D02*
X74453300Y-53001000D01*
X88600100Y-52996200D02*
X88502800Y-53001000D01*
X88696200Y-52982000D02*
X88600100Y-52996200D01*
X88790400Y-52958400D02*
X88696200Y-52982000D01*
X88881900Y-52925600D02*
X88790400Y-52958400D01*
X88969700Y-52884100D02*
X88881900Y-52925600D01*
X89053100Y-52834100D02*
X88969700Y-52884100D01*
X89131100Y-52776300D02*
X89053100Y-52834100D01*
X89203100Y-52711000D02*
X89131100Y-52776300D01*
X89268300Y-52639000D02*
X89203100Y-52711000D01*
X89326200Y-52561000D02*
X89268300Y-52639000D01*
X89376100Y-52477700D02*
X89326200Y-52561000D01*
X89417700Y-52389900D02*
X89376100Y-52477700D01*
X89450400Y-52298400D02*
X89417700Y-52389900D01*
X89474000Y-52204100D02*
X89450400Y-52298400D01*
X89488300Y-52108000D02*
X89474000Y-52204100D01*
X89493100Y-52010800D02*
X89488300Y-52108000D01*
X89493100Y-50991200D02*
X89493100Y-52010800D01*
X89488400Y-50894800D02*
X89493100Y-50991200D01*
X89474300Y-50799500D02*
X89488400Y-50894800D01*
X89451100Y-50706000D02*
X89474300Y-50799500D01*
X89418900Y-50615100D02*
X89451100Y-50706000D01*
X89378000Y-50527900D02*
X89418900Y-50615100D01*
X89328900Y-50445000D02*
X89378000Y-50527900D01*
X89271900Y-50367400D02*
X89328900Y-50445000D01*
X89207700Y-50295600D02*
X89271900Y-50367400D01*
X89136700Y-50230400D02*
X89207700Y-50295600D01*
X89059800Y-50172400D02*
X89136700Y-50230400D01*
X88977600Y-50122200D02*
X89059800Y-50172400D01*
X88890900Y-50080100D02*
X88977600Y-50122200D01*
X88800500Y-50046800D02*
X88890900Y-50080100D01*
X88707300Y-50022300D02*
X88800500Y-50046800D01*
X88612200Y-50007000D02*
X88707300Y-50022300D01*
X88398700Y-49995200D02*
X88612200Y-50007000D01*
X88295200Y-49978800D02*
X88398700Y-49995200D01*
X88194100Y-49951700D02*
X88295200Y-49978800D01*
X88095800Y-49914000D02*
X88194100Y-49951700D01*
X88002900Y-49866700D02*
X88095800Y-49914000D01*
X87925700Y-49817000D02*
X88002900Y-49866700D01*
X87904500Y-49801600D02*
X87925700Y-49817000D01*
X87833700Y-49743800D02*
X87904500Y-49801600D01*
X87768500Y-49679100D02*
X87833700Y-49743800D01*
X87750900Y-49659600D02*
X87768500Y-49679100D01*
X87693300Y-49587900D02*
X87750900Y-49659600D01*
X87636600Y-49500500D02*
X87693300Y-49587900D01*
X87589000Y-49407200D02*
X87636600Y-49500500D01*
X87551300Y-49308900D02*
X87589000Y-49407200D01*
X87524200Y-49207800D02*
X87551300Y-49308900D01*
X87509600Y-49117700D02*
X87524200Y-49207800D01*
X87506900Y-49091700D02*
X87509600Y-49117700D01*
X87502100Y-48993500D02*
X87506900Y-49091700D01*
X87502100Y-47562200D02*
X87502100Y-48993500D01*
X87497700Y-47469200D02*
X87502100Y-47562200D01*
X87484700Y-47377300D02*
X87497700Y-47469200D01*
X87463100Y-47287100D02*
X87484700Y-47377300D01*
X87433200Y-47199200D02*
X87463100Y-47287100D01*
X87395200Y-47114500D02*
X87433200Y-47199200D01*
X87349400Y-47033800D02*
X87395200Y-47114500D01*
X87296200Y-46957700D02*
X87349400Y-47033800D01*
X87236200Y-46886900D02*
X87296200Y-46957700D01*
X87169800Y-46822100D02*
X87236200Y-46886900D01*
X87097600Y-46763700D02*
X87169800Y-46822100D01*
X87020100Y-46712300D02*
X87097600Y-46763700D01*
X86796600Y-46578600D02*
X87020100Y-46712300D01*
X86776300Y-46565100D02*
X86796600Y-46578600D01*
X86115400Y-46075300D02*
X86776300Y-46565100D01*
X85505100Y-45523400D02*
X86115400Y-46075300D01*
X85487800Y-45506200D02*
X85505100Y-45523400D01*
X84935200Y-44896800D02*
X85487800Y-45506200D01*
X84444500Y-44236400D02*
X84935200Y-44896800D01*
X84430700Y-44215900D02*
X84444500Y-44236400D01*
X84013900Y-43521100D02*
X84430700Y-44215900D01*
X84002300Y-43499500D02*
X84013900Y-43521100D01*
X83655500Y-42767000D02*
X84002300Y-43499500D01*
X83646100Y-42744200D02*
X83655500Y-42767000D01*
X83369100Y-41969900D02*
X83646100Y-42744200D01*
X83168700Y-41171800D02*
X83369100Y-41969900D01*
X83163900Y-41147700D02*
X83168700Y-41171800D01*
X83043400Y-40334100D02*
X83163900Y-41147700D01*
X83002400Y-39500200D02*
X83043400Y-40334100D01*
X83042400Y-38678400D02*
X83002400Y-39500200D01*
X83044900Y-38653900D02*
X83042400Y-38678400D01*
X83165900Y-37840400D02*
X83044900Y-38653900D01*
X83365700Y-37042200D02*
X83165900Y-37840400D01*
X83372900Y-37018600D02*
X83365700Y-37042200D01*
X83650400Y-36244500D02*
X83372900Y-37018600D01*
X84002200Y-35500700D02*
X83650400Y-36244500D01*
X84013700Y-35479200D02*
X84002200Y-35500700D01*
X84430700Y-34784200D02*
X84013700Y-35479200D01*
X84444400Y-34763700D02*
X84430700Y-34784200D01*
X84934900Y-34103600D02*
X84444400Y-34763700D01*
X85487800Y-33493800D02*
X84934900Y-34103600D01*
X85505100Y-33476600D02*
X85487800Y-33493800D01*
X86115400Y-32924700D02*
X85505100Y-33476600D01*
X86776300Y-32435000D02*
X86115400Y-32924700D01*
X86796600Y-32421400D02*
X86776300Y-32435000D01*
X87020100Y-32287800D02*
X86796600Y-32421400D01*
X87097600Y-32236300D02*
X87020100Y-32287800D01*
X87169800Y-32177900D02*
X87097600Y-32236300D01*
X87236200Y-32113100D02*
X87169800Y-32177900D01*
X87296300Y-32042300D02*
X87236200Y-32113100D01*
X87349400Y-31966200D02*
X87296300Y-32042300D01*
X87395200Y-31885500D02*
X87349400Y-31966200D01*
X87433200Y-31800800D02*
X87395200Y-31885500D01*
X87463100Y-31712900D02*
X87433200Y-31800800D01*
X87484700Y-31622600D02*
X87463100Y-31712900D01*
X87497700Y-31530700D02*
X87484700Y-31622600D01*
X87502100Y-31437800D02*
X87497700Y-31530700D01*
X87502100Y-30006400D02*
X87502100Y-31437800D01*
X87506800Y-29908500D02*
X87502100Y-30006400D01*
X87509600Y-29882600D02*
X87506800Y-29908500D01*
X87521900Y-29804900D02*
X87509600Y-29882600D01*
X87527300Y-29779200D02*
X87521900Y-29804900D01*
X87551300Y-29691000D02*
X87527300Y-29779200D01*
X87583900Y-29605100D02*
X87551300Y-29691000D01*
X87594600Y-29581100D02*
X87583900Y-29605100D01*
X87636300Y-29499900D02*
X87594600Y-29581100D01*
X87693700Y-29411600D02*
X87636300Y-29499900D01*
X87750900Y-29340400D02*
X87693700Y-29411600D01*
X87768500Y-29320900D02*
X87750900Y-29340400D01*
X87833300Y-29256500D02*
X87768500Y-29320900D01*
X87904400Y-29198500D02*
X87833300Y-29256500D01*
X87925700Y-29183000D02*
X87904400Y-29198500D01*
X88002500Y-29133500D02*
X87925700Y-29183000D01*
X88096300Y-29085700D02*
X88002500Y-29133500D01*
X88194100Y-29048200D02*
X88096300Y-29085700D01*
X88282200Y-29024300D02*
X88194100Y-29048200D01*
X88307700Y-29018900D02*
X88282200Y-29024300D01*
X88398700Y-29004800D02*
X88307700Y-29018900D01*
X88612200Y-28993000D02*
X88398700Y-29004800D01*
X88707300Y-28977700D02*
X88612200Y-28993000D01*
X88800500Y-28953300D02*
X88707300Y-28977700D01*
X88890900Y-28919900D02*
X88800500Y-28953300D01*
X88977600Y-28877900D02*
X88890900Y-28919900D01*
X89059800Y-28827600D02*
X88977600Y-28877900D01*
X89136700Y-28769600D02*
X89059800Y-28827600D01*
X89207600Y-28704400D02*
X89136700Y-28769600D01*
X89271900Y-28632700D02*
X89207600Y-28704400D01*
X89328900Y-28555000D02*
X89271900Y-28632700D01*
X89378000Y-28472100D02*
X89328900Y-28555000D01*
X89418900Y-28384900D02*
X89378000Y-28472100D01*
X89451100Y-28294100D02*
X89418900Y-28384900D01*
X89474300Y-28200500D02*
X89451100Y-28294100D01*
X89488400Y-28105200D02*
X89474300Y-28200500D01*
X89493100Y-28008800D02*
X89488400Y-28105200D01*
X89493100Y-26990200D02*
X89493100Y-28008800D01*
X89488300Y-26893000D02*
X89493100Y-26990200D01*
X89474000Y-26796900D02*
X89488300Y-26893000D01*
X89450400Y-26702600D02*
X89474000Y-26796900D01*
X89417700Y-26611100D02*
X89450400Y-26702600D01*
X89376100Y-26523300D02*
X89417700Y-26611100D01*
X89326200Y-26440000D02*
X89376100Y-26523300D01*
X89268300Y-26362000D02*
X89326200Y-26440000D01*
X89203100Y-26290000D02*
X89268300Y-26362000D01*
X89131100Y-26224700D02*
X89203100Y-26290000D01*
X89053100Y-26166900D02*
X89131100Y-26224700D01*
X88969700Y-26116900D02*
X89053100Y-26166900D01*
X88881900Y-26075400D02*
X88969700Y-26116900D01*
X88790400Y-26042600D02*
X88881900Y-26075400D01*
X88696200Y-26019000D02*
X88790400Y-26042600D01*
X88600100Y-26004800D02*
X88696200Y-26019000D01*
X88502800Y-26000000D02*
X88600100Y-26004800D01*
X74513300Y-26000000D02*
X88502800Y-26000000D01*
X74416000Y-26004800D02*
X74513300Y-26000000D01*
X74319900Y-26019000D02*
X74416000Y-26004800D01*
X74225700Y-26042600D02*
X74319900Y-26019000D01*
X74134200Y-26075400D02*
X74225700Y-26042600D01*
X74046400Y-26116900D02*
X74134200Y-26075400D01*
X73963000Y-26166900D02*
X74046400Y-26116900D01*
X73885000Y-26224700D02*
X73963000Y-26166900D01*
X73813000Y-26290000D02*
X73885000Y-26224700D01*
X73747800Y-26362000D02*
X73813000Y-26290000D01*
X73689900Y-26440000D02*
X73747800Y-26362000D01*
X73639900Y-26523300D02*
X73689900Y-26440000D01*
X73598400Y-26611100D02*
X73639900Y-26523300D01*
X73565700Y-26702600D02*
X73598400Y-26611100D01*
X73542100Y-26796900D02*
X73565700Y-26702600D01*
X73527800Y-26893000D02*
X73542100Y-26796900D01*
X73523000Y-26990200D02*
X73527800Y-26893000D01*
X73523000Y-28008900D02*
X73523000Y-26990200D01*
X73527700Y-28105400D02*
X73523000Y-28008900D01*
X73541800Y-28200700D02*
X73527700Y-28105400D01*
X73565000Y-28294200D02*
X73541800Y-28200700D01*
X73597200Y-28385000D02*
X73565000Y-28294200D01*
X73638000Y-28472200D02*
X73597200Y-28385000D01*
X73687200Y-28555100D02*
X73638000Y-28472200D01*
X73744200Y-28632800D02*
X73687200Y-28555100D01*
X73808400Y-28704500D02*
X73744200Y-28632800D01*
X73879400Y-28769700D02*
X73808400Y-28704500D01*
X73956300Y-28827700D02*
X73879400Y-28769700D01*
X74038500Y-28878000D02*
X73956300Y-28827700D01*
X74125200Y-28920000D02*
X74038500Y-28878000D01*
X74215600Y-28953400D02*
X74125200Y-28920000D01*
X74308800Y-28977800D02*
X74215600Y-28953400D01*
X74403900Y-28993100D02*
X74308800Y-28977800D01*
X74607400Y-29004800D02*
X74403900Y-28993100D01*
X74698400Y-29018900D02*
X74607400Y-29004800D01*
X74723900Y-29024300D02*
X74698400Y-29018900D01*
X74812000Y-29048200D02*
X74723900Y-29024300D01*
X74909800Y-29085800D02*
X74812000Y-29048200D01*
X75003600Y-29133600D02*
X74909800Y-29085800D01*
X75080400Y-29183000D02*
X75003600Y-29133600D01*
X75101600Y-29198400D02*
X75080400Y-29183000D01*
X75172400Y-29256200D02*
X75101600Y-29198400D01*
X75237600Y-29320900D02*
X75172400Y-29256200D01*
X75255200Y-29340400D02*
X75237600Y-29320900D01*
X75312400Y-29411600D02*
X75255200Y-29340400D01*
X75369800Y-29499900D02*
X75312400Y-29411600D01*
X75411500Y-29581100D02*
X75369800Y-29499900D01*
X75422200Y-29605100D02*
X75411500Y-29581100D01*
X75454600Y-29690600D02*
X75422200Y-29605100D01*
X75478800Y-29779200D02*
X75454600Y-29690600D01*
X75484200Y-29804900D02*
X75478800Y-29779200D01*
X75496500Y-29882600D02*
X75484200Y-29804900D01*
X75499200Y-29908500D02*
X75496500Y-29882600D01*
X75504000Y-30006400D02*
X75499200Y-29908500D01*
X75504000Y-31437800D02*
X75504000Y-30006400D01*
X75508400Y-31530800D02*
X75504000Y-31437800D01*
X75521400Y-31622700D02*
X75508400Y-31530800D01*
X75543000Y-31712900D02*
X75521400Y-31622700D01*
X75572900Y-31800800D02*
X75543000Y-31712900D01*
X75610900Y-31885500D02*
X75572900Y-31800800D01*
X75656700Y-31966200D02*
X75610900Y-31885500D01*
X75709900Y-32042300D02*
X75656700Y-31966200D01*
X75769900Y-32113100D02*
X75709900Y-32042300D01*
X75836300Y-32177900D02*
X75769900Y-32113100D01*
X75908500Y-32236300D02*
X75836300Y-32177900D01*
X75986000Y-32287700D02*
X75908500Y-32236300D01*
X76209400Y-32421400D02*
X75986000Y-32287700D01*
X76229800Y-32434900D02*
X76209400Y-32421400D01*
X76890700Y-32924700D02*
X76229800Y-32434900D01*
X77501000Y-33476600D02*
X76890700Y-32924700D01*
X77518300Y-33493800D02*
X77501000Y-33476600D01*
X78063000Y-34094000D02*
X77518300Y-33493800D01*
X78078600Y-34113100D02*
X78063000Y-34094000D01*
X78568600Y-34773600D02*
X78078600Y-34113100D01*
X78992300Y-35479100D02*
X78568600Y-34773600D01*
X79003900Y-35500700D02*
X78992300Y-35479100D01*
X79355500Y-36244100D02*
X79003900Y-35500700D01*
X79633200Y-37018600D02*
X79355500Y-36244100D01*
X79640400Y-37042200D02*
X79633200Y-37018600D01*
X79840100Y-37840000D02*
X79640400Y-37042200D01*
X79961200Y-38653800D02*
X79840100Y-37840000D01*
X79963600Y-38678400D02*
X79961200Y-38653800D01*
X80003400Y-39487900D02*
X79963600Y-38678400D01*
X80003400Y-39512300D02*
X80003400Y-39487900D01*
X79962800Y-40333700D02*
X80003400Y-39512300D01*
X79842200Y-41147600D02*
X79962800Y-40333700D01*
X79837400Y-41171800D02*
X79842200Y-41147600D01*
X79637100Y-41969400D02*
X79837400Y-41171800D01*
X79360000Y-42744200D02*
X79637100Y-41969400D01*
X79350600Y-42767000D02*
X79360000Y-42744200D01*
X79003900Y-43499300D02*
X79350600Y-42767000D01*
X78992400Y-43520800D02*
X79003900Y-43499300D01*
X78575400Y-44215800D02*
X78992400Y-43520800D01*
X78561600Y-44236300D02*
X78575400Y-44215800D01*
X78071200Y-44896400D02*
X78561600Y-44236300D01*
X77518300Y-45506200D02*
X78071200Y-44896400D01*
X77501000Y-45523400D02*
X77518300Y-45506200D01*
X76890700Y-46075300D02*
X77501000Y-45523400D01*
X76229800Y-46565000D02*
X76890700Y-46075300D01*
X76209500Y-46578600D02*
X76229800Y-46565000D01*
X75986000Y-46712200D02*
X76209500Y-46578600D01*
X75908500Y-46763700D02*
X75986000Y-46712200D01*
X75836300Y-46822100D02*
X75908500Y-46763700D01*
X75769900Y-46886900D02*
X75836300Y-46822100D01*
X75709800Y-46957700D02*
X75769900Y-46886900D01*
X75656700Y-47033800D02*
X75709800Y-46957700D01*
X75610900Y-47114500D02*
X75656700Y-47033800D01*
X75572900Y-47199200D02*
X75610900Y-47114500D01*
X75543000Y-47287100D02*
X75572900Y-47199200D01*
X75521400Y-47377400D02*
X75543000Y-47287100D01*
X75508400Y-47469300D02*
X75521400Y-47377400D01*
X75504000Y-47562200D02*
X75508400Y-47469300D01*
X75504000Y-48993600D02*
X75504000Y-47562200D01*
X75499200Y-49091500D02*
X75504000Y-48993600D01*
X75496500Y-49117400D02*
X75499200Y-49091500D01*
X75484200Y-49195100D02*
X75496500Y-49117400D01*
X75478800Y-49220800D02*
X75484200Y-49195100D01*
X75454800Y-49309000D02*
X75478800Y-49220800D01*
X75422200Y-49394800D02*
X75454800Y-49309000D01*
X75411500Y-49418900D02*
X75422200Y-49394800D01*
X75369700Y-49500100D02*
X75411500Y-49418900D01*
X75320000Y-49577300D02*
X75369700Y-49500100D01*
X75304800Y-49598400D02*
X75320000Y-49577300D01*
X75255200Y-49659600D02*
X75304800Y-49598400D01*
X75237600Y-49679100D02*
X75255200Y-49659600D01*
X75172800Y-49743500D02*
X75237600Y-49679100D01*
X75101600Y-49801500D02*
X75172800Y-49743500D01*
X75080400Y-49817000D02*
X75101600Y-49801500D01*
X75003600Y-49866500D02*
X75080400Y-49817000D01*
X74921900Y-49908500D02*
X75003600Y-49866500D01*
X74897900Y-49919200D02*
X74921900Y-49908500D01*
X74824400Y-49947400D02*
X74897900Y-49919200D01*
X74799700Y-49955400D02*
X74824400Y-49947400D01*
X74711300Y-49978700D02*
X74799700Y-49955400D01*
X74620700Y-49993500D02*
X74711300Y-49978700D01*
X74594500Y-49996200D02*
X74620700Y-49993500D01*
X74509600Y-50000700D02*
X74594500Y-49996200D01*
X74453300Y-50001000D02*
X74509600Y-50000700D01*
X74356000Y-50005800D02*
X74453300Y-50001000D01*
X74259900Y-50020000D02*
X74356000Y-50005800D01*
X74165700Y-50043600D02*
X74259900Y-50020000D01*
X74074200Y-50076400D02*
X74165700Y-50043600D01*
X73986400Y-50117900D02*
X74074200Y-50076400D01*
X73903000Y-50167900D02*
X73986400Y-50117900D01*
X73825000Y-50225700D02*
X73903000Y-50167900D01*
X73753000Y-50291000D02*
X73825000Y-50225700D01*
X73687800Y-50363000D02*
X73753000Y-50291000D01*
X73629900Y-50441000D02*
X73687800Y-50363000D01*
X73579900Y-50524300D02*
X73629900Y-50441000D01*
X73538400Y-50612100D02*
X73579900Y-50524300D01*
X73505700Y-50703600D02*
X73538400Y-50612100D01*
X73482100Y-50797900D02*
X73505700Y-50703600D01*
X73467800Y-50894000D02*
X73482100Y-50797900D01*
X73463000Y-50991200D02*
X73467800Y-50894000D01*
X73463000Y-52010800D02*
X73463000Y-50991200D01*
X73467800Y-52108000D02*
X73463000Y-52010800D01*
X73482100Y-52204100D02*
X73467800Y-52108000D01*
X73505700Y-52298400D02*
X73482100Y-52204100D01*
X73538400Y-52389900D02*
X73505700Y-52298400D01*
X73579900Y-52477700D02*
X73538400Y-52389900D01*
X73629900Y-52561000D02*
X73579900Y-52477700D01*
X73687800Y-52639000D02*
X73629900Y-52561000D01*
X73753000Y-52711000D02*
X73687800Y-52639000D01*
X73825000Y-52776300D02*
X73753000Y-52711000D01*
X73903000Y-52834100D02*
X73825000Y-52776300D01*
X73986400Y-52884100D02*
X73903000Y-52834100D01*
X74074200Y-52925600D02*
X73986400Y-52884100D01*
X74165700Y-52958400D02*
X74074200Y-52925600D01*
X74259900Y-52982000D02*
X74165700Y-52958400D01*
X74356000Y-52996200D02*
X74259900Y-52982000D01*
X74453300Y-53001000D02*
X74356000Y-52996200D01*
X105013200Y-53001000D02*
X94483300Y-53001000D01*
X105110500Y-52996200D02*
X105013200Y-53001000D01*
X105206600Y-52982000D02*
X105110500Y-52996200D01*
X105300800Y-52958400D02*
X105206600Y-52982000D01*
X105392300Y-52925600D02*
X105300800Y-52958400D01*
X105480100Y-52884100D02*
X105392300Y-52925600D01*
X105563500Y-52834100D02*
X105480100Y-52884100D01*
X105641500Y-52776300D02*
X105563500Y-52834100D01*
X105713500Y-52711000D02*
X105641500Y-52776300D01*
X105778700Y-52639000D02*
X105713500Y-52711000D01*
X105836600Y-52561000D02*
X105778700Y-52639000D01*
X105886500Y-52477700D02*
X105836600Y-52561000D01*
X105928100Y-52389900D02*
X105886500Y-52477700D01*
X105960800Y-52298400D02*
X105928100Y-52389900D01*
X105984400Y-52204100D02*
X105960800Y-52298400D01*
X105998700Y-52108000D02*
X105984400Y-52204100D01*
X106003400Y-52010800D02*
X105998700Y-52108000D01*
X106003400Y-50727400D02*
X106003400Y-52010800D01*
X105998700Y-50630800D02*
X106003400Y-50727400D01*
X105984700Y-50535300D02*
X105998700Y-50630800D01*
X105961400Y-50441600D02*
X105984700Y-50535300D01*
X105929000Y-50350700D02*
X105961400Y-50441600D01*
X105888000Y-50263300D02*
X105929000Y-50350700D01*
X105838700Y-50180300D02*
X105888000Y-50263300D01*
X105781500Y-50102600D02*
X105838700Y-50180300D01*
X105717000Y-50030700D02*
X105781500Y-50102600D01*
X105645900Y-49965500D02*
X105717000Y-50030700D01*
X105568700Y-49907600D02*
X105645900Y-49965500D01*
X105524700Y-49880800D02*
X105568700Y-49907600D01*
X105415000Y-49809300D02*
X105524700Y-49880800D01*
X105334100Y-49743700D02*
X105415000Y-49809300D01*
X105260000Y-49669700D02*
X105334100Y-49743700D01*
X105194000Y-49588300D02*
X105260000Y-49669700D01*
X105136700Y-49500000D02*
X105194000Y-49588300D01*
X105089200Y-49406700D02*
X105136700Y-49500000D01*
X105056200Y-49321600D02*
X105089200Y-49406700D01*
X105048000Y-49296600D02*
X105056200Y-49321600D01*
X105024700Y-49208200D02*
X105048000Y-49296600D01*
X105010000Y-49117600D02*
X105024700Y-49208200D01*
X105007200Y-49091500D02*
X105010000Y-49117600D01*
X105002500Y-48999800D02*
X105007200Y-49091500D01*
X105002400Y-46985700D02*
X105002500Y-48999800D01*
X104997400Y-46886100D02*
X105002400Y-46985700D01*
X104982400Y-46787700D02*
X104997400Y-46886100D01*
X104957700Y-46691300D02*
X104982400Y-46787700D01*
X104923400Y-46597900D02*
X104957700Y-46691300D01*
X104879900Y-46508400D02*
X104923400Y-46597900D01*
X104827600Y-46423800D02*
X104879900Y-46508400D01*
X104767100Y-46344800D02*
X104827600Y-46423800D01*
X104698900Y-46272200D02*
X104767100Y-46344800D01*
X104623900Y-46206900D02*
X104698900Y-46272200D01*
X104542600Y-46149500D02*
X104623900Y-46206900D01*
X104455800Y-46100300D02*
X104542600Y-46149500D01*
X104304000Y-46024300D02*
X104455800Y-46100300D01*
X104281100Y-46011200D02*
X104304000Y-46024300D01*
X103623200Y-45588600D02*
X104281100Y-46011200D01*
X103012800Y-45098700D02*
X103623200Y-45588600D01*
X103004000Y-45089100D02*
X103012800Y-45098700D01*
X103002500Y-45077200D02*
X103004000Y-45089100D01*
X103003000Y-33913200D02*
X103002500Y-45077200D01*
X103005200Y-33907800D02*
X103003000Y-33913200D01*
X103012400Y-33900700D02*
X103005200Y-33907800D01*
X103620000Y-33412900D02*
X103012400Y-33900700D01*
X104274700Y-32991700D02*
X103620000Y-33412900D01*
X104297400Y-32978700D02*
X104274700Y-32991700D01*
X104446800Y-32903600D02*
X104297400Y-32978700D01*
X104533500Y-32854400D02*
X104446800Y-32903600D01*
X104614600Y-32796900D02*
X104533500Y-32854400D01*
X104689600Y-32731600D02*
X104614600Y-32796900D01*
X104757600Y-32659100D02*
X104689600Y-32731600D01*
X104818000Y-32580200D02*
X104757600Y-32659100D01*
X104870100Y-32495500D02*
X104818000Y-32580200D01*
X104913600Y-32406100D02*
X104870100Y-32495500D01*
X104947800Y-32312800D02*
X104913600Y-32406100D01*
X104972500Y-32216500D02*
X104947800Y-32312800D01*
X104987400Y-32118200D02*
X104972500Y-32216500D01*
X104992400Y-32018600D02*
X104987400Y-32118200D01*
X104992400Y-30006500D02*
X104992400Y-32018600D01*
X104998300Y-29895100D02*
X104992400Y-30006500D01*
X105012300Y-29804800D02*
X104998300Y-29895100D01*
X105017700Y-29779100D02*
X105012300Y-29804800D01*
X105038100Y-29703100D02*
X105017700Y-29779100D01*
X105046200Y-29678400D02*
X105038100Y-29703100D01*
X105079200Y-29593200D02*
X105046200Y-29678400D01*
X105120600Y-29511200D02*
X105079200Y-29593200D01*
X105133700Y-29488400D02*
X105120600Y-29511200D01*
X105183800Y-29412000D02*
X105133700Y-29488400D01*
X105241400Y-29340200D02*
X105183800Y-29412000D01*
X105258900Y-29320900D02*
X105241400Y-29340200D01*
X105323700Y-29256500D02*
X105258900Y-29320900D01*
X105395000Y-29198200D02*
X105323700Y-29256500D01*
X105416100Y-29183000D02*
X105395000Y-29198200D01*
X105481900Y-29140200D02*
X105416100Y-29183000D01*
X105568300Y-29087100D02*
X105481900Y-29140200D01*
X105645600Y-29029200D02*
X105568300Y-29087100D01*
X105716800Y-28964000D02*
X105645600Y-29029200D01*
X105781300Y-28892100D02*
X105716800Y-28964000D01*
X105838600Y-28814300D02*
X105781300Y-28892100D01*
X105887900Y-28731400D02*
X105838600Y-28814300D01*
X105929000Y-28644000D02*
X105887900Y-28731400D01*
X105961300Y-28553000D02*
X105929000Y-28644000D01*
X105984600Y-28459300D02*
X105961300Y-28553000D01*
X105998700Y-28363700D02*
X105984600Y-28459300D01*
X106003400Y-28267000D02*
X105998700Y-28363700D01*
X106003400Y-26990200D02*
X106003400Y-28267000D01*
X105998700Y-26893000D02*
X106003400Y-26990200D01*
X105984400Y-26796900D02*
X105998700Y-26893000D01*
X105960800Y-26702600D02*
X105984400Y-26796900D01*
X105928100Y-26611100D02*
X105960800Y-26702600D01*
X105886500Y-26523300D02*
X105928100Y-26611100D01*
X105836600Y-26440000D02*
X105886500Y-26523300D01*
X105778700Y-26362000D02*
X105836600Y-26440000D01*
X105713500Y-26290000D02*
X105778700Y-26362000D01*
X105641500Y-26224700D02*
X105713500Y-26290000D01*
X105563500Y-26166900D02*
X105641500Y-26224700D01*
X105480100Y-26116900D02*
X105563500Y-26166900D01*
X105392300Y-26075400D02*
X105480100Y-26116900D01*
X105300800Y-26042600D02*
X105392300Y-26075400D01*
X105206600Y-26019000D02*
X105300800Y-26042600D01*
X105110500Y-26004800D02*
X105206600Y-26019000D01*
X105013200Y-26000000D02*
X105110500Y-26004800D01*
X94483300Y-26000000D02*
X105013200Y-26000000D01*
X94386000Y-26004800D02*
X94483300Y-26000000D01*
X94289900Y-26019000D02*
X94386000Y-26004800D01*
X94195700Y-26042600D02*
X94289900Y-26019000D01*
X94104200Y-26075400D02*
X94195700Y-26042600D01*
X94016400Y-26116900D02*
X94104200Y-26075400D01*
X93933000Y-26166900D02*
X94016400Y-26116900D01*
X93855000Y-26224700D02*
X93933000Y-26166900D01*
X93783000Y-26290000D02*
X93855000Y-26224700D01*
X93717800Y-26362000D02*
X93783000Y-26290000D01*
X93659900Y-26440000D02*
X93717800Y-26362000D01*
X93610000Y-26523300D02*
X93659900Y-26440000D01*
X93568400Y-26611100D02*
X93610000Y-26523300D01*
X93535700Y-26702600D02*
X93568400Y-26611100D01*
X93512100Y-26796900D02*
X93535700Y-26702600D01*
X93497800Y-26893000D02*
X93512100Y-26796900D01*
X93493100Y-26990200D02*
X93497800Y-26893000D01*
X93493100Y-28008800D02*
X93493100Y-26990200D01*
X93497800Y-28106000D02*
X93493100Y-28008800D01*
X93512100Y-28202100D02*
X93497800Y-28106000D01*
X93535700Y-28296400D02*
X93512100Y-28202100D01*
X93568400Y-28387900D02*
X93535700Y-28296400D01*
X93610000Y-28475700D02*
X93568400Y-28387900D01*
X93659900Y-28559000D02*
X93610000Y-28475700D01*
X93717800Y-28637000D02*
X93659900Y-28559000D01*
X93783000Y-28709000D02*
X93717800Y-28637000D01*
X93855000Y-28774300D02*
X93783000Y-28709000D01*
X93933000Y-28832100D02*
X93855000Y-28774300D01*
X94016400Y-28882100D02*
X93933000Y-28832100D01*
X94104200Y-28923600D02*
X94016400Y-28882100D01*
X94195700Y-28956400D02*
X94104200Y-28923600D01*
X94289900Y-28980000D02*
X94195700Y-28956400D01*
X94386000Y-28994200D02*
X94289900Y-28980000D01*
X94607400Y-29004800D02*
X94386000Y-28994200D01*
X94698400Y-29018900D02*
X94607400Y-29004800D01*
X94723900Y-29024300D02*
X94698400Y-29018900D01*
X94812000Y-29048200D02*
X94723900Y-29024300D01*
X94910300Y-29086000D02*
X94812000Y-29048200D01*
X95003200Y-29133300D02*
X94910300Y-29086000D01*
X95080400Y-29183000D02*
X95003200Y-29133300D01*
X95101600Y-29198400D02*
X95080400Y-29183000D01*
X95172400Y-29256200D02*
X95101600Y-29198400D01*
X95237600Y-29320900D02*
X95172400Y-29256200D01*
X95255200Y-29340400D02*
X95237600Y-29320900D01*
X95312800Y-29412100D02*
X95255200Y-29340400D01*
X95369500Y-29499500D02*
X95312800Y-29412100D01*
X95417100Y-29592800D02*
X95369500Y-29499500D01*
X95454800Y-29691100D02*
X95417100Y-29592800D01*
X95481900Y-29792200D02*
X95454800Y-29691100D01*
X95496500Y-29882400D02*
X95481900Y-29792200D01*
X95499200Y-29908200D02*
X95496500Y-29882400D01*
X95504100Y-30006600D02*
X95499200Y-29908200D01*
X95504100Y-31437800D02*
X95504100Y-30006600D01*
X95508400Y-31530700D02*
X95504100Y-31437800D01*
X95521400Y-31622600D02*
X95508400Y-31530700D01*
X95543000Y-31712900D02*
X95521400Y-31622600D01*
X95572900Y-31800800D02*
X95543000Y-31712900D01*
X95611000Y-31885500D02*
X95572900Y-31800800D01*
X95656700Y-31966200D02*
X95611000Y-31885500D01*
X95709900Y-32042300D02*
X95656700Y-31966200D01*
X95769900Y-32113100D02*
X95709900Y-32042300D01*
X95836300Y-32177900D02*
X95769900Y-32113100D01*
X95908500Y-32236300D02*
X95836300Y-32177900D01*
X95986000Y-32287800D02*
X95908500Y-32236300D01*
X96209500Y-32421400D02*
X95986000Y-32287800D01*
X96229800Y-32434900D02*
X96209500Y-32421400D01*
X96890700Y-32924700D02*
X96229800Y-32434900D01*
X97501000Y-33476600D02*
X96890700Y-32924700D01*
X97518300Y-33493800D02*
X97501000Y-33476600D01*
X98070900Y-34103200D02*
X97518300Y-33493800D01*
X98561600Y-34763600D02*
X98070900Y-34103200D01*
X98575400Y-34784100D02*
X98561600Y-34763600D01*
X98992200Y-35478900D02*
X98575400Y-34784100D01*
X99003800Y-35500500D02*
X98992200Y-35478900D01*
X99355700Y-36244600D02*
X99003800Y-35500500D01*
X99633200Y-37018600D02*
X99355700Y-36244600D01*
X99640400Y-37042200D02*
X99633200Y-37018600D01*
X99840100Y-37840000D02*
X99640400Y-37042200D01*
X99961200Y-38653800D02*
X99840100Y-37840000D01*
X99963700Y-38678400D02*
X99961200Y-38653800D01*
X100003500Y-39487900D02*
X99963700Y-38678400D01*
X100003400Y-39512300D02*
X100003500Y-39487900D01*
X99962800Y-40333700D02*
X100003400Y-39512300D01*
X99842200Y-41147600D02*
X99962800Y-40333700D01*
X99837400Y-41171800D02*
X99842200Y-41147600D01*
X99637200Y-41969400D02*
X99837400Y-41171800D01*
X99360000Y-42744200D02*
X99637200Y-41969400D01*
X99350600Y-42767000D02*
X99360000Y-42744200D01*
X99003900Y-43499300D02*
X99350600Y-42767000D01*
X98992400Y-43520800D02*
X99003900Y-43499300D01*
X98575400Y-44215800D02*
X98992400Y-43520800D01*
X98561700Y-44236300D02*
X98575400Y-44215800D01*
X98071200Y-44896400D02*
X98561700Y-44236300D01*
X97518300Y-45506100D02*
X98071200Y-44896400D01*
X97501000Y-45523400D02*
X97518300Y-45506100D01*
X96890700Y-46075300D02*
X97501000Y-45523400D01*
X96229800Y-46565000D02*
X96890700Y-46075300D01*
X96209500Y-46578600D02*
X96229800Y-46565000D01*
X95986000Y-46712300D02*
X96209500Y-46578600D01*
X95908500Y-46763700D02*
X95986000Y-46712300D01*
X95836300Y-46822100D02*
X95908500Y-46763700D01*
X95769900Y-46886900D02*
X95836300Y-46822100D01*
X95709900Y-46957700D02*
X95769900Y-46886900D01*
X95656800Y-47033800D02*
X95709900Y-46957700D01*
X95611000Y-47114500D02*
X95656800Y-47033800D01*
X95573000Y-47199200D02*
X95611000Y-47114500D01*
X95543000Y-47287000D02*
X95573000Y-47199200D01*
X95521500Y-47377300D02*
X95543000Y-47287000D01*
X95508500Y-47469200D02*
X95521500Y-47377300D01*
X95504100Y-47562200D02*
X95508500Y-47469200D01*
X95504100Y-48993600D02*
X95504100Y-47562200D01*
X95499300Y-49091500D02*
X95504100Y-48993600D01*
X95496600Y-49117400D02*
X95499300Y-49091500D01*
X95484200Y-49195100D02*
X95496600Y-49117400D01*
X95478800Y-49220800D02*
X95484200Y-49195100D01*
X95454800Y-49309000D02*
X95478800Y-49220800D01*
X95422200Y-49394800D02*
X95454800Y-49309000D01*
X95411500Y-49418900D02*
X95422200Y-49394800D01*
X95369800Y-49500100D02*
X95411500Y-49418900D01*
X95312400Y-49588400D02*
X95369800Y-49500100D01*
X95255200Y-49659600D02*
X95312400Y-49588400D01*
X95237600Y-49679100D02*
X95255200Y-49659600D01*
X95172800Y-49743500D02*
X95237600Y-49679100D01*
X95101700Y-49801500D02*
X95172800Y-49743500D01*
X95080400Y-49817000D02*
X95101700Y-49801500D01*
X95003600Y-49866500D02*
X95080400Y-49817000D01*
X94921900Y-49908500D02*
X95003600Y-49866500D01*
X94898200Y-49919100D02*
X94921900Y-49908500D01*
X94812000Y-49951800D02*
X94898200Y-49919100D01*
X94723900Y-49975700D02*
X94812000Y-49951800D01*
X94698200Y-49981200D02*
X94723900Y-49975700D01*
X94607400Y-49995200D02*
X94698200Y-49981200D01*
X94386000Y-50005800D02*
X94607400Y-49995200D01*
X94289900Y-50020000D02*
X94386000Y-50005800D01*
X94195700Y-50043600D02*
X94289900Y-50020000D01*
X94104200Y-50076400D02*
X94195700Y-50043600D01*
X94016400Y-50117900D02*
X94104200Y-50076400D01*
X93933000Y-50167900D02*
X94016400Y-50117900D01*
X93855000Y-50225700D02*
X93933000Y-50167900D01*
X93783000Y-50291000D02*
X93855000Y-50225700D01*
X93717800Y-50363000D02*
X93783000Y-50291000D01*
X93659900Y-50441000D02*
X93717800Y-50363000D01*
X93610000Y-50524300D02*
X93659900Y-50441000D01*
X93568400Y-50612100D02*
X93610000Y-50524300D01*
X93535700Y-50703600D02*
X93568400Y-50612100D01*
X93512100Y-50797900D02*
X93535700Y-50703600D01*
X93497800Y-50894000D02*
X93512100Y-50797900D01*
X93493100Y-50991200D02*
X93497800Y-50894000D01*
X93493100Y-52010800D02*
X93493100Y-50991200D01*
X93497800Y-52108000D02*
X93493100Y-52010800D01*
X93512100Y-52204100D02*
X93497800Y-52108000D01*
X93535700Y-52298400D02*
X93512100Y-52204100D01*
X93568400Y-52389900D02*
X93535700Y-52298400D01*
X93610000Y-52477700D02*
X93568400Y-52389900D01*
X93659900Y-52561000D02*
X93610000Y-52477700D01*
X93717800Y-52639000D02*
X93659900Y-52561000D01*
X93783000Y-52711000D02*
X93717800Y-52639000D01*
X93855000Y-52776300D02*
X93783000Y-52711000D01*
X93933000Y-52834100D02*
X93855000Y-52776300D01*
X94016400Y-52884100D02*
X93933000Y-52834100D01*
X94104200Y-52925600D02*
X94016400Y-52884100D01*
X94195700Y-52958400D02*
X94104200Y-52925600D01*
X94289900Y-52982000D02*
X94195700Y-52958400D01*
X94386000Y-52996200D02*
X94289900Y-52982000D01*
X94483300Y-53001000D02*
X94386000Y-52996200D01*
X50001000Y-31909400D02*
X49999100Y-31921300D01*
X50009300Y-31900700D02*
X50001000Y-31909400D01*
X50617000Y-31412900D02*
X50009300Y-31900700D01*
X51271600Y-30991700D02*
X50617000Y-31412900D01*
X51294400Y-30978700D02*
X51271600Y-30991700D01*
X51443700Y-30903600D02*
X51294400Y-30978700D01*
X51530400Y-30854400D02*
X51443700Y-30903600D01*
X51611500Y-30797000D02*
X51530400Y-30854400D01*
X51686500Y-30731700D02*
X51611500Y-30797000D01*
X51754500Y-30659100D02*
X51686500Y-30731700D01*
X51814900Y-30580200D02*
X51754500Y-30659100D01*
X51867100Y-30495600D02*
X51814900Y-30580200D01*
X51910500Y-30406100D02*
X51867100Y-30495600D01*
X51944800Y-30312800D02*
X51910500Y-30406100D01*
X51969500Y-30216500D02*
X51944800Y-30312800D01*
X51984400Y-30118200D02*
X51969500Y-30216500D01*
X51989400Y-30018700D02*
X51984400Y-30118200D01*
X51989400Y-26006500D02*
X51989400Y-30018700D01*
X51995200Y-25895600D02*
X51989400Y-26006500D01*
X52009300Y-25804600D02*
X51995200Y-25895600D01*
X52014700Y-25779100D02*
X52009300Y-25804600D01*
X52038800Y-25690500D02*
X52014700Y-25779100D01*
X52071200Y-25605100D02*
X52038800Y-25690500D01*
X52081900Y-25581100D02*
X52071200Y-25605100D01*
X52123700Y-25499800D02*
X52081900Y-25581100D01*
X52173400Y-25422600D02*
X52123700Y-25499800D01*
X52188800Y-25401400D02*
X52173400Y-25422600D01*
X52238400Y-25340200D02*
X52188800Y-25401400D01*
X52255800Y-25320900D02*
X52238400Y-25340200D01*
X52320700Y-25256500D02*
X52255800Y-25320900D01*
X52392000Y-25198200D02*
X52320700Y-25256500D01*
X52413000Y-25183000D02*
X52392000Y-25198200D01*
X52478900Y-25140200D02*
X52413000Y-25183000D01*
X52565300Y-25087100D02*
X52478900Y-25140200D01*
X52642500Y-25029200D02*
X52565300Y-25087100D01*
X52713700Y-24964000D02*
X52642500Y-25029200D01*
X52778300Y-24892100D02*
X52713700Y-24964000D01*
X52835500Y-24814300D02*
X52778300Y-24892100D01*
X52884900Y-24731400D02*
X52835500Y-24814300D01*
X52925900Y-24644000D02*
X52884900Y-24731400D01*
X52958300Y-24553000D02*
X52925900Y-24644000D01*
X52981600Y-24459300D02*
X52958300Y-24553000D01*
X52995700Y-24363700D02*
X52981600Y-24459300D01*
X53000400Y-24267000D02*
X52995700Y-24363700D01*
X53000400Y-22989200D02*
X53000400Y-24267000D01*
X52995600Y-22891900D02*
X53000400Y-22989200D01*
X52981400Y-22795800D02*
X52995600Y-22891900D01*
X52957800Y-22701600D02*
X52981400Y-22795800D01*
X52925000Y-22610100D02*
X52957800Y-22701600D01*
X52883500Y-22522300D02*
X52925000Y-22610100D01*
X52833500Y-22438900D02*
X52883500Y-22522300D01*
X52775700Y-22360900D02*
X52833500Y-22438900D01*
X52710400Y-22288900D02*
X52775700Y-22360900D01*
X52638400Y-22223700D02*
X52710400Y-22288900D01*
X52560400Y-22165800D02*
X52638400Y-22223700D01*
X52477100Y-22115900D02*
X52560400Y-22165800D01*
X52389200Y-22074300D02*
X52477100Y-22115900D01*
X52297800Y-22041600D02*
X52389200Y-22074300D01*
X52203500Y-22018000D02*
X52297800Y-22041600D01*
X52107400Y-22003700D02*
X52203500Y-22018000D01*
X52010200Y-21999000D02*
X52107400Y-22003700D01*
X50023500Y-21999000D02*
X52010200Y-21999000D01*
X50006300Y-21997700D02*
X50023500Y-21999000D01*
X50000300Y-21991600D02*
X50006300Y-21997700D01*
X49999000Y-21974400D02*
X50000300Y-21991600D01*
X49999000Y-17023500D02*
X49999000Y-21974400D01*
X50000300Y-17006300D02*
X49999000Y-17023500D01*
X50003000Y-17002200D02*
X50000300Y-17006300D01*
X50007300Y-16999900D02*
X50003000Y-17002200D01*
X112982500Y-16999000D02*
X50007300Y-16999900D01*
X112999800Y-17000200D02*
X112982500Y-16999000D01*
X113005800Y-17006300D02*
X112999800Y-17000200D01*
X113007100Y-17023500D02*
X113005800Y-17006300D01*
X113007100Y-21978900D02*
X113007100Y-17023500D01*
X113005100Y-25991700D02*
X113007100Y-21978900D01*
X113002800Y-25996000D02*
X113005100Y-25991700D01*
X112998800Y-25998700D02*
X113002800Y-25996000D01*
X112981500Y-26000000D02*
X112998800Y-25998700D01*
X110993700Y-26000000D02*
X112981500Y-26000000D01*
X110896400Y-26004800D02*
X110993700Y-26000000D01*
X110800300Y-26019000D02*
X110896400Y-26004800D01*
X110706100Y-26042600D02*
X110800300Y-26019000D01*
X110614600Y-26075400D02*
X110706100Y-26042600D01*
X110526800Y-26116900D02*
X110614600Y-26075400D01*
X110443400Y-26166900D02*
X110526800Y-26116900D01*
X110365400Y-26224700D02*
X110443400Y-26166900D01*
X110293400Y-26290000D02*
X110365400Y-26224700D01*
X110228200Y-26362000D02*
X110293400Y-26290000D01*
X110170300Y-26440000D02*
X110228200Y-26362000D01*
X110120400Y-26523300D02*
X110170300Y-26440000D01*
X110078800Y-26611100D02*
X110120400Y-26523300D01*
X110046100Y-26702600D02*
X110078800Y-26611100D01*
X110022500Y-26796900D02*
X110046100Y-26702600D01*
X110008200Y-26893000D02*
X110022500Y-26796900D01*
X110003400Y-26990200D02*
X110008200Y-26893000D01*
X110003400Y-28272500D02*
X110003400Y-26990200D01*
X110008200Y-28369100D02*
X110003400Y-28272500D01*
X110022200Y-28464600D02*
X110008200Y-28369100D01*
X110045500Y-28558300D02*
X110022200Y-28464600D01*
X110077900Y-28649200D02*
X110045500Y-28558300D01*
X110118900Y-28736600D02*
X110077900Y-28649200D01*
X110168200Y-28819600D02*
X110118900Y-28736600D01*
X110225400Y-28897300D02*
X110168200Y-28819600D01*
X110289900Y-28969200D02*
X110225400Y-28897300D01*
X110361000Y-29034400D02*
X110289900Y-28969200D01*
X110438200Y-29092300D02*
X110361000Y-29034400D01*
X110515000Y-29140200D02*
X110438200Y-29092300D01*
X110580800Y-29183000D02*
X110515000Y-29140200D01*
X110601800Y-29198200D02*
X110580800Y-29183000D01*
X110673200Y-29256500D02*
X110601800Y-29198200D01*
X110738000Y-29320800D02*
X110673200Y-29256500D01*
X110755400Y-29340200D02*
X110738000Y-29320800D01*
X110813200Y-29412000D02*
X110755400Y-29340200D01*
X110863200Y-29488400D02*
X110813200Y-29412000D01*
X110876300Y-29511200D02*
X110863200Y-29488400D01*
X110912000Y-29581300D02*
X110876300Y-29511200D01*
X110922600Y-29605100D02*
X110912000Y-29581300D01*
X110955100Y-29690500D02*
X110922600Y-29605100D01*
X110979200Y-29779100D02*
X110955100Y-29690500D01*
X110984600Y-29804800D02*
X110979200Y-29779100D01*
X110998600Y-29895100D02*
X110984600Y-29804800D01*
X111004400Y-30006400D02*
X110998600Y-29895100D01*
X111004300Y-32012000D02*
X111004400Y-30006400D01*
X111009300Y-32111600D02*
X111004300Y-32012000D01*
X111024200Y-32210100D02*
X111009300Y-32111600D01*
X111049000Y-32306500D02*
X111024200Y-32210100D01*
X111083300Y-32399900D02*
X111049000Y-32306500D01*
X111126800Y-32489400D02*
X111083300Y-32399900D01*
X111179100Y-32574100D02*
X111126800Y-32489400D01*
X111239600Y-32653100D02*
X111179100Y-32574100D01*
X111307800Y-32725600D02*
X111239600Y-32653100D01*
X111382900Y-32791000D02*
X111307800Y-32725600D01*
X111464100Y-32848400D02*
X111382900Y-32791000D01*
X111551000Y-32897600D02*
X111464100Y-32848400D01*
X111703700Y-32974100D02*
X111551000Y-32897600D01*
X111726700Y-32987100D02*
X111703700Y-32974100D01*
X112385500Y-33410500D02*
X111726700Y-32987100D01*
X112996800Y-33901200D02*
X112385500Y-33410500D01*
X113004000Y-33908200D02*
X112996800Y-33901200D01*
X113006100Y-33912700D02*
X113004000Y-33908200D01*
X113007100Y-33922700D02*
X113006100Y-33912700D01*
X113005400Y-45069200D02*
X113007100Y-33922700D01*
X113003400Y-45081100D02*
X113005400Y-45069200D01*
X112995100Y-45089800D02*
X113003400Y-45081100D01*
X112384500Y-45581500D02*
X112995100Y-45089800D01*
X111726400Y-46005900D02*
X112384500Y-45581500D01*
X111703500Y-46018900D02*
X111726400Y-46005900D01*
X111549800Y-46096200D02*
X111703500Y-46018900D01*
X111463200Y-46145400D02*
X111549800Y-46096200D01*
X111382100Y-46202900D02*
X111463200Y-46145400D01*
X111307200Y-46268200D02*
X111382100Y-46202900D01*
X111239200Y-46340700D02*
X111307200Y-46268200D01*
X111178800Y-46419700D02*
X111239200Y-46340700D01*
X111126700Y-46504300D02*
X111178800Y-46419700D01*
X111083300Y-46593700D02*
X111126700Y-46504300D01*
X111049100Y-46687000D02*
X111083300Y-46593700D01*
X111024400Y-46783300D02*
X111049100Y-46687000D01*
X111009500Y-46881500D02*
X111024400Y-46783300D01*
X111004500Y-46981000D02*
X111009500Y-46881500D01*
X111004500Y-48993600D02*
X111004500Y-46981000D01*
X110998700Y-49104300D02*
X111004500Y-48993600D01*
X110982300Y-49207800D02*
X110998700Y-49104300D01*
X110955200Y-49309000D02*
X110982300Y-49207800D01*
X110917700Y-49406800D02*
X110955200Y-49309000D01*
X110870200Y-49500100D02*
X110917700Y-49406800D01*
X110812900Y-49588400D02*
X110870200Y-49500100D01*
X110746900Y-49669800D02*
X110812900Y-49588400D01*
X110672800Y-49743800D02*
X110746900Y-49669800D01*
X110591400Y-49809700D02*
X110672800Y-49743800D01*
X110517400Y-49858200D02*
X110591400Y-49809700D01*
X110481200Y-49880100D02*
X110517400Y-49858200D01*
X110396900Y-49937200D02*
X110481200Y-49880100D01*
X110319100Y-50002500D02*
X110396900Y-49937200D01*
X110248300Y-50075400D02*
X110319100Y-50002500D01*
X110185500Y-50155200D02*
X110248300Y-50075400D01*
X110131100Y-50241100D02*
X110185500Y-50155200D01*
X110085800Y-50332000D02*
X110131100Y-50241100D01*
X110050100Y-50427100D02*
X110085800Y-50332000D01*
X110024300Y-50525400D02*
X110050100Y-50427100D01*
X110008700Y-50625800D02*
X110024300Y-50525400D01*
X110003500Y-50727500D02*
X110008700Y-50625800D01*
X110003500Y-52010700D02*
X110003500Y-50727500D01*
X110008200Y-52108000D02*
X110003500Y-52010700D01*
X110022500Y-52204100D02*
X110008200Y-52108000D01*
X110046100Y-52298400D02*
X110022500Y-52204100D01*
X110078800Y-52389800D02*
X110046100Y-52298400D01*
X110120400Y-52477700D02*
X110078800Y-52389800D01*
X110170300Y-52561000D02*
X110120400Y-52477700D01*
X110228200Y-52639000D02*
X110170300Y-52561000D01*
X110293400Y-52711000D02*
X110228200Y-52639000D01*
X110365400Y-52776300D02*
X110293400Y-52711000D01*
X110443500Y-52834100D02*
X110365400Y-52776300D01*
X110526800Y-52884100D02*
X110443500Y-52834100D01*
X110614600Y-52925600D02*
X110526800Y-52884100D01*
X110706100Y-52958400D02*
X110614600Y-52925600D01*
X110800300Y-52982000D02*
X110706100Y-52958400D01*
X110896400Y-52996200D02*
X110800300Y-52982000D01*
X110993700Y-53001000D02*
X110896400Y-52996200D01*
X112982500Y-53001000D02*
X110993700Y-53001000D01*
X112998800Y-53002000D02*
X112982500Y-53001000D01*
X113005400Y-53007400D02*
X112998800Y-53002000D01*
X113007100Y-53025500D02*
X113005400Y-53007400D01*
X113007100Y-57976500D02*
X113007100Y-53025500D01*
X113005800Y-57993700D02*
X113007100Y-57976500D01*
X112999800Y-57999700D02*
X113005800Y-57993700D01*
X112982500Y-58001000D02*
X112999800Y-57999700D01*
X50023500Y-58001000D02*
X112982500Y-58001000D01*
X50006300Y-57999700D02*
X50023500Y-58001000D01*
X50000300Y-57993700D02*
X50006300Y-57999700D01*
X49999000Y-57976500D02*
X50000300Y-57993700D01*
X49999000Y-53025500D02*
X49999000Y-57976500D01*
X50000300Y-53008300D02*
X49999000Y-53025500D01*
X50006300Y-53002300D02*
X50000300Y-53008300D01*
X50023500Y-53001000D02*
X50006300Y-53002300D01*
X52010200Y-53001000D02*
X50023500Y-53001000D01*
X52107400Y-52996200D02*
X52010200Y-53001000D01*
X52203500Y-52982000D02*
X52107400Y-52996200D01*
X52297800Y-52958400D02*
X52203500Y-52982000D01*
X52389200Y-52925600D02*
X52297800Y-52958400D01*
X52477100Y-52884100D02*
X52389200Y-52925600D01*
X52560400Y-52834100D02*
X52477100Y-52884100D01*
X52638400Y-52776300D02*
X52560400Y-52834100D01*
X52710400Y-52711000D02*
X52638400Y-52776300D01*
X52775700Y-52639000D02*
X52710400Y-52711000D01*
X52833500Y-52561000D02*
X52775700Y-52639000D01*
X52883500Y-52477700D02*
X52833500Y-52561000D01*
X52925000Y-52389900D02*
X52883500Y-52477700D01*
X52957800Y-52298400D02*
X52925000Y-52389900D01*
X52981400Y-52204100D02*
X52957800Y-52298400D01*
X52995600Y-52108000D02*
X52981400Y-52204100D01*
X53000400Y-52010800D02*
X52995600Y-52108000D01*
X53000400Y-50727400D02*
X53000400Y-52010800D01*
X52995700Y-50630800D02*
X53000400Y-50727400D01*
X52981600Y-50535300D02*
X52995700Y-50630800D01*
X52958300Y-50441600D02*
X52981600Y-50535300D01*
X52926000Y-50350700D02*
X52958300Y-50441600D01*
X52885000Y-50263300D02*
X52926000Y-50350700D01*
X52835600Y-50180300D02*
X52885000Y-50263300D01*
X52778400Y-50102600D02*
X52835600Y-50180300D01*
X52714000Y-50030700D02*
X52778400Y-50102600D01*
X52642800Y-49965500D02*
X52714000Y-50030700D01*
X52565600Y-49907600D02*
X52642800Y-49965500D01*
X52488900Y-49859700D02*
X52565600Y-49907600D01*
X52423100Y-49816900D02*
X52488900Y-49859700D01*
X52402000Y-49801700D02*
X52423100Y-49816900D01*
X52330600Y-49743400D02*
X52402000Y-49801700D01*
X52265800Y-49679100D02*
X52330600Y-49743400D01*
X52248200Y-49659500D02*
X52265800Y-49679100D01*
X52198700Y-49598400D02*
X52248200Y-49659500D01*
X52183400Y-49577300D02*
X52198700Y-49598400D01*
X52133900Y-49500500D02*
X52183400Y-49577300D01*
X52091900Y-49418800D02*
X52133900Y-49500500D01*
X52081200Y-49394800D02*
X52091900Y-49418800D01*
X52048800Y-49309400D02*
X52081200Y-49394800D01*
X52024700Y-49220800D02*
X52048800Y-49309400D01*
X52019300Y-49195300D02*
X52024700Y-49220800D01*
X52005200Y-49104300D02*
X52019300Y-49195300D01*
X51999400Y-48993500D02*
X52005200Y-49104300D01*
X51998200Y-44984900D02*
X51999400Y-48993500D01*
X51993200Y-44885300D02*
X51998200Y-44984900D01*
X51978200Y-44786900D02*
X51993200Y-44885300D01*
X51953400Y-44690600D02*
X51978200Y-44786900D01*
X51919100Y-44597200D02*
X51953400Y-44690600D01*
X51875600Y-44507700D02*
X51919100Y-44597200D01*
X51823400Y-44423100D02*
X51875600Y-44507700D01*
X51762900Y-44344100D02*
X51823400Y-44423100D01*
X51694700Y-44271600D02*
X51762900Y-44344100D01*
X51619700Y-44206300D02*
X51694700Y-44271600D01*
X51538500Y-44148900D02*
X51619700Y-44206300D01*
X51451700Y-44099800D02*
X51538500Y-44148900D01*
X51300100Y-44023800D02*
X51451700Y-44099800D01*
X51277200Y-44010700D02*
X51300100Y-44023800D01*
X50619700Y-43588300D02*
X51277200Y-44010700D01*
X50009700Y-43098700D02*
X50619700Y-43588300D01*
X50002500Y-43091600D02*
X50009700Y-43098700D01*
X50000400Y-43087200D02*
X50002500Y-43091600D01*
X49999400Y-43077100D02*
X50000400Y-43087200D01*
X49999100Y-31921300D02*
X49999400Y-43077100D01*
M02*
