M48
INCH,TZ
T1C0.0118
T2C0.0236
T3C0.0394
T4C0.0689
T5C0.0866
%
G90
G05
T1
X20198Y-13705
X20575Y-15764
X20651Y-13291
X20819Y-16909
X20992Y-14776
X21658Y-16110
X22228Y-16505
X22266Y-16192
X22600Y-15777
X22752Y-17047
X23126Y-16815
X26647Y-15705
X26694Y-18004
X26800Y-14575
X27025Y-15705
X27308Y-14949
X27384Y-15707
X27619Y-14899
X27635Y-13787
X27889Y-15884
X28226Y-15502
X28239Y-15149
X28450Y-16130
X29241Y-14098
X29635Y-17516
X30938Y-14783
X30946Y-16303
X34883Y-14528
X35789Y-17205
X35946Y-15236
X36261Y-17205
X36340Y-13937
X36419Y-14961
X36419Y-15748
X41592Y-17193
X41604Y-17953
X41763Y-14820
X41930Y-14146
X41976Y-15052
X42072Y-16988
X43064Y-17161
X43080Y-14295
X43092Y-16138
X43123Y-14894
X43395Y-17878
X43525Y-14925
X43525Y-15504
X43844Y-15637
T2
X19685Y-13307
X19685Y-13898
X19685Y-14488
X19685Y-15079
X19685Y-15669
X19685Y-16260
T3
X40986Y-14055
X40986Y-15055
X40986Y-16055
X40986Y-17055
X33651Y-14551
X33651Y-15551
X33651Y-16551
X25777Y-14146
X25777Y-15146
X25777Y-16146
X25777Y-17146
T4
X21654Y-17717
X21654Y-11811
X21654Y-10630
X21654Y-18898
T5
X42521Y-18898
X36025Y-12205
X36025Y-18898
X42521Y-12205
X28151Y-12205
X28151Y-18898
T0
M30
