M48
INCH,TZ
T1C0.0197
T2C0.0591
%
G90
G05
T1
X27741Y-19784
X21654Y-19784
X36415Y-19784
X35627Y-11319
X22540Y-18311
X22540Y-11220
X28159Y-11319
X41753Y-18405
X20768Y-11220
X42915Y-11318
X28529Y-19784
X22441Y-19784
X27348Y-19784
X21260Y-9744
X20866Y-19784
X35233Y-19784
X36808Y-11319
X22540Y-11945
X27371Y-11319
X42521Y-19784
X21236Y-11224
X28552Y-11319
X42127Y-11318
X21260Y-19784
X36021Y-19784
X43289Y-12697
X43308Y-11319
X22540Y-17579
X36021Y-11319
X43308Y-19784
X22071Y-18311
X41734Y-19784
X28135Y-19784
X22047Y-19784
X36808Y-19784
X35233Y-11319
X20768Y-18311
X27765Y-11319
X43289Y-18405
X42127Y-19784
X22071Y-11220
X28946Y-11319
X42521Y-11318
X21654Y-9744
X28922Y-19784
X22441Y-9744
X35627Y-19784
X36415Y-11319
X20768Y-11945
X42915Y-19784
X21236Y-18315
X41753Y-12697
X20768Y-17579
X20866Y-9744
X22047Y-9744
X41734Y-11318
T2
X42522Y-7677
X21653Y-7677
X21653Y-21851
T0
M30
