G04 #@! TF.GenerationSoftware,KiCad,Pcbnew,(5.1.6-0-10_14)*
G04 #@! TF.CreationDate,2021-04-13T12:38:31+02:00*
G04 #@! TF.ProjectId,Encoder_SPI_Panel,456e636f-6465-4725-9f53-50495f50616e,rev?*
G04 #@! TF.SameCoordinates,Original*
G04 #@! TF.FileFunction,Paste,Top*
G04 #@! TF.FilePolarity,Positive*
%FSLAX46Y46*%
G04 Gerber Fmt 4.6, Leading zero omitted, Abs format (unit mm)*
G04 Created by KiCad (PCBNEW (5.1.6-0-10_14)) date 2021-04-13 12:38:31*
%MOMM*%
%LPD*%
G01*
G04 APERTURE LIST*
G04 APERTURE END LIST*
G36*
G01*
X106000950Y-41084950D02*
X106345950Y-41084950D01*
G75*
G02*
X106493450Y-41232450I0J-147500D01*
G01*
X106493450Y-41527450D01*
G75*
G02*
X106345950Y-41674950I-147500J0D01*
G01*
X106000950Y-41674950D01*
G75*
G02*
X105853450Y-41527450I0J147500D01*
G01*
X105853450Y-41232450D01*
G75*
G02*
X106000950Y-41084950I147500J0D01*
G01*
G37*
G36*
G01*
X106000950Y-42054950D02*
X106345950Y-42054950D01*
G75*
G02*
X106493450Y-42202450I0J-147500D01*
G01*
X106493450Y-42497450D01*
G75*
G02*
X106345950Y-42644950I-147500J0D01*
G01*
X106000950Y-42644950D01*
G75*
G02*
X105853450Y-42497450I0J147500D01*
G01*
X105853450Y-42202450D01*
G75*
G02*
X106000950Y-42054950I147500J0D01*
G01*
G37*
G36*
G01*
X106345950Y-40409950D02*
X106000950Y-40409950D01*
G75*
G02*
X105853450Y-40262450I0J147500D01*
G01*
X105853450Y-39967450D01*
G75*
G02*
X106000950Y-39819950I147500J0D01*
G01*
X106345950Y-39819950D01*
G75*
G02*
X106493450Y-39967450I0J-147500D01*
G01*
X106493450Y-40262450D01*
G75*
G02*
X106345950Y-40409950I-147500J0D01*
G01*
G37*
G36*
G01*
X106345950Y-39439950D02*
X106000950Y-39439950D01*
G75*
G02*
X105853450Y-39292450I0J147500D01*
G01*
X105853450Y-38997450D01*
G75*
G02*
X106000950Y-38849950I147500J0D01*
G01*
X106345950Y-38849950D01*
G75*
G02*
X106493450Y-38997450I0J-147500D01*
G01*
X106493450Y-39292450D01*
G75*
G02*
X106345950Y-39439950I-147500J0D01*
G01*
G37*
G36*
G01*
X108628450Y-43299950D02*
X107378450Y-43299950D01*
G75*
G02*
X107228450Y-43149950I0J150000D01*
G01*
X107228450Y-42849950D01*
G75*
G02*
X107378450Y-42699950I150000J0D01*
G01*
X108628450Y-42699950D01*
G75*
G02*
X108778450Y-42849950I0J-150000D01*
G01*
X108778450Y-43149950D01*
G75*
G02*
X108628450Y-43299950I-150000J0D01*
G01*
G37*
G36*
G01*
X108628450Y-42299950D02*
X107378450Y-42299950D01*
G75*
G02*
X107228450Y-42149950I0J150000D01*
G01*
X107228450Y-41849950D01*
G75*
G02*
X107378450Y-41699950I150000J0D01*
G01*
X108628450Y-41699950D01*
G75*
G02*
X108778450Y-41849950I0J-150000D01*
G01*
X108778450Y-42149950D01*
G75*
G02*
X108628450Y-42299950I-150000J0D01*
G01*
G37*
G36*
G01*
X108628450Y-41299950D02*
X107378450Y-41299950D01*
G75*
G02*
X107228450Y-41149950I0J150000D01*
G01*
X107228450Y-40849950D01*
G75*
G02*
X107378450Y-40699950I150000J0D01*
G01*
X108628450Y-40699950D01*
G75*
G02*
X108778450Y-40849950I0J-150000D01*
G01*
X108778450Y-41149950D01*
G75*
G02*
X108628450Y-41299950I-150000J0D01*
G01*
G37*
G36*
G01*
X108628450Y-40299950D02*
X107378450Y-40299950D01*
G75*
G02*
X107228450Y-40149950I0J150000D01*
G01*
X107228450Y-39849950D01*
G75*
G02*
X107378450Y-39699950I150000J0D01*
G01*
X108628450Y-39699950D01*
G75*
G02*
X108778450Y-39849950I0J-150000D01*
G01*
X108778450Y-40149950D01*
G75*
G02*
X108628450Y-40299950I-150000J0D01*
G01*
G37*
G36*
G01*
X108628450Y-39299950D02*
X107378450Y-39299950D01*
G75*
G02*
X107228450Y-39149950I0J150000D01*
G01*
X107228450Y-38849950D01*
G75*
G02*
X107378450Y-38699950I150000J0D01*
G01*
X108628450Y-38699950D01*
G75*
G02*
X108778450Y-38849950I0J-150000D01*
G01*
X108778450Y-39149950D01*
G75*
G02*
X108628450Y-39299950I-150000J0D01*
G01*
G37*
G36*
G01*
X108628450Y-38299950D02*
X107378450Y-38299950D01*
G75*
G02*
X107228450Y-38149950I0J150000D01*
G01*
X107228450Y-37849950D01*
G75*
G02*
X107378450Y-37699950I150000J0D01*
G01*
X108628450Y-37699950D01*
G75*
G02*
X108778450Y-37849950I0J-150000D01*
G01*
X108778450Y-38149950D01*
G75*
G02*
X108628450Y-38299950I-150000J0D01*
G01*
G37*
G36*
G01*
X108628450Y-37299950D02*
X107378450Y-37299950D01*
G75*
G02*
X107228450Y-37149950I0J150000D01*
G01*
X107228450Y-36849950D01*
G75*
G02*
X107378450Y-36699950I150000J0D01*
G01*
X108628450Y-36699950D01*
G75*
G02*
X108778450Y-36849950I0J-150000D01*
G01*
X108778450Y-37149950D01*
G75*
G02*
X108628450Y-37299950I-150000J0D01*
G01*
G37*
G36*
G01*
X108628450Y-36299950D02*
X107378450Y-36299950D01*
G75*
G02*
X107228450Y-36149950I0J150000D01*
G01*
X107228450Y-35849950D01*
G75*
G02*
X107378450Y-35699950I150000J0D01*
G01*
X108628450Y-35699950D01*
G75*
G02*
X108778450Y-35849950I0J-150000D01*
G01*
X108778450Y-36149950D01*
G75*
G02*
X108628450Y-36299950I-150000J0D01*
G01*
G37*
G36*
G01*
X112528451Y-44899950D02*
X111228449Y-44899950D01*
G75*
G02*
X110978450Y-44649951I0J249999D01*
G01*
X110978450Y-43949949D01*
G75*
G02*
X111228449Y-43699950I249999J0D01*
G01*
X112528451Y-43699950D01*
G75*
G02*
X112778450Y-43949949I0J-249999D01*
G01*
X112778450Y-44649951D01*
G75*
G02*
X112528451Y-44899950I-249999J0D01*
G01*
G37*
G36*
G01*
X112528451Y-35299950D02*
X111228449Y-35299950D01*
G75*
G02*
X110978450Y-35049951I0J249999D01*
G01*
X110978450Y-34349949D01*
G75*
G02*
X111228449Y-34099950I249999J0D01*
G01*
X112528451Y-34099950D01*
G75*
G02*
X112778450Y-34349949I0J-249999D01*
G01*
X112778450Y-35049951D01*
G75*
G02*
X112528451Y-35299950I-249999J0D01*
G01*
G37*
G36*
G01*
X98298052Y-36299999D02*
X96998050Y-36299999D01*
G75*
G02*
X96748051Y-36050000I0J249999D01*
G01*
X96748051Y-35349998D01*
G75*
G02*
X96998050Y-35099999I249999J0D01*
G01*
X98298052Y-35099999D01*
G75*
G02*
X98548051Y-35349998I0J-249999D01*
G01*
X98548051Y-36050000D01*
G75*
G02*
X98298052Y-36299999I-249999J0D01*
G01*
G37*
G36*
G01*
X98298052Y-43899999D02*
X96998050Y-43899999D01*
G75*
G02*
X96748051Y-43650000I0J249999D01*
G01*
X96748051Y-42949998D01*
G75*
G02*
X96998050Y-42699999I249999J0D01*
G01*
X98298052Y-42699999D01*
G75*
G02*
X98548051Y-42949998I0J-249999D01*
G01*
X98548051Y-43650000D01*
G75*
G02*
X98298052Y-43899999I-249999J0D01*
G01*
G37*
G36*
G01*
X94398051Y-37299999D02*
X93148051Y-37299999D01*
G75*
G02*
X92998051Y-37149999I0J150000D01*
G01*
X92998051Y-36849999D01*
G75*
G02*
X93148051Y-36699999I150000J0D01*
G01*
X94398051Y-36699999D01*
G75*
G02*
X94548051Y-36849999I0J-150000D01*
G01*
X94548051Y-37149999D01*
G75*
G02*
X94398051Y-37299999I-150000J0D01*
G01*
G37*
G36*
G01*
X94398051Y-38299999D02*
X93148051Y-38299999D01*
G75*
G02*
X92998051Y-38149999I0J150000D01*
G01*
X92998051Y-37849999D01*
G75*
G02*
X93148051Y-37699999I150000J0D01*
G01*
X94398051Y-37699999D01*
G75*
G02*
X94548051Y-37849999I0J-150000D01*
G01*
X94548051Y-38149999D01*
G75*
G02*
X94398051Y-38299999I-150000J0D01*
G01*
G37*
G36*
G01*
X94398051Y-39299999D02*
X93148051Y-39299999D01*
G75*
G02*
X92998051Y-39149999I0J150000D01*
G01*
X92998051Y-38849999D01*
G75*
G02*
X93148051Y-38699999I150000J0D01*
G01*
X94398051Y-38699999D01*
G75*
G02*
X94548051Y-38849999I0J-150000D01*
G01*
X94548051Y-39149999D01*
G75*
G02*
X94398051Y-39299999I-150000J0D01*
G01*
G37*
G36*
G01*
X94398051Y-40299999D02*
X93148051Y-40299999D01*
G75*
G02*
X92998051Y-40149999I0J150000D01*
G01*
X92998051Y-39849999D01*
G75*
G02*
X93148051Y-39699999I150000J0D01*
G01*
X94398051Y-39699999D01*
G75*
G02*
X94548051Y-39849999I0J-150000D01*
G01*
X94548051Y-40149999D01*
G75*
G02*
X94398051Y-40299999I-150000J0D01*
G01*
G37*
G36*
G01*
X94398051Y-41299999D02*
X93148051Y-41299999D01*
G75*
G02*
X92998051Y-41149999I0J150000D01*
G01*
X92998051Y-40849999D01*
G75*
G02*
X93148051Y-40699999I150000J0D01*
G01*
X94398051Y-40699999D01*
G75*
G02*
X94548051Y-40849999I0J-150000D01*
G01*
X94548051Y-41149999D01*
G75*
G02*
X94398051Y-41299999I-150000J0D01*
G01*
G37*
G36*
G01*
X94398051Y-42299999D02*
X93148051Y-42299999D01*
G75*
G02*
X92998051Y-42149999I0J150000D01*
G01*
X92998051Y-41849999D01*
G75*
G02*
X93148051Y-41699999I150000J0D01*
G01*
X94398051Y-41699999D01*
G75*
G02*
X94548051Y-41849999I0J-150000D01*
G01*
X94548051Y-42149999D01*
G75*
G02*
X94398051Y-42299999I-150000J0D01*
G01*
G37*
G36*
G01*
X91693051Y-42972499D02*
X91693051Y-42627499D01*
G75*
G02*
X91840551Y-42479999I147500J0D01*
G01*
X92135551Y-42479999D01*
G75*
G02*
X92283051Y-42627499I0J-147500D01*
G01*
X92283051Y-42972499D01*
G75*
G02*
X92135551Y-43119999I-147500J0D01*
G01*
X91840551Y-43119999D01*
G75*
G02*
X91693051Y-42972499I0J147500D01*
G01*
G37*
G36*
G01*
X90723051Y-42972499D02*
X90723051Y-42627499D01*
G75*
G02*
X90870551Y-42479999I147500J0D01*
G01*
X91165551Y-42479999D01*
G75*
G02*
X91313051Y-42627499I0J-147500D01*
G01*
X91313051Y-42972499D01*
G75*
G02*
X91165551Y-43119999I-147500J0D01*
G01*
X90870551Y-43119999D01*
G75*
G02*
X90723051Y-42972499I0J147500D01*
G01*
G37*
G36*
G01*
X89693051Y-44072499D02*
X89693051Y-43727499D01*
G75*
G02*
X89840551Y-43579999I147500J0D01*
G01*
X90135551Y-43579999D01*
G75*
G02*
X90283051Y-43727499I0J-147500D01*
G01*
X90283051Y-44072499D01*
G75*
G02*
X90135551Y-44219999I-147500J0D01*
G01*
X89840551Y-44219999D01*
G75*
G02*
X89693051Y-44072499I0J147500D01*
G01*
G37*
G36*
G01*
X88723051Y-44072499D02*
X88723051Y-43727499D01*
G75*
G02*
X88870551Y-43579999I147500J0D01*
G01*
X89165551Y-43579999D01*
G75*
G02*
X89313051Y-43727499I0J-147500D01*
G01*
X89313051Y-44072499D01*
G75*
G02*
X89165551Y-44219999I-147500J0D01*
G01*
X88870551Y-44219999D01*
G75*
G02*
X88723051Y-44072499I0J147500D01*
G01*
G37*
G36*
G01*
X89693051Y-42972499D02*
X89693051Y-42627499D01*
G75*
G02*
X89840551Y-42479999I147500J0D01*
G01*
X90135551Y-42479999D01*
G75*
G02*
X90283051Y-42627499I0J-147500D01*
G01*
X90283051Y-42972499D01*
G75*
G02*
X90135551Y-43119999I-147500J0D01*
G01*
X89840551Y-43119999D01*
G75*
G02*
X89693051Y-42972499I0J147500D01*
G01*
G37*
G36*
G01*
X88723051Y-42972499D02*
X88723051Y-42627499D01*
G75*
G02*
X88870551Y-42479999I147500J0D01*
G01*
X89165551Y-42479999D01*
G75*
G02*
X89313051Y-42627499I0J-147500D01*
G01*
X89313051Y-42972499D01*
G75*
G02*
X89165551Y-43119999I-147500J0D01*
G01*
X88870551Y-43119999D01*
G75*
G02*
X88723051Y-42972499I0J147500D01*
G01*
G37*
G36*
G01*
X69535539Y-37309999D02*
X69190539Y-37309999D01*
G75*
G02*
X69043039Y-37162499I0J147500D01*
G01*
X69043039Y-36867499D01*
G75*
G02*
X69190539Y-36719999I147500J0D01*
G01*
X69535539Y-36719999D01*
G75*
G02*
X69683039Y-36867499I0J-147500D01*
G01*
X69683039Y-37162499D01*
G75*
G02*
X69535539Y-37309999I-147500J0D01*
G01*
G37*
G36*
G01*
X69535539Y-36339999D02*
X69190539Y-36339999D01*
G75*
G02*
X69043039Y-36192499I0J147500D01*
G01*
X69043039Y-35897499D01*
G75*
G02*
X69190539Y-35749999I147500J0D01*
G01*
X69535539Y-35749999D01*
G75*
G02*
X69683039Y-35897499I0J-147500D01*
G01*
X69683039Y-36192499D01*
G75*
G02*
X69535539Y-36339999I-147500J0D01*
G01*
G37*
G36*
G01*
X70220539Y-35739999D02*
X70565539Y-35739999D01*
G75*
G02*
X70713039Y-35887499I0J-147500D01*
G01*
X70713039Y-36182499D01*
G75*
G02*
X70565539Y-36329999I-147500J0D01*
G01*
X70220539Y-36329999D01*
G75*
G02*
X70073039Y-36182499I0J147500D01*
G01*
X70073039Y-35887499D01*
G75*
G02*
X70220539Y-35739999I147500J0D01*
G01*
G37*
G36*
G01*
X70220539Y-36709999D02*
X70565539Y-36709999D01*
G75*
G02*
X70713039Y-36857499I0J-147500D01*
G01*
X70713039Y-37152499D01*
G75*
G02*
X70565539Y-37299999I-147500J0D01*
G01*
X70220539Y-37299999D01*
G75*
G02*
X70073039Y-37152499I0J147500D01*
G01*
X70073039Y-36857499D01*
G75*
G02*
X70220539Y-36709999I147500J0D01*
G01*
G37*
G36*
G01*
X68160539Y-34729999D02*
X68505539Y-34729999D01*
G75*
G02*
X68653039Y-34877499I0J-147500D01*
G01*
X68653039Y-35172499D01*
G75*
G02*
X68505539Y-35319999I-147500J0D01*
G01*
X68160539Y-35319999D01*
G75*
G02*
X68013039Y-35172499I0J147500D01*
G01*
X68013039Y-34877499D01*
G75*
G02*
X68160539Y-34729999I147500J0D01*
G01*
G37*
G36*
G01*
X68160539Y-35699999D02*
X68505539Y-35699999D01*
G75*
G02*
X68653039Y-35847499I0J-147500D01*
G01*
X68653039Y-36142499D01*
G75*
G02*
X68505539Y-36289999I-147500J0D01*
G01*
X68160539Y-36289999D01*
G75*
G02*
X68013039Y-36142499I0J147500D01*
G01*
X68013039Y-35847499D01*
G75*
G02*
X68160539Y-35699999I147500J0D01*
G01*
G37*
G36*
G01*
X74398039Y-42299999D02*
X73148039Y-42299999D01*
G75*
G02*
X72998039Y-42149999I0J150000D01*
G01*
X72998039Y-41849999D01*
G75*
G02*
X73148039Y-41699999I150000J0D01*
G01*
X74398039Y-41699999D01*
G75*
G02*
X74548039Y-41849999I0J-150000D01*
G01*
X74548039Y-42149999D01*
G75*
G02*
X74398039Y-42299999I-150000J0D01*
G01*
G37*
G36*
G01*
X74398039Y-41299999D02*
X73148039Y-41299999D01*
G75*
G02*
X72998039Y-41149999I0J150000D01*
G01*
X72998039Y-40849999D01*
G75*
G02*
X73148039Y-40699999I150000J0D01*
G01*
X74398039Y-40699999D01*
G75*
G02*
X74548039Y-40849999I0J-150000D01*
G01*
X74548039Y-41149999D01*
G75*
G02*
X74398039Y-41299999I-150000J0D01*
G01*
G37*
G36*
G01*
X74398039Y-40299999D02*
X73148039Y-40299999D01*
G75*
G02*
X72998039Y-40149999I0J150000D01*
G01*
X72998039Y-39849999D01*
G75*
G02*
X73148039Y-39699999I150000J0D01*
G01*
X74398039Y-39699999D01*
G75*
G02*
X74548039Y-39849999I0J-150000D01*
G01*
X74548039Y-40149999D01*
G75*
G02*
X74398039Y-40299999I-150000J0D01*
G01*
G37*
G36*
G01*
X74398039Y-39299999D02*
X73148039Y-39299999D01*
G75*
G02*
X72998039Y-39149999I0J150000D01*
G01*
X72998039Y-38849999D01*
G75*
G02*
X73148039Y-38699999I150000J0D01*
G01*
X74398039Y-38699999D01*
G75*
G02*
X74548039Y-38849999I0J-150000D01*
G01*
X74548039Y-39149999D01*
G75*
G02*
X74398039Y-39299999I-150000J0D01*
G01*
G37*
G36*
G01*
X74398039Y-38299999D02*
X73148039Y-38299999D01*
G75*
G02*
X72998039Y-38149999I0J150000D01*
G01*
X72998039Y-37849999D01*
G75*
G02*
X73148039Y-37699999I150000J0D01*
G01*
X74398039Y-37699999D01*
G75*
G02*
X74548039Y-37849999I0J-150000D01*
G01*
X74548039Y-38149999D01*
G75*
G02*
X74398039Y-38299999I-150000J0D01*
G01*
G37*
G36*
G01*
X74398039Y-37299999D02*
X73148039Y-37299999D01*
G75*
G02*
X72998039Y-37149999I0J150000D01*
G01*
X72998039Y-36849999D01*
G75*
G02*
X73148039Y-36699999I150000J0D01*
G01*
X74398039Y-36699999D01*
G75*
G02*
X74548039Y-36849999I0J-150000D01*
G01*
X74548039Y-37149999D01*
G75*
G02*
X74398039Y-37299999I-150000J0D01*
G01*
G37*
G36*
G01*
X78298040Y-43899999D02*
X76998038Y-43899999D01*
G75*
G02*
X76748039Y-43650000I0J249999D01*
G01*
X76748039Y-42949998D01*
G75*
G02*
X76998038Y-42699999I249999J0D01*
G01*
X78298040Y-42699999D01*
G75*
G02*
X78548039Y-42949998I0J-249999D01*
G01*
X78548039Y-43650000D01*
G75*
G02*
X78298040Y-43899999I-249999J0D01*
G01*
G37*
G36*
G01*
X78298040Y-36299999D02*
X76998038Y-36299999D01*
G75*
G02*
X76748039Y-36050000I0J249999D01*
G01*
X76748039Y-35349998D01*
G75*
G02*
X76998038Y-35099999I249999J0D01*
G01*
X78298040Y-35099999D01*
G75*
G02*
X78548039Y-35349998I0J-249999D01*
G01*
X78548039Y-36050000D01*
G75*
G02*
X78298040Y-36299999I-249999J0D01*
G01*
G37*
G36*
G01*
X68018039Y-34182499D02*
X68018039Y-33837499D01*
G75*
G02*
X68165539Y-33689999I147500J0D01*
G01*
X68460539Y-33689999D01*
G75*
G02*
X68608039Y-33837499I0J-147500D01*
G01*
X68608039Y-34182499D01*
G75*
G02*
X68460539Y-34329999I-147500J0D01*
G01*
X68165539Y-34329999D01*
G75*
G02*
X68018039Y-34182499I0J147500D01*
G01*
G37*
G36*
G01*
X68988039Y-34182499D02*
X68988039Y-33837499D01*
G75*
G02*
X69135539Y-33689999I147500J0D01*
G01*
X69430539Y-33689999D01*
G75*
G02*
X69578039Y-33837499I0J-147500D01*
G01*
X69578039Y-34182499D01*
G75*
G02*
X69430539Y-34329999I-147500J0D01*
G01*
X69135539Y-34329999D01*
G75*
G02*
X68988039Y-34182499I0J147500D01*
G01*
G37*
G36*
G01*
X51927896Y-37904950D02*
X52272896Y-37904950D01*
G75*
G02*
X52420396Y-38052450I0J-147500D01*
G01*
X52420396Y-38347450D01*
G75*
G02*
X52272896Y-38494950I-147500J0D01*
G01*
X51927896Y-38494950D01*
G75*
G02*
X51780396Y-38347450I0J147500D01*
G01*
X51780396Y-38052450D01*
G75*
G02*
X51927896Y-37904950I147500J0D01*
G01*
G37*
G36*
G01*
X51927896Y-38874950D02*
X52272896Y-38874950D01*
G75*
G02*
X52420396Y-39022450I0J-147500D01*
G01*
X52420396Y-39317450D01*
G75*
G02*
X52272896Y-39464950I-147500J0D01*
G01*
X51927896Y-39464950D01*
G75*
G02*
X51780396Y-39317450I0J147500D01*
G01*
X51780396Y-39022450D01*
G75*
G02*
X51927896Y-38874950I147500J0D01*
G01*
G37*
G36*
G01*
X52292896Y-37089950D02*
X51947896Y-37089950D01*
G75*
G02*
X51800396Y-36942450I0J147500D01*
G01*
X51800396Y-36647450D01*
G75*
G02*
X51947896Y-36499950I147500J0D01*
G01*
X52292896Y-36499950D01*
G75*
G02*
X52440396Y-36647450I0J-147500D01*
G01*
X52440396Y-36942450D01*
G75*
G02*
X52292896Y-37089950I-147500J0D01*
G01*
G37*
G36*
G01*
X52292896Y-36119950D02*
X51947896Y-36119950D01*
G75*
G02*
X51800396Y-35972450I0J147500D01*
G01*
X51800396Y-35677450D01*
G75*
G02*
X51947896Y-35529950I147500J0D01*
G01*
X52292896Y-35529950D01*
G75*
G02*
X52440396Y-35677450I0J-147500D01*
G01*
X52440396Y-35972450D01*
G75*
G02*
X52292896Y-36119950I-147500J0D01*
G01*
G37*
G36*
G01*
X55635396Y-40289950D02*
X54385396Y-40289950D01*
G75*
G02*
X54235396Y-40139950I0J150000D01*
G01*
X54235396Y-39839950D01*
G75*
G02*
X54385396Y-39689950I150000J0D01*
G01*
X55635396Y-39689950D01*
G75*
G02*
X55785396Y-39839950I0J-150000D01*
G01*
X55785396Y-40139950D01*
G75*
G02*
X55635396Y-40289950I-150000J0D01*
G01*
G37*
G36*
G01*
X55635396Y-39289950D02*
X54385396Y-39289950D01*
G75*
G02*
X54235396Y-39139950I0J150000D01*
G01*
X54235396Y-38839950D01*
G75*
G02*
X54385396Y-38689950I150000J0D01*
G01*
X55635396Y-38689950D01*
G75*
G02*
X55785396Y-38839950I0J-150000D01*
G01*
X55785396Y-39139950D01*
G75*
G02*
X55635396Y-39289950I-150000J0D01*
G01*
G37*
G36*
G01*
X55635396Y-38289950D02*
X54385396Y-38289950D01*
G75*
G02*
X54235396Y-38139950I0J150000D01*
G01*
X54235396Y-37839950D01*
G75*
G02*
X54385396Y-37689950I150000J0D01*
G01*
X55635396Y-37689950D01*
G75*
G02*
X55785396Y-37839950I0J-150000D01*
G01*
X55785396Y-38139950D01*
G75*
G02*
X55635396Y-38289950I-150000J0D01*
G01*
G37*
G36*
G01*
X55635396Y-37289950D02*
X54385396Y-37289950D01*
G75*
G02*
X54235396Y-37139950I0J150000D01*
G01*
X54235396Y-36839950D01*
G75*
G02*
X54385396Y-36689950I150000J0D01*
G01*
X55635396Y-36689950D01*
G75*
G02*
X55785396Y-36839950I0J-150000D01*
G01*
X55785396Y-37139950D01*
G75*
G02*
X55635396Y-37289950I-150000J0D01*
G01*
G37*
G36*
G01*
X55635396Y-36289950D02*
X54385396Y-36289950D01*
G75*
G02*
X54235396Y-36139950I0J150000D01*
G01*
X54235396Y-35839950D01*
G75*
G02*
X54385396Y-35689950I150000J0D01*
G01*
X55635396Y-35689950D01*
G75*
G02*
X55785396Y-35839950I0J-150000D01*
G01*
X55785396Y-36139950D01*
G75*
G02*
X55635396Y-36289950I-150000J0D01*
G01*
G37*
G36*
G01*
X55635396Y-35289950D02*
X54385396Y-35289950D01*
G75*
G02*
X54235396Y-35139950I0J150000D01*
G01*
X54235396Y-34839950D01*
G75*
G02*
X54385396Y-34689950I150000J0D01*
G01*
X55635396Y-34689950D01*
G75*
G02*
X55785396Y-34839950I0J-150000D01*
G01*
X55785396Y-35139950D01*
G75*
G02*
X55635396Y-35289950I-150000J0D01*
G01*
G37*
G36*
G01*
X59535796Y-41889950D02*
X58234996Y-41889950D01*
G75*
G02*
X57985396Y-41640350I0J249600D01*
G01*
X57985396Y-40939550D01*
G75*
G02*
X58234996Y-40689950I249600J0D01*
G01*
X59535796Y-40689950D01*
G75*
G02*
X59785396Y-40939550I0J-249600D01*
G01*
X59785396Y-41640350D01*
G75*
G02*
X59535796Y-41889950I-249600J0D01*
G01*
G37*
G36*
G01*
X59535397Y-34289950D02*
X58235395Y-34289950D01*
G75*
G02*
X57985396Y-34039951I0J249999D01*
G01*
X57985396Y-33339949D01*
G75*
G02*
X58235395Y-33089950I249999J0D01*
G01*
X59535397Y-33089950D01*
G75*
G02*
X59785396Y-33339949I0J-249999D01*
G01*
X59785396Y-34039951D01*
G75*
G02*
X59535397Y-34289950I-249999J0D01*
G01*
G37*
M02*
