G04 #@! TF.GenerationSoftware,KiCad,Pcbnew,(5.1.6-0-10_14)*
G04 #@! TF.CreationDate,2021-04-17T00:03:13+02:00*
G04 #@! TF.ProjectId,Encoder_SPI_Panel_v1_1,456e636f-6465-4725-9f53-50495f50616e,rev?*
G04 #@! TF.SameCoordinates,Original*
G04 #@! TF.FileFunction,Legend,Bot*
G04 #@! TF.FilePolarity,Positive*
%FSLAX46Y46*%
G04 Gerber Fmt 4.6, Leading zero omitted, Abs format (unit mm)*
G04 Created by KiCad (PCBNEW (5.1.6-0-10_14)) date 2021-04-17 00:03:13*
%MOMM*%
%LPD*%
G01*
G04 APERTURE LIST*
%ADD10C,0.150000*%
%ADD11C,0.100000*%
%ADD12C,0.120000*%
%ADD13C,0.010000*%
G04 APERTURE END LIST*
D10*
X139894847Y-29871427D02*
X140561513Y-30109522D01*
X139894847Y-30347618D01*
X140561513Y-31252379D02*
X140561513Y-30680951D01*
X140561513Y-30966665D02*
X139561513Y-30966665D01*
X139704371Y-30871427D01*
X139799609Y-30776189D01*
X139847228Y-30680951D01*
X140466275Y-31680951D02*
X140513894Y-31728570D01*
X140561513Y-31680951D01*
X140513894Y-31633332D01*
X140466275Y-31680951D01*
X140561513Y-31680951D01*
X139561513Y-32347618D02*
X139561513Y-32442856D01*
X139609133Y-32538094D01*
X139656752Y-32585713D01*
X139751990Y-32633332D01*
X139942466Y-32680951D01*
X140180561Y-32680951D01*
X140371037Y-32633332D01*
X140466275Y-32585713D01*
X140513894Y-32538094D01*
X140561513Y-32442856D01*
X140561513Y-32347618D01*
X140513894Y-32252379D01*
X140466275Y-32204760D01*
X140371037Y-32157141D01*
X140180561Y-32109522D01*
X139942466Y-32109522D01*
X139751990Y-32157141D01*
X139656752Y-32204760D01*
X139609133Y-32252379D01*
X139561513Y-32347618D01*
X135261513Y-30233332D02*
X135261513Y-29661903D01*
X135261513Y-29947618D02*
X134261513Y-29947618D01*
X134404371Y-29852379D01*
X134499609Y-29757141D01*
X134547228Y-29661903D01*
X134594847Y-31090475D02*
X135261513Y-31090475D01*
X134213894Y-30852379D02*
X134928180Y-30614284D01*
X134928180Y-31233332D01*
X135261513Y-31614284D02*
X134261513Y-31614284D01*
X134642466Y-31614284D02*
X134594847Y-31709522D01*
X134594847Y-31899999D01*
X134642466Y-31995237D01*
X134690085Y-32042856D01*
X134785323Y-32090475D01*
X135071037Y-32090475D01*
X135166275Y-32042856D01*
X135213894Y-31995237D01*
X135261513Y-31899999D01*
X135261513Y-31709522D01*
X135213894Y-31614284D01*
X135261513Y-32519046D02*
X134594847Y-32519046D01*
X134261513Y-32519046D02*
X134309133Y-32471427D01*
X134356752Y-32519046D01*
X134309133Y-32566665D01*
X134261513Y-32519046D01*
X134356752Y-32519046D01*
X134594847Y-32852379D02*
X134594847Y-33233332D01*
X134261513Y-32995237D02*
X135118656Y-32995237D01*
X135213894Y-33042856D01*
X135261513Y-33138094D01*
X135261513Y-33233332D01*
X143238894Y-34051189D02*
X143286513Y-34194046D01*
X143286513Y-34432141D01*
X143238894Y-34527379D01*
X143191275Y-34574999D01*
X143096037Y-34622618D01*
X143000799Y-34622618D01*
X142905561Y-34574999D01*
X142857942Y-34527379D01*
X142810323Y-34432141D01*
X142762704Y-34241665D01*
X142715085Y-34146427D01*
X142667466Y-34098808D01*
X142572228Y-34051189D01*
X142476990Y-34051189D01*
X142381752Y-34098808D01*
X142334133Y-34146427D01*
X142286513Y-34241665D01*
X142286513Y-34479760D01*
X142334133Y-34622618D01*
X143286513Y-35051189D02*
X142286513Y-35051189D01*
X142286513Y-35432141D01*
X142334133Y-35527379D01*
X142381752Y-35574999D01*
X142476990Y-35622618D01*
X142619847Y-35622618D01*
X142715085Y-35574999D01*
X142762704Y-35527379D01*
X142810323Y-35432141D01*
X142810323Y-35051189D01*
X143286513Y-36051189D02*
X142286513Y-36051189D01*
X132861513Y-33495237D02*
X131861513Y-33495237D01*
X131861513Y-33876189D01*
X131909133Y-33971427D01*
X131956752Y-34019046D01*
X132051990Y-34066665D01*
X132194847Y-34066665D01*
X132290085Y-34019046D01*
X132337704Y-33971427D01*
X132385323Y-33876189D01*
X132385323Y-33495237D01*
X131861513Y-34399999D02*
X132861513Y-34638094D01*
X132147228Y-34828570D01*
X132861513Y-35019046D01*
X131861513Y-35257141D01*
X132861513Y-35638094D02*
X131861513Y-35638094D01*
X132575799Y-35971427D01*
X131861513Y-36304760D01*
X132861513Y-36304760D01*
X140361513Y-44833332D02*
X139694847Y-44833332D01*
X139885323Y-44833332D02*
X139790085Y-44880951D01*
X139742466Y-44928570D01*
X139694847Y-45023808D01*
X139694847Y-45119046D01*
X139694847Y-45880951D02*
X140361513Y-45880951D01*
X139694847Y-45452379D02*
X140218656Y-45452379D01*
X140313894Y-45499999D01*
X140361513Y-45595237D01*
X140361513Y-45738094D01*
X140313894Y-45833332D01*
X140266275Y-45880951D01*
X139694847Y-46357141D02*
X140361513Y-46357141D01*
X139790085Y-46357141D02*
X139742466Y-46404760D01*
X139694847Y-46499999D01*
X139694847Y-46642856D01*
X139742466Y-46738094D01*
X139837704Y-46785713D01*
X140361513Y-46785713D01*
X139694847Y-47690475D02*
X140504371Y-47690475D01*
X140599609Y-47642856D01*
X140647228Y-47595237D01*
X140694847Y-47499999D01*
X140694847Y-47357141D01*
X140647228Y-47261903D01*
X140313894Y-47690475D02*
X140361513Y-47595237D01*
X140361513Y-47404760D01*
X140313894Y-47309522D01*
X140266275Y-47261903D01*
X140171037Y-47214284D01*
X139885323Y-47214284D01*
X139790085Y-47261903D01*
X139742466Y-47309522D01*
X139694847Y-47404760D01*
X139694847Y-47595237D01*
X139742466Y-47690475D01*
X140313894Y-48547618D02*
X140361513Y-48452379D01*
X140361513Y-48261903D01*
X140313894Y-48166665D01*
X140218656Y-48119046D01*
X139837704Y-48119046D01*
X139742466Y-48166665D01*
X139694847Y-48261903D01*
X139694847Y-48452379D01*
X139742466Y-48547618D01*
X139837704Y-48595237D01*
X139932942Y-48595237D01*
X140028180Y-48119046D01*
X140361513Y-49023808D02*
X139694847Y-49023808D01*
X139885323Y-49023808D02*
X139790085Y-49071427D01*
X139742466Y-49119046D01*
X139694847Y-49214284D01*
X139694847Y-49309522D01*
X134499609Y-45185713D02*
X134451990Y-45090475D01*
X134451990Y-44899999D01*
X134499609Y-44804760D01*
X134594847Y-44709522D01*
X134690085Y-44661903D01*
X134880561Y-44661903D01*
X134975799Y-44709522D01*
X135071037Y-44804760D01*
X135118656Y-44899999D01*
X135118656Y-45090475D01*
X135071037Y-45185713D01*
X134118656Y-44995237D02*
X134166275Y-44757141D01*
X134309133Y-44519046D01*
X134547228Y-44376189D01*
X134785323Y-44328570D01*
X135023418Y-44376189D01*
X135261513Y-44519046D01*
X135404371Y-44757141D01*
X135451990Y-44995237D01*
X135404371Y-45233332D01*
X135261513Y-45471427D01*
X135023418Y-45614284D01*
X134785323Y-45661903D01*
X134547228Y-45614284D01*
X134309133Y-45471427D01*
X134166275Y-45233332D01*
X134118656Y-44995237D01*
X134356752Y-46042856D02*
X134309133Y-46090475D01*
X134261513Y-46185713D01*
X134261513Y-46423808D01*
X134309133Y-46519046D01*
X134356752Y-46566665D01*
X134451990Y-46614284D01*
X134547228Y-46614284D01*
X134690085Y-46566665D01*
X135261513Y-45995237D01*
X135261513Y-46614284D01*
X134261513Y-47233332D02*
X134261513Y-47328570D01*
X134309133Y-47423808D01*
X134356752Y-47471427D01*
X134451990Y-47519046D01*
X134642466Y-47566665D01*
X134880561Y-47566665D01*
X135071037Y-47519046D01*
X135166275Y-47471427D01*
X135213894Y-47423808D01*
X135261513Y-47328570D01*
X135261513Y-47233332D01*
X135213894Y-47138094D01*
X135166275Y-47090475D01*
X135071037Y-47042856D01*
X134880561Y-46995237D01*
X134642466Y-46995237D01*
X134451990Y-47042856D01*
X134356752Y-47090475D01*
X134309133Y-47138094D01*
X134261513Y-47233332D01*
X134356752Y-47947618D02*
X134309133Y-47995237D01*
X134261513Y-48090475D01*
X134261513Y-48328570D01*
X134309133Y-48423808D01*
X134356752Y-48471427D01*
X134451990Y-48519046D01*
X134547228Y-48519046D01*
X134690085Y-48471427D01*
X135261513Y-47899999D01*
X135261513Y-48519046D01*
X135261513Y-49471427D02*
X135261513Y-48899999D01*
X135261513Y-49185713D02*
X134261513Y-49185713D01*
X134404371Y-49090475D01*
X134499609Y-48995237D01*
X134547228Y-48899999D01*
X132380561Y-39019046D02*
X132380561Y-39780951D01*
X132761513Y-39399999D02*
X131999609Y-39399999D01*
X132380561Y-36619046D02*
X132380561Y-37380951D01*
D11*
X142962466Y-36726189D02*
X142886275Y-36688094D01*
X142733894Y-36688094D01*
X142657704Y-36726189D01*
X142619609Y-36764284D01*
X142581513Y-36840475D01*
X142581513Y-37069046D01*
X142619609Y-37145237D01*
X142657704Y-37183332D01*
X142733894Y-37221427D01*
X142886275Y-37221427D01*
X142962466Y-37183332D01*
X143267228Y-36726189D02*
X143343418Y-36688094D01*
X143495799Y-36688094D01*
X143571990Y-36726189D01*
X143610085Y-36802379D01*
X143610085Y-36840475D01*
X143571990Y-36916665D01*
X143495799Y-36954760D01*
X143381513Y-36954760D01*
X143305323Y-36992856D01*
X143267228Y-37069046D01*
X143267228Y-37107141D01*
X143305323Y-37183332D01*
X143381513Y-37221427D01*
X143495799Y-37221427D01*
X143571990Y-37183332D01*
D10*
X139416275Y-43999999D02*
X139463894Y-43952379D01*
X139511513Y-43999999D01*
X139463894Y-44047618D01*
X139416275Y-43999999D01*
X139511513Y-43999999D01*
X141358799Y-36452379D02*
X141358799Y-36928570D01*
X141644513Y-36357141D02*
X140644513Y-36690475D01*
X141644513Y-37023808D01*
X141596894Y-37309522D02*
X141644513Y-37452379D01*
X141644513Y-37690475D01*
X141596894Y-37785713D01*
X141549275Y-37833332D01*
X141454037Y-37880951D01*
X141358799Y-37880951D01*
X141263561Y-37833332D01*
X141215942Y-37785713D01*
X141168323Y-37690475D01*
X141120704Y-37499999D01*
X141073085Y-37404760D01*
X141025466Y-37357141D01*
X140930228Y-37309522D01*
X140834990Y-37309522D01*
X140739752Y-37357141D01*
X140692133Y-37404760D01*
X140644513Y-37499999D01*
X140644513Y-37738094D01*
X140692133Y-37880951D01*
X140644513Y-38785713D02*
X140644513Y-38309522D01*
X141120704Y-38261903D01*
X141073085Y-38309522D01*
X141025466Y-38404760D01*
X141025466Y-38642856D01*
X141073085Y-38738094D01*
X141120704Y-38785713D01*
X141215942Y-38833332D01*
X141454037Y-38833332D01*
X141549275Y-38785713D01*
X141596894Y-38738094D01*
X141644513Y-38642856D01*
X141644513Y-38404760D01*
X141596894Y-38309522D01*
X141549275Y-38261903D01*
X140644513Y-39452379D02*
X140644513Y-39547618D01*
X140692133Y-39642856D01*
X140739752Y-39690475D01*
X140834990Y-39738094D01*
X141025466Y-39785713D01*
X141263561Y-39785713D01*
X141454037Y-39738094D01*
X141549275Y-39690475D01*
X141596894Y-39642856D01*
X141644513Y-39547618D01*
X141644513Y-39452379D01*
X141596894Y-39357141D01*
X141549275Y-39309522D01*
X141454037Y-39261903D01*
X141263561Y-39214284D01*
X141025466Y-39214284D01*
X140834990Y-39261903D01*
X140739752Y-39309522D01*
X140692133Y-39357141D01*
X140644513Y-39452379D01*
X140977847Y-40642856D02*
X141644513Y-40642856D01*
X140596894Y-40404760D02*
X141311180Y-40166665D01*
X141311180Y-40785713D01*
X141073085Y-41309522D02*
X141025466Y-41214284D01*
X140977847Y-41166665D01*
X140882609Y-41119046D01*
X140834990Y-41119046D01*
X140739752Y-41166665D01*
X140692133Y-41214284D01*
X140644513Y-41309522D01*
X140644513Y-41499999D01*
X140692133Y-41595237D01*
X140739752Y-41642856D01*
X140834990Y-41690475D01*
X140882609Y-41690475D01*
X140977847Y-41642856D01*
X141025466Y-41595237D01*
X141073085Y-41499999D01*
X141073085Y-41309522D01*
X141120704Y-41214284D01*
X141168323Y-41166665D01*
X141263561Y-41119046D01*
X141454037Y-41119046D01*
X141549275Y-41166665D01*
X141596894Y-41214284D01*
X141644513Y-41309522D01*
X141644513Y-41499999D01*
X141596894Y-41595237D01*
X141549275Y-41642856D01*
X141454037Y-41690475D01*
X141263561Y-41690475D01*
X141168323Y-41642856D01*
X141120704Y-41595237D01*
X141073085Y-41499999D01*
X141358799Y-42071427D02*
X141358799Y-42547618D01*
X141644513Y-41976189D02*
X140644513Y-42309522D01*
X141644513Y-42642856D01*
D11*
X142962466Y-37726189D02*
X142886275Y-37688094D01*
X142733894Y-37688094D01*
X142657704Y-37726189D01*
X142619609Y-37764284D01*
X142581513Y-37840475D01*
X142581513Y-38069046D01*
X142619609Y-38145237D01*
X142657704Y-38183332D01*
X142733894Y-38221427D01*
X142886275Y-38221427D01*
X142962466Y-38183332D01*
X143419609Y-37688094D02*
X143343418Y-37726189D01*
X143305323Y-37802379D01*
X143305323Y-38488094D01*
X143724371Y-37688094D02*
X143724371Y-38488094D01*
X143800561Y-37992856D02*
X144029133Y-37688094D01*
X144029133Y-38221427D02*
X143724371Y-37916665D01*
X142619609Y-38688094D02*
X142619609Y-39221427D01*
X142619609Y-39145237D02*
X142657704Y-39183332D01*
X142733894Y-39221427D01*
X142848180Y-39221427D01*
X142924371Y-39183332D01*
X142962466Y-39107141D01*
X142962466Y-38688094D01*
X142962466Y-39107141D02*
X143000561Y-39183332D01*
X143076752Y-39221427D01*
X143191037Y-39221427D01*
X143267228Y-39183332D01*
X143305323Y-39107141D01*
X143305323Y-38688094D01*
X143686275Y-38688094D02*
X143686275Y-39221427D01*
X143686275Y-39488094D02*
X143648180Y-39449999D01*
X143686275Y-39411903D01*
X143724371Y-39449999D01*
X143686275Y-39488094D01*
X143686275Y-39411903D01*
X144029133Y-38726189D02*
X144105323Y-38688094D01*
X144257704Y-38688094D01*
X144333894Y-38726189D01*
X144371990Y-38802379D01*
X144371990Y-38840475D01*
X144333894Y-38916665D01*
X144257704Y-38954760D01*
X144143418Y-38954760D01*
X144067228Y-38992856D01*
X144029133Y-39069046D01*
X144029133Y-39107141D01*
X144067228Y-39183332D01*
X144143418Y-39221427D01*
X144257704Y-39221427D01*
X144333894Y-39183332D01*
X144829133Y-38688094D02*
X144752942Y-38726189D01*
X144714847Y-38764284D01*
X144676752Y-38840475D01*
X144676752Y-39069046D01*
X144714847Y-39145237D01*
X144752942Y-39183332D01*
X144829133Y-39221427D01*
X144943418Y-39221427D01*
X145019609Y-39183332D01*
X145057704Y-39145237D01*
X145095799Y-39069046D01*
X145095799Y-38840475D01*
X145057704Y-38764284D01*
X145019609Y-38726189D01*
X144943418Y-38688094D01*
X144829133Y-38688094D01*
X142619609Y-39688094D02*
X142619609Y-40221427D01*
X142619609Y-40145237D02*
X142657704Y-40183332D01*
X142733894Y-40221427D01*
X142848180Y-40221427D01*
X142924371Y-40183332D01*
X142962466Y-40107141D01*
X142962466Y-39688094D01*
X142962466Y-40107141D02*
X143000561Y-40183332D01*
X143076752Y-40221427D01*
X143191037Y-40221427D01*
X143267228Y-40183332D01*
X143305323Y-40107141D01*
X143305323Y-39688094D01*
X143800561Y-39688094D02*
X143724371Y-39726189D01*
X143686275Y-39764284D01*
X143648180Y-39840475D01*
X143648180Y-40069046D01*
X143686275Y-40145237D01*
X143724371Y-40183332D01*
X143800561Y-40221427D01*
X143914847Y-40221427D01*
X143991037Y-40183332D01*
X144029133Y-40145237D01*
X144067228Y-40069046D01*
X144067228Y-39840475D01*
X144029133Y-39764284D01*
X143991037Y-39726189D01*
X143914847Y-39688094D01*
X143800561Y-39688094D01*
X144371990Y-39726189D02*
X144448180Y-39688094D01*
X144600561Y-39688094D01*
X144676752Y-39726189D01*
X144714847Y-39802379D01*
X144714847Y-39840475D01*
X144676752Y-39916665D01*
X144600561Y-39954760D01*
X144486275Y-39954760D01*
X144410085Y-39992856D01*
X144371990Y-40069046D01*
X144371990Y-40107141D01*
X144410085Y-40183332D01*
X144486275Y-40221427D01*
X144600561Y-40221427D01*
X144676752Y-40183332D01*
X145057704Y-39688094D02*
X145057704Y-40221427D01*
X145057704Y-40488094D02*
X145019609Y-40449999D01*
X145057704Y-40411903D01*
X145095799Y-40449999D01*
X145057704Y-40488094D01*
X145057704Y-40411903D01*
X142543418Y-41221427D02*
X142733894Y-40688094D01*
X142924371Y-41221427D01*
X143571990Y-40726189D02*
X143495799Y-40688094D01*
X143343418Y-40688094D01*
X143267228Y-40726189D01*
X143229133Y-40764284D01*
X143191037Y-40840475D01*
X143191037Y-41069046D01*
X143229133Y-41145237D01*
X143267228Y-41183332D01*
X143343418Y-41221427D01*
X143495799Y-41221427D01*
X143571990Y-41183332D01*
X144257704Y-40726189D02*
X144181513Y-40688094D01*
X144029133Y-40688094D01*
X143952942Y-40726189D01*
X143914847Y-40764284D01*
X143876752Y-40840475D01*
X143876752Y-41069046D01*
X143914847Y-41145237D01*
X143952942Y-41183332D01*
X144029133Y-41221427D01*
X144181513Y-41221427D01*
X144257704Y-41183332D01*
X142962466Y-42321427D02*
X142962466Y-41673808D01*
X142924371Y-41597618D01*
X142886275Y-41559522D01*
X142810085Y-41521427D01*
X142695799Y-41521427D01*
X142619609Y-41559522D01*
X142962466Y-41826189D02*
X142886275Y-41788094D01*
X142733894Y-41788094D01*
X142657704Y-41826189D01*
X142619609Y-41864284D01*
X142581513Y-41940475D01*
X142581513Y-42169046D01*
X142619609Y-42245237D01*
X142657704Y-42283332D01*
X142733894Y-42321427D01*
X142886275Y-42321427D01*
X142962466Y-42283332D01*
X143343418Y-42321427D02*
X143343418Y-41788094D01*
X143343418Y-42245237D02*
X143381513Y-42283332D01*
X143457704Y-42321427D01*
X143571990Y-42321427D01*
X143648180Y-42283332D01*
X143686275Y-42207141D01*
X143686275Y-41788094D01*
X144410085Y-41788094D02*
X144410085Y-42588094D01*
X144410085Y-41826189D02*
X144333894Y-41788094D01*
X144181513Y-41788094D01*
X144105323Y-41826189D01*
X144067228Y-41864284D01*
X144029133Y-41940475D01*
X144029133Y-42169046D01*
X144067228Y-42245237D01*
X144105323Y-42283332D01*
X144181513Y-42321427D01*
X144333894Y-42321427D01*
X144410085Y-42283332D01*
D12*
X132784133Y-42949999D02*
X132784133Y-42274999D01*
X132784133Y-42274999D02*
X132159133Y-42274999D01*
X132159133Y-42274999D02*
X132159133Y-41574999D01*
X132159133Y-41574999D02*
X132784133Y-41574999D01*
X132784133Y-41574999D02*
X132784133Y-40874999D01*
D10*
X119894844Y-29871427D02*
X120561510Y-30109522D01*
X119894844Y-30347618D01*
X120561510Y-31252379D02*
X120561510Y-30680951D01*
X120561510Y-30966665D02*
X119561510Y-30966665D01*
X119704368Y-30871427D01*
X119799606Y-30776189D01*
X119847225Y-30680951D01*
X120466272Y-31680951D02*
X120513891Y-31728570D01*
X120561510Y-31680951D01*
X120513891Y-31633332D01*
X120466272Y-31680951D01*
X120561510Y-31680951D01*
X119656749Y-32109522D02*
X119609130Y-32157141D01*
X119561510Y-32252379D01*
X119561510Y-32490475D01*
X119609130Y-32585713D01*
X119656749Y-32633332D01*
X119751987Y-32680951D01*
X119847225Y-32680951D01*
X119990082Y-32633332D01*
X120561510Y-32061903D01*
X120561510Y-32680951D01*
X115261510Y-30233332D02*
X115261510Y-29661903D01*
X115261510Y-29947618D02*
X114261510Y-29947618D01*
X114404368Y-29852379D01*
X114499606Y-29757141D01*
X114547225Y-29661903D01*
X114594844Y-31090475D02*
X115261510Y-31090475D01*
X114213891Y-30852379D02*
X114928177Y-30614284D01*
X114928177Y-31233332D01*
X115261510Y-31614284D02*
X114261510Y-31614284D01*
X114642463Y-31614284D02*
X114594844Y-31709522D01*
X114594844Y-31899999D01*
X114642463Y-31995237D01*
X114690082Y-32042856D01*
X114785320Y-32090475D01*
X115071034Y-32090475D01*
X115166272Y-32042856D01*
X115213891Y-31995237D01*
X115261510Y-31899999D01*
X115261510Y-31709522D01*
X115213891Y-31614284D01*
X115261510Y-32519046D02*
X114594844Y-32519046D01*
X114261510Y-32519046D02*
X114309130Y-32471427D01*
X114356749Y-32519046D01*
X114309130Y-32566665D01*
X114261510Y-32519046D01*
X114356749Y-32519046D01*
X114594844Y-32852379D02*
X114594844Y-33233332D01*
X114261510Y-32995237D02*
X115118653Y-32995237D01*
X115213891Y-33042856D01*
X115261510Y-33138094D01*
X115261510Y-33233332D01*
X124061510Y-34423808D02*
X123061510Y-34423808D01*
X123156749Y-34852379D02*
X123109130Y-34899999D01*
X123061510Y-34995237D01*
X123061510Y-35233332D01*
X123109130Y-35328570D01*
X123156749Y-35376189D01*
X123251987Y-35423808D01*
X123347225Y-35423808D01*
X123490082Y-35376189D01*
X124061510Y-34804760D01*
X124061510Y-35423808D01*
X123966272Y-36423808D02*
X124013891Y-36376189D01*
X124061510Y-36233332D01*
X124061510Y-36138094D01*
X124013891Y-35995237D01*
X123918653Y-35899999D01*
X123823415Y-35852379D01*
X123632939Y-35804760D01*
X123490082Y-35804760D01*
X123299606Y-35852379D01*
X123204368Y-35899999D01*
X123109130Y-35995237D01*
X123061510Y-36138094D01*
X123061510Y-36233332D01*
X123109130Y-36376189D01*
X123156749Y-36423808D01*
X114061510Y-39595237D02*
X113061510Y-39595237D01*
X113061510Y-39976189D01*
X113109130Y-40071427D01*
X113156749Y-40119046D01*
X113251987Y-40166665D01*
X113394844Y-40166665D01*
X113490082Y-40119046D01*
X113537701Y-40071427D01*
X113585320Y-39976189D01*
X113585320Y-39595237D01*
X113061510Y-40499999D02*
X114061510Y-40738094D01*
X113347225Y-40928570D01*
X114061510Y-41119046D01*
X113061510Y-41357141D01*
X114061510Y-41738094D02*
X113061510Y-41738094D01*
X113775796Y-42071427D01*
X113061510Y-42404760D01*
X114061510Y-42404760D01*
X120361510Y-44833332D02*
X119694844Y-44833332D01*
X119885320Y-44833332D02*
X119790082Y-44880951D01*
X119742463Y-44928570D01*
X119694844Y-45023808D01*
X119694844Y-45119046D01*
X119694844Y-45880951D02*
X120361510Y-45880951D01*
X119694844Y-45452379D02*
X120218653Y-45452379D01*
X120313891Y-45499999D01*
X120361510Y-45595237D01*
X120361510Y-45738094D01*
X120313891Y-45833332D01*
X120266272Y-45880951D01*
X119694844Y-46357141D02*
X120361510Y-46357141D01*
X119790082Y-46357141D02*
X119742463Y-46404760D01*
X119694844Y-46499999D01*
X119694844Y-46642856D01*
X119742463Y-46738094D01*
X119837701Y-46785713D01*
X120361510Y-46785713D01*
X119694844Y-47690475D02*
X120504368Y-47690475D01*
X120599606Y-47642856D01*
X120647225Y-47595237D01*
X120694844Y-47499999D01*
X120694844Y-47357141D01*
X120647225Y-47261903D01*
X120313891Y-47690475D02*
X120361510Y-47595237D01*
X120361510Y-47404760D01*
X120313891Y-47309522D01*
X120266272Y-47261903D01*
X120171034Y-47214284D01*
X119885320Y-47214284D01*
X119790082Y-47261903D01*
X119742463Y-47309522D01*
X119694844Y-47404760D01*
X119694844Y-47595237D01*
X119742463Y-47690475D01*
X120313891Y-48547618D02*
X120361510Y-48452379D01*
X120361510Y-48261903D01*
X120313891Y-48166665D01*
X120218653Y-48119046D01*
X119837701Y-48119046D01*
X119742463Y-48166665D01*
X119694844Y-48261903D01*
X119694844Y-48452379D01*
X119742463Y-48547618D01*
X119837701Y-48595237D01*
X119932939Y-48595237D01*
X120028177Y-48119046D01*
X120361510Y-49023808D02*
X119694844Y-49023808D01*
X119885320Y-49023808D02*
X119790082Y-49071427D01*
X119742463Y-49119046D01*
X119694844Y-49214284D01*
X119694844Y-49309522D01*
X114499606Y-45185713D02*
X114451987Y-45090475D01*
X114451987Y-44899999D01*
X114499606Y-44804760D01*
X114594844Y-44709522D01*
X114690082Y-44661903D01*
X114880558Y-44661903D01*
X114975796Y-44709522D01*
X115071034Y-44804760D01*
X115118653Y-44899999D01*
X115118653Y-45090475D01*
X115071034Y-45185713D01*
X114118653Y-44995237D02*
X114166272Y-44757141D01*
X114309130Y-44519046D01*
X114547225Y-44376189D01*
X114785320Y-44328570D01*
X115023415Y-44376189D01*
X115261510Y-44519046D01*
X115404368Y-44757141D01*
X115451987Y-44995237D01*
X115404368Y-45233332D01*
X115261510Y-45471427D01*
X115023415Y-45614284D01*
X114785320Y-45661903D01*
X114547225Y-45614284D01*
X114309130Y-45471427D01*
X114166272Y-45233332D01*
X114118653Y-44995237D01*
X114356749Y-46042856D02*
X114309130Y-46090475D01*
X114261510Y-46185713D01*
X114261510Y-46423808D01*
X114309130Y-46519046D01*
X114356749Y-46566665D01*
X114451987Y-46614284D01*
X114547225Y-46614284D01*
X114690082Y-46566665D01*
X115261510Y-45995237D01*
X115261510Y-46614284D01*
X114261510Y-47233332D02*
X114261510Y-47328570D01*
X114309130Y-47423808D01*
X114356749Y-47471427D01*
X114451987Y-47519046D01*
X114642463Y-47566665D01*
X114880558Y-47566665D01*
X115071034Y-47519046D01*
X115166272Y-47471427D01*
X115213891Y-47423808D01*
X115261510Y-47328570D01*
X115261510Y-47233332D01*
X115213891Y-47138094D01*
X115166272Y-47090475D01*
X115071034Y-47042856D01*
X114880558Y-46995237D01*
X114642463Y-46995237D01*
X114451987Y-47042856D01*
X114356749Y-47090475D01*
X114309130Y-47138094D01*
X114261510Y-47233332D01*
X114356749Y-47947618D02*
X114309130Y-47995237D01*
X114261510Y-48090475D01*
X114261510Y-48328570D01*
X114309130Y-48423808D01*
X114356749Y-48471427D01*
X114451987Y-48519046D01*
X114547225Y-48519046D01*
X114690082Y-48471427D01*
X115261510Y-47899999D01*
X115261510Y-48519046D01*
X115261510Y-49471427D02*
X115261510Y-48899999D01*
X115261510Y-49185713D02*
X114261510Y-49185713D01*
X114404368Y-49090475D01*
X114499606Y-48995237D01*
X114547225Y-48899999D01*
X112380558Y-39019046D02*
X112380558Y-39780951D01*
X112761510Y-39399999D02*
X111999606Y-39399999D01*
X112380558Y-36619046D02*
X112380558Y-37380951D01*
X124380558Y-39819046D02*
X124380558Y-40580951D01*
X124761510Y-40199999D02*
X123999606Y-40199999D01*
X124380558Y-41019046D02*
X124380558Y-41780951D01*
X123304368Y-37095237D02*
X123399606Y-37047618D01*
X123590082Y-37047618D01*
X123685320Y-37095237D01*
X123732939Y-37190475D01*
X123732939Y-37238094D01*
X123685320Y-37333332D01*
X123590082Y-37380951D01*
X123447225Y-37380951D01*
X123351987Y-37428570D01*
X123304368Y-37523808D01*
X123304368Y-37571427D01*
X123351987Y-37666665D01*
X123447225Y-37714284D01*
X123590082Y-37714284D01*
X123685320Y-37666665D01*
X124590082Y-37095237D02*
X124494844Y-37047618D01*
X124304368Y-37047618D01*
X124209130Y-37095237D01*
X124161510Y-37142856D01*
X124113891Y-37238094D01*
X124113891Y-37523808D01*
X124161510Y-37619046D01*
X124209130Y-37666665D01*
X124304368Y-37714284D01*
X124494844Y-37714284D01*
X124590082Y-37666665D01*
X125161510Y-37047618D02*
X125066272Y-37095237D01*
X125018653Y-37190475D01*
X125018653Y-38047618D01*
X123140082Y-38495237D02*
X123235320Y-38447618D01*
X123425796Y-38447618D01*
X123521034Y-38495237D01*
X123568653Y-38590475D01*
X123568653Y-38638094D01*
X123521034Y-38733332D01*
X123425796Y-38780951D01*
X123282939Y-38780951D01*
X123187701Y-38828570D01*
X123140082Y-38923808D01*
X123140082Y-38971427D01*
X123187701Y-39066665D01*
X123282939Y-39114284D01*
X123425796Y-39114284D01*
X123521034Y-39066665D01*
X124425796Y-38447618D02*
X124425796Y-39447618D01*
X124425796Y-38495237D02*
X124330558Y-38447618D01*
X124140082Y-38447618D01*
X124044844Y-38495237D01*
X123997225Y-38542856D01*
X123949606Y-38638094D01*
X123949606Y-38923808D01*
X123997225Y-39019046D01*
X124044844Y-39066665D01*
X124140082Y-39114284D01*
X124330558Y-39114284D01*
X124425796Y-39066665D01*
X125330558Y-38447618D02*
X125330558Y-38971427D01*
X125282939Y-39066665D01*
X125187701Y-39114284D01*
X124997225Y-39114284D01*
X124901987Y-39066665D01*
X125330558Y-38495237D02*
X125235320Y-38447618D01*
X124997225Y-38447618D01*
X124901987Y-38495237D01*
X124854368Y-38590475D01*
X124854368Y-38685713D01*
X124901987Y-38780951D01*
X124997225Y-38828570D01*
X125235320Y-38828570D01*
X125330558Y-38876189D01*
X119466272Y-43699999D02*
X119513891Y-43652379D01*
X119561510Y-43699999D01*
X119513891Y-43747618D01*
X119466272Y-43699999D01*
X119561510Y-43699999D01*
X121358796Y-36380951D02*
X121358796Y-36857141D01*
X121644510Y-36285713D02*
X120644510Y-36619046D01*
X121644510Y-36952379D01*
X121596891Y-37238094D02*
X121644510Y-37380951D01*
X121644510Y-37619046D01*
X121596891Y-37714284D01*
X121549272Y-37761903D01*
X121454034Y-37809522D01*
X121358796Y-37809522D01*
X121263558Y-37761903D01*
X121215939Y-37714284D01*
X121168320Y-37619046D01*
X121120701Y-37428570D01*
X121073082Y-37333332D01*
X121025463Y-37285713D01*
X120930225Y-37238094D01*
X120834987Y-37238094D01*
X120739749Y-37285713D01*
X120692130Y-37333332D01*
X120644510Y-37428570D01*
X120644510Y-37666665D01*
X120692130Y-37809522D01*
X120644510Y-38714284D02*
X120644510Y-38238094D01*
X121120701Y-38190475D01*
X121073082Y-38238094D01*
X121025463Y-38333332D01*
X121025463Y-38571427D01*
X121073082Y-38666665D01*
X121120701Y-38714284D01*
X121215939Y-38761903D01*
X121454034Y-38761903D01*
X121549272Y-38714284D01*
X121596891Y-38666665D01*
X121644510Y-38571427D01*
X121644510Y-38333332D01*
X121596891Y-38238094D01*
X121549272Y-38190475D01*
X120644510Y-39380951D02*
X120644510Y-39476189D01*
X120692130Y-39571427D01*
X120739749Y-39619046D01*
X120834987Y-39666665D01*
X121025463Y-39714284D01*
X121263558Y-39714284D01*
X121454034Y-39666665D01*
X121549272Y-39619046D01*
X121596891Y-39571427D01*
X121644510Y-39476189D01*
X121644510Y-39380951D01*
X121596891Y-39285713D01*
X121549272Y-39238094D01*
X121454034Y-39190475D01*
X121263558Y-39142856D01*
X121025463Y-39142856D01*
X120834987Y-39190475D01*
X120739749Y-39238094D01*
X120692130Y-39285713D01*
X120644510Y-39380951D01*
X120977844Y-40571427D02*
X121644510Y-40571427D01*
X120596891Y-40333332D02*
X121311177Y-40095237D01*
X121311177Y-40714284D01*
X121073082Y-41238094D02*
X121025463Y-41142856D01*
X120977844Y-41095237D01*
X120882606Y-41047618D01*
X120834987Y-41047618D01*
X120739749Y-41095237D01*
X120692130Y-41142856D01*
X120644510Y-41238094D01*
X120644510Y-41428570D01*
X120692130Y-41523808D01*
X120739749Y-41571427D01*
X120834987Y-41619046D01*
X120882606Y-41619046D01*
X120977844Y-41571427D01*
X121025463Y-41523808D01*
X121073082Y-41428570D01*
X121073082Y-41238094D01*
X121120701Y-41142856D01*
X121168320Y-41095237D01*
X121263558Y-41047618D01*
X121454034Y-41047618D01*
X121549272Y-41095237D01*
X121596891Y-41142856D01*
X121644510Y-41238094D01*
X121644510Y-41428570D01*
X121596891Y-41523808D01*
X121549272Y-41571427D01*
X121454034Y-41619046D01*
X121263558Y-41619046D01*
X121168320Y-41571427D01*
X121120701Y-41523808D01*
X121073082Y-41428570D01*
X121120701Y-42380951D02*
X121168320Y-42523808D01*
X121215939Y-42571427D01*
X121311177Y-42619046D01*
X121454034Y-42619046D01*
X121549272Y-42571427D01*
X121596891Y-42523808D01*
X121644510Y-42428570D01*
X121644510Y-42047618D01*
X120644510Y-42047618D01*
X120644510Y-42380951D01*
X120692130Y-42476189D01*
X120739749Y-42523808D01*
X120834987Y-42571427D01*
X120930225Y-42571427D01*
X121025463Y-42523808D01*
X121073082Y-42476189D01*
X121120701Y-42380951D01*
X121120701Y-42047618D01*
D12*
X112764130Y-42999999D02*
X112764130Y-42324999D01*
X112764130Y-42324999D02*
X112139130Y-42324999D01*
X112139130Y-42324999D02*
X112139130Y-41624999D01*
X112139130Y-41624999D02*
X112764130Y-41624999D01*
X112764130Y-41624999D02*
X112764130Y-40924999D01*
X103447310Y-38629950D02*
G75*
G03*
X103447310Y-38629950I-60828J0D01*
G01*
D10*
X98884577Y-43236616D02*
X98408386Y-43236616D01*
X98979815Y-43522330D02*
X98646482Y-42522330D01*
X98313148Y-43522330D01*
X98535053Y-40628521D02*
X98392196Y-40676140D01*
X98344577Y-40723759D01*
X98296958Y-40818997D01*
X98296958Y-40961854D01*
X98344577Y-41057092D01*
X98392196Y-41104711D01*
X98487434Y-41152330D01*
X98868386Y-41152330D01*
X98868386Y-40152330D01*
X98535053Y-40152330D01*
X98439815Y-40199950D01*
X98392196Y-40247569D01*
X98344577Y-40342807D01*
X98344577Y-40438045D01*
X98392196Y-40533283D01*
X98439815Y-40580902D01*
X98535053Y-40628521D01*
X98868386Y-40628521D01*
X104157720Y-45349759D02*
X104110101Y-45206902D01*
X104110101Y-44968807D01*
X104157720Y-44873569D01*
X104205339Y-44825950D01*
X104300577Y-44778330D01*
X104395815Y-44778330D01*
X104491053Y-44825950D01*
X104538672Y-44873569D01*
X104586291Y-44968807D01*
X104633910Y-45159283D01*
X104681529Y-45254521D01*
X104729148Y-45302140D01*
X104824386Y-45349759D01*
X104919624Y-45349759D01*
X105014862Y-45302140D01*
X105062482Y-45254521D01*
X105110101Y-45159283D01*
X105110101Y-44921188D01*
X105062482Y-44778330D01*
X104110101Y-44349759D02*
X105110101Y-44349759D01*
X105110101Y-43968807D01*
X105062482Y-43873569D01*
X105014862Y-43825950D01*
X104919624Y-43778330D01*
X104776767Y-43778330D01*
X104681529Y-43825950D01*
X104633910Y-43873569D01*
X104586291Y-43968807D01*
X104586291Y-44349759D01*
X104110101Y-43349759D02*
X105110101Y-43349759D01*
X98616482Y-37777569D02*
X98616482Y-38777569D01*
D12*
X98821482Y-36699950D02*
X98821482Y-36024950D01*
X98821482Y-36024950D02*
X98196482Y-36024950D01*
X98196482Y-36024950D02*
X98196482Y-35324950D01*
X98196482Y-35324950D02*
X98821482Y-35324950D01*
X98821482Y-35324950D02*
X98821482Y-34624950D01*
D11*
X105658387Y-38460047D02*
X105582196Y-38498142D01*
X105429815Y-38498142D01*
X105353625Y-38460047D01*
X105315529Y-38383857D01*
X105315529Y-38345761D01*
X105353625Y-38269571D01*
X105429815Y-38231476D01*
X105544101Y-38231476D01*
X105620291Y-38193380D01*
X105658387Y-38117190D01*
X105658387Y-38079095D01*
X105620291Y-38002904D01*
X105544101Y-37964809D01*
X105429815Y-37964809D01*
X105353625Y-38002904D01*
X104629815Y-38460047D02*
X104706006Y-38498142D01*
X104858387Y-38498142D01*
X104934577Y-38460047D01*
X104972672Y-38421952D01*
X105010768Y-38345761D01*
X105010768Y-38117190D01*
X104972672Y-38040999D01*
X104934577Y-38002904D01*
X104858387Y-37964809D01*
X104706006Y-37964809D01*
X104629815Y-38002904D01*
X104286958Y-38498142D02*
X104286958Y-37698142D01*
X104210768Y-38193380D02*
X103982196Y-38498142D01*
X103982196Y-37964809D02*
X104286958Y-38269571D01*
X105696482Y-40999093D02*
X105506006Y-41532426D01*
X105315529Y-40999093D01*
X104667910Y-41494331D02*
X104744101Y-41532426D01*
X104896482Y-41532426D01*
X104972672Y-41494331D01*
X105010768Y-41456236D01*
X105048863Y-41380045D01*
X105048863Y-41151474D01*
X105010768Y-41075283D01*
X104972672Y-41037188D01*
X104896482Y-40999093D01*
X104744101Y-40999093D01*
X104667910Y-41037188D01*
X103982196Y-41494331D02*
X104058387Y-41532426D01*
X104210768Y-41532426D01*
X104286958Y-41494331D01*
X104325053Y-41456236D01*
X104363148Y-41380045D01*
X104363148Y-41151474D01*
X104325053Y-41075283D01*
X104286958Y-41037188D01*
X104210768Y-40999093D01*
X104058387Y-40999093D01*
X103982196Y-41037188D01*
X105620291Y-39509570D02*
X105620291Y-38976237D01*
X105620291Y-39052427D02*
X105582196Y-39014332D01*
X105506006Y-38976237D01*
X105391720Y-38976237D01*
X105315529Y-39014332D01*
X105277434Y-39090523D01*
X105277434Y-39509570D01*
X105277434Y-39090523D02*
X105239339Y-39014332D01*
X105163148Y-38976237D01*
X105048863Y-38976237D01*
X104972672Y-39014332D01*
X104934577Y-39090523D01*
X104934577Y-39509570D01*
X104553625Y-39509570D02*
X104553625Y-38976237D01*
X104553625Y-38709570D02*
X104591720Y-38747666D01*
X104553625Y-38785761D01*
X104515529Y-38747666D01*
X104553625Y-38709570D01*
X104553625Y-38785761D01*
X104210768Y-39471475D02*
X104134577Y-39509570D01*
X103982196Y-39509570D01*
X103906006Y-39471475D01*
X103867910Y-39395285D01*
X103867910Y-39357189D01*
X103906006Y-39280999D01*
X103982196Y-39242904D01*
X104096482Y-39242904D01*
X104172672Y-39204808D01*
X104210768Y-39128618D01*
X104210768Y-39090523D01*
X104172672Y-39014332D01*
X104096482Y-38976237D01*
X103982196Y-38976237D01*
X103906006Y-39014332D01*
X103410768Y-39509570D02*
X103486958Y-39471475D01*
X103525053Y-39433380D01*
X103563148Y-39357189D01*
X103563148Y-39128618D01*
X103525053Y-39052427D01*
X103486958Y-39014332D01*
X103410768Y-38976237D01*
X103296482Y-38976237D01*
X103220291Y-39014332D01*
X103182196Y-39052427D01*
X103144101Y-39128618D01*
X103144101Y-39357189D01*
X103182196Y-39433380D01*
X103220291Y-39471475D01*
X103296482Y-39509570D01*
X103410768Y-39509570D01*
X105277434Y-37448619D02*
X105353625Y-37486714D01*
X105506006Y-37486714D01*
X105582196Y-37448619D01*
X105620291Y-37410524D01*
X105658387Y-37334333D01*
X105658387Y-37105762D01*
X105620291Y-37029571D01*
X105582196Y-36991476D01*
X105506006Y-36953381D01*
X105353625Y-36953381D01*
X105277434Y-36991476D01*
X104972672Y-37448619D02*
X104896482Y-37486714D01*
X104744101Y-37486714D01*
X104667910Y-37448619D01*
X104629815Y-37372429D01*
X104629815Y-37334333D01*
X104667910Y-37258143D01*
X104744101Y-37220048D01*
X104858387Y-37220048D01*
X104934577Y-37181952D01*
X104972672Y-37105762D01*
X104972672Y-37067667D01*
X104934577Y-36991476D01*
X104858387Y-36953381D01*
X104744101Y-36953381D01*
X104667910Y-36991476D01*
X105277434Y-42010521D02*
X105277434Y-42658140D01*
X105315529Y-42734330D01*
X105353625Y-42772426D01*
X105429815Y-42810521D01*
X105544101Y-42810521D01*
X105620291Y-42772426D01*
X105277434Y-42505759D02*
X105353625Y-42543854D01*
X105506006Y-42543854D01*
X105582196Y-42505759D01*
X105620291Y-42467664D01*
X105658387Y-42391473D01*
X105658387Y-42162902D01*
X105620291Y-42086711D01*
X105582196Y-42048616D01*
X105506006Y-42010521D01*
X105353625Y-42010521D01*
X105277434Y-42048616D01*
X104896482Y-42010521D02*
X104896482Y-42543854D01*
X104896482Y-42086711D02*
X104858387Y-42048616D01*
X104782196Y-42010521D01*
X104667910Y-42010521D01*
X104591720Y-42048616D01*
X104553625Y-42124807D01*
X104553625Y-42543854D01*
X103829815Y-42543854D02*
X103829815Y-41743854D01*
X103829815Y-42505759D02*
X103906006Y-42543854D01*
X104058387Y-42543854D01*
X104134577Y-42505759D01*
X104172672Y-42467664D01*
X104210768Y-42391473D01*
X104210768Y-42162902D01*
X104172672Y-42086711D01*
X104134577Y-42048616D01*
X104058387Y-42010521D01*
X103906006Y-42010521D01*
X103829815Y-42048616D01*
X105620291Y-40520998D02*
X105620291Y-39987665D01*
X105620291Y-40063855D02*
X105582196Y-40025760D01*
X105506006Y-39987665D01*
X105391720Y-39987665D01*
X105315529Y-40025760D01*
X105277434Y-40101951D01*
X105277434Y-40520998D01*
X105277434Y-40101951D02*
X105239339Y-40025760D01*
X105163148Y-39987665D01*
X105048863Y-39987665D01*
X104972672Y-40025760D01*
X104934577Y-40101951D01*
X104934577Y-40520998D01*
X104439339Y-40520998D02*
X104515529Y-40482903D01*
X104553625Y-40444808D01*
X104591720Y-40368617D01*
X104591720Y-40140046D01*
X104553625Y-40063855D01*
X104515529Y-40025760D01*
X104439339Y-39987665D01*
X104325053Y-39987665D01*
X104248863Y-40025760D01*
X104210768Y-40063855D01*
X104172672Y-40140046D01*
X104172672Y-40368617D01*
X104210768Y-40444808D01*
X104248863Y-40482903D01*
X104325053Y-40520998D01*
X104439339Y-40520998D01*
X103867910Y-40482903D02*
X103791720Y-40520998D01*
X103639339Y-40520998D01*
X103563148Y-40482903D01*
X103525053Y-40406713D01*
X103525053Y-40368617D01*
X103563148Y-40292427D01*
X103639339Y-40254332D01*
X103753625Y-40254332D01*
X103829815Y-40216236D01*
X103867910Y-40140046D01*
X103867910Y-40101951D01*
X103829815Y-40025760D01*
X103753625Y-39987665D01*
X103639339Y-39987665D01*
X103563148Y-40025760D01*
X103182196Y-40520998D02*
X103182196Y-39987665D01*
X103182196Y-39720998D02*
X103220291Y-39759094D01*
X103182196Y-39797189D01*
X103144101Y-39759094D01*
X103182196Y-39720998D01*
X103182196Y-39797189D01*
X105277434Y-35425763D02*
X105353625Y-35463858D01*
X105506006Y-35463858D01*
X105582196Y-35425763D01*
X105620291Y-35387668D01*
X105658387Y-35311477D01*
X105658387Y-35082906D01*
X105620291Y-35006715D01*
X105582196Y-34968620D01*
X105506006Y-34930525D01*
X105353625Y-34930525D01*
X105277434Y-34968620D01*
X104820291Y-35463858D02*
X104896482Y-35425763D01*
X104934577Y-35349573D01*
X104934577Y-34663858D01*
X104515529Y-35463858D02*
X104515529Y-34663858D01*
X104439339Y-35159096D02*
X104210768Y-35463858D01*
X104210768Y-34930525D02*
X104515529Y-35235287D01*
X105658387Y-36437191D02*
X105582196Y-36475286D01*
X105429815Y-36475286D01*
X105353625Y-36437191D01*
X105315529Y-36361001D01*
X105315529Y-36322905D01*
X105353625Y-36246715D01*
X105429815Y-36208620D01*
X105544101Y-36208620D01*
X105620291Y-36170524D01*
X105658387Y-36094334D01*
X105658387Y-36056239D01*
X105620291Y-35980048D01*
X105544101Y-35941953D01*
X105429815Y-35941953D01*
X105353625Y-35980048D01*
X104629815Y-36475286D02*
X104629815Y-35675286D01*
X104629815Y-36437191D02*
X104706006Y-36475286D01*
X104858387Y-36475286D01*
X104934577Y-36437191D01*
X104972672Y-36399096D01*
X105010768Y-36322905D01*
X105010768Y-36094334D01*
X104972672Y-36018143D01*
X104934577Y-35980048D01*
X104858387Y-35941953D01*
X104706006Y-35941953D01*
X104629815Y-35980048D01*
X104134577Y-36475286D02*
X104210768Y-36437191D01*
X104248863Y-36399096D01*
X104286958Y-36322905D01*
X104286958Y-36094334D01*
X104248863Y-36018143D01*
X104210768Y-35980048D01*
X104134577Y-35941953D01*
X104020291Y-35941953D01*
X103944101Y-35980048D01*
X103906006Y-36018143D01*
X103867910Y-36094334D01*
X103867910Y-36322905D01*
X103906006Y-36399096D01*
X103944101Y-36437191D01*
X104020291Y-36475286D01*
X104134577Y-36475286D01*
D12*
X90444266Y-38629950D02*
G75*
G03*
X90444266Y-38629950I-60828J0D01*
G01*
D10*
X85881533Y-43236616D02*
X85405342Y-43236616D01*
X85976771Y-43522330D02*
X85643438Y-42522330D01*
X85310104Y-43522330D01*
X85532009Y-40628521D02*
X85389152Y-40676140D01*
X85341533Y-40723759D01*
X85293914Y-40818997D01*
X85293914Y-40961854D01*
X85341533Y-41057092D01*
X85389152Y-41104711D01*
X85484390Y-41152330D01*
X85865342Y-41152330D01*
X85865342Y-40152330D01*
X85532009Y-40152330D01*
X85436771Y-40199950D01*
X85389152Y-40247569D01*
X85341533Y-40342807D01*
X85341533Y-40438045D01*
X85389152Y-40533283D01*
X85436771Y-40580902D01*
X85532009Y-40628521D01*
X85865342Y-40628521D01*
X91154676Y-45349759D02*
X91107057Y-45206902D01*
X91107057Y-44968807D01*
X91154676Y-44873569D01*
X91202295Y-44825950D01*
X91297533Y-44778330D01*
X91392771Y-44778330D01*
X91488009Y-44825950D01*
X91535628Y-44873569D01*
X91583247Y-44968807D01*
X91630866Y-45159283D01*
X91678485Y-45254521D01*
X91726104Y-45302140D01*
X91821342Y-45349759D01*
X91916580Y-45349759D01*
X92011818Y-45302140D01*
X92059438Y-45254521D01*
X92107057Y-45159283D01*
X92107057Y-44921188D01*
X92059438Y-44778330D01*
X91107057Y-44349759D02*
X92107057Y-44349759D01*
X92107057Y-43968807D01*
X92059438Y-43873569D01*
X92011818Y-43825950D01*
X91916580Y-43778330D01*
X91773723Y-43778330D01*
X91678485Y-43825950D01*
X91630866Y-43873569D01*
X91583247Y-43968807D01*
X91583247Y-44349759D01*
X91107057Y-43349759D02*
X92107057Y-43349759D01*
X85613438Y-37777569D02*
X85613438Y-38777569D01*
D12*
X85818438Y-36699950D02*
X85818438Y-36024950D01*
X85818438Y-36024950D02*
X85193438Y-36024950D01*
X85193438Y-36024950D02*
X85193438Y-35324950D01*
X85193438Y-35324950D02*
X85818438Y-35324950D01*
X85818438Y-35324950D02*
X85818438Y-34624950D01*
D11*
X92655343Y-38460047D02*
X92579152Y-38498142D01*
X92426771Y-38498142D01*
X92350581Y-38460047D01*
X92312485Y-38383857D01*
X92312485Y-38345761D01*
X92350581Y-38269571D01*
X92426771Y-38231476D01*
X92541057Y-38231476D01*
X92617247Y-38193380D01*
X92655343Y-38117190D01*
X92655343Y-38079095D01*
X92617247Y-38002904D01*
X92541057Y-37964809D01*
X92426771Y-37964809D01*
X92350581Y-38002904D01*
X91626771Y-38460047D02*
X91702962Y-38498142D01*
X91855343Y-38498142D01*
X91931533Y-38460047D01*
X91969628Y-38421952D01*
X92007724Y-38345761D01*
X92007724Y-38117190D01*
X91969628Y-38040999D01*
X91931533Y-38002904D01*
X91855343Y-37964809D01*
X91702962Y-37964809D01*
X91626771Y-38002904D01*
X91283914Y-38498142D02*
X91283914Y-37698142D01*
X91207724Y-38193380D02*
X90979152Y-38498142D01*
X90979152Y-37964809D02*
X91283914Y-38269571D01*
X92693438Y-40999093D02*
X92502962Y-41532426D01*
X92312485Y-40999093D01*
X91664866Y-41494331D02*
X91741057Y-41532426D01*
X91893438Y-41532426D01*
X91969628Y-41494331D01*
X92007724Y-41456236D01*
X92045819Y-41380045D01*
X92045819Y-41151474D01*
X92007724Y-41075283D01*
X91969628Y-41037188D01*
X91893438Y-40999093D01*
X91741057Y-40999093D01*
X91664866Y-41037188D01*
X90979152Y-41494331D02*
X91055343Y-41532426D01*
X91207724Y-41532426D01*
X91283914Y-41494331D01*
X91322009Y-41456236D01*
X91360104Y-41380045D01*
X91360104Y-41151474D01*
X91322009Y-41075283D01*
X91283914Y-41037188D01*
X91207724Y-40999093D01*
X91055343Y-40999093D01*
X90979152Y-41037188D01*
X92617247Y-39509570D02*
X92617247Y-38976237D01*
X92617247Y-39052427D02*
X92579152Y-39014332D01*
X92502962Y-38976237D01*
X92388676Y-38976237D01*
X92312485Y-39014332D01*
X92274390Y-39090523D01*
X92274390Y-39509570D01*
X92274390Y-39090523D02*
X92236295Y-39014332D01*
X92160104Y-38976237D01*
X92045819Y-38976237D01*
X91969628Y-39014332D01*
X91931533Y-39090523D01*
X91931533Y-39509570D01*
X91550581Y-39509570D02*
X91550581Y-38976237D01*
X91550581Y-38709570D02*
X91588676Y-38747666D01*
X91550581Y-38785761D01*
X91512485Y-38747666D01*
X91550581Y-38709570D01*
X91550581Y-38785761D01*
X91207724Y-39471475D02*
X91131533Y-39509570D01*
X90979152Y-39509570D01*
X90902962Y-39471475D01*
X90864866Y-39395285D01*
X90864866Y-39357189D01*
X90902962Y-39280999D01*
X90979152Y-39242904D01*
X91093438Y-39242904D01*
X91169628Y-39204808D01*
X91207724Y-39128618D01*
X91207724Y-39090523D01*
X91169628Y-39014332D01*
X91093438Y-38976237D01*
X90979152Y-38976237D01*
X90902962Y-39014332D01*
X90407724Y-39509570D02*
X90483914Y-39471475D01*
X90522009Y-39433380D01*
X90560104Y-39357189D01*
X90560104Y-39128618D01*
X90522009Y-39052427D01*
X90483914Y-39014332D01*
X90407724Y-38976237D01*
X90293438Y-38976237D01*
X90217247Y-39014332D01*
X90179152Y-39052427D01*
X90141057Y-39128618D01*
X90141057Y-39357189D01*
X90179152Y-39433380D01*
X90217247Y-39471475D01*
X90293438Y-39509570D01*
X90407724Y-39509570D01*
X92274390Y-37448619D02*
X92350581Y-37486714D01*
X92502962Y-37486714D01*
X92579152Y-37448619D01*
X92617247Y-37410524D01*
X92655343Y-37334333D01*
X92655343Y-37105762D01*
X92617247Y-37029571D01*
X92579152Y-36991476D01*
X92502962Y-36953381D01*
X92350581Y-36953381D01*
X92274390Y-36991476D01*
X91969628Y-37448619D02*
X91893438Y-37486714D01*
X91741057Y-37486714D01*
X91664866Y-37448619D01*
X91626771Y-37372429D01*
X91626771Y-37334333D01*
X91664866Y-37258143D01*
X91741057Y-37220048D01*
X91855343Y-37220048D01*
X91931533Y-37181952D01*
X91969628Y-37105762D01*
X91969628Y-37067667D01*
X91931533Y-36991476D01*
X91855343Y-36953381D01*
X91741057Y-36953381D01*
X91664866Y-36991476D01*
X92274390Y-42010521D02*
X92274390Y-42658140D01*
X92312485Y-42734330D01*
X92350581Y-42772426D01*
X92426771Y-42810521D01*
X92541057Y-42810521D01*
X92617247Y-42772426D01*
X92274390Y-42505759D02*
X92350581Y-42543854D01*
X92502962Y-42543854D01*
X92579152Y-42505759D01*
X92617247Y-42467664D01*
X92655343Y-42391473D01*
X92655343Y-42162902D01*
X92617247Y-42086711D01*
X92579152Y-42048616D01*
X92502962Y-42010521D01*
X92350581Y-42010521D01*
X92274390Y-42048616D01*
X91893438Y-42010521D02*
X91893438Y-42543854D01*
X91893438Y-42086711D02*
X91855343Y-42048616D01*
X91779152Y-42010521D01*
X91664866Y-42010521D01*
X91588676Y-42048616D01*
X91550581Y-42124807D01*
X91550581Y-42543854D01*
X90826771Y-42543854D02*
X90826771Y-41743854D01*
X90826771Y-42505759D02*
X90902962Y-42543854D01*
X91055343Y-42543854D01*
X91131533Y-42505759D01*
X91169628Y-42467664D01*
X91207724Y-42391473D01*
X91207724Y-42162902D01*
X91169628Y-42086711D01*
X91131533Y-42048616D01*
X91055343Y-42010521D01*
X90902962Y-42010521D01*
X90826771Y-42048616D01*
X92617247Y-40520998D02*
X92617247Y-39987665D01*
X92617247Y-40063855D02*
X92579152Y-40025760D01*
X92502962Y-39987665D01*
X92388676Y-39987665D01*
X92312485Y-40025760D01*
X92274390Y-40101951D01*
X92274390Y-40520998D01*
X92274390Y-40101951D02*
X92236295Y-40025760D01*
X92160104Y-39987665D01*
X92045819Y-39987665D01*
X91969628Y-40025760D01*
X91931533Y-40101951D01*
X91931533Y-40520998D01*
X91436295Y-40520998D02*
X91512485Y-40482903D01*
X91550581Y-40444808D01*
X91588676Y-40368617D01*
X91588676Y-40140046D01*
X91550581Y-40063855D01*
X91512485Y-40025760D01*
X91436295Y-39987665D01*
X91322009Y-39987665D01*
X91245819Y-40025760D01*
X91207724Y-40063855D01*
X91169628Y-40140046D01*
X91169628Y-40368617D01*
X91207724Y-40444808D01*
X91245819Y-40482903D01*
X91322009Y-40520998D01*
X91436295Y-40520998D01*
X90864866Y-40482903D02*
X90788676Y-40520998D01*
X90636295Y-40520998D01*
X90560104Y-40482903D01*
X90522009Y-40406713D01*
X90522009Y-40368617D01*
X90560104Y-40292427D01*
X90636295Y-40254332D01*
X90750581Y-40254332D01*
X90826771Y-40216236D01*
X90864866Y-40140046D01*
X90864866Y-40101951D01*
X90826771Y-40025760D01*
X90750581Y-39987665D01*
X90636295Y-39987665D01*
X90560104Y-40025760D01*
X90179152Y-40520998D02*
X90179152Y-39987665D01*
X90179152Y-39720998D02*
X90217247Y-39759094D01*
X90179152Y-39797189D01*
X90141057Y-39759094D01*
X90179152Y-39720998D01*
X90179152Y-39797189D01*
X92274390Y-35425763D02*
X92350581Y-35463858D01*
X92502962Y-35463858D01*
X92579152Y-35425763D01*
X92617247Y-35387668D01*
X92655343Y-35311477D01*
X92655343Y-35082906D01*
X92617247Y-35006715D01*
X92579152Y-34968620D01*
X92502962Y-34930525D01*
X92350581Y-34930525D01*
X92274390Y-34968620D01*
X91817247Y-35463858D02*
X91893438Y-35425763D01*
X91931533Y-35349573D01*
X91931533Y-34663858D01*
X91512485Y-35463858D02*
X91512485Y-34663858D01*
X91436295Y-35159096D02*
X91207724Y-35463858D01*
X91207724Y-34930525D02*
X91512485Y-35235287D01*
X92655343Y-36437191D02*
X92579152Y-36475286D01*
X92426771Y-36475286D01*
X92350581Y-36437191D01*
X92312485Y-36361001D01*
X92312485Y-36322905D01*
X92350581Y-36246715D01*
X92426771Y-36208620D01*
X92541057Y-36208620D01*
X92617247Y-36170524D01*
X92655343Y-36094334D01*
X92655343Y-36056239D01*
X92617247Y-35980048D01*
X92541057Y-35941953D01*
X92426771Y-35941953D01*
X92350581Y-35980048D01*
X91626771Y-36475286D02*
X91626771Y-35675286D01*
X91626771Y-36437191D02*
X91702962Y-36475286D01*
X91855343Y-36475286D01*
X91931533Y-36437191D01*
X91969628Y-36399096D01*
X92007724Y-36322905D01*
X92007724Y-36094334D01*
X91969628Y-36018143D01*
X91931533Y-35980048D01*
X91855343Y-35941953D01*
X91702962Y-35941953D01*
X91626771Y-35980048D01*
X91131533Y-36475286D02*
X91207724Y-36437191D01*
X91245819Y-36399096D01*
X91283914Y-36322905D01*
X91283914Y-36094334D01*
X91245819Y-36018143D01*
X91207724Y-35980048D01*
X91131533Y-35941953D01*
X91017247Y-35941953D01*
X90941057Y-35980048D01*
X90902962Y-36018143D01*
X90864866Y-36094334D01*
X90864866Y-36322905D01*
X90902962Y-36399096D01*
X90941057Y-36437191D01*
X91017247Y-36475286D01*
X91131533Y-36475286D01*
D10*
X69265419Y-30223332D02*
X69265419Y-29651903D01*
X69265419Y-29937618D02*
X68265419Y-29937618D01*
X68408277Y-29842379D01*
X68503515Y-29747141D01*
X68551134Y-29651903D01*
X68265419Y-31128094D02*
X68265419Y-30651903D01*
X68741610Y-30604284D01*
X68693991Y-30651903D01*
X68646372Y-30747141D01*
X68646372Y-30985237D01*
X68693991Y-31080475D01*
X68741610Y-31128094D01*
X68836848Y-31175713D01*
X69074943Y-31175713D01*
X69170181Y-31128094D01*
X69217800Y-31080475D01*
X69265419Y-30985237D01*
X69265419Y-30747141D01*
X69217800Y-30651903D01*
X69170181Y-30604284D01*
X69265419Y-31604284D02*
X68265419Y-31604284D01*
X68646372Y-31604284D02*
X68598753Y-31699522D01*
X68598753Y-31889999D01*
X68646372Y-31985237D01*
X68693991Y-32032856D01*
X68789229Y-32080475D01*
X69074943Y-32080475D01*
X69170181Y-32032856D01*
X69217800Y-31985237D01*
X69265419Y-31889999D01*
X69265419Y-31699522D01*
X69217800Y-31604284D01*
X69265419Y-32509046D02*
X68598753Y-32509046D01*
X68265419Y-32509046D02*
X68313039Y-32461427D01*
X68360658Y-32509046D01*
X68313039Y-32556665D01*
X68265419Y-32509046D01*
X68360658Y-32509046D01*
X68598753Y-32842379D02*
X68598753Y-33223332D01*
X68265419Y-32985237D02*
X69122562Y-32985237D01*
X69217800Y-33032856D01*
X69265419Y-33128094D01*
X69265419Y-33223332D01*
X68503515Y-45175713D02*
X68455896Y-45080475D01*
X68455896Y-44889999D01*
X68503515Y-44794760D01*
X68598753Y-44699522D01*
X68693991Y-44651903D01*
X68884467Y-44651903D01*
X68979705Y-44699522D01*
X69074943Y-44794760D01*
X69122562Y-44889999D01*
X69122562Y-45080475D01*
X69074943Y-45175713D01*
X68122562Y-44985237D02*
X68170181Y-44747141D01*
X68313039Y-44509046D01*
X68551134Y-44366189D01*
X68789229Y-44318570D01*
X69027324Y-44366189D01*
X69265419Y-44509046D01*
X69408277Y-44747141D01*
X69455896Y-44985237D01*
X69408277Y-45223332D01*
X69265419Y-45461427D01*
X69027324Y-45604284D01*
X68789229Y-45651903D01*
X68551134Y-45604284D01*
X68313039Y-45461427D01*
X68170181Y-45223332D01*
X68122562Y-44985237D01*
X68360658Y-46032856D02*
X68313039Y-46080475D01*
X68265419Y-46175713D01*
X68265419Y-46413808D01*
X68313039Y-46509046D01*
X68360658Y-46556665D01*
X68455896Y-46604284D01*
X68551134Y-46604284D01*
X68693991Y-46556665D01*
X69265419Y-45985237D01*
X69265419Y-46604284D01*
X68265419Y-47223332D02*
X68265419Y-47318570D01*
X68313039Y-47413808D01*
X68360658Y-47461427D01*
X68455896Y-47509046D01*
X68646372Y-47556665D01*
X68884467Y-47556665D01*
X69074943Y-47509046D01*
X69170181Y-47461427D01*
X69217800Y-47413808D01*
X69265419Y-47318570D01*
X69265419Y-47223332D01*
X69217800Y-47128094D01*
X69170181Y-47080475D01*
X69074943Y-47032856D01*
X68884467Y-46985237D01*
X68646372Y-46985237D01*
X68455896Y-47032856D01*
X68360658Y-47080475D01*
X68313039Y-47128094D01*
X68265419Y-47223332D01*
X68360658Y-47937618D02*
X68313039Y-47985237D01*
X68265419Y-48080475D01*
X68265419Y-48318570D01*
X68313039Y-48413808D01*
X68360658Y-48461427D01*
X68455896Y-48509046D01*
X68551134Y-48509046D01*
X68693991Y-48461427D01*
X69265419Y-47889999D01*
X69265419Y-48509046D01*
X69265419Y-49461427D02*
X69265419Y-48889999D01*
X69265419Y-49175713D02*
X68265419Y-49175713D01*
X68408277Y-49080475D01*
X68503515Y-48985237D01*
X68551134Y-48889999D01*
X67815419Y-42039999D02*
X66815419Y-42039999D01*
X67311610Y-39581427D02*
X67359229Y-39724284D01*
X67406848Y-39771903D01*
X67502086Y-39819522D01*
X67644943Y-39819522D01*
X67740181Y-39771903D01*
X67787800Y-39724284D01*
X67835419Y-39629046D01*
X67835419Y-39248094D01*
X66835419Y-39248094D01*
X66835419Y-39581427D01*
X66883039Y-39676665D01*
X66930658Y-39724284D01*
X67025896Y-39771903D01*
X67121134Y-39771903D01*
X67216372Y-39724284D01*
X67263991Y-39676665D01*
X67311610Y-39581427D01*
X67311610Y-39248094D01*
D11*
X76623515Y-39678094D02*
X76623515Y-40211427D01*
X76623515Y-40135237D02*
X76661610Y-40173332D01*
X76737800Y-40211427D01*
X76852086Y-40211427D01*
X76928277Y-40173332D01*
X76966372Y-40097141D01*
X76966372Y-39678094D01*
X76966372Y-40097141D02*
X77004467Y-40173332D01*
X77080658Y-40211427D01*
X77194943Y-40211427D01*
X77271134Y-40173332D01*
X77309229Y-40097141D01*
X77309229Y-39678094D01*
X77804467Y-39678094D02*
X77728277Y-39716189D01*
X77690181Y-39754284D01*
X77652086Y-39830475D01*
X77652086Y-40059046D01*
X77690181Y-40135237D01*
X77728277Y-40173332D01*
X77804467Y-40211427D01*
X77918753Y-40211427D01*
X77994943Y-40173332D01*
X78033039Y-40135237D01*
X78071134Y-40059046D01*
X78071134Y-39830475D01*
X78033039Y-39754284D01*
X77994943Y-39716189D01*
X77918753Y-39678094D01*
X77804467Y-39678094D01*
X78375896Y-39716189D02*
X78452086Y-39678094D01*
X78604467Y-39678094D01*
X78680658Y-39716189D01*
X78718753Y-39792379D01*
X78718753Y-39830475D01*
X78680658Y-39906665D01*
X78604467Y-39944760D01*
X78490181Y-39944760D01*
X78413991Y-39982856D01*
X78375896Y-40059046D01*
X78375896Y-40097141D01*
X78413991Y-40173332D01*
X78490181Y-40211427D01*
X78604467Y-40211427D01*
X78680658Y-40173332D01*
X79061610Y-39678094D02*
X79061610Y-40211427D01*
X79061610Y-40478094D02*
X79023515Y-40439999D01*
X79061610Y-40401903D01*
X79099705Y-40439999D01*
X79061610Y-40478094D01*
X79061610Y-40401903D01*
D10*
X67579705Y-36721903D02*
X67579705Y-37198094D01*
X67865419Y-36626665D02*
X66865419Y-36959999D01*
X67865419Y-37293332D01*
X74365419Y-44823332D02*
X73698753Y-44823332D01*
X73889229Y-44823332D02*
X73793991Y-44870951D01*
X73746372Y-44918570D01*
X73698753Y-45013808D01*
X73698753Y-45109046D01*
X73698753Y-45870951D02*
X74365419Y-45870951D01*
X73698753Y-45442379D02*
X74222562Y-45442379D01*
X74317800Y-45489999D01*
X74365419Y-45585237D01*
X74365419Y-45728094D01*
X74317800Y-45823332D01*
X74270181Y-45870951D01*
X73698753Y-46347141D02*
X74365419Y-46347141D01*
X73793991Y-46347141D02*
X73746372Y-46394760D01*
X73698753Y-46489999D01*
X73698753Y-46632856D01*
X73746372Y-46728094D01*
X73841610Y-46775713D01*
X74365419Y-46775713D01*
X73698753Y-47680475D02*
X74508277Y-47680475D01*
X74603515Y-47632856D01*
X74651134Y-47585237D01*
X74698753Y-47489999D01*
X74698753Y-47347141D01*
X74651134Y-47251903D01*
X74317800Y-47680475D02*
X74365419Y-47585237D01*
X74365419Y-47394760D01*
X74317800Y-47299522D01*
X74270181Y-47251903D01*
X74174943Y-47204284D01*
X73889229Y-47204284D01*
X73793991Y-47251903D01*
X73746372Y-47299522D01*
X73698753Y-47394760D01*
X73698753Y-47585237D01*
X73746372Y-47680475D01*
X74317800Y-48537618D02*
X74365419Y-48442379D01*
X74365419Y-48251903D01*
X74317800Y-48156665D01*
X74222562Y-48109046D01*
X73841610Y-48109046D01*
X73746372Y-48156665D01*
X73698753Y-48251903D01*
X73698753Y-48442379D01*
X73746372Y-48537618D01*
X73841610Y-48585237D01*
X73936848Y-48585237D01*
X74032086Y-48109046D01*
X74365419Y-49013808D02*
X73698753Y-49013808D01*
X73889229Y-49013808D02*
X73793991Y-49061427D01*
X73746372Y-49109046D01*
X73698753Y-49204284D01*
X73698753Y-49299522D01*
X74648419Y-35942379D02*
X74648419Y-36513808D01*
X75648419Y-36228094D02*
X74648419Y-36228094D01*
X75648419Y-37323332D02*
X75648419Y-36847141D01*
X74648419Y-36847141D01*
X75124610Y-37656665D02*
X75124610Y-37989999D01*
X75648419Y-38132856D02*
X75648419Y-37656665D01*
X74648419Y-37656665D01*
X74648419Y-38132856D01*
X74648419Y-39037618D02*
X74648419Y-38561427D01*
X75124610Y-38513808D01*
X75076991Y-38561427D01*
X75029372Y-38656665D01*
X75029372Y-38894760D01*
X75076991Y-38989999D01*
X75124610Y-39037618D01*
X75219848Y-39085237D01*
X75457943Y-39085237D01*
X75553181Y-39037618D01*
X75600800Y-38989999D01*
X75648419Y-38894760D01*
X75648419Y-38656665D01*
X75600800Y-38561427D01*
X75553181Y-38513808D01*
X74648419Y-39704284D02*
X74648419Y-39799522D01*
X74696039Y-39894760D01*
X74743658Y-39942379D01*
X74838896Y-39989999D01*
X75029372Y-40037618D01*
X75267467Y-40037618D01*
X75457943Y-39989999D01*
X75553181Y-39942379D01*
X75600800Y-39894760D01*
X75648419Y-39799522D01*
X75648419Y-39704284D01*
X75600800Y-39609046D01*
X75553181Y-39561427D01*
X75457943Y-39513808D01*
X75267467Y-39466189D01*
X75029372Y-39466189D01*
X74838896Y-39513808D01*
X74743658Y-39561427D01*
X74696039Y-39609046D01*
X74648419Y-39704284D01*
X75648419Y-40989999D02*
X75648419Y-40418570D01*
X75648419Y-40704284D02*
X74648419Y-40704284D01*
X74791277Y-40609046D01*
X74886515Y-40513808D01*
X74934134Y-40418570D01*
X74743658Y-41370951D02*
X74696039Y-41418570D01*
X74648419Y-41513808D01*
X74648419Y-41751903D01*
X74696039Y-41847141D01*
X74743658Y-41894760D01*
X74838896Y-41942379D01*
X74934134Y-41942379D01*
X75076991Y-41894760D01*
X75648419Y-41323332D01*
X75648419Y-41942379D01*
X75124610Y-42704284D02*
X75172229Y-42847141D01*
X75219848Y-42894760D01*
X75315086Y-42942379D01*
X75457943Y-42942379D01*
X75553181Y-42894760D01*
X75600800Y-42847141D01*
X75648419Y-42751903D01*
X75648419Y-42370951D01*
X74648419Y-42370951D01*
X74648419Y-42704284D01*
X74696039Y-42799522D01*
X74743658Y-42847141D01*
X74838896Y-42894760D01*
X74934134Y-42894760D01*
X75029372Y-42847141D01*
X75076991Y-42799522D01*
X75124610Y-42704284D01*
X75124610Y-42370951D01*
X73898753Y-29861427D02*
X74565419Y-30099522D01*
X73898753Y-30337618D01*
X74565419Y-31242379D02*
X74565419Y-30670951D01*
X74565419Y-30956665D02*
X73565419Y-30956665D01*
X73708277Y-30861427D01*
X73803515Y-30766189D01*
X73851134Y-30670951D01*
X74470181Y-31670951D02*
X74517800Y-31718570D01*
X74565419Y-31670951D01*
X74517800Y-31623332D01*
X74470181Y-31670951D01*
X74565419Y-31670951D01*
X73565419Y-32337618D02*
X73565419Y-32432856D01*
X73613039Y-32528094D01*
X73660658Y-32575713D01*
X73755896Y-32623332D01*
X73946372Y-32670951D01*
X74184467Y-32670951D01*
X74374943Y-32623332D01*
X74470181Y-32575713D01*
X74517800Y-32528094D01*
X74565419Y-32432856D01*
X74565419Y-32337618D01*
X74517800Y-32242379D01*
X74470181Y-32194760D01*
X74374943Y-32147141D01*
X74184467Y-32099522D01*
X73946372Y-32099522D01*
X73755896Y-32147141D01*
X73660658Y-32194760D01*
X73613039Y-32242379D01*
X73565419Y-32337618D01*
X77242800Y-34041189D02*
X77290419Y-34184046D01*
X77290419Y-34422141D01*
X77242800Y-34517379D01*
X77195181Y-34564999D01*
X77099943Y-34612618D01*
X77004705Y-34612618D01*
X76909467Y-34564999D01*
X76861848Y-34517379D01*
X76814229Y-34422141D01*
X76766610Y-34231665D01*
X76718991Y-34136427D01*
X76671372Y-34088808D01*
X76576134Y-34041189D01*
X76480896Y-34041189D01*
X76385658Y-34088808D01*
X76338039Y-34136427D01*
X76290419Y-34231665D01*
X76290419Y-34469760D01*
X76338039Y-34612618D01*
X77290419Y-35041189D02*
X76290419Y-35041189D01*
X76290419Y-35422141D01*
X76338039Y-35517379D01*
X76385658Y-35564999D01*
X76480896Y-35612618D01*
X76623753Y-35612618D01*
X76718991Y-35564999D01*
X76766610Y-35517379D01*
X76814229Y-35422141D01*
X76814229Y-35041189D01*
X77290419Y-36041189D02*
X76290419Y-36041189D01*
D11*
X76623515Y-38678094D02*
X76623515Y-39211427D01*
X76623515Y-39135237D02*
X76661610Y-39173332D01*
X76737800Y-39211427D01*
X76852086Y-39211427D01*
X76928277Y-39173332D01*
X76966372Y-39097141D01*
X76966372Y-38678094D01*
X76966372Y-39097141D02*
X77004467Y-39173332D01*
X77080658Y-39211427D01*
X77194943Y-39211427D01*
X77271134Y-39173332D01*
X77309229Y-39097141D01*
X77309229Y-38678094D01*
X77690181Y-38678094D02*
X77690181Y-39211427D01*
X77690181Y-39478094D02*
X77652086Y-39439999D01*
X77690181Y-39401903D01*
X77728277Y-39439999D01*
X77690181Y-39478094D01*
X77690181Y-39401903D01*
X78033039Y-38716189D02*
X78109229Y-38678094D01*
X78261610Y-38678094D01*
X78337800Y-38716189D01*
X78375896Y-38792379D01*
X78375896Y-38830475D01*
X78337800Y-38906665D01*
X78261610Y-38944760D01*
X78147324Y-38944760D01*
X78071134Y-38982856D01*
X78033039Y-39059046D01*
X78033039Y-39097141D01*
X78071134Y-39173332D01*
X78147324Y-39211427D01*
X78261610Y-39211427D01*
X78337800Y-39173332D01*
X78833039Y-38678094D02*
X78756848Y-38716189D01*
X78718753Y-38754284D01*
X78680658Y-38830475D01*
X78680658Y-39059046D01*
X78718753Y-39135237D01*
X78756848Y-39173332D01*
X78833039Y-39211427D01*
X78947324Y-39211427D01*
X79023515Y-39173332D01*
X79061610Y-39135237D01*
X79099705Y-39059046D01*
X79099705Y-38830475D01*
X79061610Y-38754284D01*
X79023515Y-38716189D01*
X78947324Y-38678094D01*
X78833039Y-38678094D01*
X76966372Y-37716189D02*
X76890181Y-37678094D01*
X76737800Y-37678094D01*
X76661610Y-37716189D01*
X76623515Y-37754284D01*
X76585419Y-37830475D01*
X76585419Y-38059046D01*
X76623515Y-38135237D01*
X76661610Y-38173332D01*
X76737800Y-38211427D01*
X76890181Y-38211427D01*
X76966372Y-38173332D01*
X77423515Y-37678094D02*
X77347324Y-37716189D01*
X77309229Y-37792379D01*
X77309229Y-38478094D01*
X77728277Y-37678094D02*
X77728277Y-38478094D01*
X77804467Y-37982856D02*
X78033039Y-37678094D01*
X78033039Y-38211427D02*
X77728277Y-37906665D01*
X76547324Y-41211427D02*
X76737800Y-40678094D01*
X76928277Y-41211427D01*
X77575896Y-40716189D02*
X77499705Y-40678094D01*
X77347324Y-40678094D01*
X77271134Y-40716189D01*
X77233039Y-40754284D01*
X77194943Y-40830475D01*
X77194943Y-41059046D01*
X77233039Y-41135237D01*
X77271134Y-41173332D01*
X77347324Y-41211427D01*
X77499705Y-41211427D01*
X77575896Y-41173332D01*
X78261610Y-40716189D02*
X78185419Y-40678094D01*
X78033039Y-40678094D01*
X77956848Y-40716189D01*
X77918753Y-40754284D01*
X77880658Y-40830475D01*
X77880658Y-41059046D01*
X77918753Y-41135237D01*
X77956848Y-41173332D01*
X78033039Y-41211427D01*
X78185419Y-41211427D01*
X78261610Y-41173332D01*
X76966372Y-42311427D02*
X76966372Y-41663808D01*
X76928277Y-41587618D01*
X76890181Y-41549522D01*
X76813991Y-41511427D01*
X76699705Y-41511427D01*
X76623515Y-41549522D01*
X76966372Y-41816189D02*
X76890181Y-41778094D01*
X76737800Y-41778094D01*
X76661610Y-41816189D01*
X76623515Y-41854284D01*
X76585419Y-41930475D01*
X76585419Y-42159046D01*
X76623515Y-42235237D01*
X76661610Y-42273332D01*
X76737800Y-42311427D01*
X76890181Y-42311427D01*
X76966372Y-42273332D01*
X77347324Y-42311427D02*
X77347324Y-41778094D01*
X77347324Y-42235237D02*
X77385419Y-42273332D01*
X77461610Y-42311427D01*
X77575896Y-42311427D01*
X77652086Y-42273332D01*
X77690181Y-42197141D01*
X77690181Y-41778094D01*
X78413991Y-41778094D02*
X78413991Y-42578094D01*
X78413991Y-41816189D02*
X78337800Y-41778094D01*
X78185419Y-41778094D01*
X78109229Y-41816189D01*
X78071134Y-41854284D01*
X78033039Y-41930475D01*
X78033039Y-42159046D01*
X78071134Y-42235237D01*
X78109229Y-42273332D01*
X78185419Y-42311427D01*
X78337800Y-42311427D01*
X78413991Y-42273332D01*
X76966372Y-36716189D02*
X76890181Y-36678094D01*
X76737800Y-36678094D01*
X76661610Y-36716189D01*
X76623515Y-36754284D01*
X76585419Y-36830475D01*
X76585419Y-37059046D01*
X76623515Y-37135237D01*
X76661610Y-37173332D01*
X76737800Y-37211427D01*
X76890181Y-37211427D01*
X76966372Y-37173332D01*
X77271134Y-36716189D02*
X77347324Y-36678094D01*
X77499705Y-36678094D01*
X77575896Y-36716189D01*
X77613991Y-36792379D01*
X77613991Y-36830475D01*
X77575896Y-36906665D01*
X77499705Y-36944760D01*
X77385419Y-36944760D01*
X77309229Y-36982856D01*
X77271134Y-37059046D01*
X77271134Y-37097141D01*
X77309229Y-37173332D01*
X77385419Y-37211427D01*
X77499705Y-37211427D01*
X77575896Y-37173332D01*
X57361824Y-42222330D02*
X57438015Y-42184235D01*
X57590396Y-42184235D01*
X57666586Y-42222330D01*
X57742776Y-42298521D01*
X57780872Y-42374711D01*
X57780872Y-42527092D01*
X57742776Y-42603283D01*
X57666586Y-42679473D01*
X57590396Y-42717569D01*
X57438015Y-42717569D01*
X57361824Y-42679473D01*
X57514205Y-41917569D02*
X57704681Y-41955664D01*
X57895157Y-42069950D01*
X58009443Y-42260426D01*
X58047538Y-42450902D01*
X58009443Y-42641378D01*
X57895157Y-42831854D01*
X57704681Y-42946140D01*
X57514205Y-42984235D01*
X57323729Y-42946140D01*
X57133253Y-42831854D01*
X57018967Y-42641378D01*
X56980872Y-42450902D01*
X57018967Y-42260426D01*
X57133253Y-42069950D01*
X57323729Y-41955664D01*
X57514205Y-41917569D01*
X56638015Y-42831854D02*
X56638015Y-42298521D01*
X56638015Y-42450902D02*
X56599919Y-42374711D01*
X56561824Y-42336616D01*
X56485634Y-42298521D01*
X56409443Y-42298521D01*
X55799919Y-42298521D02*
X55799919Y-42831854D01*
X56142776Y-42298521D02*
X56142776Y-42717569D01*
X56104681Y-42793759D01*
X56028491Y-42831854D01*
X55914205Y-42831854D01*
X55838015Y-42793759D01*
X55799919Y-42755664D01*
X55418967Y-42298521D02*
X55418967Y-42831854D01*
X55418967Y-42374711D02*
X55380872Y-42336616D01*
X55304681Y-42298521D01*
X55190396Y-42298521D01*
X55114205Y-42336616D01*
X55076110Y-42412807D01*
X55076110Y-42831854D01*
X54352300Y-42298521D02*
X54352300Y-42946140D01*
X54390396Y-43022330D01*
X54428491Y-43060426D01*
X54504681Y-43098521D01*
X54618967Y-43098521D01*
X54695157Y-43060426D01*
X54352300Y-42793759D02*
X54428491Y-42831854D01*
X54580872Y-42831854D01*
X54657062Y-42793759D01*
X54695157Y-42755664D01*
X54733253Y-42679473D01*
X54733253Y-42450902D01*
X54695157Y-42374711D01*
X54657062Y-42336616D01*
X54580872Y-42298521D01*
X54428491Y-42298521D01*
X54352300Y-42336616D01*
X53666586Y-42793759D02*
X53742776Y-42831854D01*
X53895157Y-42831854D01*
X53971348Y-42793759D01*
X54009443Y-42717569D01*
X54009443Y-42412807D01*
X53971348Y-42336616D01*
X53895157Y-42298521D01*
X53742776Y-42298521D01*
X53666586Y-42336616D01*
X53628491Y-42412807D01*
X53628491Y-42488997D01*
X54009443Y-42565188D01*
X53285634Y-42831854D02*
X53285634Y-42298521D01*
X53285634Y-42450902D02*
X53247538Y-42374711D01*
X53209443Y-42336616D01*
X53133253Y-42298521D01*
X53057062Y-42298521D01*
D12*
X139512379Y-43519999D02*
G75*
G03*
X139512379Y-43519999I-63246J0D01*
G01*
X99871482Y-37889950D02*
X99396482Y-37889950D01*
X99396482Y-37889950D02*
X99396482Y-38364950D01*
X102141482Y-41109950D02*
X102616482Y-41109950D01*
X102616482Y-41109950D02*
X102616482Y-40634950D01*
X99871482Y-41109950D02*
X99396482Y-41109950D01*
X99396482Y-41109950D02*
X99396482Y-40634950D01*
X102141482Y-37889950D02*
X102616482Y-37889950D01*
D13*
G36*
X101548413Y-34072985D02*
G01*
X101475568Y-34041286D01*
X101396420Y-34025356D01*
X101349784Y-34024041D01*
X101285375Y-34029690D01*
X101232686Y-34043299D01*
X101185551Y-34067634D01*
X101137810Y-34105464D01*
X101110677Y-34131408D01*
X101076422Y-34166712D01*
X101053334Y-34194269D01*
X101037384Y-34219817D01*
X101024540Y-34249099D01*
X101020611Y-34259690D01*
X101002477Y-34337856D01*
X101001484Y-34420317D01*
X101017658Y-34500409D01*
X101019569Y-34506146D01*
X101046870Y-34563159D01*
X101087297Y-34619426D01*
X101135523Y-34668696D01*
X101186226Y-34704712D01*
X101190560Y-34707003D01*
X101266417Y-34735014D01*
X101348336Y-34746101D01*
X101431001Y-34740178D01*
X101509101Y-34717162D01*
X101520036Y-34712257D01*
X101571401Y-34679676D01*
X101618087Y-34636481D01*
X101442243Y-34460637D01*
X101414434Y-34484582D01*
X101389221Y-34495539D01*
X101370050Y-34497701D01*
X101324539Y-34490181D01*
X101286016Y-34467168D01*
X101258772Y-34432443D01*
X101247094Y-34389784D01*
X101247070Y-34389328D01*
X101253848Y-34345794D01*
X101275976Y-34309169D01*
X101309294Y-34283016D01*
X101349640Y-34270902D01*
X101382514Y-34273295D01*
X101428080Y-34293293D01*
X101459523Y-34326518D01*
X101474766Y-34370581D01*
X101475676Y-34380280D01*
X101475249Y-34409762D01*
X101467320Y-34431515D01*
X101448065Y-34454734D01*
X101442243Y-34460637D01*
X101618087Y-34636481D01*
X101621646Y-34633190D01*
X101665518Y-34578792D01*
X101697762Y-34522471D01*
X101706622Y-34499530D01*
X101723303Y-34415591D01*
X101720164Y-34331136D01*
X101697521Y-34248371D01*
X101660207Y-34176341D01*
X101611207Y-34118615D01*
X101548413Y-34072985D01*
G37*
X101548413Y-34072985D02*
X101475568Y-34041286D01*
X101396420Y-34025356D01*
X101349784Y-34024041D01*
X101285375Y-34029690D01*
X101232686Y-34043299D01*
X101185551Y-34067634D01*
X101137810Y-34105464D01*
X101110677Y-34131408D01*
X101076422Y-34166712D01*
X101053334Y-34194269D01*
X101037384Y-34219817D01*
X101024540Y-34249099D01*
X101020611Y-34259690D01*
X101002477Y-34337856D01*
X101001484Y-34420317D01*
X101017658Y-34500409D01*
X101019569Y-34506146D01*
X101046870Y-34563159D01*
X101087297Y-34619426D01*
X101135523Y-34668696D01*
X101186226Y-34704712D01*
X101190560Y-34707003D01*
X101266417Y-34735014D01*
X101348336Y-34746101D01*
X101431001Y-34740178D01*
X101509101Y-34717162D01*
X101520036Y-34712257D01*
X101571401Y-34679676D01*
X101618087Y-34636481D01*
X101442243Y-34460637D01*
X101414434Y-34484582D01*
X101389221Y-34495539D01*
X101370050Y-34497701D01*
X101324539Y-34490181D01*
X101286016Y-34467168D01*
X101258772Y-34432443D01*
X101247094Y-34389784D01*
X101247070Y-34389328D01*
X101253848Y-34345794D01*
X101275976Y-34309169D01*
X101309294Y-34283016D01*
X101349640Y-34270902D01*
X101382514Y-34273295D01*
X101428080Y-34293293D01*
X101459523Y-34326518D01*
X101474766Y-34370581D01*
X101475676Y-34380280D01*
X101475249Y-34409762D01*
X101467320Y-34431515D01*
X101448065Y-34454734D01*
X101442243Y-34460637D01*
X101618087Y-34636481D01*
X101621646Y-34633190D01*
X101665518Y-34578792D01*
X101697762Y-34522471D01*
X101706622Y-34499530D01*
X101723303Y-34415591D01*
X101720164Y-34331136D01*
X101697521Y-34248371D01*
X101660207Y-34176341D01*
X101611207Y-34118615D01*
X101548413Y-34072985D01*
G36*
X102854852Y-35367853D02*
G01*
X102826466Y-35346404D01*
X102795186Y-35330220D01*
X102760670Y-35316852D01*
X102673679Y-35295593D01*
X102587505Y-35294605D01*
X102515604Y-35309542D01*
X102487775Y-35319057D01*
X102465112Y-35330014D01*
X102442774Y-35345805D01*
X102415914Y-35369822D01*
X102382206Y-35402936D01*
X102348013Y-35437638D01*
X102325011Y-35463325D01*
X102309807Y-35485130D01*
X102299006Y-35508182D01*
X102289213Y-35537617D01*
X102285966Y-35548459D01*
X102270345Y-35633977D01*
X102274346Y-35716972D01*
X102297540Y-35795517D01*
X102339506Y-35867691D01*
X102362743Y-35895771D01*
X102394509Y-35927209D01*
X102428624Y-35955721D01*
X102453623Y-35972641D01*
X102528840Y-36003449D01*
X102610033Y-36016433D01*
X102693204Y-36011467D01*
X102774357Y-35988432D01*
X102787461Y-35982803D01*
X102841080Y-35950078D01*
X102877044Y-35917803D01*
X102703270Y-35744028D01*
X102667357Y-35763941D01*
X102628229Y-35768962D01*
X102589869Y-35760133D01*
X102556252Y-35738495D01*
X102531358Y-35705089D01*
X102519169Y-35660956D01*
X102518643Y-35652365D01*
X102526180Y-35610771D01*
X102548620Y-35577228D01*
X102581490Y-35553655D01*
X102620322Y-35541974D01*
X102660644Y-35544102D01*
X102697987Y-35561960D01*
X102708234Y-35570965D01*
X102735543Y-35610791D01*
X102745128Y-35655204D01*
X102736180Y-35699539D01*
X102731991Y-35708184D01*
X102703270Y-35744028D01*
X102877044Y-35917803D01*
X102892982Y-35903501D01*
X102937463Y-35849146D01*
X102968818Y-35793087D01*
X102971189Y-35787159D01*
X102987281Y-35723031D01*
X102991819Y-35650506D01*
X102984839Y-35577874D01*
X102969954Y-35522436D01*
X102953551Y-35483453D01*
X102934795Y-35452130D01*
X102908400Y-35420528D01*
X102888300Y-35399736D01*
X102854852Y-35367853D01*
G37*
X102854852Y-35367853D02*
X102826466Y-35346404D01*
X102795186Y-35330220D01*
X102760670Y-35316852D01*
X102673679Y-35295593D01*
X102587505Y-35294605D01*
X102515604Y-35309542D01*
X102487775Y-35319057D01*
X102465112Y-35330014D01*
X102442774Y-35345805D01*
X102415914Y-35369822D01*
X102382206Y-35402936D01*
X102348013Y-35437638D01*
X102325011Y-35463325D01*
X102309807Y-35485130D01*
X102299006Y-35508182D01*
X102289213Y-35537617D01*
X102285966Y-35548459D01*
X102270345Y-35633977D01*
X102274346Y-35716972D01*
X102297540Y-35795517D01*
X102339506Y-35867691D01*
X102362743Y-35895771D01*
X102394509Y-35927209D01*
X102428624Y-35955721D01*
X102453623Y-35972641D01*
X102528840Y-36003449D01*
X102610033Y-36016433D01*
X102693204Y-36011467D01*
X102774357Y-35988432D01*
X102787461Y-35982803D01*
X102841080Y-35950078D01*
X102877044Y-35917803D01*
X102703270Y-35744028D01*
X102667357Y-35763941D01*
X102628229Y-35768962D01*
X102589869Y-35760133D01*
X102556252Y-35738495D01*
X102531358Y-35705089D01*
X102519169Y-35660956D01*
X102518643Y-35652365D01*
X102526180Y-35610771D01*
X102548620Y-35577228D01*
X102581490Y-35553655D01*
X102620322Y-35541974D01*
X102660644Y-35544102D01*
X102697987Y-35561960D01*
X102708234Y-35570965D01*
X102735543Y-35610791D01*
X102745128Y-35655204D01*
X102736180Y-35699539D01*
X102731991Y-35708184D01*
X102703270Y-35744028D01*
X102877044Y-35917803D01*
X102892982Y-35903501D01*
X102937463Y-35849146D01*
X102968818Y-35793087D01*
X102971189Y-35787159D01*
X102987281Y-35723031D01*
X102991819Y-35650506D01*
X102984839Y-35577874D01*
X102969954Y-35522436D01*
X102953551Y-35483453D01*
X102934795Y-35452130D01*
X102908400Y-35420528D01*
X102888300Y-35399736D01*
X102854852Y-35367853D01*
G36*
X101395423Y-35465944D02*
G01*
X101343627Y-35415451D01*
X101296781Y-35370583D01*
X101257069Y-35333528D01*
X101226673Y-35306466D01*
X101207778Y-35291582D01*
X101206005Y-35290497D01*
X101159641Y-35274963D01*
X101112969Y-35278498D01*
X101070501Y-35300494D01*
X101059656Y-35310198D01*
X101038933Y-35335024D01*
X101028837Y-35361326D01*
X101025523Y-35393503D01*
X101023274Y-35444924D01*
X101286083Y-35711272D01*
X101356113Y-35782095D01*
X101413478Y-35839709D01*
X101459652Y-35885497D01*
X101496110Y-35920844D01*
X101524329Y-35947131D01*
X101545782Y-35965742D01*
X101561946Y-35978062D01*
X101574294Y-35985472D01*
X101581769Y-35988585D01*
X101626765Y-35993898D01*
X101669940Y-35982271D01*
X101706641Y-35956734D01*
X101732208Y-35920318D01*
X101741589Y-35884577D01*
X101738875Y-35848378D01*
X101727632Y-35813615D01*
X101725936Y-35810428D01*
X101713154Y-35793529D01*
X101687853Y-35764789D01*
X101652217Y-35726390D01*
X101608427Y-35680515D01*
X101558670Y-35629350D01*
X101505127Y-35575077D01*
X101449984Y-35519881D01*
X101395423Y-35465944D01*
G37*
X101395423Y-35465944D02*
X101343627Y-35415451D01*
X101296781Y-35370583D01*
X101257069Y-35333528D01*
X101226673Y-35306466D01*
X101207778Y-35291582D01*
X101206005Y-35290497D01*
X101159641Y-35274963D01*
X101112969Y-35278498D01*
X101070501Y-35300494D01*
X101059656Y-35310198D01*
X101038933Y-35335024D01*
X101028837Y-35361326D01*
X101025523Y-35393503D01*
X101023274Y-35444924D01*
X101286083Y-35711272D01*
X101356113Y-35782095D01*
X101413478Y-35839709D01*
X101459652Y-35885497D01*
X101496110Y-35920844D01*
X101524329Y-35947131D01*
X101545782Y-35965742D01*
X101561946Y-35978062D01*
X101574294Y-35985472D01*
X101581769Y-35988585D01*
X101626765Y-35993898D01*
X101669940Y-35982271D01*
X101706641Y-35956734D01*
X101732208Y-35920318D01*
X101741589Y-35884577D01*
X101738875Y-35848378D01*
X101727632Y-35813615D01*
X101725936Y-35810428D01*
X101713154Y-35793529D01*
X101687853Y-35764789D01*
X101652217Y-35726390D01*
X101608427Y-35680515D01*
X101558670Y-35629350D01*
X101505127Y-35575077D01*
X101449984Y-35519881D01*
X101395423Y-35465944D01*
G36*
X103625059Y-33253045D02*
G01*
X103543242Y-33209450D01*
X103453130Y-33183990D01*
X103353456Y-33176175D01*
X103340413Y-33176410D01*
X103253393Y-33185870D01*
X103175368Y-33210141D01*
X103103065Y-33250808D01*
X103033207Y-33309454D01*
X103004860Y-33338687D01*
X102972201Y-33375104D01*
X102949879Y-33403873D01*
X102933813Y-33431664D01*
X102919921Y-33465146D01*
X102909810Y-33494049D01*
X102886594Y-33589679D01*
X102883092Y-33682977D01*
X102899321Y-33776610D01*
X102912003Y-33816617D01*
X102942184Y-33901048D01*
X102829228Y-34014394D01*
X102716271Y-34127740D01*
X102365917Y-33777634D01*
X102279650Y-33691543D01*
X102206164Y-33618598D01*
X102143943Y-33557504D01*
X102091475Y-33506965D01*
X102047245Y-33465684D01*
X102009739Y-33432370D01*
X101977442Y-33405723D01*
X101948840Y-33384451D01*
X101922420Y-33367256D01*
X101896666Y-33352844D01*
X101870066Y-33339919D01*
X101841103Y-33327187D01*
X101837683Y-33325732D01*
X101747386Y-33293207D01*
X101657549Y-33273752D01*
X101559792Y-33265679D01*
X101537699Y-33265273D01*
X101412746Y-33273684D01*
X101294655Y-33301219D01*
X101198570Y-33340204D01*
X101141069Y-33372229D01*
X101080030Y-33412365D01*
X101022953Y-33455342D01*
X100977974Y-33495250D01*
X100958757Y-33512262D01*
X100943834Y-33514959D01*
X100923958Y-33504176D01*
X100918748Y-33500594D01*
X100876074Y-33477199D01*
X100819639Y-33454964D01*
X100755988Y-33435851D01*
X100691664Y-33421815D01*
X100633210Y-33414814D01*
X100631780Y-33414742D01*
X100535397Y-33417571D01*
X100436846Y-33434020D01*
X100344378Y-33462478D01*
X100308808Y-33477876D01*
X100243209Y-33516496D01*
X100176052Y-33568594D01*
X100113307Y-33628778D01*
X100060944Y-33691650D01*
X100043323Y-33717817D01*
X99994363Y-33815506D01*
X99962872Y-33920540D01*
X99948960Y-34029709D01*
X99952737Y-34139800D01*
X99974312Y-34247602D01*
X100013793Y-34349902D01*
X100021394Y-34364814D01*
X100035486Y-34395497D01*
X100043279Y-34420494D01*
X100043666Y-34431244D01*
X100035418Y-34446330D01*
X100018444Y-34472197D01*
X99996301Y-34503438D01*
X99994670Y-34505658D01*
X99936493Y-34601407D01*
X99894809Y-34706624D01*
X99869798Y-34818666D01*
X99861638Y-34934886D01*
X99870510Y-35052640D01*
X99896591Y-35169281D01*
X99940063Y-35282165D01*
X99941787Y-35285778D01*
X99979089Y-35363423D01*
X100796775Y-36183736D01*
X100927900Y-36315224D01*
X101045467Y-36432980D01*
X101150208Y-36537724D01*
X101242854Y-36630173D01*
X101324136Y-36711044D01*
X101394786Y-36781056D01*
X101455536Y-36840925D01*
X101507116Y-36891369D01*
X101550256Y-36933106D01*
X101585689Y-36966853D01*
X101614148Y-36993327D01*
X101636361Y-37013248D01*
X101653060Y-37027330D01*
X101664979Y-37036292D01*
X101667056Y-37037664D01*
X101769423Y-37091830D01*
X101879023Y-37129355D01*
X101993001Y-37150293D01*
X102108503Y-37154697D01*
X102222676Y-37142622D01*
X102332667Y-37114121D01*
X102435620Y-37069248D01*
X102510775Y-37021763D01*
X102542187Y-36999394D01*
X102568599Y-36981948D01*
X102584605Y-36972984D01*
X102585189Y-36972767D01*
X102601684Y-36974492D01*
X102628873Y-36984195D01*
X102651618Y-36995039D01*
X102739409Y-37033385D01*
X102830902Y-37056673D01*
X102931663Y-37066193D01*
X102960362Y-37066572D01*
X103072089Y-37058579D01*
X103173185Y-37034292D01*
X103265880Y-36992719D01*
X103352402Y-36932864D01*
X103425069Y-36863482D01*
X103252509Y-36690922D01*
X103192602Y-36744171D01*
X103191738Y-36744766D01*
X103110806Y-36789636D01*
X103027259Y-36815421D01*
X102955177Y-36821841D01*
X102913116Y-36818892D01*
X102868909Y-36811972D01*
X102828622Y-36802441D01*
X102798324Y-36791652D01*
X102786323Y-36784093D01*
X102792023Y-36775955D01*
X102810606Y-36755125D01*
X102840523Y-36723218D01*
X102880227Y-36681846D01*
X102928166Y-36632625D01*
X102982794Y-36577166D01*
X103042559Y-36517083D01*
X103046745Y-36512896D01*
X103107043Y-36452798D01*
X103162750Y-36397659D01*
X103212263Y-36349036D01*
X103253980Y-36308489D01*
X103254573Y-36307921D01*
X103072424Y-36125772D01*
X102968900Y-36228998D01*
X102875905Y-36321392D01*
X102357061Y-36836185D01*
X102298182Y-36861220D01*
X102197559Y-36893676D01*
X102095873Y-36906654D01*
X101995245Y-36900333D01*
X101897798Y-36874891D01*
X101805653Y-36830506D01*
X101786075Y-36818066D01*
X101773124Y-36807046D01*
X101747046Y-36782745D01*
X101709003Y-36746329D01*
X101660163Y-36698961D01*
X101601690Y-36641806D01*
X101534749Y-36576026D01*
X101460504Y-36502788D01*
X101380121Y-36423254D01*
X101294764Y-36338587D01*
X101205600Y-36249953D01*
X101113791Y-36158516D01*
X101020504Y-36065438D01*
X100926903Y-35971885D01*
X100834152Y-35879020D01*
X100743418Y-35788008D01*
X100655865Y-35700010D01*
X100572659Y-35616194D01*
X100494962Y-35537721D01*
X100423941Y-35465757D01*
X100360762Y-35401465D01*
X100306588Y-35346009D01*
X100262584Y-35300552D01*
X100229916Y-35266260D01*
X100209748Y-35244296D01*
X100203855Y-35237123D01*
X100153098Y-35145390D01*
X100121626Y-35048541D01*
X100109603Y-34948349D01*
X100117197Y-34846588D01*
X100144572Y-34745026D01*
X100155213Y-34718251D01*
X100180247Y-34659371D01*
X100688836Y-34146782D01*
X100507639Y-33965585D01*
X100236752Y-34236471D01*
X100225286Y-34215609D01*
X100217338Y-34194815D01*
X100208214Y-34161754D01*
X100201150Y-34129723D01*
X100194136Y-34044323D01*
X100205601Y-33962458D01*
X100233751Y-33886242D01*
X100276791Y-33817791D01*
X100332930Y-33759219D01*
X100400373Y-33712643D01*
X100477330Y-33680177D01*
X100562006Y-33663937D01*
X100597247Y-33662457D01*
X100631943Y-33664856D01*
X100672291Y-33671116D01*
X100712005Y-33679834D01*
X100744797Y-33689606D01*
X100764383Y-33699026D01*
X100765521Y-33700041D01*
X100759468Y-33707829D01*
X100740556Y-33728336D01*
X100710345Y-33759961D01*
X100670390Y-33801101D01*
X100622250Y-33850153D01*
X100567480Y-33905515D01*
X100507639Y-33965585D01*
X100688836Y-34146782D01*
X100695041Y-34140528D01*
X100813633Y-34021234D01*
X100918172Y-33916567D01*
X101008682Y-33826501D01*
X101085189Y-33751014D01*
X101147718Y-33690078D01*
X101196294Y-33643672D01*
X101230944Y-33611767D01*
X101251691Y-33594340D01*
X101254313Y-33592499D01*
X101338284Y-33549218D01*
X101430417Y-33522887D01*
X101527427Y-33513673D01*
X101626027Y-33521738D01*
X101722933Y-33547246D01*
X101770161Y-33566798D01*
X101832614Y-33596109D01*
X102585449Y-34344772D01*
X102715061Y-34473813D01*
X102834932Y-34593453D01*
X102944562Y-34703188D01*
X103043450Y-34802509D01*
X103131097Y-34890912D01*
X103207003Y-34967890D01*
X103270667Y-35032934D01*
X103321589Y-35085541D01*
X103359269Y-35125202D01*
X103383207Y-35151413D01*
X103390168Y-35159697D01*
X103444237Y-35240744D01*
X103480240Y-35324336D01*
X103499616Y-35414773D01*
X103504096Y-35499439D01*
X103496953Y-35568612D01*
X103478247Y-35643120D01*
X103450729Y-35713878D01*
X103425059Y-35760405D01*
X103412093Y-35776830D01*
X103387240Y-35804581D01*
X103350151Y-35844019D01*
X103300474Y-35895498D01*
X103237861Y-35959379D01*
X103161961Y-36036018D01*
X103072424Y-36125772D01*
X103254573Y-36307921D01*
X103286293Y-36277576D01*
X103307601Y-36257855D01*
X103316299Y-36250884D01*
X103316391Y-36250912D01*
X103321432Y-36261935D01*
X103330311Y-36286199D01*
X103337377Y-36307143D01*
X103353306Y-36386709D01*
X103351500Y-36468728D01*
X103333242Y-36549342D01*
X103299817Y-36624693D01*
X103252509Y-36690922D01*
X103425069Y-36863482D01*
X103432930Y-36855976D01*
X103503727Y-36765856D01*
X103555183Y-36670166D01*
X103587727Y-36567730D01*
X103601787Y-36457367D01*
X103601699Y-36390593D01*
X103594973Y-36328741D01*
X103581046Y-36261948D01*
X103561793Y-36196650D01*
X103539090Y-36139285D01*
X103516661Y-36098888D01*
X103495411Y-36068283D01*
X103552404Y-36001798D01*
X103618468Y-35917267D01*
X103668761Y-35835266D01*
X103704922Y-35754687D01*
X103738332Y-35637476D01*
X103752590Y-35516390D01*
X103747762Y-35394151D01*
X103723915Y-35273481D01*
X103690701Y-35178750D01*
X103677909Y-35149431D01*
X103665070Y-35122643D01*
X103650887Y-35096871D01*
X103634065Y-35070599D01*
X103613307Y-35042314D01*
X103587320Y-35010501D01*
X103554807Y-34973647D01*
X103514474Y-34930236D01*
X103465024Y-34878755D01*
X103405163Y-34817690D01*
X103333594Y-34745526D01*
X103249023Y-34660749D01*
X103238798Y-34650515D01*
X102888692Y-34300161D01*
X103115385Y-34074249D01*
X103199815Y-34104430D01*
X103294384Y-34128939D01*
X103387498Y-34133708D01*
X103481825Y-34118758D01*
X103522384Y-34106623D01*
X103563402Y-34091907D01*
X103594262Y-34077747D01*
X103621639Y-34060063D01*
X103652199Y-34034774D01*
X103677746Y-34011573D01*
X103684357Y-34004491D01*
X103512344Y-33832478D01*
X103485366Y-33851673D01*
X103448277Y-33867990D01*
X103445476Y-33869037D01*
X103377588Y-33884389D01*
X103312018Y-33880483D01*
X103251563Y-33858377D01*
X103199021Y-33819128D01*
X103157190Y-33763792D01*
X103154645Y-33759175D01*
X103135944Y-33704981D01*
X103132019Y-33643625D01*
X103143086Y-33582117D01*
X103148692Y-33566345D01*
X103181569Y-33509504D01*
X103227948Y-33465812D01*
X103284599Y-33436885D01*
X103348292Y-33424337D01*
X103415796Y-33429786D01*
X103419760Y-33430688D01*
X103455007Y-33440868D01*
X103482175Y-33454838D01*
X103509717Y-33477544D01*
X103524494Y-33491938D01*
X103552749Y-33522411D01*
X103570040Y-33548700D01*
X103581314Y-33579263D01*
X103585744Y-33596672D01*
X103591999Y-33665493D01*
X103578841Y-33732006D01*
X103547079Y-33792676D01*
X103538457Y-33803932D01*
X103512344Y-33832478D01*
X103684357Y-34004491D01*
X103746458Y-33937958D01*
X103795764Y-33861060D01*
X103826535Y-33778924D01*
X103839643Y-33689595D01*
X103840033Y-33647266D01*
X103829915Y-33550888D01*
X103804493Y-33466018D01*
X103762369Y-33389351D01*
X103702151Y-33317579D01*
X103699845Y-33315261D01*
X103625059Y-33253045D01*
G37*
X103625059Y-33253045D02*
X103543242Y-33209450D01*
X103453130Y-33183990D01*
X103353456Y-33176175D01*
X103340413Y-33176410D01*
X103253393Y-33185870D01*
X103175368Y-33210141D01*
X103103065Y-33250808D01*
X103033207Y-33309454D01*
X103004860Y-33338687D01*
X102972201Y-33375104D01*
X102949879Y-33403873D01*
X102933813Y-33431664D01*
X102919921Y-33465146D01*
X102909810Y-33494049D01*
X102886594Y-33589679D01*
X102883092Y-33682977D01*
X102899321Y-33776610D01*
X102912003Y-33816617D01*
X102942184Y-33901048D01*
X102829228Y-34014394D01*
X102716271Y-34127740D01*
X102365917Y-33777634D01*
X102279650Y-33691543D01*
X102206164Y-33618598D01*
X102143943Y-33557504D01*
X102091475Y-33506965D01*
X102047245Y-33465684D01*
X102009739Y-33432370D01*
X101977442Y-33405723D01*
X101948840Y-33384451D01*
X101922420Y-33367256D01*
X101896666Y-33352844D01*
X101870066Y-33339919D01*
X101841103Y-33327187D01*
X101837683Y-33325732D01*
X101747386Y-33293207D01*
X101657549Y-33273752D01*
X101559792Y-33265679D01*
X101537699Y-33265273D01*
X101412746Y-33273684D01*
X101294655Y-33301219D01*
X101198570Y-33340204D01*
X101141069Y-33372229D01*
X101080030Y-33412365D01*
X101022953Y-33455342D01*
X100977974Y-33495250D01*
X100958757Y-33512262D01*
X100943834Y-33514959D01*
X100923958Y-33504176D01*
X100918748Y-33500594D01*
X100876074Y-33477199D01*
X100819639Y-33454964D01*
X100755988Y-33435851D01*
X100691664Y-33421815D01*
X100633210Y-33414814D01*
X100631780Y-33414742D01*
X100535397Y-33417571D01*
X100436846Y-33434020D01*
X100344378Y-33462478D01*
X100308808Y-33477876D01*
X100243209Y-33516496D01*
X100176052Y-33568594D01*
X100113307Y-33628778D01*
X100060944Y-33691650D01*
X100043323Y-33717817D01*
X99994363Y-33815506D01*
X99962872Y-33920540D01*
X99948960Y-34029709D01*
X99952737Y-34139800D01*
X99974312Y-34247602D01*
X100013793Y-34349902D01*
X100021394Y-34364814D01*
X100035486Y-34395497D01*
X100043279Y-34420494D01*
X100043666Y-34431244D01*
X100035418Y-34446330D01*
X100018444Y-34472197D01*
X99996301Y-34503438D01*
X99994670Y-34505658D01*
X99936493Y-34601407D01*
X99894809Y-34706624D01*
X99869798Y-34818666D01*
X99861638Y-34934886D01*
X99870510Y-35052640D01*
X99896591Y-35169281D01*
X99940063Y-35282165D01*
X99941787Y-35285778D01*
X99979089Y-35363423D01*
X100796775Y-36183736D01*
X100927900Y-36315224D01*
X101045467Y-36432980D01*
X101150208Y-36537724D01*
X101242854Y-36630173D01*
X101324136Y-36711044D01*
X101394786Y-36781056D01*
X101455536Y-36840925D01*
X101507116Y-36891369D01*
X101550256Y-36933106D01*
X101585689Y-36966853D01*
X101614148Y-36993327D01*
X101636361Y-37013248D01*
X101653060Y-37027330D01*
X101664979Y-37036292D01*
X101667056Y-37037664D01*
X101769423Y-37091830D01*
X101879023Y-37129355D01*
X101993001Y-37150293D01*
X102108503Y-37154697D01*
X102222676Y-37142622D01*
X102332667Y-37114121D01*
X102435620Y-37069248D01*
X102510775Y-37021763D01*
X102542187Y-36999394D01*
X102568599Y-36981948D01*
X102584605Y-36972984D01*
X102585189Y-36972767D01*
X102601684Y-36974492D01*
X102628873Y-36984195D01*
X102651618Y-36995039D01*
X102739409Y-37033385D01*
X102830902Y-37056673D01*
X102931663Y-37066193D01*
X102960362Y-37066572D01*
X103072089Y-37058579D01*
X103173185Y-37034292D01*
X103265880Y-36992719D01*
X103352402Y-36932864D01*
X103425069Y-36863482D01*
X103252509Y-36690922D01*
X103192602Y-36744171D01*
X103191738Y-36744766D01*
X103110806Y-36789636D01*
X103027259Y-36815421D01*
X102955177Y-36821841D01*
X102913116Y-36818892D01*
X102868909Y-36811972D01*
X102828622Y-36802441D01*
X102798324Y-36791652D01*
X102786323Y-36784093D01*
X102792023Y-36775955D01*
X102810606Y-36755125D01*
X102840523Y-36723218D01*
X102880227Y-36681846D01*
X102928166Y-36632625D01*
X102982794Y-36577166D01*
X103042559Y-36517083D01*
X103046745Y-36512896D01*
X103107043Y-36452798D01*
X103162750Y-36397659D01*
X103212263Y-36349036D01*
X103253980Y-36308489D01*
X103254573Y-36307921D01*
X103072424Y-36125772D01*
X102968900Y-36228998D01*
X102875905Y-36321392D01*
X102357061Y-36836185D01*
X102298182Y-36861220D01*
X102197559Y-36893676D01*
X102095873Y-36906654D01*
X101995245Y-36900333D01*
X101897798Y-36874891D01*
X101805653Y-36830506D01*
X101786075Y-36818066D01*
X101773124Y-36807046D01*
X101747046Y-36782745D01*
X101709003Y-36746329D01*
X101660163Y-36698961D01*
X101601690Y-36641806D01*
X101534749Y-36576026D01*
X101460504Y-36502788D01*
X101380121Y-36423254D01*
X101294764Y-36338587D01*
X101205600Y-36249953D01*
X101113791Y-36158516D01*
X101020504Y-36065438D01*
X100926903Y-35971885D01*
X100834152Y-35879020D01*
X100743418Y-35788008D01*
X100655865Y-35700010D01*
X100572659Y-35616194D01*
X100494962Y-35537721D01*
X100423941Y-35465757D01*
X100360762Y-35401465D01*
X100306588Y-35346009D01*
X100262584Y-35300552D01*
X100229916Y-35266260D01*
X100209748Y-35244296D01*
X100203855Y-35237123D01*
X100153098Y-35145390D01*
X100121626Y-35048541D01*
X100109603Y-34948349D01*
X100117197Y-34846588D01*
X100144572Y-34745026D01*
X100155213Y-34718251D01*
X100180247Y-34659371D01*
X100688836Y-34146782D01*
X100507639Y-33965585D01*
X100236752Y-34236471D01*
X100225286Y-34215609D01*
X100217338Y-34194815D01*
X100208214Y-34161754D01*
X100201150Y-34129723D01*
X100194136Y-34044323D01*
X100205601Y-33962458D01*
X100233751Y-33886242D01*
X100276791Y-33817791D01*
X100332930Y-33759219D01*
X100400373Y-33712643D01*
X100477330Y-33680177D01*
X100562006Y-33663937D01*
X100597247Y-33662457D01*
X100631943Y-33664856D01*
X100672291Y-33671116D01*
X100712005Y-33679834D01*
X100744797Y-33689606D01*
X100764383Y-33699026D01*
X100765521Y-33700041D01*
X100759468Y-33707829D01*
X100740556Y-33728336D01*
X100710345Y-33759961D01*
X100670390Y-33801101D01*
X100622250Y-33850153D01*
X100567480Y-33905515D01*
X100507639Y-33965585D01*
X100688836Y-34146782D01*
X100695041Y-34140528D01*
X100813633Y-34021234D01*
X100918172Y-33916567D01*
X101008682Y-33826501D01*
X101085189Y-33751014D01*
X101147718Y-33690078D01*
X101196294Y-33643672D01*
X101230944Y-33611767D01*
X101251691Y-33594340D01*
X101254313Y-33592499D01*
X101338284Y-33549218D01*
X101430417Y-33522887D01*
X101527427Y-33513673D01*
X101626027Y-33521738D01*
X101722933Y-33547246D01*
X101770161Y-33566798D01*
X101832614Y-33596109D01*
X102585449Y-34344772D01*
X102715061Y-34473813D01*
X102834932Y-34593453D01*
X102944562Y-34703188D01*
X103043450Y-34802509D01*
X103131097Y-34890912D01*
X103207003Y-34967890D01*
X103270667Y-35032934D01*
X103321589Y-35085541D01*
X103359269Y-35125202D01*
X103383207Y-35151413D01*
X103390168Y-35159697D01*
X103444237Y-35240744D01*
X103480240Y-35324336D01*
X103499616Y-35414773D01*
X103504096Y-35499439D01*
X103496953Y-35568612D01*
X103478247Y-35643120D01*
X103450729Y-35713878D01*
X103425059Y-35760405D01*
X103412093Y-35776830D01*
X103387240Y-35804581D01*
X103350151Y-35844019D01*
X103300474Y-35895498D01*
X103237861Y-35959379D01*
X103161961Y-36036018D01*
X103072424Y-36125772D01*
X103254573Y-36307921D01*
X103286293Y-36277576D01*
X103307601Y-36257855D01*
X103316299Y-36250884D01*
X103316391Y-36250912D01*
X103321432Y-36261935D01*
X103330311Y-36286199D01*
X103337377Y-36307143D01*
X103353306Y-36386709D01*
X103351500Y-36468728D01*
X103333242Y-36549342D01*
X103299817Y-36624693D01*
X103252509Y-36690922D01*
X103425069Y-36863482D01*
X103432930Y-36855976D01*
X103503727Y-36765856D01*
X103555183Y-36670166D01*
X103587727Y-36567730D01*
X103601787Y-36457367D01*
X103601699Y-36390593D01*
X103594973Y-36328741D01*
X103581046Y-36261948D01*
X103561793Y-36196650D01*
X103539090Y-36139285D01*
X103516661Y-36098888D01*
X103495411Y-36068283D01*
X103552404Y-36001798D01*
X103618468Y-35917267D01*
X103668761Y-35835266D01*
X103704922Y-35754687D01*
X103738332Y-35637476D01*
X103752590Y-35516390D01*
X103747762Y-35394151D01*
X103723915Y-35273481D01*
X103690701Y-35178750D01*
X103677909Y-35149431D01*
X103665070Y-35122643D01*
X103650887Y-35096871D01*
X103634065Y-35070599D01*
X103613307Y-35042314D01*
X103587320Y-35010501D01*
X103554807Y-34973647D01*
X103514474Y-34930236D01*
X103465024Y-34878755D01*
X103405163Y-34817690D01*
X103333594Y-34745526D01*
X103249023Y-34660749D01*
X103238798Y-34650515D01*
X102888692Y-34300161D01*
X103115385Y-34074249D01*
X103199815Y-34104430D01*
X103294384Y-34128939D01*
X103387498Y-34133708D01*
X103481825Y-34118758D01*
X103522384Y-34106623D01*
X103563402Y-34091907D01*
X103594262Y-34077747D01*
X103621639Y-34060063D01*
X103652199Y-34034774D01*
X103677746Y-34011573D01*
X103684357Y-34004491D01*
X103512344Y-33832478D01*
X103485366Y-33851673D01*
X103448277Y-33867990D01*
X103445476Y-33869037D01*
X103377588Y-33884389D01*
X103312018Y-33880483D01*
X103251563Y-33858377D01*
X103199021Y-33819128D01*
X103157190Y-33763792D01*
X103154645Y-33759175D01*
X103135944Y-33704981D01*
X103132019Y-33643625D01*
X103143086Y-33582117D01*
X103148692Y-33566345D01*
X103181569Y-33509504D01*
X103227948Y-33465812D01*
X103284599Y-33436885D01*
X103348292Y-33424337D01*
X103415796Y-33429786D01*
X103419760Y-33430688D01*
X103455007Y-33440868D01*
X103482175Y-33454838D01*
X103509717Y-33477544D01*
X103524494Y-33491938D01*
X103552749Y-33522411D01*
X103570040Y-33548700D01*
X103581314Y-33579263D01*
X103585744Y-33596672D01*
X103591999Y-33665493D01*
X103578841Y-33732006D01*
X103547079Y-33792676D01*
X103538457Y-33803932D01*
X103512344Y-33832478D01*
X103684357Y-34004491D01*
X103746458Y-33937958D01*
X103795764Y-33861060D01*
X103826535Y-33778924D01*
X103839643Y-33689595D01*
X103840033Y-33647266D01*
X103829915Y-33550888D01*
X103804493Y-33466018D01*
X103762369Y-33389351D01*
X103702151Y-33317579D01*
X103699845Y-33315261D01*
X103625059Y-33253045D01*
D12*
X86868438Y-37889950D02*
X86393438Y-37889950D01*
X86393438Y-37889950D02*
X86393438Y-38364950D01*
X89138438Y-41109950D02*
X89613438Y-41109950D01*
X89613438Y-41109950D02*
X89613438Y-40634950D01*
X86868438Y-41109950D02*
X86393438Y-41109950D01*
X86393438Y-41109950D02*
X86393438Y-40634950D01*
X89138438Y-37889950D02*
X89613438Y-37889950D01*
D13*
G36*
X88545369Y-34072985D02*
G01*
X88472524Y-34041286D01*
X88393376Y-34025356D01*
X88346740Y-34024041D01*
X88282331Y-34029690D01*
X88229642Y-34043299D01*
X88182507Y-34067634D01*
X88134766Y-34105464D01*
X88107633Y-34131408D01*
X88073378Y-34166712D01*
X88050290Y-34194269D01*
X88034340Y-34219817D01*
X88021496Y-34249099D01*
X88017567Y-34259690D01*
X87999433Y-34337856D01*
X87998440Y-34420317D01*
X88014614Y-34500409D01*
X88016525Y-34506146D01*
X88043826Y-34563159D01*
X88084253Y-34619426D01*
X88132479Y-34668696D01*
X88183182Y-34704712D01*
X88187516Y-34707003D01*
X88263373Y-34735014D01*
X88345292Y-34746101D01*
X88427957Y-34740178D01*
X88506057Y-34717162D01*
X88516992Y-34712257D01*
X88568357Y-34679676D01*
X88615043Y-34636481D01*
X88439199Y-34460637D01*
X88411390Y-34484582D01*
X88386177Y-34495539D01*
X88367006Y-34497701D01*
X88321495Y-34490181D01*
X88282972Y-34467168D01*
X88255728Y-34432443D01*
X88244050Y-34389784D01*
X88244026Y-34389328D01*
X88250804Y-34345794D01*
X88272932Y-34309169D01*
X88306250Y-34283016D01*
X88346596Y-34270902D01*
X88379470Y-34273295D01*
X88425036Y-34293293D01*
X88456479Y-34326518D01*
X88471722Y-34370581D01*
X88472632Y-34380280D01*
X88472205Y-34409762D01*
X88464276Y-34431515D01*
X88445021Y-34454734D01*
X88439199Y-34460637D01*
X88615043Y-34636481D01*
X88618602Y-34633190D01*
X88662474Y-34578792D01*
X88694718Y-34522471D01*
X88703578Y-34499530D01*
X88720259Y-34415591D01*
X88717120Y-34331136D01*
X88694477Y-34248371D01*
X88657163Y-34176341D01*
X88608163Y-34118615D01*
X88545369Y-34072985D01*
G37*
X88545369Y-34072985D02*
X88472524Y-34041286D01*
X88393376Y-34025356D01*
X88346740Y-34024041D01*
X88282331Y-34029690D01*
X88229642Y-34043299D01*
X88182507Y-34067634D01*
X88134766Y-34105464D01*
X88107633Y-34131408D01*
X88073378Y-34166712D01*
X88050290Y-34194269D01*
X88034340Y-34219817D01*
X88021496Y-34249099D01*
X88017567Y-34259690D01*
X87999433Y-34337856D01*
X87998440Y-34420317D01*
X88014614Y-34500409D01*
X88016525Y-34506146D01*
X88043826Y-34563159D01*
X88084253Y-34619426D01*
X88132479Y-34668696D01*
X88183182Y-34704712D01*
X88187516Y-34707003D01*
X88263373Y-34735014D01*
X88345292Y-34746101D01*
X88427957Y-34740178D01*
X88506057Y-34717162D01*
X88516992Y-34712257D01*
X88568357Y-34679676D01*
X88615043Y-34636481D01*
X88439199Y-34460637D01*
X88411390Y-34484582D01*
X88386177Y-34495539D01*
X88367006Y-34497701D01*
X88321495Y-34490181D01*
X88282972Y-34467168D01*
X88255728Y-34432443D01*
X88244050Y-34389784D01*
X88244026Y-34389328D01*
X88250804Y-34345794D01*
X88272932Y-34309169D01*
X88306250Y-34283016D01*
X88346596Y-34270902D01*
X88379470Y-34273295D01*
X88425036Y-34293293D01*
X88456479Y-34326518D01*
X88471722Y-34370581D01*
X88472632Y-34380280D01*
X88472205Y-34409762D01*
X88464276Y-34431515D01*
X88445021Y-34454734D01*
X88439199Y-34460637D01*
X88615043Y-34636481D01*
X88618602Y-34633190D01*
X88662474Y-34578792D01*
X88694718Y-34522471D01*
X88703578Y-34499530D01*
X88720259Y-34415591D01*
X88717120Y-34331136D01*
X88694477Y-34248371D01*
X88657163Y-34176341D01*
X88608163Y-34118615D01*
X88545369Y-34072985D01*
G36*
X89851808Y-35367853D02*
G01*
X89823422Y-35346404D01*
X89792142Y-35330220D01*
X89757626Y-35316852D01*
X89670635Y-35295593D01*
X89584461Y-35294605D01*
X89512560Y-35309542D01*
X89484731Y-35319057D01*
X89462068Y-35330014D01*
X89439730Y-35345805D01*
X89412870Y-35369822D01*
X89379162Y-35402936D01*
X89344969Y-35437638D01*
X89321967Y-35463325D01*
X89306763Y-35485130D01*
X89295962Y-35508182D01*
X89286169Y-35537617D01*
X89282922Y-35548459D01*
X89267301Y-35633977D01*
X89271302Y-35716972D01*
X89294496Y-35795517D01*
X89336462Y-35867691D01*
X89359699Y-35895771D01*
X89391465Y-35927209D01*
X89425580Y-35955721D01*
X89450579Y-35972641D01*
X89525796Y-36003449D01*
X89606989Y-36016433D01*
X89690160Y-36011467D01*
X89771313Y-35988432D01*
X89784417Y-35982803D01*
X89838036Y-35950078D01*
X89874000Y-35917803D01*
X89700226Y-35744028D01*
X89664313Y-35763941D01*
X89625185Y-35768962D01*
X89586825Y-35760133D01*
X89553208Y-35738495D01*
X89528314Y-35705089D01*
X89516125Y-35660956D01*
X89515599Y-35652365D01*
X89523136Y-35610771D01*
X89545576Y-35577228D01*
X89578446Y-35553655D01*
X89617278Y-35541974D01*
X89657600Y-35544102D01*
X89694943Y-35561960D01*
X89705190Y-35570965D01*
X89732499Y-35610791D01*
X89742084Y-35655204D01*
X89733136Y-35699539D01*
X89728947Y-35708184D01*
X89700226Y-35744028D01*
X89874000Y-35917803D01*
X89889938Y-35903501D01*
X89934419Y-35849146D01*
X89965774Y-35793087D01*
X89968145Y-35787159D01*
X89984237Y-35723031D01*
X89988775Y-35650506D01*
X89981795Y-35577874D01*
X89966910Y-35522436D01*
X89950507Y-35483453D01*
X89931751Y-35452130D01*
X89905356Y-35420528D01*
X89885256Y-35399736D01*
X89851808Y-35367853D01*
G37*
X89851808Y-35367853D02*
X89823422Y-35346404D01*
X89792142Y-35330220D01*
X89757626Y-35316852D01*
X89670635Y-35295593D01*
X89584461Y-35294605D01*
X89512560Y-35309542D01*
X89484731Y-35319057D01*
X89462068Y-35330014D01*
X89439730Y-35345805D01*
X89412870Y-35369822D01*
X89379162Y-35402936D01*
X89344969Y-35437638D01*
X89321967Y-35463325D01*
X89306763Y-35485130D01*
X89295962Y-35508182D01*
X89286169Y-35537617D01*
X89282922Y-35548459D01*
X89267301Y-35633977D01*
X89271302Y-35716972D01*
X89294496Y-35795517D01*
X89336462Y-35867691D01*
X89359699Y-35895771D01*
X89391465Y-35927209D01*
X89425580Y-35955721D01*
X89450579Y-35972641D01*
X89525796Y-36003449D01*
X89606989Y-36016433D01*
X89690160Y-36011467D01*
X89771313Y-35988432D01*
X89784417Y-35982803D01*
X89838036Y-35950078D01*
X89874000Y-35917803D01*
X89700226Y-35744028D01*
X89664313Y-35763941D01*
X89625185Y-35768962D01*
X89586825Y-35760133D01*
X89553208Y-35738495D01*
X89528314Y-35705089D01*
X89516125Y-35660956D01*
X89515599Y-35652365D01*
X89523136Y-35610771D01*
X89545576Y-35577228D01*
X89578446Y-35553655D01*
X89617278Y-35541974D01*
X89657600Y-35544102D01*
X89694943Y-35561960D01*
X89705190Y-35570965D01*
X89732499Y-35610791D01*
X89742084Y-35655204D01*
X89733136Y-35699539D01*
X89728947Y-35708184D01*
X89700226Y-35744028D01*
X89874000Y-35917803D01*
X89889938Y-35903501D01*
X89934419Y-35849146D01*
X89965774Y-35793087D01*
X89968145Y-35787159D01*
X89984237Y-35723031D01*
X89988775Y-35650506D01*
X89981795Y-35577874D01*
X89966910Y-35522436D01*
X89950507Y-35483453D01*
X89931751Y-35452130D01*
X89905356Y-35420528D01*
X89885256Y-35399736D01*
X89851808Y-35367853D01*
G36*
X88392379Y-35465944D02*
G01*
X88340583Y-35415451D01*
X88293737Y-35370583D01*
X88254025Y-35333528D01*
X88223629Y-35306466D01*
X88204734Y-35291582D01*
X88202961Y-35290497D01*
X88156597Y-35274963D01*
X88109925Y-35278498D01*
X88067457Y-35300494D01*
X88056612Y-35310198D01*
X88035889Y-35335024D01*
X88025793Y-35361326D01*
X88022479Y-35393503D01*
X88020230Y-35444924D01*
X88283039Y-35711272D01*
X88353069Y-35782095D01*
X88410434Y-35839709D01*
X88456608Y-35885497D01*
X88493066Y-35920844D01*
X88521285Y-35947131D01*
X88542738Y-35965742D01*
X88558902Y-35978062D01*
X88571250Y-35985472D01*
X88578725Y-35988585D01*
X88623721Y-35993898D01*
X88666896Y-35982271D01*
X88703597Y-35956734D01*
X88729164Y-35920318D01*
X88738545Y-35884577D01*
X88735831Y-35848378D01*
X88724588Y-35813615D01*
X88722892Y-35810428D01*
X88710110Y-35793529D01*
X88684809Y-35764789D01*
X88649173Y-35726390D01*
X88605383Y-35680515D01*
X88555626Y-35629350D01*
X88502083Y-35575077D01*
X88446940Y-35519881D01*
X88392379Y-35465944D01*
G37*
X88392379Y-35465944D02*
X88340583Y-35415451D01*
X88293737Y-35370583D01*
X88254025Y-35333528D01*
X88223629Y-35306466D01*
X88204734Y-35291582D01*
X88202961Y-35290497D01*
X88156597Y-35274963D01*
X88109925Y-35278498D01*
X88067457Y-35300494D01*
X88056612Y-35310198D01*
X88035889Y-35335024D01*
X88025793Y-35361326D01*
X88022479Y-35393503D01*
X88020230Y-35444924D01*
X88283039Y-35711272D01*
X88353069Y-35782095D01*
X88410434Y-35839709D01*
X88456608Y-35885497D01*
X88493066Y-35920844D01*
X88521285Y-35947131D01*
X88542738Y-35965742D01*
X88558902Y-35978062D01*
X88571250Y-35985472D01*
X88578725Y-35988585D01*
X88623721Y-35993898D01*
X88666896Y-35982271D01*
X88703597Y-35956734D01*
X88729164Y-35920318D01*
X88738545Y-35884577D01*
X88735831Y-35848378D01*
X88724588Y-35813615D01*
X88722892Y-35810428D01*
X88710110Y-35793529D01*
X88684809Y-35764789D01*
X88649173Y-35726390D01*
X88605383Y-35680515D01*
X88555626Y-35629350D01*
X88502083Y-35575077D01*
X88446940Y-35519881D01*
X88392379Y-35465944D01*
G36*
X90622015Y-33253045D02*
G01*
X90540198Y-33209450D01*
X90450086Y-33183990D01*
X90350412Y-33176175D01*
X90337369Y-33176410D01*
X90250349Y-33185870D01*
X90172324Y-33210141D01*
X90100021Y-33250808D01*
X90030163Y-33309454D01*
X90001816Y-33338687D01*
X89969157Y-33375104D01*
X89946835Y-33403873D01*
X89930769Y-33431664D01*
X89916877Y-33465146D01*
X89906766Y-33494049D01*
X89883550Y-33589679D01*
X89880048Y-33682977D01*
X89896277Y-33776610D01*
X89908959Y-33816617D01*
X89939140Y-33901048D01*
X89826184Y-34014394D01*
X89713227Y-34127740D01*
X89362873Y-33777634D01*
X89276606Y-33691543D01*
X89203120Y-33618598D01*
X89140899Y-33557504D01*
X89088431Y-33506965D01*
X89044201Y-33465684D01*
X89006695Y-33432370D01*
X88974398Y-33405723D01*
X88945796Y-33384451D01*
X88919376Y-33367256D01*
X88893622Y-33352844D01*
X88867022Y-33339919D01*
X88838059Y-33327187D01*
X88834639Y-33325732D01*
X88744342Y-33293207D01*
X88654505Y-33273752D01*
X88556748Y-33265679D01*
X88534655Y-33265273D01*
X88409702Y-33273684D01*
X88291611Y-33301219D01*
X88195526Y-33340204D01*
X88138025Y-33372229D01*
X88076986Y-33412365D01*
X88019909Y-33455342D01*
X87974930Y-33495250D01*
X87955713Y-33512262D01*
X87940790Y-33514959D01*
X87920914Y-33504176D01*
X87915704Y-33500594D01*
X87873030Y-33477199D01*
X87816595Y-33454964D01*
X87752944Y-33435851D01*
X87688620Y-33421815D01*
X87630166Y-33414814D01*
X87628736Y-33414742D01*
X87532353Y-33417571D01*
X87433802Y-33434020D01*
X87341334Y-33462478D01*
X87305764Y-33477876D01*
X87240165Y-33516496D01*
X87173008Y-33568594D01*
X87110263Y-33628778D01*
X87057900Y-33691650D01*
X87040279Y-33717817D01*
X86991319Y-33815506D01*
X86959828Y-33920540D01*
X86945916Y-34029709D01*
X86949693Y-34139800D01*
X86971268Y-34247602D01*
X87010749Y-34349902D01*
X87018350Y-34364814D01*
X87032442Y-34395497D01*
X87040235Y-34420494D01*
X87040622Y-34431244D01*
X87032374Y-34446330D01*
X87015400Y-34472197D01*
X86993257Y-34503438D01*
X86991626Y-34505658D01*
X86933449Y-34601407D01*
X86891765Y-34706624D01*
X86866754Y-34818666D01*
X86858594Y-34934886D01*
X86867466Y-35052640D01*
X86893547Y-35169281D01*
X86937019Y-35282165D01*
X86938743Y-35285778D01*
X86976045Y-35363423D01*
X87793731Y-36183736D01*
X87924856Y-36315224D01*
X88042423Y-36432980D01*
X88147164Y-36537724D01*
X88239810Y-36630173D01*
X88321092Y-36711044D01*
X88391742Y-36781056D01*
X88452492Y-36840925D01*
X88504072Y-36891369D01*
X88547212Y-36933106D01*
X88582645Y-36966853D01*
X88611104Y-36993327D01*
X88633317Y-37013248D01*
X88650016Y-37027330D01*
X88661935Y-37036292D01*
X88664012Y-37037664D01*
X88766379Y-37091830D01*
X88875979Y-37129355D01*
X88989957Y-37150293D01*
X89105459Y-37154697D01*
X89219632Y-37142622D01*
X89329623Y-37114121D01*
X89432576Y-37069248D01*
X89507731Y-37021763D01*
X89539143Y-36999394D01*
X89565555Y-36981948D01*
X89581561Y-36972984D01*
X89582145Y-36972767D01*
X89598640Y-36974492D01*
X89625829Y-36984195D01*
X89648574Y-36995039D01*
X89736365Y-37033385D01*
X89827858Y-37056673D01*
X89928619Y-37066193D01*
X89957318Y-37066572D01*
X90069045Y-37058579D01*
X90170141Y-37034292D01*
X90262836Y-36992719D01*
X90349358Y-36932864D01*
X90422025Y-36863482D01*
X90249465Y-36690922D01*
X90189558Y-36744171D01*
X90188694Y-36744766D01*
X90107762Y-36789636D01*
X90024215Y-36815421D01*
X89952133Y-36821841D01*
X89910072Y-36818892D01*
X89865865Y-36811972D01*
X89825578Y-36802441D01*
X89795280Y-36791652D01*
X89783279Y-36784093D01*
X89788979Y-36775955D01*
X89807562Y-36755125D01*
X89837479Y-36723218D01*
X89877183Y-36681846D01*
X89925122Y-36632625D01*
X89979750Y-36577166D01*
X90039515Y-36517083D01*
X90043701Y-36512896D01*
X90103999Y-36452798D01*
X90159706Y-36397659D01*
X90209219Y-36349036D01*
X90250936Y-36308489D01*
X90251529Y-36307921D01*
X90069380Y-36125772D01*
X89965856Y-36228998D01*
X89872861Y-36321392D01*
X89354017Y-36836185D01*
X89295138Y-36861220D01*
X89194515Y-36893676D01*
X89092829Y-36906654D01*
X88992201Y-36900333D01*
X88894754Y-36874891D01*
X88802609Y-36830506D01*
X88783031Y-36818066D01*
X88770080Y-36807046D01*
X88744002Y-36782745D01*
X88705959Y-36746329D01*
X88657119Y-36698961D01*
X88598646Y-36641806D01*
X88531705Y-36576026D01*
X88457460Y-36502788D01*
X88377077Y-36423254D01*
X88291720Y-36338587D01*
X88202556Y-36249953D01*
X88110747Y-36158516D01*
X88017460Y-36065438D01*
X87923859Y-35971885D01*
X87831108Y-35879020D01*
X87740374Y-35788008D01*
X87652821Y-35700010D01*
X87569615Y-35616194D01*
X87491918Y-35537721D01*
X87420897Y-35465757D01*
X87357718Y-35401465D01*
X87303544Y-35346009D01*
X87259540Y-35300552D01*
X87226872Y-35266260D01*
X87206704Y-35244296D01*
X87200811Y-35237123D01*
X87150054Y-35145390D01*
X87118582Y-35048541D01*
X87106559Y-34948349D01*
X87114153Y-34846588D01*
X87141528Y-34745026D01*
X87152169Y-34718251D01*
X87177203Y-34659371D01*
X87685792Y-34146782D01*
X87504595Y-33965585D01*
X87233708Y-34236471D01*
X87222242Y-34215609D01*
X87214294Y-34194815D01*
X87205170Y-34161754D01*
X87198106Y-34129723D01*
X87191092Y-34044323D01*
X87202557Y-33962458D01*
X87230707Y-33886242D01*
X87273747Y-33817791D01*
X87329886Y-33759219D01*
X87397329Y-33712643D01*
X87474286Y-33680177D01*
X87558962Y-33663937D01*
X87594203Y-33662457D01*
X87628899Y-33664856D01*
X87669247Y-33671116D01*
X87708961Y-33679834D01*
X87741753Y-33689606D01*
X87761339Y-33699026D01*
X87762477Y-33700041D01*
X87756424Y-33707829D01*
X87737512Y-33728336D01*
X87707301Y-33759961D01*
X87667346Y-33801101D01*
X87619206Y-33850153D01*
X87564436Y-33905515D01*
X87504595Y-33965585D01*
X87685792Y-34146782D01*
X87691997Y-34140528D01*
X87810589Y-34021234D01*
X87915128Y-33916567D01*
X88005638Y-33826501D01*
X88082145Y-33751014D01*
X88144674Y-33690078D01*
X88193250Y-33643672D01*
X88227900Y-33611767D01*
X88248647Y-33594340D01*
X88251269Y-33592499D01*
X88335240Y-33549218D01*
X88427373Y-33522887D01*
X88524383Y-33513673D01*
X88622983Y-33521738D01*
X88719889Y-33547246D01*
X88767117Y-33566798D01*
X88829570Y-33596109D01*
X89582405Y-34344772D01*
X89712017Y-34473813D01*
X89831888Y-34593453D01*
X89941518Y-34703188D01*
X90040406Y-34802509D01*
X90128053Y-34890912D01*
X90203959Y-34967890D01*
X90267623Y-35032934D01*
X90318545Y-35085541D01*
X90356225Y-35125202D01*
X90380163Y-35151413D01*
X90387124Y-35159697D01*
X90441193Y-35240744D01*
X90477196Y-35324336D01*
X90496572Y-35414773D01*
X90501052Y-35499439D01*
X90493909Y-35568612D01*
X90475203Y-35643120D01*
X90447685Y-35713878D01*
X90422015Y-35760405D01*
X90409049Y-35776830D01*
X90384196Y-35804581D01*
X90347107Y-35844019D01*
X90297430Y-35895498D01*
X90234817Y-35959379D01*
X90158917Y-36036018D01*
X90069380Y-36125772D01*
X90251529Y-36307921D01*
X90283249Y-36277576D01*
X90304557Y-36257855D01*
X90313255Y-36250884D01*
X90313347Y-36250912D01*
X90318388Y-36261935D01*
X90327267Y-36286199D01*
X90334333Y-36307143D01*
X90350262Y-36386709D01*
X90348456Y-36468728D01*
X90330198Y-36549342D01*
X90296773Y-36624693D01*
X90249465Y-36690922D01*
X90422025Y-36863482D01*
X90429886Y-36855976D01*
X90500683Y-36765856D01*
X90552139Y-36670166D01*
X90584683Y-36567730D01*
X90598743Y-36457367D01*
X90598655Y-36390593D01*
X90591929Y-36328741D01*
X90578002Y-36261948D01*
X90558749Y-36196650D01*
X90536046Y-36139285D01*
X90513617Y-36098888D01*
X90492367Y-36068283D01*
X90549360Y-36001798D01*
X90615424Y-35917267D01*
X90665717Y-35835266D01*
X90701878Y-35754687D01*
X90735288Y-35637476D01*
X90749546Y-35516390D01*
X90744718Y-35394151D01*
X90720871Y-35273481D01*
X90687657Y-35178750D01*
X90674865Y-35149431D01*
X90662026Y-35122643D01*
X90647843Y-35096871D01*
X90631021Y-35070599D01*
X90610263Y-35042314D01*
X90584276Y-35010501D01*
X90551763Y-34973647D01*
X90511430Y-34930236D01*
X90461980Y-34878755D01*
X90402119Y-34817690D01*
X90330550Y-34745526D01*
X90245979Y-34660749D01*
X90235754Y-34650515D01*
X89885648Y-34300161D01*
X90112341Y-34074249D01*
X90196771Y-34104430D01*
X90291340Y-34128939D01*
X90384454Y-34133708D01*
X90478781Y-34118758D01*
X90519340Y-34106623D01*
X90560358Y-34091907D01*
X90591218Y-34077747D01*
X90618595Y-34060063D01*
X90649155Y-34034774D01*
X90674702Y-34011573D01*
X90681313Y-34004491D01*
X90509300Y-33832478D01*
X90482322Y-33851673D01*
X90445233Y-33867990D01*
X90442432Y-33869037D01*
X90374544Y-33884389D01*
X90308974Y-33880483D01*
X90248519Y-33858377D01*
X90195977Y-33819128D01*
X90154146Y-33763792D01*
X90151601Y-33759175D01*
X90132900Y-33704981D01*
X90128975Y-33643625D01*
X90140042Y-33582117D01*
X90145648Y-33566345D01*
X90178525Y-33509504D01*
X90224904Y-33465812D01*
X90281555Y-33436885D01*
X90345248Y-33424337D01*
X90412752Y-33429786D01*
X90416716Y-33430688D01*
X90451963Y-33440868D01*
X90479131Y-33454838D01*
X90506673Y-33477544D01*
X90521450Y-33491938D01*
X90549705Y-33522411D01*
X90566996Y-33548700D01*
X90578270Y-33579263D01*
X90582700Y-33596672D01*
X90588955Y-33665493D01*
X90575797Y-33732006D01*
X90544035Y-33792676D01*
X90535413Y-33803932D01*
X90509300Y-33832478D01*
X90681313Y-34004491D01*
X90743414Y-33937958D01*
X90792720Y-33861060D01*
X90823491Y-33778924D01*
X90836599Y-33689595D01*
X90836989Y-33647266D01*
X90826871Y-33550888D01*
X90801449Y-33466018D01*
X90759325Y-33389351D01*
X90699107Y-33317579D01*
X90696801Y-33315261D01*
X90622015Y-33253045D01*
G37*
X90622015Y-33253045D02*
X90540198Y-33209450D01*
X90450086Y-33183990D01*
X90350412Y-33176175D01*
X90337369Y-33176410D01*
X90250349Y-33185870D01*
X90172324Y-33210141D01*
X90100021Y-33250808D01*
X90030163Y-33309454D01*
X90001816Y-33338687D01*
X89969157Y-33375104D01*
X89946835Y-33403873D01*
X89930769Y-33431664D01*
X89916877Y-33465146D01*
X89906766Y-33494049D01*
X89883550Y-33589679D01*
X89880048Y-33682977D01*
X89896277Y-33776610D01*
X89908959Y-33816617D01*
X89939140Y-33901048D01*
X89826184Y-34014394D01*
X89713227Y-34127740D01*
X89362873Y-33777634D01*
X89276606Y-33691543D01*
X89203120Y-33618598D01*
X89140899Y-33557504D01*
X89088431Y-33506965D01*
X89044201Y-33465684D01*
X89006695Y-33432370D01*
X88974398Y-33405723D01*
X88945796Y-33384451D01*
X88919376Y-33367256D01*
X88893622Y-33352844D01*
X88867022Y-33339919D01*
X88838059Y-33327187D01*
X88834639Y-33325732D01*
X88744342Y-33293207D01*
X88654505Y-33273752D01*
X88556748Y-33265679D01*
X88534655Y-33265273D01*
X88409702Y-33273684D01*
X88291611Y-33301219D01*
X88195526Y-33340204D01*
X88138025Y-33372229D01*
X88076986Y-33412365D01*
X88019909Y-33455342D01*
X87974930Y-33495250D01*
X87955713Y-33512262D01*
X87940790Y-33514959D01*
X87920914Y-33504176D01*
X87915704Y-33500594D01*
X87873030Y-33477199D01*
X87816595Y-33454964D01*
X87752944Y-33435851D01*
X87688620Y-33421815D01*
X87630166Y-33414814D01*
X87628736Y-33414742D01*
X87532353Y-33417571D01*
X87433802Y-33434020D01*
X87341334Y-33462478D01*
X87305764Y-33477876D01*
X87240165Y-33516496D01*
X87173008Y-33568594D01*
X87110263Y-33628778D01*
X87057900Y-33691650D01*
X87040279Y-33717817D01*
X86991319Y-33815506D01*
X86959828Y-33920540D01*
X86945916Y-34029709D01*
X86949693Y-34139800D01*
X86971268Y-34247602D01*
X87010749Y-34349902D01*
X87018350Y-34364814D01*
X87032442Y-34395497D01*
X87040235Y-34420494D01*
X87040622Y-34431244D01*
X87032374Y-34446330D01*
X87015400Y-34472197D01*
X86993257Y-34503438D01*
X86991626Y-34505658D01*
X86933449Y-34601407D01*
X86891765Y-34706624D01*
X86866754Y-34818666D01*
X86858594Y-34934886D01*
X86867466Y-35052640D01*
X86893547Y-35169281D01*
X86937019Y-35282165D01*
X86938743Y-35285778D01*
X86976045Y-35363423D01*
X87793731Y-36183736D01*
X87924856Y-36315224D01*
X88042423Y-36432980D01*
X88147164Y-36537724D01*
X88239810Y-36630173D01*
X88321092Y-36711044D01*
X88391742Y-36781056D01*
X88452492Y-36840925D01*
X88504072Y-36891369D01*
X88547212Y-36933106D01*
X88582645Y-36966853D01*
X88611104Y-36993327D01*
X88633317Y-37013248D01*
X88650016Y-37027330D01*
X88661935Y-37036292D01*
X88664012Y-37037664D01*
X88766379Y-37091830D01*
X88875979Y-37129355D01*
X88989957Y-37150293D01*
X89105459Y-37154697D01*
X89219632Y-37142622D01*
X89329623Y-37114121D01*
X89432576Y-37069248D01*
X89507731Y-37021763D01*
X89539143Y-36999394D01*
X89565555Y-36981948D01*
X89581561Y-36972984D01*
X89582145Y-36972767D01*
X89598640Y-36974492D01*
X89625829Y-36984195D01*
X89648574Y-36995039D01*
X89736365Y-37033385D01*
X89827858Y-37056673D01*
X89928619Y-37066193D01*
X89957318Y-37066572D01*
X90069045Y-37058579D01*
X90170141Y-37034292D01*
X90262836Y-36992719D01*
X90349358Y-36932864D01*
X90422025Y-36863482D01*
X90249465Y-36690922D01*
X90189558Y-36744171D01*
X90188694Y-36744766D01*
X90107762Y-36789636D01*
X90024215Y-36815421D01*
X89952133Y-36821841D01*
X89910072Y-36818892D01*
X89865865Y-36811972D01*
X89825578Y-36802441D01*
X89795280Y-36791652D01*
X89783279Y-36784093D01*
X89788979Y-36775955D01*
X89807562Y-36755125D01*
X89837479Y-36723218D01*
X89877183Y-36681846D01*
X89925122Y-36632625D01*
X89979750Y-36577166D01*
X90039515Y-36517083D01*
X90043701Y-36512896D01*
X90103999Y-36452798D01*
X90159706Y-36397659D01*
X90209219Y-36349036D01*
X90250936Y-36308489D01*
X90251529Y-36307921D01*
X90069380Y-36125772D01*
X89965856Y-36228998D01*
X89872861Y-36321392D01*
X89354017Y-36836185D01*
X89295138Y-36861220D01*
X89194515Y-36893676D01*
X89092829Y-36906654D01*
X88992201Y-36900333D01*
X88894754Y-36874891D01*
X88802609Y-36830506D01*
X88783031Y-36818066D01*
X88770080Y-36807046D01*
X88744002Y-36782745D01*
X88705959Y-36746329D01*
X88657119Y-36698961D01*
X88598646Y-36641806D01*
X88531705Y-36576026D01*
X88457460Y-36502788D01*
X88377077Y-36423254D01*
X88291720Y-36338587D01*
X88202556Y-36249953D01*
X88110747Y-36158516D01*
X88017460Y-36065438D01*
X87923859Y-35971885D01*
X87831108Y-35879020D01*
X87740374Y-35788008D01*
X87652821Y-35700010D01*
X87569615Y-35616194D01*
X87491918Y-35537721D01*
X87420897Y-35465757D01*
X87357718Y-35401465D01*
X87303544Y-35346009D01*
X87259540Y-35300552D01*
X87226872Y-35266260D01*
X87206704Y-35244296D01*
X87200811Y-35237123D01*
X87150054Y-35145390D01*
X87118582Y-35048541D01*
X87106559Y-34948349D01*
X87114153Y-34846588D01*
X87141528Y-34745026D01*
X87152169Y-34718251D01*
X87177203Y-34659371D01*
X87685792Y-34146782D01*
X87504595Y-33965585D01*
X87233708Y-34236471D01*
X87222242Y-34215609D01*
X87214294Y-34194815D01*
X87205170Y-34161754D01*
X87198106Y-34129723D01*
X87191092Y-34044323D01*
X87202557Y-33962458D01*
X87230707Y-33886242D01*
X87273747Y-33817791D01*
X87329886Y-33759219D01*
X87397329Y-33712643D01*
X87474286Y-33680177D01*
X87558962Y-33663937D01*
X87594203Y-33662457D01*
X87628899Y-33664856D01*
X87669247Y-33671116D01*
X87708961Y-33679834D01*
X87741753Y-33689606D01*
X87761339Y-33699026D01*
X87762477Y-33700041D01*
X87756424Y-33707829D01*
X87737512Y-33728336D01*
X87707301Y-33759961D01*
X87667346Y-33801101D01*
X87619206Y-33850153D01*
X87564436Y-33905515D01*
X87504595Y-33965585D01*
X87685792Y-34146782D01*
X87691997Y-34140528D01*
X87810589Y-34021234D01*
X87915128Y-33916567D01*
X88005638Y-33826501D01*
X88082145Y-33751014D01*
X88144674Y-33690078D01*
X88193250Y-33643672D01*
X88227900Y-33611767D01*
X88248647Y-33594340D01*
X88251269Y-33592499D01*
X88335240Y-33549218D01*
X88427373Y-33522887D01*
X88524383Y-33513673D01*
X88622983Y-33521738D01*
X88719889Y-33547246D01*
X88767117Y-33566798D01*
X88829570Y-33596109D01*
X89582405Y-34344772D01*
X89712017Y-34473813D01*
X89831888Y-34593453D01*
X89941518Y-34703188D01*
X90040406Y-34802509D01*
X90128053Y-34890912D01*
X90203959Y-34967890D01*
X90267623Y-35032934D01*
X90318545Y-35085541D01*
X90356225Y-35125202D01*
X90380163Y-35151413D01*
X90387124Y-35159697D01*
X90441193Y-35240744D01*
X90477196Y-35324336D01*
X90496572Y-35414773D01*
X90501052Y-35499439D01*
X90493909Y-35568612D01*
X90475203Y-35643120D01*
X90447685Y-35713878D01*
X90422015Y-35760405D01*
X90409049Y-35776830D01*
X90384196Y-35804581D01*
X90347107Y-35844019D01*
X90297430Y-35895498D01*
X90234817Y-35959379D01*
X90158917Y-36036018D01*
X90069380Y-36125772D01*
X90251529Y-36307921D01*
X90283249Y-36277576D01*
X90304557Y-36257855D01*
X90313255Y-36250884D01*
X90313347Y-36250912D01*
X90318388Y-36261935D01*
X90327267Y-36286199D01*
X90334333Y-36307143D01*
X90350262Y-36386709D01*
X90348456Y-36468728D01*
X90330198Y-36549342D01*
X90296773Y-36624693D01*
X90249465Y-36690922D01*
X90422025Y-36863482D01*
X90429886Y-36855976D01*
X90500683Y-36765856D01*
X90552139Y-36670166D01*
X90584683Y-36567730D01*
X90598743Y-36457367D01*
X90598655Y-36390593D01*
X90591929Y-36328741D01*
X90578002Y-36261948D01*
X90558749Y-36196650D01*
X90536046Y-36139285D01*
X90513617Y-36098888D01*
X90492367Y-36068283D01*
X90549360Y-36001798D01*
X90615424Y-35917267D01*
X90665717Y-35835266D01*
X90701878Y-35754687D01*
X90735288Y-35637476D01*
X90749546Y-35516390D01*
X90744718Y-35394151D01*
X90720871Y-35273481D01*
X90687657Y-35178750D01*
X90674865Y-35149431D01*
X90662026Y-35122643D01*
X90647843Y-35096871D01*
X90631021Y-35070599D01*
X90610263Y-35042314D01*
X90584276Y-35010501D01*
X90551763Y-34973647D01*
X90511430Y-34930236D01*
X90461980Y-34878755D01*
X90402119Y-34817690D01*
X90330550Y-34745526D01*
X90245979Y-34660749D01*
X90235754Y-34650515D01*
X89885648Y-34300161D01*
X90112341Y-34074249D01*
X90196771Y-34104430D01*
X90291340Y-34128939D01*
X90384454Y-34133708D01*
X90478781Y-34118758D01*
X90519340Y-34106623D01*
X90560358Y-34091907D01*
X90591218Y-34077747D01*
X90618595Y-34060063D01*
X90649155Y-34034774D01*
X90674702Y-34011573D01*
X90681313Y-34004491D01*
X90509300Y-33832478D01*
X90482322Y-33851673D01*
X90445233Y-33867990D01*
X90442432Y-33869037D01*
X90374544Y-33884389D01*
X90308974Y-33880483D01*
X90248519Y-33858377D01*
X90195977Y-33819128D01*
X90154146Y-33763792D01*
X90151601Y-33759175D01*
X90132900Y-33704981D01*
X90128975Y-33643625D01*
X90140042Y-33582117D01*
X90145648Y-33566345D01*
X90178525Y-33509504D01*
X90224904Y-33465812D01*
X90281555Y-33436885D01*
X90345248Y-33424337D01*
X90412752Y-33429786D01*
X90416716Y-33430688D01*
X90451963Y-33440868D01*
X90479131Y-33454838D01*
X90506673Y-33477544D01*
X90521450Y-33491938D01*
X90549705Y-33522411D01*
X90566996Y-33548700D01*
X90578270Y-33579263D01*
X90582700Y-33596672D01*
X90588955Y-33665493D01*
X90575797Y-33732006D01*
X90544035Y-33792676D01*
X90535413Y-33803932D01*
X90509300Y-33832478D01*
X90681313Y-34004491D01*
X90743414Y-33937958D01*
X90792720Y-33861060D01*
X90823491Y-33778924D01*
X90836599Y-33689595D01*
X90836989Y-33647266D01*
X90826871Y-33550888D01*
X90801449Y-33466018D01*
X90759325Y-33389351D01*
X90699107Y-33317579D01*
X90696801Y-33315261D01*
X90622015Y-33253045D01*
D12*
X69637070Y-35569999D02*
G75*
G03*
X69637070Y-35569999I-64031J0D01*
G01*
X51715885Y-37093364D02*
X51309299Y-37499950D01*
X51309299Y-37499950D02*
X51715885Y-37906536D01*
X58284907Y-37906536D02*
X58691493Y-37499950D01*
X58691493Y-37499950D02*
X58284907Y-37093364D01*
X55406982Y-40784461D02*
X55000396Y-41191047D01*
X55000396Y-41191047D02*
X54593810Y-40784461D01*
X54593810Y-34215439D02*
X55000396Y-33808853D01*
D13*
G36*
X57062327Y-32322985D02*
G01*
X56989482Y-32291286D01*
X56910334Y-32275356D01*
X56863698Y-32274041D01*
X56799289Y-32279690D01*
X56746600Y-32293299D01*
X56699465Y-32317634D01*
X56651724Y-32355464D01*
X56624591Y-32381408D01*
X56590336Y-32416712D01*
X56567248Y-32444269D01*
X56551298Y-32469817D01*
X56538454Y-32499099D01*
X56534525Y-32509690D01*
X56516391Y-32587856D01*
X56515398Y-32670317D01*
X56531572Y-32750409D01*
X56533483Y-32756146D01*
X56560784Y-32813159D01*
X56601211Y-32869426D01*
X56649437Y-32918696D01*
X56700140Y-32954712D01*
X56704474Y-32957003D01*
X56780331Y-32985014D01*
X56862250Y-32996101D01*
X56944915Y-32990178D01*
X57023015Y-32967162D01*
X57033950Y-32962257D01*
X57085315Y-32929676D01*
X57132001Y-32886481D01*
X56956157Y-32710637D01*
X56928348Y-32734582D01*
X56903135Y-32745539D01*
X56883964Y-32747701D01*
X56838453Y-32740181D01*
X56799930Y-32717168D01*
X56772686Y-32682443D01*
X56761008Y-32639784D01*
X56760984Y-32639328D01*
X56767762Y-32595794D01*
X56789890Y-32559169D01*
X56823208Y-32533016D01*
X56863554Y-32520902D01*
X56896428Y-32523295D01*
X56941994Y-32543293D01*
X56973437Y-32576518D01*
X56988680Y-32620581D01*
X56989590Y-32630280D01*
X56989163Y-32659762D01*
X56981234Y-32681515D01*
X56961979Y-32704734D01*
X56956157Y-32710637D01*
X57132001Y-32886481D01*
X57135560Y-32883190D01*
X57179432Y-32828792D01*
X57211676Y-32772471D01*
X57220536Y-32749530D01*
X57237217Y-32665591D01*
X57234078Y-32581136D01*
X57211435Y-32498371D01*
X57174121Y-32426341D01*
X57125121Y-32368615D01*
X57062327Y-32322985D01*
G37*
X57062327Y-32322985D02*
X56989482Y-32291286D01*
X56910334Y-32275356D01*
X56863698Y-32274041D01*
X56799289Y-32279690D01*
X56746600Y-32293299D01*
X56699465Y-32317634D01*
X56651724Y-32355464D01*
X56624591Y-32381408D01*
X56590336Y-32416712D01*
X56567248Y-32444269D01*
X56551298Y-32469817D01*
X56538454Y-32499099D01*
X56534525Y-32509690D01*
X56516391Y-32587856D01*
X56515398Y-32670317D01*
X56531572Y-32750409D01*
X56533483Y-32756146D01*
X56560784Y-32813159D01*
X56601211Y-32869426D01*
X56649437Y-32918696D01*
X56700140Y-32954712D01*
X56704474Y-32957003D01*
X56780331Y-32985014D01*
X56862250Y-32996101D01*
X56944915Y-32990178D01*
X57023015Y-32967162D01*
X57033950Y-32962257D01*
X57085315Y-32929676D01*
X57132001Y-32886481D01*
X56956157Y-32710637D01*
X56928348Y-32734582D01*
X56903135Y-32745539D01*
X56883964Y-32747701D01*
X56838453Y-32740181D01*
X56799930Y-32717168D01*
X56772686Y-32682443D01*
X56761008Y-32639784D01*
X56760984Y-32639328D01*
X56767762Y-32595794D01*
X56789890Y-32559169D01*
X56823208Y-32533016D01*
X56863554Y-32520902D01*
X56896428Y-32523295D01*
X56941994Y-32543293D01*
X56973437Y-32576518D01*
X56988680Y-32620581D01*
X56989590Y-32630280D01*
X56989163Y-32659762D01*
X56981234Y-32681515D01*
X56961979Y-32704734D01*
X56956157Y-32710637D01*
X57132001Y-32886481D01*
X57135560Y-32883190D01*
X57179432Y-32828792D01*
X57211676Y-32772471D01*
X57220536Y-32749530D01*
X57237217Y-32665591D01*
X57234078Y-32581136D01*
X57211435Y-32498371D01*
X57174121Y-32426341D01*
X57125121Y-32368615D01*
X57062327Y-32322985D01*
G36*
X58368766Y-33617853D02*
G01*
X58340380Y-33596404D01*
X58309100Y-33580220D01*
X58274584Y-33566852D01*
X58187593Y-33545593D01*
X58101419Y-33544605D01*
X58029518Y-33559542D01*
X58001689Y-33569057D01*
X57979026Y-33580014D01*
X57956688Y-33595805D01*
X57929828Y-33619822D01*
X57896120Y-33652936D01*
X57861927Y-33687638D01*
X57838925Y-33713325D01*
X57823721Y-33735130D01*
X57812920Y-33758182D01*
X57803127Y-33787617D01*
X57799880Y-33798459D01*
X57784259Y-33883977D01*
X57788260Y-33966972D01*
X57811454Y-34045517D01*
X57853420Y-34117691D01*
X57876657Y-34145771D01*
X57908423Y-34177209D01*
X57942538Y-34205721D01*
X57967537Y-34222641D01*
X58042754Y-34253449D01*
X58123947Y-34266433D01*
X58207118Y-34261467D01*
X58288271Y-34238432D01*
X58301375Y-34232803D01*
X58354994Y-34200078D01*
X58390958Y-34167803D01*
X58217184Y-33994028D01*
X58181271Y-34013941D01*
X58142143Y-34018962D01*
X58103783Y-34010133D01*
X58070166Y-33988495D01*
X58045272Y-33955089D01*
X58033083Y-33910956D01*
X58032557Y-33902365D01*
X58040094Y-33860771D01*
X58062534Y-33827228D01*
X58095404Y-33803655D01*
X58134236Y-33791974D01*
X58174558Y-33794102D01*
X58211901Y-33811960D01*
X58222148Y-33820965D01*
X58249457Y-33860791D01*
X58259042Y-33905204D01*
X58250094Y-33949539D01*
X58245905Y-33958184D01*
X58217184Y-33994028D01*
X58390958Y-34167803D01*
X58406896Y-34153501D01*
X58451377Y-34099146D01*
X58482732Y-34043087D01*
X58485103Y-34037159D01*
X58501195Y-33973031D01*
X58505733Y-33900506D01*
X58498753Y-33827874D01*
X58483868Y-33772436D01*
X58467465Y-33733453D01*
X58448709Y-33702130D01*
X58422314Y-33670528D01*
X58402214Y-33649736D01*
X58368766Y-33617853D01*
G37*
X58368766Y-33617853D02*
X58340380Y-33596404D01*
X58309100Y-33580220D01*
X58274584Y-33566852D01*
X58187593Y-33545593D01*
X58101419Y-33544605D01*
X58029518Y-33559542D01*
X58001689Y-33569057D01*
X57979026Y-33580014D01*
X57956688Y-33595805D01*
X57929828Y-33619822D01*
X57896120Y-33652936D01*
X57861927Y-33687638D01*
X57838925Y-33713325D01*
X57823721Y-33735130D01*
X57812920Y-33758182D01*
X57803127Y-33787617D01*
X57799880Y-33798459D01*
X57784259Y-33883977D01*
X57788260Y-33966972D01*
X57811454Y-34045517D01*
X57853420Y-34117691D01*
X57876657Y-34145771D01*
X57908423Y-34177209D01*
X57942538Y-34205721D01*
X57967537Y-34222641D01*
X58042754Y-34253449D01*
X58123947Y-34266433D01*
X58207118Y-34261467D01*
X58288271Y-34238432D01*
X58301375Y-34232803D01*
X58354994Y-34200078D01*
X58390958Y-34167803D01*
X58217184Y-33994028D01*
X58181271Y-34013941D01*
X58142143Y-34018962D01*
X58103783Y-34010133D01*
X58070166Y-33988495D01*
X58045272Y-33955089D01*
X58033083Y-33910956D01*
X58032557Y-33902365D01*
X58040094Y-33860771D01*
X58062534Y-33827228D01*
X58095404Y-33803655D01*
X58134236Y-33791974D01*
X58174558Y-33794102D01*
X58211901Y-33811960D01*
X58222148Y-33820965D01*
X58249457Y-33860791D01*
X58259042Y-33905204D01*
X58250094Y-33949539D01*
X58245905Y-33958184D01*
X58217184Y-33994028D01*
X58390958Y-34167803D01*
X58406896Y-34153501D01*
X58451377Y-34099146D01*
X58482732Y-34043087D01*
X58485103Y-34037159D01*
X58501195Y-33973031D01*
X58505733Y-33900506D01*
X58498753Y-33827874D01*
X58483868Y-33772436D01*
X58467465Y-33733453D01*
X58448709Y-33702130D01*
X58422314Y-33670528D01*
X58402214Y-33649736D01*
X58368766Y-33617853D01*
G36*
X56909337Y-33715944D02*
G01*
X56857541Y-33665451D01*
X56810695Y-33620583D01*
X56770983Y-33583528D01*
X56740587Y-33556466D01*
X56721692Y-33541582D01*
X56719919Y-33540497D01*
X56673555Y-33524963D01*
X56626883Y-33528498D01*
X56584415Y-33550494D01*
X56573570Y-33560198D01*
X56552847Y-33585024D01*
X56542751Y-33611326D01*
X56539437Y-33643503D01*
X56537188Y-33694924D01*
X56799997Y-33961272D01*
X56870027Y-34032095D01*
X56927392Y-34089709D01*
X56973566Y-34135497D01*
X57010024Y-34170844D01*
X57038243Y-34197131D01*
X57059696Y-34215742D01*
X57075860Y-34228062D01*
X57088208Y-34235472D01*
X57095683Y-34238585D01*
X57140679Y-34243898D01*
X57183854Y-34232271D01*
X57220555Y-34206734D01*
X57246122Y-34170318D01*
X57255503Y-34134577D01*
X57252789Y-34098378D01*
X57241546Y-34063615D01*
X57239850Y-34060428D01*
X57227068Y-34043529D01*
X57201767Y-34014789D01*
X57166131Y-33976390D01*
X57122341Y-33930515D01*
X57072584Y-33879350D01*
X57019041Y-33825077D01*
X56963898Y-33769881D01*
X56909337Y-33715944D01*
G37*
X56909337Y-33715944D02*
X56857541Y-33665451D01*
X56810695Y-33620583D01*
X56770983Y-33583528D01*
X56740587Y-33556466D01*
X56721692Y-33541582D01*
X56719919Y-33540497D01*
X56673555Y-33524963D01*
X56626883Y-33528498D01*
X56584415Y-33550494D01*
X56573570Y-33560198D01*
X56552847Y-33585024D01*
X56542751Y-33611326D01*
X56539437Y-33643503D01*
X56537188Y-33694924D01*
X56799997Y-33961272D01*
X56870027Y-34032095D01*
X56927392Y-34089709D01*
X56973566Y-34135497D01*
X57010024Y-34170844D01*
X57038243Y-34197131D01*
X57059696Y-34215742D01*
X57075860Y-34228062D01*
X57088208Y-34235472D01*
X57095683Y-34238585D01*
X57140679Y-34243898D01*
X57183854Y-34232271D01*
X57220555Y-34206734D01*
X57246122Y-34170318D01*
X57255503Y-34134577D01*
X57252789Y-34098378D01*
X57241546Y-34063615D01*
X57239850Y-34060428D01*
X57227068Y-34043529D01*
X57201767Y-34014789D01*
X57166131Y-33976390D01*
X57122341Y-33930515D01*
X57072584Y-33879350D01*
X57019041Y-33825077D01*
X56963898Y-33769881D01*
X56909337Y-33715944D01*
G36*
X59138973Y-31503045D02*
G01*
X59057156Y-31459450D01*
X58967044Y-31433990D01*
X58867370Y-31426175D01*
X58854327Y-31426410D01*
X58767307Y-31435870D01*
X58689282Y-31460141D01*
X58616979Y-31500808D01*
X58547121Y-31559454D01*
X58518774Y-31588687D01*
X58486115Y-31625104D01*
X58463793Y-31653873D01*
X58447727Y-31681664D01*
X58433835Y-31715146D01*
X58423724Y-31744049D01*
X58400508Y-31839679D01*
X58397006Y-31932977D01*
X58413235Y-32026610D01*
X58425917Y-32066617D01*
X58456098Y-32151048D01*
X58343142Y-32264394D01*
X58230185Y-32377740D01*
X57879831Y-32027634D01*
X57793564Y-31941543D01*
X57720078Y-31868598D01*
X57657857Y-31807504D01*
X57605389Y-31756965D01*
X57561159Y-31715684D01*
X57523653Y-31682370D01*
X57491356Y-31655723D01*
X57462754Y-31634451D01*
X57436334Y-31617256D01*
X57410580Y-31602844D01*
X57383980Y-31589919D01*
X57355017Y-31577187D01*
X57351597Y-31575732D01*
X57261300Y-31543207D01*
X57171463Y-31523752D01*
X57073706Y-31515679D01*
X57051613Y-31515273D01*
X56926660Y-31523684D01*
X56808569Y-31551219D01*
X56712484Y-31590204D01*
X56654983Y-31622229D01*
X56593944Y-31662365D01*
X56536867Y-31705342D01*
X56491888Y-31745250D01*
X56472671Y-31762262D01*
X56457748Y-31764959D01*
X56437872Y-31754176D01*
X56432662Y-31750594D01*
X56389988Y-31727199D01*
X56333553Y-31704964D01*
X56269902Y-31685851D01*
X56205578Y-31671815D01*
X56147124Y-31664814D01*
X56145694Y-31664742D01*
X56049311Y-31667571D01*
X55950760Y-31684020D01*
X55858292Y-31712478D01*
X55822722Y-31727876D01*
X55757123Y-31766496D01*
X55689966Y-31818594D01*
X55627221Y-31878778D01*
X55574858Y-31941650D01*
X55557237Y-31967817D01*
X55508277Y-32065506D01*
X55476786Y-32170540D01*
X55462874Y-32279709D01*
X55466651Y-32389800D01*
X55488226Y-32497602D01*
X55527707Y-32599902D01*
X55535308Y-32614814D01*
X55549400Y-32645497D01*
X55557193Y-32670494D01*
X55557580Y-32681244D01*
X55549332Y-32696330D01*
X55532358Y-32722197D01*
X55510215Y-32753438D01*
X55508584Y-32755658D01*
X55450407Y-32851407D01*
X55408723Y-32956624D01*
X55383712Y-33068666D01*
X55375552Y-33184886D01*
X55384424Y-33302640D01*
X55410505Y-33419281D01*
X55453977Y-33532165D01*
X55455701Y-33535778D01*
X55493003Y-33613423D01*
X56310689Y-34433736D01*
X56441814Y-34565224D01*
X56559381Y-34682980D01*
X56664122Y-34787724D01*
X56756768Y-34880173D01*
X56838050Y-34961044D01*
X56908700Y-35031056D01*
X56969450Y-35090925D01*
X57021030Y-35141369D01*
X57064170Y-35183106D01*
X57099603Y-35216853D01*
X57128062Y-35243327D01*
X57150275Y-35263248D01*
X57166974Y-35277330D01*
X57178893Y-35286292D01*
X57180970Y-35287664D01*
X57283337Y-35341830D01*
X57392937Y-35379355D01*
X57506915Y-35400293D01*
X57622417Y-35404697D01*
X57736590Y-35392622D01*
X57846581Y-35364121D01*
X57949534Y-35319248D01*
X58024689Y-35271763D01*
X58056101Y-35249394D01*
X58082513Y-35231948D01*
X58098519Y-35222984D01*
X58099103Y-35222767D01*
X58115598Y-35224492D01*
X58142787Y-35234195D01*
X58165532Y-35245039D01*
X58253323Y-35283385D01*
X58344816Y-35306673D01*
X58445577Y-35316193D01*
X58474276Y-35316572D01*
X58586003Y-35308579D01*
X58687099Y-35284292D01*
X58779794Y-35242719D01*
X58866316Y-35182864D01*
X58938983Y-35113482D01*
X58766423Y-34940922D01*
X58706516Y-34994171D01*
X58705652Y-34994766D01*
X58624720Y-35039636D01*
X58541173Y-35065421D01*
X58469091Y-35071841D01*
X58427030Y-35068892D01*
X58382823Y-35061972D01*
X58342536Y-35052441D01*
X58312238Y-35041652D01*
X58300237Y-35034093D01*
X58305937Y-35025955D01*
X58324520Y-35005125D01*
X58354437Y-34973218D01*
X58394141Y-34931846D01*
X58442080Y-34882625D01*
X58496708Y-34827166D01*
X58556473Y-34767083D01*
X58560659Y-34762896D01*
X58620957Y-34702798D01*
X58676664Y-34647659D01*
X58726177Y-34599036D01*
X58767894Y-34558489D01*
X58768487Y-34557921D01*
X58586338Y-34375772D01*
X58482814Y-34478998D01*
X58389819Y-34571392D01*
X57870975Y-35086185D01*
X57812096Y-35111220D01*
X57711473Y-35143676D01*
X57609787Y-35156654D01*
X57509159Y-35150333D01*
X57411712Y-35124891D01*
X57319567Y-35080506D01*
X57299989Y-35068066D01*
X57287038Y-35057046D01*
X57260960Y-35032745D01*
X57222917Y-34996329D01*
X57174077Y-34948961D01*
X57115604Y-34891806D01*
X57048663Y-34826026D01*
X56974418Y-34752788D01*
X56894035Y-34673254D01*
X56808678Y-34588587D01*
X56719514Y-34499953D01*
X56627705Y-34408516D01*
X56534418Y-34315438D01*
X56440817Y-34221885D01*
X56348066Y-34129020D01*
X56257332Y-34038008D01*
X56169779Y-33950010D01*
X56086573Y-33866194D01*
X56008876Y-33787721D01*
X55937855Y-33715757D01*
X55874676Y-33651465D01*
X55820502Y-33596009D01*
X55776498Y-33550552D01*
X55743830Y-33516260D01*
X55723662Y-33494296D01*
X55717769Y-33487123D01*
X55667012Y-33395390D01*
X55635540Y-33298541D01*
X55623517Y-33198349D01*
X55631111Y-33096588D01*
X55658486Y-32995026D01*
X55669127Y-32968251D01*
X55694161Y-32909371D01*
X56202750Y-32396782D01*
X56021553Y-32215585D01*
X55750666Y-32486471D01*
X55739200Y-32465609D01*
X55731252Y-32444815D01*
X55722128Y-32411754D01*
X55715064Y-32379723D01*
X55708050Y-32294323D01*
X55719515Y-32212458D01*
X55747665Y-32136242D01*
X55790705Y-32067791D01*
X55846844Y-32009219D01*
X55914287Y-31962643D01*
X55991244Y-31930177D01*
X56075920Y-31913937D01*
X56111161Y-31912457D01*
X56145857Y-31914856D01*
X56186205Y-31921116D01*
X56225919Y-31929834D01*
X56258711Y-31939606D01*
X56278297Y-31949026D01*
X56279435Y-31950041D01*
X56273382Y-31957829D01*
X56254470Y-31978336D01*
X56224259Y-32009961D01*
X56184304Y-32051101D01*
X56136164Y-32100153D01*
X56081394Y-32155515D01*
X56021553Y-32215585D01*
X56202750Y-32396782D01*
X56208955Y-32390528D01*
X56327547Y-32271234D01*
X56432086Y-32166567D01*
X56522596Y-32076501D01*
X56599103Y-32001014D01*
X56661632Y-31940078D01*
X56710208Y-31893672D01*
X56744858Y-31861767D01*
X56765605Y-31844340D01*
X56768227Y-31842499D01*
X56852198Y-31799218D01*
X56944331Y-31772887D01*
X57041341Y-31763673D01*
X57139941Y-31771738D01*
X57236847Y-31797246D01*
X57284075Y-31816798D01*
X57346528Y-31846109D01*
X58099363Y-32594772D01*
X58228975Y-32723813D01*
X58348846Y-32843453D01*
X58458476Y-32953188D01*
X58557364Y-33052509D01*
X58645011Y-33140912D01*
X58720917Y-33217890D01*
X58784581Y-33282934D01*
X58835503Y-33335541D01*
X58873183Y-33375202D01*
X58897121Y-33401413D01*
X58904082Y-33409697D01*
X58958151Y-33490744D01*
X58994154Y-33574336D01*
X59013530Y-33664773D01*
X59018010Y-33749439D01*
X59010867Y-33818612D01*
X58992161Y-33893120D01*
X58964643Y-33963878D01*
X58938973Y-34010405D01*
X58926007Y-34026830D01*
X58901154Y-34054581D01*
X58864065Y-34094019D01*
X58814388Y-34145498D01*
X58751775Y-34209379D01*
X58675875Y-34286018D01*
X58586338Y-34375772D01*
X58768487Y-34557921D01*
X58800207Y-34527576D01*
X58821515Y-34507855D01*
X58830213Y-34500884D01*
X58830305Y-34500912D01*
X58835346Y-34511935D01*
X58844225Y-34536199D01*
X58851291Y-34557143D01*
X58867220Y-34636709D01*
X58865414Y-34718728D01*
X58847156Y-34799342D01*
X58813731Y-34874693D01*
X58766423Y-34940922D01*
X58938983Y-35113482D01*
X58946844Y-35105976D01*
X59017641Y-35015856D01*
X59069097Y-34920166D01*
X59101641Y-34817730D01*
X59115701Y-34707367D01*
X59115613Y-34640593D01*
X59108887Y-34578741D01*
X59094960Y-34511948D01*
X59075707Y-34446650D01*
X59053004Y-34389285D01*
X59030575Y-34348888D01*
X59009325Y-34318283D01*
X59066318Y-34251798D01*
X59132382Y-34167267D01*
X59182675Y-34085266D01*
X59218836Y-34004687D01*
X59252246Y-33887476D01*
X59266504Y-33766390D01*
X59261676Y-33644151D01*
X59237829Y-33523481D01*
X59204615Y-33428750D01*
X59191823Y-33399431D01*
X59178984Y-33372643D01*
X59164801Y-33346871D01*
X59147979Y-33320599D01*
X59127221Y-33292314D01*
X59101234Y-33260501D01*
X59068721Y-33223647D01*
X59028388Y-33180236D01*
X58978938Y-33128755D01*
X58919077Y-33067690D01*
X58847508Y-32995526D01*
X58762937Y-32910749D01*
X58752712Y-32900515D01*
X58402606Y-32550161D01*
X58629299Y-32324249D01*
X58713729Y-32354430D01*
X58808298Y-32378939D01*
X58901412Y-32383708D01*
X58995739Y-32368758D01*
X59036298Y-32356623D01*
X59077316Y-32341907D01*
X59108176Y-32327747D01*
X59135553Y-32310063D01*
X59166113Y-32284774D01*
X59191660Y-32261573D01*
X59198271Y-32254491D01*
X59026258Y-32082478D01*
X58999280Y-32101673D01*
X58962191Y-32117990D01*
X58959390Y-32119037D01*
X58891502Y-32134389D01*
X58825932Y-32130483D01*
X58765477Y-32108377D01*
X58712935Y-32069128D01*
X58671104Y-32013792D01*
X58668559Y-32009175D01*
X58649858Y-31954981D01*
X58645933Y-31893625D01*
X58657000Y-31832117D01*
X58662606Y-31816345D01*
X58695483Y-31759504D01*
X58741862Y-31715812D01*
X58798513Y-31686885D01*
X58862206Y-31674337D01*
X58929710Y-31679786D01*
X58933674Y-31680688D01*
X58968921Y-31690868D01*
X58996089Y-31704838D01*
X59023631Y-31727544D01*
X59038408Y-31741938D01*
X59066663Y-31772411D01*
X59083954Y-31798700D01*
X59095228Y-31829263D01*
X59099658Y-31846672D01*
X59105913Y-31915493D01*
X59092755Y-31982006D01*
X59060993Y-32042676D01*
X59052371Y-32053932D01*
X59026258Y-32082478D01*
X59198271Y-32254491D01*
X59260372Y-32187958D01*
X59309678Y-32111060D01*
X59340449Y-32028924D01*
X59353557Y-31939595D01*
X59353947Y-31897266D01*
X59343829Y-31800888D01*
X59318407Y-31716018D01*
X59276283Y-31639351D01*
X59216065Y-31567579D01*
X59213759Y-31565261D01*
X59138973Y-31503045D01*
G37*
X59138973Y-31503045D02*
X59057156Y-31459450D01*
X58967044Y-31433990D01*
X58867370Y-31426175D01*
X58854327Y-31426410D01*
X58767307Y-31435870D01*
X58689282Y-31460141D01*
X58616979Y-31500808D01*
X58547121Y-31559454D01*
X58518774Y-31588687D01*
X58486115Y-31625104D01*
X58463793Y-31653873D01*
X58447727Y-31681664D01*
X58433835Y-31715146D01*
X58423724Y-31744049D01*
X58400508Y-31839679D01*
X58397006Y-31932977D01*
X58413235Y-32026610D01*
X58425917Y-32066617D01*
X58456098Y-32151048D01*
X58343142Y-32264394D01*
X58230185Y-32377740D01*
X57879831Y-32027634D01*
X57793564Y-31941543D01*
X57720078Y-31868598D01*
X57657857Y-31807504D01*
X57605389Y-31756965D01*
X57561159Y-31715684D01*
X57523653Y-31682370D01*
X57491356Y-31655723D01*
X57462754Y-31634451D01*
X57436334Y-31617256D01*
X57410580Y-31602844D01*
X57383980Y-31589919D01*
X57355017Y-31577187D01*
X57351597Y-31575732D01*
X57261300Y-31543207D01*
X57171463Y-31523752D01*
X57073706Y-31515679D01*
X57051613Y-31515273D01*
X56926660Y-31523684D01*
X56808569Y-31551219D01*
X56712484Y-31590204D01*
X56654983Y-31622229D01*
X56593944Y-31662365D01*
X56536867Y-31705342D01*
X56491888Y-31745250D01*
X56472671Y-31762262D01*
X56457748Y-31764959D01*
X56437872Y-31754176D01*
X56432662Y-31750594D01*
X56389988Y-31727199D01*
X56333553Y-31704964D01*
X56269902Y-31685851D01*
X56205578Y-31671815D01*
X56147124Y-31664814D01*
X56145694Y-31664742D01*
X56049311Y-31667571D01*
X55950760Y-31684020D01*
X55858292Y-31712478D01*
X55822722Y-31727876D01*
X55757123Y-31766496D01*
X55689966Y-31818594D01*
X55627221Y-31878778D01*
X55574858Y-31941650D01*
X55557237Y-31967817D01*
X55508277Y-32065506D01*
X55476786Y-32170540D01*
X55462874Y-32279709D01*
X55466651Y-32389800D01*
X55488226Y-32497602D01*
X55527707Y-32599902D01*
X55535308Y-32614814D01*
X55549400Y-32645497D01*
X55557193Y-32670494D01*
X55557580Y-32681244D01*
X55549332Y-32696330D01*
X55532358Y-32722197D01*
X55510215Y-32753438D01*
X55508584Y-32755658D01*
X55450407Y-32851407D01*
X55408723Y-32956624D01*
X55383712Y-33068666D01*
X55375552Y-33184886D01*
X55384424Y-33302640D01*
X55410505Y-33419281D01*
X55453977Y-33532165D01*
X55455701Y-33535778D01*
X55493003Y-33613423D01*
X56310689Y-34433736D01*
X56441814Y-34565224D01*
X56559381Y-34682980D01*
X56664122Y-34787724D01*
X56756768Y-34880173D01*
X56838050Y-34961044D01*
X56908700Y-35031056D01*
X56969450Y-35090925D01*
X57021030Y-35141369D01*
X57064170Y-35183106D01*
X57099603Y-35216853D01*
X57128062Y-35243327D01*
X57150275Y-35263248D01*
X57166974Y-35277330D01*
X57178893Y-35286292D01*
X57180970Y-35287664D01*
X57283337Y-35341830D01*
X57392937Y-35379355D01*
X57506915Y-35400293D01*
X57622417Y-35404697D01*
X57736590Y-35392622D01*
X57846581Y-35364121D01*
X57949534Y-35319248D01*
X58024689Y-35271763D01*
X58056101Y-35249394D01*
X58082513Y-35231948D01*
X58098519Y-35222984D01*
X58099103Y-35222767D01*
X58115598Y-35224492D01*
X58142787Y-35234195D01*
X58165532Y-35245039D01*
X58253323Y-35283385D01*
X58344816Y-35306673D01*
X58445577Y-35316193D01*
X58474276Y-35316572D01*
X58586003Y-35308579D01*
X58687099Y-35284292D01*
X58779794Y-35242719D01*
X58866316Y-35182864D01*
X58938983Y-35113482D01*
X58766423Y-34940922D01*
X58706516Y-34994171D01*
X58705652Y-34994766D01*
X58624720Y-35039636D01*
X58541173Y-35065421D01*
X58469091Y-35071841D01*
X58427030Y-35068892D01*
X58382823Y-35061972D01*
X58342536Y-35052441D01*
X58312238Y-35041652D01*
X58300237Y-35034093D01*
X58305937Y-35025955D01*
X58324520Y-35005125D01*
X58354437Y-34973218D01*
X58394141Y-34931846D01*
X58442080Y-34882625D01*
X58496708Y-34827166D01*
X58556473Y-34767083D01*
X58560659Y-34762896D01*
X58620957Y-34702798D01*
X58676664Y-34647659D01*
X58726177Y-34599036D01*
X58767894Y-34558489D01*
X58768487Y-34557921D01*
X58586338Y-34375772D01*
X58482814Y-34478998D01*
X58389819Y-34571392D01*
X57870975Y-35086185D01*
X57812096Y-35111220D01*
X57711473Y-35143676D01*
X57609787Y-35156654D01*
X57509159Y-35150333D01*
X57411712Y-35124891D01*
X57319567Y-35080506D01*
X57299989Y-35068066D01*
X57287038Y-35057046D01*
X57260960Y-35032745D01*
X57222917Y-34996329D01*
X57174077Y-34948961D01*
X57115604Y-34891806D01*
X57048663Y-34826026D01*
X56974418Y-34752788D01*
X56894035Y-34673254D01*
X56808678Y-34588587D01*
X56719514Y-34499953D01*
X56627705Y-34408516D01*
X56534418Y-34315438D01*
X56440817Y-34221885D01*
X56348066Y-34129020D01*
X56257332Y-34038008D01*
X56169779Y-33950010D01*
X56086573Y-33866194D01*
X56008876Y-33787721D01*
X55937855Y-33715757D01*
X55874676Y-33651465D01*
X55820502Y-33596009D01*
X55776498Y-33550552D01*
X55743830Y-33516260D01*
X55723662Y-33494296D01*
X55717769Y-33487123D01*
X55667012Y-33395390D01*
X55635540Y-33298541D01*
X55623517Y-33198349D01*
X55631111Y-33096588D01*
X55658486Y-32995026D01*
X55669127Y-32968251D01*
X55694161Y-32909371D01*
X56202750Y-32396782D01*
X56021553Y-32215585D01*
X55750666Y-32486471D01*
X55739200Y-32465609D01*
X55731252Y-32444815D01*
X55722128Y-32411754D01*
X55715064Y-32379723D01*
X55708050Y-32294323D01*
X55719515Y-32212458D01*
X55747665Y-32136242D01*
X55790705Y-32067791D01*
X55846844Y-32009219D01*
X55914287Y-31962643D01*
X55991244Y-31930177D01*
X56075920Y-31913937D01*
X56111161Y-31912457D01*
X56145857Y-31914856D01*
X56186205Y-31921116D01*
X56225919Y-31929834D01*
X56258711Y-31939606D01*
X56278297Y-31949026D01*
X56279435Y-31950041D01*
X56273382Y-31957829D01*
X56254470Y-31978336D01*
X56224259Y-32009961D01*
X56184304Y-32051101D01*
X56136164Y-32100153D01*
X56081394Y-32155515D01*
X56021553Y-32215585D01*
X56202750Y-32396782D01*
X56208955Y-32390528D01*
X56327547Y-32271234D01*
X56432086Y-32166567D01*
X56522596Y-32076501D01*
X56599103Y-32001014D01*
X56661632Y-31940078D01*
X56710208Y-31893672D01*
X56744858Y-31861767D01*
X56765605Y-31844340D01*
X56768227Y-31842499D01*
X56852198Y-31799218D01*
X56944331Y-31772887D01*
X57041341Y-31763673D01*
X57139941Y-31771738D01*
X57236847Y-31797246D01*
X57284075Y-31816798D01*
X57346528Y-31846109D01*
X58099363Y-32594772D01*
X58228975Y-32723813D01*
X58348846Y-32843453D01*
X58458476Y-32953188D01*
X58557364Y-33052509D01*
X58645011Y-33140912D01*
X58720917Y-33217890D01*
X58784581Y-33282934D01*
X58835503Y-33335541D01*
X58873183Y-33375202D01*
X58897121Y-33401413D01*
X58904082Y-33409697D01*
X58958151Y-33490744D01*
X58994154Y-33574336D01*
X59013530Y-33664773D01*
X59018010Y-33749439D01*
X59010867Y-33818612D01*
X58992161Y-33893120D01*
X58964643Y-33963878D01*
X58938973Y-34010405D01*
X58926007Y-34026830D01*
X58901154Y-34054581D01*
X58864065Y-34094019D01*
X58814388Y-34145498D01*
X58751775Y-34209379D01*
X58675875Y-34286018D01*
X58586338Y-34375772D01*
X58768487Y-34557921D01*
X58800207Y-34527576D01*
X58821515Y-34507855D01*
X58830213Y-34500884D01*
X58830305Y-34500912D01*
X58835346Y-34511935D01*
X58844225Y-34536199D01*
X58851291Y-34557143D01*
X58867220Y-34636709D01*
X58865414Y-34718728D01*
X58847156Y-34799342D01*
X58813731Y-34874693D01*
X58766423Y-34940922D01*
X58938983Y-35113482D01*
X58946844Y-35105976D01*
X59017641Y-35015856D01*
X59069097Y-34920166D01*
X59101641Y-34817730D01*
X59115701Y-34707367D01*
X59115613Y-34640593D01*
X59108887Y-34578741D01*
X59094960Y-34511948D01*
X59075707Y-34446650D01*
X59053004Y-34389285D01*
X59030575Y-34348888D01*
X59009325Y-34318283D01*
X59066318Y-34251798D01*
X59132382Y-34167267D01*
X59182675Y-34085266D01*
X59218836Y-34004687D01*
X59252246Y-33887476D01*
X59266504Y-33766390D01*
X59261676Y-33644151D01*
X59237829Y-33523481D01*
X59204615Y-33428750D01*
X59191823Y-33399431D01*
X59178984Y-33372643D01*
X59164801Y-33346871D01*
X59147979Y-33320599D01*
X59127221Y-33292314D01*
X59101234Y-33260501D01*
X59068721Y-33223647D01*
X59028388Y-33180236D01*
X58978938Y-33128755D01*
X58919077Y-33067690D01*
X58847508Y-32995526D01*
X58762937Y-32910749D01*
X58752712Y-32900515D01*
X58402606Y-32550161D01*
X58629299Y-32324249D01*
X58713729Y-32354430D01*
X58808298Y-32378939D01*
X58901412Y-32383708D01*
X58995739Y-32368758D01*
X59036298Y-32356623D01*
X59077316Y-32341907D01*
X59108176Y-32327747D01*
X59135553Y-32310063D01*
X59166113Y-32284774D01*
X59191660Y-32261573D01*
X59198271Y-32254491D01*
X59026258Y-32082478D01*
X58999280Y-32101673D01*
X58962191Y-32117990D01*
X58959390Y-32119037D01*
X58891502Y-32134389D01*
X58825932Y-32130483D01*
X58765477Y-32108377D01*
X58712935Y-32069128D01*
X58671104Y-32013792D01*
X58668559Y-32009175D01*
X58649858Y-31954981D01*
X58645933Y-31893625D01*
X58657000Y-31832117D01*
X58662606Y-31816345D01*
X58695483Y-31759504D01*
X58741862Y-31715812D01*
X58798513Y-31686885D01*
X58862206Y-31674337D01*
X58929710Y-31679786D01*
X58933674Y-31680688D01*
X58968921Y-31690868D01*
X58996089Y-31704838D01*
X59023631Y-31727544D01*
X59038408Y-31741938D01*
X59066663Y-31772411D01*
X59083954Y-31798700D01*
X59095228Y-31829263D01*
X59099658Y-31846672D01*
X59105913Y-31915493D01*
X59092755Y-31982006D01*
X59060993Y-32042676D01*
X59052371Y-32053932D01*
X59026258Y-32082478D01*
X59198271Y-32254491D01*
X59260372Y-32187958D01*
X59309678Y-32111060D01*
X59340449Y-32028924D01*
X59353557Y-31939595D01*
X59353947Y-31897266D01*
X59343829Y-31800888D01*
X59318407Y-31716018D01*
X59276283Y-31639351D01*
X59216065Y-31567579D01*
X59213759Y-31565261D01*
X59138973Y-31503045D01*
M02*
