G04 #@! TF.GenerationSoftware,KiCad,Pcbnew,(5.1.6-0-10_14)*
G04 #@! TF.CreationDate,2021-04-17T00:03:13+02:00*
G04 #@! TF.ProjectId,Encoder_SPI_Panel_v1_1,456e636f-6465-4725-9f53-50495f50616e,rev?*
G04 #@! TF.SameCoordinates,Original*
G04 #@! TF.FileFunction,Paste,Top*
G04 #@! TF.FilePolarity,Positive*
%FSLAX46Y46*%
G04 Gerber Fmt 4.6, Leading zero omitted, Abs format (unit mm)*
G04 Created by KiCad (PCBNEW (5.1.6-0-10_14)) date 2021-04-17 00:03:13*
%MOMM*%
%LPD*%
G01*
G04 APERTURE LIST*
G04 APERTURE END LIST*
G36*
G01*
X137929133Y-34172499D02*
X137929133Y-33827499D01*
G75*
G02*
X138076633Y-33679999I147500J0D01*
G01*
X138371633Y-33679999D01*
G75*
G02*
X138519133Y-33827499I0J-147500D01*
G01*
X138519133Y-34172499D01*
G75*
G02*
X138371633Y-34319999I-147500J0D01*
G01*
X138076633Y-34319999D01*
G75*
G02*
X137929133Y-34172499I0J147500D01*
G01*
G37*
G36*
G01*
X138899133Y-34172499D02*
X138899133Y-33827499D01*
G75*
G02*
X139046633Y-33679999I147500J0D01*
G01*
X139341633Y-33679999D01*
G75*
G02*
X139489133Y-33827499I0J-147500D01*
G01*
X139489133Y-34172499D01*
G75*
G02*
X139341633Y-34319999I-147500J0D01*
G01*
X139046633Y-34319999D01*
G75*
G02*
X138899133Y-34172499I0J147500D01*
G01*
G37*
G36*
G01*
X136381633Y-36279999D02*
X136036633Y-36279999D01*
G75*
G02*
X135889133Y-36132499I0J147500D01*
G01*
X135889133Y-35837499D01*
G75*
G02*
X136036633Y-35689999I147500J0D01*
G01*
X136381633Y-35689999D01*
G75*
G02*
X136529133Y-35837499I0J-147500D01*
G01*
X136529133Y-36132499D01*
G75*
G02*
X136381633Y-36279999I-147500J0D01*
G01*
G37*
G36*
G01*
X136381633Y-35309999D02*
X136036633Y-35309999D01*
G75*
G02*
X135889133Y-35162499I0J147500D01*
G01*
X135889133Y-34867499D01*
G75*
G02*
X136036633Y-34719999I147500J0D01*
G01*
X136381633Y-34719999D01*
G75*
G02*
X136529133Y-34867499I0J-147500D01*
G01*
X136529133Y-35162499D01*
G75*
G02*
X136381633Y-35309999I-147500J0D01*
G01*
G37*
G36*
G01*
X135764133Y-44202499D02*
X135764133Y-44547499D01*
G75*
G02*
X135616633Y-44694999I-147500J0D01*
G01*
X135321633Y-44694999D01*
G75*
G02*
X135174133Y-44547499I0J147500D01*
G01*
X135174133Y-44202499D01*
G75*
G02*
X135321633Y-44054999I147500J0D01*
G01*
X135616633Y-44054999D01*
G75*
G02*
X135764133Y-44202499I0J-147500D01*
G01*
G37*
G36*
G01*
X134794133Y-44202499D02*
X134794133Y-44547499D01*
G75*
G02*
X134646633Y-44694999I-147500J0D01*
G01*
X134351633Y-44694999D01*
G75*
G02*
X134204133Y-44547499I0J147500D01*
G01*
X134204133Y-44202499D01*
G75*
G02*
X134351633Y-44054999I147500J0D01*
G01*
X134646633Y-44054999D01*
G75*
G02*
X134794133Y-44202499I0J-147500D01*
G01*
G37*
G36*
G01*
X134204133Y-45547499D02*
X134204133Y-45202499D01*
G75*
G02*
X134351633Y-45054999I147500J0D01*
G01*
X134646633Y-45054999D01*
G75*
G02*
X134794133Y-45202499I0J-147500D01*
G01*
X134794133Y-45547499D01*
G75*
G02*
X134646633Y-45694999I-147500J0D01*
G01*
X134351633Y-45694999D01*
G75*
G02*
X134204133Y-45547499I0J147500D01*
G01*
G37*
G36*
G01*
X135174133Y-45547499D02*
X135174133Y-45202499D01*
G75*
G02*
X135321633Y-45054999I147500J0D01*
G01*
X135616633Y-45054999D01*
G75*
G02*
X135764133Y-45202499I0J-147500D01*
G01*
X135764133Y-45547499D01*
G75*
G02*
X135616633Y-45694999I-147500J0D01*
G01*
X135321633Y-45694999D01*
G75*
G02*
X135174133Y-45547499I0J147500D01*
G01*
G37*
G36*
G01*
X140334133Y-42299999D02*
X139084133Y-42299999D01*
G75*
G02*
X138934133Y-42149999I0J150000D01*
G01*
X138934133Y-41849999D01*
G75*
G02*
X139084133Y-41699999I150000J0D01*
G01*
X140334133Y-41699999D01*
G75*
G02*
X140484133Y-41849999I0J-150000D01*
G01*
X140484133Y-42149999D01*
G75*
G02*
X140334133Y-42299999I-150000J0D01*
G01*
G37*
G36*
G01*
X140334133Y-41299999D02*
X139084133Y-41299999D01*
G75*
G02*
X138934133Y-41149999I0J150000D01*
G01*
X138934133Y-40849999D01*
G75*
G02*
X139084133Y-40699999I150000J0D01*
G01*
X140334133Y-40699999D01*
G75*
G02*
X140484133Y-40849999I0J-150000D01*
G01*
X140484133Y-41149999D01*
G75*
G02*
X140334133Y-41299999I-150000J0D01*
G01*
G37*
G36*
G01*
X140334133Y-40299999D02*
X139084133Y-40299999D01*
G75*
G02*
X138934133Y-40149999I0J150000D01*
G01*
X138934133Y-39849999D01*
G75*
G02*
X139084133Y-39699999I150000J0D01*
G01*
X140334133Y-39699999D01*
G75*
G02*
X140484133Y-39849999I0J-150000D01*
G01*
X140484133Y-40149999D01*
G75*
G02*
X140334133Y-40299999I-150000J0D01*
G01*
G37*
G36*
G01*
X140334133Y-39299999D02*
X139084133Y-39299999D01*
G75*
G02*
X138934133Y-39149999I0J150000D01*
G01*
X138934133Y-38849999D01*
G75*
G02*
X139084133Y-38699999I150000J0D01*
G01*
X140334133Y-38699999D01*
G75*
G02*
X140484133Y-38849999I0J-150000D01*
G01*
X140484133Y-39149999D01*
G75*
G02*
X140334133Y-39299999I-150000J0D01*
G01*
G37*
G36*
G01*
X140334133Y-38299999D02*
X139084133Y-38299999D01*
G75*
G02*
X138934133Y-38149999I0J150000D01*
G01*
X138934133Y-37849999D01*
G75*
G02*
X139084133Y-37699999I150000J0D01*
G01*
X140334133Y-37699999D01*
G75*
G02*
X140484133Y-37849999I0J-150000D01*
G01*
X140484133Y-38149999D01*
G75*
G02*
X140334133Y-38299999I-150000J0D01*
G01*
G37*
G36*
G01*
X140334133Y-37299999D02*
X139084133Y-37299999D01*
G75*
G02*
X138934133Y-37149999I0J150000D01*
G01*
X138934133Y-36849999D01*
G75*
G02*
X139084133Y-36699999I150000J0D01*
G01*
X140334133Y-36699999D01*
G75*
G02*
X140484133Y-36849999I0J-150000D01*
G01*
X140484133Y-37149999D01*
G75*
G02*
X140334133Y-37299999I-150000J0D01*
G01*
G37*
G36*
G01*
X144234533Y-43899999D02*
X142933733Y-43899999D01*
G75*
G02*
X142684133Y-43650399I0J249600D01*
G01*
X142684133Y-42949599D01*
G75*
G02*
X142933733Y-42699999I249600J0D01*
G01*
X144234533Y-42699999D01*
G75*
G02*
X144484133Y-42949599I0J-249600D01*
G01*
X144484133Y-43650399D01*
G75*
G02*
X144234533Y-43899999I-249600J0D01*
G01*
G37*
G36*
G01*
X144234533Y-36299999D02*
X142933733Y-36299999D01*
G75*
G02*
X142684133Y-36050399I0J249600D01*
G01*
X142684133Y-35349599D01*
G75*
G02*
X142933733Y-35099999I249600J0D01*
G01*
X144234533Y-35099999D01*
G75*
G02*
X144484133Y-35349599I0J-249600D01*
G01*
X144484133Y-36050399D01*
G75*
G02*
X144234533Y-36299999I-249600J0D01*
G01*
G37*
G36*
G01*
X117929130Y-34172499D02*
X117929130Y-33827499D01*
G75*
G02*
X118076630Y-33679999I147500J0D01*
G01*
X118371630Y-33679999D01*
G75*
G02*
X118519130Y-33827499I0J-147500D01*
G01*
X118519130Y-34172499D01*
G75*
G02*
X118371630Y-34319999I-147500J0D01*
G01*
X118076630Y-34319999D01*
G75*
G02*
X117929130Y-34172499I0J147500D01*
G01*
G37*
G36*
G01*
X118899130Y-34172499D02*
X118899130Y-33827499D01*
G75*
G02*
X119046630Y-33679999I147500J0D01*
G01*
X119341630Y-33679999D01*
G75*
G02*
X119489130Y-33827499I0J-147500D01*
G01*
X119489130Y-34172499D01*
G75*
G02*
X119341630Y-34319999I-147500J0D01*
G01*
X119046630Y-34319999D01*
G75*
G02*
X118899130Y-34172499I0J147500D01*
G01*
G37*
G36*
G01*
X116381630Y-36279999D02*
X116036630Y-36279999D01*
G75*
G02*
X115889130Y-36132499I0J147500D01*
G01*
X115889130Y-35837499D01*
G75*
G02*
X116036630Y-35689999I147500J0D01*
G01*
X116381630Y-35689999D01*
G75*
G02*
X116529130Y-35837499I0J-147500D01*
G01*
X116529130Y-36132499D01*
G75*
G02*
X116381630Y-36279999I-147500J0D01*
G01*
G37*
G36*
G01*
X116381630Y-35309999D02*
X116036630Y-35309999D01*
G75*
G02*
X115889130Y-35162499I0J147500D01*
G01*
X115889130Y-34867499D01*
G75*
G02*
X116036630Y-34719999I147500J0D01*
G01*
X116381630Y-34719999D01*
G75*
G02*
X116529130Y-34867499I0J-147500D01*
G01*
X116529130Y-35162499D01*
G75*
G02*
X116381630Y-35309999I-147500J0D01*
G01*
G37*
G36*
G01*
X114229130Y-43072499D02*
X114229130Y-42727499D01*
G75*
G02*
X114376630Y-42579999I147500J0D01*
G01*
X114671630Y-42579999D01*
G75*
G02*
X114819130Y-42727499I0J-147500D01*
G01*
X114819130Y-43072499D01*
G75*
G02*
X114671630Y-43219999I-147500J0D01*
G01*
X114376630Y-43219999D01*
G75*
G02*
X114229130Y-43072499I0J147500D01*
G01*
G37*
G36*
G01*
X115199130Y-43072499D02*
X115199130Y-42727499D01*
G75*
G02*
X115346630Y-42579999I147500J0D01*
G01*
X115641630Y-42579999D01*
G75*
G02*
X115789130Y-42727499I0J-147500D01*
G01*
X115789130Y-43072499D01*
G75*
G02*
X115641630Y-43219999I-147500J0D01*
G01*
X115346630Y-43219999D01*
G75*
G02*
X115199130Y-43072499I0J147500D01*
G01*
G37*
G36*
G01*
X118129130Y-44172499D02*
X118129130Y-43827499D01*
G75*
G02*
X118276630Y-43679999I147500J0D01*
G01*
X118571630Y-43679999D01*
G75*
G02*
X118719130Y-43827499I0J-147500D01*
G01*
X118719130Y-44172499D01*
G75*
G02*
X118571630Y-44319999I-147500J0D01*
G01*
X118276630Y-44319999D01*
G75*
G02*
X118129130Y-44172499I0J147500D01*
G01*
G37*
G36*
G01*
X119099130Y-44172499D02*
X119099130Y-43827499D01*
G75*
G02*
X119246630Y-43679999I147500J0D01*
G01*
X119541630Y-43679999D01*
G75*
G02*
X119689130Y-43827499I0J-147500D01*
G01*
X119689130Y-44172499D01*
G75*
G02*
X119541630Y-44319999I-147500J0D01*
G01*
X119246630Y-44319999D01*
G75*
G02*
X119099130Y-44172499I0J147500D01*
G01*
G37*
G36*
G01*
X116789130Y-44227499D02*
X116789130Y-44572499D01*
G75*
G02*
X116641630Y-44719999I-147500J0D01*
G01*
X116346630Y-44719999D01*
G75*
G02*
X116199130Y-44572499I0J147500D01*
G01*
X116199130Y-44227499D01*
G75*
G02*
X116346630Y-44079999I147500J0D01*
G01*
X116641630Y-44079999D01*
G75*
G02*
X116789130Y-44227499I0J-147500D01*
G01*
G37*
G36*
G01*
X115819130Y-44227499D02*
X115819130Y-44572499D01*
G75*
G02*
X115671630Y-44719999I-147500J0D01*
G01*
X115376630Y-44719999D01*
G75*
G02*
X115229130Y-44572499I0J147500D01*
G01*
X115229130Y-44227499D01*
G75*
G02*
X115376630Y-44079999I147500J0D01*
G01*
X115671630Y-44079999D01*
G75*
G02*
X115819130Y-44227499I0J-147500D01*
G01*
G37*
G36*
G01*
X117429130Y-45272499D02*
X117429130Y-44927499D01*
G75*
G02*
X117576630Y-44779999I147500J0D01*
G01*
X117871630Y-44779999D01*
G75*
G02*
X118019130Y-44927499I0J-147500D01*
G01*
X118019130Y-45272499D01*
G75*
G02*
X117871630Y-45419999I-147500J0D01*
G01*
X117576630Y-45419999D01*
G75*
G02*
X117429130Y-45272499I0J147500D01*
G01*
G37*
G36*
G01*
X118399130Y-45272499D02*
X118399130Y-44927499D01*
G75*
G02*
X118546630Y-44779999I147500J0D01*
G01*
X118841630Y-44779999D01*
G75*
G02*
X118989130Y-44927499I0J-147500D01*
G01*
X118989130Y-45272499D01*
G75*
G02*
X118841630Y-45419999I-147500J0D01*
G01*
X118546630Y-45419999D01*
G75*
G02*
X118399130Y-45272499I0J147500D01*
G01*
G37*
G36*
G01*
X121381630Y-35279999D02*
X121036630Y-35279999D01*
G75*
G02*
X120889130Y-35132499I0J147500D01*
G01*
X120889130Y-34837499D01*
G75*
G02*
X121036630Y-34689999I147500J0D01*
G01*
X121381630Y-34689999D01*
G75*
G02*
X121529130Y-34837499I0J-147500D01*
G01*
X121529130Y-35132499D01*
G75*
G02*
X121381630Y-35279999I-147500J0D01*
G01*
G37*
G36*
G01*
X121381630Y-34309999D02*
X121036630Y-34309999D01*
G75*
G02*
X120889130Y-34162499I0J147500D01*
G01*
X120889130Y-33867499D01*
G75*
G02*
X121036630Y-33719999I147500J0D01*
G01*
X121381630Y-33719999D01*
G75*
G02*
X121529130Y-33867499I0J-147500D01*
G01*
X121529130Y-34162499D01*
G75*
G02*
X121381630Y-34309999I-147500J0D01*
G01*
G37*
G36*
G01*
X120036630Y-33719999D02*
X120381630Y-33719999D01*
G75*
G02*
X120529130Y-33867499I0J-147500D01*
G01*
X120529130Y-34162499D01*
G75*
G02*
X120381630Y-34309999I-147500J0D01*
G01*
X120036630Y-34309999D01*
G75*
G02*
X119889130Y-34162499I0J147500D01*
G01*
X119889130Y-33867499D01*
G75*
G02*
X120036630Y-33719999I147500J0D01*
G01*
G37*
G36*
G01*
X120036630Y-34689999D02*
X120381630Y-34689999D01*
G75*
G02*
X120529130Y-34837499I0J-147500D01*
G01*
X120529130Y-35132499D01*
G75*
G02*
X120381630Y-35279999I-147500J0D01*
G01*
X120036630Y-35279999D01*
G75*
G02*
X119889130Y-35132499I0J147500D01*
G01*
X119889130Y-34837499D01*
G75*
G02*
X120036630Y-34689999I147500J0D01*
G01*
G37*
G36*
G01*
X120334130Y-41299999D02*
X119084130Y-41299999D01*
G75*
G02*
X118934130Y-41149999I0J150000D01*
G01*
X118934130Y-40849999D01*
G75*
G02*
X119084130Y-40699999I150000J0D01*
G01*
X120334130Y-40699999D01*
G75*
G02*
X120484130Y-40849999I0J-150000D01*
G01*
X120484130Y-41149999D01*
G75*
G02*
X120334130Y-41299999I-150000J0D01*
G01*
G37*
G36*
G01*
X120334130Y-40299999D02*
X119084130Y-40299999D01*
G75*
G02*
X118934130Y-40149999I0J150000D01*
G01*
X118934130Y-39849999D01*
G75*
G02*
X119084130Y-39699999I150000J0D01*
G01*
X120334130Y-39699999D01*
G75*
G02*
X120484130Y-39849999I0J-150000D01*
G01*
X120484130Y-40149999D01*
G75*
G02*
X120334130Y-40299999I-150000J0D01*
G01*
G37*
G36*
G01*
X120334130Y-39299999D02*
X119084130Y-39299999D01*
G75*
G02*
X118934130Y-39149999I0J150000D01*
G01*
X118934130Y-38849999D01*
G75*
G02*
X119084130Y-38699999I150000J0D01*
G01*
X120334130Y-38699999D01*
G75*
G02*
X120484130Y-38849999I0J-150000D01*
G01*
X120484130Y-39149999D01*
G75*
G02*
X120334130Y-39299999I-150000J0D01*
G01*
G37*
G36*
G01*
X120334130Y-38299999D02*
X119084130Y-38299999D01*
G75*
G02*
X118934130Y-38149999I0J150000D01*
G01*
X118934130Y-37849999D01*
G75*
G02*
X119084130Y-37699999I150000J0D01*
G01*
X120334130Y-37699999D01*
G75*
G02*
X120484130Y-37849999I0J-150000D01*
G01*
X120484130Y-38149999D01*
G75*
G02*
X120334130Y-38299999I-150000J0D01*
G01*
G37*
G36*
G01*
X124234131Y-42899999D02*
X122934129Y-42899999D01*
G75*
G02*
X122684130Y-42650000I0J249999D01*
G01*
X122684130Y-41949998D01*
G75*
G02*
X122934129Y-41699999I249999J0D01*
G01*
X124234131Y-41699999D01*
G75*
G02*
X124484130Y-41949998I0J-249999D01*
G01*
X124484130Y-42650000D01*
G75*
G02*
X124234131Y-42899999I-249999J0D01*
G01*
G37*
G36*
G01*
X124234131Y-37299999D02*
X122934129Y-37299999D01*
G75*
G02*
X122684130Y-37050000I0J249999D01*
G01*
X122684130Y-36349998D01*
G75*
G02*
X122934129Y-36099999I249999J0D01*
G01*
X124234131Y-36099999D01*
G75*
G02*
X124484130Y-36349998I0J-249999D01*
G01*
X124484130Y-37050000D01*
G75*
G02*
X124234131Y-37299999I-249999J0D01*
G01*
G37*
G36*
G01*
X99003982Y-41084950D02*
X99348982Y-41084950D01*
G75*
G02*
X99496482Y-41232450I0J-147500D01*
G01*
X99496482Y-41527450D01*
G75*
G02*
X99348982Y-41674950I-147500J0D01*
G01*
X99003982Y-41674950D01*
G75*
G02*
X98856482Y-41527450I0J147500D01*
G01*
X98856482Y-41232450D01*
G75*
G02*
X99003982Y-41084950I147500J0D01*
G01*
G37*
G36*
G01*
X99003982Y-42054950D02*
X99348982Y-42054950D01*
G75*
G02*
X99496482Y-42202450I0J-147500D01*
G01*
X99496482Y-42497450D01*
G75*
G02*
X99348982Y-42644950I-147500J0D01*
G01*
X99003982Y-42644950D01*
G75*
G02*
X98856482Y-42497450I0J147500D01*
G01*
X98856482Y-42202450D01*
G75*
G02*
X99003982Y-42054950I147500J0D01*
G01*
G37*
G36*
G01*
X99348982Y-40409950D02*
X99003982Y-40409950D01*
G75*
G02*
X98856482Y-40262450I0J147500D01*
G01*
X98856482Y-39967450D01*
G75*
G02*
X99003982Y-39819950I147500J0D01*
G01*
X99348982Y-39819950D01*
G75*
G02*
X99496482Y-39967450I0J-147500D01*
G01*
X99496482Y-40262450D01*
G75*
G02*
X99348982Y-40409950I-147500J0D01*
G01*
G37*
G36*
G01*
X99348982Y-39439950D02*
X99003982Y-39439950D01*
G75*
G02*
X98856482Y-39292450I0J147500D01*
G01*
X98856482Y-38997450D01*
G75*
G02*
X99003982Y-38849950I147500J0D01*
G01*
X99348982Y-38849950D01*
G75*
G02*
X99496482Y-38997450I0J-147500D01*
G01*
X99496482Y-39292450D01*
G75*
G02*
X99348982Y-39439950I-147500J0D01*
G01*
G37*
G36*
G01*
X101631482Y-43299950D02*
X100381482Y-43299950D01*
G75*
G02*
X100231482Y-43149950I0J150000D01*
G01*
X100231482Y-42849950D01*
G75*
G02*
X100381482Y-42699950I150000J0D01*
G01*
X101631482Y-42699950D01*
G75*
G02*
X101781482Y-42849950I0J-150000D01*
G01*
X101781482Y-43149950D01*
G75*
G02*
X101631482Y-43299950I-150000J0D01*
G01*
G37*
G36*
G01*
X101631482Y-42299950D02*
X100381482Y-42299950D01*
G75*
G02*
X100231482Y-42149950I0J150000D01*
G01*
X100231482Y-41849950D01*
G75*
G02*
X100381482Y-41699950I150000J0D01*
G01*
X101631482Y-41699950D01*
G75*
G02*
X101781482Y-41849950I0J-150000D01*
G01*
X101781482Y-42149950D01*
G75*
G02*
X101631482Y-42299950I-150000J0D01*
G01*
G37*
G36*
G01*
X101631482Y-41299950D02*
X100381482Y-41299950D01*
G75*
G02*
X100231482Y-41149950I0J150000D01*
G01*
X100231482Y-40849950D01*
G75*
G02*
X100381482Y-40699950I150000J0D01*
G01*
X101631482Y-40699950D01*
G75*
G02*
X101781482Y-40849950I0J-150000D01*
G01*
X101781482Y-41149950D01*
G75*
G02*
X101631482Y-41299950I-150000J0D01*
G01*
G37*
G36*
G01*
X101631482Y-40299950D02*
X100381482Y-40299950D01*
G75*
G02*
X100231482Y-40149950I0J150000D01*
G01*
X100231482Y-39849950D01*
G75*
G02*
X100381482Y-39699950I150000J0D01*
G01*
X101631482Y-39699950D01*
G75*
G02*
X101781482Y-39849950I0J-150000D01*
G01*
X101781482Y-40149950D01*
G75*
G02*
X101631482Y-40299950I-150000J0D01*
G01*
G37*
G36*
G01*
X101631482Y-39299950D02*
X100381482Y-39299950D01*
G75*
G02*
X100231482Y-39149950I0J150000D01*
G01*
X100231482Y-38849950D01*
G75*
G02*
X100381482Y-38699950I150000J0D01*
G01*
X101631482Y-38699950D01*
G75*
G02*
X101781482Y-38849950I0J-150000D01*
G01*
X101781482Y-39149950D01*
G75*
G02*
X101631482Y-39299950I-150000J0D01*
G01*
G37*
G36*
G01*
X101631482Y-38299950D02*
X100381482Y-38299950D01*
G75*
G02*
X100231482Y-38149950I0J150000D01*
G01*
X100231482Y-37849950D01*
G75*
G02*
X100381482Y-37699950I150000J0D01*
G01*
X101631482Y-37699950D01*
G75*
G02*
X101781482Y-37849950I0J-150000D01*
G01*
X101781482Y-38149950D01*
G75*
G02*
X101631482Y-38299950I-150000J0D01*
G01*
G37*
G36*
G01*
X101631482Y-37299950D02*
X100381482Y-37299950D01*
G75*
G02*
X100231482Y-37149950I0J150000D01*
G01*
X100231482Y-36849950D01*
G75*
G02*
X100381482Y-36699950I150000J0D01*
G01*
X101631482Y-36699950D01*
G75*
G02*
X101781482Y-36849950I0J-150000D01*
G01*
X101781482Y-37149950D01*
G75*
G02*
X101631482Y-37299950I-150000J0D01*
G01*
G37*
G36*
G01*
X101631482Y-36299950D02*
X100381482Y-36299950D01*
G75*
G02*
X100231482Y-36149950I0J150000D01*
G01*
X100231482Y-35849950D01*
G75*
G02*
X100381482Y-35699950I150000J0D01*
G01*
X101631482Y-35699950D01*
G75*
G02*
X101781482Y-35849950I0J-150000D01*
G01*
X101781482Y-36149950D01*
G75*
G02*
X101631482Y-36299950I-150000J0D01*
G01*
G37*
G36*
G01*
X105531483Y-44899950D02*
X104231481Y-44899950D01*
G75*
G02*
X103981482Y-44649951I0J249999D01*
G01*
X103981482Y-43949949D01*
G75*
G02*
X104231481Y-43699950I249999J0D01*
G01*
X105531483Y-43699950D01*
G75*
G02*
X105781482Y-43949949I0J-249999D01*
G01*
X105781482Y-44649951D01*
G75*
G02*
X105531483Y-44899950I-249999J0D01*
G01*
G37*
G36*
G01*
X105531483Y-35299950D02*
X104231481Y-35299950D01*
G75*
G02*
X103981482Y-35049951I0J249999D01*
G01*
X103981482Y-34349949D01*
G75*
G02*
X104231481Y-34099950I249999J0D01*
G01*
X105531483Y-34099950D01*
G75*
G02*
X105781482Y-34349949I0J-249999D01*
G01*
X105781482Y-35049951D01*
G75*
G02*
X105531483Y-35299950I-249999J0D01*
G01*
G37*
G36*
G01*
X86000938Y-41084950D02*
X86345938Y-41084950D01*
G75*
G02*
X86493438Y-41232450I0J-147500D01*
G01*
X86493438Y-41527450D01*
G75*
G02*
X86345938Y-41674950I-147500J0D01*
G01*
X86000938Y-41674950D01*
G75*
G02*
X85853438Y-41527450I0J147500D01*
G01*
X85853438Y-41232450D01*
G75*
G02*
X86000938Y-41084950I147500J0D01*
G01*
G37*
G36*
G01*
X86000938Y-42054950D02*
X86345938Y-42054950D01*
G75*
G02*
X86493438Y-42202450I0J-147500D01*
G01*
X86493438Y-42497450D01*
G75*
G02*
X86345938Y-42644950I-147500J0D01*
G01*
X86000938Y-42644950D01*
G75*
G02*
X85853438Y-42497450I0J147500D01*
G01*
X85853438Y-42202450D01*
G75*
G02*
X86000938Y-42054950I147500J0D01*
G01*
G37*
G36*
G01*
X86345938Y-40409950D02*
X86000938Y-40409950D01*
G75*
G02*
X85853438Y-40262450I0J147500D01*
G01*
X85853438Y-39967450D01*
G75*
G02*
X86000938Y-39819950I147500J0D01*
G01*
X86345938Y-39819950D01*
G75*
G02*
X86493438Y-39967450I0J-147500D01*
G01*
X86493438Y-40262450D01*
G75*
G02*
X86345938Y-40409950I-147500J0D01*
G01*
G37*
G36*
G01*
X86345938Y-39439950D02*
X86000938Y-39439950D01*
G75*
G02*
X85853438Y-39292450I0J147500D01*
G01*
X85853438Y-38997450D01*
G75*
G02*
X86000938Y-38849950I147500J0D01*
G01*
X86345938Y-38849950D01*
G75*
G02*
X86493438Y-38997450I0J-147500D01*
G01*
X86493438Y-39292450D01*
G75*
G02*
X86345938Y-39439950I-147500J0D01*
G01*
G37*
G36*
G01*
X88628438Y-43299950D02*
X87378438Y-43299950D01*
G75*
G02*
X87228438Y-43149950I0J150000D01*
G01*
X87228438Y-42849950D01*
G75*
G02*
X87378438Y-42699950I150000J0D01*
G01*
X88628438Y-42699950D01*
G75*
G02*
X88778438Y-42849950I0J-150000D01*
G01*
X88778438Y-43149950D01*
G75*
G02*
X88628438Y-43299950I-150000J0D01*
G01*
G37*
G36*
G01*
X88628438Y-42299950D02*
X87378438Y-42299950D01*
G75*
G02*
X87228438Y-42149950I0J150000D01*
G01*
X87228438Y-41849950D01*
G75*
G02*
X87378438Y-41699950I150000J0D01*
G01*
X88628438Y-41699950D01*
G75*
G02*
X88778438Y-41849950I0J-150000D01*
G01*
X88778438Y-42149950D01*
G75*
G02*
X88628438Y-42299950I-150000J0D01*
G01*
G37*
G36*
G01*
X88628438Y-41299950D02*
X87378438Y-41299950D01*
G75*
G02*
X87228438Y-41149950I0J150000D01*
G01*
X87228438Y-40849950D01*
G75*
G02*
X87378438Y-40699950I150000J0D01*
G01*
X88628438Y-40699950D01*
G75*
G02*
X88778438Y-40849950I0J-150000D01*
G01*
X88778438Y-41149950D01*
G75*
G02*
X88628438Y-41299950I-150000J0D01*
G01*
G37*
G36*
G01*
X88628438Y-40299950D02*
X87378438Y-40299950D01*
G75*
G02*
X87228438Y-40149950I0J150000D01*
G01*
X87228438Y-39849950D01*
G75*
G02*
X87378438Y-39699950I150000J0D01*
G01*
X88628438Y-39699950D01*
G75*
G02*
X88778438Y-39849950I0J-150000D01*
G01*
X88778438Y-40149950D01*
G75*
G02*
X88628438Y-40299950I-150000J0D01*
G01*
G37*
G36*
G01*
X88628438Y-39299950D02*
X87378438Y-39299950D01*
G75*
G02*
X87228438Y-39149950I0J150000D01*
G01*
X87228438Y-38849950D01*
G75*
G02*
X87378438Y-38699950I150000J0D01*
G01*
X88628438Y-38699950D01*
G75*
G02*
X88778438Y-38849950I0J-150000D01*
G01*
X88778438Y-39149950D01*
G75*
G02*
X88628438Y-39299950I-150000J0D01*
G01*
G37*
G36*
G01*
X88628438Y-38299950D02*
X87378438Y-38299950D01*
G75*
G02*
X87228438Y-38149950I0J150000D01*
G01*
X87228438Y-37849950D01*
G75*
G02*
X87378438Y-37699950I150000J0D01*
G01*
X88628438Y-37699950D01*
G75*
G02*
X88778438Y-37849950I0J-150000D01*
G01*
X88778438Y-38149950D01*
G75*
G02*
X88628438Y-38299950I-150000J0D01*
G01*
G37*
G36*
G01*
X88628438Y-37299950D02*
X87378438Y-37299950D01*
G75*
G02*
X87228438Y-37149950I0J150000D01*
G01*
X87228438Y-36849950D01*
G75*
G02*
X87378438Y-36699950I150000J0D01*
G01*
X88628438Y-36699950D01*
G75*
G02*
X88778438Y-36849950I0J-150000D01*
G01*
X88778438Y-37149950D01*
G75*
G02*
X88628438Y-37299950I-150000J0D01*
G01*
G37*
G36*
G01*
X88628438Y-36299950D02*
X87378438Y-36299950D01*
G75*
G02*
X87228438Y-36149950I0J150000D01*
G01*
X87228438Y-35849950D01*
G75*
G02*
X87378438Y-35699950I150000J0D01*
G01*
X88628438Y-35699950D01*
G75*
G02*
X88778438Y-35849950I0J-150000D01*
G01*
X88778438Y-36149950D01*
G75*
G02*
X88628438Y-36299950I-150000J0D01*
G01*
G37*
G36*
G01*
X92528439Y-44899950D02*
X91228437Y-44899950D01*
G75*
G02*
X90978438Y-44649951I0J249999D01*
G01*
X90978438Y-43949949D01*
G75*
G02*
X91228437Y-43699950I249999J0D01*
G01*
X92528439Y-43699950D01*
G75*
G02*
X92778438Y-43949949I0J-249999D01*
G01*
X92778438Y-44649951D01*
G75*
G02*
X92528439Y-44899950I-249999J0D01*
G01*
G37*
G36*
G01*
X92528439Y-35299950D02*
X91228437Y-35299950D01*
G75*
G02*
X90978438Y-35049951I0J249999D01*
G01*
X90978438Y-34349949D01*
G75*
G02*
X91228437Y-34099950I249999J0D01*
G01*
X92528439Y-34099950D01*
G75*
G02*
X92778438Y-34349949I0J-249999D01*
G01*
X92778438Y-35049951D01*
G75*
G02*
X92528439Y-35299950I-249999J0D01*
G01*
G37*
G36*
G01*
X78298040Y-36299999D02*
X76998038Y-36299999D01*
G75*
G02*
X76748039Y-36050000I0J249999D01*
G01*
X76748039Y-35349998D01*
G75*
G02*
X76998038Y-35099999I249999J0D01*
G01*
X78298040Y-35099999D01*
G75*
G02*
X78548039Y-35349998I0J-249999D01*
G01*
X78548039Y-36050000D01*
G75*
G02*
X78298040Y-36299999I-249999J0D01*
G01*
G37*
G36*
G01*
X78298040Y-43899999D02*
X76998038Y-43899999D01*
G75*
G02*
X76748039Y-43650000I0J249999D01*
G01*
X76748039Y-42949998D01*
G75*
G02*
X76998038Y-42699999I249999J0D01*
G01*
X78298040Y-42699999D01*
G75*
G02*
X78548039Y-42949998I0J-249999D01*
G01*
X78548039Y-43650000D01*
G75*
G02*
X78298040Y-43899999I-249999J0D01*
G01*
G37*
G36*
G01*
X74398039Y-37299999D02*
X73148039Y-37299999D01*
G75*
G02*
X72998039Y-37149999I0J150000D01*
G01*
X72998039Y-36849999D01*
G75*
G02*
X73148039Y-36699999I150000J0D01*
G01*
X74398039Y-36699999D01*
G75*
G02*
X74548039Y-36849999I0J-150000D01*
G01*
X74548039Y-37149999D01*
G75*
G02*
X74398039Y-37299999I-150000J0D01*
G01*
G37*
G36*
G01*
X74398039Y-38299999D02*
X73148039Y-38299999D01*
G75*
G02*
X72998039Y-38149999I0J150000D01*
G01*
X72998039Y-37849999D01*
G75*
G02*
X73148039Y-37699999I150000J0D01*
G01*
X74398039Y-37699999D01*
G75*
G02*
X74548039Y-37849999I0J-150000D01*
G01*
X74548039Y-38149999D01*
G75*
G02*
X74398039Y-38299999I-150000J0D01*
G01*
G37*
G36*
G01*
X74398039Y-39299999D02*
X73148039Y-39299999D01*
G75*
G02*
X72998039Y-39149999I0J150000D01*
G01*
X72998039Y-38849999D01*
G75*
G02*
X73148039Y-38699999I150000J0D01*
G01*
X74398039Y-38699999D01*
G75*
G02*
X74548039Y-38849999I0J-150000D01*
G01*
X74548039Y-39149999D01*
G75*
G02*
X74398039Y-39299999I-150000J0D01*
G01*
G37*
G36*
G01*
X74398039Y-40299999D02*
X73148039Y-40299999D01*
G75*
G02*
X72998039Y-40149999I0J150000D01*
G01*
X72998039Y-39849999D01*
G75*
G02*
X73148039Y-39699999I150000J0D01*
G01*
X74398039Y-39699999D01*
G75*
G02*
X74548039Y-39849999I0J-150000D01*
G01*
X74548039Y-40149999D01*
G75*
G02*
X74398039Y-40299999I-150000J0D01*
G01*
G37*
G36*
G01*
X74398039Y-41299999D02*
X73148039Y-41299999D01*
G75*
G02*
X72998039Y-41149999I0J150000D01*
G01*
X72998039Y-40849999D01*
G75*
G02*
X73148039Y-40699999I150000J0D01*
G01*
X74398039Y-40699999D01*
G75*
G02*
X74548039Y-40849999I0J-150000D01*
G01*
X74548039Y-41149999D01*
G75*
G02*
X74398039Y-41299999I-150000J0D01*
G01*
G37*
G36*
G01*
X74398039Y-42299999D02*
X73148039Y-42299999D01*
G75*
G02*
X72998039Y-42149999I0J150000D01*
G01*
X72998039Y-41849999D01*
G75*
G02*
X73148039Y-41699999I150000J0D01*
G01*
X74398039Y-41699999D01*
G75*
G02*
X74548039Y-41849999I0J-150000D01*
G01*
X74548039Y-42149999D01*
G75*
G02*
X74398039Y-42299999I-150000J0D01*
G01*
G37*
G36*
G01*
X71693039Y-42972499D02*
X71693039Y-42627499D01*
G75*
G02*
X71840539Y-42479999I147500J0D01*
G01*
X72135539Y-42479999D01*
G75*
G02*
X72283039Y-42627499I0J-147500D01*
G01*
X72283039Y-42972499D01*
G75*
G02*
X72135539Y-43119999I-147500J0D01*
G01*
X71840539Y-43119999D01*
G75*
G02*
X71693039Y-42972499I0J147500D01*
G01*
G37*
G36*
G01*
X70723039Y-42972499D02*
X70723039Y-42627499D01*
G75*
G02*
X70870539Y-42479999I147500J0D01*
G01*
X71165539Y-42479999D01*
G75*
G02*
X71313039Y-42627499I0J-147500D01*
G01*
X71313039Y-42972499D01*
G75*
G02*
X71165539Y-43119999I-147500J0D01*
G01*
X70870539Y-43119999D01*
G75*
G02*
X70723039Y-42972499I0J147500D01*
G01*
G37*
G36*
G01*
X69693039Y-44072499D02*
X69693039Y-43727499D01*
G75*
G02*
X69840539Y-43579999I147500J0D01*
G01*
X70135539Y-43579999D01*
G75*
G02*
X70283039Y-43727499I0J-147500D01*
G01*
X70283039Y-44072499D01*
G75*
G02*
X70135539Y-44219999I-147500J0D01*
G01*
X69840539Y-44219999D01*
G75*
G02*
X69693039Y-44072499I0J147500D01*
G01*
G37*
G36*
G01*
X68723039Y-44072499D02*
X68723039Y-43727499D01*
G75*
G02*
X68870539Y-43579999I147500J0D01*
G01*
X69165539Y-43579999D01*
G75*
G02*
X69313039Y-43727499I0J-147500D01*
G01*
X69313039Y-44072499D01*
G75*
G02*
X69165539Y-44219999I-147500J0D01*
G01*
X68870539Y-44219999D01*
G75*
G02*
X68723039Y-44072499I0J147500D01*
G01*
G37*
G36*
G01*
X69693039Y-42972499D02*
X69693039Y-42627499D01*
G75*
G02*
X69840539Y-42479999I147500J0D01*
G01*
X70135539Y-42479999D01*
G75*
G02*
X70283039Y-42627499I0J-147500D01*
G01*
X70283039Y-42972499D01*
G75*
G02*
X70135539Y-43119999I-147500J0D01*
G01*
X69840539Y-43119999D01*
G75*
G02*
X69693039Y-42972499I0J147500D01*
G01*
G37*
G36*
G01*
X68723039Y-42972499D02*
X68723039Y-42627499D01*
G75*
G02*
X68870539Y-42479999I147500J0D01*
G01*
X69165539Y-42479999D01*
G75*
G02*
X69313039Y-42627499I0J-147500D01*
G01*
X69313039Y-42972499D01*
G75*
G02*
X69165539Y-43119999I-147500J0D01*
G01*
X68870539Y-43119999D01*
G75*
G02*
X68723039Y-42972499I0J147500D01*
G01*
G37*
G36*
G01*
X51927896Y-37904950D02*
X52272896Y-37904950D01*
G75*
G02*
X52420396Y-38052450I0J-147500D01*
G01*
X52420396Y-38347450D01*
G75*
G02*
X52272896Y-38494950I-147500J0D01*
G01*
X51927896Y-38494950D01*
G75*
G02*
X51780396Y-38347450I0J147500D01*
G01*
X51780396Y-38052450D01*
G75*
G02*
X51927896Y-37904950I147500J0D01*
G01*
G37*
G36*
G01*
X51927896Y-38874950D02*
X52272896Y-38874950D01*
G75*
G02*
X52420396Y-39022450I0J-147500D01*
G01*
X52420396Y-39317450D01*
G75*
G02*
X52272896Y-39464950I-147500J0D01*
G01*
X51927896Y-39464950D01*
G75*
G02*
X51780396Y-39317450I0J147500D01*
G01*
X51780396Y-39022450D01*
G75*
G02*
X51927896Y-38874950I147500J0D01*
G01*
G37*
G36*
G01*
X52292896Y-37089950D02*
X51947896Y-37089950D01*
G75*
G02*
X51800396Y-36942450I0J147500D01*
G01*
X51800396Y-36647450D01*
G75*
G02*
X51947896Y-36499950I147500J0D01*
G01*
X52292896Y-36499950D01*
G75*
G02*
X52440396Y-36647450I0J-147500D01*
G01*
X52440396Y-36942450D01*
G75*
G02*
X52292896Y-37089950I-147500J0D01*
G01*
G37*
G36*
G01*
X52292896Y-36119950D02*
X51947896Y-36119950D01*
G75*
G02*
X51800396Y-35972450I0J147500D01*
G01*
X51800396Y-35677450D01*
G75*
G02*
X51947896Y-35529950I147500J0D01*
G01*
X52292896Y-35529950D01*
G75*
G02*
X52440396Y-35677450I0J-147500D01*
G01*
X52440396Y-35972450D01*
G75*
G02*
X52292896Y-36119950I-147500J0D01*
G01*
G37*
G36*
G01*
X55635396Y-40289950D02*
X54385396Y-40289950D01*
G75*
G02*
X54235396Y-40139950I0J150000D01*
G01*
X54235396Y-39839950D01*
G75*
G02*
X54385396Y-39689950I150000J0D01*
G01*
X55635396Y-39689950D01*
G75*
G02*
X55785396Y-39839950I0J-150000D01*
G01*
X55785396Y-40139950D01*
G75*
G02*
X55635396Y-40289950I-150000J0D01*
G01*
G37*
G36*
G01*
X55635396Y-39289950D02*
X54385396Y-39289950D01*
G75*
G02*
X54235396Y-39139950I0J150000D01*
G01*
X54235396Y-38839950D01*
G75*
G02*
X54385396Y-38689950I150000J0D01*
G01*
X55635396Y-38689950D01*
G75*
G02*
X55785396Y-38839950I0J-150000D01*
G01*
X55785396Y-39139950D01*
G75*
G02*
X55635396Y-39289950I-150000J0D01*
G01*
G37*
G36*
G01*
X55635396Y-38289950D02*
X54385396Y-38289950D01*
G75*
G02*
X54235396Y-38139950I0J150000D01*
G01*
X54235396Y-37839950D01*
G75*
G02*
X54385396Y-37689950I150000J0D01*
G01*
X55635396Y-37689950D01*
G75*
G02*
X55785396Y-37839950I0J-150000D01*
G01*
X55785396Y-38139950D01*
G75*
G02*
X55635396Y-38289950I-150000J0D01*
G01*
G37*
G36*
G01*
X55635396Y-37289950D02*
X54385396Y-37289950D01*
G75*
G02*
X54235396Y-37139950I0J150000D01*
G01*
X54235396Y-36839950D01*
G75*
G02*
X54385396Y-36689950I150000J0D01*
G01*
X55635396Y-36689950D01*
G75*
G02*
X55785396Y-36839950I0J-150000D01*
G01*
X55785396Y-37139950D01*
G75*
G02*
X55635396Y-37289950I-150000J0D01*
G01*
G37*
G36*
G01*
X55635396Y-36289950D02*
X54385396Y-36289950D01*
G75*
G02*
X54235396Y-36139950I0J150000D01*
G01*
X54235396Y-35839950D01*
G75*
G02*
X54385396Y-35689950I150000J0D01*
G01*
X55635396Y-35689950D01*
G75*
G02*
X55785396Y-35839950I0J-150000D01*
G01*
X55785396Y-36139950D01*
G75*
G02*
X55635396Y-36289950I-150000J0D01*
G01*
G37*
G36*
G01*
X55635396Y-35289950D02*
X54385396Y-35289950D01*
G75*
G02*
X54235396Y-35139950I0J150000D01*
G01*
X54235396Y-34839950D01*
G75*
G02*
X54385396Y-34689950I150000J0D01*
G01*
X55635396Y-34689950D01*
G75*
G02*
X55785396Y-34839950I0J-150000D01*
G01*
X55785396Y-35139950D01*
G75*
G02*
X55635396Y-35289950I-150000J0D01*
G01*
G37*
G36*
G01*
X59535796Y-41889950D02*
X58234996Y-41889950D01*
G75*
G02*
X57985396Y-41640350I0J249600D01*
G01*
X57985396Y-40939550D01*
G75*
G02*
X58234996Y-40689950I249600J0D01*
G01*
X59535796Y-40689950D01*
G75*
G02*
X59785396Y-40939550I0J-249600D01*
G01*
X59785396Y-41640350D01*
G75*
G02*
X59535796Y-41889950I-249600J0D01*
G01*
G37*
G36*
G01*
X59535397Y-34289950D02*
X58235395Y-34289950D01*
G75*
G02*
X57985396Y-34039951I0J249999D01*
G01*
X57985396Y-33339949D01*
G75*
G02*
X58235395Y-33089950I249999J0D01*
G01*
X59535397Y-33089950D01*
G75*
G02*
X59785396Y-33339949I0J-249999D01*
G01*
X59785396Y-34039951D01*
G75*
G02*
X59535397Y-34289950I-249999J0D01*
G01*
G37*
M02*
