M48
INCH,TZ
T1C0.0118
T2C0.0157
T3C0.0236
T4C0.0394
T5C0.0689
T6C0.0866
%
G90
G05
T1
X20198Y-13705
X20575Y-15764
X20651Y-13291
X20819Y-16909
X20992Y-14776
X21658Y-16110
X22228Y-16505
X22266Y-16192
X22600Y-15777
X22752Y-17047
X23126Y-16815
X27009Y-14528
X27915Y-17205
X28072Y-15236
X28387Y-17205
X28466Y-13937
X28545Y-14961
X28545Y-15748
X33718Y-17193
X33730Y-17953
X33889Y-14820
X34056Y-14146
X34102Y-15052
X34198Y-16988
X35190Y-17161
X35206Y-14295
X35218Y-16138
X35249Y-14894
X35521Y-17878
X35651Y-14925
X35651Y-15504
X35970Y-15637
X38837Y-17193
X38849Y-17953
X39008Y-14820
X39176Y-14146
X39221Y-15052
X39318Y-16988
X40310Y-17161
X40325Y-14295
X40337Y-16138
X40369Y-14894
X40640Y-17878
X40770Y-14925
X40770Y-15504
X41089Y-15637
X44511Y-15354
X45141Y-13957
X45279Y-12343
X45319Y-18898
X47248Y-18917
X47267Y-12343
X49000Y-14094
X49019Y-16319
X52464Y-17549
X52563Y-13504
X52563Y-15246
X52937Y-14321
X53547Y-15886
X53862Y-13425
X54019Y-13780
X54387Y-15354
X54413Y-13780
X54807Y-13780
X54865Y-17148
X55289Y-17067
X55506Y-16053
X55683Y-17451
X55761Y-16555
X55845Y-13479
T2
X44689Y-13504
X45082Y-17244
X45752Y-16181
X45870Y-17835
X45988Y-13425
X46145Y-13780
X46513Y-15354
X46539Y-13780
X46933Y-13780
X47366Y-17323
X47700Y-15354
X48074Y-13583
X48645Y-15748
T3
X19685Y-13307
X19685Y-13898
X19685Y-14488
X19685Y-15079
X19685Y-15669
X19685Y-16260
T4
X25777Y-14551
X25777Y-15551
X25777Y-16551
X33112Y-14055
X33112Y-15055
X33112Y-16055
X33112Y-17055
X38231Y-14055
X38231Y-15055
X38231Y-16055
X38231Y-17055
X43665Y-14512
X43665Y-15512
X43665Y-16512
X51539Y-14512
X51539Y-15512
X51539Y-16512
T5
X21654Y-17717
X21654Y-11811
X21654Y-18898
X21654Y-10630
T6
X34647Y-12205
X34647Y-18898
X39766Y-18898
X28151Y-18898
X28151Y-12205
X39766Y-12205
T0
M30
