M48
INCH,TZ
T1C0.0197
T2C0.0591
T3C0.0866
%
G90
G05
T1
X28934Y-11319
X35415Y-12697
X35434Y-11319
X38979Y-19784
X33860Y-11318
X35415Y-18405
X27359Y-11319
X40554Y-11319
X47055Y-11319
X45480Y-19784
X54945Y-11319
X21236Y-11224
X53756Y-19784
X28147Y-11319
X28541Y-11319
X22047Y-19784
X22540Y-11220
X22047Y-9744
X39766Y-19784
X39766Y-11318
X33860Y-19784
X28934Y-19784
X40534Y-18405
X46267Y-11319
X46267Y-19784
X54157Y-11319
X21236Y-18315
X22441Y-19784
X22071Y-11220
X28147Y-19784
X27359Y-19784
X34253Y-19784
X22540Y-17579
X20768Y-11220
X33879Y-12697
X40554Y-19784
X38979Y-11318
X22540Y-11945
X22540Y-18311
X40534Y-12697
X33879Y-18405
X45480Y-11319
X47055Y-19784
X53370Y-11319
X54937Y-19784
X27753Y-11319
X21260Y-9744
X34647Y-19784
X53362Y-19784
X21260Y-19784
X35041Y-11318
X39373Y-19784
X40160Y-11318
X20768Y-11945
X21654Y-9744
X22071Y-18311
X38999Y-18405
X20866Y-19784
X27753Y-19784
X35041Y-19784
X46661Y-11319
X45874Y-19784
X54551Y-11319
X54149Y-19784
X22441Y-9744
X34647Y-11318
X28541Y-19784
X20866Y-9744
X40160Y-19784
X39373Y-11318
X35434Y-19784
X38999Y-12697
X20768Y-18311
X21654Y-19784
X20768Y-17579
X45874Y-11319
X46661Y-19784
X53763Y-11319
X54543Y-19784
X34253Y-11318
T2
X55516Y-7677
X21653Y-21851
X21653Y-7677
T3
X46263Y-12205
X54137Y-12205
X46263Y-18898
X54137Y-18898
T0
M30
