G04 #@! TF.GenerationSoftware,KiCad,Pcbnew,(5.1.6-0-10_14)*
G04 #@! TF.CreationDate,2021-04-17T00:03:13+02:00*
G04 #@! TF.ProjectId,Encoder_SPI_Panel_v1_1,456e636f-6465-4725-9f53-50495f50616e,rev?*
G04 #@! TF.SameCoordinates,Original*
G04 #@! TF.FileFunction,Legend,Top*
G04 #@! TF.FilePolarity,Positive*
%FSLAX46Y46*%
G04 Gerber Fmt 4.6, Leading zero omitted, Abs format (unit mm)*
G04 Created by KiCad (PCBNEW (5.1.6-0-10_14)) date 2021-04-17 00:03:13*
%MOMM*%
%LPD*%
G01*
G04 APERTURE LIST*
%ADD10C,0.120000*%
%ADD11C,0.150000*%
%ADD12C,0.250000*%
%ADD13C,0.100000*%
%ADD14C,0.010000*%
G04 APERTURE END LIST*
D10*
X137640000Y-27160000D02*
X137130000Y-26650000D01*
X137640000Y-27160000D02*
X138150000Y-26650000D01*
X137640000Y-25760000D02*
X137640000Y-27160000D01*
X117610000Y-27160000D02*
X117100000Y-26650000D01*
X117610000Y-27160000D02*
X118120000Y-26650000D01*
X117610000Y-25760000D02*
X117610000Y-27160000D01*
X101060000Y-27160000D02*
X100550000Y-26650000D01*
X101060000Y-25760000D02*
X101060000Y-27160000D01*
X101060000Y-27160000D02*
X101570000Y-26650000D01*
X88060000Y-27240000D02*
X87550000Y-26730000D01*
X88060000Y-25840000D02*
X88060000Y-27240000D01*
X88060000Y-27240000D02*
X88570000Y-26730000D01*
X71550000Y-27240000D02*
X72060000Y-26730000D01*
X71550000Y-27240000D02*
X71040000Y-26730000D01*
X71550000Y-25840000D02*
X71550000Y-27240000D01*
X55150000Y-23400000D02*
X54640000Y-22890000D01*
X55150000Y-23400000D02*
X55660000Y-22890000D01*
X55150000Y-22000000D02*
X55150000Y-23400000D01*
X56050000Y-21100000D02*
X55150000Y-22000000D01*
X62500000Y-21100000D02*
X56050000Y-21100000D01*
X63450000Y-21770000D02*
X62500000Y-21100000D01*
D11*
X63565714Y-54910000D02*
X63470476Y-54862380D01*
X63327619Y-54862380D01*
X63184761Y-54910000D01*
X63089523Y-55005238D01*
X63041904Y-55100476D01*
X62994285Y-55290952D01*
X62994285Y-55433809D01*
X63041904Y-55624285D01*
X63089523Y-55719523D01*
X63184761Y-55814761D01*
X63327619Y-55862380D01*
X63422857Y-55862380D01*
X63565714Y-55814761D01*
X63613333Y-55767142D01*
X63613333Y-55433809D01*
X63422857Y-55433809D01*
X64041904Y-55862380D02*
X64041904Y-55195714D01*
X64041904Y-55386190D02*
X64089523Y-55290952D01*
X64137142Y-55243333D01*
X64232380Y-55195714D01*
X64327619Y-55195714D01*
X65041904Y-55814761D02*
X64946666Y-55862380D01*
X64756190Y-55862380D01*
X64660952Y-55814761D01*
X64613333Y-55719523D01*
X64613333Y-55338571D01*
X64660952Y-55243333D01*
X64756190Y-55195714D01*
X64946666Y-55195714D01*
X65041904Y-55243333D01*
X65089523Y-55338571D01*
X65089523Y-55433809D01*
X64613333Y-55529047D01*
X65899047Y-55814761D02*
X65803809Y-55862380D01*
X65613333Y-55862380D01*
X65518095Y-55814761D01*
X65470476Y-55719523D01*
X65470476Y-55338571D01*
X65518095Y-55243333D01*
X65613333Y-55195714D01*
X65803809Y-55195714D01*
X65899047Y-55243333D01*
X65946666Y-55338571D01*
X65946666Y-55433809D01*
X65470476Y-55529047D01*
X66232380Y-55195714D02*
X66613333Y-55195714D01*
X66375238Y-54862380D02*
X66375238Y-55719523D01*
X66422857Y-55814761D01*
X66518095Y-55862380D01*
X66613333Y-55862380D01*
X66946666Y-55862380D02*
X66946666Y-55195714D01*
X66946666Y-54862380D02*
X66899047Y-54910000D01*
X66946666Y-54957619D01*
X66994285Y-54910000D01*
X66946666Y-54862380D01*
X66946666Y-54957619D01*
X67422857Y-55195714D02*
X67422857Y-55862380D01*
X67422857Y-55290952D02*
X67470476Y-55243333D01*
X67565714Y-55195714D01*
X67708571Y-55195714D01*
X67803809Y-55243333D01*
X67851428Y-55338571D01*
X67851428Y-55862380D01*
X68756190Y-55195714D02*
X68756190Y-56005238D01*
X68708571Y-56100476D01*
X68660952Y-56148095D01*
X68565714Y-56195714D01*
X68422857Y-56195714D01*
X68327619Y-56148095D01*
X68756190Y-55814761D02*
X68660952Y-55862380D01*
X68470476Y-55862380D01*
X68375238Y-55814761D01*
X68327619Y-55767142D01*
X68280000Y-55671904D01*
X68280000Y-55386190D01*
X68327619Y-55290952D01*
X68375238Y-55243333D01*
X68470476Y-55195714D01*
X68660952Y-55195714D01*
X68756190Y-55243333D01*
X69184761Y-55814761D02*
X69280000Y-55862380D01*
X69470476Y-55862380D01*
X69565714Y-55814761D01*
X69613333Y-55719523D01*
X69613333Y-55671904D01*
X69565714Y-55576666D01*
X69470476Y-55529047D01*
X69327619Y-55529047D01*
X69232380Y-55481428D01*
X69184761Y-55386190D01*
X69184761Y-55338571D01*
X69232380Y-55243333D01*
X69327619Y-55195714D01*
X69470476Y-55195714D01*
X69565714Y-55243333D01*
X71232380Y-55862380D02*
X71232380Y-55338571D01*
X71184761Y-55243333D01*
X71089523Y-55195714D01*
X70899047Y-55195714D01*
X70803809Y-55243333D01*
X71232380Y-55814761D02*
X71137142Y-55862380D01*
X70899047Y-55862380D01*
X70803809Y-55814761D01*
X70756190Y-55719523D01*
X70756190Y-55624285D01*
X70803809Y-55529047D01*
X70899047Y-55481428D01*
X71137142Y-55481428D01*
X71232380Y-55433809D01*
X71708571Y-55195714D02*
X71708571Y-55862380D01*
X71708571Y-55290952D02*
X71756190Y-55243333D01*
X71851428Y-55195714D01*
X71994285Y-55195714D01*
X72089523Y-55243333D01*
X72137142Y-55338571D01*
X72137142Y-55862380D01*
X73041904Y-55862380D02*
X73041904Y-54862380D01*
X73041904Y-55814761D02*
X72946666Y-55862380D01*
X72756190Y-55862380D01*
X72660952Y-55814761D01*
X72613333Y-55767142D01*
X72565714Y-55671904D01*
X72565714Y-55386190D01*
X72613333Y-55290952D01*
X72660952Y-55243333D01*
X72756190Y-55195714D01*
X72946666Y-55195714D01*
X73041904Y-55243333D01*
X74137142Y-55195714D02*
X74518095Y-55195714D01*
X74280000Y-54862380D02*
X74280000Y-55719523D01*
X74327619Y-55814761D01*
X74422857Y-55862380D01*
X74518095Y-55862380D01*
X74851428Y-55862380D02*
X74851428Y-54862380D01*
X75280000Y-55862380D02*
X75280000Y-55338571D01*
X75232380Y-55243333D01*
X75137142Y-55195714D01*
X74994285Y-55195714D01*
X74899047Y-55243333D01*
X74851428Y-55290952D01*
X76184761Y-55862380D02*
X76184761Y-55338571D01*
X76137142Y-55243333D01*
X76041904Y-55195714D01*
X75851428Y-55195714D01*
X75756190Y-55243333D01*
X76184761Y-55814761D02*
X76089523Y-55862380D01*
X75851428Y-55862380D01*
X75756190Y-55814761D01*
X75708571Y-55719523D01*
X75708571Y-55624285D01*
X75756190Y-55529047D01*
X75851428Y-55481428D01*
X76089523Y-55481428D01*
X76184761Y-55433809D01*
X76660952Y-55195714D02*
X76660952Y-55862380D01*
X76660952Y-55290952D02*
X76708571Y-55243333D01*
X76803809Y-55195714D01*
X76946666Y-55195714D01*
X77041904Y-55243333D01*
X77089523Y-55338571D01*
X77089523Y-55862380D01*
X77565714Y-55862380D02*
X77565714Y-54862380D01*
X77660952Y-55481428D02*
X77946666Y-55862380D01*
X77946666Y-55195714D02*
X77565714Y-55576666D01*
X79041904Y-55195714D02*
X79280000Y-55862380D01*
X79518095Y-55195714D02*
X79280000Y-55862380D01*
X79184761Y-56100476D01*
X79137142Y-56148095D01*
X79041904Y-56195714D01*
X80041904Y-55862380D02*
X79946666Y-55814761D01*
X79899047Y-55767142D01*
X79851428Y-55671904D01*
X79851428Y-55386190D01*
X79899047Y-55290952D01*
X79946666Y-55243333D01*
X80041904Y-55195714D01*
X80184761Y-55195714D01*
X80280000Y-55243333D01*
X80327619Y-55290952D01*
X80375238Y-55386190D01*
X80375238Y-55671904D01*
X80327619Y-55767142D01*
X80280000Y-55814761D01*
X80184761Y-55862380D01*
X80041904Y-55862380D01*
X81232380Y-55195714D02*
X81232380Y-55862380D01*
X80803809Y-55195714D02*
X80803809Y-55719523D01*
X80851428Y-55814761D01*
X80946666Y-55862380D01*
X81089523Y-55862380D01*
X81184761Y-55814761D01*
X81232380Y-55767142D01*
X82327619Y-55195714D02*
X82708571Y-55195714D01*
X82470476Y-54862380D02*
X82470476Y-55719523D01*
X82518095Y-55814761D01*
X82613333Y-55862380D01*
X82708571Y-55862380D01*
X83184761Y-55862380D02*
X83089523Y-55814761D01*
X83041904Y-55767142D01*
X82994285Y-55671904D01*
X82994285Y-55386190D01*
X83041904Y-55290952D01*
X83089523Y-55243333D01*
X83184761Y-55195714D01*
X83327619Y-55195714D01*
X83422857Y-55243333D01*
X83470476Y-55290952D01*
X83518095Y-55386190D01*
X83518095Y-55671904D01*
X83470476Y-55767142D01*
X83422857Y-55814761D01*
X83327619Y-55862380D01*
X83184761Y-55862380D01*
X84708571Y-55862380D02*
X84708571Y-54862380D01*
X85089523Y-54862380D01*
X85184761Y-54910000D01*
X85232380Y-54957619D01*
X85279999Y-55052857D01*
X85279999Y-55195714D01*
X85232380Y-55290952D01*
X85184761Y-55338571D01*
X85089523Y-55386190D01*
X84708571Y-55386190D01*
X86279999Y-55767142D02*
X86232380Y-55814761D01*
X86089523Y-55862380D01*
X85994285Y-55862380D01*
X85851428Y-55814761D01*
X85756190Y-55719523D01*
X85708571Y-55624285D01*
X85660952Y-55433809D01*
X85660952Y-55290952D01*
X85708571Y-55100476D01*
X85756190Y-55005238D01*
X85851428Y-54910000D01*
X85994285Y-54862380D01*
X86089523Y-54862380D01*
X86232380Y-54910000D01*
X86279999Y-54957619D01*
X87041904Y-55338571D02*
X87184761Y-55386190D01*
X87232380Y-55433809D01*
X87279999Y-55529047D01*
X87279999Y-55671904D01*
X87232380Y-55767142D01*
X87184761Y-55814761D01*
X87089523Y-55862380D01*
X86708571Y-55862380D01*
X86708571Y-54862380D01*
X87041904Y-54862380D01*
X87137142Y-54910000D01*
X87184761Y-54957619D01*
X87232380Y-55052857D01*
X87232380Y-55148095D01*
X87184761Y-55243333D01*
X87137142Y-55290952D01*
X87041904Y-55338571D01*
X86708571Y-55338571D01*
X87613333Y-54862380D02*
X87851428Y-55862380D01*
X88041904Y-55148095D01*
X88232380Y-55862380D01*
X88470476Y-54862380D01*
X89279999Y-55862380D02*
X89279999Y-55338571D01*
X89232380Y-55243333D01*
X89137142Y-55195714D01*
X88946666Y-55195714D01*
X88851428Y-55243333D01*
X89279999Y-55814761D02*
X89184761Y-55862380D01*
X88946666Y-55862380D01*
X88851428Y-55814761D01*
X88803809Y-55719523D01*
X88803809Y-55624285D01*
X88851428Y-55529047D01*
X88946666Y-55481428D01*
X89184761Y-55481428D01*
X89279999Y-55433809D01*
X89660952Y-55195714D02*
X89899047Y-55862380D01*
X90137142Y-55195714D02*
X89899047Y-55862380D01*
X89803809Y-56100476D01*
X89756190Y-56148095D01*
X89660952Y-56195714D01*
X90518095Y-55767142D02*
X90565714Y-55814761D01*
X90518095Y-55862380D01*
X90470476Y-55814761D01*
X90518095Y-55767142D01*
X90518095Y-55862380D01*
X90518095Y-55481428D02*
X90470476Y-54910000D01*
X90518095Y-54862380D01*
X90565714Y-54910000D01*
X90518095Y-55481428D01*
X90518095Y-54862380D01*
X113413809Y-54862380D02*
X113604285Y-54862380D01*
X113699523Y-54910000D01*
X113794761Y-55005238D01*
X113842380Y-55195714D01*
X113842380Y-55529047D01*
X113794761Y-55719523D01*
X113699523Y-55814761D01*
X113604285Y-55862380D01*
X113413809Y-55862380D01*
X113318571Y-55814761D01*
X113223333Y-55719523D01*
X113175714Y-55529047D01*
X113175714Y-55195714D01*
X113223333Y-55005238D01*
X113318571Y-54910000D01*
X113413809Y-54862380D01*
X114270952Y-55862380D02*
X114270952Y-55195714D01*
X114270952Y-55386190D02*
X114318571Y-55290952D01*
X114366190Y-55243333D01*
X114461428Y-55195714D01*
X114556666Y-55195714D01*
X115318571Y-55862380D02*
X115318571Y-54862380D01*
X115318571Y-55814761D02*
X115223333Y-55862380D01*
X115032857Y-55862380D01*
X114937619Y-55814761D01*
X114890000Y-55767142D01*
X114842380Y-55671904D01*
X114842380Y-55386190D01*
X114890000Y-55290952D01*
X114937619Y-55243333D01*
X115032857Y-55195714D01*
X115223333Y-55195714D01*
X115318571Y-55243333D01*
X116175714Y-55814761D02*
X116080476Y-55862380D01*
X115890000Y-55862380D01*
X115794761Y-55814761D01*
X115747142Y-55719523D01*
X115747142Y-55338571D01*
X115794761Y-55243333D01*
X115890000Y-55195714D01*
X116080476Y-55195714D01*
X116175714Y-55243333D01*
X116223333Y-55338571D01*
X116223333Y-55433809D01*
X115747142Y-55529047D01*
X116651904Y-55862380D02*
X116651904Y-55195714D01*
X116651904Y-55386190D02*
X116699523Y-55290952D01*
X116747142Y-55243333D01*
X116842380Y-55195714D01*
X116937619Y-55195714D01*
X118032857Y-55195714D02*
X118032857Y-55862380D01*
X118032857Y-55290952D02*
X118080476Y-55243333D01*
X118175714Y-55195714D01*
X118318571Y-55195714D01*
X118413809Y-55243333D01*
X118461428Y-55338571D01*
X118461428Y-55862380D01*
X119366190Y-55195714D02*
X119366190Y-55862380D01*
X118937619Y-55195714D02*
X118937619Y-55719523D01*
X118985238Y-55814761D01*
X119080476Y-55862380D01*
X119223333Y-55862380D01*
X119318571Y-55814761D01*
X119366190Y-55767142D01*
X119842380Y-55862380D02*
X119842380Y-55195714D01*
X119842380Y-55290952D02*
X119890000Y-55243333D01*
X119985238Y-55195714D01*
X120128095Y-55195714D01*
X120223333Y-55243333D01*
X120270952Y-55338571D01*
X120270952Y-55862380D01*
X120270952Y-55338571D02*
X120318571Y-55243333D01*
X120413809Y-55195714D01*
X120556666Y-55195714D01*
X120651904Y-55243333D01*
X120699523Y-55338571D01*
X120699523Y-55862380D01*
X121175714Y-55862380D02*
X121175714Y-54862380D01*
X121175714Y-55243333D02*
X121270952Y-55195714D01*
X121461428Y-55195714D01*
X121556666Y-55243333D01*
X121604285Y-55290952D01*
X121651904Y-55386190D01*
X121651904Y-55671904D01*
X121604285Y-55767142D01*
X121556666Y-55814761D01*
X121461428Y-55862380D01*
X121270952Y-55862380D01*
X121175714Y-55814761D01*
X122461428Y-55814761D02*
X122366190Y-55862380D01*
X122175714Y-55862380D01*
X122080476Y-55814761D01*
X122032857Y-55719523D01*
X122032857Y-55338571D01*
X122080476Y-55243333D01*
X122175714Y-55195714D01*
X122366190Y-55195714D01*
X122461428Y-55243333D01*
X122509047Y-55338571D01*
X122509047Y-55433809D01*
X122032857Y-55529047D01*
X122937619Y-55862380D02*
X122937619Y-55195714D01*
X122937619Y-55386190D02*
X122985238Y-55290952D01*
X123032857Y-55243333D01*
X123128095Y-55195714D01*
X123223333Y-55195714D01*
X123556666Y-55767142D02*
X123604285Y-55814761D01*
X123556666Y-55862380D01*
X123509047Y-55814761D01*
X123556666Y-55767142D01*
X123556666Y-55862380D01*
X123556666Y-55243333D02*
X123604285Y-55290952D01*
X123556666Y-55338571D01*
X123509047Y-55290952D01*
X123556666Y-55243333D01*
X123556666Y-55338571D01*
D12*
X79769642Y-21318571D02*
X79769642Y-19818571D01*
X80269642Y-20890000D01*
X80769642Y-19818571D01*
X80769642Y-21318571D01*
X82126785Y-21318571D02*
X82126785Y-20532857D01*
X82055357Y-20390000D01*
X81912500Y-20318571D01*
X81626785Y-20318571D01*
X81483928Y-20390000D01*
X82126785Y-21247142D02*
X81983928Y-21318571D01*
X81626785Y-21318571D01*
X81483928Y-21247142D01*
X81412500Y-21104285D01*
X81412500Y-20961428D01*
X81483928Y-20818571D01*
X81626785Y-20747142D01*
X81983928Y-20747142D01*
X82126785Y-20675714D01*
X83483928Y-20318571D02*
X83483928Y-21532857D01*
X83412500Y-21675714D01*
X83341071Y-21747142D01*
X83198214Y-21818571D01*
X82983928Y-21818571D01*
X82841071Y-21747142D01*
X83483928Y-21247142D02*
X83341071Y-21318571D01*
X83055357Y-21318571D01*
X82912500Y-21247142D01*
X82841071Y-21175714D01*
X82769642Y-21032857D01*
X82769642Y-20604285D01*
X82841071Y-20461428D01*
X82912500Y-20390000D01*
X83055357Y-20318571D01*
X83341071Y-20318571D01*
X83483928Y-20390000D01*
X84198214Y-20318571D02*
X84198214Y-21318571D01*
X84198214Y-20461428D02*
X84269642Y-20390000D01*
X84412500Y-20318571D01*
X84626785Y-20318571D01*
X84769642Y-20390000D01*
X84841071Y-20532857D01*
X84841071Y-21318571D01*
X86126785Y-21247142D02*
X85983928Y-21318571D01*
X85698214Y-21318571D01*
X85555357Y-21247142D01*
X85483928Y-21104285D01*
X85483928Y-20532857D01*
X85555357Y-20390000D01*
X85698214Y-20318571D01*
X85983928Y-20318571D01*
X86126785Y-20390000D01*
X86198214Y-20532857D01*
X86198214Y-20675714D01*
X85483928Y-20818571D01*
X86626785Y-20318571D02*
X87198214Y-20318571D01*
X86841071Y-19818571D02*
X86841071Y-21104285D01*
X86912500Y-21247142D01*
X87055357Y-21318571D01*
X87198214Y-21318571D01*
X87698214Y-21318571D02*
X87698214Y-20318571D01*
X87698214Y-19818571D02*
X87626785Y-19890000D01*
X87698214Y-19961428D01*
X87769642Y-19890000D01*
X87698214Y-19818571D01*
X87698214Y-19961428D01*
X89055357Y-21247142D02*
X88912500Y-21318571D01*
X88626785Y-21318571D01*
X88483928Y-21247142D01*
X88412500Y-21175714D01*
X88341071Y-21032857D01*
X88341071Y-20604285D01*
X88412500Y-20461428D01*
X88483928Y-20390000D01*
X88626785Y-20318571D01*
X88912500Y-20318571D01*
X89055357Y-20390000D01*
X91412500Y-21247142D02*
X91269642Y-21318571D01*
X90983928Y-21318571D01*
X90841071Y-21247142D01*
X90769642Y-21104285D01*
X90769642Y-20532857D01*
X90841071Y-20390000D01*
X90983928Y-20318571D01*
X91269642Y-20318571D01*
X91412500Y-20390000D01*
X91483928Y-20532857D01*
X91483928Y-20675714D01*
X90769642Y-20818571D01*
X92126785Y-20318571D02*
X92126785Y-21318571D01*
X92126785Y-20461428D02*
X92198214Y-20390000D01*
X92341071Y-20318571D01*
X92555357Y-20318571D01*
X92698214Y-20390000D01*
X92769642Y-20532857D01*
X92769642Y-21318571D01*
X94126785Y-21247142D02*
X93983928Y-21318571D01*
X93698214Y-21318571D01*
X93555357Y-21247142D01*
X93483928Y-21175714D01*
X93412500Y-21032857D01*
X93412500Y-20604285D01*
X93483928Y-20461428D01*
X93555357Y-20390000D01*
X93698214Y-20318571D01*
X93983928Y-20318571D01*
X94126785Y-20390000D01*
X94983928Y-21318571D02*
X94841071Y-21247142D01*
X94769642Y-21175714D01*
X94698214Y-21032857D01*
X94698214Y-20604285D01*
X94769642Y-20461428D01*
X94841071Y-20390000D01*
X94983928Y-20318571D01*
X95198214Y-20318571D01*
X95341071Y-20390000D01*
X95412500Y-20461428D01*
X95483928Y-20604285D01*
X95483928Y-21032857D01*
X95412500Y-21175714D01*
X95341071Y-21247142D01*
X95198214Y-21318571D01*
X94983928Y-21318571D01*
X96769642Y-21318571D02*
X96769642Y-19818571D01*
X96769642Y-21247142D02*
X96626785Y-21318571D01*
X96341071Y-21318571D01*
X96198214Y-21247142D01*
X96126785Y-21175714D01*
X96055357Y-21032857D01*
X96055357Y-20604285D01*
X96126785Y-20461428D01*
X96198214Y-20390000D01*
X96341071Y-20318571D01*
X96626785Y-20318571D01*
X96769642Y-20390000D01*
X98055357Y-21247142D02*
X97912500Y-21318571D01*
X97626785Y-21318571D01*
X97483928Y-21247142D01*
X97412500Y-21104285D01*
X97412500Y-20532857D01*
X97483928Y-20390000D01*
X97626785Y-20318571D01*
X97912500Y-20318571D01*
X98055357Y-20390000D01*
X98126785Y-20532857D01*
X98126785Y-20675714D01*
X97412500Y-20818571D01*
X98769642Y-21318571D02*
X98769642Y-20318571D01*
X98769642Y-20604285D02*
X98841071Y-20461428D01*
X98912500Y-20390000D01*
X99055357Y-20318571D01*
X99198214Y-20318571D01*
X100769642Y-21247142D02*
X100912500Y-21318571D01*
X101198214Y-21318571D01*
X101341071Y-21247142D01*
X101412500Y-21104285D01*
X101412500Y-21032857D01*
X101341071Y-20890000D01*
X101198214Y-20818571D01*
X100983928Y-20818571D01*
X100841071Y-20747142D01*
X100769642Y-20604285D01*
X100769642Y-20532857D01*
X100841071Y-20390000D01*
X100983928Y-20318571D01*
X101198214Y-20318571D01*
X101341071Y-20390000D01*
X102698214Y-21318571D02*
X102698214Y-20532857D01*
X102626785Y-20390000D01*
X102483928Y-20318571D01*
X102198214Y-20318571D01*
X102055357Y-20390000D01*
X102698214Y-21247142D02*
X102555357Y-21318571D01*
X102198214Y-21318571D01*
X102055357Y-21247142D01*
X101983928Y-21104285D01*
X101983928Y-20961428D01*
X102055357Y-20818571D01*
X102198214Y-20747142D01*
X102555357Y-20747142D01*
X102698214Y-20675714D01*
X103412500Y-21318571D02*
X103412500Y-20318571D01*
X103412500Y-20461428D02*
X103483928Y-20390000D01*
X103626785Y-20318571D01*
X103841071Y-20318571D01*
X103983928Y-20390000D01*
X104055357Y-20532857D01*
X104055357Y-21318571D01*
X104055357Y-20532857D02*
X104126785Y-20390000D01*
X104269642Y-20318571D01*
X104483928Y-20318571D01*
X104626785Y-20390000D01*
X104698214Y-20532857D01*
X104698214Y-21318571D01*
X105412500Y-20318571D02*
X105412500Y-21818571D01*
X105412500Y-20390000D02*
X105555357Y-20318571D01*
X105841071Y-20318571D01*
X105983928Y-20390000D01*
X106055357Y-20461428D01*
X106126785Y-20604285D01*
X106126785Y-21032857D01*
X106055357Y-21175714D01*
X105983928Y-21247142D01*
X105841071Y-21318571D01*
X105555357Y-21318571D01*
X105412500Y-21247142D01*
X106983928Y-21318571D02*
X106841071Y-21247142D01*
X106769642Y-21104285D01*
X106769642Y-19818571D01*
X108126785Y-21247142D02*
X107983928Y-21318571D01*
X107698214Y-21318571D01*
X107555357Y-21247142D01*
X107483928Y-21104285D01*
X107483928Y-20532857D01*
X107555357Y-20390000D01*
X107698214Y-20318571D01*
X107983928Y-20318571D01*
X108126785Y-20390000D01*
X108198214Y-20532857D01*
X108198214Y-20675714D01*
X107483928Y-20818571D01*
X108841071Y-21318571D02*
X108841071Y-20318571D01*
X108841071Y-20604285D02*
X108912500Y-20461428D01*
X108983928Y-20390000D01*
X109126785Y-20318571D01*
X109269642Y-20318571D01*
X110912500Y-20318571D02*
X110912500Y-21818571D01*
X110912500Y-20390000D02*
X111055357Y-20318571D01*
X111341071Y-20318571D01*
X111483928Y-20390000D01*
X111555357Y-20461428D01*
X111626785Y-20604285D01*
X111626785Y-21032857D01*
X111555357Y-21175714D01*
X111483928Y-21247142D01*
X111341071Y-21318571D01*
X111055357Y-21318571D01*
X110912500Y-21247142D01*
X112912500Y-21318571D02*
X112912500Y-20532857D01*
X112841071Y-20390000D01*
X112698214Y-20318571D01*
X112412500Y-20318571D01*
X112269642Y-20390000D01*
X112912500Y-21247142D02*
X112769642Y-21318571D01*
X112412500Y-21318571D01*
X112269642Y-21247142D01*
X112198214Y-21104285D01*
X112198214Y-20961428D01*
X112269642Y-20818571D01*
X112412500Y-20747142D01*
X112769642Y-20747142D01*
X112912500Y-20675714D01*
X113626785Y-20318571D02*
X113626785Y-21318571D01*
X113626785Y-20461428D02*
X113698214Y-20390000D01*
X113841071Y-20318571D01*
X114055357Y-20318571D01*
X114198214Y-20390000D01*
X114269642Y-20532857D01*
X114269642Y-21318571D01*
X115555357Y-21247142D02*
X115412500Y-21318571D01*
X115126785Y-21318571D01*
X114983928Y-21247142D01*
X114912500Y-21104285D01*
X114912500Y-20532857D01*
X114983928Y-20390000D01*
X115126785Y-20318571D01*
X115412500Y-20318571D01*
X115555357Y-20390000D01*
X115626785Y-20532857D01*
X115626785Y-20675714D01*
X114912500Y-20818571D01*
X116483928Y-21318571D02*
X116341071Y-21247142D01*
X116269642Y-21104285D01*
X116269642Y-19818571D01*
X118055357Y-20318571D02*
X118412500Y-21318571D01*
X118769642Y-20318571D01*
X120126785Y-21318571D02*
X119269642Y-21318571D01*
X119698214Y-21318571D02*
X119698214Y-19818571D01*
X119555357Y-20032857D01*
X119412500Y-20175714D01*
X119269642Y-20247142D01*
X120769642Y-21175714D02*
X120841071Y-21247142D01*
X120769642Y-21318571D01*
X120698214Y-21247142D01*
X120769642Y-21175714D01*
X120769642Y-21318571D01*
X122269642Y-21318571D02*
X121412500Y-21318571D01*
X121841071Y-21318571D02*
X121841071Y-19818571D01*
X121698214Y-20032857D01*
X121555357Y-20175714D01*
X121412500Y-20247142D01*
D11*
X63650952Y-22806666D02*
X64127142Y-22806666D01*
X63555714Y-23092380D02*
X63889047Y-22092380D01*
X64222380Y-23092380D01*
X64555714Y-22568571D02*
X64889047Y-22568571D01*
X65031904Y-23092380D02*
X64555714Y-23092380D01*
X64555714Y-22092380D01*
X65031904Y-22092380D01*
X65412857Y-22806666D02*
X65889047Y-22806666D01*
X65317619Y-23092380D02*
X65650952Y-22092380D01*
X65984285Y-23092380D01*
X66174761Y-22092380D02*
X66746190Y-22092380D01*
X66460476Y-23092380D02*
X66460476Y-22092380D01*
X67079523Y-22711428D02*
X67841428Y-22711428D01*
X68460476Y-22520952D02*
X68365238Y-22473333D01*
X68317619Y-22425714D01*
X68270000Y-22330476D01*
X68270000Y-22282857D01*
X68317619Y-22187619D01*
X68365238Y-22140000D01*
X68460476Y-22092380D01*
X68650952Y-22092380D01*
X68746190Y-22140000D01*
X68793809Y-22187619D01*
X68841428Y-22282857D01*
X68841428Y-22330476D01*
X68793809Y-22425714D01*
X68746190Y-22473333D01*
X68650952Y-22520952D01*
X68460476Y-22520952D01*
X68365238Y-22568571D01*
X68317619Y-22616190D01*
X68270000Y-22711428D01*
X68270000Y-22901904D01*
X68317619Y-22997142D01*
X68365238Y-23044761D01*
X68460476Y-23092380D01*
X68650952Y-23092380D01*
X68746190Y-23044761D01*
X68793809Y-22997142D01*
X68841428Y-22901904D01*
X68841428Y-22711428D01*
X68793809Y-22616190D01*
X68746190Y-22568571D01*
X68650952Y-22520952D01*
X69412857Y-22520952D02*
X69317619Y-22473333D01*
X69270000Y-22425714D01*
X69222380Y-22330476D01*
X69222380Y-22282857D01*
X69270000Y-22187619D01*
X69317619Y-22140000D01*
X69412857Y-22092380D01*
X69603333Y-22092380D01*
X69698571Y-22140000D01*
X69746190Y-22187619D01*
X69793809Y-22282857D01*
X69793809Y-22330476D01*
X69746190Y-22425714D01*
X69698571Y-22473333D01*
X69603333Y-22520952D01*
X69412857Y-22520952D01*
X69317619Y-22568571D01*
X69270000Y-22616190D01*
X69222380Y-22711428D01*
X69222380Y-22901904D01*
X69270000Y-22997142D01*
X69317619Y-23044761D01*
X69412857Y-23092380D01*
X69603333Y-23092380D01*
X69698571Y-23044761D01*
X69746190Y-22997142D01*
X69793809Y-22901904D01*
X69793809Y-22711428D01*
X69746190Y-22616190D01*
X69698571Y-22568571D01*
X69603333Y-22520952D01*
X70412857Y-22092380D02*
X70508095Y-22092380D01*
X70603333Y-22140000D01*
X70650952Y-22187619D01*
X70698571Y-22282857D01*
X70746190Y-22473333D01*
X70746190Y-22711428D01*
X70698571Y-22901904D01*
X70650952Y-22997142D01*
X70603333Y-23044761D01*
X70508095Y-23092380D01*
X70412857Y-23092380D01*
X70317619Y-23044761D01*
X70270000Y-22997142D01*
X70222380Y-22901904D01*
X70174761Y-22711428D01*
X70174761Y-22473333D01*
X70222380Y-22282857D01*
X70270000Y-22187619D01*
X70317619Y-22140000D01*
X70412857Y-22092380D01*
X71365238Y-22092380D02*
X71460476Y-22092380D01*
X71555714Y-22140000D01*
X71603333Y-22187619D01*
X71650952Y-22282857D01*
X71698571Y-22473333D01*
X71698571Y-22711428D01*
X71650952Y-22901904D01*
X71603333Y-22997142D01*
X71555714Y-23044761D01*
X71460476Y-23092380D01*
X71365238Y-23092380D01*
X71270000Y-23044761D01*
X71222380Y-22997142D01*
X71174761Y-22901904D01*
X71127142Y-22711428D01*
X71127142Y-22473333D01*
X71174761Y-22282857D01*
X71222380Y-22187619D01*
X71270000Y-22140000D01*
X71365238Y-22092380D01*
X72127142Y-22711428D02*
X72889047Y-22711428D01*
X74031904Y-23187619D02*
X73936666Y-23140000D01*
X73841428Y-23044761D01*
X73698571Y-22901904D01*
X73603333Y-22854285D01*
X73508095Y-22854285D01*
X73555714Y-23092380D02*
X73460476Y-23044761D01*
X73365238Y-22949523D01*
X73317619Y-22759047D01*
X73317619Y-22425714D01*
X73365238Y-22235238D01*
X73460476Y-22140000D01*
X73555714Y-22092380D01*
X73746190Y-22092380D01*
X73841428Y-22140000D01*
X73936666Y-22235238D01*
X73984285Y-22425714D01*
X73984285Y-22759047D01*
X73936666Y-22949523D01*
X73841428Y-23044761D01*
X73746190Y-23092380D01*
X73555714Y-23092380D01*
X74365238Y-22187619D02*
X74412857Y-22140000D01*
X74508095Y-22092380D01*
X74746190Y-22092380D01*
X74841428Y-22140000D01*
X74889047Y-22187619D01*
X74936666Y-22282857D01*
X74936666Y-22378095D01*
X74889047Y-22520952D01*
X74317619Y-23092380D01*
X74936666Y-23092380D01*
X75793809Y-22425714D02*
X75793809Y-23092380D01*
X75555714Y-22044761D02*
X75317619Y-22759047D01*
X75936666Y-22759047D01*
X67862380Y-24252380D02*
X68433809Y-24252380D01*
X68148095Y-25252380D02*
X68148095Y-24252380D01*
X69243333Y-25252380D02*
X68767142Y-25252380D01*
X68767142Y-24252380D01*
X69576666Y-24728571D02*
X69910000Y-24728571D01*
X70052857Y-25252380D02*
X69576666Y-25252380D01*
X69576666Y-24252380D01*
X70052857Y-24252380D01*
X70957619Y-24252380D02*
X70481428Y-24252380D01*
X70433809Y-24728571D01*
X70481428Y-24680952D01*
X70576666Y-24633333D01*
X70814761Y-24633333D01*
X70910000Y-24680952D01*
X70957619Y-24728571D01*
X71005238Y-24823809D01*
X71005238Y-25061904D01*
X70957619Y-25157142D01*
X70910000Y-25204761D01*
X70814761Y-25252380D01*
X70576666Y-25252380D01*
X70481428Y-25204761D01*
X70433809Y-25157142D01*
X71624285Y-24252380D02*
X71719523Y-24252380D01*
X71814761Y-24300000D01*
X71862380Y-24347619D01*
X71910000Y-24442857D01*
X71957619Y-24633333D01*
X71957619Y-24871428D01*
X71910000Y-25061904D01*
X71862380Y-25157142D01*
X71814761Y-25204761D01*
X71719523Y-25252380D01*
X71624285Y-25252380D01*
X71529047Y-25204761D01*
X71481428Y-25157142D01*
X71433809Y-25061904D01*
X71386190Y-24871428D01*
X71386190Y-24633333D01*
X71433809Y-24442857D01*
X71481428Y-24347619D01*
X71529047Y-24300000D01*
X71624285Y-24252380D01*
X72910000Y-25252380D02*
X72338571Y-25252380D01*
X72624285Y-25252380D02*
X72624285Y-24252380D01*
X72529047Y-24395238D01*
X72433809Y-24490476D01*
X72338571Y-24538095D01*
X73290952Y-24347619D02*
X73338571Y-24300000D01*
X73433809Y-24252380D01*
X73671904Y-24252380D01*
X73767142Y-24300000D01*
X73814761Y-24347619D01*
X73862380Y-24442857D01*
X73862380Y-24538095D01*
X73814761Y-24680952D01*
X73243333Y-25252380D01*
X73862380Y-25252380D01*
X74624285Y-24728571D02*
X74767142Y-24776190D01*
X74814761Y-24823809D01*
X74862380Y-24919047D01*
X74862380Y-25061904D01*
X74814761Y-25157142D01*
X74767142Y-25204761D01*
X74671904Y-25252380D01*
X74290952Y-25252380D01*
X74290952Y-24252380D01*
X74624285Y-24252380D01*
X74719523Y-24300000D01*
X74767142Y-24347619D01*
X74814761Y-24442857D01*
X74814761Y-24538095D01*
X74767142Y-24633333D01*
X74719523Y-24680952D01*
X74624285Y-24728571D01*
X74290952Y-24728571D01*
X85769523Y-25252380D02*
X85769523Y-24252380D01*
X86102857Y-24966666D01*
X86436190Y-24252380D01*
X86436190Y-25252380D01*
X86864761Y-24966666D02*
X87340952Y-24966666D01*
X86769523Y-25252380D02*
X87102857Y-24252380D01*
X87436190Y-25252380D01*
X87674285Y-24252380D02*
X88340952Y-24252380D01*
X87912380Y-25252380D01*
X88626666Y-24252380D02*
X89245714Y-24252380D01*
X88912380Y-24633333D01*
X89055238Y-24633333D01*
X89150476Y-24680952D01*
X89198095Y-24728571D01*
X89245714Y-24823809D01*
X89245714Y-25061904D01*
X89198095Y-25157142D01*
X89150476Y-25204761D01*
X89055238Y-25252380D01*
X88769523Y-25252380D01*
X88674285Y-25204761D01*
X88626666Y-25157142D01*
X89864761Y-24252380D02*
X89960000Y-24252380D01*
X90055238Y-24300000D01*
X90102857Y-24347619D01*
X90150476Y-24442857D01*
X90198095Y-24633333D01*
X90198095Y-24871428D01*
X90150476Y-25061904D01*
X90102857Y-25157142D01*
X90055238Y-25204761D01*
X89960000Y-25252380D01*
X89864761Y-25252380D01*
X89769523Y-25204761D01*
X89721904Y-25157142D01*
X89674285Y-25061904D01*
X89626666Y-24871428D01*
X89626666Y-24633333D01*
X89674285Y-24442857D01*
X89721904Y-24347619D01*
X89769523Y-24300000D01*
X89864761Y-24252380D01*
X98769523Y-25252380D02*
X98769523Y-24252380D01*
X99102857Y-24966666D01*
X99436190Y-24252380D01*
X99436190Y-25252380D01*
X99864761Y-24966666D02*
X100340952Y-24966666D01*
X99769523Y-25252380D02*
X100102857Y-24252380D01*
X100436190Y-25252380D01*
X100674285Y-24252380D02*
X101340952Y-24252380D01*
X100912380Y-25252380D01*
X101626666Y-24252380D02*
X102245714Y-24252380D01*
X101912380Y-24633333D01*
X102055238Y-24633333D01*
X102150476Y-24680952D01*
X102198095Y-24728571D01*
X102245714Y-24823809D01*
X102245714Y-25061904D01*
X102198095Y-25157142D01*
X102150476Y-25204761D01*
X102055238Y-25252380D01*
X101769523Y-25252380D01*
X101674285Y-25204761D01*
X101626666Y-25157142D01*
X102864761Y-24252380D02*
X102960000Y-24252380D01*
X103055238Y-24300000D01*
X103102857Y-24347619D01*
X103150476Y-24442857D01*
X103198095Y-24633333D01*
X103198095Y-24871428D01*
X103150476Y-25061904D01*
X103102857Y-25157142D01*
X103055238Y-25204761D01*
X102960000Y-25252380D01*
X102864761Y-25252380D01*
X102769523Y-25204761D01*
X102721904Y-25157142D01*
X102674285Y-25061904D01*
X102626666Y-24871428D01*
X102626666Y-24633333D01*
X102674285Y-24442857D01*
X102721904Y-24347619D01*
X102769523Y-24300000D01*
X102864761Y-24252380D01*
X114310952Y-24966666D02*
X114787142Y-24966666D01*
X114215714Y-25252380D02*
X114549047Y-24252380D01*
X114882380Y-25252380D01*
X115168095Y-25204761D02*
X115310952Y-25252380D01*
X115549047Y-25252380D01*
X115644285Y-25204761D01*
X115691904Y-25157142D01*
X115739523Y-25061904D01*
X115739523Y-24966666D01*
X115691904Y-24871428D01*
X115644285Y-24823809D01*
X115549047Y-24776190D01*
X115358571Y-24728571D01*
X115263333Y-24680952D01*
X115215714Y-24633333D01*
X115168095Y-24538095D01*
X115168095Y-24442857D01*
X115215714Y-24347619D01*
X115263333Y-24300000D01*
X115358571Y-24252380D01*
X115596666Y-24252380D01*
X115739523Y-24300000D01*
X116644285Y-24252380D02*
X116168095Y-24252380D01*
X116120476Y-24728571D01*
X116168095Y-24680952D01*
X116263333Y-24633333D01*
X116501428Y-24633333D01*
X116596666Y-24680952D01*
X116644285Y-24728571D01*
X116691904Y-24823809D01*
X116691904Y-25061904D01*
X116644285Y-25157142D01*
X116596666Y-25204761D01*
X116501428Y-25252380D01*
X116263333Y-25252380D01*
X116168095Y-25204761D01*
X116120476Y-25157142D01*
X117310952Y-24252380D02*
X117406190Y-24252380D01*
X117501428Y-24300000D01*
X117549047Y-24347619D01*
X117596666Y-24442857D01*
X117644285Y-24633333D01*
X117644285Y-24871428D01*
X117596666Y-25061904D01*
X117549047Y-25157142D01*
X117501428Y-25204761D01*
X117406190Y-25252380D01*
X117310952Y-25252380D01*
X117215714Y-25204761D01*
X117168095Y-25157142D01*
X117120476Y-25061904D01*
X117072857Y-24871428D01*
X117072857Y-24633333D01*
X117120476Y-24442857D01*
X117168095Y-24347619D01*
X117215714Y-24300000D01*
X117310952Y-24252380D01*
X118501428Y-24585714D02*
X118501428Y-25252380D01*
X118263333Y-24204761D02*
X118025238Y-24919047D01*
X118644285Y-24919047D01*
X119168095Y-24680952D02*
X119072857Y-24633333D01*
X119025238Y-24585714D01*
X118977619Y-24490476D01*
X118977619Y-24442857D01*
X119025238Y-24347619D01*
X119072857Y-24300000D01*
X119168095Y-24252380D01*
X119358571Y-24252380D01*
X119453809Y-24300000D01*
X119501428Y-24347619D01*
X119549047Y-24442857D01*
X119549047Y-24490476D01*
X119501428Y-24585714D01*
X119453809Y-24633333D01*
X119358571Y-24680952D01*
X119168095Y-24680952D01*
X119072857Y-24728571D01*
X119025238Y-24776190D01*
X118977619Y-24871428D01*
X118977619Y-25061904D01*
X119025238Y-25157142D01*
X119072857Y-25204761D01*
X119168095Y-25252380D01*
X119358571Y-25252380D01*
X119453809Y-25204761D01*
X119501428Y-25157142D01*
X119549047Y-25061904D01*
X119549047Y-24871428D01*
X119501428Y-24776190D01*
X119453809Y-24728571D01*
X119358571Y-24680952D01*
X120310952Y-24728571D02*
X120453809Y-24776190D01*
X120501428Y-24823809D01*
X120549047Y-24919047D01*
X120549047Y-25061904D01*
X120501428Y-25157142D01*
X120453809Y-25204761D01*
X120358571Y-25252380D01*
X119977619Y-25252380D01*
X119977619Y-24252380D01*
X120310952Y-24252380D01*
X120406190Y-24300000D01*
X120453809Y-24347619D01*
X120501428Y-24442857D01*
X120501428Y-24538095D01*
X120453809Y-24633333D01*
X120406190Y-24680952D01*
X120310952Y-24728571D01*
X119977619Y-24728571D01*
X134402380Y-24966666D02*
X134878571Y-24966666D01*
X134307142Y-25252380D02*
X134640476Y-24252380D01*
X134973809Y-25252380D01*
X135259523Y-25204761D02*
X135402380Y-25252380D01*
X135640476Y-25252380D01*
X135735714Y-25204761D01*
X135783333Y-25157142D01*
X135830952Y-25061904D01*
X135830952Y-24966666D01*
X135783333Y-24871428D01*
X135735714Y-24823809D01*
X135640476Y-24776190D01*
X135450000Y-24728571D01*
X135354761Y-24680952D01*
X135307142Y-24633333D01*
X135259523Y-24538095D01*
X135259523Y-24442857D01*
X135307142Y-24347619D01*
X135354761Y-24300000D01*
X135450000Y-24252380D01*
X135688095Y-24252380D01*
X135830952Y-24300000D01*
X136735714Y-24252380D02*
X136259523Y-24252380D01*
X136211904Y-24728571D01*
X136259523Y-24680952D01*
X136354761Y-24633333D01*
X136592857Y-24633333D01*
X136688095Y-24680952D01*
X136735714Y-24728571D01*
X136783333Y-24823809D01*
X136783333Y-25061904D01*
X136735714Y-25157142D01*
X136688095Y-25204761D01*
X136592857Y-25252380D01*
X136354761Y-25252380D01*
X136259523Y-25204761D01*
X136211904Y-25157142D01*
X137402380Y-24252380D02*
X137497619Y-24252380D01*
X137592857Y-24300000D01*
X137640476Y-24347619D01*
X137688095Y-24442857D01*
X137735714Y-24633333D01*
X137735714Y-24871428D01*
X137688095Y-25061904D01*
X137640476Y-25157142D01*
X137592857Y-25204761D01*
X137497619Y-25252380D01*
X137402380Y-25252380D01*
X137307142Y-25204761D01*
X137259523Y-25157142D01*
X137211904Y-25061904D01*
X137164285Y-24871428D01*
X137164285Y-24633333D01*
X137211904Y-24442857D01*
X137259523Y-24347619D01*
X137307142Y-24300000D01*
X137402380Y-24252380D01*
X138592857Y-24585714D02*
X138592857Y-25252380D01*
X138354761Y-24204761D02*
X138116666Y-24919047D01*
X138735714Y-24919047D01*
X139259523Y-24680952D02*
X139164285Y-24633333D01*
X139116666Y-24585714D01*
X139069047Y-24490476D01*
X139069047Y-24442857D01*
X139116666Y-24347619D01*
X139164285Y-24300000D01*
X139259523Y-24252380D01*
X139450000Y-24252380D01*
X139545238Y-24300000D01*
X139592857Y-24347619D01*
X139640476Y-24442857D01*
X139640476Y-24490476D01*
X139592857Y-24585714D01*
X139545238Y-24633333D01*
X139450000Y-24680952D01*
X139259523Y-24680952D01*
X139164285Y-24728571D01*
X139116666Y-24776190D01*
X139069047Y-24871428D01*
X139069047Y-25061904D01*
X139116666Y-25157142D01*
X139164285Y-25204761D01*
X139259523Y-25252380D01*
X139450000Y-25252380D01*
X139545238Y-25204761D01*
X139592857Y-25157142D01*
X139640476Y-25061904D01*
X139640476Y-24871428D01*
X139592857Y-24776190D01*
X139545238Y-24728571D01*
X139450000Y-24680952D01*
X140021428Y-24966666D02*
X140497619Y-24966666D01*
X139926190Y-25252380D02*
X140259523Y-24252380D01*
X140592857Y-25252380D01*
X133034412Y-36194838D02*
X132684226Y-35844652D01*
X133088287Y-35817714D01*
X133007474Y-35736902D01*
X132980537Y-35656090D01*
X132980537Y-35602215D01*
X133007474Y-35521403D01*
X133142161Y-35386716D01*
X133222974Y-35359779D01*
X133276848Y-35359779D01*
X133357661Y-35386716D01*
X133519285Y-35548340D01*
X133546222Y-35629153D01*
X133546222Y-35683027D01*
X132953600Y-35090405D02*
X132953600Y-35036530D01*
X133007474Y-35036530D01*
X133007474Y-35090405D01*
X132953600Y-35090405D01*
X133007474Y-35036530D01*
X132226290Y-35386716D02*
X131876104Y-35036530D01*
X132280165Y-35009592D01*
X132199352Y-34928780D01*
X132172415Y-34847968D01*
X132172415Y-34794093D01*
X132199352Y-34713281D01*
X132334039Y-34578594D01*
X132414852Y-34551657D01*
X132468726Y-34551657D01*
X132549539Y-34578594D01*
X132711163Y-34740218D01*
X132738100Y-34821031D01*
X132738100Y-34874905D01*
X131714479Y-34874905D02*
X132091603Y-34120658D01*
X131337356Y-34497782D01*
D13*
X134099609Y-43939284D02*
X133718656Y-43939284D01*
X133909133Y-43748808D02*
X133909133Y-44129760D01*
D11*
X134669847Y-48322618D02*
X135669847Y-48322618D01*
X134717466Y-48322618D02*
X134669847Y-48227379D01*
X134669847Y-48036903D01*
X134717466Y-47941665D01*
X134765085Y-47894046D01*
X134860323Y-47846427D01*
X135146037Y-47846427D01*
X135241275Y-47894046D01*
X135288894Y-47941665D01*
X135336513Y-48036903D01*
X135336513Y-48227379D01*
X135288894Y-48322618D01*
X134669847Y-47513094D02*
X135336513Y-47322618D01*
X134860323Y-47132141D01*
X135336513Y-46941665D01*
X134669847Y-46751189D01*
X135336513Y-46370237D02*
X134669847Y-46370237D01*
X134860323Y-46370237D02*
X134765085Y-46322618D01*
X134717466Y-46274999D01*
X134669847Y-46179760D01*
X134669847Y-46084522D01*
X113165729Y-36431048D02*
X112727996Y-35993315D01*
X113233072Y-35959643D01*
X113132057Y-35858628D01*
X113098385Y-35757613D01*
X113098385Y-35690269D01*
X113132057Y-35589254D01*
X113300416Y-35420895D01*
X113401431Y-35387224D01*
X113468774Y-35387224D01*
X113569790Y-35420895D01*
X113771820Y-35622926D01*
X113805492Y-35723941D01*
X113805492Y-35791285D01*
X113064713Y-35050506D02*
X113064713Y-34983163D01*
X113132057Y-34983163D01*
X113132057Y-35050506D01*
X113064713Y-35050506D01*
X113132057Y-34983163D01*
X112155576Y-35420895D02*
X111717843Y-34983163D01*
X112222920Y-34949491D01*
X112121904Y-34848476D01*
X112088233Y-34747460D01*
X112088233Y-34680117D01*
X112121904Y-34579102D01*
X112290263Y-34410743D01*
X112391278Y-34377071D01*
X112458622Y-34377071D01*
X112559637Y-34410743D01*
X112761668Y-34612773D01*
X112795339Y-34713789D01*
X112795339Y-34781132D01*
X111515813Y-34781132D02*
X111987217Y-33838323D01*
X111044408Y-34309728D01*
D13*
X121744844Y-33690475D02*
X121744844Y-33309522D01*
X121935320Y-33499999D02*
X121554368Y-33499999D01*
D11*
X120394844Y-33247618D02*
X121394844Y-33247618D01*
X120442463Y-33247618D02*
X120394844Y-33152379D01*
X120394844Y-32961903D01*
X120442463Y-32866665D01*
X120490082Y-32819046D01*
X120585320Y-32771427D01*
X120871034Y-32771427D01*
X120966272Y-32819046D01*
X121013891Y-32866665D01*
X121061510Y-32961903D01*
X121061510Y-33152379D01*
X121013891Y-33247618D01*
X120394844Y-32438094D02*
X121061510Y-32247618D01*
X120585320Y-32057141D01*
X121061510Y-31866665D01*
X120394844Y-31676189D01*
X121061510Y-31295237D02*
X120394844Y-31295237D01*
X120585320Y-31295237D02*
X120490082Y-31247618D01*
X120442463Y-31199999D01*
X120394844Y-31104760D01*
X120394844Y-31009522D01*
D13*
X51467062Y-41420426D02*
X51467062Y-41039473D01*
X51667062Y-41496616D02*
X50967062Y-41229950D01*
X51667062Y-40963283D01*
X51300396Y-39662807D02*
X51333729Y-39548521D01*
X51367062Y-39510426D01*
X51433729Y-39472330D01*
X51533729Y-39472330D01*
X51600396Y-39510426D01*
X51633729Y-39548521D01*
X51667062Y-39624711D01*
X51667062Y-39929473D01*
X50967062Y-39929473D01*
X50967062Y-39662807D01*
X51000396Y-39586616D01*
X51033729Y-39548521D01*
X51100396Y-39510426D01*
X51167062Y-39510426D01*
X51233729Y-39548521D01*
X51267062Y-39586616D01*
X51300396Y-39662807D01*
X51300396Y-39929473D01*
X51667062Y-38229950D02*
X50967062Y-38229950D01*
X50977062Y-35666616D02*
X51677062Y-35399950D01*
X50977062Y-35133283D01*
X50977062Y-36978521D02*
X51543729Y-36978521D01*
X51610396Y-36940426D01*
X51643729Y-36902330D01*
X51677062Y-36826140D01*
X51677062Y-36673759D01*
X51643729Y-36597569D01*
X51610396Y-36559473D01*
X51543729Y-36521378D01*
X50977062Y-36521378D01*
X50967062Y-34060664D02*
X51667062Y-33870188D01*
X51167062Y-33717807D01*
X51667062Y-33565426D01*
X50967062Y-33374950D01*
X50933729Y-32498759D02*
X51833729Y-33184473D01*
X51667062Y-32232092D02*
X50967062Y-32232092D01*
X50967062Y-31927330D01*
X51000396Y-31851140D01*
X51033729Y-31813045D01*
X51100396Y-31774950D01*
X51200396Y-31774950D01*
X51267062Y-31813045D01*
X51300396Y-31851140D01*
X51333729Y-31927330D01*
X51333729Y-32232092D01*
X56840396Y-27339473D02*
X56802300Y-27415664D01*
X56802300Y-27529950D01*
X56840396Y-27644235D01*
X56916586Y-27720426D01*
X56992776Y-27758521D01*
X57145157Y-27796616D01*
X57259443Y-27796616D01*
X57411824Y-27758521D01*
X57488015Y-27720426D01*
X57564205Y-27644235D01*
X57602300Y-27529950D01*
X57602300Y-27453759D01*
X57564205Y-27339473D01*
X57526110Y-27301378D01*
X57259443Y-27301378D01*
X57259443Y-27453759D01*
X57602300Y-26958521D02*
X56802300Y-26958521D01*
X57602300Y-26501378D01*
X56802300Y-26501378D01*
X57602300Y-26120426D02*
X56802300Y-26120426D01*
X56802300Y-25929950D01*
X56840396Y-25815664D01*
X56916586Y-25739473D01*
X56992776Y-25701378D01*
X57145157Y-25663283D01*
X57259443Y-25663283D01*
X57411824Y-25701378D01*
X57488015Y-25739473D01*
X57564205Y-25815664D01*
X57602300Y-25929950D01*
X57602300Y-26120426D01*
X56802300Y-49426616D02*
X57602300Y-49159950D01*
X56802300Y-48893283D01*
X57526110Y-48169473D02*
X57564205Y-48207569D01*
X57602300Y-48321854D01*
X57602300Y-48398045D01*
X57564205Y-48512330D01*
X57488015Y-48588521D01*
X57411824Y-48626616D01*
X57259443Y-48664711D01*
X57145157Y-48664711D01*
X56992776Y-48626616D01*
X56916586Y-48588521D01*
X56840396Y-48512330D01*
X56802300Y-48398045D01*
X56802300Y-48321854D01*
X56840396Y-48207569D01*
X56878491Y-48169473D01*
X57526110Y-47369473D02*
X57564205Y-47407569D01*
X57602300Y-47521854D01*
X57602300Y-47598045D01*
X57564205Y-47712330D01*
X57488015Y-47788521D01*
X57411824Y-47826616D01*
X57259443Y-47864711D01*
X57145157Y-47864711D01*
X56992776Y-47826616D01*
X56916586Y-47788521D01*
X56840396Y-47712330D01*
X56802300Y-47598045D01*
X56802300Y-47521854D01*
X56840396Y-47407569D01*
X56878491Y-47369473D01*
X53794205Y-39626140D02*
X53832300Y-39511854D01*
X53832300Y-39321378D01*
X53794205Y-39245188D01*
X53756110Y-39207092D01*
X53679919Y-39168997D01*
X53603729Y-39168997D01*
X53527538Y-39207092D01*
X53489443Y-39245188D01*
X53451348Y-39321378D01*
X53413253Y-39473759D01*
X53375157Y-39549950D01*
X53337062Y-39588045D01*
X53260872Y-39626140D01*
X53184681Y-39626140D01*
X53108491Y-39588045D01*
X53070396Y-39549950D01*
X53032300Y-39473759D01*
X53032300Y-39283283D01*
X53070396Y-39168997D01*
X53832300Y-38826140D02*
X53032300Y-38826140D01*
X53032300Y-38521378D01*
X53070396Y-38445188D01*
X53108491Y-38407092D01*
X53184681Y-38368997D01*
X53298967Y-38368997D01*
X53375157Y-38407092D01*
X53413253Y-38445188D01*
X53451348Y-38521378D01*
X53451348Y-38826140D01*
X53832300Y-38026140D02*
X53032300Y-38026140D01*
X53794205Y-37073759D02*
X53832300Y-36959473D01*
X53832300Y-36768997D01*
X53794205Y-36692807D01*
X53756110Y-36654711D01*
X53679919Y-36616616D01*
X53603729Y-36616616D01*
X53527538Y-36654711D01*
X53489443Y-36692807D01*
X53451348Y-36768997D01*
X53413253Y-36921378D01*
X53375157Y-36997569D01*
X53337062Y-37035664D01*
X53260872Y-37073759D01*
X53184681Y-37073759D01*
X53108491Y-37035664D01*
X53070396Y-36997569D01*
X53032300Y-36921378D01*
X53032300Y-36730902D01*
X53070396Y-36616616D01*
X53794205Y-36311854D02*
X53832300Y-36197569D01*
X53832300Y-36007092D01*
X53794205Y-35930902D01*
X53756110Y-35892807D01*
X53679919Y-35854711D01*
X53603729Y-35854711D01*
X53527538Y-35892807D01*
X53489443Y-35930902D01*
X53451348Y-36007092D01*
X53413253Y-36159473D01*
X53375157Y-36235664D01*
X53337062Y-36273759D01*
X53260872Y-36311854D01*
X53184681Y-36311854D01*
X53108491Y-36273759D01*
X53070396Y-36235664D01*
X53032300Y-36159473D01*
X53032300Y-35968997D01*
X53070396Y-35854711D01*
X53832300Y-35511854D02*
X53032300Y-35511854D01*
D14*
G36*
X130246438Y-21514923D02*
G01*
X130320362Y-21544017D01*
X130387592Y-21588719D01*
X130421498Y-21620766D01*
X130463048Y-21670304D01*
X130490682Y-21717184D01*
X130506804Y-21767721D01*
X130513812Y-21828229D01*
X130514653Y-21865760D01*
X130513911Y-21914946D01*
X130510751Y-21950757D01*
X130503964Y-21980101D01*
X130492341Y-22009888D01*
X130487630Y-22020156D01*
X130445181Y-22088250D01*
X130387574Y-22147261D01*
X130319504Y-22192457D01*
X130314096Y-22195163D01*
X130254477Y-22216172D01*
X130186104Y-22227373D01*
X130117164Y-22228111D01*
X130055845Y-22217726D01*
X130051160Y-22216282D01*
X129977714Y-22182449D01*
X129911949Y-22132363D01*
X129857684Y-22069722D01*
X129818734Y-21998223D01*
X129814470Y-21987022D01*
X129801188Y-21927663D01*
X129798719Y-21864108D01*
X130047400Y-21864108D01*
X130050132Y-21900703D01*
X130060213Y-21926279D01*
X130072240Y-21941364D01*
X130109739Y-21968228D01*
X130153251Y-21979195D01*
X130197070Y-21973905D01*
X130235492Y-21951998D01*
X130235831Y-21951693D01*
X130261822Y-21916117D01*
X130272073Y-21874572D01*
X130267006Y-21832520D01*
X130247043Y-21795425D01*
X130222106Y-21773872D01*
X130175745Y-21755793D01*
X130130018Y-21757052D01*
X130088082Y-21777431D01*
X130080580Y-21783646D01*
X130060035Y-21804795D01*
X130050260Y-21825783D01*
X130047457Y-21855817D01*
X130047400Y-21864108D01*
X129798719Y-21864108D01*
X129798530Y-21859264D01*
X129805973Y-21789777D01*
X129822998Y-21727152D01*
X129832955Y-21704665D01*
X129880513Y-21633516D01*
X129942451Y-21576017D01*
X130016986Y-21533504D01*
X130094304Y-21508956D01*
X130169770Y-21502786D01*
X130246438Y-21514923D01*
G37*
X130246438Y-21514923D02*
X130320362Y-21544017D01*
X130387592Y-21588719D01*
X130421498Y-21620766D01*
X130463048Y-21670304D01*
X130490682Y-21717184D01*
X130506804Y-21767721D01*
X130513812Y-21828229D01*
X130514653Y-21865760D01*
X130513911Y-21914946D01*
X130510751Y-21950757D01*
X130503964Y-21980101D01*
X130492341Y-22009888D01*
X130487630Y-22020156D01*
X130445181Y-22088250D01*
X130387574Y-22147261D01*
X130319504Y-22192457D01*
X130314096Y-22195163D01*
X130254477Y-22216172D01*
X130186104Y-22227373D01*
X130117164Y-22228111D01*
X130055845Y-22217726D01*
X130051160Y-22216282D01*
X129977714Y-22182449D01*
X129911949Y-22132363D01*
X129857684Y-22069722D01*
X129818734Y-21998223D01*
X129814470Y-21987022D01*
X129801188Y-21927663D01*
X129798719Y-21864108D01*
X130047400Y-21864108D01*
X130050132Y-21900703D01*
X130060213Y-21926279D01*
X130072240Y-21941364D01*
X130109739Y-21968228D01*
X130153251Y-21979195D01*
X130197070Y-21973905D01*
X130235492Y-21951998D01*
X130235831Y-21951693D01*
X130261822Y-21916117D01*
X130272073Y-21874572D01*
X130267006Y-21832520D01*
X130247043Y-21795425D01*
X130222106Y-21773872D01*
X130175745Y-21755793D01*
X130130018Y-21757052D01*
X130088082Y-21777431D01*
X130080580Y-21783646D01*
X130060035Y-21804795D01*
X130050260Y-21825783D01*
X130047457Y-21855817D01*
X130047400Y-21864108D01*
X129798719Y-21864108D01*
X129798530Y-21859264D01*
X129805973Y-21789777D01*
X129822998Y-21727152D01*
X129832955Y-21704665D01*
X129880513Y-21633516D01*
X129942451Y-21576017D01*
X130016986Y-21533504D01*
X130094304Y-21508956D01*
X130169770Y-21502786D01*
X130246438Y-21514923D01*
G36*
X128407036Y-21506741D02*
G01*
X128442275Y-21511646D01*
X128475837Y-21522321D01*
X128509696Y-21537274D01*
X128586241Y-21583754D01*
X128647873Y-21643990D01*
X128688153Y-21705393D01*
X128701103Y-21731799D01*
X128709380Y-21755572D01*
X128714010Y-21782534D01*
X128716020Y-21818509D01*
X128716440Y-21865760D01*
X128716080Y-21914476D01*
X128714181Y-21948904D01*
X128709514Y-21975073D01*
X128700851Y-21999011D01*
X128686962Y-22026749D01*
X128681592Y-22036712D01*
X128632167Y-22108228D01*
X128570652Y-22164085D01*
X128498711Y-22203224D01*
X128418002Y-22224585D01*
X128381715Y-22228009D01*
X128337023Y-22227777D01*
X128292740Y-22223815D01*
X128263098Y-22218102D01*
X128188127Y-22186700D01*
X128121534Y-22138469D01*
X128066235Y-22076147D01*
X128025139Y-22002475D01*
X128019854Y-21989229D01*
X128005079Y-21928174D01*
X128002471Y-21879922D01*
X128248225Y-21879922D01*
X128259539Y-21919396D01*
X128283656Y-21950614D01*
X128317024Y-21971496D01*
X128356095Y-21979966D01*
X128397319Y-21973947D01*
X128437145Y-21951360D01*
X128443591Y-21945657D01*
X128467673Y-21910916D01*
X128475525Y-21871330D01*
X128468950Y-21831419D01*
X128449752Y-21795701D01*
X128419735Y-21768694D01*
X128380702Y-21754916D01*
X128367089Y-21754037D01*
X128319617Y-21762888D01*
X128281435Y-21787515D01*
X128256412Y-21825192D01*
X128253262Y-21834267D01*
X128248225Y-21879922D01*
X128002471Y-21879922D01*
X128001314Y-21858539D01*
X128008296Y-21788652D01*
X128025764Y-21726841D01*
X128028279Y-21720972D01*
X128062246Y-21664248D01*
X128110320Y-21609757D01*
X128166614Y-21563333D01*
X128216340Y-21534658D01*
X128255504Y-21518692D01*
X128290915Y-21509806D01*
X128331925Y-21506124D01*
X128360840Y-21505634D01*
X128407036Y-21506741D01*
G37*
X128407036Y-21506741D02*
X128442275Y-21511646D01*
X128475837Y-21522321D01*
X128509696Y-21537274D01*
X128586241Y-21583754D01*
X128647873Y-21643990D01*
X128688153Y-21705393D01*
X128701103Y-21731799D01*
X128709380Y-21755572D01*
X128714010Y-21782534D01*
X128716020Y-21818509D01*
X128716440Y-21865760D01*
X128716080Y-21914476D01*
X128714181Y-21948904D01*
X128709514Y-21975073D01*
X128700851Y-21999011D01*
X128686962Y-22026749D01*
X128681592Y-22036712D01*
X128632167Y-22108228D01*
X128570652Y-22164085D01*
X128498711Y-22203224D01*
X128418002Y-22224585D01*
X128381715Y-22228009D01*
X128337023Y-22227777D01*
X128292740Y-22223815D01*
X128263098Y-22218102D01*
X128188127Y-22186700D01*
X128121534Y-22138469D01*
X128066235Y-22076147D01*
X128025139Y-22002475D01*
X128019854Y-21989229D01*
X128005079Y-21928174D01*
X128002471Y-21879922D01*
X128248225Y-21879922D01*
X128259539Y-21919396D01*
X128283656Y-21950614D01*
X128317024Y-21971496D01*
X128356095Y-21979966D01*
X128397319Y-21973947D01*
X128437145Y-21951360D01*
X128443591Y-21945657D01*
X128467673Y-21910916D01*
X128475525Y-21871330D01*
X128468950Y-21831419D01*
X128449752Y-21795701D01*
X128419735Y-21768694D01*
X128380702Y-21754916D01*
X128367089Y-21754037D01*
X128319617Y-21762888D01*
X128281435Y-21787515D01*
X128256412Y-21825192D01*
X128253262Y-21834267D01*
X128248225Y-21879922D01*
X128002471Y-21879922D01*
X128001314Y-21858539D01*
X128008296Y-21788652D01*
X128025764Y-21726841D01*
X128028279Y-21720972D01*
X128062246Y-21664248D01*
X128110320Y-21609757D01*
X128166614Y-21563333D01*
X128216340Y-21534658D01*
X128255504Y-21518692D01*
X128290915Y-21509806D01*
X128331925Y-21506124D01*
X128360840Y-21505634D01*
X128407036Y-21506741D01*
G36*
X129369648Y-22608074D02*
G01*
X129441977Y-22608995D01*
X129506828Y-22610394D01*
X129561111Y-22612273D01*
X129601740Y-22614630D01*
X129625625Y-22617466D01*
X129627646Y-22617953D01*
X129671414Y-22639753D01*
X129701917Y-22675255D01*
X129716393Y-22720837D01*
X129717200Y-22735368D01*
X129714299Y-22767576D01*
X129702839Y-22793313D01*
X129682430Y-22818409D01*
X129647660Y-22856360D01*
X129273490Y-22858862D01*
X129173891Y-22859423D01*
X129092589Y-22859599D01*
X129027562Y-22859326D01*
X128976788Y-22858540D01*
X128938247Y-22857174D01*
X128909917Y-22855164D01*
X128889776Y-22852446D01*
X128875805Y-22848955D01*
X128868318Y-22845870D01*
X128832744Y-22817810D01*
X128810436Y-22779059D01*
X128802542Y-22735050D01*
X128810214Y-22691222D01*
X128828853Y-22659316D01*
X128856369Y-22635638D01*
X128888900Y-22619007D01*
X128892353Y-22617953D01*
X128913340Y-22615042D01*
X128951553Y-22612610D01*
X129003904Y-22610656D01*
X129067306Y-22609182D01*
X129138669Y-22608186D01*
X129214906Y-22607670D01*
X129292928Y-22607633D01*
X129369648Y-22608074D01*
G37*
X129369648Y-22608074D02*
X129441977Y-22608995D01*
X129506828Y-22610394D01*
X129561111Y-22612273D01*
X129601740Y-22614630D01*
X129625625Y-22617466D01*
X129627646Y-22617953D01*
X129671414Y-22639753D01*
X129701917Y-22675255D01*
X129716393Y-22720837D01*
X129717200Y-22735368D01*
X129714299Y-22767576D01*
X129702839Y-22793313D01*
X129682430Y-22818409D01*
X129647660Y-22856360D01*
X129273490Y-22858862D01*
X129173891Y-22859423D01*
X129092589Y-22859599D01*
X129027562Y-22859326D01*
X128976788Y-22858540D01*
X128938247Y-22857174D01*
X128909917Y-22855164D01*
X128889776Y-22852446D01*
X128875805Y-22848955D01*
X128868318Y-22845870D01*
X128832744Y-22817810D01*
X128810436Y-22779059D01*
X128802542Y-22735050D01*
X128810214Y-22691222D01*
X128828853Y-22659316D01*
X128856369Y-22635638D01*
X128888900Y-22619007D01*
X128892353Y-22617953D01*
X128913340Y-22615042D01*
X128951553Y-22612610D01*
X129003904Y-22610656D01*
X129067306Y-22609182D01*
X129138669Y-22608186D01*
X129214906Y-22607670D01*
X129292928Y-22607633D01*
X129369648Y-22608074D01*
G36*
X129357813Y-19466727D02*
G01*
X129446492Y-19493754D01*
X129528214Y-19539470D01*
X129604220Y-19604424D01*
X129613277Y-19613813D01*
X129668120Y-19682035D01*
X129706130Y-19754369D01*
X129728500Y-19834251D01*
X129736428Y-19925117D01*
X129735802Y-19965832D01*
X129733144Y-20014676D01*
X129728585Y-20050803D01*
X129720295Y-20081815D01*
X129706443Y-20115313D01*
X129693155Y-20142900D01*
X129641950Y-20226937D01*
X129578455Y-20295385D01*
X129500771Y-20350118D01*
X129463514Y-20369440D01*
X129382471Y-20407800D01*
X129382195Y-20567820D01*
X129381920Y-20727840D01*
X129877220Y-20728016D01*
X129999095Y-20728140D01*
X130102638Y-20728523D01*
X130189835Y-20729319D01*
X130262672Y-20730683D01*
X130323137Y-20732769D01*
X130373215Y-20735733D01*
X130414894Y-20739728D01*
X130450160Y-20744911D01*
X130481001Y-20751434D01*
X130509402Y-20759454D01*
X130537351Y-20769124D01*
X130566834Y-20780601D01*
X130570281Y-20781990D01*
X130657129Y-20822841D01*
X130734410Y-20872609D01*
X130809244Y-20936025D01*
X130825153Y-20951360D01*
X130907560Y-21045663D01*
X130971593Y-21148636D01*
X131011969Y-21244145D01*
X131029983Y-21307449D01*
X131044764Y-21378991D01*
X131054734Y-21449740D01*
X131058320Y-21509764D01*
X131059879Y-21535382D01*
X131068524Y-21547841D01*
X131090203Y-21554270D01*
X131096420Y-21555422D01*
X131143138Y-21569054D01*
X131198766Y-21593237D01*
X131257289Y-21624730D01*
X131312698Y-21660289D01*
X131358981Y-21696672D01*
X131360044Y-21697632D01*
X131426196Y-21767786D01*
X131484251Y-21849103D01*
X131529513Y-21934610D01*
X131543777Y-21970650D01*
X131562854Y-22044344D01*
X131573502Y-22128670D01*
X131575313Y-22215594D01*
X131567882Y-22297078D01*
X131561839Y-22328040D01*
X131527383Y-22431737D01*
X131475380Y-22528275D01*
X131408023Y-22615306D01*
X131327506Y-22690481D01*
X131236023Y-22751453D01*
X131135768Y-22795873D01*
X131119849Y-22801043D01*
X131088188Y-22812774D01*
X131065002Y-22824939D01*
X131057128Y-22832267D01*
X131052292Y-22848767D01*
X131046004Y-22879060D01*
X131039571Y-22916808D01*
X131039154Y-22919531D01*
X131012587Y-23028373D01*
X130967662Y-23132248D01*
X130906122Y-23229159D01*
X130829712Y-23317109D01*
X130740174Y-23394100D01*
X130639254Y-23458136D01*
X130528694Y-23507217D01*
X130524920Y-23508553D01*
X130443640Y-23537080D01*
X129285400Y-23538938D01*
X129099705Y-23539194D01*
X128933306Y-23539328D01*
X128785178Y-23539330D01*
X128654296Y-23539191D01*
X128539636Y-23538900D01*
X128440173Y-23538449D01*
X128354883Y-23537826D01*
X128282741Y-23537023D01*
X128222724Y-23536031D01*
X128173806Y-23534838D01*
X128134963Y-23533435D01*
X128105170Y-23531814D01*
X128083404Y-23529963D01*
X128068639Y-23527873D01*
X128066200Y-23527374D01*
X127955514Y-23493291D01*
X127851482Y-23442326D01*
X127756082Y-23376537D01*
X127671295Y-23297979D01*
X127599101Y-23208708D01*
X127541479Y-23110779D01*
X127500410Y-23006250D01*
X127480845Y-22919531D01*
X127474450Y-22881502D01*
X127468110Y-22850490D01*
X127463131Y-22832833D01*
X127462871Y-22832267D01*
X127449988Y-22821823D01*
X127423901Y-22809459D01*
X127400150Y-22801043D01*
X127310958Y-22766080D01*
X127229795Y-22717852D01*
X127151815Y-22653335D01*
X127131254Y-22633310D01*
X127057903Y-22548655D01*
X127003590Y-22459996D01*
X126967442Y-22365054D01*
X126948585Y-22261550D01*
X126946263Y-22161106D01*
X127190299Y-22161106D01*
X127195007Y-22241119D01*
X127195197Y-22242151D01*
X127220697Y-22331107D01*
X127261541Y-22408416D01*
X127307971Y-22463925D01*
X127339798Y-22491581D01*
X127375950Y-22517948D01*
X127411177Y-22539695D01*
X127440229Y-22553490D01*
X127454060Y-22556631D01*
X127455785Y-22546846D01*
X127457374Y-22518977D01*
X127458781Y-22475261D01*
X127459960Y-22417932D01*
X127460866Y-22349229D01*
X127461454Y-22271386D01*
X127461679Y-22186640D01*
X127461680Y-22180720D01*
X127461538Y-22095587D01*
X127461137Y-22017207D01*
X127460507Y-21947814D01*
X127459680Y-21889645D01*
X127459662Y-21888824D01*
X127717260Y-21888824D01*
X127717471Y-22035018D01*
X127717896Y-22166108D01*
X127720760Y-22897000D01*
X127744692Y-22956336D01*
X127792893Y-23050437D01*
X127855619Y-23131517D01*
X127931243Y-23198202D01*
X128018139Y-23249117D01*
X128114680Y-23282889D01*
X128137320Y-23287936D01*
X128154270Y-23289301D01*
X128189894Y-23290558D01*
X128242544Y-23291708D01*
X128310573Y-23292749D01*
X128392335Y-23293681D01*
X128486182Y-23294502D01*
X128590469Y-23295214D01*
X128703547Y-23295814D01*
X128823772Y-23296302D01*
X128949495Y-23296677D01*
X129079069Y-23296940D01*
X129210849Y-23297088D01*
X129343187Y-23297122D01*
X129474437Y-23297041D01*
X129602951Y-23296844D01*
X129727084Y-23296530D01*
X129845187Y-23296099D01*
X129955615Y-23295550D01*
X130056721Y-23294883D01*
X130146857Y-23294096D01*
X130224377Y-23293189D01*
X130287635Y-23292162D01*
X130334983Y-23291014D01*
X130364775Y-23289744D01*
X130374014Y-23288839D01*
X130474770Y-23259864D01*
X130565507Y-23213636D01*
X130644854Y-23151291D01*
X130711441Y-23073965D01*
X130763899Y-22982793D01*
X130775307Y-22956336D01*
X130799240Y-22897000D01*
X130802068Y-22174918D01*
X131058320Y-22174918D01*
X131058320Y-22558009D01*
X131081180Y-22551365D01*
X131101503Y-22542282D01*
X131131333Y-22525356D01*
X131158977Y-22507702D01*
X131224323Y-22452274D01*
X131274104Y-22386280D01*
X131308092Y-22312482D01*
X131326060Y-22233646D01*
X131327780Y-22152533D01*
X131313025Y-22071909D01*
X131281565Y-21994536D01*
X131233174Y-21923177D01*
X131209301Y-21897211D01*
X131183071Y-21874374D01*
X131150114Y-21850270D01*
X131115868Y-21828353D01*
X131085770Y-21812075D01*
X131065260Y-21804887D01*
X131063737Y-21804800D01*
X131062511Y-21814587D01*
X131061383Y-21842460D01*
X131060383Y-21886185D01*
X131059545Y-21943528D01*
X131058900Y-22012253D01*
X131058481Y-22090128D01*
X131058320Y-22174918D01*
X130802068Y-22174918D01*
X130802103Y-22166108D01*
X130802599Y-21997897D01*
X130802690Y-21849966D01*
X130802376Y-21722280D01*
X130801655Y-21614804D01*
X130800528Y-21527501D01*
X130798994Y-21460338D01*
X130797053Y-21413277D01*
X130794705Y-21386284D01*
X130794153Y-21383128D01*
X130765381Y-21293147D01*
X130718852Y-21209381D01*
X130656771Y-21134269D01*
X130581347Y-21070251D01*
X130494787Y-21019765D01*
X130447567Y-21000195D01*
X130382680Y-20976760D01*
X129320960Y-20973810D01*
X129138065Y-20973406D01*
X128968705Y-20973243D01*
X128813591Y-20973317D01*
X128673436Y-20973623D01*
X128548950Y-20974158D01*
X128440845Y-20974916D01*
X128349834Y-20975892D01*
X128276628Y-20977083D01*
X128221939Y-20978484D01*
X128186479Y-20980091D01*
X128175699Y-20981027D01*
X128080158Y-21000103D01*
X127995591Y-21033754D01*
X127917942Y-21084001D01*
X127854906Y-21140702D01*
X127811044Y-21194665D01*
X127771586Y-21260577D01*
X127741011Y-21330069D01*
X127726263Y-21381120D01*
X127723817Y-21401902D01*
X127721767Y-21439099D01*
X127720107Y-21493212D01*
X127718832Y-21564740D01*
X127717936Y-21654185D01*
X127717414Y-21762046D01*
X127717260Y-21888824D01*
X127459662Y-21888824D01*
X127458690Y-21844937D01*
X127457568Y-21815925D01*
X127456347Y-21804846D01*
X127456262Y-21804800D01*
X127444903Y-21809030D01*
X127421467Y-21819909D01*
X127401661Y-21829722D01*
X127334136Y-21874720D01*
X127277417Y-21933994D01*
X127233325Y-22003907D01*
X127203678Y-22080823D01*
X127190299Y-22161106D01*
X126946263Y-22161106D01*
X126946011Y-22150240D01*
X126959675Y-22036454D01*
X126990953Y-21932407D01*
X127040374Y-21836961D01*
X127108471Y-21748981D01*
X127155749Y-21701827D01*
X127204241Y-21662847D01*
X127261319Y-21625465D01*
X127321106Y-21592906D01*
X127377722Y-21568396D01*
X127422147Y-21555691D01*
X127458814Y-21549076D01*
X127465526Y-21461764D01*
X127478584Y-21355277D01*
X127501005Y-21261731D01*
X127532413Y-21179184D01*
X127591669Y-21072678D01*
X127667208Y-20976976D01*
X127757058Y-20893954D01*
X127859247Y-20825489D01*
X127949718Y-20781990D01*
X127979494Y-20770304D01*
X128007515Y-20760441D01*
X128035768Y-20752246D01*
X128066240Y-20745564D01*
X128100918Y-20740241D01*
X128141789Y-20736122D01*
X128190839Y-20733052D01*
X128250055Y-20730876D01*
X128321424Y-20729440D01*
X128406932Y-20728588D01*
X128508566Y-20728167D01*
X128628313Y-20728022D01*
X128642780Y-20728016D01*
X129138080Y-20727840D01*
X129137528Y-20407800D01*
X129056485Y-20369440D01*
X128972285Y-20319900D01*
X128903071Y-20257431D01*
X128846943Y-20180160D01*
X128826844Y-20142900D01*
X128808246Y-20103490D01*
X128796437Y-20071656D01*
X128789583Y-20039793D01*
X128785856Y-20000302D01*
X128784197Y-19965832D01*
X128784530Y-19956150D01*
X129027793Y-19956150D01*
X129033296Y-19988799D01*
X129047985Y-20026563D01*
X129049225Y-20029284D01*
X129086373Y-20088143D01*
X129135500Y-20131746D01*
X129193880Y-20158863D01*
X129258786Y-20168263D01*
X129327493Y-20158713D01*
X129332558Y-20157248D01*
X129384102Y-20132151D01*
X129430263Y-20091541D01*
X129465930Y-20040223D01*
X129473119Y-20025106D01*
X129490063Y-19961666D01*
X129488163Y-19897976D01*
X129468560Y-19837463D01*
X129432395Y-19783553D01*
X129380809Y-19739673D01*
X129377368Y-19737508D01*
X129345246Y-19719783D01*
X129316158Y-19710451D01*
X129280627Y-19707031D01*
X129260000Y-19706760D01*
X129218473Y-19708329D01*
X129187657Y-19714691D01*
X129158074Y-19728330D01*
X129142631Y-19737508D01*
X129089545Y-19781749D01*
X129051817Y-19838085D01*
X129031376Y-19903444D01*
X129029514Y-19917500D01*
X129027793Y-19956150D01*
X128784530Y-19956150D01*
X128787664Y-19865192D01*
X128807175Y-19775952D01*
X128843495Y-19696115D01*
X128897391Y-19623681D01*
X128927047Y-19593474D01*
X129002351Y-19532479D01*
X129080339Y-19490443D01*
X129164337Y-19466017D01*
X129257668Y-19457848D01*
X129260938Y-19457839D01*
X129357813Y-19466727D01*
G37*
X129357813Y-19466727D02*
X129446492Y-19493754D01*
X129528214Y-19539470D01*
X129604220Y-19604424D01*
X129613277Y-19613813D01*
X129668120Y-19682035D01*
X129706130Y-19754369D01*
X129728500Y-19834251D01*
X129736428Y-19925117D01*
X129735802Y-19965832D01*
X129733144Y-20014676D01*
X129728585Y-20050803D01*
X129720295Y-20081815D01*
X129706443Y-20115313D01*
X129693155Y-20142900D01*
X129641950Y-20226937D01*
X129578455Y-20295385D01*
X129500771Y-20350118D01*
X129463514Y-20369440D01*
X129382471Y-20407800D01*
X129382195Y-20567820D01*
X129381920Y-20727840D01*
X129877220Y-20728016D01*
X129999095Y-20728140D01*
X130102638Y-20728523D01*
X130189835Y-20729319D01*
X130262672Y-20730683D01*
X130323137Y-20732769D01*
X130373215Y-20735733D01*
X130414894Y-20739728D01*
X130450160Y-20744911D01*
X130481001Y-20751434D01*
X130509402Y-20759454D01*
X130537351Y-20769124D01*
X130566834Y-20780601D01*
X130570281Y-20781990D01*
X130657129Y-20822841D01*
X130734410Y-20872609D01*
X130809244Y-20936025D01*
X130825153Y-20951360D01*
X130907560Y-21045663D01*
X130971593Y-21148636D01*
X131011969Y-21244145D01*
X131029983Y-21307449D01*
X131044764Y-21378991D01*
X131054734Y-21449740D01*
X131058320Y-21509764D01*
X131059879Y-21535382D01*
X131068524Y-21547841D01*
X131090203Y-21554270D01*
X131096420Y-21555422D01*
X131143138Y-21569054D01*
X131198766Y-21593237D01*
X131257289Y-21624730D01*
X131312698Y-21660289D01*
X131358981Y-21696672D01*
X131360044Y-21697632D01*
X131426196Y-21767786D01*
X131484251Y-21849103D01*
X131529513Y-21934610D01*
X131543777Y-21970650D01*
X131562854Y-22044344D01*
X131573502Y-22128670D01*
X131575313Y-22215594D01*
X131567882Y-22297078D01*
X131561839Y-22328040D01*
X131527383Y-22431737D01*
X131475380Y-22528275D01*
X131408023Y-22615306D01*
X131327506Y-22690481D01*
X131236023Y-22751453D01*
X131135768Y-22795873D01*
X131119849Y-22801043D01*
X131088188Y-22812774D01*
X131065002Y-22824939D01*
X131057128Y-22832267D01*
X131052292Y-22848767D01*
X131046004Y-22879060D01*
X131039571Y-22916808D01*
X131039154Y-22919531D01*
X131012587Y-23028373D01*
X130967662Y-23132248D01*
X130906122Y-23229159D01*
X130829712Y-23317109D01*
X130740174Y-23394100D01*
X130639254Y-23458136D01*
X130528694Y-23507217D01*
X130524920Y-23508553D01*
X130443640Y-23537080D01*
X129285400Y-23538938D01*
X129099705Y-23539194D01*
X128933306Y-23539328D01*
X128785178Y-23539330D01*
X128654296Y-23539191D01*
X128539636Y-23538900D01*
X128440173Y-23538449D01*
X128354883Y-23537826D01*
X128282741Y-23537023D01*
X128222724Y-23536031D01*
X128173806Y-23534838D01*
X128134963Y-23533435D01*
X128105170Y-23531814D01*
X128083404Y-23529963D01*
X128068639Y-23527873D01*
X128066200Y-23527374D01*
X127955514Y-23493291D01*
X127851482Y-23442326D01*
X127756082Y-23376537D01*
X127671295Y-23297979D01*
X127599101Y-23208708D01*
X127541479Y-23110779D01*
X127500410Y-23006250D01*
X127480845Y-22919531D01*
X127474450Y-22881502D01*
X127468110Y-22850490D01*
X127463131Y-22832833D01*
X127462871Y-22832267D01*
X127449988Y-22821823D01*
X127423901Y-22809459D01*
X127400150Y-22801043D01*
X127310958Y-22766080D01*
X127229795Y-22717852D01*
X127151815Y-22653335D01*
X127131254Y-22633310D01*
X127057903Y-22548655D01*
X127003590Y-22459996D01*
X126967442Y-22365054D01*
X126948585Y-22261550D01*
X126946263Y-22161106D01*
X127190299Y-22161106D01*
X127195007Y-22241119D01*
X127195197Y-22242151D01*
X127220697Y-22331107D01*
X127261541Y-22408416D01*
X127307971Y-22463925D01*
X127339798Y-22491581D01*
X127375950Y-22517948D01*
X127411177Y-22539695D01*
X127440229Y-22553490D01*
X127454060Y-22556631D01*
X127455785Y-22546846D01*
X127457374Y-22518977D01*
X127458781Y-22475261D01*
X127459960Y-22417932D01*
X127460866Y-22349229D01*
X127461454Y-22271386D01*
X127461679Y-22186640D01*
X127461680Y-22180720D01*
X127461538Y-22095587D01*
X127461137Y-22017207D01*
X127460507Y-21947814D01*
X127459680Y-21889645D01*
X127459662Y-21888824D01*
X127717260Y-21888824D01*
X127717471Y-22035018D01*
X127717896Y-22166108D01*
X127720760Y-22897000D01*
X127744692Y-22956336D01*
X127792893Y-23050437D01*
X127855619Y-23131517D01*
X127931243Y-23198202D01*
X128018139Y-23249117D01*
X128114680Y-23282889D01*
X128137320Y-23287936D01*
X128154270Y-23289301D01*
X128189894Y-23290558D01*
X128242544Y-23291708D01*
X128310573Y-23292749D01*
X128392335Y-23293681D01*
X128486182Y-23294502D01*
X128590469Y-23295214D01*
X128703547Y-23295814D01*
X128823772Y-23296302D01*
X128949495Y-23296677D01*
X129079069Y-23296940D01*
X129210849Y-23297088D01*
X129343187Y-23297122D01*
X129474437Y-23297041D01*
X129602951Y-23296844D01*
X129727084Y-23296530D01*
X129845187Y-23296099D01*
X129955615Y-23295550D01*
X130056721Y-23294883D01*
X130146857Y-23294096D01*
X130224377Y-23293189D01*
X130287635Y-23292162D01*
X130334983Y-23291014D01*
X130364775Y-23289744D01*
X130374014Y-23288839D01*
X130474770Y-23259864D01*
X130565507Y-23213636D01*
X130644854Y-23151291D01*
X130711441Y-23073965D01*
X130763899Y-22982793D01*
X130775307Y-22956336D01*
X130799240Y-22897000D01*
X130802068Y-22174918D01*
X131058320Y-22174918D01*
X131058320Y-22558009D01*
X131081180Y-22551365D01*
X131101503Y-22542282D01*
X131131333Y-22525356D01*
X131158977Y-22507702D01*
X131224323Y-22452274D01*
X131274104Y-22386280D01*
X131308092Y-22312482D01*
X131326060Y-22233646D01*
X131327780Y-22152533D01*
X131313025Y-22071909D01*
X131281565Y-21994536D01*
X131233174Y-21923177D01*
X131209301Y-21897211D01*
X131183071Y-21874374D01*
X131150114Y-21850270D01*
X131115868Y-21828353D01*
X131085770Y-21812075D01*
X131065260Y-21804887D01*
X131063737Y-21804800D01*
X131062511Y-21814587D01*
X131061383Y-21842460D01*
X131060383Y-21886185D01*
X131059545Y-21943528D01*
X131058900Y-22012253D01*
X131058481Y-22090128D01*
X131058320Y-22174918D01*
X130802068Y-22174918D01*
X130802103Y-22166108D01*
X130802599Y-21997897D01*
X130802690Y-21849966D01*
X130802376Y-21722280D01*
X130801655Y-21614804D01*
X130800528Y-21527501D01*
X130798994Y-21460338D01*
X130797053Y-21413277D01*
X130794705Y-21386284D01*
X130794153Y-21383128D01*
X130765381Y-21293147D01*
X130718852Y-21209381D01*
X130656771Y-21134269D01*
X130581347Y-21070251D01*
X130494787Y-21019765D01*
X130447567Y-21000195D01*
X130382680Y-20976760D01*
X129320960Y-20973810D01*
X129138065Y-20973406D01*
X128968705Y-20973243D01*
X128813591Y-20973317D01*
X128673436Y-20973623D01*
X128548950Y-20974158D01*
X128440845Y-20974916D01*
X128349834Y-20975892D01*
X128276628Y-20977083D01*
X128221939Y-20978484D01*
X128186479Y-20980091D01*
X128175699Y-20981027D01*
X128080158Y-21000103D01*
X127995591Y-21033754D01*
X127917942Y-21084001D01*
X127854906Y-21140702D01*
X127811044Y-21194665D01*
X127771586Y-21260577D01*
X127741011Y-21330069D01*
X127726263Y-21381120D01*
X127723817Y-21401902D01*
X127721767Y-21439099D01*
X127720107Y-21493212D01*
X127718832Y-21564740D01*
X127717936Y-21654185D01*
X127717414Y-21762046D01*
X127717260Y-21888824D01*
X127459662Y-21888824D01*
X127458690Y-21844937D01*
X127457568Y-21815925D01*
X127456347Y-21804846D01*
X127456262Y-21804800D01*
X127444903Y-21809030D01*
X127421467Y-21819909D01*
X127401661Y-21829722D01*
X127334136Y-21874720D01*
X127277417Y-21933994D01*
X127233325Y-22003907D01*
X127203678Y-22080823D01*
X127190299Y-22161106D01*
X126946263Y-22161106D01*
X126946011Y-22150240D01*
X126959675Y-22036454D01*
X126990953Y-21932407D01*
X127040374Y-21836961D01*
X127108471Y-21748981D01*
X127155749Y-21701827D01*
X127204241Y-21662847D01*
X127261319Y-21625465D01*
X127321106Y-21592906D01*
X127377722Y-21568396D01*
X127422147Y-21555691D01*
X127458814Y-21549076D01*
X127465526Y-21461764D01*
X127478584Y-21355277D01*
X127501005Y-21261731D01*
X127532413Y-21179184D01*
X127591669Y-21072678D01*
X127667208Y-20976976D01*
X127757058Y-20893954D01*
X127859247Y-20825489D01*
X127949718Y-20781990D01*
X127979494Y-20770304D01*
X128007515Y-20760441D01*
X128035768Y-20752246D01*
X128066240Y-20745564D01*
X128100918Y-20740241D01*
X128141789Y-20736122D01*
X128190839Y-20733052D01*
X128250055Y-20730876D01*
X128321424Y-20729440D01*
X128406932Y-20728588D01*
X128508566Y-20728167D01*
X128628313Y-20728022D01*
X128642780Y-20728016D01*
X129138080Y-20727840D01*
X129137528Y-20407800D01*
X129056485Y-20369440D01*
X128972285Y-20319900D01*
X128903071Y-20257431D01*
X128846943Y-20180160D01*
X128826844Y-20142900D01*
X128808246Y-20103490D01*
X128796437Y-20071656D01*
X128789583Y-20039793D01*
X128785856Y-20000302D01*
X128784197Y-19965832D01*
X128784530Y-19956150D01*
X129027793Y-19956150D01*
X129033296Y-19988799D01*
X129047985Y-20026563D01*
X129049225Y-20029284D01*
X129086373Y-20088143D01*
X129135500Y-20131746D01*
X129193880Y-20158863D01*
X129258786Y-20168263D01*
X129327493Y-20158713D01*
X129332558Y-20157248D01*
X129384102Y-20132151D01*
X129430263Y-20091541D01*
X129465930Y-20040223D01*
X129473119Y-20025106D01*
X129490063Y-19961666D01*
X129488163Y-19897976D01*
X129468560Y-19837463D01*
X129432395Y-19783553D01*
X129380809Y-19739673D01*
X129377368Y-19737508D01*
X129345246Y-19719783D01*
X129316158Y-19710451D01*
X129280627Y-19707031D01*
X129260000Y-19706760D01*
X129218473Y-19708329D01*
X129187657Y-19714691D01*
X129158074Y-19728330D01*
X129142631Y-19737508D01*
X129089545Y-19781749D01*
X129051817Y-19838085D01*
X129031376Y-19903444D01*
X129029514Y-19917500D01*
X129027793Y-19956150D01*
X128784530Y-19956150D01*
X128787664Y-19865192D01*
X128807175Y-19775952D01*
X128843495Y-19696115D01*
X128897391Y-19623681D01*
X128927047Y-19593474D01*
X129002351Y-19532479D01*
X129080339Y-19490443D01*
X129164337Y-19466017D01*
X129257668Y-19457848D01*
X129260938Y-19457839D01*
X129357813Y-19466727D01*
D13*
X136124133Y-44374999D02*
G75*
G03*
X136124133Y-44374999I-50000J0D01*
G01*
D14*
G36*
X133275860Y-39502186D02*
G01*
X133302887Y-39413507D01*
X133348603Y-39331785D01*
X133413557Y-39255779D01*
X133422946Y-39246722D01*
X133491168Y-39191879D01*
X133563502Y-39153869D01*
X133643384Y-39131499D01*
X133734250Y-39123571D01*
X133774965Y-39124197D01*
X133823809Y-39126855D01*
X133859936Y-39131414D01*
X133890948Y-39139704D01*
X133924446Y-39153556D01*
X133952033Y-39166844D01*
X134036070Y-39218049D01*
X134104518Y-39281544D01*
X134159251Y-39359228D01*
X134178573Y-39396485D01*
X134216933Y-39477528D01*
X134376953Y-39477804D01*
X134536973Y-39478079D01*
X134537149Y-38982779D01*
X134537273Y-38860904D01*
X134537656Y-38757361D01*
X134538452Y-38670164D01*
X134539816Y-38597327D01*
X134541902Y-38536862D01*
X134544866Y-38486784D01*
X134548861Y-38445105D01*
X134554044Y-38409839D01*
X134560567Y-38378998D01*
X134568587Y-38350597D01*
X134578257Y-38322648D01*
X134589734Y-38293165D01*
X134591123Y-38289718D01*
X134631974Y-38202870D01*
X134681742Y-38125589D01*
X134745158Y-38050755D01*
X134760493Y-38034846D01*
X134854796Y-37952439D01*
X134957769Y-37888406D01*
X135053278Y-37848030D01*
X135116582Y-37830016D01*
X135188124Y-37815235D01*
X135258873Y-37805265D01*
X135318897Y-37801679D01*
X135344515Y-37800120D01*
X135356974Y-37791475D01*
X135363403Y-37769796D01*
X135364555Y-37763579D01*
X135378187Y-37716861D01*
X135402370Y-37661233D01*
X135433863Y-37602710D01*
X135469422Y-37547301D01*
X135505805Y-37501018D01*
X135506765Y-37499955D01*
X135576919Y-37433803D01*
X135658236Y-37375748D01*
X135743743Y-37330486D01*
X135779783Y-37316222D01*
X135853477Y-37297145D01*
X135937803Y-37286497D01*
X136024727Y-37284686D01*
X136106211Y-37292117D01*
X136137173Y-37298160D01*
X136240870Y-37332616D01*
X136337408Y-37384619D01*
X136424439Y-37451976D01*
X136499614Y-37532493D01*
X136560586Y-37623976D01*
X136605006Y-37724231D01*
X136610176Y-37740150D01*
X136621907Y-37771811D01*
X136634072Y-37794997D01*
X136641400Y-37802871D01*
X136657900Y-37807707D01*
X136688193Y-37813995D01*
X136725941Y-37820428D01*
X136728664Y-37820845D01*
X136837506Y-37847412D01*
X136941381Y-37892337D01*
X137038292Y-37953877D01*
X137126242Y-38030287D01*
X137203233Y-38119825D01*
X137267269Y-38220745D01*
X137316350Y-38331305D01*
X137317686Y-38335079D01*
X137346213Y-38416359D01*
X137348071Y-39574599D01*
X137348327Y-39760294D01*
X137348461Y-39926693D01*
X137348463Y-40074821D01*
X137348324Y-40205703D01*
X137348033Y-40320363D01*
X137347582Y-40419826D01*
X137346959Y-40505116D01*
X137346156Y-40577258D01*
X137345164Y-40637275D01*
X137343971Y-40686193D01*
X137342568Y-40725036D01*
X137340947Y-40754829D01*
X137339096Y-40776595D01*
X137337006Y-40791360D01*
X137336507Y-40793799D01*
X137302424Y-40904485D01*
X137251459Y-41008517D01*
X137185670Y-41103917D01*
X137107112Y-41188704D01*
X137017841Y-41260898D01*
X136919912Y-41318520D01*
X136815383Y-41359589D01*
X136728664Y-41379154D01*
X136690635Y-41385549D01*
X136659623Y-41391889D01*
X136641966Y-41396868D01*
X136641400Y-41397128D01*
X136630956Y-41410011D01*
X136618592Y-41436098D01*
X136610176Y-41459849D01*
X136575213Y-41549041D01*
X136526985Y-41630204D01*
X136462468Y-41708184D01*
X136442443Y-41728745D01*
X136357788Y-41802096D01*
X136269129Y-41856409D01*
X136174187Y-41892557D01*
X136070683Y-41911414D01*
X135970239Y-41913736D01*
X135970239Y-41669700D01*
X136050252Y-41664992D01*
X136051284Y-41664802D01*
X136140240Y-41639302D01*
X136217549Y-41598458D01*
X136273058Y-41552028D01*
X136300714Y-41520201D01*
X136327081Y-41484049D01*
X136348828Y-41448822D01*
X136362623Y-41419770D01*
X136365764Y-41405939D01*
X136355979Y-41404214D01*
X136328110Y-41402625D01*
X136284394Y-41401218D01*
X136227065Y-41400039D01*
X136158362Y-41399133D01*
X136080519Y-41398545D01*
X135995773Y-41398320D01*
X135989853Y-41398319D01*
X135904720Y-41398461D01*
X135826340Y-41398862D01*
X135756947Y-41399492D01*
X135698778Y-41400319D01*
X135697957Y-41400337D01*
X135697957Y-41142739D01*
X135844151Y-41142528D01*
X135975241Y-41142103D01*
X136706133Y-41139239D01*
X136765469Y-41115307D01*
X136859570Y-41067106D01*
X136940650Y-41004380D01*
X137007335Y-40928756D01*
X137058250Y-40841860D01*
X137092022Y-40745319D01*
X137097069Y-40722679D01*
X137098434Y-40705729D01*
X137099691Y-40670105D01*
X137100841Y-40617455D01*
X137101882Y-40549426D01*
X137102814Y-40467664D01*
X137103635Y-40373817D01*
X137104347Y-40269530D01*
X137104947Y-40156452D01*
X137105435Y-40036227D01*
X137105810Y-39910504D01*
X137106073Y-39780930D01*
X137106221Y-39649150D01*
X137106255Y-39516812D01*
X137106174Y-39385562D01*
X137105977Y-39257048D01*
X137105663Y-39132915D01*
X137105232Y-39014812D01*
X137104683Y-38904384D01*
X137104016Y-38803278D01*
X137103229Y-38713142D01*
X137102322Y-38635622D01*
X137101295Y-38572364D01*
X137100147Y-38525016D01*
X137098877Y-38495224D01*
X137097972Y-38485985D01*
X137068997Y-38385229D01*
X137022769Y-38294492D01*
X136960424Y-38215145D01*
X136883098Y-38148558D01*
X136791926Y-38096100D01*
X136765469Y-38084692D01*
X136706133Y-38060759D01*
X135984051Y-38057931D01*
X135984051Y-37801679D01*
X136367142Y-37801679D01*
X136360498Y-37778819D01*
X136351415Y-37758496D01*
X136334489Y-37728666D01*
X136316835Y-37701022D01*
X136261407Y-37635676D01*
X136195413Y-37585895D01*
X136121615Y-37551907D01*
X136042779Y-37533939D01*
X135961666Y-37532219D01*
X135881042Y-37546974D01*
X135803669Y-37578434D01*
X135732310Y-37626825D01*
X135706344Y-37650698D01*
X135683507Y-37676928D01*
X135659403Y-37709885D01*
X135637486Y-37744131D01*
X135621208Y-37774229D01*
X135614020Y-37794739D01*
X135613933Y-37796262D01*
X135623720Y-37797488D01*
X135651593Y-37798616D01*
X135695318Y-37799616D01*
X135752661Y-37800454D01*
X135821386Y-37801099D01*
X135899261Y-37801518D01*
X135984051Y-37801679D01*
X135984051Y-38057931D01*
X135975241Y-38057896D01*
X135807030Y-38057400D01*
X135659099Y-38057309D01*
X135531413Y-38057623D01*
X135423937Y-38058344D01*
X135336634Y-38059471D01*
X135269471Y-38061005D01*
X135222410Y-38062946D01*
X135195417Y-38065294D01*
X135192261Y-38065846D01*
X135102280Y-38094618D01*
X135018514Y-38141147D01*
X134943402Y-38203228D01*
X134879384Y-38278652D01*
X134828898Y-38365212D01*
X134809328Y-38412432D01*
X134785893Y-38477319D01*
X134782943Y-39539039D01*
X134782539Y-39721934D01*
X134782376Y-39891294D01*
X134782450Y-40046408D01*
X134782756Y-40186563D01*
X134783291Y-40311049D01*
X134784049Y-40419154D01*
X134785025Y-40510165D01*
X134786216Y-40583371D01*
X134787617Y-40638060D01*
X134789224Y-40673520D01*
X134790160Y-40684300D01*
X134809236Y-40779841D01*
X134842887Y-40864408D01*
X134893134Y-40942057D01*
X134949835Y-41005093D01*
X135003798Y-41048955D01*
X135069710Y-41088413D01*
X135139202Y-41118988D01*
X135190253Y-41133736D01*
X135211035Y-41136182D01*
X135248232Y-41138232D01*
X135302345Y-41139892D01*
X135373873Y-41141167D01*
X135463318Y-41142063D01*
X135571179Y-41142585D01*
X135697957Y-41142739D01*
X135697957Y-41400337D01*
X135654070Y-41401309D01*
X135625058Y-41402431D01*
X135613979Y-41403652D01*
X135613933Y-41403737D01*
X135618163Y-41415096D01*
X135629042Y-41438532D01*
X135638855Y-41458338D01*
X135683853Y-41525863D01*
X135743127Y-41582582D01*
X135813040Y-41626674D01*
X135889956Y-41656321D01*
X135970239Y-41669700D01*
X135970239Y-41913736D01*
X135959373Y-41913988D01*
X135845587Y-41900324D01*
X135741540Y-41869046D01*
X135646094Y-41819625D01*
X135558114Y-41751528D01*
X135510960Y-41704250D01*
X135471980Y-41655758D01*
X135434598Y-41598680D01*
X135402039Y-41538893D01*
X135377529Y-41482277D01*
X135364824Y-41437852D01*
X135358209Y-41401185D01*
X135270897Y-41394473D01*
X135164410Y-41381415D01*
X135070864Y-41358994D01*
X134988317Y-41327586D01*
X134881811Y-41268330D01*
X134786109Y-41192791D01*
X134703087Y-41102941D01*
X134634622Y-41000752D01*
X134591123Y-40910281D01*
X134579437Y-40880505D01*
X134569574Y-40852484D01*
X134561379Y-40824231D01*
X134554697Y-40793759D01*
X134549374Y-40759081D01*
X134545255Y-40718210D01*
X134542185Y-40669160D01*
X134540009Y-40609944D01*
X134538573Y-40538575D01*
X134537721Y-40453067D01*
X134537300Y-40351433D01*
X134537155Y-40231686D01*
X134537149Y-40217219D01*
X134536973Y-39721919D01*
X134216933Y-39722471D01*
X134178573Y-39803514D01*
X134129033Y-39887714D01*
X134066564Y-39956928D01*
X133989293Y-40013056D01*
X133952033Y-40033155D01*
X133912623Y-40051753D01*
X133880789Y-40063562D01*
X133848926Y-40070416D01*
X133809435Y-40074143D01*
X133774965Y-40075802D01*
X133765283Y-40075469D01*
X133765283Y-39832206D01*
X133797932Y-39826703D01*
X133835696Y-39812014D01*
X133838417Y-39810774D01*
X133897276Y-39773626D01*
X133940879Y-39724499D01*
X133967996Y-39666119D01*
X133977396Y-39601213D01*
X133967846Y-39532506D01*
X133966381Y-39527441D01*
X133941284Y-39475897D01*
X133900674Y-39429736D01*
X133849356Y-39394069D01*
X133834239Y-39386880D01*
X133770799Y-39369936D01*
X133707109Y-39371836D01*
X133646596Y-39391439D01*
X133592686Y-39427604D01*
X133548806Y-39479190D01*
X133546641Y-39482631D01*
X133528916Y-39514753D01*
X133519584Y-39543841D01*
X133516164Y-39579372D01*
X133515893Y-39599999D01*
X133517462Y-39641526D01*
X133523824Y-39672342D01*
X133537463Y-39701925D01*
X133546641Y-39717368D01*
X133590882Y-39770454D01*
X133647218Y-39808182D01*
X133712577Y-39828623D01*
X133726633Y-39830485D01*
X133765283Y-39832206D01*
X133765283Y-40075469D01*
X133674325Y-40072335D01*
X133585085Y-40052824D01*
X133505248Y-40016504D01*
X133432814Y-39962608D01*
X133402607Y-39932952D01*
X133341612Y-39857648D01*
X133299576Y-39779660D01*
X133275150Y-39695662D01*
X133266981Y-39602331D01*
X133266972Y-39599061D01*
X133275860Y-39502186D01*
G37*
X133275860Y-39502186D02*
X133302887Y-39413507D01*
X133348603Y-39331785D01*
X133413557Y-39255779D01*
X133422946Y-39246722D01*
X133491168Y-39191879D01*
X133563502Y-39153869D01*
X133643384Y-39131499D01*
X133734250Y-39123571D01*
X133774965Y-39124197D01*
X133823809Y-39126855D01*
X133859936Y-39131414D01*
X133890948Y-39139704D01*
X133924446Y-39153556D01*
X133952033Y-39166844D01*
X134036070Y-39218049D01*
X134104518Y-39281544D01*
X134159251Y-39359228D01*
X134178573Y-39396485D01*
X134216933Y-39477528D01*
X134376953Y-39477804D01*
X134536973Y-39478079D01*
X134537149Y-38982779D01*
X134537273Y-38860904D01*
X134537656Y-38757361D01*
X134538452Y-38670164D01*
X134539816Y-38597327D01*
X134541902Y-38536862D01*
X134544866Y-38486784D01*
X134548861Y-38445105D01*
X134554044Y-38409839D01*
X134560567Y-38378998D01*
X134568587Y-38350597D01*
X134578257Y-38322648D01*
X134589734Y-38293165D01*
X134591123Y-38289718D01*
X134631974Y-38202870D01*
X134681742Y-38125589D01*
X134745158Y-38050755D01*
X134760493Y-38034846D01*
X134854796Y-37952439D01*
X134957769Y-37888406D01*
X135053278Y-37848030D01*
X135116582Y-37830016D01*
X135188124Y-37815235D01*
X135258873Y-37805265D01*
X135318897Y-37801679D01*
X135344515Y-37800120D01*
X135356974Y-37791475D01*
X135363403Y-37769796D01*
X135364555Y-37763579D01*
X135378187Y-37716861D01*
X135402370Y-37661233D01*
X135433863Y-37602710D01*
X135469422Y-37547301D01*
X135505805Y-37501018D01*
X135506765Y-37499955D01*
X135576919Y-37433803D01*
X135658236Y-37375748D01*
X135743743Y-37330486D01*
X135779783Y-37316222D01*
X135853477Y-37297145D01*
X135937803Y-37286497D01*
X136024727Y-37284686D01*
X136106211Y-37292117D01*
X136137173Y-37298160D01*
X136240870Y-37332616D01*
X136337408Y-37384619D01*
X136424439Y-37451976D01*
X136499614Y-37532493D01*
X136560586Y-37623976D01*
X136605006Y-37724231D01*
X136610176Y-37740150D01*
X136621907Y-37771811D01*
X136634072Y-37794997D01*
X136641400Y-37802871D01*
X136657900Y-37807707D01*
X136688193Y-37813995D01*
X136725941Y-37820428D01*
X136728664Y-37820845D01*
X136837506Y-37847412D01*
X136941381Y-37892337D01*
X137038292Y-37953877D01*
X137126242Y-38030287D01*
X137203233Y-38119825D01*
X137267269Y-38220745D01*
X137316350Y-38331305D01*
X137317686Y-38335079D01*
X137346213Y-38416359D01*
X137348071Y-39574599D01*
X137348327Y-39760294D01*
X137348461Y-39926693D01*
X137348463Y-40074821D01*
X137348324Y-40205703D01*
X137348033Y-40320363D01*
X137347582Y-40419826D01*
X137346959Y-40505116D01*
X137346156Y-40577258D01*
X137345164Y-40637275D01*
X137343971Y-40686193D01*
X137342568Y-40725036D01*
X137340947Y-40754829D01*
X137339096Y-40776595D01*
X137337006Y-40791360D01*
X137336507Y-40793799D01*
X137302424Y-40904485D01*
X137251459Y-41008517D01*
X137185670Y-41103917D01*
X137107112Y-41188704D01*
X137017841Y-41260898D01*
X136919912Y-41318520D01*
X136815383Y-41359589D01*
X136728664Y-41379154D01*
X136690635Y-41385549D01*
X136659623Y-41391889D01*
X136641966Y-41396868D01*
X136641400Y-41397128D01*
X136630956Y-41410011D01*
X136618592Y-41436098D01*
X136610176Y-41459849D01*
X136575213Y-41549041D01*
X136526985Y-41630204D01*
X136462468Y-41708184D01*
X136442443Y-41728745D01*
X136357788Y-41802096D01*
X136269129Y-41856409D01*
X136174187Y-41892557D01*
X136070683Y-41911414D01*
X135970239Y-41913736D01*
X135970239Y-41669700D01*
X136050252Y-41664992D01*
X136051284Y-41664802D01*
X136140240Y-41639302D01*
X136217549Y-41598458D01*
X136273058Y-41552028D01*
X136300714Y-41520201D01*
X136327081Y-41484049D01*
X136348828Y-41448822D01*
X136362623Y-41419770D01*
X136365764Y-41405939D01*
X136355979Y-41404214D01*
X136328110Y-41402625D01*
X136284394Y-41401218D01*
X136227065Y-41400039D01*
X136158362Y-41399133D01*
X136080519Y-41398545D01*
X135995773Y-41398320D01*
X135989853Y-41398319D01*
X135904720Y-41398461D01*
X135826340Y-41398862D01*
X135756947Y-41399492D01*
X135698778Y-41400319D01*
X135697957Y-41400337D01*
X135697957Y-41142739D01*
X135844151Y-41142528D01*
X135975241Y-41142103D01*
X136706133Y-41139239D01*
X136765469Y-41115307D01*
X136859570Y-41067106D01*
X136940650Y-41004380D01*
X137007335Y-40928756D01*
X137058250Y-40841860D01*
X137092022Y-40745319D01*
X137097069Y-40722679D01*
X137098434Y-40705729D01*
X137099691Y-40670105D01*
X137100841Y-40617455D01*
X137101882Y-40549426D01*
X137102814Y-40467664D01*
X137103635Y-40373817D01*
X137104347Y-40269530D01*
X137104947Y-40156452D01*
X137105435Y-40036227D01*
X137105810Y-39910504D01*
X137106073Y-39780930D01*
X137106221Y-39649150D01*
X137106255Y-39516812D01*
X137106174Y-39385562D01*
X137105977Y-39257048D01*
X137105663Y-39132915D01*
X137105232Y-39014812D01*
X137104683Y-38904384D01*
X137104016Y-38803278D01*
X137103229Y-38713142D01*
X137102322Y-38635622D01*
X137101295Y-38572364D01*
X137100147Y-38525016D01*
X137098877Y-38495224D01*
X137097972Y-38485985D01*
X137068997Y-38385229D01*
X137022769Y-38294492D01*
X136960424Y-38215145D01*
X136883098Y-38148558D01*
X136791926Y-38096100D01*
X136765469Y-38084692D01*
X136706133Y-38060759D01*
X135984051Y-38057931D01*
X135984051Y-37801679D01*
X136367142Y-37801679D01*
X136360498Y-37778819D01*
X136351415Y-37758496D01*
X136334489Y-37728666D01*
X136316835Y-37701022D01*
X136261407Y-37635676D01*
X136195413Y-37585895D01*
X136121615Y-37551907D01*
X136042779Y-37533939D01*
X135961666Y-37532219D01*
X135881042Y-37546974D01*
X135803669Y-37578434D01*
X135732310Y-37626825D01*
X135706344Y-37650698D01*
X135683507Y-37676928D01*
X135659403Y-37709885D01*
X135637486Y-37744131D01*
X135621208Y-37774229D01*
X135614020Y-37794739D01*
X135613933Y-37796262D01*
X135623720Y-37797488D01*
X135651593Y-37798616D01*
X135695318Y-37799616D01*
X135752661Y-37800454D01*
X135821386Y-37801099D01*
X135899261Y-37801518D01*
X135984051Y-37801679D01*
X135984051Y-38057931D01*
X135975241Y-38057896D01*
X135807030Y-38057400D01*
X135659099Y-38057309D01*
X135531413Y-38057623D01*
X135423937Y-38058344D01*
X135336634Y-38059471D01*
X135269471Y-38061005D01*
X135222410Y-38062946D01*
X135195417Y-38065294D01*
X135192261Y-38065846D01*
X135102280Y-38094618D01*
X135018514Y-38141147D01*
X134943402Y-38203228D01*
X134879384Y-38278652D01*
X134828898Y-38365212D01*
X134809328Y-38412432D01*
X134785893Y-38477319D01*
X134782943Y-39539039D01*
X134782539Y-39721934D01*
X134782376Y-39891294D01*
X134782450Y-40046408D01*
X134782756Y-40186563D01*
X134783291Y-40311049D01*
X134784049Y-40419154D01*
X134785025Y-40510165D01*
X134786216Y-40583371D01*
X134787617Y-40638060D01*
X134789224Y-40673520D01*
X134790160Y-40684300D01*
X134809236Y-40779841D01*
X134842887Y-40864408D01*
X134893134Y-40942057D01*
X134949835Y-41005093D01*
X135003798Y-41048955D01*
X135069710Y-41088413D01*
X135139202Y-41118988D01*
X135190253Y-41133736D01*
X135211035Y-41136182D01*
X135248232Y-41138232D01*
X135302345Y-41139892D01*
X135373873Y-41141167D01*
X135463318Y-41142063D01*
X135571179Y-41142585D01*
X135697957Y-41142739D01*
X135697957Y-41400337D01*
X135654070Y-41401309D01*
X135625058Y-41402431D01*
X135613979Y-41403652D01*
X135613933Y-41403737D01*
X135618163Y-41415096D01*
X135629042Y-41438532D01*
X135638855Y-41458338D01*
X135683853Y-41525863D01*
X135743127Y-41582582D01*
X135813040Y-41626674D01*
X135889956Y-41656321D01*
X135970239Y-41669700D01*
X135970239Y-41913736D01*
X135959373Y-41913988D01*
X135845587Y-41900324D01*
X135741540Y-41869046D01*
X135646094Y-41819625D01*
X135558114Y-41751528D01*
X135510960Y-41704250D01*
X135471980Y-41655758D01*
X135434598Y-41598680D01*
X135402039Y-41538893D01*
X135377529Y-41482277D01*
X135364824Y-41437852D01*
X135358209Y-41401185D01*
X135270897Y-41394473D01*
X135164410Y-41381415D01*
X135070864Y-41358994D01*
X134988317Y-41327586D01*
X134881811Y-41268330D01*
X134786109Y-41192791D01*
X134703087Y-41102941D01*
X134634622Y-41000752D01*
X134591123Y-40910281D01*
X134579437Y-40880505D01*
X134569574Y-40852484D01*
X134561379Y-40824231D01*
X134554697Y-40793759D01*
X134549374Y-40759081D01*
X134545255Y-40718210D01*
X134542185Y-40669160D01*
X134540009Y-40609944D01*
X134538573Y-40538575D01*
X134537721Y-40453067D01*
X134537300Y-40351433D01*
X134537155Y-40231686D01*
X134537149Y-40217219D01*
X134536973Y-39721919D01*
X134216933Y-39722471D01*
X134178573Y-39803514D01*
X134129033Y-39887714D01*
X134066564Y-39956928D01*
X133989293Y-40013056D01*
X133952033Y-40033155D01*
X133912623Y-40051753D01*
X133880789Y-40063562D01*
X133848926Y-40070416D01*
X133809435Y-40074143D01*
X133774965Y-40075802D01*
X133765283Y-40075469D01*
X133765283Y-39832206D01*
X133797932Y-39826703D01*
X133835696Y-39812014D01*
X133838417Y-39810774D01*
X133897276Y-39773626D01*
X133940879Y-39724499D01*
X133967996Y-39666119D01*
X133977396Y-39601213D01*
X133967846Y-39532506D01*
X133966381Y-39527441D01*
X133941284Y-39475897D01*
X133900674Y-39429736D01*
X133849356Y-39394069D01*
X133834239Y-39386880D01*
X133770799Y-39369936D01*
X133707109Y-39371836D01*
X133646596Y-39391439D01*
X133592686Y-39427604D01*
X133548806Y-39479190D01*
X133546641Y-39482631D01*
X133528916Y-39514753D01*
X133519584Y-39543841D01*
X133516164Y-39579372D01*
X133515893Y-39599999D01*
X133517462Y-39641526D01*
X133523824Y-39672342D01*
X133537463Y-39701925D01*
X133546641Y-39717368D01*
X133590882Y-39770454D01*
X133647218Y-39808182D01*
X133712577Y-39828623D01*
X133726633Y-39830485D01*
X133765283Y-39832206D01*
X133765283Y-40075469D01*
X133674325Y-40072335D01*
X133585085Y-40052824D01*
X133505248Y-40016504D01*
X133432814Y-39962608D01*
X133402607Y-39932952D01*
X133341612Y-39857648D01*
X133299576Y-39779660D01*
X133275150Y-39695662D01*
X133266981Y-39602331D01*
X133266972Y-39599061D01*
X133275860Y-39502186D01*
G36*
X136417207Y-39490351D02*
G01*
X136418128Y-39418022D01*
X136419527Y-39353171D01*
X136421406Y-39298888D01*
X136423763Y-39258259D01*
X136426599Y-39234374D01*
X136427086Y-39232353D01*
X136448886Y-39188585D01*
X136484388Y-39158082D01*
X136529970Y-39143606D01*
X136544501Y-39142799D01*
X136576709Y-39145700D01*
X136602446Y-39157160D01*
X136627542Y-39177569D01*
X136665493Y-39212339D01*
X136667995Y-39586509D01*
X136668556Y-39686108D01*
X136668732Y-39767410D01*
X136668459Y-39832437D01*
X136667673Y-39883211D01*
X136666307Y-39921752D01*
X136664297Y-39950082D01*
X136661579Y-39970223D01*
X136658088Y-39984194D01*
X136655003Y-39991681D01*
X136626943Y-40027255D01*
X136588192Y-40049563D01*
X136544183Y-40057457D01*
X136500355Y-40049785D01*
X136468449Y-40031146D01*
X136444771Y-40003630D01*
X136428140Y-39971099D01*
X136427086Y-39967646D01*
X136424175Y-39946659D01*
X136421743Y-39908446D01*
X136419789Y-39856095D01*
X136418315Y-39792693D01*
X136417319Y-39721330D01*
X136416803Y-39645093D01*
X136416766Y-39567071D01*
X136417207Y-39490351D01*
G37*
X136417207Y-39490351D02*
X136418128Y-39418022D01*
X136419527Y-39353171D01*
X136421406Y-39298888D01*
X136423763Y-39258259D01*
X136426599Y-39234374D01*
X136427086Y-39232353D01*
X136448886Y-39188585D01*
X136484388Y-39158082D01*
X136529970Y-39143606D01*
X136544501Y-39142799D01*
X136576709Y-39145700D01*
X136602446Y-39157160D01*
X136627542Y-39177569D01*
X136665493Y-39212339D01*
X136667995Y-39586509D01*
X136668556Y-39686108D01*
X136668732Y-39767410D01*
X136668459Y-39832437D01*
X136667673Y-39883211D01*
X136666307Y-39921752D01*
X136664297Y-39950082D01*
X136661579Y-39970223D01*
X136658088Y-39984194D01*
X136655003Y-39991681D01*
X136626943Y-40027255D01*
X136588192Y-40049563D01*
X136544183Y-40057457D01*
X136500355Y-40049785D01*
X136468449Y-40031146D01*
X136444771Y-40003630D01*
X136428140Y-39971099D01*
X136427086Y-39967646D01*
X136424175Y-39946659D01*
X136421743Y-39908446D01*
X136419789Y-39856095D01*
X136418315Y-39792693D01*
X136417319Y-39721330D01*
X136416803Y-39645093D01*
X136416766Y-39567071D01*
X136417207Y-39490351D01*
G36*
X135315874Y-40452963D02*
G01*
X135320779Y-40417724D01*
X135331454Y-40384162D01*
X135346407Y-40350303D01*
X135392887Y-40273758D01*
X135453123Y-40212126D01*
X135514526Y-40171846D01*
X135540932Y-40158896D01*
X135564705Y-40150619D01*
X135591667Y-40145989D01*
X135627642Y-40143979D01*
X135674893Y-40143559D01*
X135723609Y-40143919D01*
X135758037Y-40145818D01*
X135784206Y-40150485D01*
X135808144Y-40159148D01*
X135835882Y-40173037D01*
X135845845Y-40178407D01*
X135917361Y-40227832D01*
X135973218Y-40289347D01*
X136012357Y-40361288D01*
X136033718Y-40441997D01*
X136037142Y-40478284D01*
X136036910Y-40522976D01*
X136032948Y-40567259D01*
X136027235Y-40596901D01*
X135995833Y-40671872D01*
X135947602Y-40738465D01*
X135885280Y-40793764D01*
X135811608Y-40834860D01*
X135798362Y-40840145D01*
X135737307Y-40854920D01*
X135689055Y-40857528D01*
X135689055Y-40611774D01*
X135728529Y-40600460D01*
X135759747Y-40576343D01*
X135780629Y-40542975D01*
X135789099Y-40503904D01*
X135783080Y-40462680D01*
X135760493Y-40422854D01*
X135754790Y-40416408D01*
X135720049Y-40392326D01*
X135680463Y-40384474D01*
X135640552Y-40391049D01*
X135604834Y-40410247D01*
X135577827Y-40440264D01*
X135564049Y-40479297D01*
X135563170Y-40492910D01*
X135572021Y-40540382D01*
X135596648Y-40578564D01*
X135634325Y-40603587D01*
X135643400Y-40606737D01*
X135689055Y-40611774D01*
X135689055Y-40857528D01*
X135667672Y-40858685D01*
X135597785Y-40851703D01*
X135535974Y-40834235D01*
X135530105Y-40831720D01*
X135473381Y-40797753D01*
X135418890Y-40749679D01*
X135372466Y-40693385D01*
X135343791Y-40643659D01*
X135327825Y-40604495D01*
X135318939Y-40569084D01*
X135315257Y-40528074D01*
X135314767Y-40499159D01*
X135315874Y-40452963D01*
G37*
X135315874Y-40452963D02*
X135320779Y-40417724D01*
X135331454Y-40384162D01*
X135346407Y-40350303D01*
X135392887Y-40273758D01*
X135453123Y-40212126D01*
X135514526Y-40171846D01*
X135540932Y-40158896D01*
X135564705Y-40150619D01*
X135591667Y-40145989D01*
X135627642Y-40143979D01*
X135674893Y-40143559D01*
X135723609Y-40143919D01*
X135758037Y-40145818D01*
X135784206Y-40150485D01*
X135808144Y-40159148D01*
X135835882Y-40173037D01*
X135845845Y-40178407D01*
X135917361Y-40227832D01*
X135973218Y-40289347D01*
X136012357Y-40361288D01*
X136033718Y-40441997D01*
X136037142Y-40478284D01*
X136036910Y-40522976D01*
X136032948Y-40567259D01*
X136027235Y-40596901D01*
X135995833Y-40671872D01*
X135947602Y-40738465D01*
X135885280Y-40793764D01*
X135811608Y-40834860D01*
X135798362Y-40840145D01*
X135737307Y-40854920D01*
X135689055Y-40857528D01*
X135689055Y-40611774D01*
X135728529Y-40600460D01*
X135759747Y-40576343D01*
X135780629Y-40542975D01*
X135789099Y-40503904D01*
X135783080Y-40462680D01*
X135760493Y-40422854D01*
X135754790Y-40416408D01*
X135720049Y-40392326D01*
X135680463Y-40384474D01*
X135640552Y-40391049D01*
X135604834Y-40410247D01*
X135577827Y-40440264D01*
X135564049Y-40479297D01*
X135563170Y-40492910D01*
X135572021Y-40540382D01*
X135596648Y-40578564D01*
X135634325Y-40603587D01*
X135643400Y-40606737D01*
X135689055Y-40611774D01*
X135689055Y-40857528D01*
X135667672Y-40858685D01*
X135597785Y-40851703D01*
X135535974Y-40834235D01*
X135530105Y-40831720D01*
X135473381Y-40797753D01*
X135418890Y-40749679D01*
X135372466Y-40693385D01*
X135343791Y-40643659D01*
X135327825Y-40604495D01*
X135318939Y-40569084D01*
X135315257Y-40528074D01*
X135314767Y-40499159D01*
X135315874Y-40452963D01*
G36*
X135324056Y-38613561D02*
G01*
X135353150Y-38539637D01*
X135397852Y-38472407D01*
X135429899Y-38438501D01*
X135479437Y-38396951D01*
X135526317Y-38369317D01*
X135576854Y-38353195D01*
X135637362Y-38346187D01*
X135674893Y-38345346D01*
X135724079Y-38346088D01*
X135759890Y-38349248D01*
X135789234Y-38356035D01*
X135819021Y-38367658D01*
X135829289Y-38372369D01*
X135897383Y-38414818D01*
X135956394Y-38472425D01*
X136001590Y-38540495D01*
X136004296Y-38545903D01*
X136025305Y-38605522D01*
X136036506Y-38673895D01*
X136037244Y-38742835D01*
X136026859Y-38804154D01*
X136025415Y-38808839D01*
X135991582Y-38882285D01*
X135941496Y-38948050D01*
X135878855Y-39002315D01*
X135807356Y-39041265D01*
X135796155Y-39045529D01*
X135736796Y-39058811D01*
X135673241Y-39061280D01*
X135673241Y-38812599D01*
X135709836Y-38809867D01*
X135735412Y-38799786D01*
X135750497Y-38787759D01*
X135777361Y-38750260D01*
X135788328Y-38706748D01*
X135783038Y-38662929D01*
X135761131Y-38624507D01*
X135760826Y-38624168D01*
X135725250Y-38598177D01*
X135683705Y-38587926D01*
X135641653Y-38592993D01*
X135604558Y-38612956D01*
X135583005Y-38637893D01*
X135564926Y-38684254D01*
X135566185Y-38729981D01*
X135586564Y-38771917D01*
X135592779Y-38779419D01*
X135613928Y-38799964D01*
X135634916Y-38809739D01*
X135664950Y-38812542D01*
X135673241Y-38812599D01*
X135673241Y-39061280D01*
X135668397Y-39061469D01*
X135598910Y-39054026D01*
X135536285Y-39037001D01*
X135513798Y-39027044D01*
X135442649Y-38979486D01*
X135385150Y-38917548D01*
X135342637Y-38843013D01*
X135318089Y-38765695D01*
X135311919Y-38690229D01*
X135324056Y-38613561D01*
G37*
X135324056Y-38613561D02*
X135353150Y-38539637D01*
X135397852Y-38472407D01*
X135429899Y-38438501D01*
X135479437Y-38396951D01*
X135526317Y-38369317D01*
X135576854Y-38353195D01*
X135637362Y-38346187D01*
X135674893Y-38345346D01*
X135724079Y-38346088D01*
X135759890Y-38349248D01*
X135789234Y-38356035D01*
X135819021Y-38367658D01*
X135829289Y-38372369D01*
X135897383Y-38414818D01*
X135956394Y-38472425D01*
X136001590Y-38540495D01*
X136004296Y-38545903D01*
X136025305Y-38605522D01*
X136036506Y-38673895D01*
X136037244Y-38742835D01*
X136026859Y-38804154D01*
X136025415Y-38808839D01*
X135991582Y-38882285D01*
X135941496Y-38948050D01*
X135878855Y-39002315D01*
X135807356Y-39041265D01*
X135796155Y-39045529D01*
X135736796Y-39058811D01*
X135673241Y-39061280D01*
X135673241Y-38812599D01*
X135709836Y-38809867D01*
X135735412Y-38799786D01*
X135750497Y-38787759D01*
X135777361Y-38750260D01*
X135788328Y-38706748D01*
X135783038Y-38662929D01*
X135761131Y-38624507D01*
X135760826Y-38624168D01*
X135725250Y-38598177D01*
X135683705Y-38587926D01*
X135641653Y-38592993D01*
X135604558Y-38612956D01*
X135583005Y-38637893D01*
X135564926Y-38684254D01*
X135566185Y-38729981D01*
X135586564Y-38771917D01*
X135592779Y-38779419D01*
X135613928Y-38799964D01*
X135634916Y-38809739D01*
X135664950Y-38812542D01*
X135673241Y-38812599D01*
X135673241Y-39061280D01*
X135668397Y-39061469D01*
X135598910Y-39054026D01*
X135536285Y-39037001D01*
X135513798Y-39027044D01*
X135442649Y-38979486D01*
X135385150Y-38917548D01*
X135342637Y-38843013D01*
X135318089Y-38765695D01*
X135311919Y-38690229D01*
X135324056Y-38613561D01*
D13*
X121259130Y-35589999D02*
G75*
G03*
X121259130Y-35589999I-50000J0D01*
G01*
D14*
G36*
X113275857Y-39502186D02*
G01*
X113302884Y-39413507D01*
X113348600Y-39331785D01*
X113413554Y-39255779D01*
X113422943Y-39246722D01*
X113491165Y-39191879D01*
X113563499Y-39153869D01*
X113643381Y-39131499D01*
X113734247Y-39123571D01*
X113774962Y-39124197D01*
X113823806Y-39126855D01*
X113859933Y-39131414D01*
X113890945Y-39139704D01*
X113924443Y-39153556D01*
X113952030Y-39166844D01*
X114036067Y-39218049D01*
X114104515Y-39281544D01*
X114159248Y-39359228D01*
X114178570Y-39396485D01*
X114216930Y-39477528D01*
X114376950Y-39477804D01*
X114536970Y-39478079D01*
X114537146Y-38982779D01*
X114537270Y-38860904D01*
X114537653Y-38757361D01*
X114538449Y-38670164D01*
X114539813Y-38597327D01*
X114541899Y-38536862D01*
X114544863Y-38486784D01*
X114548858Y-38445105D01*
X114554041Y-38409839D01*
X114560564Y-38378998D01*
X114568584Y-38350597D01*
X114578254Y-38322648D01*
X114589731Y-38293165D01*
X114591120Y-38289718D01*
X114631971Y-38202870D01*
X114681739Y-38125589D01*
X114745155Y-38050755D01*
X114760490Y-38034846D01*
X114854793Y-37952439D01*
X114957766Y-37888406D01*
X115053275Y-37848030D01*
X115116579Y-37830016D01*
X115188121Y-37815235D01*
X115258870Y-37805265D01*
X115318894Y-37801679D01*
X115344512Y-37800120D01*
X115356971Y-37791475D01*
X115363400Y-37769796D01*
X115364552Y-37763579D01*
X115378184Y-37716861D01*
X115402367Y-37661233D01*
X115433860Y-37602710D01*
X115469419Y-37547301D01*
X115505802Y-37501018D01*
X115506762Y-37499955D01*
X115576916Y-37433803D01*
X115658233Y-37375748D01*
X115743740Y-37330486D01*
X115779780Y-37316222D01*
X115853474Y-37297145D01*
X115937800Y-37286497D01*
X116024724Y-37284686D01*
X116106208Y-37292117D01*
X116137170Y-37298160D01*
X116240867Y-37332616D01*
X116337405Y-37384619D01*
X116424436Y-37451976D01*
X116499611Y-37532493D01*
X116560583Y-37623976D01*
X116605003Y-37724231D01*
X116610173Y-37740150D01*
X116621904Y-37771811D01*
X116634069Y-37794997D01*
X116641397Y-37802871D01*
X116657897Y-37807707D01*
X116688190Y-37813995D01*
X116725938Y-37820428D01*
X116728661Y-37820845D01*
X116837503Y-37847412D01*
X116941378Y-37892337D01*
X117038289Y-37953877D01*
X117126239Y-38030287D01*
X117203230Y-38119825D01*
X117267266Y-38220745D01*
X117316347Y-38331305D01*
X117317683Y-38335079D01*
X117346210Y-38416359D01*
X117348068Y-39574599D01*
X117348324Y-39760294D01*
X117348458Y-39926693D01*
X117348460Y-40074821D01*
X117348321Y-40205703D01*
X117348030Y-40320363D01*
X117347579Y-40419826D01*
X117346956Y-40505116D01*
X117346153Y-40577258D01*
X117345161Y-40637275D01*
X117343968Y-40686193D01*
X117342565Y-40725036D01*
X117340944Y-40754829D01*
X117339093Y-40776595D01*
X117337003Y-40791360D01*
X117336504Y-40793799D01*
X117302421Y-40904485D01*
X117251456Y-41008517D01*
X117185667Y-41103917D01*
X117107109Y-41188704D01*
X117017838Y-41260898D01*
X116919909Y-41318520D01*
X116815380Y-41359589D01*
X116728661Y-41379154D01*
X116690632Y-41385549D01*
X116659620Y-41391889D01*
X116641963Y-41396868D01*
X116641397Y-41397128D01*
X116630953Y-41410011D01*
X116618589Y-41436098D01*
X116610173Y-41459849D01*
X116575210Y-41549041D01*
X116526982Y-41630204D01*
X116462465Y-41708184D01*
X116442440Y-41728745D01*
X116357785Y-41802096D01*
X116269126Y-41856409D01*
X116174184Y-41892557D01*
X116070680Y-41911414D01*
X115970236Y-41913736D01*
X115970236Y-41669700D01*
X116050249Y-41664992D01*
X116051281Y-41664802D01*
X116140237Y-41639302D01*
X116217546Y-41598458D01*
X116273055Y-41552028D01*
X116300711Y-41520201D01*
X116327078Y-41484049D01*
X116348825Y-41448822D01*
X116362620Y-41419770D01*
X116365761Y-41405939D01*
X116355976Y-41404214D01*
X116328107Y-41402625D01*
X116284391Y-41401218D01*
X116227062Y-41400039D01*
X116158359Y-41399133D01*
X116080516Y-41398545D01*
X115995770Y-41398320D01*
X115989850Y-41398319D01*
X115904717Y-41398461D01*
X115826337Y-41398862D01*
X115756944Y-41399492D01*
X115698775Y-41400319D01*
X115697954Y-41400337D01*
X115697954Y-41142739D01*
X115844148Y-41142528D01*
X115975238Y-41142103D01*
X116706130Y-41139239D01*
X116765466Y-41115307D01*
X116859567Y-41067106D01*
X116940647Y-41004380D01*
X117007332Y-40928756D01*
X117058247Y-40841860D01*
X117092019Y-40745319D01*
X117097066Y-40722679D01*
X117098431Y-40705729D01*
X117099688Y-40670105D01*
X117100838Y-40617455D01*
X117101879Y-40549426D01*
X117102811Y-40467664D01*
X117103632Y-40373817D01*
X117104344Y-40269530D01*
X117104944Y-40156452D01*
X117105432Y-40036227D01*
X117105807Y-39910504D01*
X117106070Y-39780930D01*
X117106218Y-39649150D01*
X117106252Y-39516812D01*
X117106171Y-39385562D01*
X117105974Y-39257048D01*
X117105660Y-39132915D01*
X117105229Y-39014812D01*
X117104680Y-38904384D01*
X117104013Y-38803278D01*
X117103226Y-38713142D01*
X117102319Y-38635622D01*
X117101292Y-38572364D01*
X117100144Y-38525016D01*
X117098874Y-38495224D01*
X117097969Y-38485985D01*
X117068994Y-38385229D01*
X117022766Y-38294492D01*
X116960421Y-38215145D01*
X116883095Y-38148558D01*
X116791923Y-38096100D01*
X116765466Y-38084692D01*
X116706130Y-38060759D01*
X115984048Y-38057931D01*
X115984048Y-37801679D01*
X116367139Y-37801679D01*
X116360495Y-37778819D01*
X116351412Y-37758496D01*
X116334486Y-37728666D01*
X116316832Y-37701022D01*
X116261404Y-37635676D01*
X116195410Y-37585895D01*
X116121612Y-37551907D01*
X116042776Y-37533939D01*
X115961663Y-37532219D01*
X115881039Y-37546974D01*
X115803666Y-37578434D01*
X115732307Y-37626825D01*
X115706341Y-37650698D01*
X115683504Y-37676928D01*
X115659400Y-37709885D01*
X115637483Y-37744131D01*
X115621205Y-37774229D01*
X115614017Y-37794739D01*
X115613930Y-37796262D01*
X115623717Y-37797488D01*
X115651590Y-37798616D01*
X115695315Y-37799616D01*
X115752658Y-37800454D01*
X115821383Y-37801099D01*
X115899258Y-37801518D01*
X115984048Y-37801679D01*
X115984048Y-38057931D01*
X115975238Y-38057896D01*
X115807027Y-38057400D01*
X115659096Y-38057309D01*
X115531410Y-38057623D01*
X115423934Y-38058344D01*
X115336631Y-38059471D01*
X115269468Y-38061005D01*
X115222407Y-38062946D01*
X115195414Y-38065294D01*
X115192258Y-38065846D01*
X115102277Y-38094618D01*
X115018511Y-38141147D01*
X114943399Y-38203228D01*
X114879381Y-38278652D01*
X114828895Y-38365212D01*
X114809325Y-38412432D01*
X114785890Y-38477319D01*
X114782940Y-39539039D01*
X114782536Y-39721934D01*
X114782373Y-39891294D01*
X114782447Y-40046408D01*
X114782753Y-40186563D01*
X114783288Y-40311049D01*
X114784046Y-40419154D01*
X114785022Y-40510165D01*
X114786213Y-40583371D01*
X114787614Y-40638060D01*
X114789221Y-40673520D01*
X114790157Y-40684300D01*
X114809233Y-40779841D01*
X114842884Y-40864408D01*
X114893131Y-40942057D01*
X114949832Y-41005093D01*
X115003795Y-41048955D01*
X115069707Y-41088413D01*
X115139199Y-41118988D01*
X115190250Y-41133736D01*
X115211032Y-41136182D01*
X115248229Y-41138232D01*
X115302342Y-41139892D01*
X115373870Y-41141167D01*
X115463315Y-41142063D01*
X115571176Y-41142585D01*
X115697954Y-41142739D01*
X115697954Y-41400337D01*
X115654067Y-41401309D01*
X115625055Y-41402431D01*
X115613976Y-41403652D01*
X115613930Y-41403737D01*
X115618160Y-41415096D01*
X115629039Y-41438532D01*
X115638852Y-41458338D01*
X115683850Y-41525863D01*
X115743124Y-41582582D01*
X115813037Y-41626674D01*
X115889953Y-41656321D01*
X115970236Y-41669700D01*
X115970236Y-41913736D01*
X115959370Y-41913988D01*
X115845584Y-41900324D01*
X115741537Y-41869046D01*
X115646091Y-41819625D01*
X115558111Y-41751528D01*
X115510957Y-41704250D01*
X115471977Y-41655758D01*
X115434595Y-41598680D01*
X115402036Y-41538893D01*
X115377526Y-41482277D01*
X115364821Y-41437852D01*
X115358206Y-41401185D01*
X115270894Y-41394473D01*
X115164407Y-41381415D01*
X115070861Y-41358994D01*
X114988314Y-41327586D01*
X114881808Y-41268330D01*
X114786106Y-41192791D01*
X114703084Y-41102941D01*
X114634619Y-41000752D01*
X114591120Y-40910281D01*
X114579434Y-40880505D01*
X114569571Y-40852484D01*
X114561376Y-40824231D01*
X114554694Y-40793759D01*
X114549371Y-40759081D01*
X114545252Y-40718210D01*
X114542182Y-40669160D01*
X114540006Y-40609944D01*
X114538570Y-40538575D01*
X114537718Y-40453067D01*
X114537297Y-40351433D01*
X114537152Y-40231686D01*
X114537146Y-40217219D01*
X114536970Y-39721919D01*
X114216930Y-39722471D01*
X114178570Y-39803514D01*
X114129030Y-39887714D01*
X114066561Y-39956928D01*
X113989290Y-40013056D01*
X113952030Y-40033155D01*
X113912620Y-40051753D01*
X113880786Y-40063562D01*
X113848923Y-40070416D01*
X113809432Y-40074143D01*
X113774962Y-40075802D01*
X113765280Y-40075469D01*
X113765280Y-39832206D01*
X113797929Y-39826703D01*
X113835693Y-39812014D01*
X113838414Y-39810774D01*
X113897273Y-39773626D01*
X113940876Y-39724499D01*
X113967993Y-39666119D01*
X113977393Y-39601213D01*
X113967843Y-39532506D01*
X113966378Y-39527441D01*
X113941281Y-39475897D01*
X113900671Y-39429736D01*
X113849353Y-39394069D01*
X113834236Y-39386880D01*
X113770796Y-39369936D01*
X113707106Y-39371836D01*
X113646593Y-39391439D01*
X113592683Y-39427604D01*
X113548803Y-39479190D01*
X113546638Y-39482631D01*
X113528913Y-39514753D01*
X113519581Y-39543841D01*
X113516161Y-39579372D01*
X113515890Y-39599999D01*
X113517459Y-39641526D01*
X113523821Y-39672342D01*
X113537460Y-39701925D01*
X113546638Y-39717368D01*
X113590879Y-39770454D01*
X113647215Y-39808182D01*
X113712574Y-39828623D01*
X113726630Y-39830485D01*
X113765280Y-39832206D01*
X113765280Y-40075469D01*
X113674322Y-40072335D01*
X113585082Y-40052824D01*
X113505245Y-40016504D01*
X113432811Y-39962608D01*
X113402604Y-39932952D01*
X113341609Y-39857648D01*
X113299573Y-39779660D01*
X113275147Y-39695662D01*
X113266978Y-39602331D01*
X113266969Y-39599061D01*
X113275857Y-39502186D01*
G37*
X113275857Y-39502186D02*
X113302884Y-39413507D01*
X113348600Y-39331785D01*
X113413554Y-39255779D01*
X113422943Y-39246722D01*
X113491165Y-39191879D01*
X113563499Y-39153869D01*
X113643381Y-39131499D01*
X113734247Y-39123571D01*
X113774962Y-39124197D01*
X113823806Y-39126855D01*
X113859933Y-39131414D01*
X113890945Y-39139704D01*
X113924443Y-39153556D01*
X113952030Y-39166844D01*
X114036067Y-39218049D01*
X114104515Y-39281544D01*
X114159248Y-39359228D01*
X114178570Y-39396485D01*
X114216930Y-39477528D01*
X114376950Y-39477804D01*
X114536970Y-39478079D01*
X114537146Y-38982779D01*
X114537270Y-38860904D01*
X114537653Y-38757361D01*
X114538449Y-38670164D01*
X114539813Y-38597327D01*
X114541899Y-38536862D01*
X114544863Y-38486784D01*
X114548858Y-38445105D01*
X114554041Y-38409839D01*
X114560564Y-38378998D01*
X114568584Y-38350597D01*
X114578254Y-38322648D01*
X114589731Y-38293165D01*
X114591120Y-38289718D01*
X114631971Y-38202870D01*
X114681739Y-38125589D01*
X114745155Y-38050755D01*
X114760490Y-38034846D01*
X114854793Y-37952439D01*
X114957766Y-37888406D01*
X115053275Y-37848030D01*
X115116579Y-37830016D01*
X115188121Y-37815235D01*
X115258870Y-37805265D01*
X115318894Y-37801679D01*
X115344512Y-37800120D01*
X115356971Y-37791475D01*
X115363400Y-37769796D01*
X115364552Y-37763579D01*
X115378184Y-37716861D01*
X115402367Y-37661233D01*
X115433860Y-37602710D01*
X115469419Y-37547301D01*
X115505802Y-37501018D01*
X115506762Y-37499955D01*
X115576916Y-37433803D01*
X115658233Y-37375748D01*
X115743740Y-37330486D01*
X115779780Y-37316222D01*
X115853474Y-37297145D01*
X115937800Y-37286497D01*
X116024724Y-37284686D01*
X116106208Y-37292117D01*
X116137170Y-37298160D01*
X116240867Y-37332616D01*
X116337405Y-37384619D01*
X116424436Y-37451976D01*
X116499611Y-37532493D01*
X116560583Y-37623976D01*
X116605003Y-37724231D01*
X116610173Y-37740150D01*
X116621904Y-37771811D01*
X116634069Y-37794997D01*
X116641397Y-37802871D01*
X116657897Y-37807707D01*
X116688190Y-37813995D01*
X116725938Y-37820428D01*
X116728661Y-37820845D01*
X116837503Y-37847412D01*
X116941378Y-37892337D01*
X117038289Y-37953877D01*
X117126239Y-38030287D01*
X117203230Y-38119825D01*
X117267266Y-38220745D01*
X117316347Y-38331305D01*
X117317683Y-38335079D01*
X117346210Y-38416359D01*
X117348068Y-39574599D01*
X117348324Y-39760294D01*
X117348458Y-39926693D01*
X117348460Y-40074821D01*
X117348321Y-40205703D01*
X117348030Y-40320363D01*
X117347579Y-40419826D01*
X117346956Y-40505116D01*
X117346153Y-40577258D01*
X117345161Y-40637275D01*
X117343968Y-40686193D01*
X117342565Y-40725036D01*
X117340944Y-40754829D01*
X117339093Y-40776595D01*
X117337003Y-40791360D01*
X117336504Y-40793799D01*
X117302421Y-40904485D01*
X117251456Y-41008517D01*
X117185667Y-41103917D01*
X117107109Y-41188704D01*
X117017838Y-41260898D01*
X116919909Y-41318520D01*
X116815380Y-41359589D01*
X116728661Y-41379154D01*
X116690632Y-41385549D01*
X116659620Y-41391889D01*
X116641963Y-41396868D01*
X116641397Y-41397128D01*
X116630953Y-41410011D01*
X116618589Y-41436098D01*
X116610173Y-41459849D01*
X116575210Y-41549041D01*
X116526982Y-41630204D01*
X116462465Y-41708184D01*
X116442440Y-41728745D01*
X116357785Y-41802096D01*
X116269126Y-41856409D01*
X116174184Y-41892557D01*
X116070680Y-41911414D01*
X115970236Y-41913736D01*
X115970236Y-41669700D01*
X116050249Y-41664992D01*
X116051281Y-41664802D01*
X116140237Y-41639302D01*
X116217546Y-41598458D01*
X116273055Y-41552028D01*
X116300711Y-41520201D01*
X116327078Y-41484049D01*
X116348825Y-41448822D01*
X116362620Y-41419770D01*
X116365761Y-41405939D01*
X116355976Y-41404214D01*
X116328107Y-41402625D01*
X116284391Y-41401218D01*
X116227062Y-41400039D01*
X116158359Y-41399133D01*
X116080516Y-41398545D01*
X115995770Y-41398320D01*
X115989850Y-41398319D01*
X115904717Y-41398461D01*
X115826337Y-41398862D01*
X115756944Y-41399492D01*
X115698775Y-41400319D01*
X115697954Y-41400337D01*
X115697954Y-41142739D01*
X115844148Y-41142528D01*
X115975238Y-41142103D01*
X116706130Y-41139239D01*
X116765466Y-41115307D01*
X116859567Y-41067106D01*
X116940647Y-41004380D01*
X117007332Y-40928756D01*
X117058247Y-40841860D01*
X117092019Y-40745319D01*
X117097066Y-40722679D01*
X117098431Y-40705729D01*
X117099688Y-40670105D01*
X117100838Y-40617455D01*
X117101879Y-40549426D01*
X117102811Y-40467664D01*
X117103632Y-40373817D01*
X117104344Y-40269530D01*
X117104944Y-40156452D01*
X117105432Y-40036227D01*
X117105807Y-39910504D01*
X117106070Y-39780930D01*
X117106218Y-39649150D01*
X117106252Y-39516812D01*
X117106171Y-39385562D01*
X117105974Y-39257048D01*
X117105660Y-39132915D01*
X117105229Y-39014812D01*
X117104680Y-38904384D01*
X117104013Y-38803278D01*
X117103226Y-38713142D01*
X117102319Y-38635622D01*
X117101292Y-38572364D01*
X117100144Y-38525016D01*
X117098874Y-38495224D01*
X117097969Y-38485985D01*
X117068994Y-38385229D01*
X117022766Y-38294492D01*
X116960421Y-38215145D01*
X116883095Y-38148558D01*
X116791923Y-38096100D01*
X116765466Y-38084692D01*
X116706130Y-38060759D01*
X115984048Y-38057931D01*
X115984048Y-37801679D01*
X116367139Y-37801679D01*
X116360495Y-37778819D01*
X116351412Y-37758496D01*
X116334486Y-37728666D01*
X116316832Y-37701022D01*
X116261404Y-37635676D01*
X116195410Y-37585895D01*
X116121612Y-37551907D01*
X116042776Y-37533939D01*
X115961663Y-37532219D01*
X115881039Y-37546974D01*
X115803666Y-37578434D01*
X115732307Y-37626825D01*
X115706341Y-37650698D01*
X115683504Y-37676928D01*
X115659400Y-37709885D01*
X115637483Y-37744131D01*
X115621205Y-37774229D01*
X115614017Y-37794739D01*
X115613930Y-37796262D01*
X115623717Y-37797488D01*
X115651590Y-37798616D01*
X115695315Y-37799616D01*
X115752658Y-37800454D01*
X115821383Y-37801099D01*
X115899258Y-37801518D01*
X115984048Y-37801679D01*
X115984048Y-38057931D01*
X115975238Y-38057896D01*
X115807027Y-38057400D01*
X115659096Y-38057309D01*
X115531410Y-38057623D01*
X115423934Y-38058344D01*
X115336631Y-38059471D01*
X115269468Y-38061005D01*
X115222407Y-38062946D01*
X115195414Y-38065294D01*
X115192258Y-38065846D01*
X115102277Y-38094618D01*
X115018511Y-38141147D01*
X114943399Y-38203228D01*
X114879381Y-38278652D01*
X114828895Y-38365212D01*
X114809325Y-38412432D01*
X114785890Y-38477319D01*
X114782940Y-39539039D01*
X114782536Y-39721934D01*
X114782373Y-39891294D01*
X114782447Y-40046408D01*
X114782753Y-40186563D01*
X114783288Y-40311049D01*
X114784046Y-40419154D01*
X114785022Y-40510165D01*
X114786213Y-40583371D01*
X114787614Y-40638060D01*
X114789221Y-40673520D01*
X114790157Y-40684300D01*
X114809233Y-40779841D01*
X114842884Y-40864408D01*
X114893131Y-40942057D01*
X114949832Y-41005093D01*
X115003795Y-41048955D01*
X115069707Y-41088413D01*
X115139199Y-41118988D01*
X115190250Y-41133736D01*
X115211032Y-41136182D01*
X115248229Y-41138232D01*
X115302342Y-41139892D01*
X115373870Y-41141167D01*
X115463315Y-41142063D01*
X115571176Y-41142585D01*
X115697954Y-41142739D01*
X115697954Y-41400337D01*
X115654067Y-41401309D01*
X115625055Y-41402431D01*
X115613976Y-41403652D01*
X115613930Y-41403737D01*
X115618160Y-41415096D01*
X115629039Y-41438532D01*
X115638852Y-41458338D01*
X115683850Y-41525863D01*
X115743124Y-41582582D01*
X115813037Y-41626674D01*
X115889953Y-41656321D01*
X115970236Y-41669700D01*
X115970236Y-41913736D01*
X115959370Y-41913988D01*
X115845584Y-41900324D01*
X115741537Y-41869046D01*
X115646091Y-41819625D01*
X115558111Y-41751528D01*
X115510957Y-41704250D01*
X115471977Y-41655758D01*
X115434595Y-41598680D01*
X115402036Y-41538893D01*
X115377526Y-41482277D01*
X115364821Y-41437852D01*
X115358206Y-41401185D01*
X115270894Y-41394473D01*
X115164407Y-41381415D01*
X115070861Y-41358994D01*
X114988314Y-41327586D01*
X114881808Y-41268330D01*
X114786106Y-41192791D01*
X114703084Y-41102941D01*
X114634619Y-41000752D01*
X114591120Y-40910281D01*
X114579434Y-40880505D01*
X114569571Y-40852484D01*
X114561376Y-40824231D01*
X114554694Y-40793759D01*
X114549371Y-40759081D01*
X114545252Y-40718210D01*
X114542182Y-40669160D01*
X114540006Y-40609944D01*
X114538570Y-40538575D01*
X114537718Y-40453067D01*
X114537297Y-40351433D01*
X114537152Y-40231686D01*
X114537146Y-40217219D01*
X114536970Y-39721919D01*
X114216930Y-39722471D01*
X114178570Y-39803514D01*
X114129030Y-39887714D01*
X114066561Y-39956928D01*
X113989290Y-40013056D01*
X113952030Y-40033155D01*
X113912620Y-40051753D01*
X113880786Y-40063562D01*
X113848923Y-40070416D01*
X113809432Y-40074143D01*
X113774962Y-40075802D01*
X113765280Y-40075469D01*
X113765280Y-39832206D01*
X113797929Y-39826703D01*
X113835693Y-39812014D01*
X113838414Y-39810774D01*
X113897273Y-39773626D01*
X113940876Y-39724499D01*
X113967993Y-39666119D01*
X113977393Y-39601213D01*
X113967843Y-39532506D01*
X113966378Y-39527441D01*
X113941281Y-39475897D01*
X113900671Y-39429736D01*
X113849353Y-39394069D01*
X113834236Y-39386880D01*
X113770796Y-39369936D01*
X113707106Y-39371836D01*
X113646593Y-39391439D01*
X113592683Y-39427604D01*
X113548803Y-39479190D01*
X113546638Y-39482631D01*
X113528913Y-39514753D01*
X113519581Y-39543841D01*
X113516161Y-39579372D01*
X113515890Y-39599999D01*
X113517459Y-39641526D01*
X113523821Y-39672342D01*
X113537460Y-39701925D01*
X113546638Y-39717368D01*
X113590879Y-39770454D01*
X113647215Y-39808182D01*
X113712574Y-39828623D01*
X113726630Y-39830485D01*
X113765280Y-39832206D01*
X113765280Y-40075469D01*
X113674322Y-40072335D01*
X113585082Y-40052824D01*
X113505245Y-40016504D01*
X113432811Y-39962608D01*
X113402604Y-39932952D01*
X113341609Y-39857648D01*
X113299573Y-39779660D01*
X113275147Y-39695662D01*
X113266978Y-39602331D01*
X113266969Y-39599061D01*
X113275857Y-39502186D01*
G36*
X116417204Y-39490351D02*
G01*
X116418125Y-39418022D01*
X116419524Y-39353171D01*
X116421403Y-39298888D01*
X116423760Y-39258259D01*
X116426596Y-39234374D01*
X116427083Y-39232353D01*
X116448883Y-39188585D01*
X116484385Y-39158082D01*
X116529967Y-39143606D01*
X116544498Y-39142799D01*
X116576706Y-39145700D01*
X116602443Y-39157160D01*
X116627539Y-39177569D01*
X116665490Y-39212339D01*
X116667992Y-39586509D01*
X116668553Y-39686108D01*
X116668729Y-39767410D01*
X116668456Y-39832437D01*
X116667670Y-39883211D01*
X116666304Y-39921752D01*
X116664294Y-39950082D01*
X116661576Y-39970223D01*
X116658085Y-39984194D01*
X116655000Y-39991681D01*
X116626940Y-40027255D01*
X116588189Y-40049563D01*
X116544180Y-40057457D01*
X116500352Y-40049785D01*
X116468446Y-40031146D01*
X116444768Y-40003630D01*
X116428137Y-39971099D01*
X116427083Y-39967646D01*
X116424172Y-39946659D01*
X116421740Y-39908446D01*
X116419786Y-39856095D01*
X116418312Y-39792693D01*
X116417316Y-39721330D01*
X116416800Y-39645093D01*
X116416763Y-39567071D01*
X116417204Y-39490351D01*
G37*
X116417204Y-39490351D02*
X116418125Y-39418022D01*
X116419524Y-39353171D01*
X116421403Y-39298888D01*
X116423760Y-39258259D01*
X116426596Y-39234374D01*
X116427083Y-39232353D01*
X116448883Y-39188585D01*
X116484385Y-39158082D01*
X116529967Y-39143606D01*
X116544498Y-39142799D01*
X116576706Y-39145700D01*
X116602443Y-39157160D01*
X116627539Y-39177569D01*
X116665490Y-39212339D01*
X116667992Y-39586509D01*
X116668553Y-39686108D01*
X116668729Y-39767410D01*
X116668456Y-39832437D01*
X116667670Y-39883211D01*
X116666304Y-39921752D01*
X116664294Y-39950082D01*
X116661576Y-39970223D01*
X116658085Y-39984194D01*
X116655000Y-39991681D01*
X116626940Y-40027255D01*
X116588189Y-40049563D01*
X116544180Y-40057457D01*
X116500352Y-40049785D01*
X116468446Y-40031146D01*
X116444768Y-40003630D01*
X116428137Y-39971099D01*
X116427083Y-39967646D01*
X116424172Y-39946659D01*
X116421740Y-39908446D01*
X116419786Y-39856095D01*
X116418312Y-39792693D01*
X116417316Y-39721330D01*
X116416800Y-39645093D01*
X116416763Y-39567071D01*
X116417204Y-39490351D01*
G36*
X115315871Y-40452963D02*
G01*
X115320776Y-40417724D01*
X115331451Y-40384162D01*
X115346404Y-40350303D01*
X115392884Y-40273758D01*
X115453120Y-40212126D01*
X115514523Y-40171846D01*
X115540929Y-40158896D01*
X115564702Y-40150619D01*
X115591664Y-40145989D01*
X115627639Y-40143979D01*
X115674890Y-40143559D01*
X115723606Y-40143919D01*
X115758034Y-40145818D01*
X115784203Y-40150485D01*
X115808141Y-40159148D01*
X115835879Y-40173037D01*
X115845842Y-40178407D01*
X115917358Y-40227832D01*
X115973215Y-40289347D01*
X116012354Y-40361288D01*
X116033715Y-40441997D01*
X116037139Y-40478284D01*
X116036907Y-40522976D01*
X116032945Y-40567259D01*
X116027232Y-40596901D01*
X115995830Y-40671872D01*
X115947599Y-40738465D01*
X115885277Y-40793764D01*
X115811605Y-40834860D01*
X115798359Y-40840145D01*
X115737304Y-40854920D01*
X115689052Y-40857528D01*
X115689052Y-40611774D01*
X115728526Y-40600460D01*
X115759744Y-40576343D01*
X115780626Y-40542975D01*
X115789096Y-40503904D01*
X115783077Y-40462680D01*
X115760490Y-40422854D01*
X115754787Y-40416408D01*
X115720046Y-40392326D01*
X115680460Y-40384474D01*
X115640549Y-40391049D01*
X115604831Y-40410247D01*
X115577824Y-40440264D01*
X115564046Y-40479297D01*
X115563167Y-40492910D01*
X115572018Y-40540382D01*
X115596645Y-40578564D01*
X115634322Y-40603587D01*
X115643397Y-40606737D01*
X115689052Y-40611774D01*
X115689052Y-40857528D01*
X115667669Y-40858685D01*
X115597782Y-40851703D01*
X115535971Y-40834235D01*
X115530102Y-40831720D01*
X115473378Y-40797753D01*
X115418887Y-40749679D01*
X115372463Y-40693385D01*
X115343788Y-40643659D01*
X115327822Y-40604495D01*
X115318936Y-40569084D01*
X115315254Y-40528074D01*
X115314764Y-40499159D01*
X115315871Y-40452963D01*
G37*
X115315871Y-40452963D02*
X115320776Y-40417724D01*
X115331451Y-40384162D01*
X115346404Y-40350303D01*
X115392884Y-40273758D01*
X115453120Y-40212126D01*
X115514523Y-40171846D01*
X115540929Y-40158896D01*
X115564702Y-40150619D01*
X115591664Y-40145989D01*
X115627639Y-40143979D01*
X115674890Y-40143559D01*
X115723606Y-40143919D01*
X115758034Y-40145818D01*
X115784203Y-40150485D01*
X115808141Y-40159148D01*
X115835879Y-40173037D01*
X115845842Y-40178407D01*
X115917358Y-40227832D01*
X115973215Y-40289347D01*
X116012354Y-40361288D01*
X116033715Y-40441997D01*
X116037139Y-40478284D01*
X116036907Y-40522976D01*
X116032945Y-40567259D01*
X116027232Y-40596901D01*
X115995830Y-40671872D01*
X115947599Y-40738465D01*
X115885277Y-40793764D01*
X115811605Y-40834860D01*
X115798359Y-40840145D01*
X115737304Y-40854920D01*
X115689052Y-40857528D01*
X115689052Y-40611774D01*
X115728526Y-40600460D01*
X115759744Y-40576343D01*
X115780626Y-40542975D01*
X115789096Y-40503904D01*
X115783077Y-40462680D01*
X115760490Y-40422854D01*
X115754787Y-40416408D01*
X115720046Y-40392326D01*
X115680460Y-40384474D01*
X115640549Y-40391049D01*
X115604831Y-40410247D01*
X115577824Y-40440264D01*
X115564046Y-40479297D01*
X115563167Y-40492910D01*
X115572018Y-40540382D01*
X115596645Y-40578564D01*
X115634322Y-40603587D01*
X115643397Y-40606737D01*
X115689052Y-40611774D01*
X115689052Y-40857528D01*
X115667669Y-40858685D01*
X115597782Y-40851703D01*
X115535971Y-40834235D01*
X115530102Y-40831720D01*
X115473378Y-40797753D01*
X115418887Y-40749679D01*
X115372463Y-40693385D01*
X115343788Y-40643659D01*
X115327822Y-40604495D01*
X115318936Y-40569084D01*
X115315254Y-40528074D01*
X115314764Y-40499159D01*
X115315871Y-40452963D01*
G36*
X115324053Y-38613561D02*
G01*
X115353147Y-38539637D01*
X115397849Y-38472407D01*
X115429896Y-38438501D01*
X115479434Y-38396951D01*
X115526314Y-38369317D01*
X115576851Y-38353195D01*
X115637359Y-38346187D01*
X115674890Y-38345346D01*
X115724076Y-38346088D01*
X115759887Y-38349248D01*
X115789231Y-38356035D01*
X115819018Y-38367658D01*
X115829286Y-38372369D01*
X115897380Y-38414818D01*
X115956391Y-38472425D01*
X116001587Y-38540495D01*
X116004293Y-38545903D01*
X116025302Y-38605522D01*
X116036503Y-38673895D01*
X116037241Y-38742835D01*
X116026856Y-38804154D01*
X116025412Y-38808839D01*
X115991579Y-38882285D01*
X115941493Y-38948050D01*
X115878852Y-39002315D01*
X115807353Y-39041265D01*
X115796152Y-39045529D01*
X115736793Y-39058811D01*
X115673238Y-39061280D01*
X115673238Y-38812599D01*
X115709833Y-38809867D01*
X115735409Y-38799786D01*
X115750494Y-38787759D01*
X115777358Y-38750260D01*
X115788325Y-38706748D01*
X115783035Y-38662929D01*
X115761128Y-38624507D01*
X115760823Y-38624168D01*
X115725247Y-38598177D01*
X115683702Y-38587926D01*
X115641650Y-38592993D01*
X115604555Y-38612956D01*
X115583002Y-38637893D01*
X115564923Y-38684254D01*
X115566182Y-38729981D01*
X115586561Y-38771917D01*
X115592776Y-38779419D01*
X115613925Y-38799964D01*
X115634913Y-38809739D01*
X115664947Y-38812542D01*
X115673238Y-38812599D01*
X115673238Y-39061280D01*
X115668394Y-39061469D01*
X115598907Y-39054026D01*
X115536282Y-39037001D01*
X115513795Y-39027044D01*
X115442646Y-38979486D01*
X115385147Y-38917548D01*
X115342634Y-38843013D01*
X115318086Y-38765695D01*
X115311916Y-38690229D01*
X115324053Y-38613561D01*
G37*
X115324053Y-38613561D02*
X115353147Y-38539637D01*
X115397849Y-38472407D01*
X115429896Y-38438501D01*
X115479434Y-38396951D01*
X115526314Y-38369317D01*
X115576851Y-38353195D01*
X115637359Y-38346187D01*
X115674890Y-38345346D01*
X115724076Y-38346088D01*
X115759887Y-38349248D01*
X115789231Y-38356035D01*
X115819018Y-38367658D01*
X115829286Y-38372369D01*
X115897380Y-38414818D01*
X115956391Y-38472425D01*
X116001587Y-38540495D01*
X116004293Y-38545903D01*
X116025302Y-38605522D01*
X116036503Y-38673895D01*
X116037241Y-38742835D01*
X116026856Y-38804154D01*
X116025412Y-38808839D01*
X115991579Y-38882285D01*
X115941493Y-38948050D01*
X115878852Y-39002315D01*
X115807353Y-39041265D01*
X115796152Y-39045529D01*
X115736793Y-39058811D01*
X115673238Y-39061280D01*
X115673238Y-38812599D01*
X115709833Y-38809867D01*
X115735409Y-38799786D01*
X115750494Y-38787759D01*
X115777358Y-38750260D01*
X115788325Y-38706748D01*
X115783035Y-38662929D01*
X115761128Y-38624507D01*
X115760823Y-38624168D01*
X115725247Y-38598177D01*
X115683702Y-38587926D01*
X115641650Y-38592993D01*
X115604555Y-38612956D01*
X115583002Y-38637893D01*
X115564923Y-38684254D01*
X115566182Y-38729981D01*
X115586561Y-38771917D01*
X115592776Y-38779419D01*
X115613925Y-38799964D01*
X115634913Y-38809739D01*
X115664947Y-38812542D01*
X115673238Y-38812599D01*
X115673238Y-39061280D01*
X115668394Y-39061469D01*
X115598907Y-39054026D01*
X115536282Y-39037001D01*
X115513795Y-39027044D01*
X115442646Y-38979486D01*
X115385147Y-38917548D01*
X115342634Y-38843013D01*
X115318086Y-38765695D01*
X115311916Y-38690229D01*
X115324053Y-38613561D01*
D13*
X99226482Y-40774950D02*
G75*
G03*
X99226482Y-40774950I-50000J0D01*
G01*
D10*
X105691482Y-43439950D02*
X105691482Y-35559950D01*
X101221482Y-34389950D02*
X101221482Y-35439950D01*
X103721482Y-34389950D02*
X101221482Y-34389950D01*
X101221482Y-43559950D02*
X100231482Y-43559950D01*
X101221482Y-44609950D02*
X101221482Y-43559950D01*
X103721482Y-44609950D02*
X101221482Y-44609950D01*
D13*
X86223438Y-40774950D02*
G75*
G03*
X86223438Y-40774950I-50000J0D01*
G01*
D10*
X92688438Y-43439950D02*
X92688438Y-35559950D01*
X88218438Y-34389950D02*
X88218438Y-35439950D01*
X90718438Y-34389950D02*
X88218438Y-34389950D01*
X88218438Y-43559950D02*
X87228438Y-43559950D01*
X88218438Y-44609950D02*
X88218438Y-43559950D01*
X90718438Y-44609950D02*
X88218438Y-44609950D01*
D13*
X68463039Y-42799999D02*
G75*
G03*
X68463039Y-42799999I-50000J0D01*
G01*
D14*
G36*
X68069766Y-39502186D02*
G01*
X68096793Y-39413507D01*
X68142509Y-39331785D01*
X68207463Y-39255779D01*
X68216852Y-39246722D01*
X68285074Y-39191879D01*
X68357408Y-39153869D01*
X68437290Y-39131499D01*
X68528156Y-39123571D01*
X68568871Y-39124197D01*
X68617715Y-39126855D01*
X68653842Y-39131414D01*
X68684854Y-39139704D01*
X68718352Y-39153556D01*
X68745939Y-39166844D01*
X68829976Y-39218049D01*
X68898424Y-39281544D01*
X68953157Y-39359228D01*
X68972479Y-39396485D01*
X69010839Y-39477528D01*
X69170859Y-39477804D01*
X69330879Y-39478079D01*
X69331055Y-38982779D01*
X69331179Y-38860904D01*
X69331562Y-38757361D01*
X69332358Y-38670164D01*
X69333722Y-38597327D01*
X69335808Y-38536862D01*
X69338772Y-38486784D01*
X69342767Y-38445105D01*
X69347950Y-38409839D01*
X69354473Y-38378998D01*
X69362493Y-38350597D01*
X69372163Y-38322648D01*
X69383640Y-38293165D01*
X69385029Y-38289718D01*
X69425880Y-38202870D01*
X69475648Y-38125589D01*
X69539064Y-38050755D01*
X69554399Y-38034846D01*
X69648702Y-37952439D01*
X69751675Y-37888406D01*
X69847184Y-37848030D01*
X69910488Y-37830016D01*
X69982030Y-37815235D01*
X70052779Y-37805265D01*
X70112803Y-37801679D01*
X70138421Y-37800120D01*
X70150880Y-37791475D01*
X70157309Y-37769796D01*
X70158461Y-37763579D01*
X70172093Y-37716861D01*
X70196276Y-37661233D01*
X70227769Y-37602710D01*
X70263328Y-37547301D01*
X70299711Y-37501018D01*
X70300671Y-37499955D01*
X70370825Y-37433803D01*
X70452142Y-37375748D01*
X70537649Y-37330486D01*
X70573689Y-37316222D01*
X70647383Y-37297145D01*
X70731709Y-37286497D01*
X70818633Y-37284686D01*
X70900117Y-37292117D01*
X70931079Y-37298160D01*
X71034776Y-37332616D01*
X71131314Y-37384619D01*
X71218345Y-37451976D01*
X71293520Y-37532493D01*
X71354492Y-37623976D01*
X71398912Y-37724231D01*
X71404082Y-37740150D01*
X71415813Y-37771811D01*
X71427978Y-37794997D01*
X71435306Y-37802871D01*
X71451806Y-37807707D01*
X71482099Y-37813995D01*
X71519847Y-37820428D01*
X71522570Y-37820845D01*
X71631412Y-37847412D01*
X71735287Y-37892337D01*
X71832198Y-37953877D01*
X71920148Y-38030287D01*
X71997139Y-38119825D01*
X72061175Y-38220745D01*
X72110256Y-38331305D01*
X72111592Y-38335079D01*
X72140119Y-38416359D01*
X72141977Y-39574599D01*
X72142233Y-39760294D01*
X72142367Y-39926693D01*
X72142369Y-40074821D01*
X72142230Y-40205703D01*
X72141939Y-40320363D01*
X72141488Y-40419826D01*
X72140865Y-40505116D01*
X72140062Y-40577258D01*
X72139070Y-40637275D01*
X72137877Y-40686193D01*
X72136474Y-40725036D01*
X72134853Y-40754829D01*
X72133002Y-40776595D01*
X72130912Y-40791360D01*
X72130413Y-40793799D01*
X72096330Y-40904485D01*
X72045365Y-41008517D01*
X71979576Y-41103917D01*
X71901018Y-41188704D01*
X71811747Y-41260898D01*
X71713818Y-41318520D01*
X71609289Y-41359589D01*
X71522570Y-41379154D01*
X71484541Y-41385549D01*
X71453529Y-41391889D01*
X71435872Y-41396868D01*
X71435306Y-41397128D01*
X71424862Y-41410011D01*
X71412498Y-41436098D01*
X71404082Y-41459849D01*
X71369119Y-41549041D01*
X71320891Y-41630204D01*
X71256374Y-41708184D01*
X71236349Y-41728745D01*
X71151694Y-41802096D01*
X71063035Y-41856409D01*
X70968093Y-41892557D01*
X70864589Y-41911414D01*
X70764145Y-41913736D01*
X70764145Y-41669700D01*
X70844158Y-41664992D01*
X70845190Y-41664802D01*
X70934146Y-41639302D01*
X71011455Y-41598458D01*
X71066964Y-41552028D01*
X71094620Y-41520201D01*
X71120987Y-41484049D01*
X71142734Y-41448822D01*
X71156529Y-41419770D01*
X71159670Y-41405939D01*
X71149885Y-41404214D01*
X71122016Y-41402625D01*
X71078300Y-41401218D01*
X71020971Y-41400039D01*
X70952268Y-41399133D01*
X70874425Y-41398545D01*
X70789679Y-41398320D01*
X70783759Y-41398319D01*
X70698626Y-41398461D01*
X70620246Y-41398862D01*
X70550853Y-41399492D01*
X70492684Y-41400319D01*
X70491863Y-41400337D01*
X70491863Y-41142739D01*
X70638057Y-41142528D01*
X70769147Y-41142103D01*
X71500039Y-41139239D01*
X71559375Y-41115307D01*
X71653476Y-41067106D01*
X71734556Y-41004380D01*
X71801241Y-40928756D01*
X71852156Y-40841860D01*
X71885928Y-40745319D01*
X71890975Y-40722679D01*
X71892340Y-40705729D01*
X71893597Y-40670105D01*
X71894747Y-40617455D01*
X71895788Y-40549426D01*
X71896720Y-40467664D01*
X71897541Y-40373817D01*
X71898253Y-40269530D01*
X71898853Y-40156452D01*
X71899341Y-40036227D01*
X71899716Y-39910504D01*
X71899979Y-39780930D01*
X71900127Y-39649150D01*
X71900161Y-39516812D01*
X71900080Y-39385562D01*
X71899883Y-39257048D01*
X71899569Y-39132915D01*
X71899138Y-39014812D01*
X71898589Y-38904384D01*
X71897922Y-38803278D01*
X71897135Y-38713142D01*
X71896228Y-38635622D01*
X71895201Y-38572364D01*
X71894053Y-38525016D01*
X71892783Y-38495224D01*
X71891878Y-38485985D01*
X71862903Y-38385229D01*
X71816675Y-38294492D01*
X71754330Y-38215145D01*
X71677004Y-38148558D01*
X71585832Y-38096100D01*
X71559375Y-38084692D01*
X71500039Y-38060759D01*
X70777957Y-38057931D01*
X70777957Y-37801679D01*
X71161048Y-37801679D01*
X71154404Y-37778819D01*
X71145321Y-37758496D01*
X71128395Y-37728666D01*
X71110741Y-37701022D01*
X71055313Y-37635676D01*
X70989319Y-37585895D01*
X70915521Y-37551907D01*
X70836685Y-37533939D01*
X70755572Y-37532219D01*
X70674948Y-37546974D01*
X70597575Y-37578434D01*
X70526216Y-37626825D01*
X70500250Y-37650698D01*
X70477413Y-37676928D01*
X70453309Y-37709885D01*
X70431392Y-37744131D01*
X70415114Y-37774229D01*
X70407926Y-37794739D01*
X70407839Y-37796262D01*
X70417626Y-37797488D01*
X70445499Y-37798616D01*
X70489224Y-37799616D01*
X70546567Y-37800454D01*
X70615292Y-37801099D01*
X70693167Y-37801518D01*
X70777957Y-37801679D01*
X70777957Y-38057931D01*
X70769147Y-38057896D01*
X70600936Y-38057400D01*
X70453005Y-38057309D01*
X70325319Y-38057623D01*
X70217843Y-38058344D01*
X70130540Y-38059471D01*
X70063377Y-38061005D01*
X70016316Y-38062946D01*
X69989323Y-38065294D01*
X69986167Y-38065846D01*
X69896186Y-38094618D01*
X69812420Y-38141147D01*
X69737308Y-38203228D01*
X69673290Y-38278652D01*
X69622804Y-38365212D01*
X69603234Y-38412432D01*
X69579799Y-38477319D01*
X69576849Y-39539039D01*
X69576445Y-39721934D01*
X69576282Y-39891294D01*
X69576356Y-40046408D01*
X69576662Y-40186563D01*
X69577197Y-40311049D01*
X69577955Y-40419154D01*
X69578931Y-40510165D01*
X69580122Y-40583371D01*
X69581523Y-40638060D01*
X69583130Y-40673520D01*
X69584066Y-40684300D01*
X69603142Y-40779841D01*
X69636793Y-40864408D01*
X69687040Y-40942057D01*
X69743741Y-41005093D01*
X69797704Y-41048955D01*
X69863616Y-41088413D01*
X69933108Y-41118988D01*
X69984159Y-41133736D01*
X70004941Y-41136182D01*
X70042138Y-41138232D01*
X70096251Y-41139892D01*
X70167779Y-41141167D01*
X70257224Y-41142063D01*
X70365085Y-41142585D01*
X70491863Y-41142739D01*
X70491863Y-41400337D01*
X70447976Y-41401309D01*
X70418964Y-41402431D01*
X70407885Y-41403652D01*
X70407839Y-41403737D01*
X70412069Y-41415096D01*
X70422948Y-41438532D01*
X70432761Y-41458338D01*
X70477759Y-41525863D01*
X70537033Y-41582582D01*
X70606946Y-41626674D01*
X70683862Y-41656321D01*
X70764145Y-41669700D01*
X70764145Y-41913736D01*
X70753279Y-41913988D01*
X70639493Y-41900324D01*
X70535446Y-41869046D01*
X70440000Y-41819625D01*
X70352020Y-41751528D01*
X70304866Y-41704250D01*
X70265886Y-41655758D01*
X70228504Y-41598680D01*
X70195945Y-41538893D01*
X70171435Y-41482277D01*
X70158730Y-41437852D01*
X70152115Y-41401185D01*
X70064803Y-41394473D01*
X69958316Y-41381415D01*
X69864770Y-41358994D01*
X69782223Y-41327586D01*
X69675717Y-41268330D01*
X69580015Y-41192791D01*
X69496993Y-41102941D01*
X69428528Y-41000752D01*
X69385029Y-40910281D01*
X69373343Y-40880505D01*
X69363480Y-40852484D01*
X69355285Y-40824231D01*
X69348603Y-40793759D01*
X69343280Y-40759081D01*
X69339161Y-40718210D01*
X69336091Y-40669160D01*
X69333915Y-40609944D01*
X69332479Y-40538575D01*
X69331627Y-40453067D01*
X69331206Y-40351433D01*
X69331061Y-40231686D01*
X69331055Y-40217219D01*
X69330879Y-39721919D01*
X69010839Y-39722471D01*
X68972479Y-39803514D01*
X68922939Y-39887714D01*
X68860470Y-39956928D01*
X68783199Y-40013056D01*
X68745939Y-40033155D01*
X68706529Y-40051753D01*
X68674695Y-40063562D01*
X68642832Y-40070416D01*
X68603341Y-40074143D01*
X68568871Y-40075802D01*
X68559189Y-40075469D01*
X68559189Y-39832206D01*
X68591838Y-39826703D01*
X68629602Y-39812014D01*
X68632323Y-39810774D01*
X68691182Y-39773626D01*
X68734785Y-39724499D01*
X68761902Y-39666119D01*
X68771302Y-39601213D01*
X68761752Y-39532506D01*
X68760287Y-39527441D01*
X68735190Y-39475897D01*
X68694580Y-39429736D01*
X68643262Y-39394069D01*
X68628145Y-39386880D01*
X68564705Y-39369936D01*
X68501015Y-39371836D01*
X68440502Y-39391439D01*
X68386592Y-39427604D01*
X68342712Y-39479190D01*
X68340547Y-39482631D01*
X68322822Y-39514753D01*
X68313490Y-39543841D01*
X68310070Y-39579372D01*
X68309799Y-39599999D01*
X68311368Y-39641526D01*
X68317730Y-39672342D01*
X68331369Y-39701925D01*
X68340547Y-39717368D01*
X68384788Y-39770454D01*
X68441124Y-39808182D01*
X68506483Y-39828623D01*
X68520539Y-39830485D01*
X68559189Y-39832206D01*
X68559189Y-40075469D01*
X68468231Y-40072335D01*
X68378991Y-40052824D01*
X68299154Y-40016504D01*
X68226720Y-39962608D01*
X68196513Y-39932952D01*
X68135518Y-39857648D01*
X68093482Y-39779660D01*
X68069056Y-39695662D01*
X68060887Y-39602331D01*
X68060878Y-39599061D01*
X68069766Y-39502186D01*
G37*
X68069766Y-39502186D02*
X68096793Y-39413507D01*
X68142509Y-39331785D01*
X68207463Y-39255779D01*
X68216852Y-39246722D01*
X68285074Y-39191879D01*
X68357408Y-39153869D01*
X68437290Y-39131499D01*
X68528156Y-39123571D01*
X68568871Y-39124197D01*
X68617715Y-39126855D01*
X68653842Y-39131414D01*
X68684854Y-39139704D01*
X68718352Y-39153556D01*
X68745939Y-39166844D01*
X68829976Y-39218049D01*
X68898424Y-39281544D01*
X68953157Y-39359228D01*
X68972479Y-39396485D01*
X69010839Y-39477528D01*
X69170859Y-39477804D01*
X69330879Y-39478079D01*
X69331055Y-38982779D01*
X69331179Y-38860904D01*
X69331562Y-38757361D01*
X69332358Y-38670164D01*
X69333722Y-38597327D01*
X69335808Y-38536862D01*
X69338772Y-38486784D01*
X69342767Y-38445105D01*
X69347950Y-38409839D01*
X69354473Y-38378998D01*
X69362493Y-38350597D01*
X69372163Y-38322648D01*
X69383640Y-38293165D01*
X69385029Y-38289718D01*
X69425880Y-38202870D01*
X69475648Y-38125589D01*
X69539064Y-38050755D01*
X69554399Y-38034846D01*
X69648702Y-37952439D01*
X69751675Y-37888406D01*
X69847184Y-37848030D01*
X69910488Y-37830016D01*
X69982030Y-37815235D01*
X70052779Y-37805265D01*
X70112803Y-37801679D01*
X70138421Y-37800120D01*
X70150880Y-37791475D01*
X70157309Y-37769796D01*
X70158461Y-37763579D01*
X70172093Y-37716861D01*
X70196276Y-37661233D01*
X70227769Y-37602710D01*
X70263328Y-37547301D01*
X70299711Y-37501018D01*
X70300671Y-37499955D01*
X70370825Y-37433803D01*
X70452142Y-37375748D01*
X70537649Y-37330486D01*
X70573689Y-37316222D01*
X70647383Y-37297145D01*
X70731709Y-37286497D01*
X70818633Y-37284686D01*
X70900117Y-37292117D01*
X70931079Y-37298160D01*
X71034776Y-37332616D01*
X71131314Y-37384619D01*
X71218345Y-37451976D01*
X71293520Y-37532493D01*
X71354492Y-37623976D01*
X71398912Y-37724231D01*
X71404082Y-37740150D01*
X71415813Y-37771811D01*
X71427978Y-37794997D01*
X71435306Y-37802871D01*
X71451806Y-37807707D01*
X71482099Y-37813995D01*
X71519847Y-37820428D01*
X71522570Y-37820845D01*
X71631412Y-37847412D01*
X71735287Y-37892337D01*
X71832198Y-37953877D01*
X71920148Y-38030287D01*
X71997139Y-38119825D01*
X72061175Y-38220745D01*
X72110256Y-38331305D01*
X72111592Y-38335079D01*
X72140119Y-38416359D01*
X72141977Y-39574599D01*
X72142233Y-39760294D01*
X72142367Y-39926693D01*
X72142369Y-40074821D01*
X72142230Y-40205703D01*
X72141939Y-40320363D01*
X72141488Y-40419826D01*
X72140865Y-40505116D01*
X72140062Y-40577258D01*
X72139070Y-40637275D01*
X72137877Y-40686193D01*
X72136474Y-40725036D01*
X72134853Y-40754829D01*
X72133002Y-40776595D01*
X72130912Y-40791360D01*
X72130413Y-40793799D01*
X72096330Y-40904485D01*
X72045365Y-41008517D01*
X71979576Y-41103917D01*
X71901018Y-41188704D01*
X71811747Y-41260898D01*
X71713818Y-41318520D01*
X71609289Y-41359589D01*
X71522570Y-41379154D01*
X71484541Y-41385549D01*
X71453529Y-41391889D01*
X71435872Y-41396868D01*
X71435306Y-41397128D01*
X71424862Y-41410011D01*
X71412498Y-41436098D01*
X71404082Y-41459849D01*
X71369119Y-41549041D01*
X71320891Y-41630204D01*
X71256374Y-41708184D01*
X71236349Y-41728745D01*
X71151694Y-41802096D01*
X71063035Y-41856409D01*
X70968093Y-41892557D01*
X70864589Y-41911414D01*
X70764145Y-41913736D01*
X70764145Y-41669700D01*
X70844158Y-41664992D01*
X70845190Y-41664802D01*
X70934146Y-41639302D01*
X71011455Y-41598458D01*
X71066964Y-41552028D01*
X71094620Y-41520201D01*
X71120987Y-41484049D01*
X71142734Y-41448822D01*
X71156529Y-41419770D01*
X71159670Y-41405939D01*
X71149885Y-41404214D01*
X71122016Y-41402625D01*
X71078300Y-41401218D01*
X71020971Y-41400039D01*
X70952268Y-41399133D01*
X70874425Y-41398545D01*
X70789679Y-41398320D01*
X70783759Y-41398319D01*
X70698626Y-41398461D01*
X70620246Y-41398862D01*
X70550853Y-41399492D01*
X70492684Y-41400319D01*
X70491863Y-41400337D01*
X70491863Y-41142739D01*
X70638057Y-41142528D01*
X70769147Y-41142103D01*
X71500039Y-41139239D01*
X71559375Y-41115307D01*
X71653476Y-41067106D01*
X71734556Y-41004380D01*
X71801241Y-40928756D01*
X71852156Y-40841860D01*
X71885928Y-40745319D01*
X71890975Y-40722679D01*
X71892340Y-40705729D01*
X71893597Y-40670105D01*
X71894747Y-40617455D01*
X71895788Y-40549426D01*
X71896720Y-40467664D01*
X71897541Y-40373817D01*
X71898253Y-40269530D01*
X71898853Y-40156452D01*
X71899341Y-40036227D01*
X71899716Y-39910504D01*
X71899979Y-39780930D01*
X71900127Y-39649150D01*
X71900161Y-39516812D01*
X71900080Y-39385562D01*
X71899883Y-39257048D01*
X71899569Y-39132915D01*
X71899138Y-39014812D01*
X71898589Y-38904384D01*
X71897922Y-38803278D01*
X71897135Y-38713142D01*
X71896228Y-38635622D01*
X71895201Y-38572364D01*
X71894053Y-38525016D01*
X71892783Y-38495224D01*
X71891878Y-38485985D01*
X71862903Y-38385229D01*
X71816675Y-38294492D01*
X71754330Y-38215145D01*
X71677004Y-38148558D01*
X71585832Y-38096100D01*
X71559375Y-38084692D01*
X71500039Y-38060759D01*
X70777957Y-38057931D01*
X70777957Y-37801679D01*
X71161048Y-37801679D01*
X71154404Y-37778819D01*
X71145321Y-37758496D01*
X71128395Y-37728666D01*
X71110741Y-37701022D01*
X71055313Y-37635676D01*
X70989319Y-37585895D01*
X70915521Y-37551907D01*
X70836685Y-37533939D01*
X70755572Y-37532219D01*
X70674948Y-37546974D01*
X70597575Y-37578434D01*
X70526216Y-37626825D01*
X70500250Y-37650698D01*
X70477413Y-37676928D01*
X70453309Y-37709885D01*
X70431392Y-37744131D01*
X70415114Y-37774229D01*
X70407926Y-37794739D01*
X70407839Y-37796262D01*
X70417626Y-37797488D01*
X70445499Y-37798616D01*
X70489224Y-37799616D01*
X70546567Y-37800454D01*
X70615292Y-37801099D01*
X70693167Y-37801518D01*
X70777957Y-37801679D01*
X70777957Y-38057931D01*
X70769147Y-38057896D01*
X70600936Y-38057400D01*
X70453005Y-38057309D01*
X70325319Y-38057623D01*
X70217843Y-38058344D01*
X70130540Y-38059471D01*
X70063377Y-38061005D01*
X70016316Y-38062946D01*
X69989323Y-38065294D01*
X69986167Y-38065846D01*
X69896186Y-38094618D01*
X69812420Y-38141147D01*
X69737308Y-38203228D01*
X69673290Y-38278652D01*
X69622804Y-38365212D01*
X69603234Y-38412432D01*
X69579799Y-38477319D01*
X69576849Y-39539039D01*
X69576445Y-39721934D01*
X69576282Y-39891294D01*
X69576356Y-40046408D01*
X69576662Y-40186563D01*
X69577197Y-40311049D01*
X69577955Y-40419154D01*
X69578931Y-40510165D01*
X69580122Y-40583371D01*
X69581523Y-40638060D01*
X69583130Y-40673520D01*
X69584066Y-40684300D01*
X69603142Y-40779841D01*
X69636793Y-40864408D01*
X69687040Y-40942057D01*
X69743741Y-41005093D01*
X69797704Y-41048955D01*
X69863616Y-41088413D01*
X69933108Y-41118988D01*
X69984159Y-41133736D01*
X70004941Y-41136182D01*
X70042138Y-41138232D01*
X70096251Y-41139892D01*
X70167779Y-41141167D01*
X70257224Y-41142063D01*
X70365085Y-41142585D01*
X70491863Y-41142739D01*
X70491863Y-41400337D01*
X70447976Y-41401309D01*
X70418964Y-41402431D01*
X70407885Y-41403652D01*
X70407839Y-41403737D01*
X70412069Y-41415096D01*
X70422948Y-41438532D01*
X70432761Y-41458338D01*
X70477759Y-41525863D01*
X70537033Y-41582582D01*
X70606946Y-41626674D01*
X70683862Y-41656321D01*
X70764145Y-41669700D01*
X70764145Y-41913736D01*
X70753279Y-41913988D01*
X70639493Y-41900324D01*
X70535446Y-41869046D01*
X70440000Y-41819625D01*
X70352020Y-41751528D01*
X70304866Y-41704250D01*
X70265886Y-41655758D01*
X70228504Y-41598680D01*
X70195945Y-41538893D01*
X70171435Y-41482277D01*
X70158730Y-41437852D01*
X70152115Y-41401185D01*
X70064803Y-41394473D01*
X69958316Y-41381415D01*
X69864770Y-41358994D01*
X69782223Y-41327586D01*
X69675717Y-41268330D01*
X69580015Y-41192791D01*
X69496993Y-41102941D01*
X69428528Y-41000752D01*
X69385029Y-40910281D01*
X69373343Y-40880505D01*
X69363480Y-40852484D01*
X69355285Y-40824231D01*
X69348603Y-40793759D01*
X69343280Y-40759081D01*
X69339161Y-40718210D01*
X69336091Y-40669160D01*
X69333915Y-40609944D01*
X69332479Y-40538575D01*
X69331627Y-40453067D01*
X69331206Y-40351433D01*
X69331061Y-40231686D01*
X69331055Y-40217219D01*
X69330879Y-39721919D01*
X69010839Y-39722471D01*
X68972479Y-39803514D01*
X68922939Y-39887714D01*
X68860470Y-39956928D01*
X68783199Y-40013056D01*
X68745939Y-40033155D01*
X68706529Y-40051753D01*
X68674695Y-40063562D01*
X68642832Y-40070416D01*
X68603341Y-40074143D01*
X68568871Y-40075802D01*
X68559189Y-40075469D01*
X68559189Y-39832206D01*
X68591838Y-39826703D01*
X68629602Y-39812014D01*
X68632323Y-39810774D01*
X68691182Y-39773626D01*
X68734785Y-39724499D01*
X68761902Y-39666119D01*
X68771302Y-39601213D01*
X68761752Y-39532506D01*
X68760287Y-39527441D01*
X68735190Y-39475897D01*
X68694580Y-39429736D01*
X68643262Y-39394069D01*
X68628145Y-39386880D01*
X68564705Y-39369936D01*
X68501015Y-39371836D01*
X68440502Y-39391439D01*
X68386592Y-39427604D01*
X68342712Y-39479190D01*
X68340547Y-39482631D01*
X68322822Y-39514753D01*
X68313490Y-39543841D01*
X68310070Y-39579372D01*
X68309799Y-39599999D01*
X68311368Y-39641526D01*
X68317730Y-39672342D01*
X68331369Y-39701925D01*
X68340547Y-39717368D01*
X68384788Y-39770454D01*
X68441124Y-39808182D01*
X68506483Y-39828623D01*
X68520539Y-39830485D01*
X68559189Y-39832206D01*
X68559189Y-40075469D01*
X68468231Y-40072335D01*
X68378991Y-40052824D01*
X68299154Y-40016504D01*
X68226720Y-39962608D01*
X68196513Y-39932952D01*
X68135518Y-39857648D01*
X68093482Y-39779660D01*
X68069056Y-39695662D01*
X68060887Y-39602331D01*
X68060878Y-39599061D01*
X68069766Y-39502186D01*
G36*
X71211113Y-39490351D02*
G01*
X71212034Y-39418022D01*
X71213433Y-39353171D01*
X71215312Y-39298888D01*
X71217669Y-39258259D01*
X71220505Y-39234374D01*
X71220992Y-39232353D01*
X71242792Y-39188585D01*
X71278294Y-39158082D01*
X71323876Y-39143606D01*
X71338407Y-39142799D01*
X71370615Y-39145700D01*
X71396352Y-39157160D01*
X71421448Y-39177569D01*
X71459399Y-39212339D01*
X71461901Y-39586509D01*
X71462462Y-39686108D01*
X71462638Y-39767410D01*
X71462365Y-39832437D01*
X71461579Y-39883211D01*
X71460213Y-39921752D01*
X71458203Y-39950082D01*
X71455485Y-39970223D01*
X71451994Y-39984194D01*
X71448909Y-39991681D01*
X71420849Y-40027255D01*
X71382098Y-40049563D01*
X71338089Y-40057457D01*
X71294261Y-40049785D01*
X71262355Y-40031146D01*
X71238677Y-40003630D01*
X71222046Y-39971099D01*
X71220992Y-39967646D01*
X71218081Y-39946659D01*
X71215649Y-39908446D01*
X71213695Y-39856095D01*
X71212221Y-39792693D01*
X71211225Y-39721330D01*
X71210709Y-39645093D01*
X71210672Y-39567071D01*
X71211113Y-39490351D01*
G37*
X71211113Y-39490351D02*
X71212034Y-39418022D01*
X71213433Y-39353171D01*
X71215312Y-39298888D01*
X71217669Y-39258259D01*
X71220505Y-39234374D01*
X71220992Y-39232353D01*
X71242792Y-39188585D01*
X71278294Y-39158082D01*
X71323876Y-39143606D01*
X71338407Y-39142799D01*
X71370615Y-39145700D01*
X71396352Y-39157160D01*
X71421448Y-39177569D01*
X71459399Y-39212339D01*
X71461901Y-39586509D01*
X71462462Y-39686108D01*
X71462638Y-39767410D01*
X71462365Y-39832437D01*
X71461579Y-39883211D01*
X71460213Y-39921752D01*
X71458203Y-39950082D01*
X71455485Y-39970223D01*
X71451994Y-39984194D01*
X71448909Y-39991681D01*
X71420849Y-40027255D01*
X71382098Y-40049563D01*
X71338089Y-40057457D01*
X71294261Y-40049785D01*
X71262355Y-40031146D01*
X71238677Y-40003630D01*
X71222046Y-39971099D01*
X71220992Y-39967646D01*
X71218081Y-39946659D01*
X71215649Y-39908446D01*
X71213695Y-39856095D01*
X71212221Y-39792693D01*
X71211225Y-39721330D01*
X71210709Y-39645093D01*
X71210672Y-39567071D01*
X71211113Y-39490351D01*
G36*
X70109780Y-40452963D02*
G01*
X70114685Y-40417724D01*
X70125360Y-40384162D01*
X70140313Y-40350303D01*
X70186793Y-40273758D01*
X70247029Y-40212126D01*
X70308432Y-40171846D01*
X70334838Y-40158896D01*
X70358611Y-40150619D01*
X70385573Y-40145989D01*
X70421548Y-40143979D01*
X70468799Y-40143559D01*
X70517515Y-40143919D01*
X70551943Y-40145818D01*
X70578112Y-40150485D01*
X70602050Y-40159148D01*
X70629788Y-40173037D01*
X70639751Y-40178407D01*
X70711267Y-40227832D01*
X70767124Y-40289347D01*
X70806263Y-40361288D01*
X70827624Y-40441997D01*
X70831048Y-40478284D01*
X70830816Y-40522976D01*
X70826854Y-40567259D01*
X70821141Y-40596901D01*
X70789739Y-40671872D01*
X70741508Y-40738465D01*
X70679186Y-40793764D01*
X70605514Y-40834860D01*
X70592268Y-40840145D01*
X70531213Y-40854920D01*
X70482961Y-40857528D01*
X70482961Y-40611774D01*
X70522435Y-40600460D01*
X70553653Y-40576343D01*
X70574535Y-40542975D01*
X70583005Y-40503904D01*
X70576986Y-40462680D01*
X70554399Y-40422854D01*
X70548696Y-40416408D01*
X70513955Y-40392326D01*
X70474369Y-40384474D01*
X70434458Y-40391049D01*
X70398740Y-40410247D01*
X70371733Y-40440264D01*
X70357955Y-40479297D01*
X70357076Y-40492910D01*
X70365927Y-40540382D01*
X70390554Y-40578564D01*
X70428231Y-40603587D01*
X70437306Y-40606737D01*
X70482961Y-40611774D01*
X70482961Y-40857528D01*
X70461578Y-40858685D01*
X70391691Y-40851703D01*
X70329880Y-40834235D01*
X70324011Y-40831720D01*
X70267287Y-40797753D01*
X70212796Y-40749679D01*
X70166372Y-40693385D01*
X70137697Y-40643659D01*
X70121731Y-40604495D01*
X70112845Y-40569084D01*
X70109163Y-40528074D01*
X70108673Y-40499159D01*
X70109780Y-40452963D01*
G37*
X70109780Y-40452963D02*
X70114685Y-40417724D01*
X70125360Y-40384162D01*
X70140313Y-40350303D01*
X70186793Y-40273758D01*
X70247029Y-40212126D01*
X70308432Y-40171846D01*
X70334838Y-40158896D01*
X70358611Y-40150619D01*
X70385573Y-40145989D01*
X70421548Y-40143979D01*
X70468799Y-40143559D01*
X70517515Y-40143919D01*
X70551943Y-40145818D01*
X70578112Y-40150485D01*
X70602050Y-40159148D01*
X70629788Y-40173037D01*
X70639751Y-40178407D01*
X70711267Y-40227832D01*
X70767124Y-40289347D01*
X70806263Y-40361288D01*
X70827624Y-40441997D01*
X70831048Y-40478284D01*
X70830816Y-40522976D01*
X70826854Y-40567259D01*
X70821141Y-40596901D01*
X70789739Y-40671872D01*
X70741508Y-40738465D01*
X70679186Y-40793764D01*
X70605514Y-40834860D01*
X70592268Y-40840145D01*
X70531213Y-40854920D01*
X70482961Y-40857528D01*
X70482961Y-40611774D01*
X70522435Y-40600460D01*
X70553653Y-40576343D01*
X70574535Y-40542975D01*
X70583005Y-40503904D01*
X70576986Y-40462680D01*
X70554399Y-40422854D01*
X70548696Y-40416408D01*
X70513955Y-40392326D01*
X70474369Y-40384474D01*
X70434458Y-40391049D01*
X70398740Y-40410247D01*
X70371733Y-40440264D01*
X70357955Y-40479297D01*
X70357076Y-40492910D01*
X70365927Y-40540382D01*
X70390554Y-40578564D01*
X70428231Y-40603587D01*
X70437306Y-40606737D01*
X70482961Y-40611774D01*
X70482961Y-40857528D01*
X70461578Y-40858685D01*
X70391691Y-40851703D01*
X70329880Y-40834235D01*
X70324011Y-40831720D01*
X70267287Y-40797753D01*
X70212796Y-40749679D01*
X70166372Y-40693385D01*
X70137697Y-40643659D01*
X70121731Y-40604495D01*
X70112845Y-40569084D01*
X70109163Y-40528074D01*
X70108673Y-40499159D01*
X70109780Y-40452963D01*
G36*
X70117962Y-38613561D02*
G01*
X70147056Y-38539637D01*
X70191758Y-38472407D01*
X70223805Y-38438501D01*
X70273343Y-38396951D01*
X70320223Y-38369317D01*
X70370760Y-38353195D01*
X70431268Y-38346187D01*
X70468799Y-38345346D01*
X70517985Y-38346088D01*
X70553796Y-38349248D01*
X70583140Y-38356035D01*
X70612927Y-38367658D01*
X70623195Y-38372369D01*
X70691289Y-38414818D01*
X70750300Y-38472425D01*
X70795496Y-38540495D01*
X70798202Y-38545903D01*
X70819211Y-38605522D01*
X70830412Y-38673895D01*
X70831150Y-38742835D01*
X70820765Y-38804154D01*
X70819321Y-38808839D01*
X70785488Y-38882285D01*
X70735402Y-38948050D01*
X70672761Y-39002315D01*
X70601262Y-39041265D01*
X70590061Y-39045529D01*
X70530702Y-39058811D01*
X70467147Y-39061280D01*
X70467147Y-38812599D01*
X70503742Y-38809867D01*
X70529318Y-38799786D01*
X70544403Y-38787759D01*
X70571267Y-38750260D01*
X70582234Y-38706748D01*
X70576944Y-38662929D01*
X70555037Y-38624507D01*
X70554732Y-38624168D01*
X70519156Y-38598177D01*
X70477611Y-38587926D01*
X70435559Y-38592993D01*
X70398464Y-38612956D01*
X70376911Y-38637893D01*
X70358832Y-38684254D01*
X70360091Y-38729981D01*
X70380470Y-38771917D01*
X70386685Y-38779419D01*
X70407834Y-38799964D01*
X70428822Y-38809739D01*
X70458856Y-38812542D01*
X70467147Y-38812599D01*
X70467147Y-39061280D01*
X70462303Y-39061469D01*
X70392816Y-39054026D01*
X70330191Y-39037001D01*
X70307704Y-39027044D01*
X70236555Y-38979486D01*
X70179056Y-38917548D01*
X70136543Y-38843013D01*
X70111995Y-38765695D01*
X70105825Y-38690229D01*
X70117962Y-38613561D01*
G37*
X70117962Y-38613561D02*
X70147056Y-38539637D01*
X70191758Y-38472407D01*
X70223805Y-38438501D01*
X70273343Y-38396951D01*
X70320223Y-38369317D01*
X70370760Y-38353195D01*
X70431268Y-38346187D01*
X70468799Y-38345346D01*
X70517985Y-38346088D01*
X70553796Y-38349248D01*
X70583140Y-38356035D01*
X70612927Y-38367658D01*
X70623195Y-38372369D01*
X70691289Y-38414818D01*
X70750300Y-38472425D01*
X70795496Y-38540495D01*
X70798202Y-38545903D01*
X70819211Y-38605522D01*
X70830412Y-38673895D01*
X70831150Y-38742835D01*
X70820765Y-38804154D01*
X70819321Y-38808839D01*
X70785488Y-38882285D01*
X70735402Y-38948050D01*
X70672761Y-39002315D01*
X70601262Y-39041265D01*
X70590061Y-39045529D01*
X70530702Y-39058811D01*
X70467147Y-39061280D01*
X70467147Y-38812599D01*
X70503742Y-38809867D01*
X70529318Y-38799786D01*
X70544403Y-38787759D01*
X70571267Y-38750260D01*
X70582234Y-38706748D01*
X70576944Y-38662929D01*
X70555037Y-38624507D01*
X70554732Y-38624168D01*
X70519156Y-38598177D01*
X70477611Y-38587926D01*
X70435559Y-38592993D01*
X70398464Y-38612956D01*
X70376911Y-38637893D01*
X70358832Y-38684254D01*
X70360091Y-38729981D01*
X70380470Y-38771917D01*
X70386685Y-38779419D01*
X70407834Y-38799964D01*
X70428822Y-38809739D01*
X70458856Y-38812542D01*
X70467147Y-38812599D01*
X70467147Y-39061280D01*
X70462303Y-39061469D01*
X70392816Y-39054026D01*
X70330191Y-39037001D01*
X70307704Y-39027044D01*
X70236555Y-38979486D01*
X70179056Y-38917548D01*
X70136543Y-38843013D01*
X70111995Y-38765695D01*
X70105825Y-38690229D01*
X70117962Y-38613561D01*
D13*
X52150396Y-37594950D02*
G75*
G03*
X52150396Y-37594950I-50000J0D01*
G01*
D11*
X115221904Y-47422926D02*
X115558622Y-47086208D01*
X115356591Y-47692300D02*
X114885187Y-46749491D01*
X115827996Y-47220895D01*
X116434087Y-46614804D02*
X116030026Y-47018865D01*
X116232057Y-46816834D02*
X115524950Y-46109728D01*
X115558622Y-46278086D01*
X115558622Y-46412773D01*
X115524950Y-46513789D01*
X118786202Y-46312773D02*
X119122920Y-46649491D01*
X118516828Y-46447460D02*
X119459637Y-45976056D01*
X118988233Y-46918865D01*
X119830026Y-46481132D02*
X119897370Y-46481132D01*
X119998385Y-46514804D01*
X120166744Y-46683163D01*
X120200416Y-46784178D01*
X120200416Y-46851521D01*
X120166744Y-46952537D01*
X120099400Y-47019880D01*
X119964713Y-47087224D01*
X119156591Y-47087224D01*
X119594324Y-47524956D01*
M02*
