G04 #@! TF.GenerationSoftware,KiCad,Pcbnew,(5.1.6-0-10_14)*
G04 #@! TF.CreationDate,2021-04-17T00:03:13+02:00*
G04 #@! TF.ProjectId,Encoder_SPI_Panel_v1_1,456e636f-6465-4725-9f53-50495f50616e,rev?*
G04 #@! TF.SameCoordinates,Original*
G04 #@! TF.FileFunction,Paste,Bot*
G04 #@! TF.FilePolarity,Positive*
%FSLAX46Y46*%
G04 Gerber Fmt 4.6, Leading zero omitted, Abs format (unit mm)*
G04 Created by KiCad (PCBNEW (5.1.6-0-10_14)) date 2021-04-17 00:03:13*
%MOMM*%
%LPD*%
G01*
G04 APERTURE LIST*
%ADD10R,0.430000X1.450000*%
%ADD11C,0.150000*%
G04 APERTURE END LIST*
D10*
X139459133Y-42449999D03*
X138809133Y-42449999D03*
X138159133Y-42449999D03*
X137509133Y-42449999D03*
X136859133Y-42449999D03*
X136209133Y-42449999D03*
X135559133Y-42449999D03*
X135559133Y-36549999D03*
X136209133Y-36549999D03*
X136859133Y-36549999D03*
X137509133Y-36549999D03*
X138159133Y-36549999D03*
X138809133Y-36549999D03*
X139459133Y-36549999D03*
X119459130Y-42449999D03*
X118809130Y-42449999D03*
X118159130Y-42449999D03*
X117509130Y-42449999D03*
X116859130Y-42449999D03*
X116209130Y-42449999D03*
X115559130Y-42449999D03*
X115559130Y-36549999D03*
X116209130Y-36549999D03*
X116859130Y-36549999D03*
X117509130Y-36549999D03*
X118159130Y-36549999D03*
X118809130Y-36549999D03*
X119459130Y-36549999D03*
G36*
G01*
X98986482Y-37012450D02*
X98986482Y-36667450D01*
G75*
G02*
X99133982Y-36519950I147500J0D01*
G01*
X99428982Y-36519950D01*
G75*
G02*
X99576482Y-36667450I0J-147500D01*
G01*
X99576482Y-37012450D01*
G75*
G02*
X99428982Y-37159950I-147500J0D01*
G01*
X99133982Y-37159950D01*
G75*
G02*
X98986482Y-37012450I0J147500D01*
G01*
G37*
G36*
G01*
X99956482Y-37012450D02*
X99956482Y-36667450D01*
G75*
G02*
X100103982Y-36519950I147500J0D01*
G01*
X100398982Y-36519950D01*
G75*
G02*
X100546482Y-36667450I0J-147500D01*
G01*
X100546482Y-37012450D01*
G75*
G02*
X100398982Y-37159950I-147500J0D01*
G01*
X100103982Y-37159950D01*
G75*
G02*
X99956482Y-37012450I0J147500D01*
G01*
G37*
G36*
G01*
X102856482Y-38687450D02*
X102856482Y-38812450D01*
G75*
G02*
X102793982Y-38874950I-62500J0D01*
G01*
X102143982Y-38874950D01*
G75*
G02*
X102081482Y-38812450I0J62500D01*
G01*
X102081482Y-38687450D01*
G75*
G02*
X102143982Y-38624950I62500J0D01*
G01*
X102793982Y-38624950D01*
G75*
G02*
X102856482Y-38687450I0J-62500D01*
G01*
G37*
G36*
G01*
X102856482Y-39187450D02*
X102856482Y-39312450D01*
G75*
G02*
X102793982Y-39374950I-62500J0D01*
G01*
X102143982Y-39374950D01*
G75*
G02*
X102081482Y-39312450I0J62500D01*
G01*
X102081482Y-39187450D01*
G75*
G02*
X102143982Y-39124950I62500J0D01*
G01*
X102793982Y-39124950D01*
G75*
G02*
X102856482Y-39187450I0J-62500D01*
G01*
G37*
G36*
G01*
X102856482Y-39687450D02*
X102856482Y-39812450D01*
G75*
G02*
X102793982Y-39874950I-62500J0D01*
G01*
X102143982Y-39874950D01*
G75*
G02*
X102081482Y-39812450I0J62500D01*
G01*
X102081482Y-39687450D01*
G75*
G02*
X102143982Y-39624950I62500J0D01*
G01*
X102793982Y-39624950D01*
G75*
G02*
X102856482Y-39687450I0J-62500D01*
G01*
G37*
G36*
G01*
X102856482Y-40187450D02*
X102856482Y-40312450D01*
G75*
G02*
X102793982Y-40374950I-62500J0D01*
G01*
X102143982Y-40374950D01*
G75*
G02*
X102081482Y-40312450I0J62500D01*
G01*
X102081482Y-40187450D01*
G75*
G02*
X102143982Y-40124950I62500J0D01*
G01*
X102793982Y-40124950D01*
G75*
G02*
X102856482Y-40187450I0J-62500D01*
G01*
G37*
G36*
G01*
X101881482Y-40637450D02*
X101881482Y-41287450D01*
G75*
G02*
X101818982Y-41349950I-62500J0D01*
G01*
X101693982Y-41349950D01*
G75*
G02*
X101631482Y-41287450I0J62500D01*
G01*
X101631482Y-40637450D01*
G75*
G02*
X101693982Y-40574950I62500J0D01*
G01*
X101818982Y-40574950D01*
G75*
G02*
X101881482Y-40637450I0J-62500D01*
G01*
G37*
G36*
G01*
X101381482Y-40637450D02*
X101381482Y-41287450D01*
G75*
G02*
X101318982Y-41349950I-62500J0D01*
G01*
X101193982Y-41349950D01*
G75*
G02*
X101131482Y-41287450I0J62500D01*
G01*
X101131482Y-40637450D01*
G75*
G02*
X101193982Y-40574950I62500J0D01*
G01*
X101318982Y-40574950D01*
G75*
G02*
X101381482Y-40637450I0J-62500D01*
G01*
G37*
G36*
G01*
X100881482Y-40637450D02*
X100881482Y-41287450D01*
G75*
G02*
X100818982Y-41349950I-62500J0D01*
G01*
X100693982Y-41349950D01*
G75*
G02*
X100631482Y-41287450I0J62500D01*
G01*
X100631482Y-40637450D01*
G75*
G02*
X100693982Y-40574950I62500J0D01*
G01*
X100818982Y-40574950D01*
G75*
G02*
X100881482Y-40637450I0J-62500D01*
G01*
G37*
G36*
G01*
X100381482Y-40637450D02*
X100381482Y-41287450D01*
G75*
G02*
X100318982Y-41349950I-62500J0D01*
G01*
X100193982Y-41349950D01*
G75*
G02*
X100131482Y-41287450I0J62500D01*
G01*
X100131482Y-40637450D01*
G75*
G02*
X100193982Y-40574950I62500J0D01*
G01*
X100318982Y-40574950D01*
G75*
G02*
X100381482Y-40637450I0J-62500D01*
G01*
G37*
G36*
G01*
X99931482Y-40187450D02*
X99931482Y-40312450D01*
G75*
G02*
X99868982Y-40374950I-62500J0D01*
G01*
X99218982Y-40374950D01*
G75*
G02*
X99156482Y-40312450I0J62500D01*
G01*
X99156482Y-40187450D01*
G75*
G02*
X99218982Y-40124950I62500J0D01*
G01*
X99868982Y-40124950D01*
G75*
G02*
X99931482Y-40187450I0J-62500D01*
G01*
G37*
G36*
G01*
X99931482Y-39687450D02*
X99931482Y-39812450D01*
G75*
G02*
X99868982Y-39874950I-62500J0D01*
G01*
X99218982Y-39874950D01*
G75*
G02*
X99156482Y-39812450I0J62500D01*
G01*
X99156482Y-39687450D01*
G75*
G02*
X99218982Y-39624950I62500J0D01*
G01*
X99868982Y-39624950D01*
G75*
G02*
X99931482Y-39687450I0J-62500D01*
G01*
G37*
G36*
G01*
X99931482Y-39187450D02*
X99931482Y-39312450D01*
G75*
G02*
X99868982Y-39374950I-62500J0D01*
G01*
X99218982Y-39374950D01*
G75*
G02*
X99156482Y-39312450I0J62500D01*
G01*
X99156482Y-39187450D01*
G75*
G02*
X99218982Y-39124950I62500J0D01*
G01*
X99868982Y-39124950D01*
G75*
G02*
X99931482Y-39187450I0J-62500D01*
G01*
G37*
G36*
G01*
X99931482Y-38687450D02*
X99931482Y-38812450D01*
G75*
G02*
X99868982Y-38874950I-62500J0D01*
G01*
X99218982Y-38874950D01*
G75*
G02*
X99156482Y-38812450I0J62500D01*
G01*
X99156482Y-38687450D01*
G75*
G02*
X99218982Y-38624950I62500J0D01*
G01*
X99868982Y-38624950D01*
G75*
G02*
X99931482Y-38687450I0J-62500D01*
G01*
G37*
G36*
G01*
X100381482Y-37712450D02*
X100381482Y-38362450D01*
G75*
G02*
X100318982Y-38424950I-62500J0D01*
G01*
X100193982Y-38424950D01*
G75*
G02*
X100131482Y-38362450I0J62500D01*
G01*
X100131482Y-37712450D01*
G75*
G02*
X100193982Y-37649950I62500J0D01*
G01*
X100318982Y-37649950D01*
G75*
G02*
X100381482Y-37712450I0J-62500D01*
G01*
G37*
G36*
G01*
X100881482Y-37712450D02*
X100881482Y-38362450D01*
G75*
G02*
X100818982Y-38424950I-62500J0D01*
G01*
X100693982Y-38424950D01*
G75*
G02*
X100631482Y-38362450I0J62500D01*
G01*
X100631482Y-37712450D01*
G75*
G02*
X100693982Y-37649950I62500J0D01*
G01*
X100818982Y-37649950D01*
G75*
G02*
X100881482Y-37712450I0J-62500D01*
G01*
G37*
G36*
G01*
X101381482Y-37712450D02*
X101381482Y-38362450D01*
G75*
G02*
X101318982Y-38424950I-62500J0D01*
G01*
X101193982Y-38424950D01*
G75*
G02*
X101131482Y-38362450I0J62500D01*
G01*
X101131482Y-37712450D01*
G75*
G02*
X101193982Y-37649950I62500J0D01*
G01*
X101318982Y-37649950D01*
G75*
G02*
X101381482Y-37712450I0J-62500D01*
G01*
G37*
G36*
G01*
X101881482Y-37712450D02*
X101881482Y-38362450D01*
G75*
G02*
X101818982Y-38424950I-62500J0D01*
G01*
X101693982Y-38424950D01*
G75*
G02*
X101631482Y-38362450I0J62500D01*
G01*
X101631482Y-37712450D01*
G75*
G02*
X101693982Y-37649950I62500J0D01*
G01*
X101818982Y-37649950D01*
G75*
G02*
X101881482Y-37712450I0J-62500D01*
G01*
G37*
G36*
G01*
X101801482Y-38882450D02*
X101801482Y-39237450D01*
G75*
G02*
X101623982Y-39414950I-177500J0D01*
G01*
X101268982Y-39414950D01*
G75*
G02*
X101091482Y-39237450I0J177500D01*
G01*
X101091482Y-38882450D01*
G75*
G02*
X101268982Y-38704950I177500J0D01*
G01*
X101623982Y-38704950D01*
G75*
G02*
X101801482Y-38882450I0J-177500D01*
G01*
G37*
G36*
G01*
X101801482Y-39762450D02*
X101801482Y-40117450D01*
G75*
G02*
X101623982Y-40294950I-177500J0D01*
G01*
X101268982Y-40294950D01*
G75*
G02*
X101091482Y-40117450I0J177500D01*
G01*
X101091482Y-39762450D01*
G75*
G02*
X101268982Y-39584950I177500J0D01*
G01*
X101623982Y-39584950D01*
G75*
G02*
X101801482Y-39762450I0J-177500D01*
G01*
G37*
G36*
G01*
X100921482Y-38882450D02*
X100921482Y-39237450D01*
G75*
G02*
X100743982Y-39414950I-177500J0D01*
G01*
X100388982Y-39414950D01*
G75*
G02*
X100211482Y-39237450I0J177500D01*
G01*
X100211482Y-38882450D01*
G75*
G02*
X100388982Y-38704950I177500J0D01*
G01*
X100743982Y-38704950D01*
G75*
G02*
X100921482Y-38882450I0J-177500D01*
G01*
G37*
G36*
G01*
X100921482Y-39762450D02*
X100921482Y-40117450D01*
G75*
G02*
X100743982Y-40294950I-177500J0D01*
G01*
X100388982Y-40294950D01*
G75*
G02*
X100211482Y-40117450I0J177500D01*
G01*
X100211482Y-39762450D01*
G75*
G02*
X100388982Y-39584950I177500J0D01*
G01*
X100743982Y-39584950D01*
G75*
G02*
X100921482Y-39762450I0J-177500D01*
G01*
G37*
G36*
G01*
X85983438Y-37012450D02*
X85983438Y-36667450D01*
G75*
G02*
X86130938Y-36519950I147500J0D01*
G01*
X86425938Y-36519950D01*
G75*
G02*
X86573438Y-36667450I0J-147500D01*
G01*
X86573438Y-37012450D01*
G75*
G02*
X86425938Y-37159950I-147500J0D01*
G01*
X86130938Y-37159950D01*
G75*
G02*
X85983438Y-37012450I0J147500D01*
G01*
G37*
G36*
G01*
X86953438Y-37012450D02*
X86953438Y-36667450D01*
G75*
G02*
X87100938Y-36519950I147500J0D01*
G01*
X87395938Y-36519950D01*
G75*
G02*
X87543438Y-36667450I0J-147500D01*
G01*
X87543438Y-37012450D01*
G75*
G02*
X87395938Y-37159950I-147500J0D01*
G01*
X87100938Y-37159950D01*
G75*
G02*
X86953438Y-37012450I0J147500D01*
G01*
G37*
G36*
G01*
X89853438Y-38687450D02*
X89853438Y-38812450D01*
G75*
G02*
X89790938Y-38874950I-62500J0D01*
G01*
X89140938Y-38874950D01*
G75*
G02*
X89078438Y-38812450I0J62500D01*
G01*
X89078438Y-38687450D01*
G75*
G02*
X89140938Y-38624950I62500J0D01*
G01*
X89790938Y-38624950D01*
G75*
G02*
X89853438Y-38687450I0J-62500D01*
G01*
G37*
G36*
G01*
X89853438Y-39187450D02*
X89853438Y-39312450D01*
G75*
G02*
X89790938Y-39374950I-62500J0D01*
G01*
X89140938Y-39374950D01*
G75*
G02*
X89078438Y-39312450I0J62500D01*
G01*
X89078438Y-39187450D01*
G75*
G02*
X89140938Y-39124950I62500J0D01*
G01*
X89790938Y-39124950D01*
G75*
G02*
X89853438Y-39187450I0J-62500D01*
G01*
G37*
G36*
G01*
X89853438Y-39687450D02*
X89853438Y-39812450D01*
G75*
G02*
X89790938Y-39874950I-62500J0D01*
G01*
X89140938Y-39874950D01*
G75*
G02*
X89078438Y-39812450I0J62500D01*
G01*
X89078438Y-39687450D01*
G75*
G02*
X89140938Y-39624950I62500J0D01*
G01*
X89790938Y-39624950D01*
G75*
G02*
X89853438Y-39687450I0J-62500D01*
G01*
G37*
G36*
G01*
X89853438Y-40187450D02*
X89853438Y-40312450D01*
G75*
G02*
X89790938Y-40374950I-62500J0D01*
G01*
X89140938Y-40374950D01*
G75*
G02*
X89078438Y-40312450I0J62500D01*
G01*
X89078438Y-40187450D01*
G75*
G02*
X89140938Y-40124950I62500J0D01*
G01*
X89790938Y-40124950D01*
G75*
G02*
X89853438Y-40187450I0J-62500D01*
G01*
G37*
G36*
G01*
X88878438Y-40637450D02*
X88878438Y-41287450D01*
G75*
G02*
X88815938Y-41349950I-62500J0D01*
G01*
X88690938Y-41349950D01*
G75*
G02*
X88628438Y-41287450I0J62500D01*
G01*
X88628438Y-40637450D01*
G75*
G02*
X88690938Y-40574950I62500J0D01*
G01*
X88815938Y-40574950D01*
G75*
G02*
X88878438Y-40637450I0J-62500D01*
G01*
G37*
G36*
G01*
X88378438Y-40637450D02*
X88378438Y-41287450D01*
G75*
G02*
X88315938Y-41349950I-62500J0D01*
G01*
X88190938Y-41349950D01*
G75*
G02*
X88128438Y-41287450I0J62500D01*
G01*
X88128438Y-40637450D01*
G75*
G02*
X88190938Y-40574950I62500J0D01*
G01*
X88315938Y-40574950D01*
G75*
G02*
X88378438Y-40637450I0J-62500D01*
G01*
G37*
G36*
G01*
X87878438Y-40637450D02*
X87878438Y-41287450D01*
G75*
G02*
X87815938Y-41349950I-62500J0D01*
G01*
X87690938Y-41349950D01*
G75*
G02*
X87628438Y-41287450I0J62500D01*
G01*
X87628438Y-40637450D01*
G75*
G02*
X87690938Y-40574950I62500J0D01*
G01*
X87815938Y-40574950D01*
G75*
G02*
X87878438Y-40637450I0J-62500D01*
G01*
G37*
G36*
G01*
X87378438Y-40637450D02*
X87378438Y-41287450D01*
G75*
G02*
X87315938Y-41349950I-62500J0D01*
G01*
X87190938Y-41349950D01*
G75*
G02*
X87128438Y-41287450I0J62500D01*
G01*
X87128438Y-40637450D01*
G75*
G02*
X87190938Y-40574950I62500J0D01*
G01*
X87315938Y-40574950D01*
G75*
G02*
X87378438Y-40637450I0J-62500D01*
G01*
G37*
G36*
G01*
X86928438Y-40187450D02*
X86928438Y-40312450D01*
G75*
G02*
X86865938Y-40374950I-62500J0D01*
G01*
X86215938Y-40374950D01*
G75*
G02*
X86153438Y-40312450I0J62500D01*
G01*
X86153438Y-40187450D01*
G75*
G02*
X86215938Y-40124950I62500J0D01*
G01*
X86865938Y-40124950D01*
G75*
G02*
X86928438Y-40187450I0J-62500D01*
G01*
G37*
G36*
G01*
X86928438Y-39687450D02*
X86928438Y-39812450D01*
G75*
G02*
X86865938Y-39874950I-62500J0D01*
G01*
X86215938Y-39874950D01*
G75*
G02*
X86153438Y-39812450I0J62500D01*
G01*
X86153438Y-39687450D01*
G75*
G02*
X86215938Y-39624950I62500J0D01*
G01*
X86865938Y-39624950D01*
G75*
G02*
X86928438Y-39687450I0J-62500D01*
G01*
G37*
G36*
G01*
X86928438Y-39187450D02*
X86928438Y-39312450D01*
G75*
G02*
X86865938Y-39374950I-62500J0D01*
G01*
X86215938Y-39374950D01*
G75*
G02*
X86153438Y-39312450I0J62500D01*
G01*
X86153438Y-39187450D01*
G75*
G02*
X86215938Y-39124950I62500J0D01*
G01*
X86865938Y-39124950D01*
G75*
G02*
X86928438Y-39187450I0J-62500D01*
G01*
G37*
G36*
G01*
X86928438Y-38687450D02*
X86928438Y-38812450D01*
G75*
G02*
X86865938Y-38874950I-62500J0D01*
G01*
X86215938Y-38874950D01*
G75*
G02*
X86153438Y-38812450I0J62500D01*
G01*
X86153438Y-38687450D01*
G75*
G02*
X86215938Y-38624950I62500J0D01*
G01*
X86865938Y-38624950D01*
G75*
G02*
X86928438Y-38687450I0J-62500D01*
G01*
G37*
G36*
G01*
X87378438Y-37712450D02*
X87378438Y-38362450D01*
G75*
G02*
X87315938Y-38424950I-62500J0D01*
G01*
X87190938Y-38424950D01*
G75*
G02*
X87128438Y-38362450I0J62500D01*
G01*
X87128438Y-37712450D01*
G75*
G02*
X87190938Y-37649950I62500J0D01*
G01*
X87315938Y-37649950D01*
G75*
G02*
X87378438Y-37712450I0J-62500D01*
G01*
G37*
G36*
G01*
X87878438Y-37712450D02*
X87878438Y-38362450D01*
G75*
G02*
X87815938Y-38424950I-62500J0D01*
G01*
X87690938Y-38424950D01*
G75*
G02*
X87628438Y-38362450I0J62500D01*
G01*
X87628438Y-37712450D01*
G75*
G02*
X87690938Y-37649950I62500J0D01*
G01*
X87815938Y-37649950D01*
G75*
G02*
X87878438Y-37712450I0J-62500D01*
G01*
G37*
G36*
G01*
X88378438Y-37712450D02*
X88378438Y-38362450D01*
G75*
G02*
X88315938Y-38424950I-62500J0D01*
G01*
X88190938Y-38424950D01*
G75*
G02*
X88128438Y-38362450I0J62500D01*
G01*
X88128438Y-37712450D01*
G75*
G02*
X88190938Y-37649950I62500J0D01*
G01*
X88315938Y-37649950D01*
G75*
G02*
X88378438Y-37712450I0J-62500D01*
G01*
G37*
G36*
G01*
X88878438Y-37712450D02*
X88878438Y-38362450D01*
G75*
G02*
X88815938Y-38424950I-62500J0D01*
G01*
X88690938Y-38424950D01*
G75*
G02*
X88628438Y-38362450I0J62500D01*
G01*
X88628438Y-37712450D01*
G75*
G02*
X88690938Y-37649950I62500J0D01*
G01*
X88815938Y-37649950D01*
G75*
G02*
X88878438Y-37712450I0J-62500D01*
G01*
G37*
G36*
G01*
X88798438Y-38882450D02*
X88798438Y-39237450D01*
G75*
G02*
X88620938Y-39414950I-177500J0D01*
G01*
X88265938Y-39414950D01*
G75*
G02*
X88088438Y-39237450I0J177500D01*
G01*
X88088438Y-38882450D01*
G75*
G02*
X88265938Y-38704950I177500J0D01*
G01*
X88620938Y-38704950D01*
G75*
G02*
X88798438Y-38882450I0J-177500D01*
G01*
G37*
G36*
G01*
X88798438Y-39762450D02*
X88798438Y-40117450D01*
G75*
G02*
X88620938Y-40294950I-177500J0D01*
G01*
X88265938Y-40294950D01*
G75*
G02*
X88088438Y-40117450I0J177500D01*
G01*
X88088438Y-39762450D01*
G75*
G02*
X88265938Y-39584950I177500J0D01*
G01*
X88620938Y-39584950D01*
G75*
G02*
X88798438Y-39762450I0J-177500D01*
G01*
G37*
G36*
G01*
X87918438Y-38882450D02*
X87918438Y-39237450D01*
G75*
G02*
X87740938Y-39414950I-177500J0D01*
G01*
X87385938Y-39414950D01*
G75*
G02*
X87208438Y-39237450I0J177500D01*
G01*
X87208438Y-38882450D01*
G75*
G02*
X87385938Y-38704950I177500J0D01*
G01*
X87740938Y-38704950D01*
G75*
G02*
X87918438Y-38882450I0J-177500D01*
G01*
G37*
G36*
G01*
X87918438Y-39762450D02*
X87918438Y-40117450D01*
G75*
G02*
X87740938Y-40294950I-177500J0D01*
G01*
X87385938Y-40294950D01*
G75*
G02*
X87208438Y-40117450I0J177500D01*
G01*
X87208438Y-39762450D01*
G75*
G02*
X87385938Y-39584950I177500J0D01*
G01*
X87740938Y-39584950D01*
G75*
G02*
X87918438Y-39762450I0J-177500D01*
G01*
G37*
G36*
G01*
X69435539Y-35999999D02*
X69760539Y-35999999D01*
G75*
G02*
X69923039Y-36162499I0J-162500D01*
G01*
X69923039Y-37147499D01*
G75*
G02*
X69760539Y-37309999I-162500J0D01*
G01*
X69435539Y-37309999D01*
G75*
G02*
X69273039Y-37147499I0J162500D01*
G01*
X69273039Y-36162499D01*
G75*
G02*
X69435539Y-35999999I162500J0D01*
G01*
G37*
G36*
G01*
X70705539Y-35999999D02*
X71030539Y-35999999D01*
G75*
G02*
X71193039Y-36162499I0J-162500D01*
G01*
X71193039Y-37147499D01*
G75*
G02*
X71030539Y-37309999I-162500J0D01*
G01*
X70705539Y-37309999D01*
G75*
G02*
X70543039Y-37147499I0J162500D01*
G01*
X70543039Y-36162499D01*
G75*
G02*
X70705539Y-35999999I162500J0D01*
G01*
G37*
G36*
G01*
X71975539Y-35999999D02*
X72300539Y-35999999D01*
G75*
G02*
X72463039Y-36162499I0J-162500D01*
G01*
X72463039Y-37147499D01*
G75*
G02*
X72300539Y-37309999I-162500J0D01*
G01*
X71975539Y-37309999D01*
G75*
G02*
X71813039Y-37147499I0J162500D01*
G01*
X71813039Y-36162499D01*
G75*
G02*
X71975539Y-35999999I162500J0D01*
G01*
G37*
G36*
G01*
X73245539Y-35999999D02*
X73570539Y-35999999D01*
G75*
G02*
X73733039Y-36162499I0J-162500D01*
G01*
X73733039Y-37147499D01*
G75*
G02*
X73570539Y-37309999I-162500J0D01*
G01*
X73245539Y-37309999D01*
G75*
G02*
X73083039Y-37147499I0J162500D01*
G01*
X73083039Y-36162499D01*
G75*
G02*
X73245539Y-35999999I162500J0D01*
G01*
G37*
G36*
G01*
X69435539Y-41689999D02*
X69760539Y-41689999D01*
G75*
G02*
X69923039Y-41852499I0J-162500D01*
G01*
X69923039Y-42837499D01*
G75*
G02*
X69760539Y-42999999I-162500J0D01*
G01*
X69435539Y-42999999D01*
G75*
G02*
X69273039Y-42837499I0J162500D01*
G01*
X69273039Y-41852499D01*
G75*
G02*
X69435539Y-41689999I162500J0D01*
G01*
G37*
G36*
G01*
X70705539Y-41689999D02*
X71030539Y-41689999D01*
G75*
G02*
X71193039Y-41852499I0J-162500D01*
G01*
X71193039Y-42837499D01*
G75*
G02*
X71030539Y-42999999I-162500J0D01*
G01*
X70705539Y-42999999D01*
G75*
G02*
X70543039Y-42837499I0J162500D01*
G01*
X70543039Y-41852499D01*
G75*
G02*
X70705539Y-41689999I162500J0D01*
G01*
G37*
G36*
G01*
X71975539Y-41689999D02*
X72300539Y-41689999D01*
G75*
G02*
X72463039Y-41852499I0J-162500D01*
G01*
X72463039Y-42837499D01*
G75*
G02*
X72300539Y-42999999I-162500J0D01*
G01*
X71975539Y-42999999D01*
G75*
G02*
X71813039Y-42837499I0J162500D01*
G01*
X71813039Y-41852499D01*
G75*
G02*
X71975539Y-41689999I162500J0D01*
G01*
G37*
G36*
G01*
X73245539Y-41689999D02*
X73570539Y-41689999D01*
G75*
G02*
X73733039Y-41852499I0J-162500D01*
G01*
X73733039Y-42837499D01*
G75*
G02*
X73570539Y-42999999I-162500J0D01*
G01*
X73245539Y-42999999D01*
G75*
G02*
X73083039Y-42837499I0J162500D01*
G01*
X73083039Y-41852499D01*
G75*
G02*
X73245539Y-41689999I162500J0D01*
G01*
G37*
G36*
G01*
X51170828Y-36373469D02*
X50926877Y-36129517D01*
G75*
G02*
X50926877Y-35920921I104298J104298D01*
G01*
X51135473Y-35712325D01*
G75*
G02*
X51344069Y-35712325I104298J-104298D01*
G01*
X51588021Y-35956277D01*
G75*
G02*
X51588021Y-36164873I-104298J-104298D01*
G01*
X51379425Y-36373469D01*
G75*
G02*
X51170829Y-36373469I-104298J104298D01*
G01*
G37*
G36*
G01*
X51856722Y-35687575D02*
X51612771Y-35443623D01*
G75*
G02*
X51612771Y-35235027I104298J104298D01*
G01*
X51821367Y-35026431D01*
G75*
G02*
X52029963Y-35026431I104298J-104298D01*
G01*
X52273915Y-35270383D01*
G75*
G02*
X52273915Y-35478979I-104298J-104298D01*
G01*
X52065319Y-35687575D01*
G75*
G02*
X51856723Y-35687575I-104298J104298D01*
G01*
G37*
G36*
G01*
X53823915Y-41359518D02*
X53579963Y-41603469D01*
G75*
G02*
X53371367Y-41603469I-104298J104298D01*
G01*
X53162771Y-41394873D01*
G75*
G02*
X53162771Y-41186277I104298J104298D01*
G01*
X53406723Y-40942325D01*
G75*
G02*
X53615319Y-40942325I104298J-104298D01*
G01*
X53823915Y-41150921D01*
G75*
G02*
X53823915Y-41359517I-104298J-104298D01*
G01*
G37*
G36*
G01*
X53138021Y-40673624D02*
X52894069Y-40917575D01*
G75*
G02*
X52685473Y-40917575I-104298J104298D01*
G01*
X52476877Y-40708979D01*
G75*
G02*
X52476877Y-40500383I104298J104298D01*
G01*
X52720829Y-40256431D01*
G75*
G02*
X52929425Y-40256431I104298J-104298D01*
G01*
X53138021Y-40465027D01*
G75*
G02*
X53138021Y-40673623I-104298J-104298D01*
G01*
G37*
D11*
G36*
X55307228Y-35105115D02*
G01*
X55294262Y-35112045D01*
X55280192Y-35116313D01*
X55265561Y-35117754D01*
X55250929Y-35116313D01*
X55236859Y-35112045D01*
X55223893Y-35105115D01*
X55212528Y-35095787D01*
X55181462Y-35064721D01*
X55172134Y-35053356D01*
X55165204Y-35040390D01*
X55160936Y-35026320D01*
X55159495Y-35011688D01*
X55159495Y-34861688D01*
X55160936Y-34847057D01*
X55165204Y-34832987D01*
X55172134Y-34820021D01*
X55181462Y-34808655D01*
X55725180Y-34264937D01*
X55736546Y-34255609D01*
X55749512Y-34248679D01*
X55763582Y-34244411D01*
X55778213Y-34242970D01*
X55792845Y-34244411D01*
X55806915Y-34248679D01*
X55819881Y-34255609D01*
X55831246Y-34264937D01*
X55937312Y-34371003D01*
X55946640Y-34382368D01*
X55953570Y-34395334D01*
X55957838Y-34409404D01*
X55959279Y-34424036D01*
X55957838Y-34438667D01*
X55953570Y-34452737D01*
X55946640Y-34465703D01*
X55937312Y-34477069D01*
X55318594Y-35095787D01*
X55307228Y-35105115D01*
G37*
G36*
G01*
X56290866Y-34724556D02*
X56396932Y-34830622D01*
G75*
G02*
X56396932Y-34936688I-53033J-53033D01*
G01*
X55778214Y-35555406D01*
G75*
G02*
X55672148Y-35555406I-53033J53033D01*
G01*
X55566082Y-35449340D01*
G75*
G02*
X55566082Y-35343274I53033J53033D01*
G01*
X56184800Y-34724556D01*
G75*
G02*
X56290866Y-34724556I53033J-53033D01*
G01*
G37*
G36*
G01*
X56750485Y-35184176D02*
X56856551Y-35290242D01*
G75*
G02*
X56856551Y-35396308I-53033J-53033D01*
G01*
X56237833Y-36015026D01*
G75*
G02*
X56131767Y-36015026I-53033J53033D01*
G01*
X56025701Y-35908960D01*
G75*
G02*
X56025701Y-35802894I53033J53033D01*
G01*
X56644419Y-35184176D01*
G75*
G02*
X56750485Y-35184176I53033J-53033D01*
G01*
G37*
G36*
G01*
X57210104Y-35643795D02*
X57316170Y-35749861D01*
G75*
G02*
X57316170Y-35855927I-53033J-53033D01*
G01*
X56697452Y-36474645D01*
G75*
G02*
X56591386Y-36474645I-53033J53033D01*
G01*
X56485320Y-36368579D01*
G75*
G02*
X56485320Y-36262513I53033J53033D01*
G01*
X57104038Y-35643795D01*
G75*
G02*
X57210104Y-35643795I53033J-53033D01*
G01*
G37*
G36*
G01*
X57669724Y-36103414D02*
X57775790Y-36209480D01*
G75*
G02*
X57775790Y-36315546I-53033J-53033D01*
G01*
X57157072Y-36934264D01*
G75*
G02*
X57051006Y-36934264I-53033J53033D01*
G01*
X56944940Y-36828198D01*
G75*
G02*
X56944940Y-36722132I53033J53033D01*
G01*
X57563658Y-36103414D01*
G75*
G02*
X57669724Y-36103414I53033J-53033D01*
G01*
G37*
G36*
X57680325Y-37328212D02*
G01*
X57667359Y-37335142D01*
X57653289Y-37339410D01*
X57638658Y-37340851D01*
X57488658Y-37340851D01*
X57474026Y-37339410D01*
X57459956Y-37335142D01*
X57446990Y-37328212D01*
X57435625Y-37318884D01*
X57404559Y-37287818D01*
X57395231Y-37276453D01*
X57388301Y-37263487D01*
X57384033Y-37249417D01*
X57382592Y-37234785D01*
X57384033Y-37220154D01*
X57388301Y-37206084D01*
X57395231Y-37193118D01*
X57404559Y-37181752D01*
X58023277Y-36563034D01*
X58034643Y-36553706D01*
X58047609Y-36546776D01*
X58061679Y-36542508D01*
X58076310Y-36541067D01*
X58090942Y-36542508D01*
X58105012Y-36546776D01*
X58117978Y-36553706D01*
X58129343Y-36563034D01*
X58235409Y-36669100D01*
X58244737Y-36680465D01*
X58251667Y-36693431D01*
X58255935Y-36707501D01*
X58257376Y-36722133D01*
X58255935Y-36736764D01*
X58251667Y-36750834D01*
X58244737Y-36763800D01*
X58235409Y-36775166D01*
X57691691Y-37318884D01*
X57680325Y-37328212D01*
G37*
G36*
X58117978Y-38446194D02*
G01*
X58105012Y-38453124D01*
X58090942Y-38457392D01*
X58076310Y-38458833D01*
X58061679Y-38457392D01*
X58047609Y-38453124D01*
X58034643Y-38446194D01*
X58023277Y-38436866D01*
X57404559Y-37818148D01*
X57395231Y-37806782D01*
X57388301Y-37793816D01*
X57384033Y-37779746D01*
X57382592Y-37765115D01*
X57384033Y-37750483D01*
X57388301Y-37736413D01*
X57395231Y-37723447D01*
X57404559Y-37712082D01*
X57435625Y-37681016D01*
X57446990Y-37671688D01*
X57459956Y-37664758D01*
X57474026Y-37660490D01*
X57488658Y-37659049D01*
X57638658Y-37659049D01*
X57653289Y-37660490D01*
X57667359Y-37664758D01*
X57680325Y-37671688D01*
X57691691Y-37681016D01*
X58235409Y-38224734D01*
X58244737Y-38236100D01*
X58251667Y-38249066D01*
X58255935Y-38263136D01*
X58257376Y-38277767D01*
X58255935Y-38292399D01*
X58251667Y-38306469D01*
X58244737Y-38319435D01*
X58235409Y-38330800D01*
X58129343Y-38436866D01*
X58117978Y-38446194D01*
G37*
G36*
G01*
X57157072Y-38065636D02*
X57775790Y-38684354D01*
G75*
G02*
X57775790Y-38790420I-53033J-53033D01*
G01*
X57669724Y-38896486D01*
G75*
G02*
X57563658Y-38896486I-53033J53033D01*
G01*
X56944940Y-38277768D01*
G75*
G02*
X56944940Y-38171702I53033J53033D01*
G01*
X57051006Y-38065636D01*
G75*
G02*
X57157072Y-38065636I53033J-53033D01*
G01*
G37*
G36*
G01*
X56697452Y-38525255D02*
X57316170Y-39143973D01*
G75*
G02*
X57316170Y-39250039I-53033J-53033D01*
G01*
X57210104Y-39356105D01*
G75*
G02*
X57104038Y-39356105I-53033J53033D01*
G01*
X56485320Y-38737387D01*
G75*
G02*
X56485320Y-38631321I53033J53033D01*
G01*
X56591386Y-38525255D01*
G75*
G02*
X56697452Y-38525255I53033J-53033D01*
G01*
G37*
G36*
G01*
X56237833Y-38984874D02*
X56856551Y-39603592D01*
G75*
G02*
X56856551Y-39709658I-53033J-53033D01*
G01*
X56750485Y-39815724D01*
G75*
G02*
X56644419Y-39815724I-53033J53033D01*
G01*
X56025701Y-39197006D01*
G75*
G02*
X56025701Y-39090940I53033J53033D01*
G01*
X56131767Y-38984874D01*
G75*
G02*
X56237833Y-38984874I53033J-53033D01*
G01*
G37*
G36*
G01*
X55778214Y-39444494D02*
X56396932Y-40063212D01*
G75*
G02*
X56396932Y-40169278I-53033J-53033D01*
G01*
X56290866Y-40275344D01*
G75*
G02*
X56184800Y-40275344I-53033J53033D01*
G01*
X55566082Y-39656626D01*
G75*
G02*
X55566082Y-39550560I53033J53033D01*
G01*
X55672148Y-39444494D01*
G75*
G02*
X55778214Y-39444494I53033J-53033D01*
G01*
G37*
G36*
X55819881Y-40744291D02*
G01*
X55806915Y-40751221D01*
X55792845Y-40755489D01*
X55778213Y-40756930D01*
X55763582Y-40755489D01*
X55749512Y-40751221D01*
X55736546Y-40744291D01*
X55725180Y-40734963D01*
X55181462Y-40191245D01*
X55172134Y-40179879D01*
X55165204Y-40166913D01*
X55160936Y-40152843D01*
X55159495Y-40138212D01*
X55159495Y-39988212D01*
X55160936Y-39973580D01*
X55165204Y-39959510D01*
X55172134Y-39946544D01*
X55181462Y-39935179D01*
X55212528Y-39904113D01*
X55223893Y-39894785D01*
X55236859Y-39887855D01*
X55250929Y-39883587D01*
X55265561Y-39882146D01*
X55280192Y-39883587D01*
X55294262Y-39887855D01*
X55307228Y-39894785D01*
X55318594Y-39904113D01*
X55937312Y-40522831D01*
X55946640Y-40534197D01*
X55953570Y-40547163D01*
X55957838Y-40561233D01*
X55959279Y-40575864D01*
X55957838Y-40590496D01*
X55953570Y-40604566D01*
X55946640Y-40617532D01*
X55937312Y-40628897D01*
X55831246Y-40734963D01*
X55819881Y-40744291D01*
G37*
G36*
X54264246Y-40744291D02*
G01*
X54251280Y-40751221D01*
X54237210Y-40755489D01*
X54222579Y-40756930D01*
X54207947Y-40755489D01*
X54193877Y-40751221D01*
X54180911Y-40744291D01*
X54169546Y-40734963D01*
X54063480Y-40628897D01*
X54054152Y-40617532D01*
X54047222Y-40604566D01*
X54042954Y-40590496D01*
X54041513Y-40575864D01*
X54042954Y-40561233D01*
X54047222Y-40547163D01*
X54054152Y-40534197D01*
X54063480Y-40522831D01*
X54682198Y-39904113D01*
X54693564Y-39894785D01*
X54706530Y-39887855D01*
X54720600Y-39883587D01*
X54735231Y-39882146D01*
X54749863Y-39883587D01*
X54763933Y-39887855D01*
X54776899Y-39894785D01*
X54788264Y-39904113D01*
X54819330Y-39935179D01*
X54828658Y-39946544D01*
X54835588Y-39959510D01*
X54839856Y-39973580D01*
X54841297Y-39988212D01*
X54841297Y-40138212D01*
X54839856Y-40152843D01*
X54835588Y-40166913D01*
X54828658Y-40179879D01*
X54819330Y-40191245D01*
X54275612Y-40734963D01*
X54264246Y-40744291D01*
G37*
G36*
G01*
X54328644Y-39444494D02*
X54434710Y-39550560D01*
G75*
G02*
X54434710Y-39656626I-53033J-53033D01*
G01*
X53815992Y-40275344D01*
G75*
G02*
X53709926Y-40275344I-53033J53033D01*
G01*
X53603860Y-40169278D01*
G75*
G02*
X53603860Y-40063212I53033J53033D01*
G01*
X54222578Y-39444494D01*
G75*
G02*
X54328644Y-39444494I53033J-53033D01*
G01*
G37*
G36*
G01*
X53869025Y-38984874D02*
X53975091Y-39090940D01*
G75*
G02*
X53975091Y-39197006I-53033J-53033D01*
G01*
X53356373Y-39815724D01*
G75*
G02*
X53250307Y-39815724I-53033J53033D01*
G01*
X53144241Y-39709658D01*
G75*
G02*
X53144241Y-39603592I53033J53033D01*
G01*
X53762959Y-38984874D01*
G75*
G02*
X53869025Y-38984874I53033J-53033D01*
G01*
G37*
G36*
G01*
X53409406Y-38525255D02*
X53515472Y-38631321D01*
G75*
G02*
X53515472Y-38737387I-53033J-53033D01*
G01*
X52896754Y-39356105D01*
G75*
G02*
X52790688Y-39356105I-53033J53033D01*
G01*
X52684622Y-39250039D01*
G75*
G02*
X52684622Y-39143973I53033J53033D01*
G01*
X53303340Y-38525255D01*
G75*
G02*
X53409406Y-38525255I53033J-53033D01*
G01*
G37*
G36*
G01*
X52949786Y-38065636D02*
X53055852Y-38171702D01*
G75*
G02*
X53055852Y-38277768I-53033J-53033D01*
G01*
X52437134Y-38896486D01*
G75*
G02*
X52331068Y-38896486I-53033J53033D01*
G01*
X52225002Y-38790420D01*
G75*
G02*
X52225002Y-38684354I53033J53033D01*
G01*
X52843720Y-38065636D01*
G75*
G02*
X52949786Y-38065636I53033J-53033D01*
G01*
G37*
G36*
X51966149Y-38446194D02*
G01*
X51953183Y-38453124D01*
X51939113Y-38457392D01*
X51924482Y-38458833D01*
X51909850Y-38457392D01*
X51895780Y-38453124D01*
X51882814Y-38446194D01*
X51871449Y-38436866D01*
X51765383Y-38330800D01*
X51756055Y-38319435D01*
X51749125Y-38306469D01*
X51744857Y-38292399D01*
X51743416Y-38277767D01*
X51744857Y-38263136D01*
X51749125Y-38249066D01*
X51756055Y-38236100D01*
X51765383Y-38224734D01*
X52309101Y-37681016D01*
X52320467Y-37671688D01*
X52333433Y-37664758D01*
X52347503Y-37660490D01*
X52362134Y-37659049D01*
X52512134Y-37659049D01*
X52526766Y-37660490D01*
X52540836Y-37664758D01*
X52553802Y-37671688D01*
X52565167Y-37681016D01*
X52596233Y-37712082D01*
X52605561Y-37723447D01*
X52612491Y-37736413D01*
X52616759Y-37750483D01*
X52618200Y-37765115D01*
X52616759Y-37779746D01*
X52612491Y-37793816D01*
X52605561Y-37806782D01*
X52596233Y-37818148D01*
X51977515Y-38436866D01*
X51966149Y-38446194D01*
G37*
G36*
X52553802Y-37328212D02*
G01*
X52540836Y-37335142D01*
X52526766Y-37339410D01*
X52512134Y-37340851D01*
X52362134Y-37340851D01*
X52347503Y-37339410D01*
X52333433Y-37335142D01*
X52320467Y-37328212D01*
X52309101Y-37318884D01*
X51765383Y-36775166D01*
X51756055Y-36763800D01*
X51749125Y-36750834D01*
X51744857Y-36736764D01*
X51743416Y-36722133D01*
X51744857Y-36707501D01*
X51749125Y-36693431D01*
X51756055Y-36680465D01*
X51765383Y-36669100D01*
X51871449Y-36563034D01*
X51882814Y-36553706D01*
X51895780Y-36546776D01*
X51909850Y-36542508D01*
X51924482Y-36541067D01*
X51939113Y-36542508D01*
X51953183Y-36546776D01*
X51966149Y-36553706D01*
X51977515Y-36563034D01*
X52596233Y-37181752D01*
X52605561Y-37193118D01*
X52612491Y-37206084D01*
X52616759Y-37220154D01*
X52618200Y-37234785D01*
X52616759Y-37249417D01*
X52612491Y-37263487D01*
X52605561Y-37276453D01*
X52596233Y-37287818D01*
X52565167Y-37318884D01*
X52553802Y-37328212D01*
G37*
G36*
G01*
X52437134Y-36103414D02*
X53055852Y-36722132D01*
G75*
G02*
X53055852Y-36828198I-53033J-53033D01*
G01*
X52949786Y-36934264D01*
G75*
G02*
X52843720Y-36934264I-53033J53033D01*
G01*
X52225002Y-36315546D01*
G75*
G02*
X52225002Y-36209480I53033J53033D01*
G01*
X52331068Y-36103414D01*
G75*
G02*
X52437134Y-36103414I53033J-53033D01*
G01*
G37*
G36*
G01*
X52896754Y-35643795D02*
X53515472Y-36262513D01*
G75*
G02*
X53515472Y-36368579I-53033J-53033D01*
G01*
X53409406Y-36474645D01*
G75*
G02*
X53303340Y-36474645I-53033J53033D01*
G01*
X52684622Y-35855927D01*
G75*
G02*
X52684622Y-35749861I53033J53033D01*
G01*
X52790688Y-35643795D01*
G75*
G02*
X52896754Y-35643795I53033J-53033D01*
G01*
G37*
G36*
G01*
X53356373Y-35184176D02*
X53975091Y-35802894D01*
G75*
G02*
X53975091Y-35908960I-53033J-53033D01*
G01*
X53869025Y-36015026D01*
G75*
G02*
X53762959Y-36015026I-53033J53033D01*
G01*
X53144241Y-35396308D01*
G75*
G02*
X53144241Y-35290242I53033J53033D01*
G01*
X53250307Y-35184176D01*
G75*
G02*
X53356373Y-35184176I53033J-53033D01*
G01*
G37*
G36*
G01*
X53815992Y-34724556D02*
X54434710Y-35343274D01*
G75*
G02*
X54434710Y-35449340I-53033J-53033D01*
G01*
X54328644Y-35555406D01*
G75*
G02*
X54222578Y-35555406I-53033J53033D01*
G01*
X53603860Y-34936688D01*
G75*
G02*
X53603860Y-34830622I53033J53033D01*
G01*
X53709926Y-34724556D01*
G75*
G02*
X53815992Y-34724556I53033J-53033D01*
G01*
G37*
G36*
X54776899Y-35105115D02*
G01*
X54763933Y-35112045D01*
X54749863Y-35116313D01*
X54735231Y-35117754D01*
X54720600Y-35116313D01*
X54706530Y-35112045D01*
X54693564Y-35105115D01*
X54682198Y-35095787D01*
X54063480Y-34477069D01*
X54054152Y-34465703D01*
X54047222Y-34452737D01*
X54042954Y-34438667D01*
X54041513Y-34424036D01*
X54042954Y-34409404D01*
X54047222Y-34395334D01*
X54054152Y-34382368D01*
X54063480Y-34371003D01*
X54169546Y-34264937D01*
X54180911Y-34255609D01*
X54193877Y-34248679D01*
X54207947Y-34244411D01*
X54222579Y-34242970D01*
X54237210Y-34244411D01*
X54251280Y-34248679D01*
X54264246Y-34255609D01*
X54275612Y-34264937D01*
X54819330Y-34808655D01*
X54828658Y-34820021D01*
X54835588Y-34832987D01*
X54839856Y-34847057D01*
X54841297Y-34861688D01*
X54841297Y-35011688D01*
X54839856Y-35026320D01*
X54835588Y-35040390D01*
X54828658Y-35053356D01*
X54819330Y-35064721D01*
X54788264Y-35095787D01*
X54776899Y-35105115D01*
G37*
G36*
G01*
X55177172Y-35633187D02*
X55735788Y-36191803D01*
G75*
G02*
X55735788Y-36545355I-176776J-176776D01*
G01*
X55177172Y-37103971D01*
G75*
G02*
X54823620Y-37103971I-176776J176776D01*
G01*
X54265004Y-36545355D01*
G75*
G02*
X54265004Y-36191803I176776J176776D01*
G01*
X54823620Y-35633187D01*
G75*
G02*
X55177172Y-35633187I176776J-176776D01*
G01*
G37*
G36*
G01*
X56308543Y-36764558D02*
X56867159Y-37323174D01*
G75*
G02*
X56867159Y-37676726I-176776J-176776D01*
G01*
X56308543Y-38235342D01*
G75*
G02*
X55954991Y-38235342I-176776J176776D01*
G01*
X55396375Y-37676726D01*
G75*
G02*
X55396375Y-37323174I176776J176776D01*
G01*
X55954991Y-36764558D01*
G75*
G02*
X56308543Y-36764558I176776J-176776D01*
G01*
G37*
G36*
G01*
X54045801Y-36764558D02*
X54604417Y-37323174D01*
G75*
G02*
X54604417Y-37676726I-176776J-176776D01*
G01*
X54045801Y-38235342D01*
G75*
G02*
X53692249Y-38235342I-176776J176776D01*
G01*
X53133633Y-37676726D01*
G75*
G02*
X53133633Y-37323174I176776J176776D01*
G01*
X53692249Y-36764558D01*
G75*
G02*
X54045801Y-36764558I176776J-176776D01*
G01*
G37*
G36*
G01*
X55177172Y-37895929D02*
X55735788Y-38454545D01*
G75*
G02*
X55735788Y-38808097I-176776J-176776D01*
G01*
X55177172Y-39366713D01*
G75*
G02*
X54823620Y-39366713I-176776J176776D01*
G01*
X54265004Y-38808097D01*
G75*
G02*
X54265004Y-38454545I176776J176776D01*
G01*
X54823620Y-37895929D01*
G75*
G02*
X55177172Y-37895929I176776J-176776D01*
G01*
G37*
M02*
